<svg width="48" height="45" viewBox="0 0 48 45" fill="none" xmlns="http://www.w3.org/2000/svg">
<path d="M46.3837 24.5872H27.536C26.7004 24.5872 25.9261 25.0356 25.5099 25.7615L19.7962 35.7596C19.7285 35.8758 19.6059 35.95 19.4704 35.95H18.9574C17.6927 35.95 16.5216 35.2757 15.8892 34.1788L15.7215 33.8884C15.6537 33.7723 15.6537 33.6303 15.7215 33.5142L21.4545 23.4419C21.8675 22.7224 21.8675 21.8384 21.4545 21.1157L15.6795 11.0692C15.6118 10.9531 15.6118 10.8111 15.6795 10.695L15.8892 10.3304C16.5183 9.23995 17.683 8.5689 18.9413 8.5689H19.28C19.4123 8.5689 19.5349 8.63987 19.6026 8.75279L25.4776 18.7412C25.8938 19.4671 26.6681 19.9156 27.5037 19.9156H46.3837C47.6258 19.9156 48.4033 18.5702 47.7806 17.4959L39.344 2.90039L39.3279 2.87136C39.3182 2.85523 39.3085 2.83909 39.2988 2.82296C39.2053 2.66487 39.1053 2.51324 38.9988 2.36806C37.9245 0.893672 36.1952 0 34.3498 0H15.2698C15.0375 0 14.8052 0.016131 14.5762 0.0451672C13.005 0.232289 11.5725 1.07757 10.6401 2.35839C10.5208 2.5197 10.4079 2.69069 10.3078 2.8649L0.767847 19.3897C0.319399 20.164 0.0677538 21.019 0.0129077 21.8836C0.00645524 22.0062 0 22.132 0 22.2546C0 23.2451 0.254875 24.2323 0.767847 25.1195L10.3078 41.6443C10.4401 41.8734 10.5885 42.0928 10.7466 42.296C11.7435 43.58 13.2437 44.3963 14.8794 44.5092C15.0085 44.5189 15.1407 44.5221 15.2698 44.5221H15.3053H34.3304C34.795 44.5221 35.2499 44.464 35.6887 44.3576C36.9534 44.0511 38.0922 43.3155 38.8955 42.2799C39.044 42.0895 39.1795 41.8895 39.3021 41.6798C39.3117 41.6637 39.3214 41.6508 39.3311 41.6346L39.3375 41.6217L47.7838 27.0101C48.4001 25.9325 47.6258 24.5872 46.3837 24.5872Z" fill="url(#paint0_linear)"/>
<g opacity="0.25">
<path opacity="0.25" d="M46.3837 24.5872H27.536C26.7004 24.5872 25.9261 25.0356 25.5099 25.7615L19.7962 35.7596C19.7285 35.8758 19.6059 35.95 19.4704 35.95H18.9574C17.6927 35.95 16.5216 35.2757 15.8892 34.1788L15.7215 33.8884C15.6537 33.7723 15.6537 33.6303 15.7215 33.5142L21.4545 23.4419C21.8675 22.7224 21.8675 21.8384 21.4545 21.1157L15.6795 11.0692C15.6118 10.9531 15.6118 10.8111 15.6795 10.695L15.8892 10.3304C16.5183 9.23995 17.683 8.5689 18.9413 8.5689H19.28C19.4123 8.5689 19.5349 8.63987 19.6026 8.75279L25.4776 18.7412C25.8938 19.4671 26.6681 19.9156 27.5037 19.9156H46.3837C47.6258 19.9156 48.4033 18.5702 47.7806 17.4959L39.344 2.90039L39.3279 2.87136C39.3182 2.85523 39.3085 2.83909 39.2988 2.82296C39.2053 2.66487 39.1053 2.51324 38.9988 2.36806C37.9245 0.893672 36.1952 0 34.3498 0H15.2698C15.0375 0 14.8052 0.016131 14.5762 0.0451672C13.005 0.232289 11.5725 1.07757 10.6401 2.35839C10.5208 2.5197 10.4079 2.69069 10.3078 2.8649L0.767847 19.3897C0.319399 20.164 0.0677538 21.019 0.0129077 21.8836C0.00645524 22.0062 0 22.132 0 22.2546C0 23.2451 0.254875 24.2323 0.767847 25.1195L10.3078 41.6443C10.4401 41.8734 10.5885 42.0928 10.7466 42.296C11.7435 43.58 13.2437 44.3963 14.8794 44.5092C15.0085 44.5189 15.1407 44.5221 15.2698 44.5221H15.3053H34.3304C34.795 44.5221 35.2499 44.464 35.6887 44.3576C36.9534 44.0511 38.0922 43.3155 38.8955 42.2799C39.044 42.0895 39.1795 41.8895 39.3021 41.6798C39.3117 41.6637 39.3214 41.6508 39.3311 41.6346L39.3375 41.6217L47.7838 27.0101C48.4001 25.9325 47.6258 24.5872 46.3837 24.5872Z" fill="#FF0BD1"/>
</g>
<defs>
<linearGradient id="paint0_linear" x1="12.6575" y1="44.6954" x2="36.4749" y2="0.600917" gradientUnits="userSpaceOnUse">
<stop stop-color="#FF009E"/>
<stop offset="1" stop-color="#FF8820"/>
</linearGradient>
</defs>
</svg>
