<svg width="20" height="20" viewBox="0 0 20 20" fill="none" xmlns="http://www.w3.org/2000/svg">
    <path fill="#FF9500"
          d="M17.1429 2.85713C17.1429 1.27856 15.8643 0 14.2858 0H2.85713C1.27856 0 0 1.27856 0 2.85713V20H17.1429C18.7214 20 20 18.7214 20 17.1429V5.71431C20 4.13574 18.7214 2.85713 17.1429 2.85713ZM4.28569 1.42856H12.8571C13.9128 1.42856 14.8228 2.00711 15.3185 2.85713H1.82428C2.31997 2.00717 3.23142 1.42856 4.28569 1.42856ZM18.5714 12.1429C18.5714 12.5371 18.2515 12.8572 17.8571 12.8572H13.5714C13.1772 12.8572 12.8571 12.5372 12.8571 12.1429V10.7143C12.8571 10.32 13.1771 10 13.5714 10H17.8571C18.2514 10 18.5714 10.32 18.5714 10.7143V12.1429ZM18.5714 8.57144H12.1429C11.7486 8.57144 11.4286 8.89142 11.4286 9.28575V13.5714C11.4286 13.9657 11.7485 14.2858 12.1429 14.2858H18.5714V15.7143C18.5714 17.2929 17.2929 18.5714 15.7143 18.5714H1.42856V4.28569H15.7143C17.2928 4.28569 18.5714 5.56424 18.5714 7.14281V8.57144H18.5714ZM15 10.7143C14.6057 10.7143 14.2857 11.0343 14.2857 11.4286C14.2857 11.823 14.6057 12.1429 15 12.1429C15.3943 12.1429 15.7143 11.823 15.7143 11.4286C15.7143 11.0343 15.3943 10.7143 15 10.7143Z"/>
</svg>
