<svg width="20" height="19" viewBox="0 0 20 19" fill="none" xmlns="http://www.w3.org/2000/svg">
<path d="M19.0729 10.2757L11.3286 10.2757C10.9852 10.2757 10.6671 10.4552 10.4961 10.7459L8.14842 14.7496C8.12058 14.7961 8.07021 14.8258 8.01453 14.8258H7.80375C7.28411 14.8258 6.80291 14.5558 6.54309 14.1165L6.47416 14.0003C6.44632 13.9538 6.44632 13.8969 6.47416 13.8504L8.82979 9.81702C8.99947 9.52893 8.99947 9.17494 8.82979 8.88555L6.45693 4.86251C6.42909 4.816 6.42909 4.75915 6.45693 4.71264L6.54309 4.56666C6.80159 4.13 7.28013 3.86127 7.79713 3.86127L7.93632 3.86127C7.99067 3.86127 8.04104 3.8897 8.06888 3.93491L10.4828 7.93469C10.6538 8.22538 10.972 8.40496 11.3153 8.40496L19.0729 8.40496C19.5832 8.40496 19.9027 7.86622 19.6469 7.43602L16.1804 1.59137L16.1737 1.57974C16.1698 1.57328 16.1658 1.56682 16.1618 1.56036C16.1234 1.49706 16.0823 1.43633 16.0385 1.3782C15.5971 0.787789 14.8865 0.429932 14.1283 0.429932L6.28857 0.429932C6.19312 0.429932 6.09768 0.436393 6.00356 0.44802C5.35798 0.522952 4.76941 0.861433 4.3863 1.37433C4.33725 1.43892 4.29086 1.50739 4.24976 1.57716L0.329903 8.19437C0.145641 8.50443 0.0422435 8.8468 0.0197079 9.19303C0.0170567 9.24212 0.0144043 9.29251 0.0144043 9.3416C0.0144043 9.73822 0.119129 10.1335 0.329903 10.4888L4.24976 17.106C4.30411 17.1978 4.36509 17.2856 4.43005 17.367C4.83967 17.8812 5.45608 18.208 6.12817 18.2533C6.1812 18.2571 6.23554 18.2584 6.28857 18.2584H6.30315L14.1203 18.2584C14.3112 18.2584 14.4981 18.2352 14.6784 18.1925C15.1981 18.0698 15.666 17.7753 15.9961 17.3605C16.0571 17.2843 16.1127 17.2042 16.1631 17.1203C16.1671 17.1138 16.1711 17.1086 16.1751 17.1022L16.1777 17.097L19.6482 11.2459C19.9027 10.8144 19.5832 10.2757 19.0729 10.2757Z" fill="url(#paint0_linear)"/>
<g opacity="0.25">
<path opacity="0.25" d="M19.0729 10.2757L11.3286 10.2757C10.9852 10.2757 10.6671 10.4552 10.4961 10.7459L8.14842 14.7496C8.12058 14.7961 8.07021 14.8258 8.01453 14.8258H7.80375C7.28411 14.8258 6.80291 14.5558 6.54309 14.1165L6.47416 14.0003C6.44632 13.9538 6.44632 13.8969 6.47416 13.8504L8.82979 9.81702C8.99947 9.52893 8.99947 9.17494 8.82979 8.88555L6.45693 4.86251C6.42909 4.816 6.42909 4.75915 6.45693 4.71264L6.54309 4.56666C6.80159 4.13 7.28013 3.86127 7.79713 3.86127L7.93632 3.86127C7.99067 3.86127 8.04104 3.8897 8.06888 3.93491L10.4828 7.93469C10.6538 8.22538 10.972 8.40496 11.3153 8.40496L19.0729 8.40496C19.5832 8.40496 19.9027 7.86622 19.6469 7.43602L16.1804 1.59137L16.1737 1.57974C16.1698 1.57328 16.1658 1.56682 16.1618 1.56036C16.1234 1.49706 16.0823 1.43633 16.0385 1.3782C15.5971 0.787789 14.8865 0.429932 14.1283 0.429932L6.28857 0.429932C6.19312 0.429932 6.09768 0.436393 6.00356 0.44802C5.35798 0.522952 4.76941 0.861433 4.3863 1.37433C4.33725 1.43892 4.29086 1.50739 4.24976 1.57716L0.329903 8.19437C0.145641 8.50443 0.0422435 8.8468 0.0197079 9.19303C0.0170567 9.24212 0.0144043 9.29251 0.0144043 9.3416C0.0144043 9.73822 0.119129 10.1335 0.329903 10.4888L4.24976 17.106C4.30411 17.1978 4.36509 17.2856 4.43005 17.367C4.83967 17.8812 5.45608 18.208 6.12817 18.2533C6.1812 18.2571 6.23554 18.2584 6.28857 18.2584H6.30315L14.1203 18.2584C14.3112 18.2584 14.4981 18.2352 14.6784 18.1925C15.1981 18.0698 15.666 17.7753 15.9961 17.3605C16.0571 17.2843 16.1127 17.2042 16.1631 17.1203C16.1671 17.1138 16.1711 17.1086 16.1751 17.1022L16.1777 17.097L19.6482 11.2459C19.9027 10.8144 19.5832 10.2757 19.0729 10.2757Z" fill="#FF0BD1"/>
</g>
<defs>
<linearGradient id="paint0_linear" x1="5.21569" y1="18.3278" x2="14.6173" y2="0.468073" gradientUnits="userSpaceOnUse">
<stop stop-color="#FF009E"/>
<stop offset="1" stop-color="#FF8820"/>
</linearGradient>
</defs>
</svg>
