<svg width="48" height="47" viewBox="0 0 48 47" fill="none" xmlns="http://www.w3.org/2000/svg">
<path d="M24.0112 46.5961C36.7687 46.5961 47.1107 36.2541 47.1107 23.4965C47.1107 10.739 36.7687 0.396973 24.0112 0.396973C11.2536 0.396973 0.911621 10.739 0.911621 23.4965C0.911621 36.2541 11.2536 46.5961 24.0112 46.5961Z" fill="#E8354D"/>
<path d="M9.74194 20.8433C9.74194 21.3197 9.93119 21.7766 10.268 22.1134C10.6049 22.4503 11.0617 22.6395 11.5381 22.6395H12.108C12.3512 22.6518 12.5943 22.6145 12.8226 22.5298C13.0509 22.4452 13.2597 22.3151 13.4361 22.1473C13.6126 21.9795 13.7531 21.7776 13.8491 21.5538C13.9451 21.3301 13.9946 21.0891 13.9946 20.8456C13.9946 20.6021 13.9451 20.3612 13.8491 20.1374C13.7531 19.9136 13.6126 19.7117 13.4361 19.5439C13.2597 19.3761 13.0509 19.246 12.8226 19.1614C12.5943 19.0768 12.3512 19.0395 12.108 19.0517H11.5381C11.0625 19.0517 10.6064 19.2403 10.2696 19.5762C9.93292 19.9121 9.74315 20.3677 9.74194 20.8433Z" fill="#701A25"/>
<path d="M9.97002 16.8908C9.64178 17.488 9.67369 18.1399 10.0475 18.345L14.0684 20.5606C14.4422 20.7658 15.0121 20.4512 15.3403 19.854C15.6685 19.2568 15.6321 18.6049 15.2628 18.3997L11.2465 16.1842C10.8681 15.979 10.2983 16.2936 9.97002 16.8908Z" fill="#701A25"/>
<path d="M37.7377 16.8908C38.0705 17.488 38.034 18.1399 37.6602 18.345L33.6393 20.5606C33.2655 20.7658 32.6957 20.4512 32.3674 19.854C32.0392 19.2568 32.0757 18.6049 32.4495 18.3997L36.4704 16.1842C36.8396 15.979 37.4095 16.2936 37.7377 16.8908Z" fill="#701A25"/>
<path d="M34.1179 20.8433C34.1173 21.0794 34.1634 21.3132 34.2534 21.5314C34.3435 21.7496 34.4758 21.9479 34.6427 22.1148C34.8096 22.2817 35.0078 22.414 35.226 22.504C35.4442 22.5941 35.6781 22.6401 35.9141 22.6395H36.484C36.7271 22.6518 36.9703 22.6145 37.1986 22.5298C37.4269 22.4452 37.6357 22.3151 37.8121 22.1473C37.9886 21.9795 38.1291 21.7776 38.2251 21.5538C38.3211 21.3301 38.3706 21.0891 38.3706 20.8456C38.3706 20.6021 38.3211 20.3612 38.2251 20.1374C38.1291 19.9136 37.9886 19.7117 37.8121 19.5439C37.6357 19.3761 37.4269 19.246 37.1986 19.1614C36.9703 19.0768 36.7271 19.0395 36.484 19.0517H35.9141C35.6784 19.0511 35.445 19.097 35.2271 19.1868C35.0092 19.2766 34.8111 19.4084 34.6443 19.5749C34.4774 19.7413 34.3451 19.939 34.2547 20.1567C34.1644 20.3743 34.1179 20.6077 34.1179 20.8433Z" fill="#701A25"/>
<path d="M30.8494 32.4181C30.6228 32.4188 30.4012 32.3519 30.2128 32.2261C30.0244 32.1002 29.8778 31.9211 29.7917 31.7115C29.2721 30.631 28.4514 29.7236 27.4284 29.0984C26.4053 28.4732 25.2234 28.1569 24.0248 28.1875C20.3458 28.1875 18.1758 31.8346 18.1576 31.8346C18.0825 31.9642 17.9825 32.0778 17.8635 32.1687C17.7445 32.2597 17.6087 32.3264 17.464 32.3649C17.3192 32.4034 17.1682 32.4131 17.0197 32.3933C16.8712 32.3734 16.7281 32.3246 16.5985 32.2494C16.4689 32.1743 16.3553 32.0744 16.2643 31.9554C16.1733 31.8364 16.1067 31.7006 16.0681 31.5558C16.0296 31.411 16.02 31.2601 16.0398 31.1116C16.0596 30.9631 16.1085 30.8199 16.1836 30.6903C16.2976 30.4943 19.0147 25.899 24.0066 25.8899C25.6603 25.8556 27.2881 26.3044 28.6906 27.1813C30.093 28.0583 31.2092 29.3253 31.9024 30.8271C32.0202 31.1054 32.0235 31.4189 31.9117 31.6996C31.7999 31.9803 31.582 32.2057 31.3052 32.3269C31.1606 32.3865 31.0058 32.4174 30.8494 32.4181Z" fill="#701A25"/>
</svg>
