<svg width="47" height="47" viewBox="0 0 47 47" fill="none" xmlns="http://www.w3.org/2000/svg">
<path d="M23.7756 46.5961C36.5331 46.5961 46.8752 36.2541 46.8752 23.4965C46.8752 10.739 36.5331 0.396973 23.7756 0.396973C11.018 0.396973 0.676025 10.739 0.676025 23.4965C0.676025 36.2541 11.018 46.5961 23.7756 46.5961Z" fill="#4ECC58"/>
<path d="M9.51099 20.8433C9.51039 21.079 9.55629 21.3125 9.64605 21.5304C9.73582 21.7483 9.8677 21.9463 10.0341 22.1131C10.2006 22.28 10.3983 22.4124 10.6159 22.5027C10.8336 22.593 11.0669 22.6395 11.3026 22.6395H11.8725C12.1156 22.6518 12.3588 22.6145 12.5871 22.5298C12.8154 22.4452 13.0242 22.3151 13.2006 22.1473C13.3771 21.9795 13.5176 21.7776 13.6136 21.5538C13.7096 21.3301 13.7591 21.0891 13.7591 20.8456C13.7591 20.6021 13.7096 20.3612 13.6136 20.1374C13.5176 19.9136 13.3771 19.7117 13.2006 19.5439C13.0242 19.3761 12.8154 19.246 12.5871 19.1614C12.3588 19.0768 12.1156 19.0395 11.8725 19.0517H11.3026C10.8274 19.0517 10.3717 19.2405 10.0357 19.5765C9.69975 19.9125 9.51099 20.3682 9.51099 20.8433Z" fill="#1F5223"/>
<path d="M33.8826 20.8433C33.8826 21.0792 33.929 21.3128 34.0193 21.5307C34.1096 21.7486 34.2419 21.9466 34.4087 22.1134C34.5754 22.2802 34.7734 22.4125 34.9914 22.5028C35.2093 22.5931 35.4429 22.6395 35.6787 22.6395H36.2486C36.4918 22.6518 36.7349 22.6145 36.9632 22.5298C37.1915 22.4452 37.4003 22.3151 37.5767 22.1473C37.7532 21.9795 37.8937 21.7776 37.9897 21.5538C38.0857 21.3301 38.1352 21.0891 38.1352 20.8456C38.1352 20.6021 38.0857 20.3612 37.9897 20.1374C37.8937 19.9136 37.7532 19.7117 37.5767 19.5439C37.4003 19.3761 37.1915 19.246 36.9632 19.1614C36.7349 19.0768 36.4918 19.0395 36.2486 19.0517H35.6787C35.2032 19.0517 34.747 19.2403 34.4103 19.5762C34.0735 19.9121 33.8838 20.3677 33.8826 20.8433Z" fill="#1F5223"/>
<path d="M14.9951 26.314C14.9951 26.314 18.1361 33.6081 23.7754 33.64C30.3173 33.64 32.5602 26.314 32.5602 26.314H14.9951Z" fill="#1F5223"/>
</svg>
