<svg width="47" height="47" viewBox="0 0 47 47" fill="none" xmlns="http://www.w3.org/2000/svg">
<path d="M23.6728 46.2138C36.4303 46.2138 46.7724 35.8717 46.7724 23.1142C46.7724 10.3567 36.4303 0.0146484 23.6728 0.0146484C10.9153 0.0146484 0.573242 10.3567 0.573242 23.1142C0.573242 35.8717 10.9153 46.2138 23.6728 46.2138Z" fill="#FC7E1E"/>
<path d="M9.76368 20.461C9.76308 20.6967 9.80898 20.9301 9.89875 21.148C9.98852 21.3659 10.1204 21.564 10.2868 21.7308C10.4533 21.8977 10.651 22.03 10.8686 22.1204C11.0863 22.2107 11.3196 22.2572 11.5553 22.2572H12.1252C12.3683 22.2694 12.6115 22.2321 12.8398 22.1475C13.0681 22.0629 13.2768 21.9327 13.4533 21.765C13.6298 21.5972 13.7703 21.3953 13.8663 21.1715C13.9623 20.9477 14.0118 20.7068 14.0118 20.4633C14.0118 20.2198 13.9623 19.9788 13.8663 19.7551C13.7703 19.5313 13.6298 19.3294 13.4533 19.1616C13.2768 18.9938 13.0681 18.8637 12.8398 18.7791C12.6115 18.6944 12.3683 18.6571 12.1252 18.6694H11.5371C11.0651 18.6742 10.614 18.8651 10.282 19.2005C9.94991 19.536 9.76365 19.989 9.76368 20.461Z" fill="#63320A"/>
<path d="M34.1353 20.461C34.1353 20.9374 34.3245 21.3943 34.6613 21.7311C34.9982 22.068 35.4551 22.2572 35.9314 22.2572H36.5013C36.7445 22.2694 36.9876 22.2321 37.2159 22.1475C37.4442 22.0629 37.653 21.9327 37.8294 21.765C38.0059 21.5972 38.1464 21.3953 38.2424 21.1715C38.3384 20.9477 38.3879 20.7068 38.3879 20.4633C38.3879 20.2198 38.3384 19.9788 38.2424 19.7551C38.1464 19.5313 38.0059 19.3294 37.8294 19.1616C37.653 18.9938 37.4442 18.8637 37.2159 18.7791C36.9876 18.6944 36.7445 18.6571 36.5013 18.6694H35.9314C35.4558 18.6694 34.9997 18.858 34.663 19.1939C34.3262 19.5297 34.1365 19.9854 34.1353 20.461Z" fill="#63320A"/>
<path d="M30.511 32.0358C30.2851 32.0362 30.0642 31.9691 29.8766 31.8433C29.689 31.7174 29.5432 31.5384 29.4579 31.3292C28.9361 30.2494 28.1143 29.3427 27.0908 28.7178C26.0672 28.0928 24.8853 27.776 23.6864 27.8052C20.012 27.8052 17.842 31.4523 17.8192 31.4523C17.6675 31.714 17.418 31.9048 17.1256 31.9826C16.8332 32.0604 16.5219 32.0189 16.2601 31.8671C15.9983 31.7154 15.8076 31.4659 15.7298 31.1735C15.652 30.8811 15.6935 30.5698 15.8453 30.308C15.9592 30.112 18.6808 25.5167 23.6682 25.5076C25.3219 25.4733 26.9497 25.9221 28.3522 26.799C29.7547 27.676 30.8709 28.943 31.5641 30.4448C31.6215 30.5833 31.651 30.7319 31.6509 30.8819C31.6508 31.0319 31.6212 31.1804 31.5636 31.3189C31.506 31.4574 31.4216 31.5831 31.3153 31.6889C31.209 31.7947 31.0828 31.8785 30.9441 31.9355C30.8073 31.9957 30.6603 32.0298 30.511 32.0358Z" fill="#63320A"/>
</svg>
