<svg width="47" height="47" viewBox="0 0 47 47" fill="none" xmlns="http://www.w3.org/2000/svg">
<path d="M23.0996 46.1991C35.8571 46.1991 46.1991 35.8571 46.1991 23.0996C46.1991 10.342 35.8571 0 23.0996 0C10.342 0 0 10.342 0 23.0996C0 35.8571 10.342 46.1991 23.0996 46.1991Z" fill="#FFCE2B"/>
<path d="M8.83033 20.3324C8.82973 20.5685 8.87577 20.8023 8.96582 21.0205C9.05587 21.2387 9.18817 21.4369 9.35508 21.6039C9.52199 21.7708 9.72023 21.9031 9.93843 21.9931C10.1566 22.0832 10.3905 22.1292 10.6265 22.1286H11.1964C11.6727 22.1286 12.1296 21.9394 12.4665 21.6025C12.8033 21.2657 12.9925 20.8088 12.9925 20.3324C12.9925 19.8561 12.8033 19.3992 12.4665 19.0623C12.1296 18.7255 11.6727 18.5363 11.1964 18.5363H10.6265C10.1501 18.5363 9.69326 18.7255 9.35641 19.0623C9.01956 19.3992 8.83033 19.8561 8.83033 20.3324Z" fill="#594208"/>
<path d="M33.2063 20.3324C33.2057 20.5685 33.2517 20.8023 33.3418 21.0205C33.4319 21.2387 33.5641 21.4369 33.7311 21.6039C33.898 21.7708 34.0962 21.9031 34.3144 21.9931C34.5326 22.0832 34.7664 22.1292 35.0025 22.1286H35.5723C36.0487 22.1286 36.5056 21.9394 36.8424 21.6025C37.1793 21.2657 37.3685 20.8088 37.3685 20.3324C37.3685 19.8561 37.1793 19.3992 36.8424 19.0623C36.5056 18.7255 36.0487 18.5363 35.5723 18.5363H35.0025C34.5261 18.5363 34.0692 18.7255 33.7324 19.0623C33.3955 19.3992 33.2063 19.8561 33.2063 20.3324Z" fill="#594208"/>
<path d="M26.1814 31.0548C26.0458 31.0549 25.9114 31.0302 25.7848 30.9818L17.4011 27.8636C17.1176 27.7584 16.8874 27.5449 16.7613 27.27C16.6352 26.9952 16.6235 26.6815 16.7287 26.3979C16.8339 26.1144 17.0474 25.8843 17.3222 25.7582C17.5971 25.6321 17.9108 25.6203 18.1943 25.7255L26.578 28.8483C26.8275 28.9421 27.0362 29.1204 27.1678 29.3521C27.2995 29.5838 27.3457 29.8544 27.2986 30.1167C27.2514 30.379 27.1138 30.6165 26.9097 30.7879C26.7056 30.9593 26.4479 31.0537 26.1814 31.0548Z" fill="#594208"/>
</svg>
