<svg width="47" height="47" viewBox="0 0 47 47" fill="none" xmlns="http://www.w3.org/2000/svg">
<path d="M23.114 46.2138C35.8715 46.2138 46.2135 35.8717 46.2135 23.1142C46.2135 10.3567 35.8715 0.0146484 23.114 0.0146484C10.3564 0.0146484 0.0144043 10.3567 0.0144043 23.1142C0.0144043 35.8717 10.3564 46.2138 23.114 46.2138Z" fill="#ACD91A"/>
<path d="M8.84962 20.4611C8.84901 20.6971 8.89507 20.9309 8.98512 21.1491C9.07518 21.3673 9.20745 21.5656 9.37436 21.7325C9.54127 21.8994 9.73952 22.0317 9.95771 22.1217C10.1759 22.2118 10.4097 22.2578 10.6458 22.2572H11.2156C11.6758 22.234 12.1094 22.0349 12.4269 21.701C12.7443 21.3672 12.9214 20.9241 12.9214 20.4633C12.9214 20.0026 12.7443 19.5595 12.4269 19.2256C12.1094 18.8918 11.6758 18.6926 11.2156 18.6694H10.6458C10.4101 18.6688 10.1767 18.7147 9.95877 18.8045C9.74087 18.8943 9.54283 19.0261 9.37598 19.1926C9.20913 19.359 9.07675 19.5567 8.98643 19.7744C8.89611 19.992 8.84961 20.2254 8.84962 20.4611Z" fill="#495C0B"/>
<path d="M33.2117 20.461C33.2111 20.6967 33.257 20.9301 33.3467 21.148C33.4365 21.3659 33.5684 21.564 33.7348 21.7308C33.9012 21.8977 34.099 22.03 34.3166 22.1204C34.5343 22.2107 34.7676 22.2572 35.0033 22.2572H35.5731C35.8163 22.2694 36.0595 22.2321 36.2878 22.1475C36.5161 22.0629 36.7248 21.9327 36.9013 21.765C37.0778 21.5972 37.2182 21.3953 37.3143 21.1715C37.4103 20.9477 37.4598 20.7068 37.4598 20.4633C37.4598 20.2198 37.4103 19.9788 37.3143 19.7551C37.2182 19.5313 37.0778 19.3294 36.9013 19.1616C36.7248 18.9938 36.5161 18.8637 36.2878 18.7791C36.0595 18.6944 35.8163 18.6571 35.5731 18.6694H35.0352C34.7973 18.6652 34.5608 18.7084 34.3398 18.7965C34.1187 18.8846 33.9174 19.0159 33.7477 19.1827C33.5779 19.3495 33.4431 19.5485 33.3511 19.7679C33.259 19.9874 33.2116 20.223 33.2117 20.461Z" fill="#495C0B"/>
<path d="M23.1277 33.1847C18.113 33.1847 15.405 28.5803 15.291 28.3842C15.1393 28.1225 15.0978 27.8111 15.1756 27.5187C15.2534 27.2264 15.4441 26.9768 15.7059 26.8251C15.9676 26.6734 16.279 26.6318 16.5714 26.7096C16.8638 26.7874 17.1133 26.9782 17.265 27.24C17.3015 27.3083 19.4715 30.887 23.1185 30.887C24.3173 30.9209 25.5004 30.6087 26.5264 29.9878C27.5524 29.3669 28.3777 28.4636 28.9037 27.3858C29.0198 27.1065 29.242 26.8848 29.5216 26.7694C29.8012 26.654 30.1151 26.6543 30.3944 26.7704C30.6737 26.8865 30.8955 27.1087 31.0109 27.3883C31.1263 27.6679 31.1259 27.9818 31.0099 28.2611C30.3151 29.7579 29.2001 31.0202 27.8005 31.8944C26.401 32.7686 24.7775 33.2169 23.1277 33.1847Z" fill="#495C0B"/>
</svg>
