<!DOCTYPE svg PUBLIC "-//W3C//DTD SVG 20010904//EN" "http://www.w3.org/TR/2001/REC-SVG-20010904/DTD/svg10.dtd">
<svg version="1.0" xmlns="http://www.w3.org/2000/svg" width="255px" height="337px" viewBox="0 0 2550 3370" preserveAspectRatio="xMidYMid meet">
<g id="layer101" fill="#005cad" stroke="none">
 <path d="M0 1685 l0 -1685 1275 0 1275 0 0 1685 0 1685 -1275 0 -1275 0 0 -1685z"/>
 </g>
<g id="layer102" fill="#0d68b3" stroke="none">
 <path d="M0 1685 l0 -1685 1275 0 1275 0 0 1685 0 1685 -1275 0 -1275 0 0 -1685z m227 -413 c-1 -235 -2 -42 -2 428 0 470 1 663 2 427 2 -235 2 -619 0 -855z m1093 1275 c0 -2 -9 -12 -20 -22 -24 -21 -27 -14 -4 9 15 15 24 20 24 13z m-170 -171 c0 -3 -5 -8 -12 -12 -7 -4 -8 -3 -4 4 7 12 16 16 16 8z m-150 -150 c0 -3 -5 -8 -12 -12 -7 -4 -8 -3 -4 4 7 12 16 16 16 8z m-130 -129 c0 -2 -10 -12 -22 -23 l-23 -19 19 23 c18 21 26 27 26 19z m-150 -151 c0 -3 -5 -8 -12 -12 -7 -4 -8 -3 -4 4 7 12 16 16 16 8z m-73 -203 c-4 -3 -7 0 -7 7 0 7 3 10 7 7 3 -4 3 -10 0 -14z m150 -150 c-4 -3 -7 0 -7 7 0 7 3 10 7 7 3 -4 3 -10 0 -14z m50 -490 c-4 -3 -7 0 -7 7 0 7 3 10 7 7 3 -4 3 -10 0 -14z m30 -30 c-4 -3 -10 -3 -14 0 -3 4 0 7 7 7 7 0 10 -3 7 -7z m30 -40 c-4 -3 -7 0 -7 7 0 7 3 10 7 7 3 -4 3 -10 0 -14z m20 -20 c-4 -3 -7 0 -7 7 0 7 3 10 7 7 3 -4 3 -10 0 -14z m20 -20 c-4 -3 -7 0 -7 7 0 7 3 10 7 7 3 -4 3 -10 0 -14z m40 -30 c-4 -3 -10 -3 -14 0 -3 4 0 7 7 7 7 0 10 -3 7 -7z m20 -20 c-4 -3 -10 -3 -14 0 -3 4 0 7 7 7 7 0 10 -3 7 -7z m20 -20 c-4 -3 -10 -3 -14 0 -3 4 0 7 7 7 7 0 10 -3 7 -7z m30 -40 c-4 -3 -7 0 -7 7 0 7 3 10 7 7 3 -4 3 -10 0 -14z m20 -20 c-4 -3 -7 0 -7 7 0 7 3 10 7 7 3 -4 3 -10 0 -14z"/>
 </g>
<g id="layer103" fill="#1576c3" stroke="none">
 <path d="M0 1685 l0 -1685 1275 0 1275 0 0 1685 0 1685 -1275 0 -1275 0 0 -1685z m1330 855 c0 -6 -8 -14 -17 -17 -20 -8 -63 -48 -63 -59 0 -11 -42 -54 -52 -54 -11 0 -78 -66 -78 -77 0 -10 -62 -73 -72 -73 -11 0 -78 -67 -78 -77 0 -10 -62 -73 -72 -73 -11 0 -78 -67 -78 -77 0 -10 -62 -73 -72 -73 -11 0 -78 -67 -78 -78 0 -4 -13 -21 -30 -37 -16 -16 -30 -35 -30 -42 0 -14 84 -103 97 -103 10 0 73 -62 73 -72 0 -11 67 -78 77 -78 10 0 73 -62 73 -72 0 -11 66 -78 77 -78 15 0 53 -45 53 -64 0 -20 -56 -86 -72 -86 -11 0 -58 -47 -58 -58 0 -4 -15 -23 -34 -41 -19 -18 -33 -39 -32 -47 1 -8 56 -69 121 -134 l119 -120 -442 -2 -442 -3 0 855 0 855 555 -3 c367 -1 555 -6 555 -12z"/>
 </g>
<g id="layer104" fill="#3581c0" stroke="none">
 <path d="M0 1685 l0 -1685 1275 0 1275 0 0 1685 0 1685 -1275 0 -1275 0 0 -1685z m1340 870 c0 -5 -165 -175 -367 -377 l-368 -368 233 -233 c127 -127 232 -237 232 -242 0 -6 -47 -57 -104 -114 -94 -94 -103 -106 -93 -124 15 -26 54 -67 64 -67 10 0 73 -62 73 -72 0 -11 60 -69 86 -84 10 -6 20 -19 22 -28 3 -15 -35 -16 -447 -16 l-451 0 0 871 0 871 560 -3 c363 -3 560 -7 560 -14z"/>
 </g>
<g id="layer105" fill="#1f95ef" stroke="none">
 <path d="M0 1685 l0 -1685 1275 0 1275 0 0 1685 0 1685 -1275 0 -1275 0 0 -1685z m1340 870 c0 -5 -165 -175 -367 -377 l-368 -368 233 -233 c127 -127 232 -237 232 -242 0 -6 -47 -57 -105 -115 l-105 -105 130 -130 c71 -72 130 -136 130 -143 0 -10 -96 -12 -452 -10 l-453 3 -3 855 c-1 470 0 861 3 869 4 11 101 12 565 10 363 -3 560 -7 560 -14z"/>
 </g>
<g id="layer106" fill="#229ef3" stroke="none">
 <path d="M0 1685 l0 -1685 1275 0 1275 0 0 1685 0 1685 -1275 0 -1275 0 0 -1685z m1325 1484 c-121 -3 -248 -7 -282 -8 l-63 -1 -2 -282 -3 -283 -160 -5 c-119 -4 -71 -6 188 -8 265 -2 347 -5 347 -14 0 -7 -168 -180 -372 -385 l-373 -373 233 -233 c127 -128 232 -237 232 -242 0 -6 -47 -57 -105 -115 l-105 -104 134 -136 c73 -74 135 -142 138 -150 3 -11 16 -3 46 28 23 24 42 39 42 33 0 -7 -15 -25 -33 -42 l-34 -31 -249 -1 c-229 -1 -236 -1 -89 -6 l160 -6 3 -281 2 -281 47 -7 c25 -3 98 -7 162 -8 64 -2 -127 -5 -424 -8 l-540 -5 -6 355 c-9 510 -10 1600 -2 2143 l6 467 661 -2 c483 -1 602 -4 441 -9z m308 4 c-13 -2 -35 -2 -50 0 -16 2 -5 4 22 4 28 0 40 -2 28 -4z m94 -19 c-3 -3 -12 -4 -19 -1 -8 3 -5 6 6 6 11 1 17 -2 13 -5z m70 -20 c-3 -3 -12 -4 -19 -1 -8 3 -5 6 6 6 11 1 17 -2 13 -5z m-220 -941 c-4 -3 -7 0 -7 7 0 7 3 10 7 7 3 -4 3 -10 0 -14z m-90 -90 c-4 -3 -10 -3 -14 0 -3 4 0 7 7 7 7 0 10 -3 7 -7z m-29 -27 c-7 -8 -15 -12 -17 -11 -5 6 10 25 20 25 5 0 4 -6 -3 -14z m-31 -33 c-4 -3 -7 0 -7 7 0 7 3 10 7 7 3 -4 3 -10 0 -14z m-20 -20 c-4 -3 -7 0 -7 7 0 7 3 10 7 7 3 -4 3 -10 0 -14z m-20 -20 c-4 -3 -7 0 -7 7 0 7 3 10 7 7 3 -4 3 -10 0 -14z m-30 -30 c-4 -3 -10 -3 -14 0 -3 4 0 7 7 7 7 0 10 -3 7 -7z m-20 -20 c-4 -3 -10 -3 -14 0 -3 4 0 7 7 7 7 0 10 -3 7 -7z m-39 -37 c-13 -13 -25 -22 -27 -20 -6 5 30 44 41 44 5 0 -2 -11 -14 -24z m-41 -43 c-4 -3 -7 0 -7 7 0 7 3 10 7 7 3 -4 3 -10 0 -14z m-39 -38 c-23 -20 -25 -25 -13 -35 8 -7 15 -17 15 -23 0 -5 -9 0 -20 13 l-20 23 28 27 c15 15 29 25 32 23 3 -3 -7 -15 -22 -28z m19 -82 c-4 -3 -7 0 -7 7 0 7 3 10 7 7 3 -4 3 -10 0 -14z m60 -50 c-4 -3 -10 -3 -14 0 -3 4 0 7 7 7 7 0 10 -3 7 -7z m38 -33 c26 -29 15 -32 -13 -4 -12 13 -19 24 -14 24 5 0 17 -9 27 -20z m32 -47 c-4 -3 -7 0 -7 7 0 7 3 10 7 7 3 -4 3 -10 0 -14z m20 -20 c-4 -3 -7 0 -7 7 0 7 3 10 7 7 3 -4 3 -10 0 -14z m60 -50 c-4 -3 -10 -3 -14 0 -3 4 0 7 7 7 7 0 10 -3 7 -7z m20 -20 c-4 -3 -10 -3 -14 0 -3 4 0 7 7 7 7 0 10 -3 7 -7z m28 -24 c11 -16 1 -19 -13 -3 -7 8 -8 14 -3 14 5 0 13 -5 16 -11z m22 -36 c-4 -3 -7 0 -7 7 0 7 3 10 7 7 3 -4 3 -10 0 -14z m80 -70 c-4 -3 -10 -3 -14 0 -3 4 0 7 7 7 7 0 10 -3 7 -7z m20 -20 c-4 -3 -10 -3 -14 0 -3 4 0 7 7 7 7 0 10 -3 7 -7z m0 -100 c-4 -3 -10 -3 -14 0 -3 4 0 7 7 7 7 0 10 -3 7 -7z m-100 -100 c-4 -3 -7 0 -7 7 0 7 3 10 7 7 3 -4 3 -10 0 -14z m-22 -22 c-3 -6 -11 -11 -16 -11 -5 0 -4 6 3 14 14 16 24 13 13 -3z m-28 -28 c-4 -3 -10 -3 -14 0 -3 4 0 7 7 7 7 0 10 -3 7 -7z m-100 -100 c-4 -3 -7 0 -7 7 0 7 3 10 7 7 3 -4 3 -10 0 -14z m-32 -33 c-10 -11 -22 -20 -27 -20 -5 0 2 11 14 24 28 28 39 25 13 -4z m-38 -37 c-4 -3 -10 -3 -14 0 -3 4 0 7 7 7 7 0 10 -3 7 -7z m-60 -60 c-4 -3 -7 0 -7 7 0 7 3 10 7 7 3 -4 3 -10 0 -14z m870 -140 c-4 -3 -7 0 -7 7 0 7 3 10 7 7 3 -4 3 -10 0 -14z m-450 -480 c-4 -3 -10 -3 -14 0 -3 4 0 7 7 7 7 0 10 -3 7 -7z m-40 -19 c-3 -3 -12 -4 -19 -1 -8 3 -5 6 6 6 11 1 17 -2 13 -5z m-64 -21 c-7 -2 -21 -2 -30 0 -10 3 -4 5 12 5 17 0 24 -2 18 -5z m-95 -20 c-15 -2 -42 -2 -60 0 -18 2 -6 4 27 4 33 0 48 -2 33 -4z"/>
 </g>
<g id="layer107" fill="#4badf4" stroke="none">
 <path d="M0 1685 l0 -1685 1275 0 1275 0 0 1685 0 1685 -1275 0 -1275 0 0 -1685z m1565 1504 c4 -6 26 -9 49 -8 23 2 46 0 51 -3 6 -3 35 -11 65 -18 51 -12 118 -37 164 -62 92 -49 121 -69 188 -130 32 -29 56 -56 133 -149 23 -29 65 -109 65 -126 0 -7 5 -13 10 -13 6 0 10 -11 10 -25 0 -14 5 -25 10 -25 6 0 10 -9 10 -21 0 -11 5 -30 11 -41 6 -11 13 -35 15 -52 1 -17 8 -59 15 -94 9 -47 9 -84 1 -150 -17 -131 -23 -166 -34 -179 -6 -7 -8 -19 -5 -27 3 -8 -1 -20 -9 -26 -8 -7 -14 -19 -14 -26 0 -22 -68 -144 -112 -201 -64 -84 -159 -174 -212 -203 -14 -7 -26 -17 -26 -22 0 -9 43 -71 68 -97 19 -20 92 -178 92 -200 0 -10 6 -24 14 -30 7 -6 11 -22 9 -35 -3 -14 2 -39 11 -57 22 -44 22 -245 1 -273 -8 -11 -15 -33 -15 -48 0 -16 -4 -36 -9 -46 -5 -9 -17 -42 -26 -72 -10 -30 -26 -67 -37 -82 -10 -14 -18 -29 -18 -33 0 -4 -16 -30 -35 -56 -19 -27 -35 -52 -35 -55 0 -9 -93 -104 -102 -104 -4 0 -38 -22 -75 -48 -65 -46 -204 -112 -237 -112 -8 0 -27 -5 -43 -11 -15 -7 -40 -11 -55 -10 -15 1 -32 0 -38 -4 -6 -3 -179 -6 -384 -5 -248 0 -377 -3 -381 -10 -4 -6 -84 -10 -219 -10 -213 0 -214 0 -220 23 -3 12 -6 683 -6 1491 0 1066 3 1473 11 1483 9 11 131 13 675 13 460 0 665 -3 669 -11z"/>
 <path d="M980 2185 l-375 -375 233 -233 c127 -127 232 -237 232 -242 0 -5 -47 -57 -105 -115 l-104 -105 141 -143 141 -143 249 248 c136 136 248 252 248 258 0 6 -107 117 -237 247 l-238 236 225 226 c124 124 231 226 238 226 7 0 12 6 12 13 0 14 -261 277 -275 277 -6 0 -179 -169 -385 -375z"/>
 </g>
<g id="layer108" fill="#81bbe7" stroke="none">
 <path d="M0 1685 l0 -1685 1275 0 1275 0 0 1685 0 1685 -1275 0 -1275 0 0 -1685z m1630 1504 c117 -18 130 -21 136 -30 3 -5 12 -9 21 -9 33 0 202 -92 266 -145 131 -108 216 -233 271 -399 50 -148 56 -288 22 -492 -13 -78 -91 -233 -159 -319 -49 -62 -118 -126 -177 -167 -25 -17 -47 -33 -49 -34 -2 -2 20 -37 48 -79 55 -79 99 -169 120 -245 7 -25 17 -59 22 -76 12 -39 12 -278 0 -318 -64 -215 -113 -306 -231 -426 -140 -142 -298 -220 -495 -246 -33 -5 -319 -8 -635 -9 l-575 0 -3 1490 c-1 820 0 1496 3 1503 3 9 149 12 682 11 373 0 703 -5 733 -10z"/>
 <path d="M980 2185 l-375 -375 233 -233 c127 -127 232 -237 232 -242 0 -5 -47 -57 -105 -115 l-105 -105 140 -140 140 -140 245 245 c135 135 245 249 245 255 0 6 -105 116 -234 244 l-235 235 232 233 c128 129 231 238 230 243 -2 7 -260 270 -266 270 -1 0 -171 -169 -377 -375z"/>
 </g>
<g id="layer109" fill="#bee2fb" stroke="none">
 <path d="M0 1685 l0 -1685 1275 0 1275 0 0 1685 0 1685 -1275 0 -1275 0 0 -1685z m1630 1504 c117 -18 130 -21 136 -30 3 -5 12 -9 21 -9 33 0 202 -92 266 -145 131 -108 216 -233 271 -399 50 -148 56 -288 22 -492 -13 -78 -91 -233 -159 -319 -49 -62 -118 -126 -177 -167 -25 -17 -47 -33 -49 -34 -2 -2 20 -37 48 -79 55 -79 99 -169 120 -245 7 -25 17 -59 22 -76 12 -39 12 -278 0 -318 -64 -215 -113 -306 -231 -426 -140 -142 -298 -220 -495 -246 -33 -5 -319 -8 -635 -9 l-575 0 -3 1490 c-1 820 0 1496 3 1503 3 9 149 12 682 11 373 0 703 -5 733 -10z"/>
 <path d="M975 2180 l-370 -370 233 -232 c127 -128 232 -238 232 -243 0 -6 -47 -57 -105 -115 l-105 -105 132 -132 c73 -73 139 -133 147 -133 17 0 491 469 491 485 0 5 -105 116 -234 244 l-235 235 232 233 c128 129 231 238 229 243 -4 16 -254 260 -266 260 -6 0 -177 -166 -381 -370z"/>
 </g>
<g id="layer110" fill="#d2eafb" stroke="none">
 <path d="M0 1685 l0 -1685 1275 0 1275 0 0 1685 0 1685 -1275 0 -1275 0 0 -1685z m1585 1515 c4 -6 10 -8 14 -5 11 6 109 -11 146 -26 17 -6 40 -13 52 -15 13 -1 36 -12 52 -23 15 -11 31 -18 33 -15 7 6 76 -32 104 -57 11 -10 24 -19 29 -19 5 0 18 -9 30 -20 11 -10 40 -39 66 -62 25 -24 53 -54 62 -68 10 -14 35 -47 57 -75 22 -27 40 -56 40 -63 0 -8 8 -26 19 -40 24 -35 63 -141 56 -153 -3 -5 1 -24 10 -43 10 -20 14 -44 10 -55 -3 -12 -3 -26 1 -33 7 -10 9 -183 3 -183 -1 0 -3 -23 -4 -51 -1 -28 -6 -57 -11 -65 -5 -8 -7 -21 -6 -31 2 -9 -2 -19 -8 -23 -5 -3 -10 -13 -10 -22 0 -16 -31 -92 -51 -123 -5 -8 -14 -25 -19 -38 -16 -37 -64 -98 -128 -164 -56 -56 -102 -97 -129 -117 -18 -12 -33 -26 -33 -31 0 -4 13 -21 28 -38 45 -48 123 -215 154 -327 17 -66 18 -329 0 -347 -6 -6 -12 -27 -12 -44 0 -18 -5 -36 -10 -39 -6 -3 -10 -16 -10 -28 0 -13 -6 -31 -14 -42 -7 -11 -16 -32 -20 -47 -3 -14 -22 -47 -41 -72 -19 -26 -35 -51 -35 -56 0 -5 -9 -15 -20 -22 -11 -7 -20 -18 -20 -24 0 -13 -90 -97 -150 -139 -101 -72 -153 -98 -226 -116 -27 -6 -53 -15 -59 -19 -5 -4 -30 -8 -55 -9 -24 -1 -49 -6 -56 -12 -7 -6 -240 -8 -610 -7 l-599 3 -3 1495 c-1 822 0 1501 3 1508 6 16 1360 18 1370 2z"/>
 <path d="M975 2180 l-370 -370 233 -232 c127 -128 232 -238 232 -243 0 -6 -47 -57 -105 -115 l-105 -105 132 -132 c73 -73 139 -133 147 -133 17 0 491 469 491 485 0 5 -107 117 -237 247 l-238 238 233 233 c127 127 232 236 232 240 0 11 -252 257 -264 257 -6 0 -177 -166 -381 -370z"/>
 </g>
<g id="layer111" fill="#ffffff" stroke="none">
 <path d="M0 1685 l0 -1685 1275 0 1275 0 0 1685 0 1685 -1275 0 -1275 0 0 -1685z m1665 1510 c156 -29 276 -86 395 -184 53 -45 64 -55 116 -114 53 -59 154 -235 154 -267 0 -6 4 -18 9 -28 39 -76 64 -308 40 -369 -7 -15 -11 -44 -10 -64 1 -21 -2 -40 -8 -44 -6 -3 -11 -17 -11 -31 0 -13 -4 -32 -9 -42 -5 -9 -19 -42 -32 -72 -52 -124 -177 -281 -279 -351 -61 -41 -60 -40 -26 -89 17 -25 33 -47 36 -50 11 -11 63 -111 81 -155 55 -139 63 -391 16 -551 -64 -224 -267 -444 -492 -534 -14 -5 -35 -14 -47 -19 -95 -39 -141 -41 -775 -41 l-618 0 1 1507 c1 830 2 1509 3 1511 1 1 311 2 690 2 565 0 703 -3 766 -15z"/>
 <path d="M992 2177 c-199 -199 -362 -365 -362 -369 0 -4 104 -110 230 -237 127 -127 230 -233 230 -236 0 -3 -47 -53 -105 -111 -58 -58 -105 -111 -105 -117 0 -7 56 -68 125 -137 l125 -125 245 245 245 245 -237 238 -237 237 232 233 c128 128 232 237 232 242 0 10 -241 255 -250 255 -3 0 -168 -163 -368 -363z"/>
 </g>

</svg>