<?xml version="1.0" encoding="utf-8"?>
<!-- Generator: Adobe Illustrator 19.0.0, SVG Export Plug-In . SVG Version: 6.00 Build 0)  -->
<svg version="1.1" id="Layer_1" xmlns="http://www.w3.org/2000/svg" xmlns:xlink="http://www.w3.org/1999/xlink" x="0px" y="0px"
	 viewBox="-11.5 -81 587 662" style="enable-background:new -11.5 -81 587 662;" xml:space="preserve">
<style type="text/css">
	.st0{fill:#222222;}
</style>
<title>Brand</title>
<desc>Created with Sketch.</desc>
<path id="Combined-Shape" class="st0" d="M453.7,111.1L316.2,31.6c-6,6.1-13.7,10.6-22.2,12.8v159c20.7,5.3,36,24.1,36,46.5
	c0,4.5-0.6,8.8-1.7,12.9l137.5,79.5c6-6.1,13.7-10.6,22.2-12.8v-159c-20.7-5.3-36-24.1-36-46.5C452,119.5,452.6,115.2,453.7,111.1z
	 M512,170.5v159c20.7,5.3,36,24.1,36,46.5c0,26.5-21.5,48-48,48c-13.4,0-25.5-5.5-34.2-14.4l-137.5,79.5c1.1,4.1,1.7,8.4,1.7,12.9
	c0,26.5-21.5,48-48,48s-48-21.5-48-48c0-4.5,0.6-8.8,1.7-12.9L98.2,409.6C89.5,418.5,77.4,424,64,424c-26.5,0-48-21.5-48-48
	c0-22.4,15.3-41.2,36-46.5v-159c-20.7-5.3-36-24.1-36-46.5c0-26.5,21.5-48,48-48c13.4,0,25.5,5.5,34.2,14.4l137.5-79.5
	C234.6,6.8,234,2.5,234-2c0-26.5,21.5-48,48-48s48,21.5,48,48c0,4.5-0.6,8.8-1.7,12.9l137.5,79.5C474.5,81.5,486.6,76,500,76
	c26.5,0,48,21.5,48,48C548,146.4,532.7,165.2,512,170.5z M453.7,388.9c-1.1-4.1-1.7-8.4-1.7-12.9s0.6-8.8,1.7-12.9l-137.5-79.5
	c-8.7,8.9-20.8,14.4-34.2,14.4s-25.5-5.5-34.2-14.4l-137.5,79.5c1.1,4.1,1.7,8.4,1.7,12.9s-0.6,8.8-1.7,12.9l137.5,79.5
	c8.7-8.9,20.8-14.4,34.2-14.4s25.5,5.5,34.2,14.4L453.7,388.9z M235.7,262.9c-1.1-4.1-1.7-8.4-1.7-12.9c0-22.4,15.3-41.2,36-46.5
	v-159c-8.6-2.2-16.2-6.7-22.2-12.8l-137.5,79.5c1.1,4.1,1.7,8.4,1.7,12.9c0,22.4-15.3,41.2-36,46.5v159c8.6,2.2,16.2,6.7,22.2,12.8
	L235.7,262.9z"/>
</svg>
