<?xml version="1.0" encoding="utf-8"?>
<!-- Generator: Adobe Illustrator 19.0.0, SVG Export Plug-In . SVG Version: 6.00 Build 0)  -->
<svg version="1.1" id="Layer_1" xmlns="http://www.w3.org/2000/svg" xmlns:xlink="http://www.w3.org/1999/xlink" x="0px" y="0px"
	 viewBox="-237.2 231.3 29.5 39.3" style="enable-background:new -237.2 231.3 29.5 39.3;" xml:space="preserve">
<g>
	<path d="M-229.1,233.1c-0.1-0.1-0.3-0.1-0.5,0l-6.2,4.7c-0.1,0.1-0.2,0.2-0.2,0.3s0.1,0.2,0.1,0.3l15.4,12c0.1,0.1,0.2,0.1,0.2,0.1
		c0.1,0,0.2-0.1,0.3-0.1c0.1-0.2,0.1-0.4-0.1-0.5l-15-11.7l5.5-4.2l15.1,11.9c0.2,0.1,0.4,0.1,0.5-0.1c0.1-0.2,0.1-0.4-0.1-0.5
		L-229.1,233.1L-229.1,233.1z"/>
	<path d="M-216.2,263c0.6-1.3,1-2.9,1-4.4c0-5.7-4.6-10.4-10.4-10.4c-0.5,0-1.1,0-1.6,0.1c1.7-2.4,4.6-4,7.8-4
		c5.3,0,9.6,4.3,9.6,9.6C-209.8,258.1-212.4,261.7-216.2,263L-216.2,263z M-225.5,268.2c-5.3,0-9.6-4.3-9.6-9.6
		c0-3.8,2.2-7.1,5.4-8.7v4c0,5.7,4.6,10.4,10.4,10.4c0.5,0,1.1,0,1.6-0.1C-219.5,266.6-222.3,268.2-225.5,268.2L-225.5,268.2z
		 M-235.1,238.2l5.4-4.1V249c-2.4,1.1-4.4,3.1-5.4,5.6V238.2L-235.1,238.2z M-227.7,249.1c0.7-0.2,1.4-0.3,2.2-0.3
		c5.3,0,9.6,4.3,9.6,9.6c0,1.7-0.5,3.3-1.2,4.7c-0.7,0.2-1.4,0.3-2.2,0.3c-5.3,0-9.6-4.3-9.6-9.6
		C-229,252.2-228.5,250.6-227.7,249.1z M-209,253.9c0-5.7-4.6-10.4-10.4-10.4c-3.7,0-7,2-8.9,5c-0.3,0.1-0.5,0.1-0.7,0.2v-15.3
		c0-0.1-0.1-0.3-0.2-0.3c-0.1,0-0.3-0.1-0.4,0l-6.2,4.7c-0.1,0.1-0.2,0.2-0.2,0.3v20.5c0,5.7,4.6,10.4,10.4,10.4c3.7,0,7-2,8.8-5
		C-212.3,262.8-209,258.7-209,253.9z"/>
</g>
</svg>
