<!DOCTYPE svg PUBLIC "-//W3C//DTD SVG 20010904//EN" "http://www.w3.org/TR/2001/REC-SVG-20010904/DTD/svg10.dtd">
<svg version="1.0" xmlns="http://www.w3.org/2000/svg" width="242px" height="242px" viewBox="0 0 2420 2420" preserveAspectRatio="xMidYMid meet">
<g id="layer101" fill="#e8492c" stroke="none">
 <path d="M365 1760 c0 -250 1 -353 2 -228 2 126 2 330 0 455 -1 126 -2 23 -2 -227z"/>
 <path d="M380 1760 l0 -450 23 0 c12 0 246 0 520 0 l497 0 53 -25 c28 -13 66 -36 82 -50 l30 -25 -30 -26 c-16 -14 -48 -34 -70 -45 -38 -17 -71 -19 -572 -19 l-533 0 0 -455 0 -456 583 2 c320 1 573 4 563 7 -13 3 0 11 39 24 32 10 63 17 70 14 7 -2 21 2 32 10 17 14 16 14 -7 4 -23 -10 -23 -10 -7 3 10 8 26 13 36 10 9 -2 24 4 32 13 12 16 12 17 -1 10 -8 -5 -1 3 15 18 17 14 36 23 42 21 13 -5 133 101 133 117 0 5 -6 6 -12 2 -8 -4 -10 -3 -5 2 5 5 12 9 17 9 9 0 51 58 75 105 23 45 36 82 26 76 -4 -3 -6 7 -3 22 5 22 7 23 10 8 10 -48 34 65 39 182 4 99 2 137 -12 190 -20 76 -41 121 -64 140 -9 8 -11 11 -5 8 7 -3 14 4 18 17 9 33 7 39 -6 31 -8 -4 -10 -3 -5 2 5 5 14 9 20 9 6 0 21 34 33 75 31 105 32 265 3 364 -31 104 -111 257 -127 241 -7 -6 -72 55 -72 68 0 4 16 -9 35 -30 19 -21 35 -33 35 -27 0 16 -130 136 -176 163 -19 12 -32 17 -29 11 3 -5 3 -10 0 -10 -10 0 -65 30 -65 36 0 2 10 -1 23 -7 17 -9 20 -9 11 1 -7 6 -25 13 -40 15 -16 2 -51 10 -79 18 -36 10 -44 16 -30 19 11 3 -242 6 -562 7 l-583 2 0 -451z m1400 314 c8 -9 -3 -4 -25 10 -51 35 -57 42 -19 23 17 -9 37 -23 44 -33z m-275 -162 c28 -15 50 -34 50 -42 0 -8 5 -15 12 -15 6 0 15 -4 20 -9 5 -6 2 -6 -7 -1 -8 5 7 -17 35 -48 27 -31 50 -57 52 -57 9 0 0 14 -34 52 -25 29 -28 35 -9 18 32 -29 77 -88 57 -75 -9 5 -12 3 -9 -6 3 -8 10 -13 14 -12 5 1 10 -15 11 -35 5 -123 13 -186 25 -193 29 -19 -3 -7 -44 16 -49 27 -112 52 -173 68 -22 5 -225 13 -460 16 l-420 7 390 2 c412 2 471 -3 583 -46 65 -25 69 -18 5 9 -99 42 -176 49 -575 49 l-378 0 0 155 0 155 399 0 400 0 47 -25 c26 -14 49 -23 52 -21 2 3 -16 15 -40 28 -43 23 -48 23 -463 28 l-420 5 415 2 415 3 50 -28z m-868 -224 c-1 -46 -3 -11 -3 77 0 88 2 125 3 83 2 -42 2 -114 0 -160z m1410 -210 c-2 -35 -3 -9 -3 57 0 66 1 94 3 63 2 -32 2 -86 0 -120z m-320 45 c-2 -16 -4 -5 -4 22 0 28 2 40 4 28 2 -13 2 -35 0 -50z m320 -685 c-2 -35 -3 -9 -3 57 0 66 1 94 3 63 2 -32 2 -86 0 -120z m-372 70 c-145 -75 -123 -72 -607 -78 -240 -3 -434 -2 -431 3 2 4 185 7 407 7 254 0 423 4 458 11 30 6 90 28 134 49 95 46 123 52 39 8z m32 -35 c-3 -21 -8 -54 -11 -73 -6 -35 -6 -35 8 5 8 22 15 32 15 23 1 -24 -16 -67 -35 -85 -8 -9 -13 -22 -10 -30 3 -8 1 -11 -4 -8 -6 3 -10 4 -10 1 0 -2 -3 -12 -7 -22 -5 -13 -3 -15 8 -9 8 5 11 5 6 -1 -5 -5 -14 -9 -19 -9 -6 0 -13 -6 -16 -14 -3 -9 0 -11 8 -6 9 6 11 4 6 -4 -5 -7 -11 -10 -14 -6 -3 3 -26 -14 -51 -39 -25 -24 -67 -56 -93 -70 l-47 -26 -395 0 -396 0 0 160 0 160 398 0 c248 0 419 4 453 11 30 6 86 26 124 44 39 18 74 34 79 34 5 1 6 -16 3 -36z m-1070 -295 c-1 -46 -3 -11 -3 77 0 88 2 125 3 83 2 -42 2 -114 0 -160z m958 3 c-22 -21 -66 -53 -97 -70 l-57 -31 -408 2 -408 3 415 5 415 5 50 29 c28 15 66 43 85 62 19 19 37 34 40 34 2 0 -13 -18 -35 -39z m253 -172 c-58 -58 -76 -66 -24 -11 28 28 51 50 54 48 2 -2 -12 -19 -30 -37z"/>
 <path d="M1589 2185 c18 -8 36 -15 40 -15 13 1 -45 29 -59 29 -8 0 0 -6 19 -14z"/>
 <path d="M383 1294 c2 -3 237 -5 521 -4 351 0 524 -3 539 -10 21 -11 21 -11 2 5 -17 13 -82 15 -543 15 -289 0 -522 -3 -519 -6z"/>
 <path d="M1539 1230 c23 -20 23 -21 5 -36 -10 -8 -31 -21 -46 -29 -16 -9 -28 -18 -28 -21 0 -2 10 1 23 7 33 18 77 52 77 60 0 4 -12 14 -27 23 l-28 17 24 -21z"/>
 <path d="M915 1140 l-540 -5 537 -3 c350 -1 539 1 543 8 3 6 5 9 3 8 -2 -2 -246 -5 -543 -8z"/>
 <path d="M365 670 c0 -250 1 -353 2 -228 2 126 2 330 0 455 -1 126 -2 23 -2 -227z"/>
 <path d="M1575 235 c-40 -19 -16 -19 26 0 19 8 27 14 19 14 -8 0 -28 -7 -45 -14z"/>
 </g>

</svg>