<?xml version="1.0" encoding="utf-8"?>
<!-- Generator: Adobe Illustrator 22.0.1, SVG Export Plug-In . SVG Version: 6.00 Build 0)  -->
<svg version="1.1" id="Your_design" xmlns="http://www.w3.org/2000/svg" xmlns:xlink="http://www.w3.org/1999/xlink" x="0px"
	 y="0px" viewBox="0 0 126.6 126.6" style="enable-background:new 0 0 126.6 126.6;" xml:space="preserve">
<style type="text/css">
	.st0{fill:#F3BA2F;}
</style>
<polygon class="st0" points="38.7,53.2 63.3,28.6 87.9,53.2 102.2,38.9 63.3,0 24.4,38.9 "/>
<rect x="4.2" y="53.2" transform="matrix(0.7071 -0.7071 0.7071 0.7071 -40.572 28.6579)" class="st0" width="20.2" height="20.2"/>
<polygon class="st0" points="38.7,73.4 63.3,98 87.9,73.4 102.2,87.7 102.2,87.7 63.3,126.6 24.4,87.7 24.4,87.7 "/>
<rect x="102.2" y="53.2" transform="matrix(0.7071 -0.7071 0.7071 0.7071 -11.8736 97.9553)" class="st0" width="20.2" height="20.2"/>
<polygon class="st0" points="77.8,63.3 77.8,63.3 63.3,48.8 52.6,59.5 52.6,59.5 51.3,60.7 48.8,63.3 48.8,63.3 48.8,63.3 
	48.8,63.3 63.3,77.8 77.8,63.3 77.8,63.3 "/>
</svg>
