<!DOCTYPE svg PUBLIC "-//W3C//DTD SVG 20010904//EN" "http://www.w3.org/TR/2001/REC-SVG-20010904/DTD/svg10.dtd">
<svg version="1.0" xmlns="http://www.w3.org/2000/svg" width="225px" height="225px" viewBox="0 0 2250 2250" preserveAspectRatio="xMidYMid meet">
<g id="layer101" fill="#04223b" stroke="none">
 <path d="M0 1125 l0 -1125 1125 0 1125 0 0 1125 0 1125 -1125 0 -1125 0 0 -1125z"/>
 </g>
<g id="layer102" fill="#0e3554" stroke="none">
 <path d="M0 1125 l0 -1125 1125 0 1125 0 0 1125 0 1125 -1125 0 -1125 0 0 -1125z m1143 928 c-7 -2 -19 -2 -25 0 -7 3 -2 5 12 5 14 0 19 -2 13 -5z m-126 -10 c-4 -3 -10 -3 -14 0 -3 4 0 7 7 7 7 0 10 -3 7 -7z m230 1 c-3 -3 -12 -4 -19 -1 -8 3 -5 6 6 6 11 1 17 -2 13 -5z m-280 -11 c-4 -3 -10 -3 -14 0 -3 4 0 7 7 7 7 0 10 -3 7 -7z m330 0 c-4 -3 -10 -3 -14 0 -3 4 0 7 7 7 7 0 10 -3 7 -7z m-497 -48 c0 -2 -13 -11 -30 -20 -38 -19 -40 -11 -2 9 31 17 32 18 32 11z m677 -12 c-4 -3 -10 -3 -14 0 -3 4 0 7 7 7 7 0 10 -3 7 -7z m144 -90 c13 -16 12 -17 -3 -4 -10 7 -18 15 -18 17 0 8 8 3 21 -13z m-981 3 c0 -2 -8 -10 -17 -17 -16 -13 -17 -12 -4 4 13 16 21 21 21 13z m397 -63 c-4 -3 -10 -3 -14 0 -3 4 0 7 7 7 7 0 10 -3 7 -7z m200 0 c-4 -3 -10 -3 -14 0 -3 4 0 7 7 7 7 0 10 -3 7 -7z m-240 -9 c-3 -3 -12 -4 -19 -1 -8 3 -5 6 6 6 11 1 17 -2 13 -5z m280 -1 c-4 -3 -10 -3 -14 0 -3 4 0 7 7 7 7 0 10 -3 7 -7z m-727 -7 c0 -3 -5 -8 -12 -12 -7 -4 -8 -3 -4 4 7 12 16 16 16 8z m407 -3 c-4 -3 -10 -3 -14 0 -3 4 0 7 7 7 7 0 10 -3 7 -7z m350 0 c-4 -3 -10 -3 -14 0 -3 4 0 7 7 7 7 0 10 -3 7 -7z m-487 -57 c0 -2 -8 -10 -17 -17 -16 -13 -17 -12 -4 4 13 16 21 21 21 13z m655 -26 c3 -5 4 -10 1 -10 -3 0 -8 5 -11 10 -3 6 -4 10 -1 10 3 0 8 -4 11 -10z m-1014 -33 c-10 -9 -11 -8 -5 6 3 10 9 15 12 12 3 -3 0 -11 -7 -18z m279 -1 c0 -2 -8 -10 -17 -17 -16 -13 -17 -12 -4 4 13 16 21 21 21 13z m-343 -123 c-4 -3 -7 0 -7 7 0 7 3 10 7 7 3 -4 3 -10 0 -14z m1480 -50 c-4 -3 -7 0 -7 7 0 7 3 10 7 7 3 -4 3 -10 0 -14z m-1257 3 c0 -3 -5 -8 -12 -12 -7 -4 -8 -3 -4 4 7 12 16 16 16 8z m1025 -6 c3 -5 4 -10 1 -10 -3 0 -8 5 -11 10 -3 6 -4 10 -1 10 3 0 8 -4 11 -10z m-1278 -27 c-4 -3 -7 0 -7 7 0 7 3 10 7 7 3 -4 3 -10 0 -14z m1520 0 c-4 -3 -7 0 -7 7 0 7 3 10 7 7 3 -4 3 -10 0 -14z m-210 -400 c-4 -3 -7 0 -7 7 0 7 3 10 7 7 3 -4 3 -10 0 -14z m210 -60 c-4 -3 -7 0 -7 7 0 7 3 10 7 7 3 -4 3 -10 0 -14z m-252 -32 c-21 -43 -29 -39 -8 4 9 19 18 33 21 31 2 -2 -4 -18 -13 -35z m185 -125 c0 -3 -5 -8 -12 -12 -7 -4 -8 -3 -4 4 7 12 16 16 16 8z m-340 -60 c0 -3 -5 -8 -12 -12 -7 -4 -8 -3 -4 4 7 12 16 16 16 8z m243 -71 c-3 -9 -8 -14 -10 -11 -3 3 -2 9 2 15 9 16 15 13 8 -4z m-356 -2 c-4 -3 -10 -3 -14 0 -3 4 0 7 7 7 7 0 10 -3 7 -7z m-82 -23 c-3 -5 -12 -10 -18 -10 -7 0 -6 4 3 10 19 12 23 12 15 0z m-308 -7 c-4 -3 -10 -3 -14 0 -3 4 0 7 7 7 7 0 10 -3 7 -7z m60 -9 c-3 -3 -12 -4 -19 -1 -8 3 -5 6 6 6 11 1 17 -2 13 -5z m593 -48 c0 -2 -8 -10 -17 -17 -16 -13 -17 -12 -4 4 13 16 21 21 21 13z m-90 -60 c0 -3 -5 -8 -12 -12 -7 -4 -8 -3 -4 4 7 12 16 16 16 8z m-63 -43 c-4 -3 -10 -3 -14 0 -3 4 0 7 7 7 7 0 10 -3 7 -7z m-180 -60 c-4 -3 -10 -3 -14 0 -3 4 0 7 7 7 7 0 10 -3 7 -7z m-260 -14 c-14 -8 -22 -8 -30 0 -8 8 -3 11 19 11 25 -1 27 -2 11 -11z m204 2 c-8 -5 -20 -7 -28 -4 -21 8 -15 13 15 13 20 0 23 -3 13 -9z m-103 -8 c-10 -2 -26 -2 -35 0 -10 3 -2 5 17 5 19 0 27 -2 18 -5z m-793 -263 c3 -5 -1 -10 -10 -10 -9 0 -13 5 -10 10 3 6 8 10 10 10 2 0 7 -4 10 -10z m32 -7 c-4 -3 -10 -3 -14 0 -3 4 0 7 7 7 7 0 10 -3 7 -7z m136 0 c-24 -2 -62 -2 -85 0 -24 2 -5 4 42 4 47 0 66 -2 43 -4z"/>
 </g>
<g id="layer103" fill="#083e6b" stroke="none">
 <path d="M0 1125 l0 -1125 1125 0 1125 0 0 1125 0 1125 -1125 0 -1125 0 0 -1125z m1265 923 c11 -2 26 -8 33 -12 7 -4 16 -5 19 -2 3 3 11 2 17 -3 6 -5 29 -14 51 -21 81 -24 195 -84 195 -102 0 -3 -13 0 -30 8 -16 9 -30 20 -30 26 0 6 -3 9 -6 5 -4 -3 -13 0 -20 8 -8 8 -21 12 -29 9 -8 -4 -18 1 -21 10 -3 9 -17 16 -30 16 -13 0 -47 10 -76 21 -45 19 -73 22 -183 22 -161 0 -197 -2 -191 -11 2 -4 -12 -8 -31 -9 -19 -1 -41 -7 -48 -13 -8 -7 -18 -9 -23 -6 -5 3 -26 -6 -46 -20 -21 -14 -40 -23 -43 -20 -9 9 -63 -24 -60 -37 1 -6 -6 -11 -15 -11 -10 1 -18 -4 -18 -12 0 -8 -6 -11 -15 -8 -8 4 -15 1 -15 -5 0 -6 -7 -11 -15 -11 -9 0 -12 -6 -9 -15 4 -9 0 -15 -10 -15 -20 0 -79 -57 -71 -70 3 -6 -1 -10 -10 -10 -8 0 -18 -7 -22 -16 -4 -12 -8 -13 -13 -3 -9 13 153 179 174 179 6 0 35 16 63 35 29 19 58 35 65 35 7 0 30 9 50 19 19 11 38 17 42 14 3 -3 11 -1 19 5 7 6 32 13 56 16 24 3 45 7 48 9 5 5 217 0 248 -5z m-398 -75 c-4 -3 -10 -3 -14 0 -3 4 0 7 7 7 7 0 10 -3 7 -7z m778 -113 c22 -21 46 -39 53 -40 6 0 12 -2 12 -4 0 -2 2 -11 5 -18 4 -9 -2 -14 -14 -14 -10 0 -17 5 -15 11 6 14 -51 66 -62 57 -4 -4 -3 -1 1 7 6 11 4 13 -9 8 -11 -4 -15 -3 -10 4 4 6 0 15 -7 20 -8 5 -9 9 -4 9 6 0 28 -18 50 -40z m-355 -43 c25 -8 57 -18 71 -21 14 -3 47 -22 72 -41 26 -20 47 -31 47 -25 0 6 5 8 11 4 8 -5 6 -10 -5 -16 -17 -9 -78 20 -101 49 -5 7 -32 17 -60 24 -27 6 -60 16 -72 22 -63 29 -318 1 -364 -39 -8 -8 -22 -14 -29 -14 -8 0 -24 -10 -37 -22 -17 -16 -26 -19 -35 -10 -8 8 -4 13 16 18 14 3 26 9 26 13 0 12 63 44 93 47 16 1 33 8 37 14 4 7 15 10 24 7 9 -4 26 -2 38 3 33 14 215 5 268 -13z m447 -54 c2 -6 -7 -8 -21 -6 -14 3 -24 9 -21 13 7 11 38 6 42 -7z m-1002 -12 c3 -5 2 -12 -3 -15 -5 -3 -9 1 -9 9 0 17 3 19 12 6z m1089 -98 c10 -21 25 -50 32 -65 8 -14 14 -31 14 -36 0 -6 5 -23 12 -39 6 -15 10 -33 9 -40 -1 -6 3 -14 8 -18 6 -3 8 -12 4 -20 -3 -9 0 -21 5 -28 14 -16 23 -195 12 -222 -6 -13 -9 15 -9 77 -1 70 -5 101 -15 111 -9 8 -12 24 -9 36 3 13 1 21 -7 21 -7 0 -10 8 -8 18 3 11 0 29 -7 42 -7 13 -10 32 -8 44 4 18 3 19 -7 6 -10 -13 -11 -13 -6 3 7 22 -11 70 -24 62 -6 -3 -7 1 -4 9 3 9 2 16 -4 16 -5 0 -12 13 -15 30 -4 16 -16 38 -27 47 -11 10 -20 22 -20 27 0 18 55 -42 74 -81z m-1341 55 c-3 -13 -17 -38 -30 -55 -13 -18 -21 -33 -17 -33 4 0 1 -6 -8 -12 -9 -7 -21 -33 -26 -58 -8 -42 -9 -43 -17 -18 -5 22 2 43 35 105 35 64 54 92 67 93 0 0 -1 -10 -4 -22z m290 -3 c-3 -8 -12 -15 -19 -15 -8 0 -24 -16 -35 -35 -12 -20 -30 -40 -40 -46 -11 -5 -35 -44 -55 -87 -19 -42 -39 -85 -45 -95 -5 -10 -7 -22 -4 -27 4 -6 3 -16 -2 -22 -14 -22 -15 -52 -22 -603 l-7 -540 -2 539 c-1 392 1 556 10 600 7 34 15 63 18 66 3 3 14 28 24 55 10 28 26 58 34 68 8 9 12 17 9 17 -3 0 5 11 19 25 14 14 22 30 18 37 -4 7 -3 8 4 4 7 -4 12 0 12 10 0 10 3 14 7 11 9 -9 54 33 47 44 -3 5 3 6 12 2 13 -5 15 -3 9 7 -5 8 -4 11 3 6 6 -4 9 -13 5 -21z m757 -30 c28 -28 36 -32 49 -23 13 10 14 10 4 -2 -15 -16 0 -50 22 -50 9 0 12 -6 8 -17 -4 -11 -3 -14 6 -9 6 4 11 4 10 -1 -3 -12 23 -63 32 -63 4 0 9 -17 12 -37 3 -21 9 -54 12 -73 5 -25 4 -31 -4 -20 -5 8 -8 18 -5 22 9 15 -86 195 -111 212 -14 10 -30 28 -36 42 -5 14 -18 28 -29 31 -11 3 -20 9 -20 14 0 17 16 9 50 -26z m-1160 -194 c-6 -23 -13 -41 -16 -41 -5 0 6 70 13 83 12 20 13 -4 3 -42z m-17 -93 c-3 -24 -8 -297 -10 -607 -3 -453 -1 -566 9 -573 19 -11 178 -10 178 2 0 15 17 12 24 -5 5 -13 -12 -15 -115 -15 l-120 0 3 603 c2 494 6 607 17 620 20 24 21 22 14 -25z m1362 -136 c-3 -3 -5 1 -5 9 0 8 -7 27 -15 43 -9 16 -13 37 -9 45 4 10 11 -3 20 -38 8 -30 12 -56 9 -59z m-23 -118 c-6 -11 -8 -4 -6 23 4 75 8 87 11 41 2 -26 0 -55 -5 -64z m213 -38 c-2 -17 -4 -31 -5 -31 -1 0 -4 -13 -6 -29 -5 -45 -100 -229 -139 -269 -19 -20 -35 -39 -35 -42 0 -10 -28 -35 -39 -35 -6 0 -11 -4 -11 -9 0 -15 -33 -22 -44 -10 -8 9 -6 10 8 5 14 -5 17 -2 12 9 -3 10 -2 13 5 9 6 -3 21 4 35 17 25 23 33 46 12 33 -7 -4 -8 -3 -4 5 4 6 11 9 16 6 4 -3 20 10 34 27 15 18 31 39 37 46 5 7 7 17 4 22 -4 6 -1 9 7 8 7 -2 12 3 10 10 -1 7 4 20 13 28 8 9 15 24 15 35 0 10 4 19 9 19 11 0 42 86 34 94 -3 3 -1 12 6 20 7 8 9 25 6 38 -5 18 -2 25 9 25 11 0 14 -8 11 -31z m-229 -33 c-2 -20 -11 -42 -20 -49 -9 -6 -16 -16 -15 -20 3 -19 -1 -37 -8 -31 -10 11 -33 -14 -33 -37 0 -12 -9 -27 -20 -34 -12 -7 -18 -18 -14 -24 4 -6 3 -8 -3 -5 -6 4 -16 1 -22 -7 -9 -11 -9 -15 0 -18 7 -2 -2 -15 -21 -28 -19 -13 -30 -19 -26 -12 11 18 -5 14 -28 -7 -32 -30 -127 -79 -177 -91 -59 -15 -259 -28 -251 -16 3 5 -5 7 -16 4 -12 -4 -25 -2 -28 3 -3 5 -15 9 -28 9 -23 0 -71 29 -49 30 7 0 33 -7 59 -16 68 -23 195 -24 283 -2 75 18 181 64 181 78 0 4 13 13 29 20 16 6 40 25 53 42 13 17 42 55 65 85 23 29 47 70 54 91 13 41 28 72 34 72 2 0 3 -17 1 -37z m-819 -304 c21 -12 39 -22 41 -24 1 -1 -15 -1 -38 0 l-40 2 0 -89 c0 -57 -4 -87 -10 -83 -15 9 -9 215 6 215 2 0 20 -9 41 -21z m753 -134 c-13 -14 -29 -25 -37 -25 -7 0 -21 -8 -31 -18 -23 -23 -93 -56 -155 -72 -26 -7 -50 -17 -53 -21 -3 -5 -20 -9 -37 -9 -30 1 -29 2 18 20 28 11 58 20 68 20 9 0 17 5 17 11 0 6 8 8 19 4 12 -3 21 0 25 10 3 9 10 14 16 10 5 -3 20 3 32 14 12 12 26 21 30 21 5 0 6 4 3 10 -4 6 1 7 11 3 13 -5 15 -3 9 7 -6 9 -4 11 4 6 7 -5 20 -1 29 7 15 12 36 23 51 26 3 1 -6 -10 -19 -24z m-713 -116 c18 -5 50 -14 71 -19 20 -6 96 -11 167 -11 74 -1 121 -4 110 -9 -22 -8 -217 -5 -280 5 -21 3 -45 11 -52 17 -8 6 -16 8 -19 5 -3 -3 -22 3 -41 14 -19 11 -38 17 -44 14 -5 -3 -6 1 -3 10 6 14 9 14 32 -1 14 -9 41 -21 59 -25z"/>
 <path d="M773 1963 c4 -3 10 -3 14 0 3 4 0 7 -7 7 -7 0 -10 -3 -7 -7z"/>
 <path d="M693 1913 c4 -3 10 -3 14 0 3 4 0 7 -7 7 -7 0 -10 -3 -7 -7z"/>
 <path d="M454 1678 c-4 -7 -3 -8 4 -4 12 7 16 16 8 16 -3 0 -8 -5 -12 -12z"/>
 <path d="M1515 830 c-3 -5 -1 -10 4 -10 6 0 11 5 11 10 0 6 -2 10 -4 10 -3 0 -8 -4 -11 -10z"/>
 </g>
<g id="layer104" fill="#25465e" stroke="none">
 <path d="M0 1125 l0 -1125 1125 0 1125 0 0 1125 0 1125 -1125 0 -1125 0 0 -1125z m1265 923 c11 -2 26 -7 33 -12 6 -4 16 -5 21 -1 5 3 12 1 15 -3 3 -5 27 -15 53 -23 60 -16 95 -34 86 -43 -4 -4 1 -4 11 0 13 5 17 4 12 -4 -4 -7 -2 -10 6 -7 18 7 130 -74 122 -87 -4 -6 -3 -8 3 -5 5 3 21 -5 36 -19 14 -13 31 -24 37 -24 5 0 10 -2 10 -4 0 -2 3 -12 7 -22 5 -13 3 -15 -7 -9 -9 5 -11 4 -6 -4 4 -6 11 -9 16 -6 11 7 61 -61 52 -70 -4 -5 -2 -5 4 -2 7 4 16 1 22 -6 15 -18 72 -134 72 -146 0 -5 5 -22 12 -38 6 -15 10 -33 9 -40 -1 -6 3 -14 8 -18 6 -3 8 -12 4 -20 -3 -9 0 -21 6 -29 12 -15 18 -186 8 -251 -10 -61 -15 -90 -17 -90 -1 0 -4 -12 -5 -27 -5 -40 -73 -180 -84 -174 -5 4 -13 1 -17 -5 -4 -8 -3 -9 4 -5 22 13 12 -15 -20 -60 -17 -24 -35 -44 -40 -44 -5 0 -12 -8 -15 -17 -11 -28 -32 -45 -48 -39 -10 3 -12 0 -8 -11 5 -13 2 -15 -11 -10 -9 4 -15 3 -13 -1 6 -9 -18 -33 -27 -26 -3 2 -4 1 -1 -3 7 -9 -25 -43 -41 -43 -7 0 -25 -12 -41 -26 -16 -14 -35 -23 -45 -21 -11 3 -15 1 -11 -6 4 -6 0 -8 -10 -4 -10 4 -16 2 -14 -6 1 -7 -10 -12 -30 -12 -17 0 -29 -3 -26 -7 2 -5 -1 -8 -7 -8 -7 0 -26 -6 -43 -14 -51 -22 -104 -29 -227 -29 -125 1 -187 8 -207 24 -6 6 -16 8 -21 5 -5 -3 -23 4 -41 15 -18 11 -36 17 -41 14 -9 -6 -8 240 1 249 8 8 70 -24 65 -32 -2 -4 8 -8 23 -9 15 -1 49 -9 75 -18 105 -36 311 -17 402 37 19 11 41 17 50 14 8 -3 13 -2 9 3 -9 16 26 42 49 36 17 -5 18 -4 6 4 -10 7 -11 11 -2 11 6 0 14 -1 15 -2 8 -6 36 25 31 34 -7 12 76 119 87 112 5 -3 6 3 2 12 -4 12 -3 15 5 10 8 -5 10 -1 5 10 -4 12 -3 15 5 10 8 -4 10 -2 6 7 -3 8 3 32 12 53 10 22 19 44 20 49 1 6 3 12 4 15 1 3 4 26 6 52 2 26 8 56 14 67 7 14 7 28 -2 48 -7 15 -13 39 -15 53 -6 61 -9 70 -57 170 -17 36 -30 71 -29 77 0 7 -4 10 -9 7 -12 -8 -48 25 -59 54 -5 13 -18 26 -30 29 -12 4 -18 11 -15 20 3 8 1 11 -4 8 -11 -7 -78 30 -95 52 -5 7 -32 17 -60 24 -27 6 -59 16 -70 22 -21 11 -271 17 -253 6 6 -4 -13 -12 -43 -18 -29 -7 -61 -19 -70 -27 -9 -8 -31 -16 -49 -16 -17 -1 -26 -4 -20 -8 14 -9 -11 -31 -38 -33 -12 0 -18 -6 -15 -14 3 -7 -2 -13 -12 -13 -10 0 -14 5 -9 13 4 6 -4 2 -18 -11 -13 -12 -28 -19 -33 -15 -4 5 -5 2 -1 -5 4 -7 12 -10 17 -7 16 11 10 -12 -12 -39 -11 -14 -28 -25 -37 -24 -12 2 -16 -3 -14 -16 2 -10 -1 -15 -7 -12 -5 4 -13 1 -17 -5 -5 -8 -3 -9 6 -4 9 6 10 2 5 -16 -6 -21 -17 -44 -57 -122 -5 -10 -6 -22 -3 -27 4 -6 3 -16 -2 -22 -4 -7 -9 -24 -11 -38 -8 -56 -16 -1122 -9 -1136 7 -12 -11 -14 -113 -14 l-121 0 3 604 3 604 25 28 c14 15 19 24 12 20 -10 -6 -12 0 -6 31 9 49 14 58 26 42 6 -9 7 -5 3 12 -7 30 49 154 65 144 5 -3 12 0 16 6 4 8 3 9 -4 5 -23 -14 -12 14 15 39 15 14 24 25 19 25 -5 0 19 27 54 59 40 38 69 57 79 54 14 -4 14 -3 1 6 -13 10 -11 14 10 31 14 11 33 18 43 16 10 -3 14 0 10 7 -4 6 0 8 10 4 9 -3 19 -1 23 5 5 7 2 8 -7 4 -8 -4 -3 2 11 13 26 22 45 28 35 11 -3 -6 1 -7 10 -3 13 4 14 8 4 14 -17 10 9 21 51 23 15 1 26 4 24 8 -6 9 32 29 39 21 4 -3 12 -1 20 5 7 6 32 13 56 16 24 3 45 7 48 9 5 5 217 0 248 -5z m-525 -362 c0 -3 -5 -8 -12 -12 -7 -4 -8 -3 -4 4 7 12 16 16 16 8z m790 -840 c0 -3 -4 -8 -10 -11 -5 -3 -10 -1 -10 4 0 6 5 11 10 11 6 0 10 -2 10 -4z"/>
 <path d="M653 1883 c4 -3 10 -3 14 0 3 4 0 7 -7 7 -7 0 -10 -3 -7 -7z"/>
 <path d="M1600 1880 c0 -7 3 -10 7 -7 3 4 3 10 0 14 -4 3 -7 0 -7 -7z"/>
 <path d="M908 1803 c7 -3 16 -2 19 1 4 3 -2 6 -13 5 -11 0 -14 -3 -6 -6z"/>
 <path d="M1425 1760 c3 -5 8 -10 11 -10 3 0 2 5 -1 10 -3 6 -8 10 -11 10 -3 0 -2 -4 1 -10z"/>
 <path d="M1670 1060 c0 -7 3 -10 7 -7 3 4 3 10 0 14 -4 3 -7 0 -7 -7z"/>
 <path d="M1714 758 c-4 -7 -3 -8 4 -4 12 7 16 16 8 16 -3 0 -8 -5 -12 -12z"/>
 <path d="M493 203 c9 -2 23 -2 30 0 6 3 -1 5 -18 5 -16 0 -22 -2 -12 -5z"/>
 </g>
<g id="layer105" fill="#2d4e6a" stroke="none">
 <path d="M0 1125 l0 -1125 1125 0 1125 0 0 1125 0 1125 -1125 0 -1125 0 0 -1125z m1279 921 c97 -16 198 -58 271 -111 26 -19 51 -35 54 -35 4 0 18 -13 32 -29 14 -17 33 -33 44 -36 10 -3 33 -28 50 -56 18 -27 38 -53 45 -57 16 -9 56 -76 79 -132 10 -25 24 -58 31 -74 7 -16 11 -35 8 -42 -2 -6 1 -15 6 -19 6 -3 9 -11 5 -16 -3 -5 -1 -16 5 -23 12 -14 17 -197 8 -261 -3 -22 -9 -57 -12 -78 -12 -82 -96 -254 -151 -311 -19 -19 -34 -38 -34 -42 0 -14 -53 -55 -66 -50 -8 3 -11 0 -8 -8 5 -13 -55 -66 -74 -66 -5 0 -15 -7 -22 -15 -20 -24 -148 -83 -195 -90 -5 -1 -12 -3 -15 -4 -73 -35 -385 -34 -426 0 -7 5 -16 9 -20 8 -5 -2 -28 3 -50 10 l-42 14 1 132 2 132 55 -27 c184 -93 397 -86 555 19 39 25 77 46 85 46 23 1 41 15 34 26 -3 6 14 36 38 67 42 53 98 171 98 206 0 8 4 18 10 21 13 8 6 209 -10 265 -22 78 -67 164 -104 199 -20 19 -36 40 -36 46 0 13 -166 125 -185 125 -8 0 -17 5 -20 10 -3 6 -19 10 -34 10 -15 0 -32 5 -38 11 -22 22 -181 18 -263 -7 -112 -33 -142 -46 -185 -80 -22 -17 -48 -35 -57 -40 -9 -5 -27 -25 -41 -44 -13 -19 -31 -34 -41 -34 -12 2 -14 -1 -6 -11 7 -9 6 -16 -4 -24 -24 -20 -63 -112 -80 -186 -13 -59 -15 -163 -16 -633 l-1 -562 -120 0 -120 0 3 603 c2 424 6 608 14 618 6 8 12 21 12 29 4 61 84 242 123 279 13 12 24 26 24 31 0 20 159 170 180 170 7 0 19 8 29 19 9 10 36 26 59 36 23 10 60 26 82 35 42 18 81 28 136 35 17 3 34 7 38 11 6 6 203 -1 260 -10z m251 -1200 c0 -3 -4 -8 -10 -11 -5 -3 -10 -1 -10 4 0 6 5 11 10 11 6 0 10 -2 10 -4z"/>
 </g>
<g id="layer106" fill="#2d967d" stroke="none">
 <path d="M0 1125 l0 -1125 1125 0 1125 0 0 1125 0 1125 -1125 0 -1125 0 0 -1125z m1335 910 c93 -25 235 -100 306 -162 237 -207 332 -495 263 -802 -18 -82 -83 -220 -136 -290 -155 -205 -389 -321 -648 -321 -102 0 -146 8 -252 42 l-68 22 0 133 c0 73 2 133 4 133 3 0 36 -15 73 -34 89 -44 149 -57 254 -57 318 0 577 277 554 593 -3 48 -14 112 -25 143 -80 232 -295 387 -537 386 -241 0 -457 -158 -536 -390 -21 -65 -22 -76 -25 -653 l-3 -588 -120 0 -120 0 4 602 c4 682 0 645 87 823 110 225 300 373 552 430 81 19 289 13 373 -10z"/>
 </g>
<g id="layer107" fill="#329f88" stroke="none">
 <path d="M0 1125 l0 -1125 1125 0 1125 0 0 1125 0 1125 -1125 0 -1125 0 0 -1125z m1335 910 c93 -25 235 -100 306 -162 237 -207 332 -495 263 -802 -18 -82 -83 -220 -136 -290 -155 -205 -389 -321 -648 -321 -102 0 -146 8 -252 42 l-68 22 0 133 c0 73 2 133 4 133 3 0 36 -15 73 -34 89 -44 149 -57 254 -57 318 0 577 277 554 593 -3 48 -14 112 -25 143 -80 232 -295 387 -537 386 -241 0 -457 -158 -536 -390 -21 -65 -22 -76 -25 -653 l-3 -588 -120 0 -120 0 4 602 c4 682 0 645 87 823 110 225 300 373 552 430 81 19 289 13 373 -10z m-518 -727 c-3 -8 -6 -5 -6 6 -1 11 2 17 5 13 3 -3 4 -12 1 -19z m620 -20 c-3 -7 -5 -2 -5 12 0 14 2 19 5 13 2 -7 2 -19 0 -25z m-486 -285 c13 -16 12 -17 -3 -4 -10 7 -18 15 -18 17 0 8 8 3 21 -13z"/>
 </g>
<g id="layer108" fill="#23b495" stroke="none">
 <path d="M0 1125 l0 -1125 1125 0 1125 0 0 1125 0 1125 -1125 0 -1125 0 0 -1125z m1335 910 c93 -25 235 -100 306 -162 237 -207 332 -495 263 -802 -18 -82 -83 -220 -136 -290 -155 -205 -389 -321 -648 -321 -102 0 -146 8 -252 42 l-68 22 0 133 c0 73 2 133 4 133 3 0 36 -15 73 -34 89 -44 149 -57 254 -57 318 0 577 277 554 593 -3 48 -14 112 -25 143 -80 232 -295 387 -537 386 -241 0 -457 -158 -536 -390 -21 -65 -22 -76 -25 -653 l-3 -588 -120 0 -120 0 4 602 c4 682 0 645 87 823 110 225 300 373 552 430 81 19 289 13 373 -10z m-271 -481 c-61 -16 -90 -17 -47 -1 17 7 34 15 38 18 3 3 17 4 32 1 24 -4 21 -7 -23 -18z m113 10 c-3 -3 -12 -4 -19 -1 -8 3 -5 6 6 6 11 1 17 -2 13 -5z m91 -24 c45 -24 72 -45 72 -55 0 -5 -10 1 -22 12 -26 23 -60 42 -97 54 -17 5 -20 8 -8 8 10 1 34 -8 55 -19z m-309 -22 c-2 -2 -24 -21 -49 -43 -24 -22 -37 -31 -27 -19 9 11 17 26 17 32 0 7 6 12 14 12 7 0 19 7 26 15 7 9 15 13 18 10 3 -3 3 -6 1 -7z m472 -180 c20 -62 21 -75 10 -123 -7 -30 -17 -58 -23 -61 -8 -5 -9 -1 -2 12 5 10 9 53 9 94 0 61 -5 86 -27 133 -18 38 -32 56 -39 51 -8 -5 -9 -3 -4 6 13 21 51 -34 76 -112z m-579 60 c-7 -7 -12 -22 -12 -34 0 -13 -4 -25 -8 -28 -15 -9 -12 -117 3 -153 8 -20 15 -40 15 -46 0 -18 -29 29 -33 52 -2 11 -6 24 -10 27 -11 11 -8 52 4 60 7 4 8 9 0 17 -7 7 -6 18 3 36 7 14 16 38 20 54 3 15 12 27 18 27 9 0 9 -3 0 -12z m548 -288 c-6 -12 -14 -20 -17 -17 -2 3 1 14 8 26 17 26 24 19 9 -9z m-524 -6 c-3 -8 -1 -16 4 -19 6 -4 10 -11 10 -17 0 -16 -27 9 -33 31 -2 11 1 18 10 18 8 0 12 -6 9 -13z m504 -28 c0 -3 -5 -8 -12 -12 -7 -4 -8 -3 -4 4 7 12 16 16 16 8z m-437 -61 c15 -14 27 -29 27 -32 0 -4 -15 6 -32 23 -18 16 -35 30 -37 32 -2 1 0 2 5 2 5 0 22 -11 37 -25z m363 -11 c-21 -19 -45 -34 -54 -32 -10 2 3 15 34 35 64 41 67 40 20 -3z m-306 -4 c13 -8 13 -10 -2 -10 -9 0 -20 5 -23 10 -8 13 5 13 25 0z m7 -26 c-3 -3 -12 -4 -19 -1 -8 3 -5 6 6 6 11 1 17 -2 13 -5z m30 -11 c-4 -3 -10 -3 -14 0 -3 4 0 7 7 7 7 0 10 -3 7 -7z m180 0 c-4 -3 -10 -3 -14 0 -3 4 0 7 7 7 7 0 10 -3 7 -7z m-124 -10 c-7 -2 -19 -2 -25 0 -7 3 -2 5 12 5 14 0 19 -2 13 -5z m72 -3 c-11 -5 -27 -9 -35 -9 -9 0 -8 4 5 9 11 5 27 9 35 9 9 0 8 -4 -5 -9z"/>
 </g>
<g id="layer109" fill="#4cac97" stroke="none">
 <path d="M0 1125 l0 -1125 1125 0 1125 0 0 1125 0 1125 -1125 0 -1125 0 0 -1125z m1335 910 c93 -25 235 -100 306 -162 237 -207 332 -495 263 -802 -18 -82 -83 -220 -136 -290 -155 -205 -389 -321 -648 -321 -102 0 -146 8 -252 42 l-68 22 0 133 c0 73 2 133 4 133 3 0 36 -15 73 -34 89 -44 149 -57 254 -57 318 0 577 277 554 593 -3 48 -14 112 -25 143 -80 232 -295 387 -537 386 -241 0 -457 -158 -536 -390 -21 -65 -22 -76 -25 -653 l-3 -588 -120 0 -120 0 4 602 c4 682 0 645 87 823 110 225 300 373 552 430 81 19 289 13 373 -10z m-96 -480 c28 -7 100 -56 101 -68 0 -4 15 -23 33 -41 23 -22 41 -57 57 -106 22 -69 23 -76 9 -129 -9 -35 -19 -55 -28 -53 -9 2 -10 -4 -6 -19 5 -16 4 -19 -5 -14 -9 5 -11 4 -6 -4 8 -13 -27 -67 -64 -96 -13 -11 -32 -27 -40 -35 -16 -16 -117 -43 -162 -43 -44 0 -153 26 -135 32 13 5 11 8 -9 18 -22 10 -25 10 -20 -4 4 -8 -9 -3 -27 13 -19 16 -32 32 -31 35 2 4 -8 14 -22 23 -14 10 -24 25 -22 34 1 10 -7 29 -20 42 -12 13 -23 30 -23 37 -2 17 -4 24 -13 45 -11 24 -2 54 14 50 11 -3 11 0 -1 15 -9 10 -14 24 -11 32 4 11 6 11 13 0 7 -11 9 -9 7 6 -3 43 2 66 14 59 7 -5 8 -3 3 6 -4 7 -4 15 1 19 13 9 54 69 54 78 0 9 16 19 85 51 28 13 56 26 64 30 14 8 143 -1 190 -13z"/>
 </g>
<g id="layer110" fill="#d6f0f6" stroke="none">
 <path d="M0 1125 l0 -1125 1125 0 1125 0 0 1125 0 1125 -1125 0 -1125 0 0 -1125z m1335 910 c93 -25 235 -100 306 -162 237 -207 332 -495 263 -802 -18 -82 -83 -220 -136 -290 -155 -205 -389 -321 -648 -321 -102 0 -146 8 -252 42 l-68 22 0 133 c0 73 2 133 4 133 3 0 36 -15 73 -34 89 -44 149 -57 254 -57 318 0 577 277 554 593 -3 48 -14 112 -25 143 -80 232 -295 387 -537 386 -241 0 -457 -158 -536 -390 -21 -65 -22 -76 -25 -653 l-3 -588 -120 0 -120 0 4 602 c4 682 0 645 87 823 110 225 300 373 552 430 81 19 289 13 373 -10z m-104 -470 c76 -26 140 -83 178 -158 31 -60 35 -76 35 -146 0 -69 -4 -88 -33 -145 -59 -120 -167 -182 -304 -174 -125 6 -222 72 -276 187 -36 76 -36 193 -1 261 48 94 110 149 195 176 55 18 153 17 206 -1z"/>
 </g>
<g id="layer111" fill="#fefefe" stroke="none">
 <path d="M0 1125 l0 -1125 1125 0 1125 0 0 1125 0 1125 -1125 0 -1125 0 0 -1125z m1257 934 c18 1 35 -4 38 -9 4 -6 11 -8 16 -4 13 8 108 -25 139 -48 14 -10 37 -19 53 -20 15 -1 27 -5 27 -9 0 -4 27 -24 60 -45 33 -21 60 -44 60 -51 0 -7 4 -13 10 -13 15 0 60 -42 60 -57 0 -7 9 -18 21 -25 11 -7 29 -28 41 -46 13 -22 26 -31 36 -27 12 4 13 3 2 -10 -10 -12 -9 -19 4 -37 41 -57 63 -94 63 -108 1 -8 6 -35 12 -60 20 -74 23 -93 22 -129 -1 -18 4 -40 10 -47 7 -8 9 -32 5 -61 -4 -27 -8 -66 -10 -88 -1 -22 -4 -44 -5 -50 -2 -5 -4 -14 -6 -20 -1 -5 -3 -14 -5 -20 -1 -5 -3 -14 -4 -20 -6 -43 -33 -118 -43 -122 -6 -3 -9 -11 -6 -19 3 -7 -2 -16 -10 -20 -9 -3 -14 -11 -11 -19 3 -7 -1 -19 -8 -26 -8 -8 -25 -30 -38 -49 -13 -19 -37 -47 -53 -63 -17 -15 -27 -33 -24 -41 4 -10 1 -13 -9 -9 -12 4 -18 -6 -16 -28 1 -3 -9 -5 -21 -5 -14 1 -22 -5 -22 -16 0 -10 -6 -23 -14 -30 -10 -10 -12 -10 -7 0 5 7 1 12 -9 12 -11 0 -15 -5 -12 -15 4 -8 1 -17 -5 -21 -7 -5 -8 -2 -4 7 4 8 1 6 -7 -3 -8 -10 -17 -15 -20 -11 -4 3 -7 1 -7 -5 0 -6 -6 -9 -14 -6 -8 3 -20 -3 -27 -14 -7 -12 -19 -18 -27 -14 -11 4 -13 1 -7 -8 6 -10 4 -12 -10 -6 -10 4 -25 1 -34 -7 -20 -18 -81 -38 -91 -32 -5 3 -12 0 -15 -6 -4 -5 -13 -8 -20 -5 -8 3 -19 -2 -25 -9 -9 -11 -17 -12 -32 -4 -11 6 -24 7 -31 1 -18 -13 -240 -4 -264 11 -6 4 -18 4 -26 1 -8 -3 -18 -1 -21 5 -4 6 -13 8 -21 5 -8 -3 -32 4 -54 16 -47 27 -51 42 -51 190 l0 107 29 -1 c16 -1 27 -3 25 -5 -7 -7 28 -41 37 -35 5 3 31 -6 58 -20 27 -13 52 -22 55 -19 3 3 12 1 19 -6 8 -6 21 -9 28 -7 8 3 66 7 129 9 113 5 116 6 198 49 45 25 79 48 75 53 -5 4 -2 5 5 1 13 -8 50 30 45 46 -2 4 3 5 11 2 7 -3 20 5 28 18 9 13 32 41 52 63 22 24 35 47 32 58 -2 9 -1 15 3 12 5 -2 16 24 26 58 10 34 22 67 27 73 4 6 5 14 1 17 -3 4 -1 18 6 31 15 26 7 135 -12 186 -3 8 -13 38 -22 65 -9 28 -24 58 -33 68 -9 10 -17 24 -18 32 -2 14 -42 75 -49 75 -3 0 -2 -8 1 -17 5 -14 4 -15 -4 -4 -6 8 -8 20 -5 27 2 6 -9 20 -26 30 -17 10 -31 22 -31 27 0 4 -4 5 -10 2 -6 -4 -7 1 -3 11 5 14 2 16 -15 12 -12 -4 -20 -3 -17 2 6 9 -44 44 -52 36 -3 -2 -17 6 -30 19 -15 13 -45 26 -69 30 -24 3 -46 10 -48 14 -4 5 -191 6 -191 0 0 -1 -15 -2 -33 -3 -46 -2 -223 -87 -217 -104 3 -8 -4 -16 -15 -19 -11 -3 -17 -10 -13 -16 3 -5 2 -7 -4 -4 -14 9 -55 -32 -47 -46 4 -7 4 -9 -1 -5 -14 13 -82 -85 -105 -152 -13 -36 -27 -70 -32 -76 -5 -6 -6 -19 -2 -28 3 -9 1 -22 -5 -30 -8 -10 -11 -168 -9 -577 l3 -564 -128 0 -128 0 5 560 c2 308 7 583 10 610 4 28 6 58 7 67 0 10 4 20 10 23 5 4 9 16 9 29 0 38 41 150 62 168 15 13 19 25 14 45 -4 18 -3 23 2 14 8 -10 13 -8 25 10 9 12 13 27 10 32 -3 6 -1 7 5 3 6 -3 13 3 17 14 3 11 13 20 21 20 15 0 18 11 7 25 -5 6 -4 7 1 3 11 -8 57 33 49 45 -3 6 -1 7 5 3 7 -4 12 -2 12 3 0 6 7 11 16 11 11 0 14 5 10 17 -4 10 -4 14 0 10 4 -4 13 1 21 11 8 9 11 11 8 4 -6 -11 55 30 103 69 6 5 12 7 12 4 0 -3 19 4 41 16 23 11 51 22 63 23 11 2 34 8 49 15 16 6 32 9 37 6 5 -3 12 0 15 5 4 7 19 9 35 5 15 -3 31 -2 34 3 3 5 49 7 103 5 54 -2 112 -4 130 -4z m10 -276 c-4 -3 -10 -3 -14 0 -3 4 0 7 7 7 7 0 10 -3 7 -7z m-162 -193 c5 -8 11 -8 20 0 35 29 173 -27 244 -99 64 -64 87 -131 85 -248 -2 -91 -21 -142 -75 -199 -16 -17 -26 -34 -22 -39 5 -4 3 -5 -4 -1 -7 4 -19 -3 -28 -17 -16 -26 -97 -53 -187 -63 -51 -5 -192 31 -182 47 3 5 -6 9 -20 9 -15 0 -27 7 -31 19 -3 10 -21 29 -40 42 -19 13 -35 32 -35 42 0 9 -4 17 -8 17 -14 0 -35 138 -26 178 4 20 6 46 5 57 -3 35 33 102 82 152 61 63 84 82 90 76 3 -2 16 1 29 8 19 10 63 24 90 28 4 1 10 -4 13 -9z"/>
 <path d="M1605 1530 c3 -5 8 -10 11 -10 3 0 2 5 -1 10 -3 6 -8 10 -11 10 -3 0 -2 -4 1 -10z"/>
 </g>

</svg>