<?xml version="1.0" encoding="utf-8"?>
<!-- Generator: Adobe Illustrator 19.0.0, SVG Export Plug-In . SVG Version: 6.00 Build 0)  -->
<svg version="1.1" id="Layer_1" xmlns="http://www.w3.org/2000/svg" xmlns:xlink="http://www.w3.org/1999/xlink" x="0px" y="0px"
	 viewBox="918.5 168.7 416.3 410.1" style="enable-background:new 918.5 168.7 416.3 410.1;" xml:space="preserve">
<style type="text/css">
	.st0{fill:#709B30;}
	.st1{fill:#97C554;}
</style>
<g id="layer101">
	<path class="st0" d="M1049.5,578.3c-28.9-3.7-59.8-15.1-84-31c-12.8-8.4-32.8-25.4-31.4-26.7c0.2-0.2,6.7-1.6,14.4-3.1
		c57.9-11.4,113-37.1,167.3-78c41.7-31.3,85.5-75.7,123.3-125c29.8-38.8,62.7-91,82.9-131.5c3.9-7.9,3.9-7.9-9.6,9
		c-24.3,30.4-47.8,56.2-80,88c-24.2,23.8-34.9,33.6-56.4,51.4c-71.3,59.2-143.1,98.4-211.4,115.6c-17.5,4.4-44.1,8.9-45.3,7.6
		c-1.6-1.6-0.7-43.5,1.1-55.6c7.4-48.3,27.2-87.9,60.5-121.1c48.6-48.4,139.7-90,229.6-104.8c29.2-4.9,39.4-5.6,77.5-5.6
		c20.1,0,37.7,0.3,39.1,0.7c2.4,0.7,2.8,1.4,3.8,8.5c5,35.1,5.2,81.6,0.5,123.3c-10.3,91-42,165.3-90.2,211.2
		c-10.5,9.9-17.9,15.6-32.9,25.1c-12.3,7.7-40.4,21.8-53.8,27c-17.5,6.8-39.8,12.5-57.5,14.7
		C1089.1,578.9,1056.3,579.2,1049.5,578.3z"/>
</g>
<g id="layer102">
	<path class="st1" d="M1049.5,578.3c-28.9-3.7-59.8-15.1-84-31c-12.8-8.4-32.8-25.4-31.4-26.7c0.2-0.2,6.7-1.6,14.4-3.1
		c66.8-13.1,132.2-46.5,193-98.5c15.1-13,45.1-42.5,60.4-59.5c41.9-46.8,80.8-102.7,112.6-162.2c5.3-10,9.4-18.7,9-19.3
		c-0.3-0.5,0.1-1.3,0.9-1.6c0.9-0.3,1.6-1.1,1.6-1.8c0-0.6,0.9-2.2,1.9-3.5l1.8-2.4l1.2,7.9c5,35.2,5.2,81.6,0.5,123.4
		c-10.3,91-42,165.3-90.2,211.2c-10.5,9.9-17.9,15.6-32.9,25.1c-12.3,7.7-40.4,21.8-53.8,27c-17.5,6.8-39.8,12.5-57.5,14.7
		C1089.1,578.9,1056.3,579.2,1049.5,578.3z"/>
	<path class="st1" d="M1216,295.5c1.9-1.9,3.6-3.5,3.9-3.5s-1,1.6-2.9,3.5c-1.9,1.9-3.6,3.5-3.9,3.5
		C1212.8,299,1214.1,297.4,1216,295.5z"/>
	<path class="st1" d="M985,273.7c0-0.2,1.5-1.6,3.3-3.3l3.2-2.9l-2.9,3.3C985.8,273.8,985,274.5,985,273.7z"/>
	<path class="st1" d="M1260,251.8c4.1-4.5,5-5.3,5-4.5c0,0.2-2.1,2.3-4.7,4.7l-4.8,4.5L1260,251.8z"/>
</g>
</svg>
