<!DOCTYPE svg PUBLIC "-//W3C//DTD SVG 20010904//EN" "http://www.w3.org/TR/2001/REC-SVG-20010904/DTD/svg10.dtd">
<svg version="1.0" xmlns="http://www.w3.org/2000/svg" width="1091px" height="695px" viewBox="0 0 10910 6950" preserveAspectRatio="xMidYMid meet">
<g id="layer101" fill="#2660ad" stroke="none">
 <path d="M0 3475 l0 -3475 5455 0 5455 0 0 3475 0 3475 -5455 0 -5455 0 0 -3475z"/>
 </g>
<g id="layer102" fill="#ffffff" stroke="none">
 <path d="M0 3475 l0 -3475 5455 0 5455 0 0 3475 0 3475 -5455 0 -5455 0 0 -3475z m5788 3010 c681 -99 1280 -476 1661 -1045 186 -278 307 -581 373 -935 22 -116 23 -147 28 -910 l5 -790 240 -6 c326 -9 521 -41 769 -125 129 -45 357 -156 466 -229 559 -374 897 -979 927 -1658 l6 -137 -576 0 c-455 0 -577 3 -577 13 0 6 -5 51 -10 98 -52 451 -385 809 -833 894 -51 10 -139 15 -248 15 l-169 0 0 -510 0 -510 -570 0 -570 0 0 510 0 510 -1255 0 -1255 0 0 -510 0 -510 -570 0 -570 0 0 510 0 510 -147 0 c-221 0 -383 -41 -545 -136 -288 -168 -484 -476 -505 -791 l-6 -93 -574 0 -573 0 0 89 c0 50 7 143 15 208 92 706 509 1299 1135 1613 324 162 666 240 1056 240 l143 0 4 793 c4 878 2 849 76 1133 143 545 495 1044 965 1362 358 244 734 375 1196 416 87 8 382 -4 488 -19z"/>
 <path d="M5229 5344 c-477 -86 -861 -439 -984 -906 -42 -159 -45 -229 -45 -950 l0 -688 1255 0 1255 0 0 703 c0 746 -3 797 -50 967 -27 98 -114 276 -178 366 -192 270 -482 453 -806 509 -109 19 -342 18 -447 -1z"/>
 </g>

</svg>