<!DOCTYPE svg PUBLIC "-//W3C//DTD SVG 20010904//EN" "http://www.w3.org/TR/2001/REC-SVG-20010904/DTD/svg10.dtd">
<svg version="1.0" xmlns="http://www.w3.org/2000/svg" width="238px" height="311px" viewBox="0 0 2380 3110" preserveAspectRatio="xMidYMid meet">
<g id="layer101" fill="#a52820" stroke="none">
 <path d="M0 1555 l0 -1555 1190 0 1190 0 0 1555 0 1555 -1190 0 -1190 0 0 -1555z"/>
 </g>
<g id="layer102" fill="#b4302a" stroke="none">
 <path d="M0 1555 l0 -1555 1190 0 1190 0 0 1555 0 1555 -1190 0 -1190 0 0 -1555z m377 8 c-4 -3 -10 -3 -14 0 -3 4 0 7 7 7 7 0 10 -3 7 -7z m-47 -17 c0 -3 -5 -8 -12 -12 -7 -4 -8 -3 -4 4 7 12 16 16 16 8z m-87 -81 c-3 -9 -8 -14 -10 -11 -3 3 -2 9 2 15 9 16 15 13 8 -4z m4 -222 c-4 -3 -7 0 -7 7 0 7 3 10 7 7 3 -4 3 -10 0 -14z m10 -40 c-4 -3 -7 0 -7 7 0 7 3 10 7 7 3 -4 3 -10 0 -14z m20 -80 c-4 -3 -7 0 -7 7 0 7 3 10 7 7 3 -4 3 -10 0 -14z m10 -30 c-4 -3 -7 0 -7 7 0 7 3 10 7 7 3 -4 3 -10 0 -14z m10 -50 c-4 -3 -7 0 -7 7 0 7 3 10 7 7 3 -4 3 -10 0 -14z m10 -30 c-4 -3 -7 0 -7 7 0 7 3 10 7 7 3 -4 3 -10 0 -14z m10 -40 c-4 -3 -7 0 -7 7 0 7 3 10 7 7 3 -4 3 -10 0 -14z m10 -40 c-4 -3 -7 0 -7 7 0 7 3 10 7 7 3 -4 3 -10 0 -14z m1490 -20 c-4 -3 -10 -3 -14 0 -3 4 0 7 7 7 7 0 10 -3 7 -7z m-40 -10 c-4 -3 -10 -3 -14 0 -3 4 0 7 7 7 7 0 10 -3 7 -7z m-429 -10 c-10 -2 -28 -2 -40 0 -13 2 -5 4 17 4 22 1 32 -1 23 -4z"/>
 </g>
<g id="layer103" fill="#d13319" stroke="none">
 <path d="M0 1555 l0 -1555 1190 0 1190 0 0 1555 0 1555 -1190 0 -1190 0 0 -1555z m395 5 c-3 -5 -17 -10 -31 -10 -14 0 -22 4 -19 10 3 6 17 10 31 10 14 0 22 -4 19 -10z m-65 -14 c0 -2 -18 -16 -40 -31 -22 -15 -37 -31 -34 -36 3 -5 1 -9 -5 -9 -5 0 -14 -12 -19 -27 -6 -16 -11 -22 -11 -15 -2 31 69 122 96 122 7 0 13 -2 13 -4z m-100 -206 c0 -11 -2 -20 -4 -20 -2 0 -6 9 -9 20 -3 11 -1 20 4 20 5 0 9 -9 9 -20z m55 -219 c25 -101 44 -185 42 -187 -4 -5 -97 345 -97 365 0 32 11 -3 55 -178z m1725 -85 c0 -3 -5 -8 -12 -12 -7 -4 -8 -3 -4 4 7 12 16 16 16 8z m-60 -50 c0 -2 -8 -10 -17 -17 -16 -13 -17 -12 -4 4 13 16 21 21 21 13z m-60 -41 c-7 -8 -18 -15 -24 -15 -6 0 -2 7 8 15 25 19 32 19 16 0z m-40 -20 c0 -2 -17 -9 -37 -14 -47 -13 -527 -25 -520 -14 3 5 114 10 246 12 133 1 254 6 269 11 33 10 42 11 42 5z m-1486 -37 c-10 -16 -34 -7 -34 12 0 17 3 19 19 8 11 -7 17 -16 15 -20z m141 2 c4 -6 -16 -10 -54 -10 -33 0 -63 5 -66 10 -4 6 16 10 54 10 33 0 63 -4 66 -10z m80 0 c3 -5 -3 -10 -14 -10 -11 0 -23 5 -26 10 -3 6 3 10 14 10 11 0 23 -4 26 -10z"/>
 </g>
<g id="layer104" fill="#d63327" stroke="none">
 <path d="M0 1555 l0 -1555 1190 0 1190 0 0 1555 0 1555 -1190 0 -1190 0 0 -1555z m414 -32 c8 -27 29 -101 46 -165 17 -65 35 -130 40 -144 6 -14 17 -58 26 -97 9 -40 20 -79 25 -88 13 -25 19 -90 8 -83 -5 3 -6 10 -3 16 5 7 2 9 -8 5 -11 -4 -14 -1 -11 11 2 9 -4 44 -13 77 -9 33 -19 76 -21 95 -3 19 -10 40 -17 45 -7 6 -12 26 -12 46 0 19 -10 57 -22 83 -13 26 -20 51 -17 56 3 5 1 19 -4 32 -6 13 -17 49 -26 81 -14 50 -19 57 -41 57 -14 0 -22 4 -19 10 3 6 17 10 30 10 19 0 26 -9 39 -47z m-100 9 c-13 -11 -20 -27 -19 -44 1 -21 -1 -25 -10 -18 -18 15 -43 2 -54 -28 -5 -15 -10 -21 -10 -14 -2 33 70 122 98 122 12 0 11 -4 -5 -18z m857 -176 c5 -21 8 -43 6 -49 -3 -11 -53 147 -62 198 -6 35 41 -92 56 -149z m-4 147 c-4 -3 -7 0 -7 7 0 7 3 10 7 7 3 -4 3 -10 0 -14z m-850 -20 c-4 -3 -7 0 -7 7 0 7 3 10 7 7 3 -4 3 -10 0 -14z m80 -10 c-4 -3 -7 0 -7 7 0 7 3 10 7 7 3 -4 3 -10 0 -14z m760 -15 c-3 -8 -6 -5 -6 6 -1 11 2 17 5 13 3 -3 4 -12 1 -19z m-910 -65 c-4 -3 -10 -3 -14 0 -3 4 0 7 7 7 7 0 10 -3 7 -7z m60 -30 c-4 -3 -10 -3 -14 0 -3 4 0 7 7 7 7 0 10 -3 7 -7z m-77 -23 c0 -11 -2 -20 -4 -20 -2 0 -6 9 -9 20 -3 11 -1 20 4 20 5 0 9 -9 9 -20z m26 -105 c10 -41 21 -75 26 -75 4 0 8 5 8 12 0 6 2 9 5 6 3 -3 1 -16 -3 -29 -12 -30 38 -227 62 -244 17 -13 12 -25 -11 -25 -7 0 -13 6 -13 14 0 8 -22 99 -50 201 -27 102 -50 193 -50 201 0 32 9 10 26 -61z m950 5 c4 -22 10 -37 15 -34 5 3 6 -1 3 -9 -2 -7 7 -49 20 -93 24 -74 33 -124 20 -112 -7 7 -83 268 -84 286 0 29 20 -2 26 -38z m-706 -166 c0 -8 -4 -12 -10 -9 -5 3 -10 10 -10 16 0 5 5 9 10 9 6 0 10 -7 10 -16z m1510 -38 c0 -3 -5 -8 -12 -12 -7 -4 -8 -3 -4 4 7 12 16 16 16 8z m-163 -63 c-4 -3 -7 0 -7 7 0 7 3 10 7 7 3 -4 3 -10 0 -14z m93 2 c-7 -9 -15 -13 -19 -10 -3 3 1 10 9 15 21 14 24 12 10 -5z m-633 -57 c-17 -11 -19 -10 241 -8 229 2 307 9 270 25 -25 10 -22 23 4 21 12 -1 22 -8 24 -18 4 -29 -54 -37 -312 -43 l-242 -6 -11 32 c-18 51 -13 63 13 32 17 -19 21 -30 13 -35z m581 25 c-14 -17 -25 -16 -25 1 0 8 8 14 18 13 14 -1 15 -4 7 -14z m-1298 -50 c0 -15 -36 -17 -45 -3 -3 6 1 10 9 10 9 0 16 8 16 18 0 14 2 15 10 2 5 -8 10 -21 10 -27z m-75 -3 c-3 -5 -33 -10 -65 -10 -32 0 -62 5 -65 10 -4 6 20 10 65 10 45 0 69 -4 65 -10z"/>
 <path d="M266 1497 c-16 -12 -16 -13 2 -13 10 0 19 6 19 13 0 7 -1 13 -2 13 -1 0 -9 -6 -19 -13z"/>
 </g>
<g id="layer105" fill="#ba4c2a" stroke="none">
 <path d="M0 1555 l0 -1555 1190 0 1190 0 0 1555 0 1555 -1190 0 -1190 0 0 -1555z m414 -32 c8 -27 25 -84 36 -128 12 -44 28 -102 36 -130 8 -27 25 -90 38 -140 13 -49 34 -123 45 -162 12 -40 21 -75 21 -78 0 -3 -57 -5 -128 -5 l-127 0 -52 203 c-68 264 -77 307 -64 307 4 0 6 18 6 40 0 33 7 47 40 80 29 30 46 40 62 37 12 -2 22 -1 21 2 -2 16 4 21 26 21 20 0 27 -8 40 -47z m717 -23 c5 0 9 -8 10 -17 0 -12 5 -8 14 12 l14 30 1 -32 c0 -18 4 -32 9 -30 11 3 254 -152 264 -170 4 -7 17 -13 29 -13 11 0 38 -18 60 -40 23 -22 50 -40 62 -40 12 0 41 -18 64 -40 22 -22 46 -40 53 -40 15 0 93 -48 132 -82 17 -16 37 -28 43 -28 6 0 17 -7 24 -15 18 -21 35 -19 19 3 -13 15 -12 16 4 3 13 -10 15 -17 6 -27 -6 -8 -15 -12 -19 -9 -4 2 -15 -4 -25 -15 -35 -38 -106 -49 -362 -55 l-242 -6 -12 43 c-6 24 -17 61 -25 83 -7 22 -27 92 -45 155 -17 63 -44 156 -59 205 -22 71 -50 188 -33 138 3 -7 9 -13 14 -13z m879 -464 c0 -3 -5 -8 -12 -12 -7 -4 -8 -3 -4 4 7 12 16 16 16 8z"/>
 </g>
<g id="layer106" fill="#dd4626" stroke="none">
 <path d="M0 1555 l0 -1555 1190 0 1190 0 0 1555 0 1555 -1190 0 -1190 0 0 -1555z m1273 18 c-35 -2 -91 -2 -125 0 -35 2 -7 3 62 3 69 0 97 -1 63 -3z m-859 -50 c8 -27 25 -84 36 -128 12 -44 28 -102 36 -130 8 -27 25 -90 38 -140 13 -49 34 -123 45 -162 12 -40 21 -75 21 -78 0 -3 -57 -5 -127 -5 l-128 0 -58 224 c-56 215 -78 324 -60 299 5 -7 8 3 8 27 0 31 8 47 35 76 37 39 81 63 117 64 17 0 25 -10 37 -47z m717 -23 c5 0 9 -8 10 -17 0 -12 5 -8 14 12 l14 30 1 -32 c0 -18 4 -32 9 -30 11 3 254 -152 264 -170 4 -7 17 -13 29 -13 11 0 38 -18 60 -40 23 -22 50 -40 62 -40 12 0 41 -18 64 -40 22 -22 46 -40 53 -40 15 0 93 -48 132 -82 17 -16 37 -28 43 -28 6 0 17 -7 24 -15 18 -21 35 -19 19 3 -12 15 -12 16 2 4 14 -10 21 -8 47 15 18 16 43 43 57 62 14 19 25 31 25 27 0 -20 -77 -105 -127 -138 -87 -59 -123 -66 -401 -74 -210 -6 -249 -5 -249 7 -1 23 -43 171 -133 474 -24 82 -49 184 -33 138 3 -7 9 -13 14 -13z m956 -357 c-4 -3 -7 0 -7 7 0 7 3 10 7 7 3 -4 3 -10 0 -14z"/>
 </g>
<g id="layer107" fill="#e65422" stroke="none">
 <path d="M0 1555 l0 -1555 1190 0 1190 0 0 1555 0 1555 -1190 0 -1190 0 0 -1555z m1272 15 c-72 -8 -93 -20 -36 -20 29 0 35 -3 24 -10 -13 -8 -12 -10 3 -10 9 0 17 -7 17 -15 0 -8 9 -15 20 -15 11 0 23 -7 26 -15 3 -8 21 -17 40 -21 19 -3 34 -10 34 -15 0 -5 7 -9 15 -9 7 0 18 -6 22 -12 4 -7 24 -22 43 -32 42 -23 82 -52 118 -86 15 -13 33 -25 40 -26 8 -2 21 -9 30 -17 10 -8 39 -24 65 -37 34 -16 45 -25 36 -31 -10 -6 -9 -9 6 -14 18 -6 83 -36 127 -60 10 -5 18 -15 18 -22 0 -7 6 -13 14 -13 7 0 26 -10 42 -22 16 -13 31 -21 34 -19 12 8 35 47 32 54 -1 4 3 7 8 7 15 0 12 -8 -16 -46 -14 -18 -30 -31 -35 -28 -5 3 -6 -1 -3 -9 7 -19 -102 -92 -167 -111 -57 -17 -552 -35 -547 -20 2 5 -3 27 -9 49 -17 55 -94 323 -103 360 -4 17 -20 71 -35 120 -15 50 -28 100 -30 112 -2 12 -6 27 -10 32 -4 8 33 11 117 10 105 -2 114 -3 60 -9z m-858 -47 c27 -88 75 -259 116 -418 10 -38 27 -103 39 -142 12 -40 21 -75 21 -78 0 -3 -57 -5 -127 -5 l-128 0 -58 223 c-70 269 -73 285 -57 333 22 68 98 133 157 134 17 0 25 -10 37 -47z m903 1 c-3 -3 -12 -4 -19 -1 -8 3 -5 6 6 6 11 1 17 -2 13 -5z m764 -387 c-10 -9 -11 -8 -5 6 3 10 9 15 12 12 3 -3 0 -11 -7 -18z"/>
 </g>
<g id="layer108" fill="#da691e" stroke="none">
 <path d="M0 1555 l0 -1555 1190 0 1190 0 0 1555 0 1555 -1190 0 -1190 0 0 -1555z m1463 65 c7 0 17 -8 24 -19 6 -10 32 -28 57 -41 25 -12 48 -26 52 -31 3 -5 15 -9 26 -9 27 0 58 -28 58 -52 0 -10 8 -21 18 -24 9 -3 28 -12 42 -20 14 -8 42 -22 63 -30 20 -9 37 -20 37 -25 0 -5 7 -9 15 -9 9 0 18 -7 22 -15 5 -16 59 -49 78 -50 6 0 32 -11 58 -24 42 -20 48 -27 43 -47 -7 -26 12 -43 25 -23 7 11 9 11 9 1 0 -7 4 -10 10 -7 6 3 7 -1 3 -10 -4 -12 -8 -13 -13 -5 -5 8 -9 7 -13 -4 -3 -8 -1 -17 6 -19 8 -3 7 -10 -5 -24 -10 -11 -18 -23 -18 -27 0 -20 -78 -105 -126 -138 -87 -59 -125 -66 -401 -74 l-248 -7 -34 119 c-18 66 -42 148 -53 184 -42 142 -50 169 -78 271 -17 58 -30 110 -30 114 0 4 68 5 150 3 120 -2 149 0 145 10 -3 7 0 10 6 7 10 -7 48 30 50 49 1 6 3 3 6 -6 2 -10 10 -18 16 -18z m-1039 -112 c65 -240 149 -537 157 -556 5 -13 9 -34 9 -47 l0 -25 -127 0 -128 0 -58 223 c-32 122 -60 238 -63 258 -16 95 75 207 167 209 23 0 27 -6 43 -62z"/>
 <path d="M1430 1601 c-6 -12 -7 -21 -1 -21 10 0 24 30 17 37 -2 3 -9 -5 -16 -16z"/>
 <path d="M2034 1108 c-4 -7 -3 -8 4 -4 7 4 12 9 12 12 0 8 -9 4 -16 -8z"/>
 </g>
<g id="layer109" fill="#d57131" stroke="none">
 <path d="M0 1555 l0 -1555 1190 0 1190 0 0 1555 0 1555 -1190 0 -1190 0 0 -1555z m1097 1259 c-3 -3 -12 -4 -19 -1 -8 3 -5 6 6 6 11 1 17 -2 13 -5z m-470 -31 c-4 -3 -10 -3 -14 0 -3 4 0 7 7 7 7 0 10 -3 7 -7z m720 -30 c-4 -3 -10 -3 -14 0 -3 4 0 7 7 7 7 0 10 -3 7 -7z m40 -10 c-4 -3 -10 -3 -14 0 -3 4 0 7 7 7 7 0 10 -3 7 -7z m80 -50 c-4 -3 -10 -3 -14 0 -3 4 0 7 7 7 7 0 10 -3 7 -7z m-1017 -6 c0 -2 -12 -14 -27 -28 l-28 -24 24 28 c23 25 31 32 31 24z m1175 -77 c3 -5 4 -10 1 -10 -3 0 -8 5 -11 10 -3 6 -4 10 -1 10 3 0 8 -4 11 -10z m-1262 -35 c-3 -9 -8 -14 -10 -11 -3 3 -2 9 2 15 9 16 15 13 8 -4z m1342 -35 c10 -11 16 -20 13 -20 -3 0 -13 9 -23 20 -10 11 -16 20 -13 20 3 0 13 -9 23 -20z m-1355 6 c0 -3 -5 -8 -12 -12 -7 -4 -8 -3 -4 4 7 12 16 16 16 8z m-83 -338 c-3 -7 -5 -2 -5 12 0 14 2 19 5 13 2 -7 2 -19 0 -25z m1691 7 c-3 -3 -9 2 -12 12 -6 14 -5 15 5 6 7 -7 10 -15 7 -18z m17 -25 c3 -5 4 -10 1 -10 -3 0 -8 5 -11 10 -3 6 -4 10 -1 10 3 0 8 -4 11 -10z m-780 -40 c3 -5 4 -10 1 -10 -3 0 -8 5 -11 10 -3 6 -4 10 -1 10 3 0 8 -4 11 -10z m42 -17 c-4 -3 -10 -3 -14 0 -3 4 0 7 7 7 7 0 10 -3 7 -7z m113 -83 c6 -11 9 -20 8 -20 -2 0 -11 9 -21 20 -9 11 -13 20 -7 20 5 0 14 -9 20 -20z m697 -27 c-4 -3 -7 0 -7 7 0 7 3 10 7 7 3 -4 3 -10 0 -14z m-659 -48 c-3 -3 -9 2 -12 12 -6 14 -5 15 5 6 7 -7 10 -15 7 -18z m-365 -175 c3 -11 1 -18 -4 -14 -5 3 -9 12 -9 20 0 20 7 17 13 -6z m-663 -11 c0 -11 -4 -18 -10 -14 -5 3 -7 12 -3 20 7 21 13 19 13 -6z m1767 4 c-4 -3 -7 0 -7 7 0 7 3 10 7 7 3 -4 3 -10 0 -14z m-1082 -42 c3 -5 1 -12 -5 -16 -5 -3 -10 1 -10 9 0 18 6 21 15 7z m1092 -23 c-3 -8 -6 -5 -6 6 -1 11 2 17 5 13 3 -3 4 -12 1 -19z m-695 -87 c7 11 8 9 5 -6 -2 -11 -8 -19 -13 -18 -5 1 -10 -7 -10 -18 0 -25 13 -24 21 1 8 25 27 26 42 1 6 -10 32 -28 57 -41 25 -12 48 -26 52 -31 3 -5 15 -9 26 -9 27 0 58 -28 58 -52 0 -10 8 -21 18 -24 9 -3 28 -12 42 -20 14 -8 42 -22 63 -30 20 -9 37 -20 37 -25 0 -5 7 -9 15 -9 9 0 18 -7 22 -15 5 -16 59 -49 78 -50 6 0 32 -11 58 -24 42 -20 48 -27 43 -47 -7 -26 12 -43 25 -23 7 11 9 11 9 1 0 -7 5 -10 10 -7 12 8 -9 -44 -27 -66 -7 -8 -13 -19 -13 -23 0 -20 -78 -105 -126 -138 -87 -59 -125 -66 -401 -74 l-248 -7 -34 119 c-34 123 -62 216 -85 294 -8 25 -26 90 -41 145 -15 55 -32 108 -37 118 -9 18 -2 18 145 15 130 -2 154 -1 149 11 -4 10 -1 13 11 8 9 -3 16 -3 16 1 -2 17 15 56 19 43 4 -11 6 -11 14 0z m-1018 -133 c65 -240 149 -537 157 -556 5 -13 9 -34 9 -47 l0 -25 -127 0 -128 0 -58 223 c-32 122 -60 238 -63 258 -16 95 75 207 167 209 23 0 27 -6 43 -62z m1683 -290 c-3 -8 -6 -5 -6 6 -1 11 2 17 5 13 3 -3 4 -12 1 -19z m-810 -410 c-3 -8 -6 -5 -6 6 -1 11 2 17 5 13 3 -3 4 -12 1 -19z m0 -45 c-4 -3 -7 0 -7 7 0 7 3 10 7 7 3 -4 3 -10 0 -14z m-650 -20 c-4 -3 -7 0 -7 7 0 7 3 10 7 7 3 -4 3 -10 0 -14z m700 -90 c-4 -3 -7 0 -7 7 0 7 3 10 7 7 3 -4 3 -10 0 -14z m-660 -60 c-4 -3 -7 0 -7 7 0 7 3 10 7 7 3 -4 3 -10 0 -14z m50 -160 c-4 -3 -7 0 -7 7 0 7 3 10 7 7 3 -4 3 -10 0 -14z m558 -123 c-3 -5 -12 -10 -18 -10 -7 0 -6 4 3 10 19 12 23 12 15 0z m-38 -17 c-4 -3 -10 -3 -14 0 -3 4 0 7 7 7 7 0 10 -3 7 -7z"/>
 <path d="M2076 1173 c-6 -14 -5 -15 5 -6 7 7 10 15 7 18 -3 3 -9 -2 -12 -12z"/>
 <path d="M2034 1108 c-4 -7 -3 -8 4 -4 7 4 12 9 12 12 0 8 -9 4 -16 -8z"/>
 </g>
<g id="layer110" fill="#f37222" stroke="none">
 <path d="M0 1555 l0 -1555 1190 0 1190 0 0 1555 0 1555 -1190 0 -1190 0 0 -1555z m865 1275 c4 -6 -9 -10 -32 -9 -34 1 -35 2 -13 9 35 11 38 11 45 0z m98 3 c-7 -2 -19 -2 -25 0 -7 3 -2 5 12 5 14 0 19 -2 13 -5z m82 -3 c18 -8 17 -9 -7 -9 -15 -1 -30 4 -33 9 -7 12 12 12 40 0z m150 -22 c61 -16 62 -16 38 -17 -12 -1 -34 4 -49 9 -15 6 -48 11 -73 12 -33 1 -40 3 -26 8 21 8 44 6 110 -12z m-450 5 c-16 -3 -35 -9 -42 -14 -6 -6 -14 -6 -17 -1 -9 16 6 22 48 21 34 -2 36 -3 11 -6z m-129 -34 c-27 -11 -51 -18 -53 -15 -8 8 51 35 77 35 19 0 13 -5 -24 -20z m659 11 c3 -5 1 -10 -4 -10 -6 0 -11 5 -11 10 0 6 2 10 4 10 3 0 8 -4 11 -10z m50 -21 c4 -6 13 -8 20 -6 6 3 25 -3 41 -14 36 -24 32 -24 -35 1 -59 21 -73 30 -48 30 9 0 19 -5 22 -11z m-792 -27 c-10 -11 -22 -17 -26 -14 -16 8 -124 -114 -166 -188 -23 -41 -39 -64 -35 -50 13 47 22 66 38 79 9 7 16 19 16 26 0 18 99 120 140 143 44 26 55 27 33 4z m957 -42 c70 -45 90 -64 39 -35 -25 14 -54 25 -65 26 -13 0 -15 2 -5 6 10 4 5 10 -15 19 -16 7 -22 13 -14 13 8 0 35 -13 60 -29z m150 -100 c17 -15 19 -18 5 -11 -11 6 -31 20 -45 31 -17 15 -19 18 -5 11 11 -6 31 -20 45 -31z m95 -80 c14 0 69 -59 62 -67 -3 -3 -16 5 -29 18 -13 13 -42 41 -65 61 -23 20 -39 39 -36 42 3 3 17 -8 31 -24 15 -17 31 -30 37 -30z m-1444 -101 c-5 -13 -10 -19 -10 -12 -1 15 10 45 15 40 3 -2 0 -15 -5 -28z m1583 -53 c24 -33 46 -68 50 -76 10 -22 30 -56 42 -71 6 -8 14 -22 17 -32 12 -32 -12 -8 -34 34 -24 49 -103 165 -132 197 -18 19 -18 22 -4 16 10 -3 37 -34 61 -68z m-1598 -64 c-11 -10 -14 3 -8 33 l7 30 3 -28 c2 -16 1 -31 -2 -35z m-9 -119 c-2 -21 -4 -4 -4 37 0 41 2 58 4 38 2 -21 2 -55 0 -75z m814 -43 c-25 -21 -46 -27 -36 -9 6 9 41 27 55 28 3 0 -6 -9 -19 -19z m56 13 c-4 -3 -10 -3 -14 0 -3 4 0 7 7 7 7 0 10 -3 7 -7z m84 -13 c10 0 20 -4 23 -9 3 -5 -12 -4 -34 1 -22 6 -37 15 -34 20 4 6 10 6 17 -1 6 -6 19 -11 28 -11z m814 -53 c41 -89 59 -158 21 -82 -14 28 -25 56 -26 63 0 6 -5 12 -11 12 -5 0 -8 4 -4 10 6 10 -13 50 -30 62 -6 5 -5 8 3 8 7 0 28 -33 47 -73z m-1748 -28 c3 -30 3 -51 -1 -48 -3 3 -9 28 -12 55 -3 26 -8 53 -11 59 -4 6 -1 6 6 -1 6 -6 14 -35 18 -65z m736 41 c-3 -10 -11 -25 -19 -31 -17 -14 -18 -8 -2 26 13 30 28 34 21 5z m252 10 c3 -5 4 -10 1 -10 -3 0 -8 5 -11 10 -3 6 -4 10 -1 10 3 0 8 -4 11 -10z m51 -38 c18 -15 64 -85 64 -98 0 -3 -7 1 -15 10 -8 8 -15 18 -15 23 0 4 -16 25 -35 46 -35 39 -35 49 1 19z m-322 -191 c5 -18 4 -21 -3 -11 -12 20 -28 130 -22 155 3 11 8 -11 12 -49 4 -38 10 -81 13 -95z m-695 76 c1 -5 -3 -5 -9 -2 -5 3 -10 16 -9 28 0 21 1 21 9 2 5 -11 9 -24 9 -28z m1778 -24 c-4 -3 -7 0 -7 7 0 7 3 10 7 7 3 -4 3 -10 0 -14z m-657 -71 c21 -76 27 -187 10 -197 -5 -3 -10 -14 -10 -23 0 -15 2 -15 11 -2 8 12 9 11 6 -5 -2 -11 -8 -19 -13 -18 -5 1 -10 -7 -10 -18 0 -25 13 -24 21 1 8 25 27 26 42 1 6 -10 32 -28 57 -41 25 -12 48 -26 52 -31 3 -5 15 -9 26 -9 27 0 58 -28 58 -52 0 -10 8 -21 18 -24 9 -3 28 -12 42 -20 14 -8 42 -22 63 -30 20 -9 37 -20 37 -25 0 -5 7 -9 15 -9 9 0 18 -7 22 -15 5 -16 59 -49 78 -50 6 0 32 -11 58 -24 42 -20 48 -27 43 -47 -6 -24 15 -47 22 -25 4 11 6 11 13 0 7 -11 9 -9 9 7 0 11 7 34 15 51 8 16 16 46 17 66 2 22 7 32 12 27 6 -6 -4 -50 -24 -112 -39 -123 -101 -213 -186 -270 -87 -59 -125 -66 -401 -74 l-248 -7 -34 119 c-34 123 -62 216 -85 294 -8 25 -26 90 -41 145 -15 55 -33 110 -41 122 -8 12 -14 29 -14 37 0 9 -7 36 -16 62 -8 25 -13 48 -11 50 2 3 14 -27 27 -66 l23 -70 121 0 c66 0 131 3 143 6 13 4 36 28 53 55 34 56 40 121 16 199 -20 68 -28 106 -22 99 4 -3 15 -38 26 -77z m-1110 58 c0 -5 -2 -10 -4 -10 -3 0 -8 5 -11 10 -3 6 -1 10 4 10 6 0 11 -4 11 -10z m1777 -17 c-4 -3 -7 0 -7 7 0 7 3 10 7 7 3 -4 3 -10 0 -14z m-1763 -36 c4 -19 3 -26 -4 -22 -5 3 -10 18 -10 32 0 32 5 28 14 -10z m1785 -15 c0 -24 -1 -25 -9 -7 -12 28 -12 47 0 40 6 -3 10 -18 9 -33z m-1089 -57 c17 -40 19 -54 10 -60 -6 -4 -10 5 -10 19 0 14 -4 28 -10 31 -5 3 -10 18 -9 33 0 15 3 20 6 12 2 -8 8 -24 13 -35z m-670 -15 c0 -20 -2 -22 -10 -10 -5 8 -10 26 -10 40 0 20 2 22 10 10 5 -8 10 -26 10 -40z m1787 -27 c6 -29 6 -53 2 -53 -10 0 -11 3 -14 40 -2 14 -6 39 -10 55 -5 20 -4 27 2 20 6 -5 15 -34 20 -62z m-1780 -20 c-4 -3 -7 0 -7 7 0 7 3 10 7 7 3 -4 3 -10 0 -14z m10 -30 c-4 -3 -7 0 -7 7 0 7 3 10 7 7 3 -4 3 -10 0 -14z m27 -83 c-8 -7 -24 24 -23 45 0 15 4 13 14 -10 7 -16 11 -32 9 -35z m1757 -78 c-7 -21 -9 -9 -9 58 l0 85 10 -58 c6 -38 6 -68 -1 -85z m-1748 39 c-2 -10 9 -70 27 -132 85 -310 132 -476 141 -497 5 -13 9 -32 9 -42 0 -11 4 -20 9 -20 9 0 28 -48 36 -92 3 -13 11 -46 20 -73 17 -58 18 -68 6 -61 -9 6 -47 145 -43 158 1 4 -3 19 -8 33 l-10 25 -132 0 -133 0 -58 223 c-72 281 -72 278 -57 332 16 56 82 121 135 131 20 3 39 13 42 20 8 21 22 17 16 -5z m1749 -157 l-10 -49 -1 60 c-1 41 2 56 9 49 8 -8 8 -27 2 -60z m-875 -566 c-3 -8 -6 -5 -6 6 -1 11 2 17 5 13 3 -3 4 -12 1 -19z m32 -92 c-1 -20 -2 -20 -6 -1 -3 11 -9 24 -14 30 -5 5 -9 18 -9 30 0 17 3 15 15 -9 8 -15 14 -38 14 -50z m-22 -3 c-4 -3 -7 0 -7 7 0 7 3 10 7 7 3 -4 3 -10 0 -14z m57 -95 c9 -31 16 -62 15 -70 -1 -14 -31 69 -43 117 -13 53 11 14 28 -47z m-660 -91 c4 -19 3 -26 -4 -22 -5 3 -10 18 -10 32 0 32 5 28 14 -10z m683 -14 c-4 -3 -7 0 -7 7 0 7 3 10 7 7 3 -4 3 -10 0 -14z m10 -35 c-3 -8 -6 -5 -6 6 -1 11 2 17 5 13 3 -3 4 -12 1 -19z m-675 -17 c2 -17 1 -28 -4 -25 -8 5 -12 54 -4 54 2 0 6 -13 8 -29z m685 -38 c-3 -10 -5 -4 -5 12 0 17 2 24 5 18 2 -7 2 -21 0 -30z m-653 -68 c5 -25 4 -36 -2 -30 -5 6 -12 30 -16 55 -7 55 8 33 18 -25z m648 13 c-3 -12 -31 -48 -62 -80 -52 -54 -59 -58 -100 -57 l-45 1 38 9 c79 18 131 63 149 126 5 18 13 31 18 28 4 -3 6 -15 2 -27z m-618 -118 c5 -17 4 -20 -2 -10 -5 8 -13 26 -16 40 -5 17 -4 20 2 10 5 -8 13 -26 16 -40z"/>
 <path d="M2076 1173 c-6 -14 -5 -15 5 -6 7 7 10 15 7 18 -3 3 -9 -2 -12 -12z"/>
 <path d="M2034 1108 c-4 -7 -3 -8 4 -4 7 4 12 9 12 12 0 8 -9 4 -16 -8z"/>
 </g>
<g id="layer111" fill="#d0794d" stroke="none">
 <path d="M0 1555 l0 -1555 1190 0 1190 0 0 1555 0 1555 -1190 0 -1190 0 0 -1555z m865 1275 c4 -7 11 -8 18 -2 19 16 273 0 307 -18 10 -5 29 -10 42 -10 18 0 20 -2 8 -10 -9 -6 -10 -10 -3 -10 6 0 15 4 18 10 4 6 14 5 28 -2 49 -25 58 -28 66 -24 4 3 20 -4 37 -15 16 -10 36 -19 44 -19 21 0 101 -56 92 -64 -3 -4 1 -4 9 -1 9 3 22 -2 30 -11 12 -15 12 -17 0 -9 -10 6 -12 4 -7 -4 5 -7 14 -10 21 -7 16 6 50 -18 50 -35 0 -7 7 -14 15 -16 13 -4 13 -3 0 6 -9 7 -11 11 -3 11 7 0 17 -8 22 -17 6 -10 11 -14 11 -10 0 4 11 -4 25 -19 14 -15 35 -32 48 -39 12 -6 21 -18 21 -27 -1 -10 4 -14 12 -11 8 3 18 -5 24 -21 5 -14 14 -26 19 -26 9 0 90 -108 105 -140 11 -23 31 -56 43 -71 6 -8 13 -23 15 -34 1 -10 11 -28 21 -38 10 -10 16 -25 13 -33 -3 -8 -2 -13 3 -10 12 8 63 -121 64 -161 1 -17 5 -29 10 -26 5 3 6 -4 2 -16 -4 -15 -3 -21 7 -19 8 2 14 -9 16 -27 2 -16 7 -34 12 -40 8 -11 17 -54 25 -125 3 -25 8 -62 11 -82 3 -21 0 -54 -6 -73 -9 -26 -9 -39 -1 -49 12 -15 5 -93 -11 -112 -4 -6 -6 -18 -3 -27 4 -8 -8 -59 -26 -113 -38 -119 -102 -210 -185 -266 -87 -59 -125 -66 -404 -74 -149 -4 -253 -11 -257 -17 -3 -6 -1 -7 5 -3 8 4 12 0 12 -11 0 -10 7 -31 15 -47 8 -15 15 -38 15 -50 0 -12 4 -26 9 -32 20 -20 71 -243 66 -285 -6 -49 -13 -62 -27 -53 -7 5 -8 2 -3 -5 9 -15 -43 -73 -58 -64 -6 3 -7 1 -3 -5 3 -6 -4 -18 -16 -27 -20 -13 -59 -15 -270 -15 l-246 1 -11 31 c-6 17 -9 34 -6 38 3 4 -1 13 -9 19 -7 6 -16 34 -20 61 -4 27 -11 52 -16 55 -6 3 -10 19 -10 34 0 15 -4 31 -9 37 -6 5 -12 29 -15 52 -3 24 -9 49 -14 55 -14 18 -47 147 -47 184 0 17 -2 31 -5 31 -3 0 -66 0 -140 1 l-135 1 -58 223 c-72 281 -72 278 -57 332 16 56 82 121 134 131 45 8 59 30 39 60 -8 13 -13 31 -12 41 1 10 -3 31 -10 47 -6 16 -9 31 -7 34 3 2 -1 11 -9 19 -8 8 -15 27 -15 43 0 16 -5 32 -11 36 -6 3 -9 19 -7 35 3 18 -1 30 -9 34 -8 2 -11 10 -8 15 4 6 1 17 -5 25 -7 8 -10 24 -7 34 3 11 1 21 -4 23 -11 4 -18 47 -26 164 -6 100 3 196 17 174 5 -8 7 6 4 33 -3 31 0 50 9 59 8 7 12 21 9 32 -3 10 -1 17 4 14 5 -4 9 7 10 23 1 16 11 40 23 52 11 13 21 28 21 34 0 6 24 36 53 66 54 57 121 102 138 92 5 -4 9 -2 9 4 0 18 61 43 90 37 20 -4 30 -1 34 11 5 13 17 15 61 10 30 -3 55 -2 55 3 0 5 10 11 23 13 12 2 25 5 29 6 4 0 10 -4 13 -9z"/>
 <path d="M493 2723 c4 -3 10 -3 14 0 3 4 0 7 -7 7 -7 0 -10 -3 -7 -7z"/>
 <path d="M383 2603 c4 -3 10 -3 14 0 3 4 0 7 -7 7 -7 0 -10 -3 -7 -7z"/>
 <path d="M1130 2150 c-8 -5 -18 -7 -22 -4 -4 3 -18 -2 -31 -11 -13 -8 -31 -13 -38 -10 -10 4 -15 -2 -16 -16 -1 -12 -10 -30 -19 -40 -15 -16 -16 -31 -9 -101 4 -46 7 -93 7 -105 0 -13 4 -23 9 -23 5 0 9 -8 9 -18 0 -10 4 -22 9 -27 6 -6 12 -26 14 -45 3 -19 15 -65 27 -102 l23 -68 121 0 c67 0 131 3 143 6 13 4 37 29 54 57 29 48 31 54 25 121 -4 39 -8 83 -9 98 -1 14 -6 24 -11 21 -5 -3 -7 6 -4 20 3 15 1 24 -3 21 -8 -5 -14 17 -10 39 0 4 -4 7 -10 7 -6 0 -9 7 -6 14 4 11 1 13 -10 9 -13 -5 -15 -1 -10 23 3 16 4 23 1 16 -4 -9 -22 3 -55 37 -34 35 -61 53 -91 61 -24 6 -50 14 -59 19 -9 5 -22 5 -29 1z"/>
 <path d="M1273 2113 c4 -3 10 -3 14 0 3 4 0 7 -7 7 -7 0 -10 -3 -7 -7z"/>
 <path d="M1040 1621 c0 -6 4 -13 10 -16 6 -3 7 1 4 9 -7 18 -14 21 -14 7z"/>
 <path d="M1083 1523 c4 -3 10 -3 14 0 3 4 0 7 -7 7 -7 0 -10 -3 -7 -7z"/>
 <path d="M430 1490 c0 -7 3 -10 7 -7 3 4 3 10 0 14 -4 3 -7 0 -7 -7z"/>
 <path d="M1118 1423 c5 -21 7 -23 10 -9 2 10 0 22 -6 28 -6 6 -7 0 -4 -19z"/>
 <path d="M471 1344 c0 -11 3 -14 6 -6 3 7 2 16 -1 19 -3 4 -6 -2 -5 -13z"/>
 <path d="M493 1273 c4 -3 10 -3 14 0 3 4 0 7 -7 7 -7 0 -10 -3 -7 -7z"/>
 <path d="M506 1227 c3 -10 9 -15 12 -12 3 3 0 11 -7 18 -10 9 -11 8 -5 -6z"/>
 <path d="M1185 1200 c3 -5 8 -10 11 -10 3 0 2 5 -1 10 -3 6 -8 10 -11 10 -3 0 -2 -4 1 -10z"/>
 <path d="M1200 1150 c0 -7 3 -10 7 -7 3 4 3 10 0 14 -4 3 -7 0 -7 -7z"/>
 <path d="M540 1110 c0 -7 3 -10 7 -7 3 4 3 10 0 14 -4 3 -7 0 -7 -7z"/>
 <path d="M550 1080 c0 -7 3 -10 7 -7 3 4 3 10 0 14 -4 3 -7 0 -7 -7z"/>
 <path d="M560 1030 c0 -7 3 -10 7 -7 3 4 3 10 0 14 -4 3 -7 0 -7 -7z"/>
 <path d="M1250 970 c0 -7 3 -10 7 -7 3 4 3 10 0 14 -4 3 -7 0 -7 -7z"/>
 <path d="M670 680 c0 -7 3 -10 7 -7 3 4 3 10 0 14 -4 3 -7 0 -7 -7z"/>
 </g>
<g id="layer112" fill="#f68435" stroke="none">
 <path d="M0 1555 l0 -1555 1190 0 1190 0 0 1555 0 1555 -1190 0 -1190 0 0 -1555z m866 1274 c4 -8 9 -8 17 0 20 20 200 8 321 -20 33 -8 44 -14 35 -20 -10 -6 -10 -9 -2 -9 6 0 14 4 18 9 12 21 280 -93 271 -115 -3 -8 0 -11 9 -8 14 6 114 -55 114 -70 1 -4 -6 -5 -15 -2 -9 3 -12 2 -9 -5 4 -6 13 -8 21 -5 8 3 14 1 14 -5 0 -6 4 -8 9 -5 13 8 103 -75 97 -90 -3 -8 0 -11 8 -8 27 11 226 -281 210 -307 -4 -8 -3 -9 4 -5 14 8 36 -40 26 -56 -4 -6 -2 -8 3 -5 16 10 76 -146 68 -175 -4 -17 -4 -19 3 -9 18 26 65 -162 78 -312 8 -95 -4 -250 -18 -241 -6 4 -8 -2 -3 -15 16 -52 -46 -211 -116 -297 -50 -60 -134 -119 -200 -138 -34 -10 -127 -17 -299 -22 -149 -4 -253 -11 -257 -17 -3 -6 -1 -7 5 -3 7 4 22 -30 42 -96 17 -57 42 -138 56 -181 13 -43 24 -96 24 -117 0 -47 -16 -93 -30 -85 -6 3 -7 -1 -4 -10 8 -19 -25 -56 -76 -88 -33 -21 -48 -22 -281 -25 l-246 -4 -7 36 c-4 20 -4 41 0 48 4 6 3 8 -4 4 -6 -4 -13 7 -17 26 -4 18 -13 51 -20 73 -7 22 -37 127 -66 233 l-53 192 -130 0 -131 0 -58 223 c-72 281 -72 278 -57 332 16 56 82 121 134 131 21 3 41 15 47 26 7 12 7 18 1 14 -12 -7 -26 60 -16 76 4 6 3 8 -4 4 -12 -7 -27 47 -18 63 4 5 2 11 -4 13 -13 4 -72 208 -66 230 2 9 0 18 -6 20 -27 9 -36 339 -9 372 6 7 8 15 5 18 -8 8 15 90 24 84 4 -2 7 8 8 23 1 39 61 128 123 184 89 79 236 136 324 124 27 -4 35 -3 22 2 -16 7 -13 10 20 13 22 3 43 5 47 6 4 1 10 -3 14 -9z"/>
 <path d="M663 2793 c4 -3 10 -3 14 0 3 4 0 7 -7 7 -7 0 -10 -3 -7 -7z"/>
 <path d="M493 2723 c4 -3 10 -3 14 0 3 4 0 7 -7 7 -7 0 -10 -3 -7 -7z"/>
 <path d="M1557 2639 c7 -7 15 -10 18 -7 3 3 -2 9 -12 12 -14 6 -15 5 -6 -5z"/>
 <path d="M383 2603 c4 -3 10 -3 14 0 3 4 0 7 -7 7 -7 0 -10 -3 -7 -7z"/>
 <path d="M280 2350 c0 -7 3 -10 7 -7 3 4 3 10 0 14 -4 3 -7 0 -7 -7z"/>
 <path d="M1120 2148 c-107 -41 -137 -85 -125 -182 4 -34 8 -76 8 -94 0 -18 3 -28 7 -22 3 5 16 -30 29 -78 12 -48 29 -111 37 -139 l15 -53 129 0 c123 0 130 1 159 25 16 14 37 46 47 71 15 40 16 55 6 121 -7 41 -9 80 -5 85 4 7 1 8 -7 3 -10 -6 -12 -2 -8 18 3 16 1 25 -6 24 -6 -1 -11 8 -10 21 0 12 -4 22 -9 22 -5 0 -7 7 -4 14 4 11 1 13 -10 9 -13 -5 -15 -1 -9 23 4 17 3 24 -2 16 -7 -10 -17 -3 -43 25 -19 21 -59 49 -89 62 -30 13 -62 27 -70 31 -8 4 -26 3 -40 -2z"/>
 <path d="M1023 2123 c4 -3 10 -3 14 0 3 4 0 7 -7 7 -7 0 -10 -3 -7 -7z"/>
 <path d="M1273 2113 c4 -3 10 -3 14 0 3 4 0 7 -7 7 -7 0 -10 -3 -7 -7z"/>
 <path d="M2090 1890 c0 -7 3 -10 7 -7 3 4 3 10 0 14 -4 3 -7 0 -7 -7z"/>
 <path d="M1040 1621 c0 -6 4 -13 10 -16 6 -3 7 1 4 9 -7 18 -14 21 -14 7z"/>
 <path d="M1083 1523 c4 -3 10 -3 14 0 3 4 0 7 -7 7 -7 0 -10 -3 -7 -7z"/>
 <path d="M2151 1504 c0 -11 3 -14 6 -6 3 7 2 16 -1 19 -3 4 -6 -2 -5 -13z"/>
 <path d="M430 1490 c0 -7 3 -10 7 -7 3 4 3 10 0 14 -4 3 -7 0 -7 -7z"/>
 <path d="M1118 1423 c5 -21 7 -23 10 -9 2 10 0 22 -6 28 -6 6 -7 0 -4 -19z"/>
 <path d="M471 1344 c0 -11 3 -14 6 -6 3 7 2 16 -1 19 -3 4 -6 -2 -5 -13z"/>
 <path d="M493 1273 c4 -3 10 -3 14 0 3 4 0 7 -7 7 -7 0 -10 -3 -7 -7z"/>
 <path d="M506 1227 c3 -10 9 -15 12 -12 3 3 0 11 -7 18 -10 9 -11 8 -5 -6z"/>
 <path d="M1185 1200 c3 -5 8 -10 11 -10 3 0 2 5 -1 10 -3 6 -8 10 -11 10 -3 0 -2 -4 1 -10z"/>
 <path d="M1200 1150 c0 -7 3 -10 7 -7 3 4 3 10 0 14 -4 3 -7 0 -7 -7z"/>
 <path d="M540 1110 c0 -7 3 -10 7 -7 3 4 3 10 0 14 -4 3 -7 0 -7 -7z"/>
 <path d="M550 1080 c0 -7 3 -10 7 -7 3 4 3 10 0 14 -4 3 -7 0 -7 -7z"/>
 <path d="M560 1030 c0 -7 3 -10 7 -7 3 4 3 10 0 14 -4 3 -7 0 -7 -7z"/>
 <path d="M1250 970 c0 -7 3 -10 7 -7 3 4 3 10 0 14 -4 3 -7 0 -7 -7z"/>
 <path d="M670 680 c0 -7 3 -10 7 -7 3 4 3 10 0 14 -4 3 -7 0 -7 -7z"/>
 </g>
<g id="layer113" fill="#ffefd5" stroke="none">
 <path d="M0 1555 l0 -1555 1190 0 1190 0 0 1555 0 1555 -1190 0 -1190 0 0 -1555z m1195 1256 c385 -82 675 -339 852 -752 87 -203 117 -336 117 -529 1 -276 -72 -455 -231 -562 -86 -59 -124 -66 -398 -74 -135 -4 -245 -9 -245 -12 0 -2 25 -85 55 -185 30 -99 55 -199 55 -221 0 -85 -74 -177 -156 -197 -22 -4 -138 -9 -260 -9 l-220 0 -19 73 c-10 39 -23 90 -30 112 -7 22 -37 127 -66 233 l-53 192 -130 0 -131 0 -58 223 c-72 281 -72 278 -57 332 16 56 82 121 134 131 20 3 38 10 41 14 3 4 -22 104 -55 221 -34 118 -66 248 -71 289 -14 92 -5 264 17 345 47 173 160 300 320 356 143 51 405 59 589 20z"/>
 <path d="M1099 2140 c-64 -18 -109 -77 -109 -145 0 -32 41 -202 86 -362 l15 -53 128 0 c117 0 131 2 156 22 33 26 65 91 65 133 0 98 -56 249 -118 317 -59 65 -159 104 -223 88z"/>
 </g>
<g id="layer114" fill="#fffffe" stroke="none">
 <path d="M0 1555 l0 -1555 1190 0 1190 0 0 1555 0 1555 -1190 0 -1190 0 0 -1555z m1122 1277 c6 -6 17 -8 24 -5 8 3 20 0 28 -6 7 -6 15 -9 18 -6 2 3 31 0 64 -5 57 -10 83 -20 208 -81 33 -16 65 -29 73 -29 7 0 13 -5 13 -11 0 -5 5 -7 10 -4 6 3 10 2 10 -3 0 -12 50 -45 67 -45 6 0 11 -3 10 -7 -2 -7 83 -90 92 -90 3 0 26 -21 50 -47 24 -27 40 -41 36 -33 -3 8 1 6 9 -4 9 -11 16 -24 16 -29 0 -5 15 -28 33 -50 17 -23 37 -49 42 -58 6 -10 28 -48 50 -86 22 -37 57 -108 77 -158 21 -49 45 -102 53 -117 8 -14 15 -36 15 -48 0 -12 5 -30 11 -41 5 -11 11 -35 13 -53 2 -18 6 -38 10 -45 4 -7 5 -18 2 -26 -3 -8 -1 -17 5 -21 6 -3 9 -23 8 -45 -2 -21 0 -41 4 -45 11 -11 8 -202 -3 -209 -6 -3 -7 -17 -4 -31 3 -13 3 -32 -1 -41 -4 -10 -8 -36 -10 -58 -2 -22 -12 -60 -23 -84 -11 -24 -18 -51 -14 -60 3 -9 1 -13 -3 -8 -5 4 -20 -12 -33 -35 -47 -79 -129 -158 -166 -158 -7 0 -24 -8 -37 -19 -37 -28 -68 -35 -150 -32 -42 1 -141 -3 -220 -10 -79 -6 -157 -11 -173 -11 -26 1 -28 -1 -22 -31 3 -18 24 -88 47 -157 65 -201 64 -280 -6 -357 -19 -21 -35 -42 -35 -46 0 -5 -5 -5 -10 -2 -6 4 -18 1 -27 -7 -12 -10 -73 -13 -272 -13 l-255 0 -19 65 c-10 36 -24 90 -32 121 -8 30 -23 80 -33 110 -11 30 -25 82 -32 117 -7 34 -17 65 -21 68 -5 3 -9 16 -9 28 0 38 -29 96 -48 97 -9 1 -66 3 -125 4 -114 2 -133 9 -121 48 3 10 1 24 -6 32 -6 7 -13 26 -16 42 -2 15 -8 37 -13 48 -5 11 -13 38 -17 60 -9 48 -8 46 -29 120 -10 33 -19 74 -21 90 -1 17 -3 32 -4 35 -1 3 -2 8 -2 11 1 4 2 24 4 45 3 56 54 144 83 144 7 0 18 7 25 15 7 8 25 15 41 15 l28 0 -20 68 c-11 37 -21 74 -24 82 -2 8 -4 15 -5 15 -1 0 -3 9 -5 20 -2 11 -10 45 -20 75 -9 30 -20 71 -24 90 -5 19 -16 62 -25 95 -21 77 -22 302 -2 377 24 87 48 151 73 191 13 20 20 37 17 37 -4 0 13 18 37 40 49 45 159 125 159 115 0 -3 14 2 31 10 16 9 44 18 62 19 18 2 40 7 50 11 9 4 24 5 32 2 8 -4 17 -1 21 5 4 6 24 8 48 5 22 -3 50 -1 61 4 27 12 253 5 267 -9z"/>
 <path d="M1075 2119 c-62 -37 -81 -95 -64 -197 6 -37 16 -76 22 -87 6 -11 16 -45 23 -75 11 -47 26 -105 40 -158 3 -11 32 -13 132 -10 l129 3 26 30 c15 17 27 35 27 40 0 6 7 23 15 39 9 16 13 37 9 45 -7 16 -8 20 -19 80 -4 18 -10 41 -15 50 -10 21 -33 74 -34 81 -4 19 -43 71 -58 76 -9 3 -15 10 -13 17 2 7 -17 25 -42 41 -52 33 -142 46 -178 25z"/>
 </g>

</svg>