<svg id="Layer_1" xmlns="http://www.w3.org/2000/svg" viewBox="0 0 100.6 100.1" width="2500" height="2488"><style>.st0{fill:url(#SVGID_1_)}.st1{fill:url(#SVGID_2_)}</style><g id="_x23_54b6fdff"><linearGradient id="SVGID_1_" gradientUnits="userSpaceOnUse" x1="25.16" y1="15.65" x2="25.16" y2="101.04"><stop offset="0" stop-color="#94d9fe"/><stop offset="1" stop-color="#36a0fc"/></linearGradient><path class="st0" d="M48 56.4C41.2 70.6 35.1 85.2 29.8 100H0c4.9-16.4 10.4-32.7 17.3-48.3 4.9-10.2 10-20.7 17.9-29 3.8-4.1 8.9-6.8 14.4-8.1.4 11.9.7 23.9.6 35.8.1.1-1.4 3.6-2.2 6z"/></g><linearGradient id="SVGID_2_" gradientUnits="userSpaceOnUse" x1="65.225" y1="14.984" x2="65.225" y2="101.395"><stop offset="0" stop-color="#5dc6ff"/><stop offset="1" stop-color="#0288fd"/></linearGradient><path class="st1" d="M100.6.3c-3.5-.8-7 .3-10.3 1.5C80.7 6.2 73.1 14 67.1 22.5c-7.5 10.6-15.4 24.7-16.8 28-1.4 3.3-4.7 10.4-4.7 10.4-6 12.8-9.9 23.5-15.8 39.1 23.6-.1 47.2 0 70.8 0V.3z"/></svg>