<!DOCTYPE svg PUBLIC "-//W3C//DTD SVG 20010904//EN" "http://www.w3.org/TR/2001/REC-SVG-20010904/DTD/svg10.dtd">
<svg version="1.0" xmlns="http://www.w3.org/2000/svg" width="1000px" height="1000px" viewBox="0 0 10000 10000" preserveAspectRatio="xMidYMid meet">
<g id="layer101" fill="#19bcb9" stroke="none">
 <path d="M2890 8780 c-6 -12 -9 -77 -8 -167 l3 -148 1435 -6 1435 -5 191 -27 c415 -57 699 -135 970 -266 156 -75 264 -147 389 -259 265 -236 447 -515 536 -821 21 -74 11 -71 -16 4 -123 341 -446 678 -820 855 -243 116 -475 171 -875 206 -138 12 -350 18 -837 21 l-652 5 -6 -23 c-3 -13 -4 -86 -3 -162 l3 -138 585 1 c645 0 938 -10 1135 -39 281 -42 498 -117 669 -234 158 -107 352 -300 438 -437 73 -114 75 -136 5 -37 -128 179 -352 314 -644 388 -307 77 -360 79 -2739 79 -1889 0 -2082 -1 -2088 -16 -3 -9 -6 -58 -6 -110 l0 -93 2153 -4 c2357 -4 2226 0 2525 -62 307 -64 471 -147 586 -298 67 -90 108 -171 142 -284 22 -73 27 -108 27 -203 1 -100 -3 -126 -27 -194 -53 -154 -156 -278 -327 -392 -158 -106 -332 -164 -606 -203 -284 -41 -341 -43 -1280 -48 -741 -4 -924 -7 -933 -18 -7 -8 -10 -50 -8 -106 l3 -94 765 -3 c1451 -5 1741 21 2057 188 188 98 354 243 439 381 20 32 39 59 41 59 9 0 -33 -83 -80 -158 -136 -217 -397 -449 -632 -562 -164 -78 -359 -126 -635 -155 -226 -24 -920 -36 -1895 -33 -490 2 -896 -1 -902 -5 -10 -6 -13 -50 -13 -163 l0 -155 1333 4 c1175 3 1349 5 1477 20 400 47 647 118 879 250 199 114 423 304 551 467 66 83 79 96 59 58 -143 -269 -428 -578 -671 -727 -251 -152 -583 -262 -953 -315 -257 -37 -306 -39 -1175 -45 l-875 -6 -3 -162 -2 -163 838 0 c482 0 895 4 973 10 163 13 392 44 514 71 l89 20 61 -22 c193 -69 322 -178 407 -346 137 -267 142 -527 16 -741 -77 -131 -284 -301 -450 -370 -132 -55 -348 -103 -603 -133 -65 -8 -377 -14 -898 -18 -694 -5 -799 -8 -807 -21 -6 -8 -9 -58 -8 -110 l3 -95 850 1 c910 0 1037 6 1279 55 276 56 498 179 694 384 54 56 86 85 74 65 -148 -243 -455 -500 -715 -601 -162 -62 -377 -106 -642 -130 -86 -8 -466 -13 -1120 -16 -903 -4 -991 -5 -1002 -20 -14 -18 -18 -224 -7 -283 l7 -32 1001 5 c1037 5 1147 9 1409 51 214 35 415 92 556 158 241 114 510 325 669 526 36 45 67 82 70 82 6 0 -44 -85 -104 -175 -184 -279 -448 -517 -719 -650 -270 -132 -594 -216 -1015 -262 -133 -14 -322 -17 -1355 -22 l-1200 -6 -3 -162 -2 -163 1157 0 c666 0 1222 5 1308 10 821 55 1444 304 1882 751 157 161 251 291 347 478 102 201 168 411 207 666 32 202 32 579 1 780 -47 302 -148 589 -279 794 l-35 54 69 60 c365 324 577 709 665 1212 26 150 37 576 19 737 -59 516 -265 948 -604 1263 -405 378 -953 605 -1667 690 -255 30 -505 35 -1767 35 -1259 0 -1272 0 -1283 -20z"/>
 <path d="M2062 8778 c-8 -8 -12 -58 -12 -160 l0 -148 225 0 225 0 0 148 c0 102 -4 152 -12 160 -9 9 -70 12 -213 12 -143 0 -204 -3 -213 -12z"/>
 <path d="M2501 8136 c-8 -9 -11 -48 -9 -112 l3 -99 898 -3 897 -2 0 99 c0 55 -3 106 -6 115 -6 14 -93 16 -889 16 -744 0 -884 -2 -894 -14z"/>
 <path d="M2501 6856 c-8 -9 -11 -45 -9 -98 l3 -83 953 -3 952 -2 0 84 c0 46 -3 91 -6 100 -6 14 -98 16 -944 16 -792 0 -939 -2 -949 -14z"/>
 <path d="M4746 6844 c-3 -9 -6 -47 -6 -85 l0 -69 620 0 620 0 0 73 c0 43 -5 78 -12 85 -9 9 -159 12 -614 12 -540 0 -602 -2 -608 -16z"/>
 <path d="M2890 6270 c-6 -11 -10 -55 -8 -98 l3 -77 315 0 315 0 3 77 c5 127 30 118 -318 118 -290 0 -300 -1 -310 -20z"/>
 <path d="M3882 6278 c-8 -8 -12 -45 -12 -100 l0 -88 1060 0 1060 0 0 88 c0 55 -4 92 -12 100 -17 17 -2079 17 -2096 0z"/>
 <path d="M2457 3763 c-4 -3 -7 -46 -7 -95 l0 -88 850 0 850 0 0 76 c0 128 105 114 -854 114 -458 0 -836 -3 -839 -7z"/>
 <path d="M4582 3758 c-7 -7 -12 -44 -12 -95 l0 -83 680 0 680 0 0 76 c0 127 80 114 -678 114 -499 0 -661 -3 -670 -12z"/>
 <path d="M3170 3271 c-11 -21 -13 -112 -4 -148 l6 -23 1404 0 1404 0 0 83 c0 51 -5 88 -12 95 -9 9 -334 12 -1400 12 -1361 0 -1387 0 -1398 -19z"/>
 <path d="M2965 2647 c-4 -13 -5 -50 -3 -82 l3 -60 370 0 370 0 3 60 c2 32 1 69 -3 82 l-5 23 -365 0 -365 0 -5 -23z"/>
 </g>
<g id="layer102" fill="#99c3c2" stroke="none">
 <path d="M2890 8780 c-6 -12 -9 -77 -8 -167 l3 -148 1333 0 1332 0 -1330 2 -1330 3 0 150 0 150 1308 0 c766 0 1375 -4 1472 -10 850 -52 1505 -297 1954 -730 218 -210 363 -434 468 -720 21 -58 36 -91 33 -75 -12 55 -77 218 -128 320 -304 609 -952 1028 -1815 1175 -380 65 -537 70 -2009 70 -1259 0 -1272 0 -1283 -20z"/>
 <path d="M2060 8775 c-11 -13 14 -15 215 -15 201 0 226 2 215 15 -10 12 -47 15 -215 15 -168 0 -205 -3 -215 -15z"/>
 <path d="M5653 8453 c15 -2 37 -2 50 0 12 2 0 4 -28 4 -27 0 -38 -2 -22 -4z"/>
 <path d="M4638 8159 c-5 -12 85 -14 536 -15 1092 -2 1485 -55 1866 -250 175 -90 294 -177 445 -329 220 -220 345 -444 404 -728 11 -51 20 -81 20 -67 2 40 -40 250 -50 250 -5 0 -6 8 -3 18 5 13 4 14 -4 4 -7 -11 -11 -7 -16 15 -4 15 -27 71 -52 123 -149 316 -439 599 -779 760 -243 116 -475 171 -875 206 -258 23 -1484 33 -1492 13z"/>
 <path d="M2501 8136 c-8 -9 -11 -48 -9 -112 l3 -99 895 0 895 0 -892 2 -893 3 0 95 0 95 895 0 c791 0 894 2 889 15 -5 13 -113 15 -889 15 -744 0 -884 -2 -894 -14z"/>
 <path d="M4630 7876 c0 -14 4 -27 8 -30 5 -3 6 8 4 25 -5 35 -12 38 -12 5z"/>
 <path d="M5933 7843 c26 -2 68 -2 95 0 26 2 4 3 -48 3 -52 0 -74 -1 -47 -3z"/>
 <path d="M6153 7833 c9 -2 25 -2 35 0 9 3 1 5 -18 5 -19 0 -27 -2 -17 -5z"/>
 <path d="M1996 7555 c-4 -13 266 -15 2207 -18 2210 -3 2212 -3 2363 -25 562 -81 887 -291 1014 -653 29 -83 59 -235 61 -314 1 -26 3 -32 6 -16 7 36 -16 212 -38 297 -22 85 -77 214 -91 214 -5 0 -6 5 -2 12 4 6 3 8 -3 5 -6 -4 -27 18 -48 48 -51 75 -160 175 -244 225 -167 99 -399 175 -627 205 -247 32 -439 35 -2510 35 -1823 0 -2083 -2 -2088 -15z"/>
 <path d="M1992 7443 l-2 -93 2033 2 2032 3 -2027 2 -2027 3 -4 88 -3 87 -2 -92z"/>
 <path d="M6188 7343 c12 -2 32 -2 45 0 12 2 2 4 -23 4 -25 0 -35 -2 -22 -4z"/>
 <path d="M2501 6856 c-8 -9 -11 -45 -9 -98 l3 -83 950 0 950 0 -947 2 -948 3 0 80 0 80 950 0 c840 0 949 2 944 15 -5 13 -120 15 -944 15 -792 0 -939 -2 -949 -14z"/>
 <path d="M4745 6837 c-3 -12 -4 -52 -2 -87 l3 -65 2 73 2 72 610 0 609 0 4 -72 3 -73 2 76 c1 47 -2 79 -10 87 -9 9 -159 12 -615 12 l-603 0 -5 -23z"/>
 <path d="M8202 6830 c0 -19 2 -27 5 -17 2 9 2 25 0 35 -3 9 -5 1 -5 -18z"/>
 <path d="M8213 6725 c0 -27 2 -38 4 -22 2 15 2 37 0 50 -2 12 -4 0 -4 -28z"/>
 <path d="M8213 6305 c0 -27 2 -38 4 -22 2 15 2 37 0 50 -2 12 -4 0 -4 -28z"/>
 <path d="M7386 6277 c-45 -127 -158 -257 -317 -363 -158 -106 -332 -164 -606 -203 -284 -41 -341 -43 -1280 -48 -741 -4 -924 -7 -933 -18 -7 -8 -10 -50 -8 -106 l3 -94 853 0 852 0 -850 2 -850 3 0 90 0 90 693 0 c1220 1 1541 23 1868 130 281 92 518 302 589 523 18 58 7 53 -14 -6z"/>
 <path d="M7607 6251 c-10 -37 -30 -94 -46 -127 -15 -32 -26 -65 -23 -72 4 -14 -41 -97 -101 -186 -131 -194 -386 -412 -602 -516 -164 -78 -359 -126 -635 -155 -226 -24 -1005 -37 -1943 -33 -639 3 -850 2 -857 -7 -22 -27 2097 -30 2575 -4 652 35 961 153 1304 498 169 171 298 399 341 604 16 82 8 80 -13 -2z"/>
 <path d="M2890 6270 c-6 -11 -10 -55 -8 -98 l3 -77 315 0 315 0 3 77 c5 127 30 118 -318 118 -290 0 -300 -1 -310 -20z m620 -90 l0 -80 -310 0 -310 0 0 80 0 80 310 0 310 0 0 -80z"/>
 <path d="M3882 6278 c-7 -7 -12 -14 -12 -17 0 -4 475 -5 1055 -3 l1055 2 0 -80 0 -80 -1057 -3 -1058 -2 1063 -3 1062 -2 0 88 c0 55 -4 92 -12 100 -17 17 -2079 17 -2096 0z"/>
 <path d="M7786 5843 c-3 -10 -26 -54 -51 -97 -24 -43 -42 -83 -38 -89 3 -5 1 -7 -5 -3 -6 3 -14 1 -18 -5 -5 -8 -3 -9 6 -4 20 12 9 -11 -49 -104 -153 -246 -398 -498 -613 -630 -251 -152 -583 -262 -953 -315 -257 -37 -306 -39 -1174 -45 -717 -5 -875 -8 -879 -19 -3 -11 142 -13 859 -9 875 4 929 7 1204 46 432 63 796 198 1061 394 96 71 307 284 386 392 37 50 95 136 128 192 64 107 156 301 147 309 -3 3 -8 -3 -11 -13z"/>
 <path d="M7554 5498 l-29 -33 33 29 c30 28 37 36 29 36 -2 0 -16 -15 -33 -32z"/>
 <path d="M6368 5463 c12 -2 30 -2 40 0 9 3 -1 5 -23 4 -22 0 -30 -2 -17 -4z"/>
 <path d="M6188 5453 c18 -2 45 -2 60 0 15 2 0 4 -33 4 -33 0 -45 -2 -27 -4z"/>
 <path d="M7434 5378 l-29 -33 33 29 c30 28 37 36 29 36 -2 0 -16 -15 -33 -32z"/>
 <path d="M7624 4958 l-29 -33 33 29 c17 17 32 31 32 33 0 8 -8 1 -36 -29z"/>
 <path d="M6153 4863 c9 -2 25 -2 35 0 9 3 1 5 -18 5 -19 0 -27 -2 -17 -5z"/>
 <path d="M6008 4853 c18 -2 45 -2 60 0 15 2 0 4 -33 4 -33 0 -45 -2 -27 -4z"/>
 <path d="M4018 4843 c349 -2 916 -2 1260 0 345 1 60 2 -633 2 -693 0 -975 -1 -627 -2z"/>
 <path d="M7454 4807 c-2 -7 25 -61 60 -121 36 -60 84 -156 107 -212 24 -57 44 -102 46 -100 12 11 -112 277 -174 374 -18 29 -31 57 -28 63 4 5 4 9 0 9 -3 0 -8 -6 -11 -13z"/>
 <path d="M7142 4600 l-34 -21 36 -42 c69 -81 156 -216 206 -318 56 -114 82 -193 116 -349 19 -85 22 -93 17 -45 -15 165 -87 413 -163 566 -48 95 -129 229 -139 229 -3 0 -21 -9 -39 -20z"/>
 <path d="M6785 4435 c-36 -16 -34 -22 24 -58 231 -147 375 -416 401 -747 l9 -115 -4 125 c-8 272 -118 524 -322 740 -36 39 -68 70 -72 69 -3 0 -19 -7 -36 -14z"/>
 <path d="M5943 4243 c9 -2 25 -2 35 0 9 3 1 5 -18 5 -19 0 -27 -2 -17 -5z"/>
 <path d="M5833 4233 c9 -2 25 -2 35 0 9 3 1 5 -18 5 -19 0 -27 -2 -17 -5z"/>
 <path d="M5663 4223 c15 -2 39 -2 55 0 15 2 2 4 -28 4 -30 0 -43 -2 -27 -4z"/>
 <path d="M6760 4138 c24 -27 45 -48 47 -48 8 0 0 9 -44 50 l-48 45 45 -47z"/>
 <path d="M7783 3815 c0 -22 2 -30 4 -17 2 12 2 30 0 40 -3 9 -5 -1 -4 -23z"/>
 <path d="M2457 3763 c-4 -3 -7 -12 -7 -20 0 -11 147 -13 845 -13 l845 0 0 -70 0 -70 -847 -3 -848 -2 853 -3 852 -2 0 76 c0 128 105 114 -854 114 -458 0 -836 -3 -839 -7z"/>
 <path d="M4580 3755 c-11 -13 64 -15 664 -15 l676 0 2 -82 2 -83 3 77 c6 132 85 118 -676 118 -573 0 -660 -2 -671 -15z"/>
 <path d="M7794 3570 c0 -85 2 -120 3 -77 2 42 2 112 0 155 -1 42 -3 7 -3 -78z"/>
 <path d="M6976 3374 c-4 -14 -5 -28 -3 -31 3 -2 8 8 11 23 4 14 5 28 3 31 -3 2 -8 -8 -11 -23z"/>
 <path d="M7783 3320 c0 -25 2 -35 4 -22 2 12 2 32 0 45 -2 12 -4 2 -4 -23z"/>
 <path d="M6950 3295 c-20 -60 -105 -178 -177 -245 -84 -79 -219 -168 -315 -208 -132 -55 -348 -103 -603 -133 -65 -8 -377 -14 -898 -18 -694 -5 -799 -8 -807 -21 -5 -8 -9 -58 -8 -110 l2 -95 3 98 4 97 700 0 c385 0 766 5 847 10 303 21 575 72 748 139 112 43 253 139 351 237 66 67 90 101 129 178 26 53 45 98 42 102 -3 3 -11 -11 -18 -31z"/>
 <path d="M7161 3237 c-25 -76 -61 -154 -93 -199 -11 -16 -16 -33 -12 -39 4 -7 3 -9 -4 -5 -6 3 -14 1 -18 -5 -4 -8 -3 -9 4 -5 20 12 13 -3 -27 -62 -64 -94 -162 -203 -252 -278 -270 -229 -462 -316 -820 -373 -249 -40 -355 -44 -1377 -48 -965 -4 -992 -5 -1002 -24 -6 -11 -9 -72 -7 -146 l3 -128 2 132 2 131 993 5 c1010 5 1099 8 1372 47 362 52 587 155 852 391 200 178 343 398 398 611 22 85 13 82 -14 -5z"/>
 <path d="M3170 3270 c-6 -11 -9 -48 -7 -83 l3 -62 2 68 2 67 1405 -2 c773 -2 1405 -1 1405 2 0 29 -38 30 -1412 30 -1382 0 -1387 0 -1398 -20z"/>
 <path d="M5973 3180 c0 -36 2 -50 4 -32 2 17 2 47 0 65 -2 17 -4 3 -4 -33z"/>
 <path d="M7349 2878 c-13 -29 -39 -76 -56 -106 -18 -30 -30 -59 -26 -65 3 -5 1 -7 -5 -3 -6 3 -14 1 -18 -5 -5 -8 -3 -9 6 -4 20 12 9 -11 -49 -104 -136 -219 -368 -466 -554 -589 -310 -204 -683 -320 -1217 -379 -133 -14 -322 -17 -1354 -22 -786 -4 -1200 -9 -1203 -16 -2 -7 417 -8 1249 -5 1341 6 1317 6 1623 59 427 74 780 223 1036 436 231 192 454 496 569 774 35 86 35 105 -1 29z"/>
 <path d="M2965 2647 c-4 -13 -5 -50 -3 -82 l3 -60 365 0 365 0 -362 2 -363 3 0 70 0 70 369 -3 c291 -1 367 1 364 11 -4 9 -87 12 -369 12 l-364 0 -5 -23z"/>
 <path d="M7065 2488 l-90 -93 93 90 c85 83 97 95 89 95 -1 0 -43 -42 -92 -92z"/>
 <path d="M5838 2473 c12 -2 32 -2 45 0 12 2 2 4 -23 4 -25 0 -35 -2 -22 -4z"/>
 <path d="M5518 2463 c34 -2 90 -2 125 0 34 2 6 3 -63 3 -69 0 -97 -1 -62 -3z"/>
 <path d="M5788 1923 c12 -2 30 -2 40 0 9 3 -1 5 -23 4 -22 0 -30 -2 -17 -4z"/>
 <path d="M5678 1913 c12 -2 30 -2 40 0 9 3 -1 5 -23 4 -22 0 -30 -2 -17 -4z"/>
 <path d="M5518 1903 c18 -2 45 -2 60 0 15 2 0 4 -33 4 -33 0 -45 -2 -27 -4z"/>
 <path d="M4003 1893 c247 -2 647 -2 890 0 243 1 42 2 -448 2 -490 0 -688 -1 -442 -2z"/>
 <path d="M5348 1283 c12 -2 32 -2 45 0 12 2 2 4 -23 4 -25 0 -35 -2 -22 -4z"/>
 <path d="M3472 1273 c322 -2 853 -2 1180 0 326 1 62 2 -587 2 -649 0 -916 -1 -593 -2z"/>
 </g>
<g id="layer103" fill="#cbcbcb" stroke="none">
 <path d="M2891 8783 c-9 -17 58 -18 1347 -15 1561 4 1631 1 2037 -79 293 -58 529 -136 770 -254 297 -146 534 -326 717 -545 102 -121 159 -207 230 -345 32 -60 57 -107 58 -102 0 4 -23 53 -51 110 -307 611 -953 1030 -1817 1177 -380 65 -537 70 -2009 70 -1201 0 -1273 -1 -1282 -17z"/>
 <path d="M2060 8775 c-11 -13 14 -15 215 -15 201 0 226 2 215 15 -10 12 -47 15 -215 15 -168 0 -205 -3 -215 -15z"/>
 <path d="M2884 8485 c1 -20 8 -20 1294 -20 l1292 0 -1289 2 c-1218 3 -1290 4 -1294 21 -3 13 -4 12 -3 -3z"/>
 <path d="M4638 8159 c-5 -12 92 -14 581 -14 764 -1 1079 -21 1386 -90 508 -114 931 -424 1155 -846 59 -111 67 -112 11 -1 -153 304 -438 576 -766 732 -243 116 -475 171 -875 206 -258 23 -1484 33 -1492 13z"/>
 <path d="M2502 8138 c-8 -10 170 -13 888 -13 714 0 896 3 893 13 -4 9 -191 12 -888 12 -694 0 -885 -3 -893 -12z"/>
 <path d="M5918 7843 c18 -2 45 -2 60 0 15 2 0 4 -33 4 -33 0 -45 -2 -27 -4z"/>
 <path d="M1997 7558 c-3 -10 431 -13 2152 -13 1972 0 2170 -2 2316 -17 291 -32 482 -81 666 -174 160 -79 266 -167 348 -287 43 -63 106 -197 124 -267 9 -30 16 -48 16 -40 3 42 -83 280 -101 280 -5 0 -6 5 -2 12 4 6 3 8 -3 5 -6 -4 -27 18 -48 48 -51 75 -160 175 -244 225 -229 136 -494 204 -898 230 -249 16 -4320 14 -4326 -2z"/>
 <path d="M7847 7033 c-5 -10 34 -155 40 -149 7 6 -18 119 -28 132 -5 6 -6 14 -2 17 3 4 4 7 0 7 -3 0 -8 -3 -10 -7z"/>
 <path d="M2501 6856 c-8 -9 -11 -45 -9 -98 l3 -83 950 0 950 0 -947 2 -948 3 0 85 0 85 949 -2 c755 -2 947 0 944 10 -8 19 -1876 18 -1892 -2z"/>
 <path d="M4747 6848 c-3 -10 122 -13 607 -13 l611 0 6 -75 5 -75 2 76 c1 47 -2 79 -10 87 -18 18 -1214 17 -1221 0z"/>
 <path d="M2890 6270 c-6 -11 -9 -54 -7 -98 l3 -77 2 83 2 83 314 -3 c296 -3 314 -2 305 15 -9 16 -34 17 -309 17 -290 0 -300 -1 -310 -20z"/>
 <path d="M3880 6275 c-11 -13 107 -15 1050 -15 943 0 1061 2 1050 15 -11 13 -140 15 -1050 15 -910 0 -1039 -2 -1050 -15z"/>
 <path d="M3513 6170 c0 -41 2 -58 4 -37 2 20 2 54 0 75 -2 20 -4 3 -4 -38z"/>
 <path d="M7327 6163 c-75 -123 -267 -277 -428 -343 -147 -62 -371 -108 -684 -141 -71 -7 -435 -13 -1032 -16 -741 -4 -924 -7 -933 -18 -7 -8 -10 -50 -8 -106 l3 -94 853 0 852 0 -850 2 -850 3 0 95 0 95 843 0 c962 0 1129 7 1447 60 251 42 431 113 593 235 90 68 178 167 216 243 30 59 20 52 -22 -15z"/>
 <path d="M7570 6137 c-24 -62 -33 -97 -26 -97 6 0 59 150 55 155 -3 2 -15 -24 -29 -58z"/>
 <path d="M7521 6003 c-55 -121 -213 -311 -358 -433 -285 -238 -514 -327 -963 -375 -226 -24 -1005 -37 -1943 -33 -719 4 -849 2 -859 -10 -10 -12 168 -13 1258 -9 1306 4 1421 8 1692 47 385 57 620 170 897 431 47 45 114 119 148 165 64 85 153 232 145 240 -3 2 -10 -8 -17 -23z"/>
 <path d="M7720 5712 c-19 -31 -35 -64 -35 -72 -1 -8 -24 -52 -53 -97 -154 -249 -398 -500 -614 -632 -251 -152 -583 -262 -953 -315 -257 -37 -306 -39 -1174 -45 -569 -4 -876 -9 -878 -16 -2 -7 298 -8 894 -4 937 6 950 7 1238 54 297 48 610 152 818 271 298 170 585 483 757 823 23 46 40 85 38 87 -2 2 -19 -23 -38 -54z"/>
 <path d="M6223 5453 c9 -2 25 -2 35 0 9 3 1 5 -18 5 -19 0 -27 -2 -17 -5z"/>
 <path d="M7624 4958 l-29 -33 33 29 c17 17 32 31 32 33 0 8 -8 1 -36 -29z"/>
 <path d="M5823 4843 c15 -2 39 -2 55 0 15 2 2 4 -28 4 -30 0 -43 -2 -27 -4z"/>
 <path d="M7456 4790 c4 -8 16 -28 27 -44 11 -16 47 -79 79 -140 31 -61 58 -107 58 -102 0 16 -121 241 -146 271 -14 17 -22 23 -18 15z"/>
 <path d="M7143 4598 l-32 -19 56 -66 c118 -140 220 -332 272 -513 41 -143 39 -105 -3 60 -31 123 -80 259 -122 343 -28 55 -128 217 -134 216 -3 0 -19 -10 -37 -21z"/>
 <path d="M6788 4434 l-37 -16 73 -49 c138 -92 251 -236 317 -401 15 -40 28 -67 29 -61 0 7 -14 47 -31 90 -54 136 -142 271 -255 390 l-59 62 -37 -15z"/>
 <path d="M6730 4167 c0 -2 15 -16 33 -33 l32 -29 -29 33 c-28 30 -36 37 -36 29z"/>
 <path d="M2457 3763 c-4 -3 -7 -10 -7 -15 0 -4 381 -8 846 -8 672 0 845 3 842 13 -4 9 -182 13 -840 15 -459 1 -838 -1 -841 -5z"/>
 <path d="M4580 3755 c-11 -13 62 -15 665 -15 537 0 676 3 673 13 -4 9 -147 13 -665 15 -578 2 -662 0 -673 -13z"/>
 <path d="M7793 3680 c0 -25 2 -35 4 -22 2 12 2 32 0 45 -2 12 -4 2 -4 -23z"/>
 <path d="M7793 3460 c0 -25 2 -35 4 -22 2 12 2 32 0 45 -2 12 -4 2 -4 -23z"/>
 <path d="M3170 3270 c-6 -11 -9 -48 -7 -83 l3 -62 2 67 c2 61 4 68 25 73 12 3 644 4 1404 3 1104 -2 1379 0 1371 10 -8 9 -300 12 -1399 12 -1383 0 -1388 0 -1399 -20z"/>
 <path d="M6890 3188 c-84 -130 -269 -278 -432 -346 -132 -55 -348 -103 -603 -133 -65 -8 -377 -14 -898 -18 -694 -5 -799 -8 -807 -21 -5 -8 -9 -58 -8 -110 l2 -95 3 96 4 97 762 5 c804 5 906 10 1177 58 244 42 393 96 538 192 110 73 228 192 281 280 48 82 35 77 -19 -5z"/>
 <path d="M7125 3141 c-16 -36 -44 -88 -62 -114 -18 -26 -28 -45 -23 -42 18 11 10 -6 -29 -63 -64 -94 -162 -203 -252 -278 -270 -229 -462 -316 -820 -373 -250 -40 -355 -44 -1374 -48 -903 -4 -991 -5 -1003 -20 -8 -12 -11 -56 -10 -147 l2 -131 6 135 5 135 550 -3 c598 -4 1434 11 1610 28 436 42 675 123 927 313 222 167 390 373 478 587 39 93 35 110 -5 21z"/>
 <path d="M7296 2772 c-22 -37 -41 -74 -41 -82 -2 -21 -92 -164 -166 -262 -101 -136 -317 -343 -442 -426 -309 -203 -680 -319 -1212 -378 -129 -15 -316 -18 -1350 -21 -723 -3 -1204 -8 -1210 -14 -13 -12 2182 -12 2395 1 582 35 1044 166 1380 391 102 69 284 238 386 360 88 106 182 249 249 380 31 61 55 112 53 114 -1 2 -21 -27 -42 -63z"/>
 <path d="M2967 2658 c-3 -10 72 -12 364 -10 232 1 369 6 369 12 0 16 -727 13 -733 -2z"/>
 <path d="M3153 2503 c104 -2 270 -2 370 0 100 1 16 2 -188 2 -203 0 -285 -1 -182 -2z"/>
 <path d="M5633 2463 c15 -2 37 -2 50 0 12 2 0 4 -28 4 -27 0 -38 -2 -22 -4z"/>
 <path d="M4003 1893 c247 -2 647 -2 890 0 243 1 42 2 -448 2 -490 0 -688 -1 -442 -2z"/>
 <path d="M5173 1273 c15 -2 37 -2 50 0 12 2 0 4 -28 4 -27 0 -38 -2 -22 -4z"/>
 </g>

</svg>