<!DOCTYPE svg PUBLIC "-//W3C//DTD SVG 20010904//EN" "http://www.w3.org/TR/2001/REC-SVG-20010904/DTD/svg10.dtd">
<svg version="1.0" xmlns="http://www.w3.org/2000/svg" width="400px" height="400px" viewBox="0 0 4000 4000" preserveAspectRatio="xMidYMid meet">
<g id="layer101" fill="#225ea1" stroke="none">
 <path d="M0 2000 l0 -2000 2000 0 2000 0 0 2000 0 2000 -2000 0 -2000 0 0 -2000z"/>
 </g>
<g id="layer102" fill="#095fcb" stroke="none">
 <path d="M0 2000 l0 -2000 2000 0 2000 0 0 2000 0 2000 -2000 0 -2000 0 0 -2000z m2053 1643 c-7 -2 -19 -2 -25 0 -7 3 -2 5 12 5 14 0 19 -2 13 -5z m34 -75 c-3 -7 -5 -2 -5 12 0 14 2 19 5 13 2 -7 2 -19 0 -25z m262 -11 c-2 -1 -13 -9 -24 -17 -19 -14 -19 -14 -6 3 7 9 18 17 24 17 6 0 8 -1 6 -3z m32 -14 c13 -16 12 -17 -3 -4 -17 13 -22 21 -14 21 2 0 10 -8 17 -17z m-316 -93 c3 -6 -1 -7 -9 -4 -18 7 -21 14 -7 14 6 0 13 -4 16 -10z m260 -10 c3 -5 4 -10 1 -10 -3 0 -8 5 -11 10 -3 6 -4 10 -1 10 3 0 8 -4 11 -10z m52 -7 c-4 -3 -10 -3 -14 0 -3 4 0 7 7 7 7 0 10 -3 7 -7z m-207 -24 c0 -6 -4 -7 -10 -4 -5 3 -10 11 -10 16 0 6 5 7 10 4 6 -3 10 -11 10 -16z m357 4 c-4 -3 -10 -3 -14 0 -3 4 0 7 7 7 7 0 10 -3 7 -7z m28 -13 c3 -5 4 -10 1 -10 -3 0 -8 5 -11 10 -3 6 -4 10 -1 10 3 0 8 -4 11 -10z m-342 -17 c-7 -2 -19 -2 -25 0 -7 3 -2 5 12 5 14 0 19 -2 13 -5z m264 -85 c-3 -7 -5 -2 -5 12 0 14 2 19 5 13 2 -7 2 -19 0 -25z m-263 3 c3 -5 -5 -8 -19 -7 -14 0 -25 4 -25 9 0 10 38 9 44 -2z m343 -33 c-3 -8 -6 -5 -6 6 -1 11 2 17 5 13 3 -3 4 -12 1 -19z m-20 -25 c-4 -3 -10 -3 -14 0 -3 4 0 7 7 7 7 0 10 -3 7 -7z m-27 -60 c-8 -4 -21 -13 -28 -22 -11 -14 -11 -13 -2 7 6 12 18 22 28 21 14 0 14 -2 2 -6z m-1270 -447 c0 -3 -5 -8 -12 -12 -7 -4 -8 -3 -4 4 7 12 16 16 16 8z m1535 -6 c3 -5 4 -10 1 -10 -3 0 -8 5 -11 10 -3 6 -4 10 -1 10 3 0 8 -4 11 -10z m-1605 -40 c-8 -5 -19 -10 -25 -10 -5 0 -3 5 5 10 8 5 20 10 25 10 6 0 3 -5 -5 -10z m1675 0 c3 -5 4 -10 1 -10 -3 0 -8 5 -11 10 -3 6 -4 10 -1 10 3 0 8 -4 11 -10z m-1835 -84 c0 -2 -8 -10 -17 -17 -16 -13 -17 -12 -4 4 13 16 21 21 21 13z m2015 -24 c-3 -3 -11 0 -18 7 -9 10 -8 11 6 5 10 -3 15 -9 12 -12z m-1285 -146 c0 -2 -7 -7 -16 -10 -8 -3 -12 -2 -9 4 6 10 25 14 25 6z m7 -1023 c-4 -3 -10 -3 -14 0 -3 4 0 7 7 7 7 0 10 -3 7 -7z m500 -10 c-4 -3 -10 -3 -14 0 -3 4 0 7 7 7 7 0 10 -3 7 -7z m833 -137 c0 -2 -7 -7 -16 -10 -8 -3 -12 -2 -9 4 6 10 25 14 25 6z m-200 -111 c0 -2 -10 -9 -22 -15 -22 -11 -22 -10 -4 4 21 17 26 19 26 11z m-100 -59 c0 -3 -5 -8 -12 -12 -7 -4 -8 -3 -4 4 7 12 16 16 16 8z m-1333 -208 c-2 -13 -4 -5 -4 17 -1 22 1 32 4 23 2 -10 2 -28 0 -40z m0 -70 c-3 -8 -6 -5 -6 6 -1 11 2 17 5 13 3 -3 4 -12 1 -19z m-469 -20 c7 -7 12 -16 12 -22 0 -5 -6 -3 -12 6 -7 9 -22 18 -33 21 -20 5 -20 5 1 6 11 0 25 -4 32 -11z m1302 7 c0 -2 -10 -9 -22 -15 -22 -11 -22 -10 -4 4 21 17 26 19 26 11z m-1157 -36 c-6 -6 -19 -9 -29 -6 -16 4 -15 5 4 6 12 0 22 6 22 13 0 6 3 8 7 5 4 -4 2 -12 -4 -18z m662 1 c3 -5 4 -10 1 -10 -3 0 -8 5 -11 10 -3 6 -4 10 -1 10 3 0 8 -4 11 -10z m100 -60 c3 -6 -1 -7 -9 -4 -18 7 -21 14 -7 14 6 0 13 -4 16 -10z m-445 -24 c0 -3 -5 -8 -12 -12 -7 -4 -8 -3 -4 4 7 12 16 16 16 8z m-453 -33 c-4 -3 -7 0 -7 7 0 7 3 10 7 7 3 -4 3 -10 0 -14z m-24 -20 c-7 -2 -19 -2 -25 0 -7 3 -2 5 12 5 14 0 19 -2 13 -5z m464 -19 c-3 -3 -12 -4 -19 -1 -8 3 -5 6 6 6 11 1 17 -2 13 -5z m30 -31 c-4 -3 -7 0 -7 7 0 7 3 10 7 7 3 -4 3 -10 0 -14z m-190 0 c-4 -3 -10 -3 -14 0 -3 4 0 7 7 7 7 0 10 -3 7 -7z m110 -50 c-3 -10 -5 -2 -5 17 0 19 2 27 5 18 2 -10 2 -26 0 -35z m-256 14 c-10 -9 -11 -8 -5 6 3 10 9 15 12 12 3 -3 0 -11 -7 -18z m-41 -7 c0 -5 -2 -10 -4 -10 -3 0 -8 5 -11 10 -3 6 -1 10 4 10 6 0 11 -4 11 -10z m187 -17 c-4 -3 -10 -3 -14 0 -3 4 0 7 7 7 7 0 10 -3 7 -7z m183 -23 c0 -5 -5 -10 -11 -10 -5 0 -7 5 -4 10 3 6 8 10 11 10 2 0 4 -4 4 -10z m-233 -102 c-2 -18 -4 -4 -4 32 0 36 2 50 4 33 2 -18 2 -48 0 -65z m73 -27 c-6 -12 -20 -21 -33 -20 l-22 0 23 9 c12 5 25 17 28 25 4 9 9 14 11 11 3 -2 0 -14 -7 -25z"/>
 </g>
<g id="layer103" fill="#1765b6" stroke="none">
 <path d="M0 2000 l0 -2000 2000 0 2000 0 0 2000 0 2000 -2000 0 -2000 0 0 -2000z m2053 1643 c-7 -2 -19 -2 -25 0 -7 3 -2 5 12 5 14 0 19 -2 13 -5z m-36 -30 c-4 -3 -7 0 -7 7 0 7 3 10 7 7 3 -4 3 -10 0 -14z m53 5 c0 -4 -6 -8 -12 -8 -9 0 -8 -3 2 -9 8 -6 18 -7 22 -5 4 3 8 -4 8 -15 0 -12 -4 -21 -10 -21 -5 0 -10 7 -10 15 0 9 -6 12 -17 8 -10 -3 -15 -3 -11 2 4 4 3 16 -2 26 -8 14 -6 17 10 16 11 -1 20 -5 20 -9z m279 -61 c-2 -1 -13 -9 -24 -17 -19 -14 -19 -14 -6 3 7 9 18 17 24 17 6 0 8 -1 6 -3z m36 -40 c-4 -36 -4 -37 -16 -37 -8 0 -8 4 -1 13 12 14 11 34 -3 57 -7 13 -6 13 7 2 8 -7 14 -22 13 -35z m-210 13 c3 -5 4 -10 1 -10 -3 0 -8 5 -11 10 -3 6 -4 10 -1 10 3 0 8 -4 11 -10z m165 -35 c0 -9 -6 -12 -16 -8 -13 5 -13 7 -2 14 17 11 18 11 18 -6z m-13 -45 c-2 -23 -10 -17 -12 10 -1 10 2 17 6 14 4 -2 7 -13 6 -24z m50 3 c-4 -3 -7 0 -7 7 0 7 3 10 7 7 3 -4 3 -10 0 -14z m-312 -3 c9 -15 -11 -20 -29 -7 -16 12 -16 13 3 14 11 1 23 -2 26 -7z m112 -17 c-4 -3 -7 0 -7 7 0 7 3 10 7 7 3 -4 3 -10 0 -14z m193 7 c8 -5 11 -10 5 -10 -5 0 -17 5 -25 10 -8 5 -10 10 -5 10 6 0 17 -5 25 -10z m-143 -17 c-4 -3 -7 0 -7 7 0 7 3 10 7 7 3 -4 3 -10 0 -14z m-12 -23 c13 11 14 10 9 -4 -3 -9 -12 -16 -20 -16 -16 0 -54 31 -54 44 0 5 11 -1 25 -14 20 -19 27 -21 40 -10z m-158 3 c-4 -3 -7 0 -7 7 0 7 3 10 7 7 3 -4 3 -10 0 -14z m473 13 c0 -3 -4 -8 -10 -11 -5 -3 -10 -1 -10 4 0 6 5 11 10 11 6 0 10 -2 10 -4z m25 -16 c3 -5 1 -10 -4 -10 -6 0 -11 5 -11 10 0 6 2 10 4 10 3 0 8 -4 11 -10z m-58 -22 c-3 -8 -6 -5 -6 6 -1 11 2 17 5 13 3 -3 4 -12 1 -19z m50 -15 c-4 -3 -7 0 -7 7 0 7 3 10 7 7 3 -4 3 -10 0 -14z m-50 -35 c-3 -7 -5 -2 -5 12 0 14 2 19 5 13 2 -7 2 -19 0 -25z m-440 -75 c-2 -21 -4 -6 -4 32 0 39 2 55 4 38 2 -18 2 -50 0 -70z m420 45 c-3 -7 -5 -2 -5 12 0 14 2 19 5 13 2 -7 2 -19 0 -25z m-263 3 c3 -5 -1 -12 -10 -15 -10 -4 -13 -2 -8 6 5 8 2 9 -9 5 -10 -3 -17 -2 -17 3 0 12 37 13 44 1z m283 -33 c-3 -7 -5 -2 -5 12 0 14 2 19 5 13 2 -7 2 -19 0 -25z m63 4 c0 -15 -2 -15 -10 -2 -13 20 -13 33 0 25 6 -3 10 -14 10 -23z m-343 -9 c-4 -3 -7 0 -7 7 0 7 3 10 7 7 3 -4 3 -10 0 -14z m160 -105 c-2 -24 -4 -5 -4 42 0 47 2 66 4 43 2 -24 2 -62 0 -85z m160 97 c0 -8 -4 -15 -9 -15 -10 0 -11 14 -1 23 9 10 10 9 10 -8z m-360 -22 c-4 -3 -7 0 -7 7 0 7 3 10 7 7 3 -4 3 -10 0 -14z m-157 -34 c0 -11 -4 -18 -10 -14 -5 3 -7 12 -3 20 7 21 13 19 13 -6z m145 1 c3 -5 4 -10 1 -10 -3 0 -8 5 -11 10 -3 6 -4 10 -1 10 3 0 8 -4 11 -10z m62 -7 c-4 -3 -7 0 -7 7 0 7 3 10 7 7 3 -4 3 -10 0 -14z m280 -10 c-10 -3 -16 -10 -14 -17 3 -7 -1 -13 -8 -13 -10 0 -11 5 -4 19 5 10 17 17 27 17 15 -1 15 -2 -1 -6z m18 -23 c3 -5 1 -10 -4 -10 -6 0 -11 5 -11 10 0 6 2 10 4 10 3 0 8 -4 11 -10z m-488 -17 c-4 -3 -7 0 -7 7 0 7 3 10 7 7 3 -4 3 -10 0 -14z m180 -15 c-3 -8 -6 -5 -6 6 -1 11 2 17 5 13 3 -3 4 -12 1 -19z m-332 -28 c3 -5 4 -10 1 -10 -3 0 -8 5 -11 10 -3 6 -4 10 -1 10 3 0 8 -4 11 -10z m31 -16 c1 -9 0 -13 -4 -10 -3 4 -7 14 -8 22 -1 9 0 13 4 10 3 -4 7 -14 8 -22z m303 -31 c-3 -67 8 -93 44 -108 18 -8 26 -14 19 -15 -48 -1 -84 61 -75 128 8 56 14 53 12 -5z m311 27 c0 -13 -5 -18 -15 -14 -8 4 -15 10 -15 16 0 5 5 6 10 3 6 -3 10 -1 10 4 0 6 2 11 5 11 3 0 5 -9 5 -20z m-94 -64 c21 -6 24 -10 14 -19 -10 -9 -13 -9 -17 0 -2 7 -11 9 -20 6 -10 -4 -14 -2 -10 4 4 6 0 16 -8 23 -8 7 -15 17 -15 23 0 6 7 2 15 -10 8 -11 27 -24 41 -27z m-629 27 c-4 -3 -10 -3 -14 0 -3 4 0 7 7 7 7 0 10 -3 7 -7z m673 -7 c0 -3 -5 -8 -12 -12 -7 -4 -8 -3 -4 4 7 12 16 16 16 8z m-720 -15 c0 -5 -7 -12 -16 -15 -14 -5 -15 -4 -4 9 14 17 20 19 20 6z m-43 -28 c-4 -3 -10 -3 -14 0 -3 4 0 7 7 7 7 0 10 -3 7 -7z m620 -15 c-3 -8 -6 -5 -6 6 -1 11 2 17 5 13 3 -3 4 -12 1 -19z m-692 -18 c-3 -5 -16 -15 -28 -21 -19 -9 -19 -8 3 10 28 23 34 26 25 11z m675 -4 c0 -3 -5 -8 -12 -12 -7 -4 -8 -3 -4 4 7 12 16 16 16 8z m-665 -26 c-3 -5 -11 -10 -16 -10 -6 0 -7 5 -4 10 3 6 11 10 16 10 6 0 7 -4 4 -10z m-85 -14 c0 -3 -5 -8 -12 -12 -7 -4 -8 -3 -4 4 7 12 16 16 16 8z m720 -6 c0 -5 -4 -10 -10 -10 -5 0 -10 5 -10 10 0 6 5 10 10 10 6 0 10 -4 10 -10z m-795 -50 c-3 -5 -16 -15 -28 -21 -19 -9 -19 -8 3 10 28 23 34 26 25 11z m1075 -30 c6 -12 19 -17 35 -16 13 2 22 -1 19 -5 -8 -13 -37 -10 -58 6 -11 8 -16 15 -11 15 5 0 0 7 -11 15 -16 13 -16 14 -1 9 10 -4 22 -14 27 -24z m-1149 -10 c-13 -11 -28 -20 -35 -19 -7 0 -6 2 2 6 6 2 10 9 7 14 -4 5 0 6 8 3 8 -3 18 -1 22 5 3 6 9 11 13 11 4 -1 -4 -10 -17 -20z m-54 -27 c-4 -3 -10 -3 -14 0 -3 4 0 7 7 7 7 0 10 -3 7 -7z m1280 0 c-4 -3 -10 -3 -14 0 -3 4 0 7 7 7 7 0 10 -3 7 -7z m-1307 -43 c0 -6 -5 -10 -11 -10 -5 0 -7 5 -4 10 9 14 -5 12 -37 -4 -19 -10 -30 -11 -34 -4 -4 7 -2 8 5 4 6 -4 14 -1 17 8 3 9 12 12 21 9 12 -5 14 -3 8 6 -6 10 -3 11 14 2 11 -7 21 -16 21 -21z m1332 10 c-2 -7 5 -9 20 -5 21 5 21 5 5 -6 -14 -8 -22 -8 -30 0 -6 6 -7 11 -1 11 5 0 2 5 -6 11 -13 9 -13 10 0 6 8 -2 14 -10 12 -17z m75 -25 c0 -8 -4 -12 -9 -9 -5 3 -6 10 -3 15 9 13 12 11 12 -6z m-1510 -10 c0 -8 -4 -12 -9 -9 -5 3 -6 10 -3 15 9 13 12 11 12 -6z m1543 -6 c0 -5 -4 -9 -8 -9 -5 0 -9 7 -9 15 0 8 4 12 9 9 4 -3 8 -9 8 -15z m-1580 -23 c-6 -8 -19 -12 -27 -9 -11 4 -14 2 -9 -5 5 -8 2 -10 -10 -5 -15 5 -15 7 0 15 9 5 20 7 25 3 5 -3 12 -1 16 5 3 5 9 10 12 10 3 0 0 -6 -7 -14z m1634 -16 c4 0 4 5 0 12 -4 7 -3 8 4 4 6 -4 9 -13 5 -21 -7 -19 -5 -20 -34 12 -17 20 -18 23 -3 10 11 -9 24 -17 28 -17z m111 -60 c3 -5 4 -10 1 -10 -3 0 -8 5 -11 10 -3 6 -4 10 -1 10 3 0 8 -4 11 -10z m-1949 -35 c-9 -9 -16 -13 -16 -8 0 12 22 34 28 28 2 -2 -3 -11 -12 -20z m1044 5 c-6 -11 -13 -20 -16 -20 -2 0 0 9 6 20 6 11 13 20 16 20 2 0 0 -9 -6 -20z m-33 3 c-4 -3 -10 -3 -14 0 -3 4 0 7 7 7 7 0 10 -3 7 -7z m1023 -8 c0 -12 -19 -12 -23 0 -4 9 -1 12 9 8 7 -3 14 -7 14 -8z m-1055 -5 c3 -6 -1 -7 -9 -4 -18 7 -21 14 -7 14 6 0 13 -4 16 -10z m-945 -4 c0 -2 -7 -7 -16 -10 -8 -3 -12 -2 -9 4 6 10 25 14 25 6z m1965 -6 c3 -5 4 -10 1 -10 -3 0 -8 5 -11 10 -3 6 -4 10 -1 10 3 0 8 -4 11 -10z m-1110 -21 c11 -17 -1 -21 -15 -4 -8 9 -8 15 -2 15 6 0 14 -5 17 -11z m225 7 c0 -3 -5 -8 -12 -12 -7 -4 -8 -3 -4 4 7 12 16 16 16 8z m-1169 -23 c11 -15 11 -16 0 -6 -7 6 -21 9 -30 6 -14 -4 -14 -3 -1 6 8 6 16 11 16 11 1 0 8 -8 15 -17z m1199 13 c0 -2 -7 -7 -16 -10 -8 -3 -12 -2 -9 4 6 10 25 14 25 6z m937 -10 c-3 -8 1 -22 8 -33 20 -25 22 -1195 3 -1211 -10 -8 -12 111 -10 594 1 412 -1 611 -8 625 -6 10 -8 24 -5 29 9 15 18 12 12 -4z m-1242 -34 c-6 -7 -34 11 -29 19 3 5 11 3 19 -4 7 -6 12 -13 10 -15z m355 8 c-24 -15 -36 -11 -14 4 10 8 21 12 24 10 2 -3 -2 -9 -10 -14z m-1256 2 c2 -4 -4 -8 -14 -8 -10 0 -16 4 -14 8 3 4 9 8 14 8 5 0 11 -4 14 -8z m-14 -72 c0 -21 -4 -42 -10 -45 -6 -4 -10 13 -10 45 0 32 4 49 10 45 6 -3 10 -24 10 -45z m827 13 c-4 -3 -10 -3 -14 0 -3 4 0 7 7 7 7 0 10 -3 7 -7z m-7 -18 c0 -2 -6 -5 -13 -8 -8 -3 -14 1 -14 8 0 7 6 11 14 8 7 -3 13 -6 13 -8z m-43 -8 c0 -8 -6 -14 -14 -14 -9 0 -10 4 -2 14 6 7 12 13 14 13 1 0 2 -6 2 -13z m673 -31 c0 -3 -5 -8 -12 -12 -7 -4 -8 -3 -4 4 7 12 16 16 16 8z m-763 -13 c-4 -3 -10 -3 -14 0 -3 4 0 7 7 7 7 0 10 -3 7 -7z m812 -22 c-6 -2 -18 4 -27 13 -15 15 -15 15 10 4 15 -7 23 -15 17 -17z m-844 13 c13 -5 11 -9 -11 -20 -30 -16 -48 -18 -21 -3 9 6 15 14 12 20 -7 11 -3 11 20 3z m880 -3 c3 -5 2 -12 -3 -15 -5 -3 -9 1 -9 9 0 17 3 19 12 6z m-970 -61 c-11 -5 -27 -9 -35 -9 -9 0 -8 4 5 9 11 5 27 9 35 9 9 0 8 -4 -5 -9z m1032 3 c-4 -3 -10 -3 -14 0 -3 4 0 7 7 7 7 0 10 -3 7 -7z m38 -23 c3 -6 -1 -7 -9 -4 -18 7 -21 14 -7 14 6 0 13 -4 16 -10z m-1130 -50 c3 -5 4 -10 1 -10 -3 0 -8 5 -11 10 -3 6 -4 10 -1 10 3 0 8 -4 11 -10z m1165 -316 c0 -248 -3 -315 -12 -312 -10 4 -14 75 -16 304 -1 164 0 304 3 311 2 7 9 13 15 13 7 0 10 -106 10 -316z m-1075 -392 c-3 -3 -11 0 -18 7 -9 10 -8 11 6 5 10 -3 15 -9 12 -12z m972 1 c-4 -3 -7 0 -7 7 0 7 3 10 7 7 3 -4 3 -10 0 -14z m-47 -28 c-7 -8 -17 -15 -23 -15 -6 0 -2 7 9 15 25 19 30 19 14 0z m-855 -13 c-3 -3 -11 0 -18 7 -9 10 -8 11 6 5 10 -3 15 -9 12 -12z m50 -22 c-3 -5 -12 -10 -18 -10 -7 0 -6 4 3 10 19 12 23 12 15 0z m784 7 c-2 -2 -11 -8 -20 -15 -12 -9 -16 -9 -16 1 0 7 9 14 20 14 11 1 18 1 16 0z m-762 -24 c-4 -3 -7 0 -7 7 0 7 3 10 7 7 3 -4 3 -10 0 -14z m690 0 c-4 -3 -7 0 -7 7 0 7 3 10 7 7 3 -4 3 -10 0 -14z m-636 -30 c13 -17 13 -17 -6 -3 -11 8 -22 16 -24 17 -2 2 0 3 6 3 6 0 17 -8 24 -17z m36 -10 c-4 -3 -10 -3 -14 0 -3 4 0 7 7 7 7 0 10 -3 7 -7z m500 -10 c-4 -3 -10 -3 -14 0 -3 4 0 7 7 7 7 0 10 -3 7 -7z m-432 -41 c-6 -7 -34 11 -29 19 3 5 11 3 19 -4 7 -6 12 -13 10 -15z m410 10 c-3 -3 -11 0 -18 7 -9 10 -8 11 6 5 10 -3 15 -9 12 -12z m-38 -9 c-4 -3 -7 0 -7 7 0 7 3 10 7 7 3 -4 3 -10 0 -14z m-40 -30 c-14 -14 -19 -15 -29 -4 -11 10 -10 11 3 6 10 -4 20 -2 24 4 3 6 9 11 13 11 3 0 -1 -8 -11 -17z m46 -24 c-6 -6 -18 -6 -28 -3 -18 7 -18 8 1 14 23 9 39 1 27 -11z m-363 1 c0 -5 -4 -10 -9 -10 -6 0 -13 5 -16 10 -3 6 1 10 9 10 9 0 16 -4 16 -10z m277 3 c-4 -3 -10 -3 -14 0 -3 4 0 7 7 7 7 0 10 -3 7 -7z m-252 -23 c3 -5 4 -10 1 -10 -3 0 -8 5 -11 10 -3 6 -4 10 -1 10 3 0 8 -4 11 -10z m255 6 c0 -2 -7 -7 -16 -10 -8 -3 -12 -2 -9 4 6 10 25 14 25 6z m-983 -33 c-4 -3 -7 0 -7 7 0 7 3 10 7 7 3 -4 3 -10 0 -14z m850 10 c-4 -3 -10 -3 -14 0 -3 4 0 7 7 7 7 0 10 -3 7 -7z m60 0 c-4 -3 -10 -3 -14 0 -3 4 0 7 7 7 7 0 10 -3 7 -7z m-830 -9 c-3 -3 -12 -4 -19 -1 -8 3 -5 6 6 6 11 1 17 -2 13 -5z m1863 -4 c-8 -5 -17 -7 -21 -4 -4 2 -10 0 -14 -6 -3 -5 -11 -10 -18 -10 -19 0 24 26 46 27 17 2 18 0 7 -7z m-1794 -27 c-10 -10 -19 5 -10 18 6 11 8 11 12 0 2 -7 1 -15 -2 -18z m-49 0 c-4 -3 -7 0 -7 7 0 7 3 10 7 7 3 -4 3 -10 0 -14z m1718 7 c-3 -5 -11 -10 -16 -10 -6 0 -7 5 -4 10 3 6 11 10 16 10 6 0 7 -4 4 -10z m-1828 -42 c-3 -7 -5 -2 -5 12 0 14 2 19 5 13 2 -7 2 -19 0 -25z m-107 -24 c0 -15 -28 -31 -41 -23 -11 7 -11 9 4 9 9 0 17 5 17 10 0 6 5 10 10 10 6 0 10 -3 10 -6z m40 -19 c7 -9 11 -17 8 -20 -2 -2 -12 4 -21 15 -9 11 -13 20 -8 20 5 0 14 -7 21 -15z m1835 5 c-12 -19 -41 -29 -56 -18 -12 8 -11 9 3 5 9 -3 24 1 35 8 22 17 26 18 18 5z m-1764 -43 c-8 -8 -11 -3 -11 19 1 25 2 27 11 11 8 -14 8 -22 0 -30z m-54 -4 c-4 -3 -10 -3 -14 0 -3 4 0 7 7 7 7 0 10 -3 7 -7z m326 -16 c-5 -8 -8 -7 -11 1 -2 7 -9 9 -14 6 -7 -4 -8 -2 -4 4 4 6 13 9 21 6 8 -4 12 -11 8 -17z m-46 6 c-4 -3 -10 -3 -14 0 -3 4 0 7 7 7 7 0 10 -3 7 -7z m1433 -2 c0 -6 -4 -12 -8 -15 -5 -3 -9 1 -9 9 0 8 4 15 9 15 4 0 8 -4 8 -9z m-50 -32 c0 -5 -4 -9 -8 -9 -5 0 -9 7 -9 15 0 8 4 12 9 9 4 -3 8 -9 8 -15z m-1613 -6 c-4 -3 -7 0 -7 7 0 7 3 10 7 7 3 -4 3 -10 0 -14z m270 0 c-4 -3 -7 0 -7 7 0 7 3 10 7 7 3 -4 3 -10 0 -14z m50 0 c-4 -3 -7 0 -7 7 0 7 3 10 7 7 3 -4 3 -10 0 -14z m1177 -12 c3 -5 -1 -11 -9 -14 -9 -4 -12 -1 -8 9 6 16 10 17 17 5z m-1497 -48 c-3 -10 -5 -2 -5 17 0 19 2 27 5 18 2 -10 2 -26 0 -35z m160 20 c-4 -3 -7 0 -7 7 0 7 3 10 7 7 3 -4 3 -10 0 -14z m1298 7 c3 -5 4 -10 1 -10 -3 0 -8 5 -11 10 -3 6 -4 10 -1 10 3 0 8 -4 11 -10z m32 -37 c-4 -3 -7 0 -7 7 0 7 3 10 7 7 3 -4 3 -10 0 -14z m-37 -7 c0 -3 -5 -8 -12 -12 -7 -4 -8 -3 -4 4 7 12 16 16 16 8z m-30 -26 c0 -5 -2 -10 -4 -10 -3 0 -8 5 -11 10 -3 6 -1 10 4 10 6 0 11 -4 11 -10z m-1610 -44 c0 -5 -7 -1 -15 10 -8 10 -14 24 -14 29 0 6 6 1 14 -9 8 -11 15 -24 15 -30z m347 -108 c-2 -29 -3 -6 -3 52 0 58 1 81 3 53 2 -29 2 -77 0 -105z m300 145 c-4 -3 -10 -3 -14 0 -3 4 0 7 7 7 7 0 10 -3 7 -7z m-620 -30 c1 -22 -1 -24 -8 -10 -6 9 -7 22 -4 27 9 14 10 13 12 -17z m120 -10 c-3 -10 -5 -4 -5 12 0 17 2 24 5 18 2 -7 2 -21 0 -30z m40 -75 c-2 -24 -4 -7 -4 37 0 44 2 63 4 43 2 -21 2 -57 0 -80z m433 108 c0 -2 -9 -6 -20 -9 -11 -3 -18 -1 -14 4 5 9 34 13 34 5z m907 -3 c-4 -3 -10 -3 -14 0 -3 4 0 7 7 7 7 0 10 -3 7 -7z m-1007 -39 c0 -20 -4 -33 -10 -29 -11 7 -9 65 3 65 4 0 7 -16 7 -36z m937 -31 c-4 -3 -10 -3 -14 0 -3 4 0 7 7 7 7 0 10 -3 7 -7z m-737 -7 c0 -3 -5 -8 -12 -12 -7 -4 -8 -3 -4 4 7 12 16 16 16 8z m27 -23 c-4 -3 -10 -3 -14 0 -3 4 0 7 7 7 7 0 10 -3 7 -7z m-227 -19 c0 -8 -5 -12 -10 -9 -6 4 -8 11 -5 16 9 14 15 11 15 -7z m260 12 c0 -2 -7 -7 -16 -10 -8 -3 -12 -2 -9 4 6 10 25 14 25 6z m27 -13 c-4 -3 -10 -3 -14 0 -3 4 0 7 7 7 7 0 10 -3 7 -7z m558 -3 c3 -6 -1 -7 -9 -4 -18 7 -21 14 -7 14 6 0 13 -4 16 -10z m-1317 -22 c7 -7 12 -16 12 -22 0 -5 -6 -3 -12 6 -7 9 -22 18 -33 21 -20 5 -20 5 1 6 11 0 25 -4 32 -11z m1302 7 c0 -2 -10 -9 -22 -15 -22 -11 -22 -10 -4 4 21 17 26 19 26 11z m-477 -24 c-9 -11 -21 -17 -26 -14 -6 3 -2 12 8 20 27 19 37 16 18 -6z m412 9 c13 -6 15 -9 5 -9 -8 0 -22 4 -30 9 -18 12 -2 12 25 0z m-1288 -17 c-4 -3 -7 0 -7 7 0 7 3 10 7 7 3 -4 3 -10 0 -14z m176 10 c-7 -2 -19 -2 -25 0 -7 3 -2 5 12 5 14 0 19 -2 13 -5z m20 -14 c-6 -6 -19 -9 -29 -6 -16 4 -15 5 4 6 12 0 22 6 22 13 0 6 3 8 7 5 4 -4 2 -12 -4 -18z m-143 -29 c0 -10 -3 -21 -7 -23 -5 -3 -8 8 -8 23 0 15 3 26 8 23 4 -2 7 -13 7 -23z m897 13 c-4 -3 -7 0 -7 7 0 7 3 10 7 7 3 -4 3 -10 0 -14z m260 0 c-4 -3 -7 0 -7 7 0 7 3 10 7 7 3 -4 3 -10 0 -14z m-1221 -19 c-4 -16 -3 -23 3 -19 7 3 8 0 5 -9 -3 -9 -10 -13 -15 -10 -10 6 -12 48 -2 57 12 13 15 7 9 -19z m941 9 c-4 -3 -10 -3 -14 0 -3 4 0 7 7 7 7 0 10 -3 7 -7z m-412 -12 c3 -5 2 -12 -3 -15 -5 -3 -9 1 -9 9 0 17 3 19 12 6z m-48 -28 c-4 -3 -7 0 -7 7 0 7 3 10 7 7 3 -4 3 -10 0 -14z m488 7 c3 -6 -1 -7 -9 -4 -18 7 -21 14 -7 14 6 0 13 -4 16 -10z m209 -5 c-4 -8 -11 -15 -16 -15 -6 0 -5 6 2 15 7 8 14 15 16 15 2 0 1 -7 -2 -15z m-47 -2 c-4 -3 -10 -3 -14 0 -3 4 0 7 7 7 7 0 10 -3 7 -7z m-612 -12 c3 -5 0 -13 -6 -17 -7 -4 -9 -3 -5 4 3 5 0 13 -6 15 -9 4 -10 6 -1 6 6 1 14 -3 18 -8z m-447 -37 c-4 -3 -12 5 -18 18 -12 22 -12 22 6 6 10 -10 15 -20 12 -24z m285 -15 c-6 -6 -7 3 -4 23 4 28 6 29 9 9 2 -13 0 -27 -5 -32z m742 41 c-3 -5 -13 -10 -21 -10 -8 0 -12 5 -9 10 3 6 13 10 21 10 8 0 12 -4 9 -10z m-1088 -27 c-4 -3 -7 0 -7 7 0 7 3 10 7 7 3 -4 3 -10 0 -14z m200 -10 c-4 -3 -10 -3 -14 0 -3 4 0 7 7 7 7 0 10 -3 7 -7z m-164 -10 c-7 -2 -19 -2 -25 0 -7 3 -2 5 12 5 14 0 19 -2 13 -5z m163 -28 c-3 -9 -11 -13 -16 -10 -8 5 -7 11 1 21 14 18 24 11 15 -11z m164 0 c0 -2 -9 -3 -19 -2 -11 0 -18 5 -15 9 4 6 34 0 34 -7z m140 11 c0 -11 -19 -15 -25 -6 -3 5 1 10 9 10 9 0 16 -2 16 -4z m-343 -23 c-4 -3 -7 0 -7 7 0 7 3 10 7 7 3 -4 3 -10 0 -14z m150 10 c-4 -3 -10 -3 -14 0 -3 4 0 7 7 7 7 0 10 -3 7 -7z m220 -20 c-4 -3 -7 0 -7 7 0 7 3 10 7 7 3 -4 3 -10 0 -14z m-190 0 c-4 -3 -10 -3 -14 0 -3 4 0 7 7 7 7 0 10 -3 7 -7z m117 -30 c-10 -40 -14 -41 -14 -5 0 18 5 32 10 32 6 0 8 -11 4 -27z m-258 -1 c-3 -6 -15 -8 -26 -5 -12 3 -20 0 -20 -6 0 -7 -5 -9 -11 -5 -16 9 17 28 37 20 8 -3 14 0 14 6 0 6 3 9 6 5 3 -3 3 -10 0 -15z m320 -38 c2 -19 -2 -24 -13 -20 -8 3 -16 6 -19 6 -2 0 4 9 13 20 10 11 18 20 18 20 0 0 1 -12 1 -26z m-179 9 c-4 -3 -10 -3 -14 0 -3 4 0 7 7 7 7 0 10 -3 7 -7z m143 3 c0 -3 -5 -8 -12 -12 -7 -4 -8 -3 -4 4 7 12 16 16 16 8z m-136 -32 c3 -8 2 -12 -4 -9 -6 3 -10 10 -10 16 0 14 7 11 14 -7z m-49 -54 c-3 -80 -15 -90 -15 -13 0 50 5 73 16 73 1 0 1 -27 -1 -60z m75 -46 c0 -19 -24 -44 -43 -43 -21 0 -21 1 -2 9 11 5 16 9 11 9 -11 1 13 31 25 31 5 0 9 -3 9 -6z"/>
 <path d="M1274 378 c-4 -7 -3 -8 4 -4 12 7 16 16 8 16 -3 0 -8 -5 -12 -12z"/>
 </g>
<g id="layer104" fill="#076cd9" stroke="none">
 <path d="M0 2000 l0 -2000 2000 0 2000 0 0 2000 0 2000 -2000 0 -2000 0 0 -2000z m2078 1638 c16 -16 15 -80 -1 -102 -9 -12 -23 -17 -42 -14 -26 3 -30 7 -32 38 -2 34 -2 34 8 8 12 -31 35 -43 53 -26 18 17 8 48 -12 41 -10 -4 -14 -3 -10 2 4 4 3 16 -3 27 -10 19 -11 19 -24 1 -14 -17 -14 -17 -15 3 0 11 3 24 7 27 11 11 58 8 71 -5z m142 -93 c0 -8 5 -15 12 -15 6 0 9 -3 6 -6 -4 -3 -16 0 -28 6 -31 17 -41 -2 -37 -68 4 -59 19 -84 39 -64 14 14 14 16 16 75 2 49 22 39 22 -11 -1 -37 -28 -82 -49 -82 -6 0 -20 8 -31 17 -15 13 -20 30 -20 71 0 29 5 62 10 73 13 23 60 26 60 4z m164 6 c4 -1 6 -8 3 -16 -4 -8 -2 -17 3 -20 30 -18 -7 -98 -42 -93 -26 4 -54 43 -39 53 6 3 15 -2 19 -12 9 -24 39 -25 45 -2 3 11 0 19 -6 19 -8 0 -7 4 1 12 16 16 15 23 -3 42 -16 15 -45 12 -45 -6 0 -5 4 -7 8 -4 4 2 9 -7 10 -20 2 -22 -1 -23 -18 -14 -23 12 -25 23 -8 50 9 14 21 19 38 16 14 -2 29 -5 34 -5z m-315 -110 c5 -9 10 -66 9 -126 0 -92 3 -111 18 -122 27 -20 54 1 54 43 0 45 15 74 39 74 38 0 45 -25 42 -163 -1 -73 -4 -139 -7 -149 -3 -10 7 -24 27 -39 31 -22 32 -22 45 -4 8 11 14 44 14 80 0 34 5 66 11 72 8 8 8 13 0 17 -14 9 -15 222 -1 231 6 4 10 -36 10 -112 1 -65 2 -154 3 -197 2 -75 0 -80 -25 -99 -23 -17 -31 -19 -53 -9 -36 17 -57 70 -47 124 6 40 8 96 4 190 -2 28 -6 36 -19 34 -14 -2 -18 -13 -20 -47 -1 -24 -6 -45 -12 -47 -6 -2 -8 -9 -4 -15 3 -7 3 -9 -2 -5 -4 4 -14 3 -21 -3 -20 -16 -52 -1 -70 32 -11 23 -14 54 -12 130 3 88 1 102 -14 110 -25 14 -31 -21 -26 -153 l5 -110 -41 -26 c-23 -14 -47 -27 -54 -28 -22 -4 -1 16 36 34 l37 17 3 135 c1 74 7 137 12 140 20 12 50 8 59 -9z m472 -31 c16 -9 19 -22 19 -86 0 -82 -9 -95 -59 -78 -24 9 -26 14 -29 78 -4 89 16 114 69 86z m-151 -198 c4 -130 8 -165 20 -172 38 -24 60 -1 60 65 0 28 6 60 14 70 12 16 17 17 37 7 13 -7 16 -10 7 -8 -21 6 -29 -5 -34 -47 -2 -18 -7 -45 -9 -62 -6 -36 -44 -86 -51 -68 -3 7 -13 9 -22 6 -9 -3 -14 -2 -9 2 4 5 -1 17 -10 27 -15 17 -18 42 -19 167 -1 144 -6 177 -25 166 -5 -4 -9 -1 -9 5 0 6 10 10 23 8 22 -3 22 -6 27 -166z m150 -58 c0 -2 -7 -4 -15 -4 -8 0 -15 4 -15 10 0 5 7 7 15 4 8 -4 15 -8 15 -10z m-503 -11 c-4 -3 -7 0 -7 7 0 7 3 10 7 7 3 -4 3 -10 0 -14z m512 -121 c2 -112 -3 -152 -18 -152 -3 0 -5 43 -3 95 3 79 1 96 -12 101 -9 3 -16 10 -16 16 0 5 4 7 9 4 5 -3 14 8 20 24 5 17 12 30 14 30 3 0 5 -53 6 -118z m-633 62 c1 -9 -1 -13 -4 -9 -4 4 -7 10 -7 13 0 4 -4 14 -9 22 -7 12 -6 13 4 3 8 -7 15 -20 16 -29z m-31 16 c4 -6 3 -9 -2 -8 -13 3 -73 -31 -73 -42 0 -6 -6 -10 -13 -10 -8 0 -24 -9 -37 -20 -28 -24 -29 -24 -26 -4 1 9 34 33 72 55 80 45 71 42 79 29z m-171 -99 c3 -5 -3 -11 -14 -14 -20 -5 -26 3 -13 16 9 10 21 9 27 -2z m-60 -32 c-10 -12 -32 -28 -49 -35 -16 -8 -40 -21 -52 -30 -13 -9 -23 -12 -23 -6 0 14 40 42 60 42 8 1 29 12 45 25 37 31 44 32 19 4z m1 -39 c-3 -5 -11 -10 -16 -10 -6 0 -7 5 -4 10 3 6 11 10 16 10 6 0 7 -4 4 -10z m635 -20 c0 -5 -4 -10 -10 -10 -5 0 -10 5 -10 10 0 6 5 10 10 10 6 0 10 -4 10 -10z m-770 -20 c0 -5 -4 -10 -10 -10 -5 0 -10 5 -10 10 0 6 5 10 10 10 6 0 10 -4 10 -10z m-25 -31 c-4 -5 -15 -14 -27 -20 -16 -9 -19 -8 -12 3 4 7 -6 1 -24 -14 -17 -14 -45 -29 -62 -33 -17 -4 -28 -11 -25 -16 4 -5 -2 -6 -12 -2 -15 5 -16 3 -5 -8 15 -16 16 -29 1 -29 -5 0 -7 5 -3 11 9 16 -34 1 -68 -22 -14 -11 -30 -19 -36 -19 -5 0 -15 -6 -22 -14 -6 -8 -19 -12 -28 -9 -9 3 -14 3 -10 -1 3 -4 -26 -24 -65 -45 -93 -49 -148 -87 -139 -95 3 -4 -1 -4 -10 -1 -9 4 -19 2 -23 -4 -8 -13 -25 -14 -25 -2 0 5 46 35 103 67 56 31 134 76 172 99 81 49 157 92 200 113 17 9 41 24 54 34 15 11 32 16 44 12 14 -4 17 -3 12 6 -5 9 -4 11 4 6 6 -4 9 -12 6 -17z m1133 -41 c29 -16 50 -34 47 -39 -4 -5 0 -6 8 -3 8 3 50 -16 93 -43 43 -26 86 -52 96 -58 9 -5 45 -25 80 -43 34 -19 77 -45 95 -58 17 -13 38 -24 45 -24 8 -1 6 -6 -6 -15 -11 -8 -14 -15 -7 -15 7 0 10 -4 6 -9 -3 -5 -1 -12 5 -16 7 -4 10 -213 10 -613 0 -606 0 -607 -21 -620 -12 -7 -23 -11 -26 -9 -2 3 -15 -5 -28 -17 -13 -11 -50 -34 -82 -51 -32 -16 -60 -32 -63 -35 -8 -9 -151 -90 -159 -90 -4 0 -8 6 -8 14 0 8 8 11 20 8 14 -3 18 -1 13 6 -5 8 -1 10 11 5 10 -3 15 -2 10 2 -4 5 7 14 25 20 18 6 32 16 30 23 -1 7 4 12 11 12 22 0 119 51 185 98 l62 44 -4 611 c-2 337 -5 620 -7 630 -2 10 -9 15 -17 12 -7 -2 -11 -1 -8 4 3 5 -1 14 -9 21 -8 7 -15 9 -15 5 0 -5 -8 -1 -18 8 -9 8 -28 21 -42 26 -14 6 -46 25 -72 41 -27 16 -48 24 -48 18 0 -7 -13 0 -28 15 -15 15 -33 27 -39 27 -6 0 -22 9 -36 20 -14 11 -36 19 -49 18 -14 -2 -22 2 -20 10 1 6 -3 12 -9 12 -5 0 -7 5 -4 10 3 6 -1 10 -9 10 -9 0 -16 4 -16 9 0 5 -9 7 -19 4 -11 -3 -30 2 -43 11 -12 9 -18 16 -13 16 5 0 0 7 -11 16 -18 14 -18 15 6 8 14 -3 49 -20 78 -36z m-585 -226 c-5 -21 38 -49 58 -37 8 6 10 4 4 -5 -6 -9 -1 -10 16 -5 19 5 21 4 9 -4 -13 -10 -13 -12 0 -21 20 -13 44 -12 58 2 9 9 12 9 12 0 0 -7 -4 -12 -10 -12 -22 0 -8 -21 28 -39 20 -11 31 -20 24 -21 -7 0 -65 29 -128 65 -63 36 -119 63 -124 60 -6 -3 -18 -1 -27 4 -19 11 -19 11 49 15 9 1 20 4 24 9 11 11 13 9 7 -11z m-1013 -16 c0 -2 -7 -7 -16 -10 -8 -3 -12 -2 -9 4 6 10 25 14 25 6z m1965 -6 c3 -5 4 -10 1 -10 -3 0 -8 5 -11 10 -3 6 -4 10 -1 10 3 0 8 -4 11 -10z m-1045 -20 c-24 -15 -37 -11 -16 5 11 8 22 12 25 9 3 -3 -1 -9 -9 -14z m-57 -5 c18 -13 18 -14 -5 -28 -76 -47 -241 -137 -245 -133 -2 2 -15 -6 -27 -18 -13 -11 -54 -37 -92 -56 -89 -45 -84 -43 -84 -31 0 6 8 11 18 12 14 0 14 2 -3 9 -17 6 -14 9 20 16 22 4 43 8 48 9 4 0 7 4 6 9 0 5 6 13 15 18 9 5 14 13 11 19 -8 12 2 11 27 -2 18 -10 20 -9 15 5 -4 11 -2 16 6 14 7 -2 30 8 52 21 22 14 43 24 48 23 4 -1 7 2 7 7 0 5 22 17 50 26 53 18 70 33 50 45 -9 5 -9 9 -1 14 6 4 11 2 11 -3 0 -13 30 -14 49 -2 12 8 12 12 2 25 -16 20 -3 20 22 1z m-948 -15 c3 -5 4 -10 1 -10 -3 0 -8 5 -11 10 -3 6 -4 10 -1 10 3 0 8 -4 11 -10z m-11 -18 c2 -4 -4 -8 -14 -8 -10 0 -16 4 -14 8 3 4 9 8 14 8 5 0 11 -4 14 -8z m-14 -72 c0 -21 -4 -42 -10 -45 -6 -4 -10 13 -10 45 0 32 4 49 10 45 6 -3 10 -24 10 -45z m1404 -24 c29 -14 44 -26 37 -30 -6 -4 -32 6 -58 23 -55 36 -47 39 21 7z m105 -51 c18 -5 22 -4 16 5 -5 9 -4 11 4 6 9 -6 9 -11 -1 -24 -11 -13 -10 -15 4 -9 11 4 17 2 15 -6 -1 -7 10 -13 26 -15 15 -2 25 -8 22 -13 -4 -5 3 -9 14 -9 20 0 38 -17 28 -26 -9 -9 -146 71 -160 93 -5 8 -13 10 -19 7 -7 -4 -8 -2 -4 5 5 8 12 9 19 3 7 -5 23 -13 36 -17z m-989 -440 c0 -193 -4 -316 -10 -320 -6 -4 -10 111 -12 318 -2 256 0 323 10 320 9 -4 12 -77 12 -318z m1150 -1 c0 -248 -3 -315 -12 -312 -10 4 -14 75 -16 304 -1 164 0 304 3 311 2 7 9 13 15 13 7 0 10 -106 10 -316z m-1122 -346 c19 -19 14 -29 -8 -16 -20 13 -27 28 -12 28 4 0 13 -5 20 -12z m1082 -3 c-7 -8 -17 -15 -22 -15 -6 0 -5 7 2 15 7 8 17 15 22 15 6 0 5 -7 -2 -15z m-43 -32 c-4 -3 -7 0 -7 7 0 7 3 10 7 7 3 -4 3 -10 0 -14z m-937 -24 c25 -15 78 -45 118 -65 39 -21 72 -41 72 -46 0 -4 5 -8 11 -8 16 0 209 -113 209 -122 0 -10 -17 -10 -22 0 -5 13 -124 82 -141 82 -9 0 -22 6 -29 13 -7 7 -34 23 -60 36 -27 12 -48 26 -48 31 0 9 -39 23 -59 20 -8 -1 -10 3 -5 11 5 9 2 10 -10 6 -10 -4 -15 -3 -11 3 3 6 0 10 -8 10 -8 0 -22 9 -32 20 -10 11 -26 20 -36 20 -10 0 -20 4 -23 8 -11 18 31 7 74 -19z m920 21 c0 -5 -6 -10 -13 -10 -8 0 -22 -9 -32 -20 -10 -11 -24 -20 -31 -20 -7 0 -16 -4 -19 -10 -4 -6 1 -7 12 -3 19 7 18 5 -11 -17 -13 -10 -17 -10 -12 -2 10 16 6 15 -48 -8 -25 -10 -46 -24 -46 -29 0 -6 -11 -13 -25 -17 -14 -3 -22 -10 -19 -15 3 -5 -3 -6 -12 -2 -12 4 -15 3 -10 -6 5 -8 3 -11 -5 -10 -21 3 -52 -12 -68 -34 -7 -10 -19 -16 -27 -13 -8 3 -14 1 -14 -4 0 -6 -7 -10 -15 -10 -8 0 -15 5 -15 10 0 10 21 14 49 11 8 -2 10 2 5 10 -4 7 -3 10 3 6 6 -4 13 0 17 8 3 8 20 21 38 30 18 8 89 49 158 89 132 78 140 82 140 66z m-297 -231 c-6 -6 -18 -6 -28 -3 -18 7 -18 8 1 14 23 9 39 1 27 -11z m-363 1 c0 -5 -4 -10 -9 -10 -6 0 -13 5 -16 10 -3 6 1 10 9 10 9 0 16 -4 16 -10z m222 -21 c-13 -11 -30 -19 -40 -17 -13 3 -10 8 13 20 42 22 53 21 27 -3z m-197 1 c3 -5 4 -10 1 -10 -3 0 -8 5 -11 10 -3 6 -4 10 -1 10 3 0 8 -4 11 -10z m255 6 c0 -2 -7 -7 -16 -10 -8 -3 -12 -2 -9 4 6 10 25 14 25 6z m-969 -30 c14 9 10 -12 -5 -25 -9 -8 -12 -22 -7 -44 9 -47 1 -397 -10 -397 -5 0 -6 95 -4 223 6 263 6 266 12 249 3 -6 9 -10 14 -6z m77 -9 c8 -9 12 -101 12 -273 1 -360 1 -346 -10 -339 -6 4 -10 118 -10 310 l0 304 -27 4 -28 4 26 2 c15 0 31 -5 37 -12z m58 -24 c-10 -10 -19 5 -10 18 6 11 8 11 12 0 2 -7 1 -15 -2 -18z m1669 7 c-3 -5 -11 -10 -16 -10 -6 0 -7 5 -4 10 3 6 11 10 16 10 6 0 7 -4 4 -10z m-1935 -71 c0 -5 5 -7 10 -4 11 7 40 -11 40 -24 0 -4 -15 -8 -32 -9 -18 -2 -36 -6 -40 -10 -3 -4 -9 -45 -12 -92 -10 -161 -8 -155 -38 -158 -28 -3 -34 7 -37 63 -1 23 2 26 11 17 7 -7 12 -24 13 -39 0 -17 6 -27 18 -29 20 -3 21 0 6 28 -8 14 -8 23 0 31 6 6 11 47 11 92 0 51 5 86 12 93 10 10 10 15 -2 23 -12 9 -11 10 7 6 15 -3 20 -1 16 9 -3 8 0 14 6 14 6 0 11 -5 11 -11z m57 -56 c-4 -3 -10 -3 -14 0 -3 4 0 7 7 7 7 0 10 -3 7 -7z m324 -16 c-5 -5 -7 -17 -4 -26 5 -14 4 -14 -12 1 -21 20 -13 51 10 42 11 -5 13 -10 6 -17z m-88 -8 c-8 -8 -13 -7 -18 2 -5 8 -4 10 3 5 7 -4 12 -2 12 5 0 7 3 9 7 6 4 -4 2 -12 -4 -18z m44 14 c-4 -3 -10 -3 -14 0 -3 4 0 7 7 7 7 0 10 -3 7 -7z m-275 -167 l0 -146 30 0 c37 0 33 -24 -5 -28 -21 -3 -29 2 -37 23 -17 46 -11 319 7 301 2 -2 5 -70 5 -150z m365 127 c-4 -3 -7 0 -7 7 0 7 3 10 7 7 3 -4 3 -10 0 -14z m-147 -233 c1 -238 0 -249 -37 -250 -18 0 -44 30 -37 42 4 7 10 4 16 -6 8 -14 13 -15 24 -5 12 10 13 9 8 -7 -5 -15 -4 -16 4 -4 7 9 7 19 2 26 -6 6 -7 14 -3 17 3 4 7 96 8 204 2 216 3 229 10 222 2 -3 5 -110 5 -239z m1324 221 c3 -5 -1 -11 -9 -14 -9 -4 -12 -1 -8 9 6 16 10 17 17 5z m80 -3 c-4 -13 -97 -68 -112 -68 -11 1 39 40 52 40 6 0 22 9 36 20 30 23 31 24 24 8z m-1296 -345 c1 -2 10 -3 20 -3 15 0 17 11 14 120 -3 85 0 120 8 120 16 0 12 -233 -4 -256 -17 -23 -60 -10 -53 17 3 10 1 22 -4 25 -11 6 -12 307 -1 318 4 4 10 -70 13 -166 3 -95 6 -174 7 -175z m1177 327 c3 -5 4 -10 1 -10 -3 0 -8 5 -11 10 -3 6 -4 10 -1 10 3 0 8 -4 11 -10z m-5 -50 c0 -11 -58 -50 -74 -50 -11 0 20 29 50 47 24 15 24 15 24 3z m-993 -27 c-4 -3 -10 -3 -14 0 -3 4 0 7 7 7 7 0 10 -3 7 -7z m-90 -20 c-4 -3 -7 0 -7 7 0 7 3 10 7 7 3 -4 3 -10 0 -14z m48 7 c-12 -5 -14 -9 -6 -9 8 -1 12 -4 8 -7 -9 -9 -28 6 -22 17 4 5 14 9 23 8 14 0 13 -2 -3 -9z m922 3 c-4 -3 -10 -3 -14 0 -3 4 0 7 7 7 7 0 10 -3 7 -7z m-12 -43 c-10 -11 -25 -20 -34 -20 -10 0 -4 8 14 19 39 25 42 25 20 1z m-816 -26 c8 -2 17 -7 20 -13 3 -5 18 -13 34 -16 15 -4 24 -12 21 -17 -4 -6 2 -8 17 -3 19 5 21 4 9 -4 -13 -10 -13 -11 0 -12 8 -1 18 -1 23 0 4 0 7 -4 7 -10 0 -7 12 -9 33 -6 17 3 26 3 20 0 -24 -9 -13 -33 17 -39 17 -4 30 -11 30 -15 0 -5 16 -17 35 -26 29 -14 47 -33 30 -33 -5 0 -140 80 -195 115 -19 13 -62 37 -95 55 -33 18 -67 39 -75 47 -11 11 -5 10 20 -3 19 -10 41 -19 49 -20z m738 -19 c-15 -14 -38 -25 -50 -24 l-22 0 23 11 c12 6 22 15 22 20 0 5 4 7 9 3 5 -3 12 -1 16 5 3 5 12 10 18 10 7 0 -1 -12 -16 -25z m-74 -31 c8 -8 -23 -32 -94 -72 -61 -34 -69 -37 -69 -23 0 5 16 15 35 21 35 12 46 33 23 44 -7 3 -3 3 10 0 27 -7 84 14 76 27 -6 10 9 12 19 3z m-1314 -28 c13 -16 10 -86 -4 -86 -5 0 -10 13 -10 29 0 16 3 27 7 25 4 -3 5 1 3 8 -8 20 -43 20 -49 0 -2 -9 -8 -28 -11 -41 -5 -16 -4 -21 4 -17 7 5 9 1 5 -8 -10 -27 -24 -7 -24 34 0 58 49 93 79 56z m898 -43 c-4 -3 -7 0 -7 7 0 7 3 10 7 7 3 -4 3 -10 0 -14z m260 0 c-4 -3 -7 0 -7 7 0 7 3 10 7 7 3 -4 3 -10 0 -14z m-17 -41 c0 -4 -27 -22 -60 -40 l-60 -31 -33 20 c-17 12 -24 18 -13 15 10 -4 25 -1 32 5 7 6 19 9 26 6 8 -3 3 -9 -12 -15 -19 -8 -20 -11 -7 -11 22 -1 69 22 86 43 14 17 41 22 41 8z m-73 -9 c-4 -3 -10 -3 -14 0 -3 4 0 7 7 7 7 0 10 -3 7 -7z m-1059 -40 c-2 -22 -9 -29 -31 -31 -34 -4 -63 16 -47 32 7 7 13 7 18 1 4 -6 15 -11 26 -13 15 -3 18 1 13 17 -3 14 0 21 10 21 10 0 13 -9 11 -27z m131 -7 c7 -8 11 -36 9 -63 -3 -41 -6 -48 -23 -46 -11 1 -22 -2 -25 -7 -3 -5 -12 -5 -20 0 -12 7 -12 12 -2 22 6 6 12 8 12 3 0 -6 11 -10 25 -10 26 0 36 27 15 40 -8 5 -7 11 0 20 7 8 9 18 6 23 -8 13 -46 22 -46 11 0 -5 -8 -9 -17 -9 -16 1 -16 2 1 15 25 19 50 19 65 1z m329 -48 c7 -7 11 -21 11 -32 -1 -17 -2 -18 -6 -4 -5 18 -49 36 -60 24 -4 -4 -8 -22 -9 -42 -1 -25 3 -34 12 -30 8 3 11 0 7 -10 -8 -21 3 -17 30 12 l24 25 -3 -23 c-1 -13 -3 -26 -3 -30 -2 -14 -49 -8 -65 8 -19 19 -21 79 -3 99 15 18 49 19 65 3z m-361 -15 c-4 -3 -7 0 -7 7 0 7 3 10 7 7 3 -4 3 -10 0 -14z m191 -76 c6 -7 7 -18 3 -26 -6 -9 -11 -10 -15 -2 -4 6 -5 15 -2 20 4 5 -3 7 -13 4 -16 -4 -20 -16 -23 -65 -2 -42 1 -62 9 -65 7 -3 10 -10 6 -17 -3 -6 6 0 20 13 19 17 27 36 30 70 3 46 3 45 5 -10 3 -72 -14 -98 -55 -84 -27 10 -28 14 -31 79 -3 71 7 96 38 96 10 0 22 -6 28 -13z"/>
 <path d="M2512 3401 c-13 -8 -20 -136 -8 -148 17 -17 41 29 42 82 1 56 -11 80 -34 66z"/>
 <path d="M1414 2828 c-4 -7 -3 -8 4 -4 12 7 16 16 8 16 -3 0 -8 -5 -12 -12z"/>
 <path d="M2575 2820 c3 -5 8 -10 11 -10 3 0 2 5 -1 10 -3 6 -8 10 -11 10 -3 0 -2 -4 1 -10z"/>
 <path d="M2673 2753 c4 -3 10 -3 14 0 3 4 0 7 -7 7 -7 0 -10 -3 -7 -7z"/>
 <path d="M2817 2689 c7 -7 15 -10 18 -7 3 3 -2 9 -12 12 -14 6 -15 5 -6 -5z"/>
 <path d="M1473 2303 c4 -3 10 -3 14 0 3 4 0 7 -7 7 -7 0 -10 -3 -7 -7z"/>
 </g>
<g id="layer105" fill="#3891e5" stroke="none">
 <path d="M0 2000 l0 -2000 2000 0 2000 0 0 2000 0 2000 -2000 0 -2000 0 0 -2000z m2078 1638 c17 -17 15 -93 -2 -107 -8 -7 -27 -11 -43 -9 -26 3 -28 7 -31 52 -2 27 -1 55 2 62 7 17 58 18 74 2z m156 -100 c18 -26 21 -109 6 -139 -7 -12 -21 -19 -40 -19 -37 0 -50 23 -50 90 0 28 5 60 10 71 14 26 55 24 74 -3z m150 6 c34 -33 9 -124 -34 -124 -40 0 -64 75 -40 121 13 23 53 25 74 3z m-320 -96 c11 -17 15 -53 15 -133 -1 -92 2 -111 17 -122 27 -20 54 1 54 43 0 45 15 74 39 74 38 0 45 -25 42 -155 -3 -148 4 -192 31 -200 43 -14 48 6 48 204 0 203 5 226 51 219 l24 -3 5 -163 c4 -130 8 -165 20 -172 38 -24 60 -1 60 63 0 56 13 87 38 87 37 0 42 -19 42 -175 l0 -150 275 -159 275 -159 0 -636 0 -636 -412 -239 c-227 -132 -475 -275 -550 -318 -123 -72 -139 -78 -160 -68 -47 25 -474 273 -500 291 l-28 20 0 -134 c0 -132 -6 -157 -36 -157 -7 0 -20 7 -28 16 -13 13 -16 46 -16 203 0 197 -5 220 -44 205 -33 -12 -37 -43 -36 -269 1 -124 -1 -229 -5 -235 -9 -15 -42 -12 -59 6 -14 13 -16 58 -16 335 l0 319 -26 6 c-15 4 -30 2 -37 -5 -8 -8 -13 -84 -15 -239 -2 -125 -5 -233 -7 -239 -2 -7 -16 -13 -30 -13 -38 0 -46 35 -44 201 1 81 -2 152 -5 158 -8 13 -52 15 -60 2 -3 -4 -6 -53 -7 -107 -1 -54 -5 -109 -10 -121 -10 -27 -54 -32 -63 -7 -3 9 -6 386 -6 840 l0 823 32 17 c18 9 96 54 173 99 77 45 255 148 395 229 140 82 310 180 377 220 l123 71 0 131 c0 129 6 154 37 154 7 0 19 -10 27 -22z m485 -42 c7 -9 11 -42 9 -88 -3 -72 -3 -73 -31 -76 -45 -5 -57 12 -57 87 0 39 5 72 12 79 16 16 53 15 67 -2z m-1570 -2610 c7 -9 11 -42 9 -88 -3 -72 -3 -73 -31 -76 -45 -5 -57 13 -57 84 0 44 5 67 16 78 19 20 48 21 63 2z m139 -138 c16 -16 16 -100 0 -116 -34 -34 -78 1 -78 62 0 46 13 66 45 66 12 0 26 -5 33 -12z m330 -50 c13 -13 16 -75 6 -102 -7 -19 -55 -21 -72 -4 -7 7 -12 30 -12 53 0 46 13 65 45 65 12 0 26 -5 33 -12z m-160 -90 c16 -16 16 -140 0 -156 -15 -15 -51 -15 -66 0 -7 7 -12 40 -12 78 0 70 10 90 45 90 12 0 26 -5 33 -12z"/>
 <path d="M1725 2425 c-148 -85 -274 -158 -280 -162 -6 -5 -9 -127 -7 -339 l3 -330 271 -154 c150 -85 279 -154 287 -154 9 0 139 69 289 154 l272 154 -2 335 -3 335 -60 34 c-33 19 -109 62 -170 97 -60 34 -158 90 -217 123 -60 34 -109 62 -110 61 -2 0 -124 -69 -273 -154z"/>
 </g>
<g id="layer106" fill="#cfe1f7" stroke="none">
 <path d="M0 2000 l0 -2000 2000 0 2000 0 0 2000 0 2000 -2000 0 -2000 0 0 -2000z m2078 1638 c17 -17 15 -93 -2 -107 -8 -7 -27 -11 -43 -9 -26 3 -28 7 -31 52 -2 27 -1 55 2 62 7 17 58 18 74 2z m156 -100 c18 -26 21 -109 6 -139 -7 -12 -21 -19 -40 -19 -37 0 -50 23 -50 90 0 28 5 60 10 71 14 26 55 24 74 -3z m150 6 c34 -33 9 -124 -34 -124 -40 0 -64 75 -40 121 13 23 53 25 74 3z m-320 -96 c11 -17 15 -53 15 -133 -1 -92 2 -111 17 -122 27 -20 54 1 54 43 0 45 15 74 39 74 38 0 45 -25 42 -155 -3 -148 4 -192 31 -200 43 -14 48 6 48 204 0 203 5 226 51 219 l24 -3 5 -163 c4 -130 8 -165 20 -172 38 -24 60 -1 60 63 0 56 13 87 38 87 37 0 42 -19 42 -175 l0 -150 275 -159 275 -159 0 -636 0 -636 -412 -239 c-227 -132 -474 -275 -550 -318 l-136 -79 -34 17 c-18 9 -123 70 -234 134 -110 65 -219 127 -242 139 l-42 21 0 -128 c0 -127 -6 -152 -36 -152 -7 0 -20 7 -28 16 -13 13 -16 46 -16 203 0 197 -5 220 -44 205 -33 -12 -37 -43 -36 -269 1 -124 -1 -229 -5 -235 -9 -15 -42 -12 -59 6 -14 13 -16 58 -16 335 l0 319 -26 6 c-15 4 -30 2 -37 -5 -8 -8 -13 -84 -15 -239 -2 -125 -5 -233 -7 -239 -2 -7 -16 -13 -30 -13 -38 0 -46 35 -44 201 1 81 -2 152 -5 158 -8 13 -52 15 -60 2 -3 -4 -6 -53 -7 -107 -1 -54 -5 -109 -10 -121 -10 -27 -54 -32 -63 -7 -3 9 -6 386 -6 840 l0 823 32 17 c18 9 96 54 173 99 77 45 255 148 395 229 140 82 310 180 377 220 l123 71 0 131 c0 129 6 154 37 154 7 0 19 -10 27 -22z m485 -42 c7 -9 11 -42 9 -88 -3 -72 -3 -73 -31 -76 -45 -5 -57 12 -57 87 0 39 5 72 12 79 16 16 53 15 67 -2z m-1570 -2610 c7 -9 11 -42 9 -88 -3 -72 -3 -73 -31 -76 -45 -5 -57 13 -57 84 0 44 5 67 16 78 19 20 48 21 63 2z m139 -138 c16 -16 16 -100 0 -116 -34 -34 -78 1 -78 62 0 46 13 66 45 66 12 0 26 -5 33 -12z m330 -50 c13 -13 16 -75 6 -102 -7 -19 -55 -21 -72 -4 -7 7 -12 30 -12 53 0 46 13 65 45 65 12 0 26 -5 33 -12z m-160 -90 c16 -16 16 -140 0 -156 -15 -15 -51 -15 -66 0 -7 7 -12 40 -12 78 0 70 10 90 45 90 12 0 26 -5 33 -12z"/>
 <path d="M1720 2422 l-275 -158 -3 -335 -2 -335 272 -154 c149 -85 279 -154 287 -154 9 0 139 69 289 154 l272 154 -2 335 -3 335 -60 34 c-33 19 -109 62 -170 97 -60 34 -158 90 -217 123 -60 34 -109 62 -110 61 -2 0 -127 -71 -278 -157z"/>
 </g>
<g id="layer107" fill="#d5f8ff" stroke="none">
 <path d="M0 2000 l0 -2000 2000 0 2000 0 0 2000 0 2000 -2000 0 -2000 0 0 -2000z m2078 1638 c7 -7 12 -30 12 -53 0 -23 -5 -46 -12 -53 -18 -18 -66 -15 -76 6 -10 20 -9 83 2 100 9 16 59 15 74 0z m314 -103 c13 -17 9 -70 -8 -93 -31 -45 -84 -11 -84 53 0 67 55 91 92 40z m-161 15 c16 -9 19 -22 19 -74 0 -77 -19 -108 -62 -100 -30 7 -38 26 -38 97 0 79 28 105 81 77z m-167 -102 c11 -17 15 -53 15 -133 -1 -92 2 -111 17 -122 27 -20 54 1 54 43 0 45 15 74 39 74 38 0 45 -25 42 -155 -3 -148 4 -192 31 -200 44 -14 48 5 48 215 0 217 3 230 54 210 l26 -10 0 -154 c0 -127 3 -157 16 -170 35 -36 64 -10 64 57 0 56 13 87 38 87 37 0 42 -19 42 -175 l0 -151 112 -64 c61 -36 137 -79 167 -96 31 -16 76 -43 100 -58 25 -16 56 -34 70 -40 14 -7 43 -22 64 -35 l37 -23 0 -637 0 -637 -72 -42 c-40 -24 -80 -47 -88 -52 -8 -5 -87 -50 -175 -100 -88 -51 -167 -98 -175 -104 -8 -7 -23 -16 -33 -20 -11 -3 -134 -73 -275 -155 -142 -83 -264 -152 -272 -156 -8 -3 -49 14 -90 38 -41 24 -163 94 -270 156 l-195 112 -3 -127 c-1 -73 -7 -133 -14 -141 -14 -17 -33 -16 -52 3 -13 13 -16 46 -16 203 0 197 -5 220 -44 205 -32 -12 -37 -43 -36 -252 0 -114 1 -217 0 -229 0 -34 -32 -47 -59 -22 -21 19 -21 26 -21 339 l0 320 -26 6 c-46 12 -49 0 -51 -254 l-3 -237 -30 -3 c-44 -5 -51 25 -49 199 1 81 -2 152 -5 158 -8 13 -52 15 -60 2 -3 -4 -6 -53 -7 -107 -1 -54 -5 -109 -10 -121 -10 -27 -54 -32 -63 -7 -3 9 -6 386 -6 839 l0 823 37 23 c21 13 45 27 53 31 8 5 33 19 55 33 22 13 54 30 72 38 17 9 57 32 90 53 32 21 70 44 84 50 23 11 220 124 586 338 l123 71 0 131 c0 129 6 154 37 154 7 0 19 -10 27 -22z m492 -50 c6 -7 8 -43 5 -83 -6 -68 -7 -70 -34 -73 -46 -5 -57 12 -57 89 0 58 3 70 22 83 22 16 45 10 64 -16z m-1575 -2600 c12 -10 14 -28 10 -87 -6 -73 -7 -75 -36 -83 -42 -11 -55 11 -55 88 0 44 5 67 16 78 19 19 45 20 65 4z m136 -140 c6 -7 13 -35 15 -61 5 -39 2 -49 -13 -57 -46 -25 -79 2 -79 64 0 23 5 47 12 54 16 16 53 15 65 0z m330 -50 c17 -22 22 -82 8 -101 -30 -41 -95 -5 -95 52 0 48 61 82 87 49z m-159 -90 c16 -16 16 -140 0 -156 -15 -15 -51 -15 -66 0 -7 7 -12 40 -12 78 0 70 10 90 45 90 12 0 26 -5 33 -12z"/>
 <path d="M1834 2487 c-88 -51 -172 -100 -187 -110 -15 -10 -62 -36 -105 -58 -42 -23 -83 -46 -89 -51 -10 -8 -13 -89 -13 -343 l0 -332 50 -27 c27 -15 55 -24 60 -21 6 4 9 2 8 -5 -4 -15 433 -262 452 -255 8 4 135 74 282 157 l268 152 0 333 0 333 -22 14 c-13 8 -55 31 -94 53 -39 21 -106 59 -150 84 -151 88 -294 169 -296 168 -2 0 -75 -42 -164 -92z"/>
 </g>
<g id="layer108" fill="#feffff" stroke="none">
 <path d="M0 2000 l0 -2000 2000 0 2000 0 0 2000 0 2000 -2000 0 -2000 0 0 -2000z m2053 1655 c20 0 33 -9 47 -30 18 -30 19 -31 0 -72 -21 -48 -50 -62 -84 -39 -21 13 -24 22 -21 73 3 84 4 85 17 76 7 -4 26 -7 41 -8z m54 -22 c-4 -3 -7 0 -7 7 0 7 3 10 7 7 3 -4 3 -10 0 -14z m133 -85 c15 -26 18 -44 14 -93 -7 -85 -6 -85 -15 -79 -5 3 -19 0 -31 -7 -51 -27 -88 81 -57 169 9 28 17 33 62 41 4 0 16 -13 27 -31z m144 9 c22 -16 32 -87 17 -116 -8 -15 -21 -21 -44 -21 -18 0 -38 -5 -44 -11 -8 -8 -13 -8 -17 0 -4 6 -3 11 3 11 7 0 6 10 -1 30 -5 17 -7 45 -4 63 4 18 7 37 8 43 2 15 61 16 82 1z m-322 -93 c9 -3 17 -13 17 -22 1 -101 11 -226 19 -234 12 -12 42 17 43 43 4 62 37 86 79 59 18 -11 19 -18 26 -190 6 -140 15 -170 40 -136 11 15 14 59 15 190 1 178 7 223 28 218 7 -1 20 3 29 10 10 8 13 9 9 1 -4 -7 1 -14 12 -18 26 -8 40 -100 18 -121 -10 -11 -8 -52 3 -59 10 -6 8 -40 -3 -51 -4 -4 -2 -13 4 -21 6 -7 8 -13 4 -13 -4 0 -1 -8 6 -17 10 -12 10 -15 1 -9 -10 6 -10 2 0 -18 6 -14 19 -26 28 -26 13 0 17 11 19 51 1 28 6 61 11 73 12 33 46 39 70 13 18 -19 20 -35 20 -161 l0 -141 37 -32 c20 -18 50 -35 66 -39 15 -3 31 -12 34 -20 4 -12 29 -24 62 -30 7 -1 23 -12 35 -23 12 -12 26 -21 30 -21 4 0 34 -18 67 -40 33 -22 63 -40 65 -40 3 0 22 -11 42 -25 20 -14 45 -25 54 -25 10 0 27 -9 37 -19 19 -19 20 -41 21 -659 1 -588 -1 -641 -16 -657 -16 -15 -42 -29 -69 -35 -5 -1 -21 -10 -35 -20 -14 -9 -34 -20 -45 -24 -11 -3 -33 -18 -50 -33 -16 -16 -31 -27 -32 -25 -8 7 -23 1 -18 -8 3 -6 -1 -10 -9 -10 -9 0 -16 -4 -16 -10 0 -5 -6 -7 -14 -4 -7 3 -21 -3 -31 -13 -10 -9 -25 -18 -33 -19 -8 -2 -19 -9 -23 -16 -5 -7 -9 -8 -9 -3 0 6 -3 6 -8 -1 -4 -5 -24 -18 -44 -27 -21 -10 -38 -23 -38 -29 0 -6 -3 -9 -6 -5 -9 8 -64 -21 -64 -34 0 -6 -4 -7 -10 -4 -5 3 -10 1 -10 -4 0 -6 -3 -10 -7 -9 -10 4 -115 -56 -135 -75 -8 -8 -38 -25 -66 -37 -28 -12 -50 -27 -49 -33 1 -6 -9 -13 -23 -15 -14 -2 -27 -7 -30 -11 -3 -4 -24 -15 -47 -25 -23 -10 -44 -24 -47 -31 -2 -7 -17 -16 -32 -19 -15 -4 -40 -16 -55 -27 -15 -10 -32 -19 -38 -19 -5 0 -51 25 -102 55 -50 30 -102 55 -115 55 -12 0 -36 13 -52 30 -17 16 -41 34 -54 40 -12 6 -35 18 -50 28 -90 58 -145 88 -156 84 -8 -2 -12 -37 -12 -118 0 -99 -2 -116 -19 -133 -26 -26 -57 -17 -70 21 -6 17 -11 108 -11 204 0 95 -4 175 -9 178 -22 14 -41 -7 -41 -44 0 -22 -4 -42 -10 -45 -14 -9 -13 -192 1 -201 16 -10 6 -175 -12 -201 -13 -19 -17 -20 -45 -8 -43 18 -45 43 -43 381 2 254 0 277 -16 286 -35 20 -39 -4 -36 -225 3 -246 -2 -269 -51 -263 -18 2 -37 4 -43 5 -9 1 -13 91 -15 324 0 22 -4 27 -25 27 l-25 0 0 -107 c0 -60 -5 -115 -10 -123 -11 -17 -59 -22 -78 -7 -11 9 -13 166 -11 843 2 888 1 874 49 874 26 0 51 11 45 19 -2 4 1 8 8 8 22 1 147 80 139 88 -4 5 1 5 10 2 9 -3 18 -3 20 1 5 11 83 62 95 62 6 0 21 9 35 19 13 11 36 23 49 26 14 3 38 17 54 31 15 13 52 35 82 49 29 14 53 30 53 35 0 5 17 14 38 19 21 6 47 19 58 29 11 10 25 17 31 15 6 -2 17 4 25 14 7 10 18 19 25 20 6 2 39 20 73 42 34 22 71 43 81 46 10 4 19 11 19 16 0 6 4 8 8 5 5 -3 18 3 29 14 12 10 24 16 27 13 3 -4 6 -2 6 4 0 6 9 13 20 16 19 5 20 14 20 126 0 96 3 127 16 147 9 13 22 22 28 19 6 -3 19 -8 28 -11z m497 -47 c6 -8 8 -33 4 -65 -3 -32 -2 -57 5 -65 9 -11 5 -21 -16 -44 -29 -32 -44 -32 -77 1 -18 18 -21 31 -19 89 2 38 8 75 15 83 14 18 73 18 88 1z m-1561 -2641 c-1 -6 4 -21 11 -34 10 -19 10 -27 -3 -46 -8 -13 -12 -33 -10 -44 4 -15 -2 -24 -28 -36 -33 -17 -33 -17 -56 9 -19 23 -22 37 -21 95 2 76 4 81 39 97 21 9 29 7 48 -10 12 -11 21 -25 20 -31z m135 -113 c5 -3 6 -11 3 -18 -2 -7 0 -17 6 -23 8 -8 8 -15 -1 -26 -7 -8 -10 -20 -6 -26 3 -5 3 -19 0 -30 -5 -17 -12 -19 -48 -14 -23 4 -44 8 -46 10 -3 3 -5 29 -6 59 -2 46 1 58 18 70 19 13 55 12 80 -2z m328 -54 c5 -8 8 -24 6 -37 -3 -12 0 -25 4 -28 5 -3 3 -17 -5 -32 -12 -22 -21 -27 -55 -28 -22 0 -38 3 -35 8 3 4 -1 10 -8 13 -18 7 -15 104 3 116 20 12 80 4 90 -12z m-154 -183 c-7 -96 -9 -100 -50 -101 -19 0 -35 2 -35 5 2 19 -3 30 -11 26 -15 -10 -24 53 -11 69 8 9 10 28 6 46 -6 30 8 73 22 66 4 -3 16 -1 27 3 34 12 58 -40 52 -114z"/>
 <path d="M1942 2536 c-24 -12 -40 -25 -36 -29 4 -4 -4 -7 -17 -7 -13 0 -40 -14 -59 -30 -19 -16 -45 -30 -57 -30 -12 0 -28 -9 -36 -20 -8 -11 -16 -18 -19 -15 -3 3 -17 -6 -32 -20 -15 -14 -38 -28 -51 -31 -14 -3 -22 -10 -19 -15 3 -5 -3 -6 -12 -2 -10 4 -22 0 -28 -8 -6 -8 -26 -21 -43 -28 -18 -7 -33 -18 -33 -24 0 -6 -3 -8 -6 -4 -3 3 -14 -2 -25 -11 -18 -16 -19 -34 -19 -340 0 -298 1 -323 18 -329 9 -4 23 -15 30 -25 8 -10 19 -18 25 -16 18 3 57 -12 57 -22 0 -5 16 -14 35 -21 19 -7 35 -17 35 -22 0 -4 5 -5 10 -2 6 3 10 1 10 -5 0 -7 7 -10 15 -6 8 3 15 1 15 -4 0 -6 7 -10 16 -10 8 0 12 -4 9 -10 -3 -5 0 -10 8 -10 7 0 31 -13 53 -30 21 -16 42 -30 46 -30 4 0 30 -13 58 -30 28 -16 60 -30 70 -30 11 0 19 -5 17 -11 -3 -17 39 -20 53 -4 7 8 16 15 20 15 11 0 151 80 173 99 10 8 25 16 33 17 8 1 24 12 35 25 10 12 19 19 19 14 0 -4 6 -2 13 4 8 6 17 8 20 4 4 -3 7 -2 7 4 0 6 10 13 23 17 13 3 34 15 47 26 13 11 31 20 40 20 9 0 25 8 36 18 10 10 27 21 37 25 16 6 17 31 17 329 0 306 -1 324 -19 340 -11 9 -22 14 -25 11 -3 -4 -6 -1 -6 6 0 6 -12 16 -26 21 -15 6 -39 19 -54 30 -16 11 -37 20 -48 20 -10 0 -31 11 -46 25 -15 14 -34 25 -42 25 -7 0 -14 5 -14 10 0 6 -7 10 -15 10 -8 0 -15 4 -15 9 0 5 -15 14 -32 22 -18 7 -44 21 -57 31 -13 10 -32 18 -43 18 -11 0 -17 4 -14 8 5 9 -82 53 -100 51 -5 -1 -28 -11 -52 -23z"/>
 </g>

</svg>