<!DOCTYPE svg PUBLIC "-//W3C//DTD SVG 20010904//EN" "http://www.w3.org/TR/2001/REC-SVG-20010904/DTD/svg10.dtd">
<svg version="1.0" xmlns="http://www.w3.org/2000/svg" width="304px" height="322px" viewBox="0 0 3040 3220" preserveAspectRatio="xMidYMid meet">
<g id="layer101" fill="#d8c140" stroke="none">
 <path d="M832 2783 l-682 -395 0 -488 0 -487 229 -132 c125 -72 231 -131 235 -131 3 0 6 217 6 483 l0 482 685 395 c377 217 685 398 685 401 0 8 -454 269 -466 268 -5 -1 -316 -179 -692 -396z"/>
 <path d="M1828 2747 c-125 -73 -227 -135 -228 -138 0 -4 189 -116 420 -250 l420 -243 2 -791 3 -791 227 131 227 130 1 800 0 800 -416 240 c-228 132 -418 241 -422 242 -4 0 -109 -58 -234 -130z"/>
 <path d="M1453 2399 c-164 -27 -311 -137 -390 -292 -49 -98 -53 -143 -53 -677 l0 -495 153 -88 c84 -48 156 -87 160 -87 4 0 7 146 7 324 l0 325 60 -31 c156 -81 388 -30 534 116 211 211 209 545 -3 757 -126 126 -290 178 -468 148z m184 -335 c70 -34 123 -119 123 -200 0 -50 -50 -135 -98 -169 -39 -27 -52 -30 -115 -30 -65 0 -77 3 -119 32 -52 36 -98 116 -98 168 0 65 43 147 96 181 68 45 140 51 211 18z"/>
 <path d="M152 1053 l3 -267 680 -393 c374 -216 686 -393 694 -393 7 0 200 107 427 238 l413 237 1 273 0 274 -33 -20 c-86 -52 -770 -444 -790 -453 -21 -10 -95 31 -700 380 -372 215 -681 391 -687 391 -7 0 -10 -83 -8 -267z"/>
 </g>

</svg>