<!DOCTYPE svg PUBLIC "-//W3C//DTD SVG 20010904//EN" "http://www.w3.org/TR/2001/REC-SVG-20010904/DTD/svg10.dtd">
<svg version="1.0" xmlns="http://www.w3.org/2000/svg" width="249px" height="259px" viewBox="0 0 2490 2590" preserveAspectRatio="xMidYMid meet">
<g id="layer101" fill="#493a40" stroke="none">
 <path d="M0 1295 l0 -1295 1245 0 1245 0 0 1295 0 1295 -1245 0 -1245 0 0 -1295z"/>
 </g>
<g id="layer102" fill="#55494d" stroke="none">
 <path d="M0 1295 l0 -1295 1245 0 1245 0 0 1295 0 1295 -1245 0 -1245 0 0 -1295z m1400 1163 c14 0 31 -4 37 -10 7 -6 19 -8 28 -5 8 4 17 2 20 -3 4 -6 17 -10 31 -10 l24 0 0 -340 c0 -187 -3 -340 -6 -340 -3 0 -32 13 -63 29 -139 72 -266 73 -410 3 -57 -28 -131 -90 -131 -110 0 -6 -9 -16 -19 -22 -11 -5 -27 -31 -37 -57 -10 -27 -22 -54 -27 -61 -17 -22 -20 -93 -24 -671 -2 -392 -7 -568 -14 -578 -14 -17 -569 -19 -600 -3 -18 10 -19 28 -19 600 0 388 3 591 10 595 6 4 10 27 9 53 0 26 11 88 26 137 15 50 31 104 35 120 11 45 54 125 107 200 27 37 53 74 59 83 20 32 142 149 178 172 20 12 36 26 36 31 0 5 4 9 9 9 7 0 57 27 111 60 27 17 124 58 165 70 22 6 47 14 55 17 8 4 19 5 24 4 5 -1 16 1 25 5 17 8 28 10 105 19 28 3 52 8 55 11 3 4 44 3 91 -1 47 -3 96 -7 110 -7z"/>
 </g>
<g id="layer103" fill="#95bf7d" stroke="none">
 <path d="M0 1295 l0 -1295 1245 0 1245 0 0 1295 0 1295 -1245 0 -1245 0 0 -1295z m1385 1165 c50 -6 105 -15 123 -21 l32 -11 0 -339 c0 -186 -3 -339 -6 -339 -3 0 -34 13 -69 30 -82 39 -155 54 -235 47 -131 -11 -252 -83 -325 -192 -72 -109 -69 -83 -73 -751 l-3 -602 -22 -6 c-12 -3 -148 -6 -303 -6 -212 0 -284 3 -298 13 -16 12 -17 52 -14 637 l4 625 27 105 c33 125 114 297 185 390 170 223 431 378 701 415 122 16 165 17 276 5z"/>
 </g>
<g id="layer104" fill="#ffffff" stroke="none">
 <path d="M0 1295 l0 -1295 1245 0 1245 0 0 1295 0 1295 -1245 0 -1245 0 0 -1295z m1385 1165 c50 -6 105 -15 123 -21 l32 -11 0 -339 c0 -186 -3 -339 -6 -339 -3 0 -34 13 -69 30 -82 39 -155 54 -235 47 -131 -11 -252 -83 -325 -192 -72 -109 -69 -83 -73 -751 l-3 -602 -22 -6 c-12 -3 -148 -6 -303 -6 -212 0 -284 3 -298 13 -16 12 -17 52 -14 637 l4 625 27 105 c33 125 114 297 185 390 170 223 431 378 701 415 122 16 165 17 276 5z m395 -124 c255 -133 461 -408 531 -706 34 -144 32 -338 -4 -485 -97 -390 -388 -682 -790 -793 -78 -21 -417 -24 -484 -4 l-43 13 0 338 c0 186 3 340 6 344 3 3 29 -7 58 -23 117 -65 220 -75 345 -34 129 43 218 128 277 264 18 42 19 78 22 570 1 289 5 531 7 538 3 8 8 12 13 10 4 -2 32 -16 62 -32z"/>
 </g>

</svg>