<!DOCTYPE svg PUBLIC "-//W3C//DTD SVG 20010904//EN" "http://www.w3.org/TR/2001/REC-SVG-20010904/DTD/svg10.dtd">
<svg version="1.0" xmlns="http://www.w3.org/2000/svg" width="197px" height="300px" viewBox="0 0 1970 3000" preserveAspectRatio="xMidYMid meet">
<g id="layer101" fill="#282828" stroke="none">
 <path d="M10 2845 l0 -155 975 0 975 0 0 155 0 155 -975 0 -975 0 0 -155z"/>
 <path d="M2 2064 l3 -146 57 -18 c183 -57 266 -174 256 -362 -10 -161 -74 -242 -245 -306 l-73 -27 0 -131 0 -132 46 -11 c109 -28 200 -95 241 -179 24 -49 28 -69 28 -142 0 -75 -3 -91 -29 -138 -43 -77 -136 -142 -244 -171 l-42 -12 0 -144 0 -145 673 0 c758 0 751 -1 900 77 94 49 223 175 260 255 118 252 43 549 -173 688 l-50 32 90 59 c178 118 270 283 270 484 0 164 -53 288 -175 410 -90 91 -175 139 -311 177 -78 22 -89 23 -782 26 l-703 3 3 -147z m1314 -205 c63 -16 134 -76 166 -139 75 -146 50 -314 -60 -411 -80 -70 -98 -73 -454 -77 l-318 -3 0 325 0 326 313 -6 c171 -3 330 -10 353 -15z m-60 -954 c68 -20 144 -88 175 -157 32 -72 33 -194 1 -254 -33 -64 -70 -103 -125 -130 -65 -34 -224 -46 -474 -37 l-183 6 0 293 0 293 88 3 c200 7 467 -2 518 -17z"/>
 </g>
<g id="layer102" fill="#14a149" stroke="none">
 <path d="M10 2845 l0 -155 975 0 975 0 0 155 0 155 -975 0 -975 0 0 -155z"/>
 </g>

</svg>