<svg id="svg" xmlns="http://www.w3.org/2000/svg" xmlns:xlink="http://www.w3.org/1999/xlink" width="400" height="435.34883720930236" viewBox="0, 0, 400,435.34883720930236"><g id="svgg"><path id="path0" d="M-0.000 47.500 L -0.000 95.000 157.700 94.895 C 326.404 94.783,317.314 94.671,317.756 96.880 C 317.890 97.551,318.000 137.037,318.000 184.627 L 318.000 271.155 317.111 271.777 C 315.855 272.657,278.369 272.727,277.642 271.850 C 277.305 271.444,277.189 254.340,277.196 206.118 C 277.202 170.267,277.093 140.364,276.953 139.667 L 276.700 138.400 158.968 138.400 L 41.236 138.400 41.005 139.700 C 40.878 140.415,40.825 197.430,40.887 266.400 L 41.000 391.800 159.000 391.800 L 277.000 391.800 277.106 378.634 C 277.177 369.733,277.355 365.296,277.655 364.934 C 278.332 364.119,315.906 364.150,317.024 364.968 C 317.780 365.521,317.803 366.414,317.906 400.368 L 318.013 435.200 359.006 435.200 L 400.000 435.200 400.000 387.357 C 400.000 341.929,399.965 339.532,399.300 339.857 C 397.613 340.683,84.168 340.465,83.146 339.637 L 82.200 338.871 82.200 250.050 C 82.200 165.305,82.233 161.196,82.914 160.514 C 83.852 159.577,121.553 159.392,122.480 160.320 C 122.902 160.742,123.020 173.694,123.105 228.820 L 123.209 296.800 240.997 296.800 L 358.785 296.800 359.000 295.900 C 359.537 293.654,359.406 43.611,358.867 43.404 C 358.574 43.292,305.429 43.200,240.767 43.200 L 123.200 43.200 123.200 54.724 C 123.200 64.042,123.091 66.396,122.632 67.024 C 121.701 68.298,84.679 68.450,83.073 67.186 L 82.000 66.342 82.000 33.171 L 82.000 0.000 41.000 0.000 L 0.000 0.000 -0.000 47.500 " stroke="none" fill="#fbfbfc" fill-rule="evenodd"></path><path id="path1" d="M82.000 33.171 L 82.000 66.342 83.073 67.186 C 84.679 68.450,121.701 68.298,122.632 67.024 C 123.091 66.396,123.200 64.042,123.200 54.724 L 123.200 43.200 240.767 43.200 C 305.429 43.200,358.574 43.292,358.867 43.404 C 359.406 43.611,359.537 293.654,359.000 295.900 L 358.785 296.800 240.997 296.800 L 123.209 296.800 123.105 228.820 C 123.020 173.694,122.902 160.742,122.480 160.320 C 121.553 159.392,83.852 159.577,82.914 160.514 C 82.233 161.196,82.200 165.305,82.200 250.050 L 82.200 338.871 83.144 339.635 C 84.275 340.551,396.126 340.872,398.740 339.961 L 400.000 339.522 400.000 169.761 C 400.000 18.897,399.933 0.000,399.398 0.000 C 398.863 0.000,398.797 18.822,398.803 169.100 C 398.809 327.903,398.768 338.230,398.128 338.700 C 396.849 339.639,84.713 339.409,83.862 338.469 C 82.978 337.492,82.836 163.342,83.718 161.600 L 84.224 160.600 102.692 160.600 C 117.312 160.600,121.269 160.708,121.680 161.120 C 122.102 161.542,122.220 174.405,122.305 229.085 C 122.380 277.811,122.533 296.678,122.854 297.065 C 123.490 297.831,358.686 297.867,359.725 297.100 C 360.359 296.632,360.403 288.493,360.413 170.000 L 360.425 43.400 359.312 42.702 C 357.546 41.594,124.072 41.616,123.068 42.725 C 122.498 43.355,122.399 44.956,122.306 55.007 L 122.200 66.564 121.200 66.842 C 119.531 67.306,84.848 67.254,83.974 66.786 C 83.218 66.382,83.200 65.586,83.200 33.186 C 83.200 3.954,83.129 0.000,82.600 0.000 C 82.071 0.000,82.000 3.952,82.000 33.171 M0.900 95.082 C 0.211 95.215,0.000 95.530,0.000 96.428 C 0.000 97.799,0.487 97.913,1.600 96.800 C 2.778 95.622,315.350 95.523,316.243 96.700 C 316.988 97.681,317.064 270.376,316.320 271.120 C 315.763 271.677,279.364 271.819,278.495 271.267 C 278.092 271.012,277.992 257.688,277.998 205.166 C 278.004 146.164,277.940 139.293,277.380 138.492 L 276.755 137.600 159.196 137.600 C 70.836 137.600,41.385 137.715,40.619 138.064 L 39.600 138.528 39.600 265.242 L 39.600 391.955 40.489 392.577 C 41.289 393.137,53.197 393.200,159.066 393.200 L 276.755 393.200 277.377 392.311 C 277.909 391.552,278.000 389.576,278.000 378.791 C 278.000 369.500,278.127 366.033,278.480 365.680 C 278.840 365.320,283.611 365.200,297.490 365.200 L 316.020 365.200 316.410 366.226 C 316.652 366.863,316.800 380.120,316.800 401.226 C 316.800 431.320,316.869 435.200,317.406 435.200 C 318.475 435.200,318.097 365.752,317.024 364.968 C 315.906 364.150,278.332 364.119,277.655 364.934 C 277.355 365.296,277.177 369.733,277.106 378.634 L 277.000 391.800 159.000 391.800 L 41.000 391.800 40.887 266.400 C 40.825 197.430,40.878 140.415,41.005 139.700 L 41.236 138.400 158.968 138.400 L 276.700 138.400 276.953 139.667 C 277.093 140.364,277.202 170.267,277.196 206.118 C 277.189 254.340,277.305 271.444,277.642 271.850 C 278.369 272.727,315.855 272.657,317.111 271.777 L 318.000 271.155 318.000 184.627 C 318.000 92.987,318.048 95.933,316.540 95.246 C 315.591 94.813,3.137 94.651,0.900 95.082 M0.000 267.400 C 0.000 416.289,0.068 435.200,0.600 435.200 C 1.132 435.200,1.200 416.289,1.200 267.400 C 1.200 118.511,1.132 99.600,0.600 99.600 C 0.068 99.600,0.000 118.511,0.000 267.400 " stroke="none" fill="#7cb5e6" fill-rule="evenodd"></path><path id="path2" d="M84.098 33.100 L 84.200 66.200 102.547 66.200 L 120.894 66.200 120.825 54.881 L 120.756 43.562 122.020 42.381 L 123.285 41.200 241.342 41.209 C 369.948 41.219,360.943 41.069,361.217 43.200 C 361.260 43.530,361.273 100.898,361.247 170.685 L 361.200 297.569 359.647 297.987 C 356.511 298.832,122.567 298.339,121.714 297.486 C 121.035 296.807,120.995 293.477,120.895 229.721 C 120.820 181.286,120.667 162.522,120.346 162.135 C 119.521 161.141,84.951 161.370,84.414 162.374 C 83.866 163.398,83.832 337.272,84.380 337.820 C 84.619 338.059,142.678 338.126,241.280 338.000 L 397.800 337.800 397.900 168.900 L 398.001 -0.000 240.998 -0.000 L 83.995 -0.000 84.098 33.100 M2.367 97.366 C 2.275 97.458,2.245 173.508,2.301 266.367 L 2.402 435.200 159.203 435.200 L 316.004 435.200 315.902 400.900 L 315.800 366.600 297.826 366.496 C 283.712 366.414,279.784 366.500,279.532 366.896 C 279.356 367.173,279.209 372.928,279.206 379.684 L 279.200 391.968 278.100 392.996 C 277.495 393.562,276.640 394.114,276.200 394.222 C 273.345 394.927,40.957 394.171,39.900 393.454 L 38.800 392.708 38.800 265.434 C 38.800 166.976,38.909 138.051,39.280 137.680 C 39.651 137.309,66.703 137.200,158.605 137.200 L 277.449 137.200 278.327 138.018 L 279.205 138.836 279.102 204.818 L 279.000 270.801 280.200 271.016 C 280.860 271.133,289.140 271.178,298.600 271.115 L 315.800 271.000 315.800 184.200 L 315.800 97.400 159.167 97.299 C 73.019 97.244,2.459 97.274,2.367 97.366 " stroke="none" fill="#0483d4" fill-rule="evenodd"></path><path id="path3" d="M83.294 33.076 C 83.242 51.378,83.335 66.436,83.500 66.538 C 83.772 66.706,83.769 43.168,83.493 11.800 C 83.435 5.200,83.346 14.774,83.294 33.076 M398.402 168.786 C 398.406 293.934,398.290 337.850,397.955 338.255 C 397.110 339.272,84.559 339.045,84.014 338.026 C 83.543 337.145,83.487 163.693,83.958 162.000 L 84.236 161.000 102.218 160.792 L 120.200 160.583 102.212 160.592 L 84.223 160.600 83.718 161.600 C 82.776 163.462,82.986 337.683,83.931 338.538 C 84.903 339.418,396.932 339.578,398.128 338.700 C 398.788 338.216,399.254 0.721,398.596 0.063 C 398.486 -0.047,398.399 75.878,398.402 168.786 M122.629 42.629 C 122.086 43.171,122.000 44.839,122.000 54.795 C 122.000 62.276,121.856 66.405,121.590 66.537 C 121.365 66.648,121.410 66.694,121.690 66.637 C 122.086 66.557,122.224 63.958,122.306 54.991 C 122.399 44.955,122.498 43.355,123.068 42.725 C 123.872 41.837,123.501 41.756,122.629 42.629 M359.312 42.670 L 360.425 43.400 360.413 170.000 C 360.403 288.493,360.359 296.632,359.725 297.100 C 358.753 297.817,123.597 297.837,122.880 297.120 C 122.511 296.751,122.391 281.213,122.360 229.820 C 122.319 161.631,122.309 161.109,121.021 160.861 C 120.336 160.729,120.345 160.804,121.139 161.813 L 122.000 162.908 122.000 229.825 C 122.000 290.126,122.062 296.805,122.629 297.371 C 123.654 298.397,358.716 298.326,359.960 297.300 L 360.808 296.600 360.809 170.073 C 360.809 100.484,360.673 43.312,360.505 43.026 C 360.337 42.739,359.750 42.378,359.200 42.222 C 358.226 41.947,358.229 41.958,359.312 42.670 M93.300 67.100 C 98.305 67.163,106.495 67.163,111.500 67.100 C 116.505 67.036,112.410 66.984,102.400 66.984 C 92.390 66.984,88.295 67.036,93.300 67.100 M1.600 96.800 C 1.160 97.240,0.620 97.600,0.400 97.600 C 0.180 97.600,0.000 98.050,0.000 98.600 C 0.000 99.222,0.227 99.600,0.600 99.600 C 1.131 99.600,1.211 118.604,1.301 267.300 L 1.403 435.000 1.497 266.247 C 1.566 141.151,1.708 97.352,2.044 96.947 C 2.890 95.928,315.440 96.154,315.986 97.174 C 316.642 98.399,316.557 270.464,315.900 271.201 C 315.475 271.678,315.504 271.682,316.100 271.232 C 317.040 270.520,317.182 97.936,316.243 96.700 C 315.350 95.523,2.778 95.622,1.600 96.800 M40.300 137.829 L 39.200 138.426 39.200 265.184 C 39.200 400.750,39.099 393.200,40.918 393.200 C 41.171 393.200,40.978 392.920,40.489 392.577 L 39.600 391.955 39.600 265.242 L 39.600 138.528 40.619 138.064 C 41.385 137.715,70.836 137.600,159.196 137.600 L 276.755 137.600 277.377 138.489 C 277.720 138.978,278.000 139.171,278.000 138.918 C 278.000 138.664,277.717 138.174,277.371 137.829 C 276.437 136.894,42.023 136.894,40.300 137.829 M278.195 204.600 C 278.195 240.240,278.242 254.761,278.300 236.868 C 278.358 218.976,278.358 189.816,278.300 172.068 C 278.242 154.321,278.195 168.960,278.195 204.600 M278.176 270.978 C 278.604 271.320,279.234 271.586,279.576 271.568 C 280.115 271.541,280.118 271.507,279.600 271.314 C 279.270 271.192,278.640 270.926,278.200 270.724 C 277.413 270.362,277.412 270.366,278.176 270.978 M278.480 365.680 C 278.127 366.033,278.000 369.500,278.000 378.791 C 278.000 389.619,277.910 391.563,277.368 392.411 L 276.736 393.400 277.568 392.456 C 278.372 391.543,278.400 391.101,278.400 379.156 C 278.400 367.333,278.435 366.765,279.200 366.000 C 279.713 365.487,279.813 365.200,279.480 365.200 C 279.194 365.200,278.744 365.416,278.480 365.680 M289.727 365.500 C 294.307 365.564,301.687 365.564,306.127 365.499 C 310.567 365.435,306.820 365.383,297.800 365.383 C 288.780 365.383,285.147 365.435,289.727 365.500 M315.841 365.600 C 316.041 365.934,316.292 381.530,316.409 400.800 L 316.617 435.400 316.609 400.720 C 316.601 371.556,316.511 365.957,316.041 365.520 C 315.577 365.088,315.543 365.101,315.841 365.600 " stroke="none" fill="#54a4e4" fill-rule="evenodd"></path><path id="path4" d="M83.795 33.200 L 83.800 66.600 102.000 66.711 C 112.010 66.772,120.605 66.724,121.100 66.603 L 122.000 66.385 122.000 54.821 C 122.000 44.826,122.086 43.172,122.631 42.627 C 123.202 42.055,134.306 42.006,241.585 42.098 L 359.910 42.200 360.756 43.200 C 361.459 44.031,361.558 44.065,361.343 43.400 C 360.575 41.027,371.059 41.219,241.342 41.209 L 123.285 41.200 122.020 42.381 L 120.756 43.562 120.825 54.881 L 120.894 66.200 102.547 66.200 L 84.200 66.200 83.995 33.000 L 83.791 -0.200 83.795 33.200 M397.999 168.800 L 397.800 337.800 241.280 338.000 C 142.678 338.126,84.619 338.059,84.380 337.820 C 83.832 337.272,83.866 163.398,84.414 162.374 C 84.951 161.370,119.521 161.141,120.346 162.135 C 120.667 162.522,120.820 181.274,120.895 229.674 C 121.006 300.308,120.945 298.000,122.678 298.000 C 123.163 298.000,123.155 297.898,122.629 297.371 C 122.062 296.805,122.000 290.126,122.000 229.825 L 122.000 162.908 121.168 161.850 L 120.336 160.792 102.286 160.896 L 84.236 161.000 83.958 162.000 C 83.487 163.693,83.542 337.145,84.014 338.026 C 84.632 339.181,397.111 339.254,398.038 338.100 C 398.519 337.500,398.571 313.187,398.399 168.600 L 398.198 -0.200 397.999 168.800 M360.899 170.677 L 360.800 296.755 359.911 297.377 C 358.989 298.023,359.719 298.293,360.701 297.670 C 361.100 297.416,361.181 271.814,361.100 170.976 L 360.999 44.600 360.899 170.677 M1.962 97.100 C 1.262 97.972,1.303 435.200,2.003 435.200 C 2.268 435.200,2.401 378.371,2.399 266.300 L 2.396 97.400 159.098 97.400 L 315.800 97.400 315.800 184.200 L 315.800 271.000 298.600 271.115 C 289.140 271.178,280.860 271.133,280.200 271.016 L 279.000 270.801 279.102 204.818 L 279.205 138.836 278.327 138.018 C 277.322 137.081,276.430 136.887,277.348 137.805 C 278.412 138.869,278.438 140.729,278.318 206.296 L 278.200 270.792 279.360 271.196 C 281.124 271.811,315.300 271.740,315.920 271.120 C 316.559 270.481,316.624 98.366,315.986 97.174 C 315.368 96.019,2.889 95.946,1.962 97.100 M39.280 137.680 C 38.909 138.051,38.800 166.976,38.800 265.434 L 38.800 392.708 39.900 393.454 C 40.957 394.171,273.345 394.927,276.200 394.222 C 276.640 394.114,277.495 393.562,278.100 392.996 L 279.200 391.968 279.206 379.684 C 279.209 372.928,279.356 367.173,279.532 366.896 C 279.784 366.500,283.712 366.414,297.826 366.496 L 315.800 366.600 316.003 401.000 L 316.207 435.400 316.275 401.200 C 316.313 382.390,316.216 366.675,316.059 366.278 C 315.626 365.181,279.712 365.159,278.910 366.256 C 278.523 366.785,278.400 369.909,278.400 379.187 C 278.400 389.613,278.308 391.553,277.777 392.311 L 277.155 393.200 158.806 393.200 C 51.749 393.200,40.397 393.140,39.829 392.571 C 39.260 392.003,39.200 379.886,39.200 265.184 L 39.200 138.426 40.300 137.829 C 41.250 137.313,41.288 137.230,40.580 137.216 C 40.129 137.207,39.544 137.416,39.280 137.680 M182.300 298.300 C 214.695 298.356,267.705 298.356,300.100 298.300 C 332.495 298.244,305.990 298.197,241.200 298.197 C 176.410 298.197,149.905 298.244,182.300 298.300 " stroke="none" fill="#4a95dc" fill-rule="evenodd"></path></g></svg>