<!DOCTYPE svg PUBLIC "-//W3C//DTD SVG 20010904//EN" "http://www.w3.org/TR/2001/REC-SVG-20010904/DTD/svg10.dtd">
<svg version="1.0" xmlns="http://www.w3.org/2000/svg" width="267px" height="301px" viewBox="0 0 2670 3010" preserveAspectRatio="xMidYMid meet">
<g id="layer101" fill="#191c5f" stroke="none">
 <path d="M1235 2759 c-257 -25 -517 -181 -664 -398 -57 -83 -116 -211 -144 -308 -21 -77 -22 -87 -25 -951 l-3 -872 32 0 c81 0 186 90 214 183 13 43 15 163 15 787 0 701 1 741 20 814 31 122 82 209 180 306 137 138 285 200 475 200 190 0 338 -62 475 -200 138 -137 200 -285 200 -475 0 -406 -348 -718 -752 -673 -80 8 -192 44 -256 81 -20 11 -70 47 -111 79 -40 32 -78 58 -83 58 -14 0 -52 -21 -60 -34 -4 -6 -8 -160 -8 -342 0 -303 1 -332 18 -346 42 -38 54 -35 169 43 151 102 302 159 488 184 230 31 356 83 518 213 311 251 423 713 264 1082 -52 119 -93 182 -180 276 -203 217 -484 323 -782 293z"/>
 <path d="M1182 2420 c-192 -52 -356 -207 -414 -392 -30 -97 -32 -274 -4 -358 54 -162 165 -290 307 -358 100 -48 162 -62 272 -62 255 0 477 166 563 420 29 85 27 273 -4 362 -25 71 -77 159 -131 221 -46 52 -167 130 -242 157 -94 32 -250 37 -347 10z"/>
 </g>
<g id="layer102" fill="#3f417a" stroke="none">
 <path d="M1235 2759 c-257 -25 -517 -181 -664 -398 -57 -83 -116 -211 -144 -308 -21 -77 -22 -87 -25 -951 -1 -479 1 -872 5 -872 4 0 8 388 8 863 0 860 0 862 22 950 46 180 134 328 271 458 129 123 273 198 445 235 88 18 276 18 364 -1 355 -75 620 -326 715 -676 32 -118 32 -345 -1 -464 -44 -166 -135 -319 -257 -436 -86 -81 -143 -120 -247 -169 -100 -47 -169 -65 -319 -85 -182 -24 -347 -88 -504 -196 -74 -51 -111 -60 -138 -33 -14 13 -16 59 -16 344 0 328 0 329 22 344 33 23 41 21 103 -33 237 -201 553 -232 813 -79 76 44 190 159 234 235 67 114 90 194 96 328 5 146 -8 210 -73 342 -90 184 -267 319 -475 364 -79 17 -272 6 -341 -19 -192 -69 -323 -181 -407 -348 -70 -138 -66 -87 -72 -949 l-5 -780 -27 -51 c-33 -63 -87 -110 -148 -129 -25 -7 -36 -14 -26 -14 35 -2 105 40 146 86 72 82 70 58 70 883 0 701 1 741 20 814 31 122 82 209 180 306 137 138 285 200 475 200 190 0 338 -62 475 -200 138 -137 200 -285 200 -475 0 -406 -348 -718 -752 -673 -80 8 -192 44 -256 81 -20 11 -70 47 -111 79 -40 32 -78 58 -83 58 -14 0 -52 -21 -60 -34 -4 -6 -8 -160 -8 -342 0 -303 1 -332 18 -346 42 -38 54 -35 169 43 151 102 302 159 488 184 230 31 356 83 518 213 311 251 423 713 264 1082 -52 119 -93 182 -180 276 -203 217 -484 323 -782 293z"/>
 <path d="M1182 2420 c-192 -52 -356 -207 -414 -392 -30 -97 -32 -274 -4 -358 54 -162 165 -290 307 -358 100 -48 162 -62 272 -62 255 0 477 166 563 420 29 85 27 273 -4 362 -25 71 -77 159 -131 221 -46 52 -167 130 -242 157 -94 32 -250 37 -347 10z m287 -5 c111 -27 188 -71 276 -160 129 -128 182 -263 172 -440 -12 -244 -165 -447 -395 -527 -56 -19 -88 -23 -187 -23 -99 0 -131 4 -187 23 -230 80 -383 283 -395 527 -9 174 54 332 178 450 149 140 346 195 538 150z"/>
 </g>
<g id="layer103" fill="#7779a0" stroke="none">
 <path d="M1165 2750 c-19 -5 -6 -6 35 -3 36 3 67 7 69 9 8 7 -73 2 -104 -6z"/>
 <path d="M1418 2753 c12 -2 32 -2 45 0 12 2 2 4 -23 4 -25 0 -35 -2 -22 -4z"/>
 <path d="M1035 2715 c-39 -17 -21 -18 25 0 19 7 28 14 20 14 -8 0 -28 -6 -45 -14z"/>
 <path d="M1629 2709 c30 -10 56 -17 58 -15 5 5 -86 36 -101 35 -6 0 13 -9 43 -20z"/>
 <path d="M960 2685 c-14 -8 -20 -14 -15 -14 6 0 21 6 35 14 14 8 21 14 15 14 -5 0 -21 -6 -35 -14z"/>
 <path d="M1701 2686 c10 -9 89 -46 89 -41 0 5 -75 45 -86 45 -4 0 -5 -2 -3 -4z"/>
 <path d="M878 2644 c-38 -20 -36 -28 2 -9 17 9 30 18 30 20 0 7 -1 6 -32 -11z"/>
 <path d="M1800 2637 c0 -2 26 -21 58 -42 31 -21 91 -70 132 -109 l75 -71 -60 64 c-61 63 -205 175 -205 158z"/>
 <path d="M764 2564 l-39 -35 43 32 c38 30 48 39 39 39 -2 0 -21 -16 -43 -36z"/>
 <path d="M655 2466 c-50 -56 -105 -127 -78 -101 25 25 143 165 139 165 -3 0 -30 -29 -61 -64z"/>
 <path d="M1288 2523 c29 -2 74 -2 100 0 26 2 2 3 -53 3 -55 0 -76 -1 -47 -3z"/>
 <path d="M1441 2516 c2 -2 22 -6 44 -9 28 -5 34 -4 20 3 -19 8 -73 14 -64 6z"/>
 <path d="M1010 2449 c-30 -16 -62 -37 -70 -46 -14 -15 -13 -16 2 -4 9 7 45 28 80 47 35 18 59 34 53 34 -5 0 -35 -14 -65 -31z"/>
 <path d="M1655 2442 c39 -20 106 -70 150 -111 l80 -74 -80 79 c-69 68 -182 145 -211 144 -5 0 23 -17 61 -38z"/>
 <path d="M1293 2433 c26 -2 67 -2 90 0 23 2 2 3 -48 3 -49 0 -68 -1 -42 -3z"/>
 <path d="M1431 2426 c2 -2 22 -6 44 -9 28 -5 34 -4 20 3 -19 8 -73 14 -64 6z"/>
 <path d="M1083 2385 c-29 -13 -53 -26 -53 -29 0 -4 109 42 119 50 13 11 -21 1 -66 -21z"/>
 <path d="M1520 2408 c9 -9 120 -57 120 -53 0 6 -70 41 -100 50 -14 4 -23 5 -20 3z"/>
 <path d="M2103 2349 c66 -103 69 -107 41 -52 -15 28 -39 67 -55 85 -20 23 -16 13 14 -33z"/>
 <path d="M850 2323 l-65 -68 68 65 c62 60 72 70 64 70 -1 0 -32 -30 -67 -67z"/>
 <path d="M944 2295 c-23 -19 -53 -51 -68 -72 l-28 -38 35 39 c19 21 52 54 73 72 22 18 37 33 34 33 -3 1 -23 -15 -46 -34z"/>
 <path d="M1714 2297 c21 -19 54 -52 73 -73 l35 -39 -32 42 c-17 23 -50 56 -73 73 l-42 32 39 -35z"/>
 <path d="M525 2290 c-9 -16 -13 -30 -11 -30 3 0 12 14 21 30 9 17 13 30 11 30 -3 0 -12 -13 -21 -30z"/>
 <path d="M2171 2235 c0 -5 6 -21 14 -35 8 -14 14 -20 14 -15 0 6 -6 21 -14 35 -8 14 -14 21 -14 15z"/>
 <path d="M720 2149 c-12 -23 -20 -43 -18 -45 3 -2 14 17 26 41 27 56 20 60 -8 4z"/>
 <path d="M1942 2145 c12 -24 23 -43 26 -41 4 5 -36 86 -43 86 -3 0 5 -20 17 -45z"/>
 <path d="M2207 2150 c3 -14 12 -41 20 -60 11 -30 12 -31 8 -6 -4 16 -13 43 -20 60 -11 23 -13 25 -8 6z"/>
 <path d="M441 2095 c-12 -37 -21 -75 -20 -84 0 -9 11 20 24 64 13 44 22 82 20 83 -2 2 -13 -26 -24 -63z"/>
 <path d="M795 2098 c-13 -29 -26 -66 -29 -83 -4 -16 2 -7 13 21 10 27 26 64 35 82 9 18 14 32 11 32 -3 0 -17 -24 -30 -52z"/>
 <path d="M1868 2090 c14 -32 28 -57 30 -55 5 4 -45 115 -52 115 -2 0 8 -27 22 -60z"/>
 <path d="M1907 1985 c3 -22 7 -42 9 -44 8 -9 2 45 -6 64 -7 14 -8 8 -3 -20z"/>
 <path d="M655 1195 c0 -412 1 -583 2 -378 2 204 2 542 0 750 -1 208 -2 41 -2 -372z"/>
 <path d="M2014 1845 c0 -55 1 -76 3 -47 2 29 2 74 0 100 -2 26 -3 2 -3 -53z"/>
 <path d="M2264 1830 c0 -63 1 -89 3 -57 2 31 2 83 0 115 -2 31 -3 5 -3 -58z"/>
 <path d="M744 1845 c0 -49 1 -71 3 -48 2 23 2 64 0 90 -2 26 -3 8 -3 -42z"/>
 <path d="M1924 1845 c0 -49 1 -71 3 -48 2 23 2 64 0 90 -2 26 -3 8 -3 -42z"/>
 <path d="M405 1075 c0 -467 1 -657 2 -422 2 236 2 618 0 850 -1 232 -2 40 -2 -428z"/>
 <path d="M751 1729 c0 -13 4 -33 9 -44 7 -14 8 -8 3 20 -7 46 -13 59 -12 24z"/>
 <path d="M1906 1709 c-8 -42 0 -50 9 -9 4 17 5 34 2 36 -2 3 -7 -10 -11 -27z"/>
 <path d="M2001 1725 c-1 -11 -4 -31 -6 -45 l-6 -25 11 25 c6 13 9 33 7 45 -4 19 -4 19 -6 0z"/>
 <path d="M780 1626 c-1 -28 75 -141 135 -201 60 -60 188 -145 200 -133 2 2 -26 19 -63 38 -88 45 -186 144 -234 235 -21 39 -38 66 -38 61z"/>
 <path d="M1858 1577 c-49 -99 -109 -163 -244 -255 -11 -7 1 -2 26 10 64 33 179 151 219 226 18 35 31 65 29 67 -2 3 -16 -19 -30 -48z"/>
 <path d="M1956 1572 c-4 -10 -22 -45 -41 -78 -19 -32 -26 -48 -14 -34 26 30 72 120 66 127 -3 2 -8 -4 -11 -15z"/>
 <path d="M2167 1415 c-9 -19 -15 -35 -12 -35 7 0 37 61 33 66 -3 2 -12 -12 -21 -31z"/>
 <path d="M756 1364 c-9 -8 -16 -20 -16 -26 0 -6 1 -9 3 -7 1 2 11 14 21 27 22 25 16 30 -8 6z"/>
 <path d="M865 1345 c42 -39 95 -79 95 -72 0 2 -30 27 -67 56 -38 29 -50 36 -28 16z"/>
 <path d="M1770 1326 c-56 -48 -141 -97 -223 -127 -28 -10 -38 -17 -22 -14 42 8 146 58 197 94 54 38 115 90 106 91 -3 0 -30 -20 -58 -44z"/>
 <path d="M2125 1341 c-29 -57 -134 -177 -201 -230 -79 -63 -96 -78 -74 -66 46 25 158 128 210 192 56 70 97 133 86 133 -3 0 -12 -13 -21 -29z"/>
 <path d="M970 1266 c0 -3 14 -12 30 -21 17 -9 30 -13 30 -11 0 3 -13 12 -30 21 -16 9 -30 13 -30 11z"/>
 <path d="M1395 1260 l-50 -7 45 0 c25 -1 56 3 70 7 31 10 8 10 -65 0z"/>
 <path d="M1258 1253 c12 -2 32 -2 45 0 12 2 2 4 -23 4 -25 0 -35 -2 -22 -4z"/>
 <path d="M1075 1210 c22 -10 54 -21 70 -25 17 -3 1 6 -35 19 -76 30 -93 32 -35 6z"/>
 <path d="M1253 1163 c15 -2 37 -2 50 0 12 2 0 4 -28 4 -27 0 -38 -2 -22 -4z"/>
 <path d="M1373 1163 c15 -2 37 -2 50 0 12 2 0 4 -28 4 -27 0 -38 -2 -22 -4z"/>
 <path d="M1575 930 c-13 -5 -14 -9 -5 -9 8 0 24 4 35 9 13 5 14 9 5 9 -8 0 -24 -4 -35 -9z"/>
 <path d="M1443 903 c9 -2 25 -2 35 0 9 3 1 5 -18 5 -19 0 -27 -2 -17 -5z"/>
 <path d="M1363 893 c9 -2 25 -2 35 0 9 3 1 5 -18 5 -19 0 -27 -2 -17 -5z"/>
 <path d="M1275 880 c-14 -7 -8 -8 20 -3 22 3 42 7 44 9 9 8 -45 2 -64 -6z"/>
 <path d="M1195 855 c-39 -17 -21 -18 25 0 19 7 28 14 20 14 -8 0 -28 -6 -45 -14z"/>
 <path d="M1048 794 c-27 -13 -48 -27 -48 -29 0 -5 99 42 109 51 13 11 -20 0 -61 -22z"/>
 <path d="M953 739 c-35 -22 -46 -37 -15 -20 22 13 58 40 52 41 -3 0 -20 -10 -37 -21z"/>
 <path d="M741 699 c-1 -17 29 -49 45 -49 5 0 1 5 -9 11 -10 6 -22 20 -27 32 -6 15 -9 17 -9 6z"/>
 <path d="M866 680 c-22 -17 -35 -30 -30 -30 9 1 83 59 74 59 -3 0 -23 -13 -44 -29z"/>
 <path d="M629 395 c-9 -25 -13 -42 -8 -40 9 6 33 75 27 80 -2 2 -11 -16 -19 -40z"/>
 <path d="M569 303 l-34 -38 38 34 c34 33 42 41 34 41 -2 0 -19 -17 -38 -37z"/>
 </g>
<g id="layer104" fill="#aeafc7" stroke="none">
 <path d="M1920 2557 c0 -2 15 -16 33 -33 l32 -29 -29 33 c-28 30 -36 37 -36 29z"/>
 <path d="M675 2488 l-40 -43 43 40 c39 36 47 45 39 45 -2 0 -21 -19 -42 -42z"/>
 <path d="M1298 2523 c23 -2 59 -2 80 0 20 2 1 4 -43 4 -44 0 -61 -2 -37 -4z"/>
 <path d="M850 2323 l-55 -58 58 55 c53 50 62 60 54 60 -1 0 -27 -26 -57 -57z"/>
 <path d="M1810 2325 c30 -30 57 -55 59 -55 3 0 -19 25 -49 55 -30 30 -57 55 -59 55 -3 0 19 -25 49 -55z"/>
 <path d="M909 2263 l-34 -38 38 34 c34 33 42 41 34 41 -2 0 -19 -17 -38 -37z"/>
 <path d="M1750 2265 c19 -19 36 -35 39 -35 3 0 -10 16 -29 35 -19 19 -36 35 -39 35 -3 0 10 -16 29 -35z"/>
 <path d="M2263 1905 c0 -22 2 -30 4 -17 2 12 2 30 0 40 -3 9 -5 -1 -4 -23z"/>
 <path d="M742 1900 c0 -19 2 -27 5 -17 2 9 2 25 0 35 -3 9 -5 1 -5 -18z"/>
 <path d="M1922 1900 c0 -19 2 -27 5 -17 2 9 2 25 0 35 -3 9 -5 1 -5 -18z"/>
 <path d="M403 1880 c0 -25 2 -35 4 -22 2 12 2 32 0 45 -2 12 -4 2 -4 -23z"/>
 <path d="M2013 1845 c0 -44 2 -61 4 -37 2 23 2 59 0 80 -2 20 -4 1 -4 -43z"/>
 <path d="M655 1180 c0 -404 1 -570 2 -368 2 203 2 533 0 735 -1 203 -2 37 -2 -367z"/>
 <path d="M742 1790 c0 -19 2 -27 5 -17 2 9 2 25 0 35 -3 9 -5 1 -5 -18z"/>
 <path d="M2263 1755 c0 -22 2 -30 4 -17 2 12 2 30 0 40 -3 9 -5 -1 -4 -23z"/>
 <path d="M910 1428 c24 -27 45 -48 47 -48 8 0 0 9 -44 50 l-48 45 45 -47z"/>
 <path d="M1750 1425 c-24 -25 -42 -45 -39 -45 3 0 25 20 49 45 24 25 42 45 39 45 -3 0 -25 -20 -49 -45z"/>
 <path d="M2167 1415 c-9 -19 -15 -35 -12 -35 7 0 37 61 33 66 -3 2 -12 -12 -21 -31z"/>
 <path d="M1774 1328 l-29 -33 33 29 c17 17 32 31 32 33 0 8 -8 1 -36 -29z"/>
 <path d="M1640 1240 c-19 -11 -31 -19 -27 -20 11 0 67 29 67 35 0 7 -1 7 -40 -15z"/>
 <path d="M1989 1163 l-34 -38 38 34 c20 19 37 36 37 38 0 8 -8 0 -41 -34z"/>
 <path d="M1268 1163 c12 -2 30 -2 40 0 9 3 -1 5 -23 4 -22 0 -30 -2 -17 -4z"/>
 <path d="M1368 1163 c12 -2 30 -2 40 0 9 3 -1 5 -23 4 -22 0 -30 -2 -17 -4z"/>
 </g>

</svg>