<!DOCTYPE svg PUBLIC "-//W3C//DTD SVG 20010904//EN" "http://www.w3.org/TR/2001/REC-SVG-20010904/DTD/svg10.dtd">
<svg version="1.0" xmlns="http://www.w3.org/2000/svg" width="1600px" height="1600px" viewBox="0 0 16000 16000" preserveAspectRatio="xMidYMid meet">
<g id="layer101" fill="#123962" stroke="none">
 <path d="M7805 15355 c-126 -18 -207 -36 -315 -72 -153 -50 -351 -159 -490 -271 -57 -45 -5981 -5967 -6029 -6026 -41 -50 -128 -189 -168 -266 -93 -181 -143 -360 -164 -589 -28 -293 40 -625 179 -881 27 -49 125 -199 157 -240 25 -32 6001 -6009 6036 -6037 37 -29 185 -126 239 -155 459 -251 1063 -245 1525 15 193 109 114 32 3242 3162 1644 1645 2998 3001 3008 3015 139 177 255 420 301 629 22 100 44 277 44 361 0 149 -35 357 -86 508 -54 162 -155 349 -259 482 -10 14 -913 921 -2005 2015 -1093 1095 -2403 2408 -2911 2919 -508 511 -970 970 -1026 1021 -161 146 -327 248 -523 323 -226 86 -521 120 -755 87z"/>
 </g>
<g id="layer102" fill="#2754b9" stroke="none">
 <path d="M7805 15355 c-124 -18 -206 -36 -315 -72 -149 -49 -358 -163 -485 -266 -27 -22 -931 -921 -2007 -1996 l-1958 -1956 2483 -2483 2482 -2482 -250 -247 c-496 -491 -2815 -2808 -2815 -2813 0 -7 2038 -2040 2070 -2065 65 -52 208 -141 289 -180 95 -47 269 -110 336 -120 22 -4 54 -11 70 -16 17 -5 90 -13 163 -19 326 -24 639 43 907 193 193 109 114 32 3242 3162 1644 1645 2998 3001 3008 3015 138 176 255 421 301 629 22 100 44 277 44 361 0 149 -35 357 -86 508 -54 162 -155 349 -259 482 -10 14 -913 921 -2005 2015 -1093 1095 -2403 2408 -2911 2919 -508 510 -970 970 -1026 1021 -161 146 -331 251 -523 323 -236 87 -516 120 -755 87z"/>
 </g>
<g id="layer103" fill="#00aee6" stroke="none">
 <path d="M7810 15355 c-301 -39 -576 -155 -805 -338 -27 -22 -931 -921 -2007 -1996 l-1958 -1956 2483 -2477 2482 -2477 1528 1527 1527 1527 1533 -1533 1532 -1532 440 442 c481 483 456 457 537 578 141 212 217 421 253 695 19 139 19 231 0 370 -26 203 -71 357 -149 516 -40 81 -129 223 -181 289 -10 14 -994 1002 -2185 2195 -1191 1194 -2499 2504 -2905 2913 -794 798 -914 913 -1027 989 -338 225 -716 317 -1098 268z"/>
 <path d="M6470 4570 l-1535 -1529 1025 -1023 c564 -563 1036 -1032 1050 -1043 14 -11 64 -46 112 -78 194 -130 397 -207 648 -248 66 -11 356 -13 426 -4 215 29 407 92 579 188 186 105 215 132 1272 1190 l1017 1018 -1530 1529 -1529 1529 -1535 -1529z"/>
 </g>
<g id="layer104" fill="#799eb2" stroke="none">
 <path d="M12007 10112 l-947 -947 1533 -1533 1532 -1532 441 442 c447 449 508 519 601 683 102 182 167 392 193 620 31 277 -27 598 -154 856 -40 81 -129 223 -181 289 -25 32 -2058 2070 -2065 2070 -3 0 -431 -426 -953 -948z"/>
 <path d="M6470 4570 l-1535 -1529 1025 -1023 c564 -563 1036 -1033 1050 -1043 187 -147 442 -264 675 -312 130 -26 515 -26 630 1 190 43 324 92 460 169 186 105 215 132 1272 1190 l1016 1019 -1529 1528 -1529 1529 -1535 -1529z"/>
 </g>
<g id="layer105" fill="#b1d4e5" stroke="none">
 <path d="M12007 10112 l-947 -947 1533 -1533 1532 -1532 436 437 c251 252 460 472 494 517 51 69 155 238 155 252 0 3 13 33 30 68 28 61 76 218 98 321 39 179 33 464 -12 666 -46 210 -163 454 -301 629 -25 32 -2058 2070 -2065 2070 -3 0 -431 -426 -953 -948z"/>
 </g>

</svg>