<!DOCTYPE svg PUBLIC "-//W3C//DTD SVG 20010904//EN" "http://www.w3.org/TR/2001/REC-SVG-20010904/DTD/svg10.dtd">
<svg version="1.0" xmlns="http://www.w3.org/2000/svg" width="195px" height="259px" viewBox="0 0 1950 2590" preserveAspectRatio="xMidYMid meet">
<g id="layer101" fill="#0d3ef7" stroke="none">
 <path d="M0 1295 l0 -1295 975 0 975 0 0 1295 0 1295 -975 0 -975 0 0 -1295z"/>
 </g>
<g id="layer102" fill="#0264fd" stroke="none">
 <path d="M0 2513 l0 -76 23 21 c12 11 45 26 72 32 52 12 185 7 240 -9 21 -6 7 -7 -42 -3 l-73 5 -1 -119 c0 -65 -2 -127 -4 -136 -2 -10 2 -21 7 -25 7 -4 8 -1 3 8 -5 8 -4 10 0 6 13 -11 15 -38 3 -31 -6 4 -9 1 -6 -7 2 -7 20 -22 39 -32 46 -25 61 -41 24 -25 -53 23 -117 71 -105 78 8 5 6 9 -5 13 -9 4 -13 3 -10 -3 3 -6 2 -10 -3 -10 -12 0 -100 84 -135 130 l-27 35 1 -1070 c0 -994 1 -1068 16 -1045 24 36 135 140 144 134 4 -2 11 2 16 9 9 14 43 39 108 77 24 14 35 18 28 9 -7 -9 -9 -20 -5 -24 4 -5 2 -5 -5 -2 -6 4 -19 4 -29 0 -16 -6 -14 -9 11 -20 l30 -13 -32 5 c-34 7 -66 -9 -71 -34 -2 -8 -12 -26 -23 -40 -13 -16 -16 -27 -9 -29 6 -2 17 4 25 14 7 11 15 17 18 14 2 -3 1 -49 -2 -103 l-6 -97 25 -1 c14 0 34 -5 45 -10 17 -7 16 -9 -10 -8 -96 3 -151 -9 -132 -28 5 -4 12 -2 16 5 8 13 161 14 161 0 0 -3 -35 -10 -77 -14 -96 -8 -187 7 -220 37 l-23 22 0 -76 0 -77 975 0 974 0 0 1295 0 1295 -974 0 -975 0 0 -77z m400 -53 c0 -5 -7 -7 -15 -4 -8 4 -15 8 -15 10 0 2 7 4 15 4 8 0 15 -4 15 -10z m137 -37 c-4 -3 -10 -3 -14 0 -3 4 0 7 7 7 7 0 10 -3 7 -7z m-300 -190 c-4 -3 -10 -3 -14 0 -3 4 0 7 7 7 7 0 10 -3 7 -7z m103 -93 c-8 -5 -19 -10 -25 -10 -5 0 -3 5 5 10 8 5 20 10 25 10 6 0 3 -5 -5 -10z m25 -58 c-3 -3 -11 0 -18 7 -9 10 -8 11 6 5 10 -3 15 -9 12 -12z m72 -29 c-4 -3 -10 -3 -14 0 -3 4 0 7 7 7 7 0 10 -3 7 -7z m100 -40 c-4 -3 -10 -3 -14 0 -3 4 0 7 7 7 7 0 10 -3 7 -7z m-87 -1468 c0 -2 -10 -9 -22 -15 -22 -11 -22 -10 -4 4 21 17 26 19 26 11z m-80 -40 c-14 -8 -29 -14 -35 -14 -5 0 1 6 15 14 14 8 30 14 35 14 6 0 -1 -6 -15 -14z m-129 -121 c-9 -28 -9 -29 -10 -3 -1 14 2 29 6 32 11 12 13 2 4 -29z m36 19 c-4 -3 -10 -3 -14 0 -3 4 0 7 7 7 7 0 10 -3 7 -7z m160 -270 c-4 -3 -10 -3 -14 0 -3 4 0 7 7 7 7 0 10 -3 7 -7z m-80 -19 c-3 -3 -12 -4 -19 -1 -8 3 -5 6 6 6 11 1 17 -2 13 -5z"/>
 <path d="M93 2293 c4 -3 10 -3 14 0 3 4 0 7 -7 7 -7 0 -10 -3 -7 -7z"/>
 <path d="M120 2280 c0 -7 3 -10 7 -7 3 4 3 10 0 14 -4 3 -7 0 -7 -7z"/>
 <path d="M140 2265 c0 -5 5 -17 10 -25 5 -8 10 -10 10 -5 0 6 -5 17 -10 25 -5 8 -10 11 -10 5z"/>
 <path d="M200 2189 c0 -5 5 -7 10 -4 6 3 10 8 10 11 0 2 -4 4 -10 4 -5 0 -10 -5 -10 -11z"/>
 <path d="M133 323 c4 -3 10 -3 14 0 3 4 0 7 -7 7 -7 0 -10 -3 -7 -7z"/>
 <path d="M188 103 c12 -2 30 -2 40 0 9 3 -1 5 -23 4 -22 0 -30 -2 -17 -4z"/>
 </g>
<g id="layer103" fill="#039dfd" stroke="none">
 <path d="M0 2513 l0 -76 23 20 c87 79 358 46 622 -75 93 -43 190 -102 169 -102 -6 0 -14 4 -20 9 -22 22 -84 50 -89 41 -4 -6 0 -10 7 -10 10 0 13 -11 12 -32 -1 -18 3 -36 9 -40 9 -6 9 -8 0 -8 -10 0 -13 -31 -13 -120 0 -79 -4 -120 -11 -120 -16 0 14 -27 37 -33 10 -2 1 -5 -21 -6 -22 0 -51 2 -65 6 l-25 7 30 8 c21 5 16 6 -18 3 -26 -3 -55 -1 -65 4 -9 4 -42 16 -72 26 -73 23 -237 105 -313 157 -64 43 -152 125 -180 168 -15 23 -16 -49 -16 -1045 0 -995 1 -1068 16 -1045 55 83 181 180 337 260 80 40 131 59 314 117 60 19 62 18 61 -29 0 -35 -2 -39 -10 -23 -8 18 -9 17 -5 -5 3 -14 6 -91 7 -173 3 -136 1 -149 -17 -161 -29 -20 -77 -30 -68 -14 4 8 3 10 -2 5 -5 -5 -9 -14 -9 -20 0 -16 -173 -75 -283 -98 -156 -32 -267 -23 -320 24 l-22 20 0 -76 0 -77 975 0 974 0 0 1295 0 1295 -974 0 -975 0 0 -77z m750 -224 c0 -5 -4 -9 -10 -9 -5 0 -10 7 -10 16 0 8 5 12 10 9 6 -3 10 -10 10 -16z m22 -16 c-6 -2 -10 -9 -6 -14 3 -5 0 -9 -5 -9 -12 0 -14 13 -4 23 3 4 11 7 17 6 6 0 5 -3 -2 -6z m68 3 c0 -3 -5 -8 -12 -12 -7 -4 -8 -3 -4 4 7 12 16 16 16 8z m-93 -282 c-3 -3 -12 -4 -19 -1 -8 3 -5 6 6 6 11 1 17 -2 13 -5z m70 -20 c-3 -3 -12 -4 -19 -1 -8 3 -5 6 6 6 11 1 17 -2 13 -5z m-17 -24 c0 -5 -4 -10 -10 -10 -5 0 -10 5 -10 10 0 6 5 10 10 10 6 0 10 -4 10 -10z m0 -430 c0 -5 -2 -10 -4 -10 -3 0 -8 5 -11 10 -3 6 -1 10 4 10 6 0 11 -4 11 -10z m-30 -10 c0 -5 -8 -10 -19 -10 -10 0 -24 -6 -30 -14 -10 -12 -8 -13 10 -9 14 4 20 2 16 -5 -4 -5 -1 -13 5 -16 7 -3 0 -4 -17 -1 -16 3 -37 0 -45 -6 -12 -8 -10 -9 8 -4 22 6 22 6 22 -119 0 -109 -2 -125 -17 -128 -16 -3 -16 -4 0 -20 22 -22 21 -28 -3 -28 -11 0 -20 -4 -20 -10 0 -5 6 -7 14 -4 8 3 17 1 21 -5 3 -6 1 -11 -5 -11 -6 0 -9 -4 -5 -10 4 -6 15 -6 32 1 14 5 28 7 31 5 3 -3 -7 -10 -22 -16 -27 -10 -30 -9 -108 36 -41 24 -69 60 -83 107 -16 55 -13 82 18 145 19 39 77 96 77 75 0 -4 7 3 16 15 8 12 24 22 34 22 10 0 22 5 25 10 3 6 15 10 26 10 10 0 19 -4 19 -10z m27 -47 c-4 -3 -10 -3 -14 0 -3 4 0 7 7 7 7 0 10 -3 7 -7z m-11 -368 c-13 -10 -15 -15 -6 -15 7 0 11 -2 9 -5 -3 -2 -16 -1 -29 2 l-25 7 30 12 c39 17 44 17 21 -1z m11 -452 c-4 -3 -10 -3 -14 0 -3 4 0 7 7 7 7 0 10 -3 7 -7z m13 -317 c0 -3 -5 -8 -12 -12 -7 -4 -8 -3 -4 4 7 12 16 16 16 8z m20 -10 c0 -3 -5 -8 -12 -12 -7 -4 -8 -3 -4 4 7 12 16 16 16 8z m-45 -25 c5 0 -1 -8 -13 -17 -24 -16 -34 -14 -38 10 -2 12 7 13 51 7z"/>
 <path d="M673 1473 c4 -3 10 -3 14 0 3 4 0 7 -7 7 -7 0 -10 -3 -7 -7z"/>
 <path d="M631 1204 c0 -11 3 -14 6 -6 3 7 2 16 -1 19 -3 4 -6 -2 -5 -13z"/>
 <path d="M653 1163 c4 -3 10 -3 14 0 3 4 0 7 -7 7 -7 0 -10 -3 -7 -7z"/>
 <path d="M745 280 c-3 -5 -2 -10 4 -10 5 0 13 5 16 10 3 6 2 10 -4 10 -5 0 -13 -4 -16 -10z"/>
 <path d="M660 2350 c0 -5 5 -10 10 -10 6 0 10 5 10 10 0 6 -4 10 -10 10 -5 0 -10 -4 -10 -10z"/>
 <path d="M688 613 c6 -2 18 -2 25 0 6 3 1 5 -13 5 -14 0 -19 -2 -12 -5z"/>
 <path d="M650 580 c8 -5 20 -10 25 -10 6 0 3 5 -5 10 -8 5 -19 10 -25 10 -5 0 -3 -5 5 -10z"/>
 </g>
<g id="layer104" fill="#06d8fc" stroke="none">
 <path d="M0 2513 l0 -76 23 20 c137 124 714 -47 950 -282 83 -83 106 -151 66 -194 -32 -35 -67 -44 -164 -43 -247 1 -616 153 -790 326 -28 28 -59 62 -68 76 -15 23 -16 -49 -16 -1045 0 -1010 1 -1069 17 -1045 56 81 139 150 277 228 302 172 704 233 758 115 18 -39 -8 -99 -71 -165 -230 -242 -819 -422 -960 -295 l-22 20 0 -76 0 -77 568 1 c312 0 560 3 552 6 -28 10 -50 36 -50 58 0 43 52 125 118 185 36 34 72 58 79 56 7 -3 13 1 13 9 0 8 5 15 10 15 6 0 13 0 16 0 4 0 6 -55 5 -123 -1 -96 -5 -124 -17 -133 -12 -9 -12 -13 -2 -16 19 -7 -25 -28 -62 -31 -17 -1 -30 -5 -30 -9 0 -3 -8 -9 -17 -11 -10 -3 158 -5 374 -6 l392 -1 0 1295 0 1295 -392 -1 c-359 0 -388 -2 -344 -15 26 -8 47 -19 47 -24 0 -6 7 -10 15 -10 20 0 65 -22 65 -32 0 -5 -11 -1 -24 7 -19 13 -29 13 -52 4 -17 -7 -24 -13 -16 -16 7 -3 20 1 29 9 15 11 16 11 10 -5 -4 -11 -1 -20 8 -23 12 -5 15 -25 15 -86 0 -62 4 -83 16 -92 13 -10 12 -12 -9 -11 -14 0 -29 4 -33 8 -5 4 0 5 11 1 11 -4 17 -4 14 0 -12 13 -53 15 -67 4 -12 -10 -26 0 -77 54 -77 82 -106 147 -84 186 8 15 25 29 39 33 14 4 -233 7 -547 8 l-573 1 0 -77z m1317 -19 c-3 -3 -12 -4 -19 -1 -8 3 -5 6 6 6 11 1 17 -2 13 -5z m60 -1 c-4 -3 -10 -3 -14 0 -3 4 0 7 7 7 7 0 10 -3 7 -7z m-89 -213 c33 -34 44 -38 35 -12 -6 15 -5 15 11 3 15 -13 16 -15 2 -23 -24 -13 -102 33 -90 53 8 13 11 12 42 -21z m69 -387 c-4 -3 -10 -3 -14 0 -3 4 0 7 7 7 7 0 10 -3 7 -7z m-28 -12 c23 -15 -2 -19 -29 -5 -22 12 -22 14 -5 14 11 0 26 -4 34 -9z m48 -8 c-4 -3 -10 -3 -14 0 -3 4 0 7 7 7 7 0 10 -3 7 -7z m-87 -26 c18 5 20 0 20 -41 0 -25 4 -46 9 -46 13 0 41 -29 41 -41 0 -6 -11 2 -25 16 -31 30 -34 30 -52 8 -14 -17 -14 -17 -9 -1 3 10 0 17 -6 15 -19 -4 -33 70 -17 89 7 9 15 12 17 6 1 -5 12 -8 22 -5z m77 -4 c-4 -3 -10 -3 -14 0 -3 4 0 7 7 7 7 0 10 -3 7 -7z m-40 -122 c10 -16 9 -22 -4 -33 -14 -11 -15 -10 -8 11 6 20 4 23 -9 18 -16 -6 -22 4 -9 16 10 11 17 8 30 -12z m37 -46 c3 -9 0 -15 -9 -15 -8 0 -15 7 -15 15 0 8 4 15 9 15 5 0 11 -7 15 -15z m33 -32 c-4 -3 -10 -3 -14 0 -3 4 0 7 7 7 7 0 10 -3 7 -7z m-371 -127 c56 -19 115 -58 110 -72 -3 -6 3 -11 12 -10 10 1 16 -6 16 -16 -1 -10 2 -15 7 -12 5 3 18 -14 29 -38 21 -47 18 -111 -6 -159 -24 -48 -102 -107 -171 -130 -94 -31 -233 -25 -318 14 -148 69 -199 193 -126 310 30 48 115 104 186 122 71 17 200 13 261 -9z m361 -193 c-4 -3 -7 0 -7 7 0 7 3 10 7 7 3 -4 3 -10 0 -14z m40 -15 c-3 -8 -6 -5 -6 6 -1 11 2 17 5 13 3 -3 4 -12 1 -19z m-50 -35 c-4 -3 -7 0 -7 7 0 7 3 10 7 7 3 -4 3 -10 0 -14z m43 -33 c0 -5 -5 -10 -11 -10 -5 0 -7 5 -4 10 3 6 8 10 11 10 2 0 4 -4 4 -10z m-73 -324 c0 -8 -5 -14 -11 -13 -6 1 -10 -6 -8 -15 2 -10 -2 -18 -8 -18 -15 0 -12 21 7 42 19 22 20 22 20 4z m38 -4 c-3 -3 -11 0 -18 7 -9 10 -8 11 6 5 10 -3 15 -9 12 -12z m-8 -29 c-4 -3 -10 -3 -14 0 -3 4 0 7 7 7 7 0 10 -3 7 -7z m-77 -59 c6 -14 10 -43 10 -64 0 -21 6 -41 13 -43 6 -3 -2 -6 -20 -6 -38 -1 -45 8 -50 67 -5 65 28 98 47 46z m60 -124 c0 -5 -12 -10 -27 -9 -25 0 -26 1 -8 9 27 12 35 12 35 0z m37 -7 c-4 -3 -10 -3 -14 0 -3 4 0 7 7 7 7 0 10 -3 7 -7z m-57 -343 c0 -5 -5 -10 -11 -10 -5 0 -7 5 -4 10 3 6 8 10 11 10 2 0 4 -4 4 -10z m67 4 c-3 -3 -12 -4 -19 -1 -8 3 -5 6 6 6 11 1 17 -2 13 -5z m-40 -31 c-4 -3 -10 -3 -14 0 -3 4 0 7 7 7 7 0 10 -3 7 -7z m23 -187 c0 -2 -7 -7 -16 -10 -8 -3 -12 -2 -9 4 6 10 25 14 25 6z"/>
 <path d="M1257 1808 c8 -44 13 -48 13 -10 0 17 -4 34 -10 37 -6 4 -7 -6 -3 -27z"/>
 <path d="M1174 1368 c-4 -7 -3 -8 4 -4 7 4 12 9 12 12 0 8 -9 4 -16 -8z"/>
 <path d="M1184 1248 c-4 -7 -3 -8 4 -4 7 4 12 9 12 12 0 8 -9 4 -16 -8z"/>
 <path d="M1260 799 c0 -15 18 -19 23 -6 3 8 -1 14 -9 14 -8 0 -14 -4 -14 -8z"/>
 <path d="M1260 750 c0 -7 3 -10 7 -7 3 4 3 10 0 14 -4 3 -7 0 -7 -7z"/>
 <path d="M1225 2540 c3 -5 8 -10 11 -10 3 0 2 5 -1 10 -3 6 -8 10 -11 10 -3 0 -2 -4 1 -10z"/>
 <path d="M1243 288 c-11 -19 -12 -38 -2 -38 5 0 9 5 9 11 0 5 5 7 10 4 6 -4 7 -12 4 -18 -4 -7 -3 -9 1 -4 5 4 10 16 12 27 2 14 -1 18 -14 13 -11 -4 -14 -3 -9 5 4 7 5 12 2 12 -3 0 -8 -6 -13 -12z"/>
 <path d="M1159 213 c-13 -16 -12 -17 4 -4 16 13 21 21 13 21 -2 0 -10 -8 -17 -17z"/>
 <path d="M1184 198 c-4 -7 -3 -8 4 -4 7 4 12 9 12 12 0 8 -9 4 -16 -8z"/>
 <path d="M1164 168 c-4 -7 -3 -8 4 -4 7 4 12 9 12 12 0 8 -9 4 -16 -8z"/>
 <path d="M1230 60 c20 -13 33 -13 25 0 -3 6 -14 10 -23 10 -15 0 -15 -2 -2 -10z"/>
 </g>
<g id="layer105" fill="#fdfefe" stroke="none">
 <path d="M0 2513 l0 -76 23 20 c137 124 714 -47 950 -282 83 -83 106 -151 66 -194 -32 -35 -67 -44 -164 -43 -247 1 -616 153 -790 326 -28 28 -59 62 -68 76 -15 23 -16 -49 -16 -1045 0 -1010 1 -1069 17 -1045 56 81 139 150 277 228 302 172 704 233 758 115 18 -39 -8 -99 -71 -165 -230 -242 -819 -422 -960 -295 l-22 20 0 -76 0 -77 568 1 c312 0 560 3 552 6 -28 10 -50 36 -50 57 2 129 285 357 463 374 67 6 97 -12 97 -60 0 -107 -215 -298 -402 -357 l-63 -20 393 0 392 -1 -1 368 c0 267 -3 360 -11 342 -57 -136 -133 -240 -175 -240 -50 0 -31 114 38 232 45 76 101 128 130 121 19 -5 19 7 19 471 l0 476 -29 0 c-71 0 -207 242 -184 328 20 76 132 -45 202 -218 7 -17 10 86 10 343 l1 367 -392 -1 -393 -1 60 -17 c189 -56 405 -248 405 -360 0 -42 -23 -61 -76 -61 -102 0 -256 82 -374 199 -92 90 -124 156 -99 199 8 15 25 29 39 33 14 4 -233 7 -547 8 l-573 1 0 -77z m1481 -644 c48 -24 116 -90 129 -125 25 -66 -7 -126 -74 -138 -38 -7 -113 7 -157 29 -75 39 -139 123 -139 183 0 62 75 99 163 80 22 -5 57 -18 78 -29z m324 -249 c78 -48 78 -185 0 -166 -36 9 -69 47 -84 96 -10 35 -10 45 4 66 19 29 38 30 80 4z m-777 -104 c136 -48 211 -158 182 -266 -18 -68 -97 -141 -184 -170 -97 -32 -235 -26 -321 13 -148 69 -199 193 -126 310 30 48 115 104 186 122 71 18 200 13 263 -9z m537 -141 c38 -29 50 -65 35 -109 -14 -42 -53 -68 -110 -74 -44 -4 -51 -1 -86 31 -44 40 -51 85 -20 131 34 52 127 63 181 21z m290 -252 c37 -37 -13 -155 -72 -169 -37 -10 -58 7 -61 50 -7 86 84 168 133 119z m-266 -161 c30 -22 39 -78 20 -124 -17 -42 -99 -110 -157 -131 -125 -45 -228 0 -205 91 33 135 245 236 342 164z"/>
 </g>

</svg>