<!DOCTYPE svg PUBLIC "-//W3C//DTD SVG 20010904//EN" "http://www.w3.org/TR/2001/REC-SVG-20010904/DTD/svg10.dtd">
<svg version="1.0" xmlns="http://www.w3.org/2000/svg" width="784px" height="980px" viewBox="0 0 7840 9800" preserveAspectRatio="xMidYMid meet">
<g id="layer101" fill="#000000" stroke="none">
 <path d="M3337 9779 c-909 -13 -1211 -20 -1222 -29 -8 -7 -15 -28 -15 -48 0 -32 12 -48 133 -167 255 -254 1182 -1161 1220 -1193 28 -23 48 -32 75 -32 36 0 54 17 522 490 282 285 497 494 513 500 43 15 99 12 134 -7 50 -28 1045 -1008 1071 -1055 26 -49 28 -99 4 -150 -22 -48 -1004 -1052 -1054 -1079 -47 -24 -123 -25 -165 -1 -17 9 -236 218 -486 464 -279 274 -465 450 -481 454 -14 3 -37 4 -50 0 -13 -3 -310 -298 -700 -696 -641 -654 -676 -691 -676 -725 0 -20 4 -44 9 -53 17 -32 1341 -1317 1372 -1332 62 -29 73 -19 554 472 246 251 462 464 480 472 43 21 102 20 141 -2 49 -26 1069 -1027 1088 -1066 22 -46 20 -99 -4 -146 -19 -37 -976 -1016 -1043 -1067 -43 -32 -97 -38 -146 -16 -29 13 -185 159 -521 491 l-479 472 -48 0 c-39 0 -55 -6 -80 -27 -17 -16 -271 -273 -564 -573 -827 -846 -739 -750 -739 -801 l-1 -44 190 -185 c104 -102 419 -411 699 -687 323 -319 518 -504 535 -508 15 -4 39 -4 55 -1 18 4 173 154 497 481 516 521 499 507 594 483 52 -13 12 24 695 -643 277 -271 405 -402 417 -430 23 -50 23 -99 1 -147 -20 -44 -1019 -1061 -1065 -1084 -39 -21 -104 -21 -142 -1 -17 8 -244 227 -505 485 -262 258 -486 473 -499 477 -64 20 -66 18 -557 -483 -258 -262 -560 -570 -671 -683 l-203 -206 0 -47 c0 -91 -21 -86 324 -86 407 0 1822 18 2331 30 398 9 414 10 548 39 435 93 875 275 1212 499 201 134 294 210 461 377 376 376 595 801 681 1320 25 155 25 540 -1 710 -113 739 -519 1375 -1139 1783 -59 39 -139 88 -177 109 l-68 37 96 51 c588 308 1049 860 1238 1484 85 279 109 452 109 776 0 265 -11 367 -60 585 -131 582 -475 1113 -957 1475 -356 268 -759 430 -1215 490 -148 19 -647 18 -2266 -6z"/>
 <path d="M795 9756 l-780 -11 -9 -26 c-24 -69 -22 -72 404 -491 220 -216 414 -399 431 -406 23 -10 39 -10 64 -2 42 14 804 794 823 844 12 28 11 38 -2 69 l-15 37 -68 -2 c-37 -1 -419 -6 -848 -12z"/>
 <path d="M732 7258 c-68 -68 -255 -257 -414 -421 l-291 -298 6 -41 c5 -39 27 -63 324 -361 175 -175 362 -359 415 -408 137 -125 157 -123 299 30 46 49 220 229 386 399 184 189 304 319 309 336 13 51 -5 79 -120 191 -62 61 -248 242 -414 403 -285 277 -302 292 -338 292 -34 0 -47 -10 -162 -122z"/>
 <path d="M892 4143 c-13 -3 -179 -166 -422 -416 -413 -424 -424 -438 -403 -494 8 -23 791 -789 827 -810 12 -7 35 -13 51 -13 27 -1 76 46 432 407 273 277 406 418 411 438 5 17 5 43 1 59 -6 19 -138 157 -405 420 -218 215 -402 394 -408 397 -18 10 -60 16 -84 12z"/>
 <path d="M935 930 c-18 -7 -468 -463 -723 -732 -83 -88 -92 -101 -92 -135 0 -71 -68 -66 831 -59 448 4 830 9 851 12 28 4 39 12 48 34 6 16 9 37 6 48 -8 23 -795 810 -829 829 -25 14 -63 15 -92 3z"/>
 </g>
<g id="layer102" fill="#606060" stroke="none">
 <path d="M4683 9793 c81 -2 213 -2 295 0 81 1 14 3 -148 3 -162 0 -229 -2 -147 -3z"/>
 <path d="M5417 9793 c18 -2 50 -2 70 0 21 2 7 4 -32 4 -38 0 -55 -2 -38 -4z"/>
 <path d="M3963 9783 c81 -2 213 -2 295 0 81 1 14 3 -148 3 -162 0 -229 -2 -147 -3z"/>
 <path d="M5548 9783 c12 -2 32 -2 45 0 12 2 2 4 -23 4 -25 0 -35 -2 -22 -4z"/>
 <path d="M3233 9773 c81 -2 213 -2 295 0 81 1 14 3 -148 3 -162 0 -229 -2 -147 -3z"/>
 <path d="M5633 9773 c9 -2 25 -2 35 0 9 3 1 5 -18 5 -19 0 -27 -2 -17 -5z"/>
 <path d="M1637 9763 c62 -3 73 -7 78 -24 4 -11 9 -18 12 -16 2 3 0 15 -7 26 -9 19 -19 21 -83 19 l-72 -2 72 -3z"/>
 <path d="M2512 9763 c82 -2 214 -2 296 0 81 1 14 3 -148 3 -162 0 -229 -2 -148 -3z"/>
 <path d="M948 9753 c89 -2 235 -2 325 0 89 1 16 3 -163 3 -179 0 -252 -2 -162 -3z"/>
 <path d="M2112 9748 c-7 -7 -12 -28 -12 -47 0 -31 13 -48 133 -166 255 -254 1182 -1161 1220 -1193 28 -23 48 -32 75 -32 36 0 54 17 522 490 282 285 497 494 513 500 43 15 99 12 134 -7 50 -28 1045 -1008 1071 -1055 12 -23 22 -35 22 -27 0 8 -8 28 -19 44 -27 44 -1046 1038 -1078 1052 -38 16 -97 16 -136 -1 -28 -11 -347 -328 -902 -893 -84 -85 -94 -93 -129 -93 -35 0 -48 8 -135 93 -651 634 -1268 1243 -1275 1262 -5 12 -6 34 -2 48 5 23 12 26 59 30 l52 3 -50 2 c-29 1 -56 -3 -63 -10z"/>
 <path d="M10 9731 c-5 -11 -9 -35 -9 -53 1 -26 3 -28 6 -8 2 14 6 35 8 47 l5 23 298 3 297 2 -297 3 c-285 2 -298 1 -308 -17z"/>
 <path d="M5895 9724 c28 -7 55 -13 60 -13 17 2 -69 27 -90 27 -11 0 3 -6 30 -14z"/>
 <path d="M5985 9700 c11 -5 27 -9 35 -9 9 0 8 4 -5 9 -11 5 -27 9 -35 9 -9 0 -8 -4 5 -9z"/>
 <path d="M6089 9669 c30 -10 56 -17 58 -15 5 5 -86 36 -101 35 -6 0 13 -9 43 -20z"/>
 <path d="M1714 9651 c-12 -25 -745 -779 -786 -808 -31 -23 -31 -31 0 -14 20 11 783 795 795 817 5 9 7 17 4 20 -2 2 -8 -4 -13 -15z"/>
 <path d="M6161 9646 c2 -2 39 -18 81 -35 43 -17 130 -57 195 -90 249 -125 428 -256 639 -466 323 -323 529 -671 659 -1115 19 -63 34 -107 35 -98 0 9 -16 70 -36 135 -206 683 -673 1242 -1303 1557 -131 66 -290 132 -270 112z"/>
 <path d="M10 9630 c0 -5 358 -361 661 -658 85 -83 162 -152 170 -152 9 1 6 5 -7 13 -12 7 -202 190 -423 407 -220 218 -401 393 -401 390z"/>
 <path d="M5791 8160 c-1 -19 -9 -52 -19 -72 -22 -48 -1004 -1052 -1054 -1079 -47 -24 -123 -25 -165 -1 -17 9 -236 218 -486 464 -279 274 -465 450 -481 454 -14 3 -37 4 -50 0 -13 -3 -310 -298 -700 -696 -641 -654 -676 -691 -676 -725 0 -20 4 -44 9 -53 13 -24 1336 -1313 1363 -1329 13 -7 34 -12 48 -12 22 1 22 2 -5 8 -17 4 -38 12 -47 17 -9 5 -281 268 -604 584 -324 316 -626 611 -671 655 -137 133 -201 40 587 845 368 377 680 689 693 694 13 5 35 6 48 3 13 -3 231 -209 484 -457 253 -249 474 -458 492 -466 45 -20 117 -17 161 5 22 11 244 230 541 533 523 533 547 561 538 631 l-4 32 -2 -35z"/>
 <path d="M7772 7810 c-1 -8 5 -42 12 -75 8 -33 14 -49 14 -35 0 28 -25 133 -26 110z"/>
 <path d="M7813 7575 c0 -22 2 -30 4 -17 2 12 2 30 0 40 -3 9 -5 -1 -4 -23z"/>
 <path d="M7823 7485 c0 -27 2 -38 4 -22 2 15 2 37 0 50 -2 12 -4 0 -4 -28z"/>
 <path d="M7834 7230 c0 -107 2 -151 3 -97 2 53 2 141 0 195 -1 53 -3 9 -3 -98z"/>
 <path d="M732 7258 c-68 -68 -255 -257 -414 -421 l-291 -298 6 -41 c5 -39 27 -63 324 -361 175 -175 362 -359 415 -408 89 -81 101 -89 135 -88 l38 2 -42 6 c-38 7 -72 37 -438 396 -218 214 -403 401 -411 417 -34 65 -44 53 398 495 372 372 416 413 445 413 28 0 74 -41 435 -392 222 -215 408 -401 415 -412 20 -34 15 -72 -14 -108 -25 -31 -176 -187 -598 -617 -104 -106 -180 -189 -168 -182 11 6 59 51 105 100 45 49 219 229 385 399 184 189 304 319 309 336 13 51 -5 79 -120 191 -62 61 -248 242 -414 403 -285 277 -302 292 -338 292 -34 0 -47 -10 -162 -122z"/>
 <path d="M7823 6975 c0 -27 2 -38 4 -22 2 15 2 37 0 50 -2 12 -4 0 -4 -28z"/>
 <path d="M7813 6885 c0 -22 2 -30 4 -17 2 12 2 30 0 40 -3 9 -5 -1 -4 -23z"/>
 <path d="M7787 6744 c-10 -53 -16 -98 -14 -101 6 -5 40 173 36 186 -2 6 -12 -32 -22 -85z"/>
 <path d="M7756 6599 c-3 -18 -4 -34 -2 -36 2 -3 7 10 11 27 4 17 5 34 2 36 -2 3 -7 -10 -11 -27z"/>
 <path d="M7736 6524 c-4 -14 -5 -28 -3 -31 3 -2 8 8 11 23 4 14 5 28 3 31 -3 2 -8 -8 -11 -23z"/>
 <path d="M7692 6383 c-202 -589 -643 -1101 -1208 -1400 -57 -30 -104 -56 -104 -58 0 -1 42 -26 93 -55 222 -127 402 -266 587 -456 267 -274 451 -564 580 -915 27 -74 49 -128 50 -121 0 21 -81 233 -131 340 -226 484 -629 912 -1099 1169 l-68 37 96 51 c561 293 1000 802 1211 1399 17 49 30 93 29 98 -2 4 -18 -36 -36 -89z"/>
 <path d="M4580 6079 c-24 -8 -973 -960 -958 -959 4 0 142 136 305 303 164 166 369 375 457 464 88 89 174 169 192 178 42 20 101 19 140 -3 35 -19 1052 -1008 1079 -1049 10 -14 21 -49 26 -77 l8 -51 -3 53 c-2 36 -11 63 -27 86 -37 51 -1045 1029 -1082 1049 -34 18 -97 21 -137 6z"/>
 <path d="M5800 4849 c-13 -30 -979 -1017 -1044 -1066 -17 -13 -23 -23 -16 -23 20 0 1040 1033 1064 1076 10 19 16 37 14 40 -3 2 -11 -10 -18 -27z"/>
 <path d="M3483 4703 c-17 -16 -271 -273 -564 -573 -827 -846 -739 -750 -739 -801 l-1 -44 190 -185 c104 -102 419 -411 699 -687 323 -319 518 -504 535 -508 15 -4 39 -4 55 -1 18 4 171 152 492 477 370 373 473 473 505 484 22 8 32 14 22 15 -10 0 -31 -7 -46 -15 -16 -8 -235 -223 -487 -479 -308 -312 -468 -467 -487 -471 -15 -4 -39 -4 -53 -1 -25 7 -269 243 -1086 1055 -320 317 -328 326 -328 365 0 37 8 47 193 235 106 108 403 411 660 673 262 266 478 479 490 481 21 4 21 4 2 6 -12 0 -35 -11 -52 -26z"/>
 <path d="M3586 4723 c12 -2 236 -215 499 -474 443 -436 512 -499 547 -499 7 0 -4 8 -25 18 -23 11 -214 192 -517 490 -370 365 -484 472 -502 471 -21 -2 -22 -2 -2 -6z"/>
 <path d="M471 3728 c-221 -227 -401 -415 -401 -419 0 -7 54 48 540 550 140 145 264 267 275 271 16 7 17 9 3 9 -10 1 -189 -176 -417 -411z"/>
 <path d="M965 4124 c35 -18 803 -780 815 -809 8 -19 9 -19 9 -1 1 20 3 19 -490 505 -198 195 -333 321 -345 321 -14 0 -11 -4 11 -16z"/>
 <path d="M7691 3350 c0 -8 4 -24 9 -35 5 -13 9 -14 9 -5 0 8 -4 24 -9 35 -5 13 -9 14 -9 5z"/>
 <path d="M1780 3252 c0 -19 -793 -822 -817 -828 -13 -4 -34 -3 -47 0 -23 6 -218 191 -665 630 -101 100 -182 176 -180 169 5 -16 795 -784 823 -800 12 -7 35 -13 51 -13 27 -1 75 45 423 397 393 398 430 438 418 450 -3 3 -6 1 -6 -5z"/>
 <path d="M7732 3200 c-1 -8 5 -42 12 -75 8 -33 14 -49 14 -35 0 28 -25 133 -26 110z"/>
 <path d="M7772 2970 c0 -19 2 -27 5 -17 2 9 2 25 0 35 -3 9 -5 1 -5 -18z"/>
 <path d="M7783 2880 c0 -25 2 -35 4 -22 2 12 2 32 0 45 -2 12 -4 2 -4 -23z"/>
 <path d="M4755 2868 c44 -12 21 9 688 -643 219 -214 405 -402 414 -418 8 -17 19 -51 24 -76 l8 -46 -3 47 c-2 26 -12 63 -22 82 -18 33 -979 978 -1049 1032 -18 13 -47 26 -66 29 -31 4 -30 4 6 -7z"/>
 <path d="M7794 2630 c0 -102 2 -143 3 -92 2 50 2 134 0 185 -1 50 -3 9 -3 -93z"/>
 <path d="M7783 2395 c0 -27 2 -38 4 -22 2 15 2 37 0 50 -2 12 -4 0 -4 -28z"/>
 <path d="M7772 2310 c0 -19 2 -27 5 -17 2 9 2 25 0 35 -3 9 -5 1 -5 -18z"/>
 <path d="M7746 2169 c-4 -23 -5 -44 -2 -46 2 -2 7 14 11 37 4 23 5 43 2 46 -2 3 -7 -14 -11 -37z"/>
 <path d="M7726 2079 c-8 -42 0 -50 9 -9 4 17 5 34 2 36 -2 3 -7 -10 -11 -27z"/>
 <path d="M7683 1928 c-17 -57 -30 -104 -28 -106 5 -5 66 189 63 199 -2 5 -17 -37 -35 -93z"/>
 <path d="M7620 1752 c-189 -464 -563 -890 -1050 -1197 -134 -84 -402 -219 -547 -275 -62 -24 -111 -46 -109 -48 9 -9 250 95 411 176 178 90 402 233 545 348 207 166 452 441 588 660 76 122 201 379 189 390 -2 2 -14 -22 -27 -54z"/>
 <path d="M5860 1645 c-15 -35 -1014 -1055 -1054 -1077 -11 -6 -34 -15 -51 -19 -25 -6 -26 -7 -7 -8 13 -1 35 5 50 13 38 20 1046 1036 1067 1075 9 18 15 36 13 41 -2 5 -10 -6 -18 -25z"/>
 <path d="M3575 1521 c-11 -5 -229 -222 -485 -482 -255 -261 -556 -567 -667 -680 -158 -160 -203 -211 -202 -230 2 -23 2 -23 6 -1 3 13 285 308 671 702 704 719 695 710 755 683 12 -6 234 -220 493 -476 259 -256 485 -472 502 -481 17 -9 39 -16 49 -16 10 1 1 7 -20 14 -38 14 -359 320 -787 751 -107 108 -207 203 -222 211 -30 15 -62 17 -93 5z"/>
 <path d="M982 931 c46 -9 140 -96 561 -518 196 -198 307 -316 307 -329 0 -11 -7 -30 -16 -42 -8 -12 -11 -22 -6 -22 15 0 35 56 28 78 -8 23 -795 810 -829 829 -12 7 -35 12 -52 11 -28 0 -27 -1 7 -7z"/>
 <path d="M609 608 c-449 -461 -489 -504 -489 -525 1 -13 4 -11 13 9 10 22 457 490 737 771 37 37 64 67 61 67 -4 0 -149 -145 -322 -322z"/>
 <path d="M5820 205 c-36 -13 -60 -24 -54 -24 13 -1 134 39 134 45 0 7 -12 4 -80 -21z"/>
 <path d="M5710 172 c-8 -3 -69 -20 -135 -38 -66 -18 -113 -33 -104 -33 17 -1 270 67 278 74 6 7 -21 5 -39 -3z"/>
 <path d="M2221 74 c-1 -11 5 -28 12 -37 11 -16 49 -17 477 -15 l465 3 -467 3 -467 2 -10 33 c-6 21 -9 25 -10 11z"/>
 <path d="M5275 70 c-27 -7 -27 -8 -5 -8 14 0 39 4 55 8 27 7 27 8 5 8 -14 0 -38 -4 -55 -8z"/>
 <path d="M4878 53 c56 -2 148 -2 205 0 56 1 10 3 -103 3 -113 0 -159 -2 -102 -3z"/>
 <path d="M4303 43 c70 -2 184 -2 255 0 70 1 12 3 -128 3 -140 0 -198 -2 -127 -3z"/>
 <path d="M3512 33 c92 -2 245 -2 340 0 95 1 20 3 -167 3 -187 0 -265 -2 -173 -3z"/>
 <path d="M1292 13 c92 -2 245 -2 340 0 95 1 20 3 -167 3 -187 0 -265 -2 -173 -3z"/>
 <path d="M482 3 c92 -2 245 -2 340 0 95 1 20 3 -167 3 -187 0 -265 -2 -173 -3z"/>
 </g>
<g id="layer103" fill="#a2a2a2" stroke="none">
 <path d="M4623 9793 c48 -2 126 -2 175 0 48 1 8 3 -88 3 -96 0 -136 -2 -87 -3z"/>
 <path d="M5468 9793 c12 -2 30 -2 40 0 9 3 -1 5 -23 4 -22 0 -30 -2 -17 -4z"/>
 <path d="M3903 9783 c48 -2 126 -2 175 0 48 1 8 3 -88 3 -96 0 -136 -2 -87 -3z"/>
 <path d="M3173 9773 c48 -2 126 -2 175 0 48 1 8 3 -88 3 -96 0 -136 -2 -87 -3z"/>
 <path d="M1590 9764 c60 -8 128 -8 123 -1 -2 4 -37 6 -76 6 -40 -1 -61 -3 -47 -5z"/>
 <path d="M2453 9763 c48 -2 126 -2 175 0 48 1 8 3 -88 3 -96 0 -136 -2 -87 -3z"/>
 <path d="M883 9753 c53 -2 141 -2 195 0 53 1 9 3 -98 3 -107 0 -151 -2 -97 -3z"/>
 <path d="M17 9743 c-3 -5 45 -7 106 -5 203 4 224 8 60 10 -89 1 -164 -1 -166 -5z"/>
 <path d="M2250 9515 c80 -80 147 -145 150 -145 2 0 -60 65 -140 145 -80 80 -147 145 -150 145 -2 0 60 -65 140 -145z"/>
 <path d="M10 9634 c0 -5 116 -124 258 -264 l257 -255 -255 260 c-140 142 -256 261 -257 264 -2 2 -3 0 -3 -5z"/>
 <path d="M1630 9553 l-85 -88 88 85 c81 79 92 90 84 90 -1 0 -41 -39 -87 -87z"/>
 <path d="M1345 9258 l-180 -183 183 180 c100 99 182 181 182 182 0 8 -18 -10 -185 -179z"/>
 <path d="M2670 9105 c129 -129 237 -235 240 -235 3 0 -101 106 -230 235 -129 129 -237 235 -240 235 -3 0 101 -106 230 -235z"/>
 <path d="M4608 9313 c12 -2 30 -2 40 0 9 3 -1 5 -23 4 -22 0 -30 -2 -17 -4z"/>
 <path d="M4700 9299 c3 -2 88 -85 190 -184 l185 -180 -170 173 c-93 95 -179 178 -190 184 -11 6 -18 9 -15 7z"/>
 <path d="M4260 9023 l-265 -268 268 265 c147 146 267 266 267 267 0 8 -24 -16 -270 -264z"/>
 <path d="M6840 9277 c0 -2 24 -24 53 -48 28 -24 46 -36 38 -26 -16 20 -91 81 -91 74z"/>
 <path d="M6985 9150 c21 -22 41 -40 44 -40 3 0 -13 18 -34 40 -21 22 -41 40 -44 40 -3 0 13 -18 34 -40z"/>
 <path d="M7050 9097 c0 -2 15 -16 33 -33 l32 -29 -29 33 c-28 30 -36 37 -36 29z"/>
 <path d="M690 8955 c69 -69 127 -125 130 -125 2 0 -51 56 -120 125 -69 69 -127 125 -130 125 -2 0 51 -56 120 -125z"/>
 <path d="M1035 8938 l-110 -113 113 110 c104 102 117 115 109 115 -1 0 -52 -51 -112 -112z"/>
 <path d="M7165 8970 c27 -27 51 -50 54 -50 3 0 -17 23 -44 50 -27 28 -51 50 -54 50 -3 0 17 -22 44 -50z"/>
 <path d="M5350 8665 c135 -135 247 -245 250 -245 3 0 -105 110 -240 245 -135 135 -247 245 -250 245 -3 0 105 -110 240 -245z"/>
 <path d="M3175 8610 c132 -132 242 -240 245 -240 3 0 -103 108 -235 240 -132 132 -242 240 -245 240 -3 0 103 -108 235 -240z"/>
 <path d="M7360 8730 c12 -16 24 -30 26 -30 3 0 -4 14 -16 30 -12 17 -24 30 -26 30 -3 0 4 -13 16 -30z"/>
 <path d="M3760 8515 c-107 -107 -193 -195 -190 -195 3 0 93 88 200 195 107 107 193 195 190 195 -3 0 -93 -88 -200 -195z"/>
 <path d="M7419 8645 c5 -11 17 -29 26 -40 l16 -20 -10 20 c-5 11 -17 29 -26 40 l-16 20 10 -20z"/>
 <path d="M5685 8340 c33 -33 62 -60 64 -60 3 0 -21 27 -54 60 -33 33 -62 60 -64 60 -3 0 21 -27 54 -60z"/>
 <path d="M5776 8095 c-5 -20 -60 -84 -159 -185 l-152 -155 148 145 c143 140 183 188 174 213 -2 7 -7 -2 -11 -18z"/>
 <path d="M3543 7923 c9 -2 25 -2 35 0 9 3 1 5 -18 5 -19 0 -27 -2 -17 -5z"/>
 <path d="M3320 7725 c-107 -107 -193 -195 -190 -195 3 0 93 88 200 195 107 107 193 195 190 195 -3 0 -93 -88 -200 -195z"/>
 <path d="M3855 7670 c126 -126 232 -230 235 -230 3 0 -99 104 -225 230 -126 127 -232 230 -235 230 -3 0 99 -103 225 -230z"/>
 <path d="M5190 7473 l-245 -248 248 245 c136 135 247 246 247 247 0 8 -22 -15 -250 -244z"/>
 <path d="M2870 7263 l-225 -228 228 225 c125 124 227 226 227 227 0 8 -21 -13 -230 -224z"/>
 <path d="M7833 7365 c0 -33 2 -45 4 -27 2 18 2 45 0 60 -2 15 -4 0 -4 -33z"/>
 <path d="M4130 7407 c0 -1 89 -90 198 -197 l197 -195 -195 198 c-181 183 -200 202 -200 194z"/>
 <path d="M920 7369 c14 -5 81 -65 150 -132 l125 -122 -131 133 c-81 82 -138 132 -150 131 -15 0 -14 -2 6 -10z"/>
 <path d="M580 7103 l-265 -268 268 265 c248 246 272 270 264 270 -1 0 -121 -120 -267 -267z"/>
 <path d="M4830 7103 l-85 -88 88 85 c48 46 87 86 87 87 0 8 -11 -3 -90 -84z"/>
 <path d="M7833 7095 c0 -33 2 -45 4 -27 2 18 2 45 0 60 -2 15 -4 0 -4 -33z"/>
 <path d="M1385 6930 c88 -88 162 -160 165 -160 3 0 -67 72 -155 160 -88 88 -162 160 -165 160 -3 0 67 -72 155 -160z"/>
 <path d="M2395 6778 l-220 -223 223 220 c206 204 227 225 219 225 -1 0 -101 -100 -222 -222z"/>
 <path d="M4608 6983 c12 -2 32 -2 45 0 12 2 2 4 -23 4 -25 0 -35 -2 -22 -4z"/>
 <path d="M1665 6660 c44 -44 82 -80 85 -80 2 0 -31 36 -75 80 -44 44 -82 80 -85 80 -2 0 31 -36 75 -80z"/>
 <path d="M1762 6520 c0 -19 2 -27 5 -17 2 9 2 25 0 35 -3 9 -5 1 -5 -18z"/>
 <path d="M32 6510 c0 -19 2 -27 5 -17 2 9 2 25 0 35 -3 9 -5 1 -5 -18z"/>
 <path d="M40 6464 c0 -5 165 -173 368 -374 l367 -365 -365 370 c-201 203 -366 371 -367 374 -2 2 -3 0 -3 -5z"/>
 <path d="M1610 6323 l-135 -138 138 135 c127 125 142 140 134 140 -1 0 -63 -62 -137 -137z"/>
 <path d="M2305 6310 c77 -77 142 -140 145 -140 2 0 -58 63 -135 140 -77 77 -142 140 -145 140 -2 0 58 -63 135 -140z"/>
 <path d="M7567 6085 c-26 -52 -45 -95 -42 -95 7 0 97 181 93 186 -2 2 -25 -39 -51 -91z"/>
 <path d="M1285 5988 l-170 -173 173 170 c160 158 177 175 169 175 -1 0 -79 -78 -172 -172z"/>
 <path d="M2675 5950 c110 -110 202 -200 205 -200 3 0 -85 90 -195 200 -110 110 -202 200 -205 200 -3 0 85 -90 195 -200z"/>
 <path d="M4623 6083 c9 -2 25 -2 35 0 9 3 1 5 -18 5 -19 0 -27 -2 -17 -5z"/>
 <path d="M4406 5918 l-151 -152 155 149 c85 83 157 151 159 153 2 1 1 2 -4 2 -5 0 -76 -68 -159 -152z"/>
 <path d="M4915 5880 c93 -93 172 -170 175 -170 3 0 -72 77 -165 170 -93 94 -172 170 -175 170 -3 0 72 -76 165 -170z"/>
 <path d="M1030 5723 l-65 -68 68 65 c37 35 67 66 67 67 0 8 -10 -2 -70 -64z"/>
 <path d="M3105 5530 c110 -110 202 -200 205 -200 3 0 -85 90 -195 200 -110 110 -202 200 -205 200 -3 0 85 -90 195 -200z"/>
 <path d="M3985 5488 l-240 -243 243 240 c133 132 242 241 242 242 0 8 -22 -14 -245 -239z"/>
 <path d="M7324 5693 c-15 -20 -23 -33 -16 -29 13 8 56 66 49 66 -3 0 -17 -17 -33 -37z"/>
 <path d="M5285 5520 c99 -99 182 -180 185 -180 3 0 -76 81 -175 180 -99 99 -182 180 -185 180 -3 0 76 -81 175 -180z"/>
 <path d="M7224 5568 l-29 -33 33 29 c30 28 37 36 29 36 -2 0 -16 -15 -33 -32z"/>
 <path d="M7095 5428 l-100 -103 103 100 c95 93 107 105 99 105 -1 0 -47 -46 -102 -102z"/>
 <path d="M5645 5170 c88 -91 162 -167 164 -170 2 -3 -1 4 -7 15 -6 11 -80 88 -164 170 l-153 150 160 -165z"/>
 <path d="M6954 5298 l-29 -33 33 29 c30 28 37 36 29 36 -2 0 -16 -15 -33 -32z"/>
 <path d="M3425 5220 c49 -49 92 -90 95 -90 2 0 -36 41 -85 90 -49 50 -92 90 -95 90 -2 0 36 -40 85 -90z"/>
 <path d="M3665 5163 c-27 -25 -41 -41 -30 -35 19 10 94 82 84 82 -2 -1 -26 -22 -54 -47z"/>
 <path d="M6785 5164 l-30 -26 33 22 c17 12 32 23 32 26 0 7 -4 5 -35 -22z"/>
 <path d="M6518 4999 c-21 -11 -38 -22 -38 -24 0 -3 18 4 40 15 22 11 40 23 40 25 0 7 0 7 -42 -16z"/>
 <path d="M6380 4925 c0 -2 18 -14 40 -25 22 -11 40 -18 40 -15 0 2 -18 14 -40 25 -22 11 -40 18 -40 15z"/>
 <path d="M5804 4858 c-4 -13 -39 -57 -78 -98 l-70 -75 68 65 c63 61 104 116 93 127 -3 2 -8 -6 -13 -19z"/>
 <path d="M3605 4719 c11 -6 148 -138 305 -293 l285 -281 -290 293 c-160 160 -297 292 -305 292 -10 -1 -8 -4 5 -11z"/>
 <path d="M6710 4727 c0 -3 17 -17 37 -33 20 -15 33 -23 29 -16 -8 13 -66 56 -66 49z"/>
 <path d="M3449 4673 l-34 -38 38 34 c34 33 42 41 34 41 -2 0 -19 -17 -38 -37z"/>
 <path d="M5225 4248 l-380 -383 383 380 c210 209 382 381 382 382 0 7 -32 -24 -385 -379z"/>
 <path d="M3135 4348 l-240 -243 243 240 c133 132 242 241 242 242 0 8 -22 -14 -245 -239z"/>
 <path d="M6890 4587 c0 -2 15 -16 33 -33 l32 -29 -29 33 c-28 30 -36 37 -36 29z"/>
 <path d="M6970 4517 c0 -1 35 -36 78 -77 l77 -75 -75 78 c-69 71 -80 82 -80 74z"/>
 <path d="M7155 4320 c21 -22 41 -40 44 -40 3 0 -13 18 -34 40 -21 22 -41 40 -44 40 -3 0 13 -18 34 -40z"/>
 <path d="M7279 4168 c24 -32 45 -58 48 -58 7 0 -59 89 -76 103 -8 7 5 -14 28 -45z"/>
 <path d="M705 3968 l-170 -173 175 170 c96 94 176 171 179 173 2 1 0 2 -5 2 -5 0 -86 -78 -179 -172z"/>
 <path d="M965 4129 c11 -6 135 -124 275 -263 l255 -251 -260 263 c-144 144 -267 262 -275 262 -10 -1 -8 -4 5 -11z"/>
 <path d="M7366 4048 c20 -32 39 -58 41 -58 7 0 -29 58 -55 88 -13 15 -6 1 14 -30z"/>
 <path d="M4425 3923 c89 -90 168 -163 176 -163 9 1 7 4 -6 11 -11 6 -90 79 -175 163 l-155 151 160 -162z"/>
 <path d="M2625 3828 l-240 -243 243 240 c225 223 247 245 239 245 -1 0 -110 -109 -242 -242z"/>
 <path d="M7500 3820 c11 -22 23 -40 25 -40 3 0 -4 18 -15 40 -11 22 -23 40 -25 40 -3 0 4 -18 15 -40z"/>
 <path d="M360 3613 l-155 -158 158 155 c86 85 157 156 157 157 0 8 -16 -8 -160 -154z"/>
 <path d="M7531 3765 c0 -5 8 -26 19 -45 11 -19 19 -30 19 -25 0 6 -8 26 -19 45 -11 19 -19 31 -19 25z"/>
 <path d="M1671 3445 c53 -55 101 -109 107 -120 7 -12 12 -15 12 -6 0 8 -48 62 -107 120 l-108 106 96 -100z"/>
 <path d="M2265 3458 l-80 -83 83 80 c76 74 87 85 79 85 -1 0 -38 -37 -82 -82z"/>
 <path d="M125 3370 c-32 -33 -57 -61 -54 -63 2 -1 31 26 63 60 75 80 69 82 -9 3z"/>
 <path d="M2300 3165 c63 -63 117 -115 120 -115 2 0 -47 52 -110 115 -63 63 -117 115 -120 115 -2 0 47 -52 110 -115z"/>
 <path d="M70 3224 c0 -5 30 -39 68 -74 l67 -65 -65 70 c-36 38 -66 71 -67 74 -2 2 -3 0 -3 -5z"/>
 <path d="M1600 3053 l-175 -178 178 175 c164 162 182 180 174 180 -1 0 -81 -80 -177 -177z"/>
 <path d="M390 2905 c91 -91 167 -165 170 -165 3 0 -69 74 -160 165 -91 91 -167 165 -170 165 -3 0 69 -74 160 -165z"/>
 <path d="M2760 2715 c168 -168 307 -305 310 -305 3 0 -132 137 -300 305 -168 168 -307 305 -310 305 -3 0 132 -137 300 -305z"/>
 <path d="M1190 2633 l-215 -218 218 215 c202 200 222 220 214 220 -1 0 -99 -98 -217 -217z"/>
 <path d="M4430 2673 l-175 -178 178 175 c164 162 182 180 174 180 -1 0 -81 -80 -177 -177z"/>
 <path d="M4930 2725 c63 -63 117 -115 120 -115 2 0 -47 52 -110 115 -63 63 -117 115 -120 115 -2 0 47 -52 110 -115z"/>
 <path d="M7793 2765 c0 -27 2 -38 4 -22 2 15 2 37 0 50 -2 12 -4 0 -4 -28z"/>
 <path d="M725 2580 c82 -82 152 -150 155 -150 2 0 -63 68 -145 150 -82 83 -152 150 -155 150 -2 0 63 -67 145 -150z"/>
 <path d="M5250 2415 c102 -102 187 -185 190 -185 3 0 -78 83 -180 185 -102 102 -187 185 -190 185 -3 0 78 -83 180 -185z"/>
 <path d="M7793 2500 c0 -30 2 -43 4 -27 2 15 2 39 0 55 -2 15 -4 2 -4 -28z"/>
 <path d="M3945 2178 l-260 -263 263 260 c144 143 262 261 262 262 0 8 -24 -16 -265 -259z"/>
 <path d="M923 2413 c9 -2 25 -2 35 0 9 3 1 5 -18 5 -19 0 -27 -2 -17 -5z"/>
 <path d="M3335 2150 c126 -126 232 -230 235 -230 3 0 -99 104 -225 230 -126 127 -232 230 -235 230 -3 0 99 -103 225 -230z"/>
 <path d="M5666 2010 c100 -102 187 -194 193 -205 7 -13 10 -15 11 -6 0 8 -87 101 -192 206 l-193 190 181 -185z"/>
 <path d="M3613 1903 c9 -2 25 -2 35 0 9 3 1 5 -18 5 -19 0 -27 -2 -17 -5z"/>
 <path d="M5620 1383 l-225 -228 228 225 c211 209 232 230 224 230 -1 0 -103 -102 -227 -227z"/>
 <path d="M7505 1510 c-9 -16 -13 -30 -11 -30 3 0 12 14 21 30 9 17 13 30 11 30 -3 0 -12 -13 -21 -30z"/>
 <path d="M3603 1523 c9 -2 25 -2 35 0 9 3 1 5 -18 5 -19 0 -27 -2 -17 -5z"/>
 <path d="M3340 1293 l-225 -228 230 225 c126 124 231 226 234 228 2 1 0 2 -5 2 -5 0 -110 -102 -234 -227z"/>
 <path d="M3985 1200 c170 -170 312 -310 315 -310 3 0 -135 140 -305 310 -170 171 -312 310 -315 310 -3 0 135 -139 305 -310z"/>
 <path d="M7416 1363 c-20 -32 -27 -46 -14 -31 26 30 62 88 55 88 -2 0 -21 -26 -41 -57z"/>
 <path d="M7224 1108 l-29 -33 33 29 c17 17 32 31 32 33 0 8 -8 1 -36 -29z"/>
 <path d="M5075 828 l-260 -263 263 260 c144 143 262 261 262 262 0 8 -24 -16 -265 -259z"/>
 <path d="M7090 963 l-105 -108 108 105 c59 57 107 106 107 107 0 8 -13 -5 -110 -104z"/>
 <path d="M2850 793 l-235 -238 238 235 c220 218 242 240 234 240 -1 0 -108 -107 -237 -237z"/>
 <path d="M963 933 c9 -2 25 -2 35 0 9 3 1 5 -18 5 -19 0 -27 -2 -17 -5z"/>
 <path d="M790 793 l-135 -138 140 135 c76 74 141 136 144 138 2 1 0 2 -5 2 -5 0 -70 -62 -144 -137z"/>
 <path d="M1370 585 c184 -184 337 -335 340 -335 3 0 -146 151 -330 335 -184 184 -337 335 -340 335 -3 0 146 -151 330 -335z"/>
 <path d="M6934 818 l-29 -33 33 29 c17 17 32 31 32 33 0 8 -8 1 -36 -29z"/>
 <path d="M4490 708 c74 -76 136 -138 137 -138 8 0 -7 15 -134 140 l-138 135 135 -137z"/>
 <path d="M6850 749 l-45 -41 42 32 c37 27 61 51 51 50 -2 0 -23 -19 -48 -41z"/>
 <path d="M6725 654 l-30 -26 33 22 c17 12 32 23 32 26 0 7 -4 5 -35 -22z"/>
 <path d="M455 448 l-180 -183 183 180 c169 167 187 185 179 185 -1 0 -83 -82 -182 -182z"/>
 <path d="M6563 549 c-35 -22 -46 -37 -15 -20 22 13 58 40 52 41 -3 0 -20 -10 -37 -21z"/>
 <path d="M2402 337 c-100 -101 -182 -190 -182 -198 1 -9 4 -7 11 6 6 11 91 100 188 198 96 97 173 177 171 177 -3 0 -88 -82 -188 -183z"/>
 <path d="M6418 464 c-38 -20 -36 -28 2 -9 17 9 30 18 30 20 0 7 -1 6 -32 -11z"/>
 <path d="M190 173 l-65 -68 68 65 c37 35 67 66 67 67 0 8 -10 -2 -70 -64z"/>
 <path d="M4998 53 c34 -2 90 -2 125 0 34 2 6 3 -63 3 -69 0 -97 -1 -62 -3z"/>
 <path d="M4453 43 c42 -2 112 -2 155 0 42 1 7 3 -78 3 -85 0 -120 -2 -77 -3z"/>
 <path d="M3728 33 c57 -2 147 -2 200 0 53 1 7 3 -103 3 -110 0 -154 -2 -97 -3z"/>
 <path d="M2733 23 c81 -2 213 -2 295 0 81 1 14 3 -148 3 -162 0 -229 -2 -147 -3z"/>
 <path d="M1498 13 c56 -2 148 -2 205 0 56 1 10 3 -103 3 -113 0 -159 -2 -102 -3z"/>
 <path d="M698 3 c57 -2 147 -2 200 0 53 1 7 3 -103 3 -110 0 -154 -2 -97 -3z"/>
 </g>
<g id="layer104" fill="#e7e7e7" stroke="none">
 <path d="M4578 9793 c23 -2 59 -2 80 0 20 2 1 4 -43 4 -44 0 -61 -2 -37 -4z"/>
 <path d="M3858 9783 c23 -2 59 -2 80 0 20 2 1 4 -43 4 -44 0 -61 -2 -37 -4z"/>
 <path d="M3128 9773 c23 -2 59 -2 80 0 20 2 1 4 -43 4 -44 0 -61 -2 -37 -4z"/>
 <path d="M1590 9764 c60 -8 128 -8 123 -1 -2 4 -37 6 -76 6 -40 -1 -61 -3 -47 -5z"/>
 <path d="M2408 9763 c23 -2 59 -2 80 0 20 2 1 4 -43 4 -44 0 -61 -2 -37 -4z"/>
 <path d="M828 9753 c23 -2 61 -2 85 0 23 2 4 4 -43 4 -47 0 -66 -2 -42 -4z"/>
 <path d="M17 9743 c-3 -5 16 -7 41 -5 73 5 82 10 20 11 -31 0 -59 -2 -61 -6z"/>
 <path d="M2250 9515 c80 -80 147 -145 150 -145 2 0 -60 65 -140 145 -80 80 -147 145 -150 145 -2 0 60 -65 140 -145z"/>
 <path d="M280 9355 c129 -129 237 -235 240 -235 3 0 -101 106 -230 235 -129 129 -237 235 -240 235 -3 0 101 -106 230 -235z"/>
 <path d="M1410 9323 l-115 -118 118 115 c64 63 117 116 117 117 0 8 -13 -5 -120 -114z"/>
 <path d="M4375 9138 l-140 -143 143 140 c78 77 142 141 142 142 0 8 -15 -7 -145 -139z"/>
 <path d="M4910 9095 c85 -85 157 -155 160 -155 3 0 -65 70 -150 155 -85 85 -157 155 -160 155 -3 0 65 -70 150 -155z"/>
 <path d="M2750 9025 c85 -85 157 -155 160 -155 3 0 -65 70 -150 155 -85 85 -157 155 -160 155 -3 0 65 -70 150 -155z"/>
 <path d="M7050 9097 c0 -2 15 -16 33 -33 l32 -29 -29 33 c-28 30 -36 37 -36 29z"/>
 <path d="M1035 8938 l-110 -113 113 110 c104 102 117 115 109 115 -1 0 -52 -51 -112 -112z"/>
 <path d="M5435 8580 c88 -88 162 -160 165 -160 3 0 -67 72 -155 160 -88 88 -162 160 -165 160 -3 0 67 -72 155 -160z"/>
 <path d="M3760 8515 c-107 -107 -193 -195 -190 -195 3 0 93 88 200 195 107 107 193 195 190 195 -3 0 -93 -88 -200 -195z"/>
 <path d="M3260 8525 c85 -85 157 -155 160 -155 3 0 -65 70 -150 155 -85 85 -157 155 -160 155 -3 0 65 -70 150 -155z"/>
 <path d="M5605 7898 l-140 -143 143 140 c78 77 142 141 142 142 0 8 -15 -7 -145 -139z"/>
 <path d="M3775 7750 c82 -82 152 -150 155 -150 2 0 -63 68 -145 150 -82 83 -152 150 -155 150 -2 0 63 -67 145 -150z"/>
 <path d="M3280 7683 l-155 -158 158 155 c146 144 162 160 154 160 -1 0 -72 -71 -157 -157z"/>
 <path d="M5110 7393 l-165 -168 168 165 c92 91 167 166 167 167 0 8 -17 -9 -170 -164z"/>
 <path d="M4285 7250 c88 -88 162 -160 165 -160 3 0 -67 72 -155 160 -88 88 -162 160 -165 160 -3 0 67 -72 155 -160z"/>
 <path d="M580 7103 l-265 -268 268 265 c248 246 272 270 264 270 -1 0 -121 -120 -267 -267z"/>
 <path d="M940 7367 c0 -1 35 -36 78 -77 l77 -75 -75 78 c-69 71 -80 82 -80 74z"/>
 <path d="M2800 7193 l-155 -158 158 155 c146 144 162 160 154 160 -1 0 -72 -71 -157 -157z"/>
 <path d="M1335 6980 c60 -60 112 -110 115 -110 2 0 -45 50 -105 110 -60 61 -112 110 -115 110 -2 0 45 -49 105 -110z"/>
 <path d="M2325 6710 c-82 -82 -147 -150 -145 -150 3 0 73 68 155 150 82 83 147 150 145 150 -3 0 -73 -67 -155 -150z"/>
 <path d="M1665 6660 c44 -44 82 -80 85 -80 2 0 -31 36 -75 80 -44 44 -82 80 -85 80 -2 0 31 -36 75 -80z"/>
 <path d="M1675 6388 l-70 -73 73 70 c39 38 72 71 72 72 0 8 -11 -2 -75 -69z"/>
 <path d="M2315 6300 c71 -71 132 -130 135 -130 2 0 -54 59 -125 130 -71 72 -132 130 -135 130 -2 0 54 -58 125 -130z"/>
 <path d="M470 6025 c162 -162 297 -295 300 -295 3 0 -128 133 -290 295 -162 162 -297 295 -300 295 -3 0 128 -133 290 -295z"/>
 <path d="M1345 6048 l-110 -113 113 110 c61 60 112 111 112 112 0 8 -13 -5 -115 -109z"/>
 <path d="M4475 5988 l-60 -63 63 60 c58 55 67 65 59 65 -1 0 -29 -28 -62 -62z"/>
 <path d="M2745 5880 c71 -71 132 -130 135 -130 2 0 -54 59 -125 130 -71 72 -132 130 -135 130 -2 0 54 -58 125 -130z"/>
 <path d="M4965 5830 c66 -66 122 -120 125 -120 2 0 -49 54 -115 120 -66 66 -122 120 -125 120 -2 0 49 -54 115 -120z"/>
 <path d="M1030 5723 l-65 -68 68 65 c37 35 67 66 67 67 0 8 -10 -2 -70 -64z"/>
 <path d="M4070 5573 l-155 -158 158 155 c146 144 162 160 154 160 -1 0 -72 -71 -157 -157z"/>
 <path d="M3175 5460 c71 -71 132 -130 135 -130 2 0 -54 59 -125 130 -71 72 -132 130 -135 130 -2 0 54 -58 125 -130z"/>
 <path d="M5350 5455 c63 -63 117 -115 120 -115 2 0 -47 52 -110 115 -63 63 -117 115 -120 115 -2 0 47 -52 110 -115z"/>
 <path d="M7095 5428 l-100 -103 103 100 c95 93 107 105 99 105 -1 0 -47 -46 -102 -102z"/>
 <path d="M3675 5168 l-40 -43 43 40 c23 21 42 40 42 42 0 8 -9 0 -45 -39z"/>
 <path d="M5700 5115 c47 -47 87 -85 90 -85 2 0 -33 38 -80 85 -47 47 -87 85 -90 85 -2 0 33 -38 80 -85z"/>
 <path d="M5720 4753 l-65 -68 68 65 c37 35 67 66 67 67 0 8 -10 -2 -70 -64z"/>
 <path d="M3805 4530 c104 -104 192 -190 195 -190 3 0 -81 86 -185 190 -104 105 -192 190 -195 190 -3 0 81 -85 185 -190z"/>
 <path d="M3449 4673 l-34 -38 38 34 c34 33 42 41 34 41 -2 0 -19 -17 -38 -37z"/>
 <path d="M6970 4517 c0 -1 35 -36 78 -77 l77 -75 -75 78 c-69 71 -80 82 -80 74z"/>
 <path d="M3060 4273 l-165 -168 168 165 c92 91 167 166 167 167 0 8 -17 -9 -170 -164z"/>
 <path d="M5100 4123 l-255 -258 258 255 c239 237 262 260 254 260 -1 0 -117 -116 -257 -257z"/>
 <path d="M1100 4005 c69 -69 127 -125 130 -125 2 0 -51 56 -120 125 -69 69 -127 125 -130 125 -2 0 51 -56 120 -125z"/>
 <path d="M4410 3935 c85 -85 157 -155 160 -155 3 0 -65 70 -150 155 -85 85 -157 155 -160 155 -3 0 65 -70 150 -155z"/>
 <path d="M640 3903 l-105 -108 108 105 c59 57 107 106 107 107 0 8 -13 -5 -110 -104z"/>
 <path d="M2545 3748 l-160 -163 163 160 c89 88 162 161 162 162 0 8 -17 -9 -165 -159z"/>
 <path d="M310 3563 l-105 -108 108 105 c99 97 112 110 104 110 -1 0 -50 -48 -107 -107z"/>
 <path d="M1670 3448 c97 -100 110 -113 110 -105 0 1 -48 50 -107 107 l-108 105 105 -107z"/>
 <path d="M2300 3165 c63 -63 117 -115 120 -115 2 0 -47 52 -110 115 -63 63 -117 115 -120 115 -2 0 47 -52 110 -115z"/>
 <path d="M1685 3138 l-90 -93 93 90 c50 49 92 91 92 92 0 8 -12 -4 -95 -89z"/>
 <path d="M130 3155 c35 -36 67 -65 69 -65 3 0 -24 29 -59 65 -35 36 -67 65 -69 65 -3 0 24 -29 59 -65z"/>
 <path d="M450 2848 c57 -60 106 -108 107 -108 8 0 -5 13 -104 110 l-108 105 105 -107z"/>
 <path d="M1260 2703 l-145 -148 148 145 c81 80 147 146 147 147 0 8 -16 -7 -150 -144z"/>
 <path d="M4559 2803 l-34 -38 38 34 c20 19 37 36 37 38 0 8 -8 0 -41 -34z"/>
 <path d="M4935 2720 c60 -60 112 -110 115 -110 2 0 -45 50 -105 110 -60 61 -112 110 -115 110 -2 0 45 -49 105 -110z"/>
 <path d="M2865 2610 c110 -110 202 -200 205 -200 3 0 -85 90 -195 200 -110 110 -202 200 -205 200 -3 0 85 -90 195 -200z"/>
 <path d="M785 2520 c49 -49 92 -90 95 -90 2 0 -36 41 -85 90 -49 50 -92 90 -95 90 -2 0 36 -40 85 -90z"/>
 <path d="M5315 2350 c66 -66 122 -120 125 -120 2 0 -49 54 -115 120 -66 66 -122 120 -125 120 -2 0 49 -54 115 -120z"/>
 <path d="M3965 2198 l-240 -243 243 240 c133 132 242 241 242 242 0 8 -22 -14 -245 -239z"/>
 <path d="M3440 2045 c69 -69 127 -125 130 -125 2 0 -51 56 -120 125 -69 69 -127 125 -130 125 -2 0 51 -56 120 -125z"/>
 <path d="M5720 1955 c69 -69 127 -125 130 -125 2 0 -51 56 -120 125 -69 69 -127 125 -130 125 -2 0 51 -56 120 -125z"/>
 <path d="M5615 1378 l-220 -223 223 220 c122 121 222 221 222 222 0 8 -21 -13 -225 -219z"/>
 <path d="M3875 1310 c110 -110 202 -200 205 -200 3 0 -85 90 -195 200 -110 110 -202 200 -205 200 -3 0 85 -90 195 -200z"/>
 <path d="M3275 1228 l-160 -163 163 160 c150 148 167 165 159 165 -1 0 -74 -73 -162 -162z"/>
 <path d="M7090 963 l-105 -108 108 105 c59 57 107 106 107 107 0 8 -13 -5 -110 -104z"/>
 <path d="M1220 735 c102 -102 187 -185 190 -185 3 0 -78 83 -180 185 -102 102 -187 185 -190 185 -3 0 78 -83 180 -185z"/>
 <path d="M775 780 c-66 -66 -117 -120 -115 -120 3 0 59 54 125 120 66 66 117 120 115 120 -3 0 -59 -54 -125 -120z"/>
 <path d="M2775 718 l-160 -163 163 160 c150 148 167 165 159 165 -1 0 -74 -73 -162 -162z"/>
 <path d="M4490 708 c74 -76 136 -138 137 -138 8 0 -7 15 -134 140 l-138 135 135 -137z"/>
 <path d="M4930 683 l-105 -108 108 105 c99 97 112 110 104 110 -1 0 -50 -48 -107 -107z"/>
 <path d="M400 393 l-125 -128 128 125 c70 69 127 126 127 127 0 8 -14 -6 -130 -124z"/>
 <path d="M2330 263 l-105 -108 108 105 c59 57 107 106 107 107 0 8 -13 -5 -110 -104z"/>
 <path d="M5103 53 c15 -2 39 -2 55 0 15 2 2 4 -28 4 -30 0 -43 -2 -27 -4z"/>
 <path d="M4577 43 c18 -2 50 -2 70 0 21 2 7 4 -32 4 -38 0 -55 -2 -38 -4z"/>
 <path d="M3893 33 c26 -2 67 -2 90 0 23 2 2 3 -48 3 -49 0 -68 -1 -42 -3z"/>
 <path d="M2983 23 c37 -2 96 -2 130 0 34 2 4 3 -68 3 -71 0 -99 -1 -62 -3z"/>
 <path d="M1673 13 c26 -2 67 -2 90 0 23 2 2 3 -48 3 -49 0 -68 -1 -42 -3z"/>
 <path d="M863 3 c26 -2 67 -2 90 0 23 2 2 3 -48 3 -49 0 -68 -1 -42 -3z"/>
 </g>

</svg>