<?xml version="1.0" encoding="utf-8"?>
<!-- Generator: Adobe Illustrator 19.0.0, SVG Export Plug-In . SVG Version: 6.00 Build 0)  -->
<svg version="1.1" id="Layer_1" xmlns="http://www.w3.org/2000/svg" xmlns:xlink="http://www.w3.org/1999/xlink" x="0px" y="0px"
	 viewBox="116 117 439.5 268" style="enable-background:new 116 117 439.5 268;" xml:space="preserve">
<style type="text/css">
	.st0{fill:#2E52A2;}
	.st1{fill:#3A6BB4;}
</style>
<g>
	<g>
		<path class="st0" d="M159.8,160.9v8.1h61.9c29.1,0,54,10.1,74.8,30.4s31.2,44.9,31.2,73.7c0,28.9-10.4,53.5-31.3,74
			c-20.9,20.4-45.8,30.7-74.6,30.7c-28.9,0-53.7-10.2-74.5-30.7c-20.8-20.5-31.2-45.1-31.2-74V117c12,0,22.3,4.3,30.9,12.9
			C155.5,138.5,159.8,148.8,159.8,160.9z M283.3,273.1c0-17.2-6-32-17.9-44.2c-11.9-12.3-26.6-18.4-43.8-18.4h-61.7v62.6
			c0,17.2,6,32.1,17.9,44.5c11.9,12.4,26.5,18.7,43.8,18.7c17.3,0,31.9-6.2,43.8-18.7C277.3,305.2,283.3,290.3,283.3,273.1z"/>
		<path class="st0" d="M555.5,377.8h-43.8v-23.5c0-17.1-6-31.9-18-44.4c-12-12.5-26.5-18.8-43.6-18.8c-17.2,0-31.8,6.2-43.9,18.7
			c-12,12.4-18,27.3-18,44.5v23.5h-43.9v-23.5c0-16.7,3.8-32.4,11.4-47.1c7.6-14.7,18.1-27,31.7-36.9c-13.6-9.9-24.1-22.2-31.7-36.8
			c-7.6-14.6-11.4-30.3-11.4-47v-14.4h43.9v14.4c0,17.2,6,32.1,18,44.5c12,12.4,26.6,18.7,43.9,18.7c17,0,31.6-6.3,43.6-18.8
			c12-12.5,18-27.3,18-44.4v-14.4h43.8v14.4c0,16.7-3.8,32.4-11.3,47c-7.6,14.6-18.1,26.9-31.5,36.8c13.4,9.9,23.9,22.3,31.5,37
			c7.6,14.8,11.3,30.5,11.3,47V377.8z"/>
	</g>
</g>
<g>
	<path class="st1" d="M221.7,168.9h-61.9v-8.1c0-12-4.3-22.3-12.9-30.9C138.3,121.3,128,117,116,117v156.1c0,1.7,0.2,3.3,0.2,5
		c15.2,9.7,31.9,17.3,49.7,22.5c-4-8.4-6.1-17.5-6.1-27.5v-62.6h61.7c17.3,0,31.9,6.1,43.8,18.4c11.9,12.3,17.9,27,17.9,44.2
		c0,9.7-2,18.5-5.7,26.7c17.9-5.5,34.7-13.5,49.9-23.6c0-1,0.1-2,0.1-3.1c0-28.9-10.4-53.5-31.2-73.7
		C275.7,179.1,250.8,168.9,221.7,168.9z"/>
	<path class="st1" d="M388.2,186.4v-14.4h-43.9v14.4c0,16.7,3.8,32.4,11.4,47c2.2,4.3,4.8,8.4,7.6,12.3
		c10.9-11.8,20.3-24.9,28.1-39.1C389.3,200.3,388.2,193.6,388.2,186.4z"/>
</g>
</svg>
