<!DOCTYPE svg PUBLIC "-//W3C//DTD SVG 20010904//EN" "http://www.w3.org/TR/2001/REC-SVG-20010904/DTD/svg10.dtd">
<svg version="1.0" xmlns="http://www.w3.org/2000/svg" width="480px" height="480px" viewBox="0 0 4800 4800" preserveAspectRatio="xMidYMid meet">
<g id="layer101" fill="#3f4c80" stroke="none">
 <path d="M0 2400 l0 -2400 2400 0 2400 0 0 2400 0 2400 -2400 0 -2400 0 0 -2400z"/>
 </g>
<g id="layer102" fill="#465598" stroke="none">
 <path d="M0 2400 l0 -2400 2400 0 2400 0 0 2400 0 2400 -2400 0 -2400 0 0 -2400z m2418 2323 c-10 -2 -26 -2 -35 0 -10 3 -2 5 17 5 19 0 27 -2 18 -5z m-761 -130 c-4 -3 -10 -3 -14 0 -3 4 0 7 7 7 7 0 10 -3 7 -7z m1500 0 c-4 -3 -10 -3 -14 0 -3 4 0 7 7 7 7 0 10 -3 7 -7z m-2287 -456 c0 -2 -10 -12 -22 -23 l-23 -19 19 23 c18 21 26 27 26 19z m3085 -17 c10 -11 16 -20 13 -20 -3 0 -13 9 -23 20 -10 11 -16 20 -13 20 3 0 13 -9 23 -20z m-3245 -143 c0 -2 -12 -14 -27 -28 l-28 -24 24 28 c23 25 31 32 31 24z m3410 -22 c13 -14 21 -25 18 -25 -2 0 -15 11 -28 25 -13 14 -21 25 -18 25 2 0 15 -11 28 -25z m-3510 -89 c0 -3 -5 -8 -12 -12 -7 -4 -8 -3 -4 4 7 12 16 16 16 8z m3595 -6 c3 -5 4 -10 1 -10 -3 0 -8 5 -11 10 -3 6 -4 10 -1 10 3 0 8 -4 11 -10z m-1388 -147 c-4 -3 -10 -3 -14 0 -3 4 0 7 7 7 7 0 10 -3 7 -7z m-362 -163 c4 -6 -17 -10 -55 -10 -38 0 -59 4 -55 10 3 6 28 10 55 10 27 0 52 -4 55 -10z m630 -230 c3 -5 4 -10 1 -10 -3 0 -8 5 -11 10 -3 6 -4 10 -1 10 3 0 8 -4 11 -10z m256 -63 l-24 -22 19 27 c10 14 21 24 23 22 3 -3 -6 -15 -18 -27z m-1714 -24 c-4 -3 -7 0 -7 7 0 7 3 10 7 7 3 -4 3 -10 0 -14z m-27 -17 c0 -3 -5 -8 -12 -12 -7 -4 -8 -3 -4 4 7 12 16 16 16 8z m-173 -223 c-4 -3 -7 0 -7 7 0 7 3 10 7 7 3 -4 3 -10 0 -14z m-400 -500 c-4 -3 -7 0 -7 7 0 7 3 10 7 7 3 -4 3 -10 0 -14z m233 -94 c0 -37 -4 -58 -10 -54 -18 11 -12 115 7 115 2 0 3 -27 3 -61z m-1183 -16 c-3 -10 -5 -2 -5 17 0 19 2 27 5 18 2 -10 2 -26 0 -35z m4650 0 c-3 -10 -5 -2 -5 17 0 19 2 27 5 18 2 -10 2 -26 0 -35z m-3700 -90 c-4 -3 -7 0 -7 7 0 7 3 10 7 7 3 -4 3 -10 0 -14z m2370 -360 c-4 -3 -7 0 -7 7 0 7 3 10 7 7 3 -4 3 -10 0 -14z m173 -7 c0 -2 -7 -7 -16 -10 -8 -3 -12 -2 -9 4 6 10 25 14 25 6z m88 -51 c-3 -3 -9 2 -12 12 -6 14 -5 15 5 6 7 -7 10 -15 7 -18z m-1 -62 c-4 -3 -7 0 -7 7 0 7 3 10 7 7 3 -4 3 -10 0 -14z m-2230 -20 c-4 -3 -7 0 -7 7 0 7 3 10 7 7 3 -4 3 -10 0 -14z m2018 -93 c10 -11 16 -20 13 -20 -3 0 -13 9 -23 20 -10 11 -16 20 -13 20 3 0 13 -9 23 -20z m230 -40 c-3 -5 -12 -10 -18 -10 -7 0 -6 4 3 10 19 12 23 12 15 0z m-108 -17 c-4 -3 -10 -3 -14 0 -3 4 0 7 7 7 7 0 10 -3 7 -7z m60 1 c-3 -3 -12 -4 -19 -1 -8 3 -5 6 6 6 11 1 17 -2 13 -5z m-2032 -54 c3 -5 4 -10 1 -10 -3 0 -8 5 -11 10 -3 6 -4 10 -1 10 3 0 8 -4 11 -10z m32 -37 c-4 -3 -7 0 -7 7 0 7 3 10 7 7 3 -4 3 -10 0 -14z m1732 -37 c-2 -2 -13 8 -23 22 l-19 27 24 -22 c12 -12 21 -24 18 -27z m-219 10 c0 -3 -5 -8 -12 -12 -7 -4 -8 -3 -4 4 7 12 16 16 16 8z m-685 -276 c-3 -5 -28 -10 -55 -10 -27 0 -52 5 -55 10 -4 6 17 10 55 10 38 0 59 -4 55 -10z m-1850 -310 c3 -5 4 -10 1 -10 -3 0 -8 5 -11 10 -3 6 -4 10 -1 10 3 0 8 -4 11 -10z m3605 6 c0 -3 -5 -8 -12 -12 -7 -4 -8 -3 -4 4 7 12 16 16 16 8z m-3520 -101 c13 -14 21 -25 18 -25 -2 0 -15 11 -28 25 -13 14 -21 25 -18 25 2 0 15 -11 28 -25z m3450 22 c0 -2 -12 -14 -27 -28 l-28 -24 24 28 c23 25 31 32 31 24z m-3285 -187 c10 -11 16 -20 13 -20 -3 0 -13 9 -23 20 -10 11 -16 20 -13 20 3 0 13 -9 23 -20z m3115 17 c0 -2 -10 -12 -22 -23 l-23 -19 19 23 c18 21 26 27 26 19z m-2313 -494 c-4 -3 -10 -3 -14 0 -3 4 0 7 7 7 7 0 10 -3 7 -7z m1500 0 c-4 -3 -10 -3 -14 0 -3 4 0 7 7 7 7 0 10 -3 7 -7z m-739 -130 c-10 -2 -26 -2 -35 0 -10 3 -2 5 17 5 19 0 27 -2 18 -5z"/>
 </g>
<g id="layer103" fill="#4054a5" stroke="none">
 <path d="M0 2400 l0 -2400 2400 0 2400 0 0 2400 0 2400 -2400 0 -2400 0 0 -2400z m2605 2318 c4 -3 -90 -6 -207 -5 -117 0 -199 3 -183 7 37 8 382 7 390 -2z m-461 -25 c-11 -8 -34 -12 -54 -10 -19 2 -48 0 -65 -4 -71 -17 -110 -21 -99 -9 6 6 22 13 35 15 13 1 44 7 68 13 24 6 49 8 55 6 7 -3 23 -1 37 4 32 13 47 3 23 -15z m571 11 c7 2 32 0 56 -6 24 -6 55 -12 68 -13 13 -2 29 -9 35 -15 11 -12 -29 -8 -99 9 -16 4 -44 6 -62 4 -35 -4 -77 12 -68 27 3 6 16 5 32 -1 15 -5 32 -8 38 -5z m-805 -34 c0 -5 -5 -10 -11 -10 -5 0 -7 5 -4 10 3 6 8 10 11 10 2 0 4 -4 4 -10z m995 0 c3 -5 1 -10 -4 -10 -6 0 -11 5 -11 10 0 6 2 10 4 10 3 0 8 -4 11 -10z m-1035 -9 c0 -10 -54 -31 -79 -31 -17 0 25 25 56 33 10 3 19 5 21 6 1 0 2 -3 2 -8z m1130 -18 c16 -8 19 -13 9 -13 -24 0 -79 21 -79 30 0 10 35 1 70 -17z m-1258 -25 c-16 -16 -82 -38 -112 -37 -15 0 -19 3 -10 6 8 3 29 11 45 19 17 7 41 15 55 17 14 2 27 5 30 6 2 0 -1 -4 -8 -11z m1406 -19 c23 -11 30 -18 19 -19 -25 0 -117 31 -117 39 0 12 59 0 98 -20z m-1578 -39 c-8 -5 -19 -10 -25 -10 -5 0 -3 5 5 10 8 5 20 10 25 10 6 0 3 -5 -5 -10z m1680 0 c8 -5 11 -10 5 -10 -5 0 -17 5 -25 10 -8 5 -10 10 -5 10 6 0 17 -5 25 -10z m-1821 -59 c-23 -18 -81 -41 -67 -26 8 9 70 42 82 44 5 0 -2 -7 -15 -18z m1987 -11 c15 -6 24 -13 21 -16 -7 -7 -75 24 -83 38 -4 6 3 5 14 -1 11 -6 33 -16 48 -21z m-2072 -40 c-5 -5 -20 -11 -32 -13 -13 -2 -31 -10 -41 -18 -9 -8 -24 -15 -32 -17 -8 -1 -6 4 6 13 11 8 25 18 30 22 14 11 69 30 74 26 3 -2 0 -8 -5 -13z m2176 -11 c3 -3 16 -12 28 -18 13 -7 21 -15 19 -18 -3 -2 -18 3 -33 13 -15 10 -33 19 -41 20 -26 4 -43 13 -43 23 0 9 60 -8 70 -20z m-2345 -74 c-16 -14 -34 -25 -40 -25 -9 0 55 49 65 49 3 0 -8 -11 -25 -24z m2494 -22 c2 -2 0 -3 -5 -3 -5 0 -22 12 -39 26 l-30 26 35 -23 c19 -12 37 -24 39 -26z m-2549 -17 c0 -2 -7 -7 -16 -10 -8 -3 -12 -2 -9 4 6 10 25 14 25 6z m2585 -6 c3 -6 -1 -7 -9 -4 -18 7 -21 14 -7 14 6 0 13 -4 16 -10z m-2625 -19 c0 -5 -13 -16 -30 -24 -28 -15 -29 -14 -20 3 13 25 50 40 50 21z m2669 -1 c10 -5 21 -16 24 -24 5 -12 1 -12 -24 1 -16 8 -29 19 -29 24 0 12 7 11 29 -1z m-2739 -49 c0 -5 -7 -14 -15 -21 -12 -10 -15 -10 -15 2 0 8 3 18 7 21 9 10 23 9 23 -2z m2811 -13 c10 -18 9 -20 -6 -15 -9 4 -19 7 -21 7 -2 0 -4 7 -4 15 0 22 18 18 31 -7z m-2861 -26 c0 -11 -22 -32 -32 -32 -5 0 -4 9 2 20 11 20 30 28 30 12z m2915 -18 l16 -25 -25 16 c-14 10 -26 21 -26 26 0 17 18 9 35 -17z m-2996 -59 c-19 -19 -38 -35 -42 -35 -14 0 37 59 51 59 6 1 12 6 12 13 0 6 3 8 7 5 3 -4 -9 -22 -28 -42z m3069 -6 c31 -38 15 -38 -21 1 -16 17 -23 30 -15 29 7 0 23 -13 36 -30z m-3128 -33 c0 -3 -21 -27 -47 -54 -27 -28 -66 -71 -88 -97 -63 -74 -96 -107 -102 -101 -3 3 8 18 26 33 17 15 31 31 31 35 0 8 26 38 109 126 54 56 71 70 71 58z m3231 -58 c83 -88 109 -118 109 -126 0 -4 14 -20 31 -35 18 -15 29 -30 26 -33 -6 -6 -39 27 -102 101 -22 26 -61 69 -87 97 -27 27 -48 51 -48 54 0 12 17 -2 71 -58z m-3478 -227 c-6 -24 -33 -36 -33 -16 0 11 22 32 37 35 0 0 -1 -9 -4 -19z m2299 -13 c-6 -6 -16 -7 -22 -3 -9 6 -9 9 1 16 17 10 34 0 21 -13z m1388 -3 c5 -14 13 -25 17 -25 5 0 14 -10 21 -21 11 -18 11 -23 0 -33 -7 -6 -10 -7 -6 -2 7 9 -2 23 -39 61 -24 24 -30 45 -13 45 6 0 15 -11 20 -25z m-2308 3 c-9 -9 -15 -9 -24 0 -9 9 -7 12 12 12 19 0 21 -3 12 -12z m123 -18 c3 -5 1 -10 -4 -10 -6 0 -11 5 -11 10 0 6 2 10 4 10 3 0 8 -4 11 -10z m665 0 c0 -5 -5 -10 -11 -10 -5 0 -7 5 -4 10 3 6 8 10 11 10 2 0 4 -4 4 -10z m-465 -10 c3 -5 -1 -10 -10 -10 -9 0 -13 5 -10 10 3 6 8 10 10 10 2 0 7 -4 10 -10z m42 3 c-4 -3 -10 -3 -14 0 -3 4 0 7 7 7 7 0 10 -3 7 -7z m233 -3 c0 -5 -9 -9 -20 -7 -30 5 -32 12 -5 15 14 1 25 -3 25 -8z m-2020 -9 c0 -5 -7 -16 -15 -24 -8 -8 -12 -17 -10 -21 3 -3 0 -2 -6 3 -7 6 -7 15 3 30 13 22 28 28 28 12z m1630 -1 c0 -12 -27 -12 -55 0 -16 7 -13 9 18 9 20 1 37 -3 37 -9z m530 -3 c-26 -14 -50 -12 -50 4 0 5 17 9 38 9 37 0 37 0 12 -13z m-583 -14 c-4 -3 -10 -3 -14 0 -3 4 0 7 7 7 7 0 10 -3 7 -7z m600 0 c-4 -3 -10 -3 -14 0 -3 4 0 7 7 7 7 0 10 -3 7 -7z m-662 -10 c-10 -3 -29 -12 -40 -19 -21 -14 -92 -27 -80 -15 14 13 91 40 115 39 20 0 21 -1 5 -5z m772 -9 c26 -9 53 -21 58 -26 7 -8 6 -9 -2 -4 -7 4 -28 9 -46 11 -38 5 -102 35 -75 35 10 0 39 -7 65 -16z m-2334 -29 c-3 -9 -8 -14 -10 -11 -3 3 -2 9 2 15 9 16 15 13 8 -4z m3845 -10 c-3 -3 -9 2 -12 12 -6 14 -5 15 5 6 7 -7 10 -15 7 -18z m-2442 -10 c-11 -8 -25 -15 -30 -15 -6 1 0 7 14 15 32 19 40 18 16 0z m1108 -25 c5 -5 -11 -2 -35 6 -24 9 -48 19 -53 24 -5 5 11 2 35 -6 24 -9 48 -19 53 -24z m-2555 -29 c-31 -42 -36 -32 -7 13 13 19 24 31 26 26 2 -5 -7 -23 -19 -39z m1401 44 c0 -2 -10 -9 -22 -15 -22 -11 -22 -10 -4 4 21 17 26 19 26 11z m2532 -40 c11 -20 11 -20 -11 -1 -11 11 -21 26 -21 35 0 14 2 14 10 1 6 -8 16 -24 22 -35z m-2582 11 c0 -2 -7 -7 -16 -10 -8 -3 -12 -2 -9 4 6 10 25 14 25 6z m1227 -13 c-4 -3 -7 0 -7 7 0 7 3 10 7 7 3 -4 3 -10 0 -14z m-1286 -23 c-26 -22 -50 -27 -29 -7 12 13 35 25 48 26 3 0 -6 -9 -19 -19z m1359 0 c0 -5 -2 -10 -4 -10 -3 0 -8 5 -11 10 -3 6 -1 10 4 10 6 0 11 -4 11 -10z m-2687 -40 c-7 -25 -33 -49 -33 -30 0 11 28 50 36 50 1 0 0 -9 -3 -20z m2732 10 c3 -5 4 -10 1 -10 -3 0 -8 5 -11 10 -3 6 -4 10 -1 10 3 0 8 -4 11 -10z m1295 -38 c0 -21 -26 2 -33 29 -5 20 -5 20 14 3 10 -9 19 -24 19 -32z m-2784 21 c-10 -11 -36 -12 -36 -2 0 5 10 9 22 9 12 0 18 -3 14 -7z m824 -3 c10 -7 -11 -10 -70 -10 -59 0 -80 3 -70 10 8 5 40 10 70 10 30 0 62 -5 70 -10z m720 5 c0 -7 -30 -13 -34 -7 -3 4 4 9 15 9 10 1 19 0 19 -2z m-940 -9 c0 -3 -5 -8 -12 -12 -7 -4 -8 -3 -4 4 7 12 16 16 16 8z m315 -6 c3 -5 4 -10 1 -10 -3 0 -8 5 -11 10 -3 6 -4 10 -1 10 3 0 8 -4 11 -10z m-365 -4 c0 -3 -5 -8 -12 -12 -7 -4 -8 -3 -4 4 7 12 16 16 16 8z m415 -6 c3 -5 4 -10 1 -10 -3 0 -8 5 -11 10 -3 6 -4 10 -1 10 3 0 8 -4 11 -10z m-1005 -4 c0 -3 -4 -8 -10 -11 -5 -3 -10 -1 -10 4 0 6 5 11 10 11 6 0 10 -2 10 -4z m535 -6 c-3 -5 -12 -10 -18 -10 -7 0 -6 4 3 10 19 12 23 12 15 0z m520 0 c3 -5 2 -10 -4 -10 -5 0 -13 5 -16 10 -3 6 -2 10 4 10 5 0 13 -4 16 -10z m542 3 c-4 -3 -10 -3 -14 0 -3 4 0 7 7 7 7 0 10 -3 7 -7z m-1632 -12 c3 -5 1 -12 -5 -16 -5 -3 -10 1 -10 9 0 18 6 21 15 7z m1660 -11 c3 -5 4 -10 1 -10 -3 0 -8 5 -11 10 -3 6 -4 10 -1 10 3 0 8 -4 11 -10z m1220 -20 c9 -16 11 -30 6 -30 -11 0 -31 32 -31 49 0 19 9 12 25 -19z m-2378 13 c-4 -3 -10 -3 -14 0 -3 4 0 7 7 7 7 0 10 -3 7 -7z m-1726 -36 c-8 -8 -11 -7 -11 4 0 20 13 34 18 19 3 -7 -1 -17 -7 -23z m1659 19 c0 -7 -12 -16 -27 -19 l-28 -5 24 19 c28 23 31 23 31 5z m811 -14 c-7 -2 -18 1 -23 6 -8 8 -4 9 13 5 13 -4 18 -8 10 -11z m456 1 c-4 -3 -10 -3 -14 0 -3 4 0 7 7 7 7 0 10 -3 7 -7z m-1333 -17 c-3 -8 0 -17 5 -21 15 -9 4 -25 -13 -19 -15 6 -16 21 -3 42 11 16 18 15 11 -2z m-1614 -14 c0 -5 -7 -17 -16 -28 -8 -10 -14 -14 -11 -9 2 6 7 18 10 28 7 17 17 23 17 9z m1160 4 c0 -3 -5 -8 -12 -12 -7 -4 -8 -3 -4 4 7 12 16 16 16 8z m1384 -11 c-4 -8 -11 -15 -16 -15 -6 0 -5 6 2 15 7 8 14 15 16 15 2 0 1 -7 -2 -15z m485 -7 c1 -13 4 -48 7 -78 5 -45 2 -59 -14 -77 -19 -23 -79 -52 -67 -33 3 6 12 10 19 10 46 0 71 125 33 163 -16 16 -17 21 -6 28 21 13 27 11 28 -13z m1131 -3 c0 -7 7 -21 16 -29 8 -9 11 -16 5 -16 -6 0 -17 13 -26 30 -17 34 -19 44 -5 35 6 -3 10 -12 10 -20z m-2616 0 c-10 -8 -23 -14 -29 -14 -5 0 -1 6 9 14 11 8 24 15 30 15 5 0 1 -7 -10 -15z m1072 0 c10 -8 15 -14 9 -14 -5 0 -19 6 -29 14 -11 8 -15 15 -10 15 6 0 19 -7 30 -15z m-1496 -25 c0 -5 -2 -10 -4 -10 -3 0 -8 5 -11 10 -3 6 -1 10 4 10 6 0 11 -4 11 -10z m373 -5 c-3 -9 -8 -14 -10 -11 -3 3 -2 9 2 15 9 16 15 13 8 -4z m1165 -10 c-3 -3 -9 2 -12 12 -6 14 -5 15 5 6 7 -7 10 -15 7 -18z m-2691 -12 c-4 -3 -7 0 -7 7 0 7 3 10 7 7 3 -4 3 -10 0 -14z m1500 0 c-4 -3 -7 0 -7 7 0 7 3 10 7 7 3 -4 3 -10 0 -14z m1210 0 c-4 -3 -7 0 -7 7 0 7 3 10 7 7 3 -4 3 -10 0 -14z m-1593 -2 c3 -5 -1 -11 -9 -14 -9 -4 -12 -1 -8 9 6 16 10 17 17 5z m340 -33 c-3 -5 -9 -6 -14 -3 -4 3 -11 -1 -13 -7 -4 -8 -6 -7 -6 4 -1 11 6 16 18 15 11 0 17 -5 15 -9z m1330 -3 c3 -8 1 -15 -3 -15 -5 0 -11 7 -15 15 -3 8 -1 15 3 15 5 0 11 -7 15 -15z m-2813 -18 c-10 -9 -11 -8 -5 6 3 10 9 15 12 12 3 -3 0 -11 -7 -18z m4263 7 c3 -8 2 -12 -4 -9 -6 3 -10 10 -10 16 0 14 7 11 14 -7z m-1410 -20 c5 -14 4 -15 -9 -4 -17 14 -19 20 -6 20 5 0 12 -7 15 -16z m-1424 2 c0 -2 -7 -6 -15 -10 -8 -3 -15 -1 -15 4 0 6 7 10 15 10 8 0 15 -2 15 -4z m-363 -28 c-3 -8 -6 -5 -6 6 -1 11 2 17 5 13 3 -3 4 -12 1 -19z m1840 -14 c-7 -7 -37 7 -37 17 0 6 9 5 21 -1 11 -7 19 -14 16 -16z m-1543 -9 c-4 -8 -13 -15 -21 -15 -13 0 -13 3 -3 15 7 8 16 15 21 15 5 0 6 -7 3 -15z m-343 -38 c-12 -12 -21 -16 -21 -9 0 7 5 12 11 12 6 0 9 6 6 14 -3 8 -1 17 6 19 21 7 20 -14 -2 -36z m1819 39 c0 -3 -5 -8 -12 -12 -7 -4 -8 -3 -4 4 7 12 16 16 16 8z m107 -23 c-4 -3 -10 -3 -14 0 -3 4 0 7 7 7 7 0 10 -3 7 -7z m-1617 -7 c0 -3 -5 -8 -12 -12 -7 -4 -8 -3 -4 4 7 12 16 16 16 8z m-40 -41 c-7 -9 -15 -13 -18 -10 -3 2 1 11 8 20 7 9 15 13 18 10 3 -2 -1 -11 -8 -20z m-307 0 c4 -8 2 -17 -3 -20 -6 -4 -10 3 -10 14 0 25 6 27 13 6z m-1042 -43 c-6 -2 -9 -8 -6 -12 6 -10 -20 -80 -30 -80 -4 0 -3 10 1 23 4 12 8 29 9 37 2 8 9 31 16 50 13 33 14 33 17 10 2 -13 -1 -26 -7 -28z m4404 -32 c1 -8 5 -26 9 -39 5 -15 5 -21 -2 -17 -12 7 -28 55 -35 106 l-6 35 16 -35 c9 -19 17 -42 18 -50z m-3078 43 c-4 -3 -10 -3 -14 0 -3 4 0 7 7 7 7 0 10 -3 7 -7z m-35 -35 c-20 -22 -22 -26 -22 -49 0 -5 -4 -7 -10 -4 -5 3 -10 9 -10 13 0 9 49 62 57 62 4 0 -3 -10 -15 -22z m-272 8 c0 -3 -5 -8 -12 -12 -7 -4 -8 -3 -4 4 7 12 16 16 16 8z m-20 -35 c0 -5 -6 -14 -14 -20 -12 -10 -14 -9 -11 6 2 10 4 19 4 21 2 6 21 1 21 -7z m-1044 -78 c-3 -16 -9 -43 -14 -61 -13 -38 -31 -157 -36 -227 -2 -28 -4 -56 -5 -63 0 -7 -5 -10 -11 -7 -9 6 -5 129 6 146 3 5 7 23 10 41 6 37 7 43 19 108 8 50 22 90 30 90 2 0 3 -12 1 -27z m4479 17 c3 -5 1 -10 -4 -10 -6 0 -11 5 -11 10 0 6 2 10 4 10 3 0 8 -4 11 -10z m-3488 -30 c-7 -17 -13 -26 -15 -21 -3 10 15 51 22 51 3 0 -1 -14 -7 -30z m277 6 c-3 -8 -12 -17 -20 -20 -12 -4 -12 -2 -4 14 12 23 32 27 24 6z m3222 -28 c2 -7 7 -28 13 -45 5 -18 6 -33 1 -33 -4 0 -13 19 -19 43 -7 23 -15 49 -18 57 -4 12 -3 13 8 3 7 -7 14 -18 15 -25z m-3270 -40 c-9 -12 -16 -19 -16 -15 0 11 24 47 28 42 2 -2 -3 -14 -12 -27z m-246 14 c0 -5 -6 -17 -14 -27 -13 -18 -14 -18 -9 8 5 24 23 39 23 19z m244 -74 c6 -4 8 -9 6 -12 -10 -10 -42 23 -34 35 6 10 9 10 12 -1 3 -8 10 -18 16 -22z m-379 -18 c-6 -9 -9 -9 -16 1 -10 17 0 34 13 21 6 -6 7 -16 3 -22z m90 -11 c-8 -22 -14 -43 -13 -47 1 -4 -1 -14 -5 -22 -3 -8 -8 -22 -11 -30 -3 -8 -3 3 -1 25 2 22 4 41 6 43 1 1 2 5 4 10 6 21 25 62 29 62 3 0 -1 -18 -9 -41z m3590 0 c1 -13 8 -44 13 -69 6 -26 7 -49 2 -54 -5 -5 -4 -16 2 -26 11 -17 3 -59 -9 -47 -3 4 -7 32 -8 64 -2 55 -11 115 -22 158 -4 15 -2 17 7 9 6 -6 13 -22 15 -35z m-3342 -19 c-3 -11 -10 -23 -16 -27 -5 -3 -8 -2 -5 3 3 5 8 17 11 27 9 24 16 22 10 -3z m-313 -90 c0 -5 -2 -10 -4 -10 -3 0 -8 5 -11 10 -3 6 -1 10 4 10 6 0 11 -4 11 -10z m14 -74 c2 -25 -1 -43 -5 -40 -5 3 -9 26 -9 51 0 58 10 50 14 -11z m246 10 c0 -3 -5 -8 -12 -12 -7 -4 -8 -3 -4 4 7 12 16 16 16 8z m-10 -50 c0 -3 -5 -8 -12 -12 -7 -4 -8 -3 -4 4 7 12 16 16 16 8z m-1192 -217 c0 -116 -3 -207 -6 -204 -14 14 -11 415 3 415 2 0 3 -95 3 -211z m4638 -26 c-1 -95 -4 -175 -8 -178 -3 -4 -6 90 -5 207 0 123 3 198 8 178 4 -19 6 -112 5 -207z m-3456 193 c0 -3 -5 -8 -12 -12 -7 -4 -8 -3 -4 4 7 12 16 16 16 8z m-243 -73 c-4 -3 -7 0 -7 7 0 7 3 10 7 7 3 -4 3 -10 0 -14z m233 -95 c0 -57 -3 -78 -10 -68 -16 25 -11 150 6 150 2 0 4 -37 4 -82z m-233 -105 c-4 -3 -7 0 -7 7 0 7 3 10 7 7 3 -4 3 -10 0 -14z m238 -53 c3 -5 4 -10 1 -10 -3 0 -8 5 -11 10 -3 6 -4 10 -1 10 3 0 8 -4 11 -10z m10 -50 c3 -5 4 -10 1 -10 -3 0 -8 5 -11 10 -3 6 -4 10 -1 10 3 0 8 -4 11 -10z m-231 -46 c-4 -61 -14 -70 -14 -12 0 37 5 58 15 58 2 0 1 -21 -1 -46z m-928 -51 c5 -78 23 -195 36 -235 15 -49 19 -90 9 -83 -8 5 -26 72 -36 139 -2 12 -6 36 -9 54 -3 18 -7 36 -10 41 -8 13 -16 133 -10 143 11 17 16 0 20 -59z m4594 37 c0 -10 -5 -22 -10 -25 -7 -5 -8 -11 -1 -19 7 -8 6 -27 -1 -56 -6 -25 -12 -56 -15 -70 -2 -14 -5 -32 -7 -40 -1 -8 -6 -34 -10 -57 -4 -23 -14 -47 -22 -54 -16 -13 -18 -5 -5 20 13 23 42 182 46 251 1 30 3 61 4 68 2 20 21 3 21 -18z m-3425 10 c3 -5 4 -10 1 -10 -3 0 -8 5 -11 10 -3 6 -4 10 -1 10 3 0 8 -4 11 -10z m-255 -70 c0 -5 -5 -10 -11 -10 -5 0 -7 5 -4 10 3 6 8 10 11 10 2 0 4 -4 4 -10z m47 -40 c4 -8 6 -18 5 -22 -1 -4 5 -25 13 -47 8 -23 12 -41 9 -41 -4 0 -23 41 -29 63 -2 4 -3 8 -4 10 -2 1 -4 20 -6 42 -2 22 -2 33 1 25 3 -8 8 -22 11 -30z m2449 15 c-22 -17 -46 -20 -46 -6 0 5 12 12 28 14 15 2 29 5 32 5 3 1 -4 -5 -14 -13z m210 -43 c21 -21 40 -42 40 -48 1 -5 5 -20 9 -33 4 -15 3 -21 -3 -17 -5 3 -13 18 -16 33 -4 16 -26 45 -49 65 -23 21 -37 38 -31 38 6 0 28 -17 50 -38z m-293 -4 c-16 -18 -34 -42 -38 -53 -8 -19 -8 -19 -13 -1 -2 11 3 23 12 28 9 5 16 15 16 23 0 8 8 19 18 24 33 20 36 11 5 -21z m-2101 -13 c3 -13 2 -22 -2 -20 -11 7 -20 45 -10 45 4 0 10 -11 12 -25z m-337 -54 c-9 -16 -25 -3 -18 15 4 10 9 12 15 6 6 -6 7 -15 3 -21z m378 2 c-7 -3 -13 -12 -13 -21 0 -12 -3 -13 -12 -4 -9 9 -8 15 8 26 10 8 21 12 24 9 3 -3 -1 -8 -7 -10z m2195 -21 c2 -7 -1 -12 -7 -12 -6 0 -11 5 -11 11 0 5 -5 7 -12 3 -7 -4 -8 -3 -4 5 9 14 28 10 34 -7z m-61 -24 c-3 -8 -6 -5 -6 6 -1 11 2 17 5 13 3 -3 4 -12 1 -19z m-2377 -30 c0 -20 -18 -5 -23 19 -5 26 -4 26 9 8 8 -10 14 -22 14 -27z m2530 -8 c0 -15 -7 -33 -15 -40 -14 -11 -14 -10 -5 16 12 32 13 31 -3 59 -9 18 -9 19 6 6 10 -7 17 -26 17 -41z m-2270 -4 c0 -6 -7 -1 -15 10 -8 10 -15 23 -15 28 0 6 7 1 15 -10 8 -10 15 -23 15 -28z m1983 7 c-8 -52 -13 -54 -13 -5 0 23 4 42 9 42 6 0 7 -17 4 -37z m127 -5 c0 -16 -3 -19 -11 -11 -6 6 -8 16 -5 22 11 17 16 13 16 -11z m-2348 -53 c9 -20 9 -20 -6 -1 -9 11 -16 27 -15 35 0 14 1 14 6 1 3 -8 10 -24 15 -35z m2425 28 c-4 -3 -7 0 -7 7 0 7 3 10 7 7 3 -4 3 -10 0 -14z m-2153 -19 c8 -21 -12 -17 -24 6 -8 16 -8 18 4 14 8 -3 17 -12 20 -20z m1998 -89 c41 -41 97 -65 153 -66 45 -1 47 -2 20 -10 -19 -5 -44 -4 -70 3 -22 6 -43 11 -46 10 -4 -1 -19 10 -33 23 -15 14 -30 25 -34 25 -12 0 -29 34 -36 70 l-6 35 13 -32 c6 -17 24 -43 39 -58z m113 75 c3 -6 -1 -7 -9 -4 -18 7 -21 14 -7 14 6 0 13 -4 16 -10z m75 -20 c-8 -5 -17 -7 -19 -4 -3 3 1 9 9 14 8 5 17 7 19 4 3 -3 -1 -9 -9 -14z m1030 16 c0 -3 -4 -8 -10 -11 -5 -3 -10 -1 -10 4 0 6 5 11 10 11 6 0 10 -2 10 -4z m-883 -51 c-24 -23 -30 -18 -10 9 10 13 19 20 21 15 2 -5 -3 -16 -11 -24z m-3571 -10 c8 -20 12 -40 9 -45 -4 -6 -1 -10 4 -10 6 0 11 -12 10 -27 -1 -28 -1 -28 -16 7 -9 19 -17 42 -18 50 -1 8 -5 25 -9 38 -12 35 4 25 20 -13z m4428 13 c-4 -13 -8 -30 -9 -38 -1 -8 -9 -31 -17 -50 l-16 -35 5 40 c6 44 28 105 38 105 4 0 3 -10 -1 -22z m-3414 -20 c0 -17 -23 -3 -26 16 -2 14 0 15 12 5 8 -6 14 -16 14 -21z m274 8 c1 -8 11 -24 21 -36 12 -14 14 -19 4 -15 -21 9 -51 54 -44 66 8 12 16 7 19 -15z m2253 -23 c-4 -3 -10 -3 -14 0 -3 4 0 7 7 7 7 0 10 -3 7 -7z m-2512 -13 c3 -5 4 -10 1 -10 -3 0 -8 5 -11 10 -3 6 -4 10 -1 10 3 0 8 -4 11 -10z m2472 -24 c-16 -12 -35 -23 -43 -23 -18 0 -6 14 28 32 37 21 45 16 15 -9z m-2160 -13 c-4 -3 -10 -3 -14 0 -3 4 0 7 7 7 7 0 10 -3 7 -7z m-284 -28 c-7 -21 -13 -19 -13 6 0 11 4 18 10 14 5 -3 7 -12 3 -20z m317 -17 c0 -6 -7 -5 -15 2 -8 7 -15 17 -15 22 0 6 7 5 15 -2 8 -7 15 -17 15 -22z m2270 2 c0 -5 -5 -10 -11 -10 -5 0 -7 5 -4 10 3 6 8 10 11 10 2 0 4 -4 4 -10z m-2530 -46 c0 -8 -6 -11 -14 -8 -8 3 -12 12 -9 20 3 8 0 14 -6 14 -6 0 -11 5 -11 12 0 6 9 3 20 -7 11 -10 20 -24 20 -31z m285 26 c3 -5 4 -10 1 -10 -3 0 -8 5 -11 10 -3 6 -4 10 -1 10 3 0 8 -4 11 -10z m1622 -17 c-4 -3 -10 -3 -14 0 -3 4 0 7 7 7 7 0 10 -3 7 -7z m88 -11 c-3 -3 -11 0 -18 7 -9 10 -8 11 6 5 10 -3 15 -9 12 -12z m1262 1 c-4 -3 -7 0 -7 7 0 7 3 10 7 7 3 -4 3 -10 0 -14z m-2925 -13 c12 -11 18 -23 15 -27 -4 -3 -7 -1 -7 5 0 7 -6 12 -14 12 -7 0 -19 7 -26 15 -19 23 6 19 32 -5z m1523 -15 c-11 -8 -28 -22 -37 -31 -10 -10 -21 -14 -25 -10 -4 3 2 13 13 20 10 8 28 21 39 29 11 9 22 13 25 10 3 -2 -4 -11 -15 -18z m188 -1 c15 -20 18 -36 13 -77 -3 -29 -7 -62 -7 -74 -1 -25 -7 -27 -28 -14 -11 7 -10 12 6 28 25 25 24 114 -2 143 -10 11 -14 20 -9 20 5 0 17 -12 27 -26z m-2016 -16 c-3 -8 -6 -5 -6 6 -1 11 2 17 5 13 3 -3 4 -12 1 -19z m359 -25 c-7 -7 -26 7 -26 19 0 6 6 6 15 -2 9 -7 13 -15 11 -17z m-1418 -18 c-3 -3 -9 2 -12 12 -6 14 -5 15 5 6 7 -7 10 -15 7 -18z m4255 10 c-3 -9 -8 -14 -10 -11 -3 3 -2 9 2 15 9 16 15 13 8 -4z m-2793 -10 c5 3 11 2 14 -3 2 -4 -4 -9 -15 -9 -12 -1 -19 4 -18 15 0 11 2 12 6 4 2 -6 9 -10 13 -7z m1336 -12 c-4 -4 -12 -1 -19 7 -9 10 -9 11 1 6 7 -4 12 -2 13 6 0 11 2 11 6 0 3 -7 2 -16 -1 -19z m-1656 -18 c0 -12 -19 -12 -23 0 -4 9 -1 12 9 8 7 -3 14 -7 14 -8z m-1104 -47 c8 -16 13 -32 10 -36 -3 -3 -11 9 -17 26 -6 18 -15 32 -20 32 -5 0 -9 5 -9 11 0 17 19 0 36 -33z m1481 25 c-4 -3 -7 0 -7 7 0 7 3 10 7 7 3 -4 3 -10 0 -14z m1210 0 c-4 -3 -7 0 -7 7 0 7 3 10 7 7 3 -4 3 -10 0 -14z m1513 13 c0 -3 -4 -8 -10 -11 -5 -3 -10 -1 -10 4 0 6 5 11 10 11 6 0 10 -2 10 -4z m-2696 -22 c3 -8 2 -12 -4 -9 -6 3 -10 10 -10 16 0 14 7 11 14 -7z m1157 -7 c-10 -9 -11 -8 -5 6 3 10 9 15 12 12 3 -3 0 -11 -7 -18z m-1531 3 c0 -5 -5 -10 -11 -10 -5 0 -7 5 -4 10 3 6 8 10 11 10 2 0 4 -4 4 -10z m3043 -20 c-5 -19 -23 -39 -23 -25 0 9 20 45 24 45 2 0 2 -9 -1 -20z m-2619 -5 c11 -8 15 -15 10 -15 -6 0 -19 7 -30 15 -10 8 -14 14 -9 14 6 0 19 -6 29 -14z m1072 0 c-11 -8 -24 -15 -30 -15 -5 0 -1 7 10 15 10 8 24 14 29 14 6 0 1 -6 -9 -14z m-1001 -15 c-20 -23 -29 -21 -19 4 3 9 13 16 22 16 13 0 12 -3 -3 -20z m929 4 c5 -14 4 -15 -9 -4 -17 14 -19 20 -6 20 5 0 12 -7 15 -16z m-1389 -4 c3 -5 4 -10 1 -10 -3 0 -8 5 -11 10 -3 6 -4 10 -1 10 3 0 8 -4 11 -10z m-1124 -53 c10 -36 3 -34 -17 4 -11 23 -12 30 -3 27 7 -2 16 -16 20 -31z m1648 17 c1 -1 1 -7 0 -13 -3 -6 -16 -2 -34 10 l-30 20 30 -7 c17 -4 32 -8 34 -10z m2445 -16 c-10 -18 -19 -28 -21 -21 -5 15 15 53 28 53 5 0 2 -15 -7 -32z m-1624 18 c0 -2 -9 -6 -20 -9 -11 -3 -20 -1 -20 4 0 5 9 9 20 9 11 0 20 -2 20 -4z m447 -3 c-4 -3 -10 -3 -14 0 -3 4 0 7 7 7 7 0 10 -3 7 -7z m-1702 -32 c3 -5 1 -12 -5 -16 -5 -3 -10 1 -10 9 0 18 6 21 15 7z m502 2 c-4 -3 -10 -3 -14 0 -3 4 0 7 7 7 7 0 10 -3 7 -7z m1163 3 c0 -3 -5 -8 -12 -12 -7 -4 -8 -3 -4 4 7 12 16 16 16 8z m-1635 -26 c3 -5 1 -10 -4 -10 -6 0 -11 5 -11 10 0 6 2 10 4 10 3 0 8 -4 11 -10z m540 0 c3 -5 4 -10 1 -10 -3 0 -8 5 -11 10 -3 6 -4 10 -1 10 3 0 8 -4 11 -10z m520 0 c-3 -5 -11 -10 -16 -10 -6 0 -7 5 -4 10 3 6 11 10 16 10 6 0 7 -4 4 -10z m-2262 -41 c5 -20 5 -20 -14 -3 -23 20 -28 54 -5 35 8 -6 16 -21 19 -32z m1792 31 c3 -5 4 -10 1 -10 -3 0 -8 5 -11 10 -3 6 -4 10 -1 10 3 0 8 -4 11 -10z m1012 3 c-4 -3 -10 -3 -14 0 -3 4 0 7 7 7 7 0 10 -3 7 -7z m1204 -37 c-21 -20 -22 -20 -15 -1 11 32 28 49 32 35 3 -7 -5 -22 -17 -34z m-2166 24 c3 -5 4 -10 1 -10 -3 0 -8 5 -11 10 -3 6 -4 10 -1 10 3 0 8 -4 11 -10z m325 6 c0 -3 -5 -8 -12 -12 -7 -4 -8 -3 -4 4 7 12 16 16 16 8z m-924 -19 c4 -4 -2 -7 -14 -7 -12 0 -22 4 -22 9 0 10 26 9 36 -2z m824 3 c-8 -5 -40 -10 -70 -10 -30 0 -62 5 -70 10 -10 7 11 10 70 10 59 0 80 -3 70 -10z m716 3 c-10 -11 -37 -12 -30 -2 3 5 12 9 21 9 9 0 13 -3 9 -7z m-46 -17 c0 -3 -5 -8 -12 -12 -7 -4 -8 -3 -4 4 7 12 16 16 16 8z m-1409 -36 c21 -17 21 -19 4 -13 -23 8 -51 33 -37 33 5 0 20 -9 33 -20z m-1292 -24 c29 -47 26 -58 -4 -14 -14 20 -25 39 -25 42 0 13 10 4 29 -28z m2651 24 c0 -5 -5 -10 -11 -10 -5 0 -7 5 -4 10 3 6 8 10 11 10 2 0 4 -4 4 -10z m1273 -40 c-10 -17 -19 -26 -21 -20 -4 10 25 50 35 50 2 0 -4 -14 -14 -30z m-2578 2 c-3 -3 -11 0 -18 7 -9 10 -8 11 6 5 10 -3 15 -9 12 -12z m1232 1 c-4 -3 -7 0 -7 7 0 7 3 10 7 7 3 -4 3 -10 0 -14z m-1177 -29 c0 -2 -9 0 -20 6 -11 6 -20 13 -20 16 0 2 9 0 20 -6 11 -6 20 -13 20 -16z m1155 17 c-6 -5 -30 -16 -54 -25 -24 -8 -40 -11 -35 -6 5 5 27 15 49 23 51 19 51 19 40 8z m-1109 -27 c18 -14 18 -14 -6 -3 -31 14 -36 19 -24 19 6 0 19 -7 30 -16z m-1402 -20 c3 -8 2 -12 -4 -9 -6 3 -10 10 -10 16 0 14 7 11 14 -7z m3837 -7 c-10 -9 -11 -8 -5 6 3 10 9 15 12 12 3 -3 0 -11 -7 -18z m-2298 -16 c31 -15 36 -20 20 -21 -23 0 -101 27 -116 40 -17 15 54 0 96 -19z m852 20 c-13 -12 -101 -41 -123 -41 -28 0 37 30 76 35 19 2 37 7 40 10 3 3 8 5 11 5 3 0 1 -4 -4 -9z m-2368 -17 c-3 -4 0 -13 8 -21 16 -16 20 -33 7 -33 -12 0 -33 40 -27 50 4 6 9 10 12 10 4 0 4 -3 0 -6z m3791 -33 c-7 -11 -16 -21 -21 -21 -4 0 -12 -11 -17 -25 -5 -14 -14 -25 -20 -25 -17 0 -11 21 13 45 32 33 46 52 43 58 -2 2 1 1 6 -3 6 -5 4 -16 -4 -29z m-1603 -14 c12 -3 4 -5 -17 -6 -21 0 -38 3 -38 8 0 12 23 20 30 11 3 -4 14 -10 25 -13z m-535 3 c0 -5 -9 -10 -21 -10 -11 0 -17 5 -14 10 3 6 13 10 21 10 8 0 14 -4 14 -10z m120 -4 c0 -11 -19 -15 -25 -6 -3 5 1 10 9 10 9 0 16 -2 16 -4z m270 -7 c0 -5 -11 -8 -24 -7 -29 3 -27 13 3 15 12 1 21 -2 21 -8z m-470 -3 c0 -3 -4 -8 -10 -11 -5 -3 -10 -1 -10 4 0 6 5 11 10 11 6 0 10 -2 10 -4z m237 -3 c-4 -3 -10 -3 -14 0 -3 4 0 7 7 7 7 0 10 -3 7 -7z m423 -3 c0 -5 -2 -10 -4 -10 -3 0 -8 5 -11 10 -3 6 -1 10 4 10 6 0 11 -4 11 -10z m-2169 -28 c8 -20 6 -21 -11 -12 -11 6 -20 18 -20 26 0 22 22 12 31 -14z m1384 8 c3 -5 -3 -10 -15 -10 -12 0 -18 5 -15 10 3 6 10 10 15 10 5 0 12 -4 15 -10z m918 4 c11 -11 -3 -24 -18 -18 -8 4 -12 10 -9 15 6 11 18 12 27 3z m-2256 -73 c16 -16 46 -50 68 -76 22 -26 61 -69 88 -97 46 -48 53 -58 41 -58 -10 0 -174 177 -174 188 0 4 -13 18 -30 32 -16 14 -30 28 -30 32 0 14 9 9 37 -21z m3603 21 c0 -4 -13 -18 -30 -32 -16 -14 -30 -28 -30 -32 0 -4 -11 -19 -25 -35 -14 -15 -43 -48 -65 -73 -21 -25 -42 -42 -46 -38 -4 4 9 25 28 45 46 49 86 93 123 137 29 34 45 44 45 28z m-210 -226 c0 -8 -7 -16 -15 -20 -13 -4 -14 -2 -5 14 13 23 20 26 20 6z m-3137 -56 c16 -17 23 -30 15 -29 -14 0 -65 59 -51 59 4 0 21 -13 36 -30z m3075 1 c-13 -17 -29 -30 -36 -30 -8 -1 -1 12 15 29 36 39 52 39 21 1z m-2988 -82 c0 -17 -18 -9 -35 17 l-16 25 25 -16 c14 -10 26 -21 26 -26z m2914 16 c-16 -25 -34 -33 -34 -16 0 7 37 38 48 40 1 1 -5 -10 -14 -24z m-2880 -31 c17 -7 22 -34 6 -34 -5 0 -14 9 -20 20 -12 22 -10 23 14 14z m2826 -14 c-6 -11 -15 -20 -20 -20 -14 0 -12 27 3 33 23 10 28 7 17 -13z m-2740 -61 c0 -18 -44 2 -53 25 -5 12 -1 12 24 -1 16 -8 29 -19 29 -24z m2694 26 c-10 -24 -54 -45 -54 -26 0 8 21 22 57 40 1 1 0 -6 -3 -14z m-2659 -53 c-3 -3 -11 0 -18 7 -9 10 -8 11 6 5 10 -3 15 -9 12 -12z m2590 8 c-3 -5 -12 -10 -18 -10 -7 0 -6 4 3 10 19 12 23 12 15 0z m-2530 -46 l30 -26 -35 23 c-45 29 -45 29 -34 29 5 0 23 -12 39 -26z m2494 23 c-2 -2 -20 -14 -39 -26 l-35 -23 30 26 c17 14 34 26 39 26 5 0 7 -1 5 -3z m-2402 -74 c14 -10 32 -18 40 -19 26 -4 43 -13 43 -23 0 -9 -56 7 -75 22 -5 4 -19 14 -30 22 -28 20 -10 19 22 -2z m2288 2 c-11 -8 -24 -18 -30 -22 -20 -16 -75 -31 -75 -21 0 5 10 13 23 16 12 3 22 4 22 2 0 -1 16 7 35 19 40 24 55 28 25 6z m-2125 -88 c14 -11 21 -18 15 -15 -57 25 -85 39 -85 44 0 10 44 -8 70 -29z m2010 28 c0 -4 -36 -22 -85 -43 -22 -10 11 17 40 32 31 16 45 20 45 11z m-1870 -85 c8 -5 11 -10 5 -10 -5 0 -17 5 -25 10 -8 5 -10 10 -5 10 6 0 17 -5 25 -10z m1680 0 c-8 -5 -19 -10 -25 -10 -5 0 -3 5 5 10 8 5 20 10 25 10 6 0 3 -5 -5 -10z m-1557 -33 c50 -18 69 -36 30 -30 -15 3 -41 11 -58 18 -16 7 -37 15 -45 18 -9 3 -5 6 10 6 14 0 42 -5 63 -12z m1487 6 c-8 -3 -28 -11 -45 -18 -38 -17 -85 -25 -85 -15 0 11 80 37 115 38 17 0 23 -2 15 -5z m-1341 -54 c17 -6 31 -15 31 -19 0 -10 -35 -1 -70 17 -31 16 -6 18 39 2z m1161 -2 c-35 -18 -70 -27 -70 -17 0 10 47 28 75 29 17 1 16 -1 -5 -12z m-1090 -27 c0 -5 -2 -10 -4 -10 -3 0 -8 5 -11 10 -3 6 -1 10 4 10 6 0 11 -4 11 -10z m115 -9 c17 -4 44 -6 62 -4 35 4 77 -12 68 -27 -3 -6 -16 -5 -32 1 -15 5 -32 8 -38 5 -7 -2 -32 0 -56 6 -24 6 -55 12 -68 13 -13 2 -29 9 -35 15 -11 12 29 8 99 -9z m848 8 c-6 -6 -21 -12 -34 -14 -13 -1 -44 -7 -68 -13 -24 -6 -49 -8 -56 -6 -6 3 -23 0 -38 -5 -16 -6 -29 -7 -32 -1 -9 14 32 31 66 28 17 -2 56 1 88 8 74 16 88 17 74 3z m37 7 c0 -3 -4 -8 -10 -11 -5 -3 -10 -1 -10 4 0 6 5 11 10 11 6 0 10 -2 10 -4z m-305 -54 c-9 -9 -345 -12 -385 -3 -20 5 55 8 178 8 117 1 211 -2 207 -5z"/>
 </g>
<g id="layer104" fill="#59669e" stroke="none">
 <path d="M0 2400 l0 -2400 2400 0 2400 0 0 2400 0 2400 -2400 0 -2400 0 0 -2400z m2630 2315 c19 -2 59 -6 89 -9 30 -3 63 -9 75 -12 19 -6 36 -10 86 -18 9 -1 20 -4 25 -7 6 -3 23 -6 39 -7 16 -1 35 -7 42 -13 7 -6 17 -8 22 -5 5 3 21 -2 36 -10 16 -7 38 -14 50 -14 12 0 26 -4 31 -8 6 -5 60 -28 120 -51 61 -23 144 -59 185 -78 41 -20 85 -40 96 -46 12 -5 33 -20 48 -33 14 -14 26 -22 26 -19 0 3 26 -12 58 -33 31 -22 67 -42 80 -46 12 -4 27 -16 32 -27 6 -10 17 -19 25 -19 8 0 19 -9 25 -20 6 -11 16 -20 23 -20 7 0 23 -13 35 -30 13 -16 27 -30 33 -30 6 0 22 -13 36 -30 13 -16 30 -30 37 -30 11 0 42 -31 151 -153 14 -16 25 -32 25 -36 0 -4 14 -17 30 -29 17 -13 30 -29 30 -37 0 -8 9 -19 20 -25 11 -6 20 -16 20 -23 0 -7 12 -23 25 -36 14 -13 25 -28 25 -33 0 -6 15 -32 34 -58 18 -26 37 -56 40 -67 4 -11 15 -28 26 -38 11 -10 20 -24 20 -31 0 -7 14 -36 30 -64 17 -28 30 -54 30 -57 0 -4 7 -15 16 -24 9 -10 17 -27 18 -36 1 -15 34 -104 78 -213 6 -14 12 -34 14 -45 1 -11 8 -33 15 -50 7 -16 11 -34 10 -39 -1 -4 2 -13 7 -20 9 -11 20 -50 28 -104 8 -52 11 -67 18 -88 3 -12 9 -45 11 -75 3 -30 8 -76 12 -104 3 -27 6 -124 6 -215 0 -91 -3 -187 -6 -215 -4 -27 -9 -74 -12 -104 -2 -30 -8 -63 -11 -75 -4 -11 -9 -32 -11 -46 -9 -58 -11 -70 -18 -102 -4 -18 -11 -38 -17 -44 -5 -7 -8 -16 -7 -20 1 -5 -3 -22 -10 -39 -7 -16 -14 -39 -15 -50 -2 -11 -8 -31 -14 -45 -40 -99 -77 -197 -77 -205 0 -6 -8 -21 -18 -35 -9 -13 -17 -28 -17 -32 0 -4 -13 -30 -30 -58 -16 -28 -30 -57 -30 -64 0 -7 -9 -21 -20 -31 -11 -10 -22 -27 -26 -38 -3 -11 -22 -41 -40 -67 -19 -26 -34 -52 -34 -58 0 -5 -11 -20 -25 -33 -13 -13 -25 -29 -25 -36 0 -7 -9 -17 -20 -23 -11 -6 -20 -17 -20 -25 0 -8 -14 -24 -30 -37 -17 -12 -30 -25 -30 -29 0 -4 -12 -21 -27 -38 -16 -16 -43 -48 -62 -71 -18 -22 -40 -40 -47 -40 -8 0 -14 -7 -14 -15 0 -9 -11 -20 -24 -25 -13 -4 -32 -20 -44 -34 -11 -14 -25 -26 -31 -26 -6 0 -20 -14 -33 -30 -12 -17 -28 -30 -35 -30 -7 0 -17 -9 -23 -20 -6 -11 -17 -20 -25 -20 -8 0 -19 -9 -25 -19 -5 -11 -20 -23 -32 -27 -13 -4 -42 -20 -66 -36 -23 -16 -47 -26 -52 -23 -6 4 -9 3 -8 -2 2 -4 1 -8 -2 -8 -3 0 -18 -12 -34 -27 -16 -14 -38 -30 -50 -35 -11 -6 -55 -26 -96 -45 -41 -20 -122 -55 -180 -77 -58 -23 -113 -46 -122 -51 -10 -6 -26 -10 -37 -10 -10 0 -31 -7 -47 -14 -15 -8 -31 -13 -36 -10 -5 3 -15 1 -22 -5 -7 -6 -26 -12 -42 -13 -16 -1 -33 -4 -39 -7 -5 -3 -16 -6 -25 -7 -50 -8 -67 -12 -86 -18 -12 -3 -45 -9 -75 -11 -30 -3 -76 -8 -104 -12 -65 -8 -365 -8 -430 0 -27 4 -74 9 -104 12 -30 2 -63 8 -75 11 -19 6 -36 10 -86 18 -9 1 -20 4 -25 7 -6 3 -23 6 -39 7 -16 1 -35 7 -42 13 -7 6 -17 8 -22 5 -5 -3 -21 2 -36 10 -16 7 -37 14 -47 14 -11 0 -27 4 -37 10 -9 5 -64 28 -122 51 -58 22 -139 57 -180 77 -41 19 -85 39 -96 45 -12 5 -33 20 -47 33 -15 14 -30 25 -34 27 -5 1 -7 6 -5 10 1 5 -2 6 -8 2 -5 -3 -29 7 -52 23 -24 16 -53 32 -66 36 -12 4 -27 16 -32 27 -6 10 -17 19 -25 19 -8 0 -19 9 -25 20 -6 11 -16 20 -23 20 -7 0 -23 14 -35 30 -13 17 -27 30 -33 30 -6 0 -22 14 -36 30 -13 17 -30 30 -37 30 -11 0 -42 31 -151 153 -14 16 -25 32 -25 36 0 4 -14 17 -30 29 -17 13 -30 29 -30 37 0 8 -9 19 -20 25 -11 6 -20 16 -20 23 0 7 -12 23 -25 36 -14 13 -25 27 -25 33 0 5 -18 36 -40 68 -22 32 -40 63 -40 68 0 5 -9 17 -20 27 -11 10 -20 24 -20 31 0 7 -13 36 -30 64 -16 28 -30 54 -30 57 0 4 -7 15 -16 24 -9 10 -17 27 -18 36 -1 15 -34 104 -78 213 -6 14 -12 35 -14 46 -1 12 -11 41 -22 65 -11 24 -23 64 -28 89 -4 25 -9 52 -10 60 -2 8 -5 26 -7 40 -2 14 -7 35 -11 46 -3 12 -9 45 -11 75 -3 30 -8 77 -12 104 -3 28 -6 124 -6 215 0 91 3 188 6 215 4 28 9 74 12 104 2 30 8 63 11 75 4 11 9 32 11 46 2 14 5 32 7 40 1 8 6 35 10 60 5 25 17 65 28 89 11 24 21 53 22 65 2 11 8 32 14 46 40 99 77 197 77 205 0 6 8 21 18 35 9 13 17 28 17 32 0 4 13 30 30 56 16 27 30 56 30 64 0 8 9 23 20 33 11 10 20 22 20 27 0 5 18 36 40 68 22 32 40 63 40 68 0 6 11 20 25 33 13 13 25 29 25 36 0 7 9 17 20 23 11 6 20 17 20 25 0 8 14 24 30 37 17 12 30 25 30 29 0 4 11 20 25 36 109 122 140 153 151 153 7 0 24 14 37 30 14 17 29 30 34 30 5 0 19 14 33 30 14 17 30 30 37 30 7 0 17 9 23 20 6 11 17 20 25 20 8 0 19 9 25 19 5 11 20 23 32 27 13 4 42 20 66 36 23 16 47 26 52 23 6 -4 9 -3 8 2 -2 4 0 9 5 10 4 2 19 13 34 27 14 13 35 28 47 33 11 6 55 26 96 45 41 20 122 55 180 77 58 23 113 46 122 51 10 6 26 10 37 10 11 0 32 5 48 12 15 6 32 10 37 9 4 -1 14 3 21 9 6 5 25 11 41 12 16 1 33 4 39 7 5 3 16 6 25 7 50 8 67 12 86 18 12 3 45 9 75 11 30 3 76 8 103 10 27 3 51 7 54 9 5 6 342 -2 392 -9z"/>
 <path d="M2317 3774 c-4 -4 -31 -9 -60 -10 -98 -5 -221 -30 -252 -50 -12 -8 -36 -16 -54 -18 -32 -4 -48 -10 -151 -61 -93 -46 -141 -74 -213 -127 -71 -51 -247 -220 -247 -237 0 -5 -7 -11 -15 -15 -8 -3 -15 -11 -15 -19 0 -7 -11 -24 -24 -36 -14 -13 -32 -38 -41 -55 -9 -17 -25 -44 -35 -61 -18 -28 -28 -46 -81 -160 -27 -58 -50 -127 -44 -133 3 -3 1 -10 -4 -16 -25 -33 -54 -231 -54 -376 0 -145 29 -343 54 -376 5 -6 7 -13 4 -16 -6 -6 17 -75 44 -133 53 -114 63 -132 81 -160 10 -16 26 -44 35 -61 9 -17 27 -42 41 -55 13 -12 24 -29 24 -36 0 -8 7 -16 15 -19 8 -4 15 -10 15 -15 0 -17 176 -186 247 -237 72 -53 120 -81 213 -127 102 -51 119 -57 150 -61 16 -2 49 -12 73 -23 37 -17 65 -23 157 -38 136 -22 325 -21 445 2 17 3 39 7 50 9 11 2 20 4 20 5 0 1 15 4 33 5 18 2 38 9 45 15 8 6 30 13 51 15 21 3 56 14 79 24 23 11 53 25 67 31 14 6 32 15 40 20 8 5 26 14 40 20 57 26 170 101 170 112 0 5 7 9 15 9 9 0 18 7 21 15 4 8 11 15 18 15 6 0 27 16 46 36 27 29 34 44 35 82 2 55 -13 85 -54 105 -49 24 -94 14 -142 -32 -24 -23 -49 -41 -56 -41 -8 0 -16 -7 -19 -15 -4 -8 -11 -15 -16 -15 -5 0 -35 -18 -66 -39 -54 -38 -186 -94 -282 -122 -25 -7 -50 -16 -56 -21 -6 -5 -18 -6 -27 -2 -8 3 -18 1 -21 -5 -4 -6 -13 -8 -21 -4 -9 3 -21 0 -29 -6 -13 -11 -27 -12 -166 -12 -139 0 -153 1 -166 12 -8 6 -20 9 -29 6 -8 -4 -17 -2 -21 4 -3 5 -13 9 -22 8 -10 -1 -24 1 -32 4 -33 13 -96 31 -112 32 -9 1 -32 8 -50 17 -18 9 -54 26 -81 37 -26 12 -69 37 -96 56 -27 19 -53 35 -59 35 -5 0 -12 7 -16 15 -3 8 -12 15 -20 15 -8 0 -23 11 -34 25 -11 14 -24 25 -28 25 -11 0 -94 82 -94 92 0 5 -18 28 -40 50 -22 23 -40 47 -40 53 0 6 -13 26 -29 46 -40 48 -77 127 -112 239 -17 52 -33 102 -36 110 -3 8 -5 22 -4 32 1 9 -3 19 -8 22 -6 4 -8 13 -4 21 3 9 0 21 -6 29 -11 13 -12 27 -12 166 0 139 1 153 12 166 6 8 9 20 6 29 -4 8 -2 17 4 21 5 3 9 13 8 22 -1 10 1 24 4 32 3 8 19 58 36 110 35 112 72 191 112 239 16 20 29 40 29 46 0 6 18 30 40 53 22 22 40 45 40 50 0 12 84 92 98 92 6 0 17 9 24 20 7 11 18 20 25 20 7 0 18 9 25 20 7 11 16 20 21 20 4 0 37 20 74 45 36 25 71 45 77 45 6 0 37 13 68 29 31 16 58 28 60 25 3 -2 31 5 64 17 32 12 69 21 81 20 12 0 25 4 28 9 3 5 12 7 20 3 9 -3 21 0 29 6 13 11 27 12 166 12 139 0 153 -1 166 -12 8 -6 20 -9 29 -6 8 4 17 2 21 -4 3 -6 13 -8 21 -5 9 4 21 3 27 -2 6 -5 31 -14 56 -21 96 -28 228 -84 282 -122 31 -21 61 -39 66 -39 5 0 12 -7 16 -15 3 -8 10 -15 16 -15 10 0 31 -16 75 -58 44 -43 137 -31 169 21 7 12 12 43 11 69 -1 38 -8 53 -35 82 -19 20 -40 36 -46 36 -7 0 -14 7 -18 15 -3 8 -12 15 -21 15 -8 0 -15 4 -15 9 0 11 -113 86 -170 112 -14 6 -32 15 -40 20 -8 5 -26 14 -40 20 -14 6 -44 20 -67 31 -23 10 -56 21 -74 23 -17 2 -45 11 -63 19 -17 8 -51 17 -76 21 -25 3 -56 8 -70 11 -76 15 -293 28 -303 18z"/>
 <path d="M3515 2042 c-16 -9 -37 -18 -45 -22 -8 -4 -31 -30 -50 -59 -74 -108 -40 -231 80 -293 42 -22 126 -24 167 -3 37 18 113 98 114 120 4 57 0 114 -8 135 -6 14 -12 30 -14 36 -6 16 -98 94 -112 95 -61 7 -107 3 -132 -9z m124 -134 c18 -19 31 -42 31 -57 0 -28 -52 -91 -75 -91 -44 0 -118 81 -95 104 5 5 10 18 10 27 0 20 43 46 76 48 12 1 36 -13 53 -31z"/>
 </g>
<g id="layer105" fill="#dce5fe" stroke="none">
 <path d="M0 2400 l0 -2400 2400 0 2400 0 0 2400 0 2400 -2400 0 -2400 0 0 -2400z m2650 2315 c427 -51 820 -205 1146 -450 80 -61 265 -226 303 -271 14 -16 50 -58 81 -94 345 -398 549 -955 549 -1500 0 -796 -407 -1535 -1084 -1968 -433 -277 -993 -407 -1495 -347 -276 33 -531 106 -763 219 -312 152 -550 339 -794 626 -54 64 -161 219 -213 309 -243 426 -351 941 -295 1411 49 411 187 776 413 1093 139 195 317 379 507 523 452 343 1085 516 1645 449z"/>
 <path d="M2217 3759 c-101 -12 -290 -70 -397 -120 -396 -187 -673 -542 -767 -981 -25 -116 -25 -400 0 -516 194 -907 1161 -1375 1977 -956 106 55 212 128 282 195 32 30 38 42 38 78 0 53 -12 77 -50 96 -54 28 -83 20 -163 -45 -456 -366 -1075 -352 -1512 34 -264 233 -411 611 -376 963 44 433 323 807 721 965 397 158 828 90 1167 -182 80 -65 109 -73 163 -45 38 19 50 43 50 96 0 36 -6 48 -38 78 -157 150 -404 273 -656 327 -86 19 -332 26 -439 13z"/>
 <path d="M3493 2026 c-81 -38 -127 -137 -104 -224 15 -54 73 -117 126 -138 126 -48 264 47 265 183 0 63 -13 99 -48 137 -62 66 -152 82 -239 42z m130 -98 c31 -16 46 -39 47 -70 1 -103 -121 -134 -164 -43 -36 75 44 152 117 113z"/>
 </g>
<g id="layer106" fill="#fefffe" stroke="none">
 <path d="M0 2400 l0 -2400 2400 0 2400 0 0 2400 0 2400 -2400 0 -2400 0 0 -2400z m2692 2320 c20 0 40 -5 43 -10 3 -5 19 -7 34 -4 16 3 32 1 35 -5 4 -5 13 -8 21 -4 9 3 21 0 29 -6 7 -6 20 -9 29 -5 8 3 18 1 21 -5 4 -6 13 -8 20 -5 8 3 17 0 21 -5 3 -6 11 -9 16 -6 5 4 14 3 21 -1 7 -4 25 -9 42 -11 16 -2 43 -10 60 -19 17 -9 44 -17 60 -20 16 -2 34 -8 40 -14 5 -5 17 -10 25 -10 8 0 33 -9 55 -19 23 -10 62 -27 88 -36 26 -10 53 -24 59 -31 6 -8 19 -14 29 -14 9 0 28 -8 41 -17 39 -29 62 -42 99 -59 19 -9 49 -27 67 -40 17 -13 36 -24 41 -24 4 0 27 -16 49 -35 23 -19 45 -35 50 -35 4 0 27 -18 51 -40 24 -22 46 -40 50 -40 13 -1 52 -38 52 -49 0 -7 8 -15 18 -18 23 -9 167 -153 175 -176 4 -11 16 -21 26 -24 10 -2 25 -17 32 -31 8 -15 21 -34 29 -43 53 -58 81 -95 92 -120 7 -16 16 -29 21 -29 4 0 14 -18 23 -40 9 -22 20 -40 26 -40 5 0 16 -15 24 -32 9 -18 26 -51 39 -73 25 -42 83 -156 96 -190 4 -11 17 -41 28 -66 12 -25 21 -52 21 -60 0 -8 4 -19 9 -24 10 -11 62 -171 59 -183 -1 -4 4 -20 11 -36 6 -16 10 -35 7 -42 -3 -8 0 -16 5 -20 6 -3 9 -15 6 -25 -3 -10 -1 -22 5 -25 5 -3 8 -15 5 -25 -3 -10 -1 -22 5 -25 5 -4 7 -19 4 -35 -3 -15 -1 -31 4 -34 11 -7 12 -31 12 -335 0 -304 -1 -328 -12 -335 -5 -3 -7 -19 -4 -34 3 -16 1 -31 -4 -35 -6 -3 -8 -15 -5 -25 3 -10 0 -22 -5 -25 -6 -3 -8 -15 -5 -25 3 -10 0 -22 -6 -25 -5 -4 -8 -12 -5 -20 3 -7 -1 -26 -7 -42 -7 -16 -12 -32 -11 -36 3 -12 -49 -172 -59 -182 -5 -6 -9 -17 -9 -25 0 -8 -9 -35 -21 -60 -11 -25 -24 -55 -28 -66 -13 -34 -70 -148 -96 -190 -13 -22 -30 -55 -39 -73 -8 -17 -19 -32 -24 -32 -6 0 -17 -18 -26 -40 -9 -22 -19 -40 -23 -40 -5 0 -14 -13 -21 -29 -11 -25 -39 -62 -92 -120 -8 -9 -21 -28 -29 -43 -7 -14 -22 -29 -32 -31 -10 -3 -22 -13 -26 -24 -8 -22 -154 -173 -168 -173 -5 0 -23 -16 -38 -35 -15 -19 -32 -35 -37 -35 -4 0 -27 -16 -49 -36 -22 -21 -49 -42 -59 -48 -11 -6 -41 -28 -68 -48 -27 -20 -72 -49 -101 -64 -29 -14 -57 -32 -64 -40 -6 -8 -18 -14 -26 -14 -8 0 -26 -9 -40 -20 -14 -11 -34 -20 -43 -20 -10 0 -23 -6 -29 -14 -6 -7 -33 -21 -59 -31 -26 -9 -65 -26 -88 -36 -22 -10 -47 -19 -55 -19 -8 0 -20 -5 -25 -10 -6 -6 -24 -12 -40 -14 -16 -3 -43 -11 -60 -20 -17 -9 -44 -18 -60 -20 -16 -2 -36 -6 -45 -10 -9 -4 -27 -8 -41 -10 -13 -1 -29 -6 -36 -10 -7 -4 -17 -4 -22 -1 -6 4 -17 1 -25 -5 -8 -7 -21 -10 -30 -7 -8 4 -17 1 -21 -4 -3 -6 -19 -8 -35 -5 -15 3 -31 1 -34 -4 -7 -11 -3 -11 -330 -11 -308 -1 -333 0 -340 11 -3 5 -19 7 -34 4 -16 -3 -32 -1 -35 5 -4 5 -13 8 -21 4 -9 -3 -21 0 -29 6 -7 6 -20 9 -29 5 -8 -3 -18 -1 -21 5 -4 6 -13 8 -20 5 -8 -3 -17 0 -21 5 -3 6 -11 9 -16 6 -5 -4 -14 -3 -21 1 -7 4 -25 9 -42 11 -16 2 -43 10 -60 19 -17 9 -44 17 -60 20 -16 2 -34 8 -40 14 -5 5 -17 10 -26 10 -9 0 -33 9 -55 20 -22 11 -43 20 -48 20 -12 0 -164 75 -202 100 -16 10 -57 33 -90 50 -33 17 -82 47 -109 68 -27 20 -57 42 -68 48 -10 6 -37 27 -59 48 -22 20 -44 36 -47 36 -13 1 -48 35 -55 53 -3 9 -12 17 -18 17 -15 0 -169 152 -169 167 0 7 -16 24 -35 39 -19 14 -35 30 -35 35 0 5 -9 19 -20 32 -48 51 -58 64 -93 113 -20 29 -37 56 -37 62 0 6 -11 24 -25 40 -13 16 -29 40 -35 53 -6 13 -22 42 -35 64 -25 42 -82 156 -96 190 -4 11 -17 41 -28 66 -12 25 -21 52 -21 60 0 8 -4 19 -9 25 -14 14 -73 212 -67 223 4 5 1 13 -5 16 -5 4 -8 14 -5 22 4 9 1 22 -5 30 -7 7 -9 16 -6 20 4 3 2 12 -4 19 -6 8 -9 20 -6 29 4 8 1 17 -4 21 -6 3 -8 19 -5 35 3 15 1 31 -4 34 -11 7 -11 4 -11 335 0 331 0 328 11 335 5 3 7 19 4 34 -3 16 -1 32 5 35 5 4 8 13 4 21 -3 9 0 21 6 29 6 7 8 16 4 19 -3 4 -1 13 6 20 6 8 9 21 5 30 -3 8 0 18 5 22 6 3 9 11 5 16 -6 11 53 209 67 224 5 5 9 16 9 24 0 8 9 35 21 60 11 25 24 55 28 66 14 34 71 148 96 190 13 22 29 51 35 64 6 13 22 37 35 53 14 16 25 34 25 40 0 6 17 33 37 62 35 49 45 62 93 114 11 12 20 26 20 31 0 5 16 21 35 35 19 15 35 32 35 39 0 15 149 161 173 170 9 3 17 11 17 18 0 11 39 48 51 49 4 0 24 16 45 35 21 19 43 35 49 35 7 0 20 10 31 22 22 25 133 98 184 122 19 9 49 25 65 36 37 24 190 100 202 100 5 0 26 9 48 20 22 11 46 20 55 20 9 0 21 5 26 10 6 6 24 12 40 14 16 3 43 11 60 20 17 9 44 18 60 20 16 2 36 6 45 10 9 4 27 8 41 10 13 1 29 6 36 10 7 4 17 4 22 1 6 -4 17 -1 25 5 8 7 21 10 30 7 8 -4 17 -1 21 4 3 6 19 8 35 5 15 -3 31 -1 35 5 3 6 20 8 38 6 17 -3 40 -2 51 3 17 7 138 7 537 0z"/>
 <path d="M2277 3759 c-10 -6 -30 -8 -44 -4 -14 3 -31 1 -39 -6 -7 -6 -21 -8 -30 -5 -9 4 -23 1 -30 -5 -8 -6 -20 -9 -28 -6 -7 3 -17 2 -22 -3 -5 -4 -33 -13 -62 -19 -29 -6 -87 -27 -128 -46 -41 -19 -79 -35 -86 -35 -6 0 -34 -15 -62 -33 -28 -19 -67 -42 -86 -53 -19 -10 -39 -24 -45 -30 -22 -22 -104 -84 -113 -84 -13 0 -147 -146 -177 -192 -5 -9 -32 -49 -59 -90 -27 -40 -59 -89 -72 -109 -13 -19 -24 -42 -24 -50 0 -7 -8 -27 -18 -44 -10 -16 -24 -51 -32 -78 -7 -26 -17 -50 -21 -53 -5 -3 -9 -15 -9 -28 0 -12 -3 -26 -6 -29 -4 -4 -8 -23 -10 -43 -2 -20 -8 -42 -14 -49 -6 -7 -8 -20 -4 -28 3 -9 2 -22 -3 -29 -11 -18 -14 -62 -14 -208 0 -137 3 -186 15 -212 4 -9 5 -22 1 -28 -4 -6 -2 -17 5 -24 6 -8 12 -30 14 -50 2 -20 6 -39 10 -43 3 -3 6 -17 6 -29 0 -13 4 -25 9 -28 4 -3 14 -27 21 -53 8 -27 22 -61 32 -78 10 -16 18 -37 18 -44 0 -8 11 -31 24 -50 13 -20 45 -69 72 -109 27 -41 54 -81 59 -90 30 -46 164 -192 177 -192 9 0 91 -62 113 -84 6 -6 26 -20 45 -30 19 -11 58 -34 86 -53 28 -18 56 -33 62 -33 7 0 45 -16 86 -35 41 -19 99 -40 128 -46 29 -6 57 -15 62 -19 5 -5 15 -6 22 -3 8 3 20 0 28 -6 7 -6 21 -9 29 -5 9 3 22 2 29 -3 18 -11 62 -14 208 -14 137 0 186 3 212 15 9 4 22 5 27 2 6 -4 18 -2 28 3 10 6 51 17 92 26 41 9 107 31 148 50 40 19 79 35 87 35 7 0 64 34 125 75 62 41 117 75 122 75 5 0 9 4 9 9 0 5 15 18 34 29 32 19 66 70 66 99 0 22 -30 75 -53 93 -26 21 -88 12 -121 -19 -12 -11 -27 -21 -33 -21 -6 0 -13 -6 -16 -14 -13 -33 -299 -192 -360 -200 -12 -2 -35 -8 -50 -15 -16 -6 -32 -9 -37 -6 -5 3 -11 1 -15 -5 -3 -5 -16 -10 -28 -9 -12 0 -38 -3 -57 -7 -46 -9 -310 -9 -380 1 -30 4 -60 11 -66 16 -6 5 -13 6 -16 4 -3 -3 -18 0 -34 6 -16 7 -33 11 -38 10 -8 -2 -58 19 -161 70 -92 45 -155 83 -193 118 -19 17 -38 31 -42 31 -4 0 -35 30 -69 68 -34 37 -70 76 -81 88 -11 12 -20 24 -20 27 0 3 -14 21 -30 39 -34 37 -149 260 -154 298 -2 14 -9 38 -15 54 -6 16 -9 31 -6 34 2 3 1 10 -4 16 -32 39 -32 493 0 532 5 6 6 13 4 16 -3 3 0 18 6 34 6 16 13 40 15 54 5 38 120 261 154 298 16 18 30 36 30 39 0 3 9 15 20 27 11 12 47 51 81 89 34 37 65 67 69 67 4 0 23 14 42 31 38 35 101 73 193 118 103 51 153 72 161 70 5 -1 22 3 38 10 16 6 31 9 34 6 3 -2 10 -1 16 4 6 5 36 12 66 16 70 10 334 10 380 1 19 -4 45 -7 57 -7 12 1 25 -4 28 -9 4 -6 10 -8 15 -5 5 3 21 0 37 -6 15 -7 38 -13 50 -15 61 -8 347 -167 360 -200 3 -8 10 -14 16 -14 6 0 21 -10 33 -21 13 -12 40 -25 62 -29 45 -8 70 7 96 58 14 28 15 38 4 73 -6 23 -23 48 -36 57 -13 10 -32 25 -43 35 -10 9 -21 17 -23 17 -3 0 -55 34 -117 75 -61 41 -118 75 -125 75 -8 0 -47 16 -89 35 -41 20 -110 43 -153 51 -42 9 -82 20 -88 25 -6 5 -19 7 -27 3 -9 -3 -22 -2 -29 3 -15 9 -43 12 -198 18 -74 3 -122 1 -133 -6z"/>
 <path d="M3533 2038 c-2 -5 -12 -8 -21 -8 -9 0 -38 -21 -64 -46 -44 -42 -53 -55 -49 -77 1 -4 -4 -17 -10 -29 -7 -14 -8 -27 -1 -42 5 -11 15 -39 22 -61 12 -42 35 -63 107 -102 47 -25 73 -28 101 -14 9 5 38 18 64 30 102 47 123 206 38 299 -16 17 -35 32 -41 32 -5 0 -20 5 -31 11 -25 13 -108 18 -115 7z m99 -106 c39 -16 51 -44 39 -90 -18 -64 -36 -82 -85 -82 -61 0 -89 25 -92 81 -4 88 54 126 138 91z"/>
 </g>

</svg>