<!DOCTYPE svg PUBLIC "-//W3C//DTD SVG 20010904//EN" "http://www.w3.org/TR/2001/REC-SVG-20010904/DTD/svg10.dtd">
<svg version="1.0" xmlns="http://www.w3.org/2000/svg" width="427px" height="400px" viewBox="0 0 4270 4000" preserveAspectRatio="xMidYMid meet">
<g id="layer101" fill="#16bab8" stroke="none">
 <path d="M1930 3649 c-661 -46 -1234 -491 -1446 -1124 -53 -158 -74 -278 -81 -460 -7 -188 6 -319 47 -481 52 -208 144 -402 272 -576 80 -109 261 -287 371 -365 170 -120 415 -227 607 -267 165 -33 245 -36 1127 -36 l883 0 0 210 0 210 -834 0 c-879 0 -969 4 -1133 45 -578 147 -977 717 -915 1308 58 547 426 960 977 1094 63 15 166 17 988 20 l917 4 0 209 0 210 -819 0 c-451 0 -825 2 -833 4 -7 1 -65 -1 -128 -5z"/>
 <path d="M1878 2914 c-321 -58 -600 -299 -707 -612 -155 -453 57 -948 492 -1152 159 -75 208 -82 588 -87 l335 -5 202 207 c111 115 202 212 202 217 0 4 -226 8 -503 8 -419 0 -513 3 -562 15 -154 41 -288 162 -346 314 -110 290 69 611 376 676 56 12 167 15 555 15 l485 0 -210 210 -210 210 -310 -1 c-217 -1 -333 -5 -387 -15z"/>
 <path d="M2980 2922 c0 -4 91 -98 203 -210 l202 -202 163 0 162 0 0 210 0 210 -365 0 c-201 0 -365 -3 -365 -8z"/>
 <path d="M1986 2198 c-79 -21 -146 -118 -146 -210 0 -59 48 -139 104 -173 l49 -30 651 -3 650 -3 108 108 108 108 -107 107 -108 108 -635 -1 c-402 -1 -649 -5 -674 -11z"/>
 <path d="M3197 1282 c-114 -114 -207 -211 -207 -215 0 -4 162 -7 360 -7 l360 0 0 215 0 215 -153 0 -152 0 -208 -208z"/>
 </g>

</svg>