<!DOCTYPE svg PUBLIC "-//W3C//DTD SVG 20010904//EN" "http://www.w3.org/TR/2001/REC-SVG-20010904/DTD/svg10.dtd">
<svg version="1.0" xmlns="http://www.w3.org/2000/svg" width="1106px" height="1031px" viewBox="0 0 11060 10310" preserveAspectRatio="xMidYMid meet">
<g id="layer101" fill="#10d078" stroke="none">
 <path d="M1480 9549 c-270 -21 -847 -94 -864 -110 -4 -4 61 -90 146 -191 421 -502 604 -814 858 -1463 188 -480 214 -544 289 -703 167 -357 363 -689 576 -977 70 -95 156 -197 161 -192 2 2 -34 80 -80 173 -235 472 -425 973 -605 1594 -90 310 -173 556 -250 739 -100 238 -246 511 -358 669 -25 35 -43 65 -41 67 7 8 261 26 498 35 249 10 619 1 845 -21 803 -75 1478 -298 2030 -669 176 -119 287 -210 439 -363 82 -82 146 -141 142 -131 -18 47 -97 174 -170 272 -91 122 -320 356 -446 456 -560 444 -1237 700 -2120 802 -160 19 -870 28 -1050 13z"/>
 <path d="M5704 8798 c7 -18 59 -137 114 -264 123 -281 150 -348 195 -489 102 -311 140 -592 102 -739 -31 -118 -68 -142 -242 -156 -196 -16 -364 -60 -542 -142 l-84 -38 -15 22 c-8 13 -56 64 -106 113 -76 76 -107 98 -186 137 -170 84 -146 81 -748 85 l-533 4 4 -538 c4 -601 2 -584 78 -739 48 -97 126 -195 213 -265 l64 -51 -39 -82 c-81 -173 -130 -365 -144 -559 -14 -183 -62 -227 -257 -235 -131 -6 -247 9 -428 54 -200 49 -361 107 -695 253 -165 71 -301 128 -303 127 -3 -4 355 -618 523 -896 284 -469 407 -652 478 -715 72 -63 169 -111 273 -135 333 -78 465 -111 749 -185 176 -47 366 -97 421 -112 l101 -28 126 -152 c346 -417 516 -589 796 -802 697 -531 1692 -926 2915 -1156 456 -86 1150 -165 1450 -165 l58 0 -6 128 c-43 840 -192 1694 -431 2468 -276 899 -677 1638 -1162 2144 -116 122 -251 243 -493 444 -85 71 -163 136 -172 145 -23 22 -229 792 -322 1204 -70 313 -114 363 -581 654 -332 207 -1156 693 -1175 693 -6 0 -5 -12 4 -32z m895 -935 c86 -53 213 -134 284 -180 152 -99 175 -129 202 -260 9 -48 55 -238 101 -422 46 -184 83 -336 81 -337 -1 -2 -56 31 -122 72 -238 150 -432 248 -628 319 -55 20 -76 32 -73 42 46 119 51 156 51 368 -1 189 -4 223 -28 336 -14 69 -29 134 -33 143 -3 9 -3 16 1 16 4 0 78 -44 164 -97z m-1883 -932 c30 -11 76 -35 102 -53 72 -52 1009 -1236 1062 -1343 31 -63 53 -135 99 -330 33 -137 58 -251 57 -253 -2 -1 -117 25 -256 58 -177 42 -275 71 -324 94 -52 25 -229 160 -661 501 -324 257 -612 488 -638 514 -55 53 -102 142 -117 220 -10 56 -14 381 -4 381 4 0 1044 -861 1242 -1028 29 -25 55 -43 57 -40 3 3 -234 292 -525 643 -292 351 -533 642 -536 647 -3 4 83 8 191 8 168 0 203 -3 251 -19z m1520 -185 c415 -103 907 -416 1616 -1024 101 -87 224 -199 275 -250 602 -606 1053 -1578 1328 -2865 69 -323 154 -877 181 -1181 l7 -79 -89 7 c-386 31 -1049 142 -1489 251 -1220 302 -2109 761 -2662 1374 -235 259 -576 686 -745 931 -162 235 -314 520 -378 708 -101 298 -93 567 24 844 l16 38 293 -232 c587 -466 603 -477 757 -538 49 -20 1170 -294 1176 -288 7 9 -271 1133 -297 1196 -48 122 -98 192 -438 622 -367 464 -344 406 -183 461 143 48 219 59 372 54 100 -2 161 -10 236 -29z m-3069 -2220 c284 -59 543 -55 701 11 19 8 35 13 36 11 1 -2 22 -55 45 -118 57 -151 179 -390 290 -567 49 -79 85 -143 79 -143 -5 0 -114 27 -241 60 -128 32 -313 78 -412 100 -227 52 -210 46 -252 83 -45 40 -162 217 -388 586 -6 11 -4 13 8 8 9 -3 69 -17 134 -31z"/>
 <path d="M7575 4233 c-75 -11 -197 -48 -273 -84 -253 -117 -434 -329 -519 -606 -25 -82 -27 -101 -27 -268 0 -167 2 -186 27 -268 122 -397 459 -667 866 -693 474 -31 889 277 1002 743 25 103 30 301 10 398 -84 405 -384 701 -780 770 -77 14 -235 18 -306 8z m240 -378 c277 -49 485 -297 485 -576 0 -165 -54 -293 -175 -415 -121 -122 -244 -174 -415 -174 -162 0 -297 57 -415 175 -143 142 -201 335 -160 530 50 238 254 429 495 464 80 12 96 12 185 -4z"/>
 </g>

</svg>