<?xml version="1.0" encoding="utf-8"?>
<!-- Generator: Adobe Illustrator 19.0.0, SVG Export Plug-In . SVG Version: 6.00 Build 0)  -->
<svg version="1.1" id="Layer_1" xmlns="http://www.w3.org/2000/svg" xmlns:xlink="http://www.w3.org/1999/xlink" x="0px" y="0px"
	 viewBox="125 85 330 330" style="enable-background:new 125 85 330 330;" xml:space="preserve">
<style type="text/css">
	.st0{fill:none;}
	.st1{clip-path:url(#SVGID_2_);}
	.st2{fill:#3F01FD;}
	.st3{fill:#3F02FD;}
	.st4{fill:#4003FD;}
	.st5{fill:#4004FD;}
	.st6{fill:#4005FD;}
	.st7{fill:#4006FD;}
	.st8{fill:#4107FD;}
	.st9{fill:#4108FD;}
	.st10{fill:#4109FD;}
	.st11{fill:#420AFD;}
	.st12{fill:#420BFD;}
	.st13{fill:#420CFD;}
	.st14{fill:#420DFD;}
	.st15{fill:#420EFD;}
	.st16{fill:#430FFD;}
	.st17{fill:#4310FD;}
	.st18{fill:#4311FD;}
	.st19{fill:#4312FD;}
	.st20{fill:#4413FD;}
	.st21{fill:#4414FD;}
	.st22{fill:#4415FD;}
	.st23{fill:#4516FD;}
	.st24{fill:#4517FD;}
	.st25{fill:#4518FD;}
	.st26{fill:#4519FD;}
	.st27{fill:#451AFD;}
	.st28{fill:#461BFD;}
	.st29{fill:#461CFD;}
	.st30{fill:#461DFD;}
	.st31{fill:#461EFD;}
	.st32{fill:#471FFD;}
	.st33{fill:#4720FD;}
	.st34{fill:#4721FD;}
	.st35{fill:#4722FD;}
	.st36{fill:#4823FD;}
	.st37{fill:#4824FD;}
	.st38{fill:#4825FD;}
	.st39{fill:#4826FD;}
	.st40{fill:#4926FD;}
	.st41{fill:#4927FD;}
	.st42{fill:#4928FD;}
	.st43{fill:#4929FD;}
	.st44{fill:#492AFD;}
	.st45{fill:#4A2BFD;}
	.st46{fill:#4A2CFD;}
	.st47{fill:#4A2DFD;}
	.st48{fill:#4A2EFD;}
	.st49{fill:#4B2FFD;}
	.st50{fill:#4B30FD;}
	.st51{fill:#4B31FD;}
	.st52{fill:#4B32FD;}
	.st53{fill:#4C33FD;}
	.st54{fill:#4C34FD;}
	.st55{fill:#4C35FD;}
	.st56{fill:#4C36FD;}
	.st57{fill:#4D37FE;}
	.st58{fill:#4D38FE;}
	.st59{fill:#4D39FE;}
	.st60{fill:#4D3AFE;}
	.st61{fill:#4E3BFE;}
	.st62{fill:#4E3CFE;}
	.st63{fill:#4E3DFE;}
	.st64{fill:#4E3EFE;}
	.st65{fill:#4F3FFE;}
	.st66{fill:#4F40FE;}
	.st67{fill:#4F41FE;}
	.st68{fill:#4F42FE;}
	.st69{fill:#5043FE;}
	.st70{fill:#5044FE;}
	.st71{fill:#5045FE;}
	.st72{fill:#5046FE;}
	.st73{fill:#5147FE;}
	.st74{fill:#5148FE;}
	.st75{fill:#5149FE;}
	.st76{fill:#514AFE;}
	.st77{fill:#524BFE;}
	.st78{fill:#524CFE;}
	.st79{fill:#524DFE;}
	.st80{fill:#524EFE;}
	.st81{fill:#524FFE;}
	.st82{fill:#5350FE;}
	.st83{fill:#5351FE;}
	.st84{fill:#5352FE;}
	.st85{fill:#5453FE;}
	.st86{fill:#5454FE;}
	.st87{fill:#5455FE;}
	.st88{fill:#5456FE;}
	.st89{fill:#5557FE;}
	.st90{fill:#5558FE;}
	.st91{fill:#5559FE;}
	.st92{fill:#555AFE;}
	.st93{fill:#555BFE;}
	.st94{fill:#565BFE;}
	.st95{fill:#565CFE;}
	.st96{fill:#565DFE;}
	.st97{fill:#565EFE;}
	.st98{fill:#575FFE;}
	.st99{fill:#5760FE;}
	.st100{fill:#5761FE;}
	.st101{fill:#5762FE;}
	.st102{fill:#5863FE;}
	.st103{fill:#5864FE;}
	.st104{fill:#5865FE;}
	.st105{fill:#5866FE;}
	.st106{fill:#5867FE;}
	.st107{fill:#5967FE;}
	.st108{fill:#5968FE;}
	.st109{fill:#5969FE;}
	.st110{fill:#596AFE;}
	.st111{fill:#596BFE;}
	.st112{fill:#5A6CFE;}
	.st113{fill:#5A6DFE;}
	.st114{fill:#5A6EFE;}
	.st115{fill:#5B6FFE;}
	.st116{fill:#5B70FE;}
	.st117{fill:#5B71FE;}
	.st118{fill:#5B72FE;}
	.st119{fill:#5B73FE;}
	.st120{fill:#5C73FE;}
	.st121{fill:#5C74FE;}
	.st122{fill:#5C75FE;}
	.st123{fill:#5C76FE;}
	.st124{fill:#5C77FE;}
	.st125{fill:#5D78FE;}
	.st126{fill:#5D79FE;}
	.st127{fill:#5D7AFE;}
	.st128{fill:#5D7BFE;}
	.st129{fill:#5E7CFE;}
	.st130{fill:#5E7DFE;}
	.st131{fill:#5E7EFE;}
	.st132{fill:#5E7FFE;}
	.st133{fill:#5F7FFE;}
	.st134{fill:#5F80FE;}
	.st135{fill:#5F81FE;}
	.st136{fill:#5F82FE;}
	.st137{fill:#5F83FE;}
	.st138{fill:#6084FE;}
	.st139{fill:#6085FE;}
	.st140{fill:#6086FE;}
	.st141{fill:#6087FE;}
	.st142{fill:#6188FE;}
	.st143{fill:#6189FE;}
	.st144{fill:#618AFE;}
	.st145{fill:#628BFE;}
	.st146{fill:#628CFE;}
	.st147{fill:#628DFE;}
	.st148{fill:#628EFE;}
	.st149{fill:#628FFE;}
	.st150{fill:#6390FE;}
	.st151{fill:#6391FE;}
	.st152{fill:#6392FE;}
	.st153{fill:#6393FE;}
	.st154{fill:#6494FE;}
	.st155{fill:#6495FE;}
	.st156{fill:#6496FE;}
	.st157{fill:#6497FE;}
	.st158{fill:#6598FE;}
	.st159{fill:#6599FE;}
	.st160{fill:#659AFE;}
	.st161{fill:#659BFE;}
	.st162{fill:#669CFE;}
	.st163{fill:#669DFE;}
	.st164{fill:#669EFE;}
	.st165{fill:#669FFE;}
	.st166{fill:#67A0FE;}
	.st167{fill:#67A1FE;}
	.st168{fill:#67A2FE;}
	.st169{fill:#67A3FE;}
	.st170{fill:#68A4FF;}
	.st171{fill:#68A5FF;}
	.st172{fill:#68A6FF;}
	.st173{fill:#68A7FF;}
	.st174{fill:#69A8FF;}
	.st175{fill:#69A9FF;}
	.st176{fill:#69AAFF;}
	.st177{fill:#69ABFF;}
	.st178{fill:#6AACFF;}
	.st179{fill:#6AADFF;}
	.st180{fill:#6AAEFF;}
	.st181{fill:#6AAFFF;}
	.st182{fill:#6BB0FF;}
	.st183{fill:#6BB1FF;}
	.st184{fill:#6BB2FF;}
	.st185{fill:#6BB3FF;}
	.st186{fill:#6BB4FF;}
	.st187{fill:#6CB4FF;}
	.st188{fill:#6CB5FF;}
	.st189{fill:#6CB6FF;}
	.st190{fill:#6CB7FF;}
	.st191{fill:#6DB8FF;}
	.st192{fill:#6DB9FF;}
	.st193{fill:#6DBAFF;}
	.st194{fill:#6DBBFF;}
	.st195{fill:#6EBCFF;}
	.st196{fill:#6EBDFF;}
	.st197{fill:#6EBEFF;}
	.st198{fill:#6EBFFF;}
	.st199{fill:#6FC0FF;}
	.st200{fill:#6FC1FF;}
	.st201{fill:#6FC2FF;}
	.st202{fill:#6FC3FF;}
	.st203{fill:#6FC4FF;}
	.st204{fill:#70C5FF;}
	.st205{fill:#70C6FF;}
	.st206{fill:#70C7FF;}
	.st207{fill:#71C8FF;}
	.st208{fill:#71C9FF;}
	.st209{fill:#71CAFF;}
	.st210{fill:#71CBFF;}
	.st211{fill:#72CCFF;}
	.st212{fill:#72CDFF;}
	.st213{fill:#72CEFF;}
	.st214{fill:#72CFFF;}
	.st215{fill:#72D0FF;}
	.st216{fill:#73D1FF;}
	.st217{fill:#73D2FF;}
	.st218{fill:#73D3FF;}
	.st219{fill:#74D4FF;}
	.st220{fill:#74D5FF;}
	.st221{fill:#74D6FF;}
	.st222{fill:#74D7FF;}
	.st223{fill:#75D8FF;}
	.st224{fill:#75D9FF;}
	.st225{fill:#75DAFF;}
	.st226{fill:#3F00FD;}
</style>
<rect x="20" y="-20" class="st0" width="540" height="540"/>
<g>
	<g>
		<defs>
			<path id="SVGID_1_" d="M266.8,94.6c37.2-6.8,76.5,0.8,108.8,20.2c31.9,18.9,56.8,49.6,68.5,85c-6.5,8.2-12.5,16.8-18.7,25.3
				c-6.3,8.3-12.2,16.8-18.5,25.1c12.5,16.8,24.6,33.7,37.2,50.4c-17.3,52.7-64.5,94-119,104.3c-37.6,7.5-77.9,0.9-110.9-18.6
				c-33-19.2-58.6-50.7-70.5-87c-0.3-1-0.9-3.1-1.2-4.1c-6.3-21-8.1-43.3-5.3-65.1c0.1-1.2,0.4-3.6,0.6-4.8
				c5.9-37.4,25.9-72.3,55.2-96.3c15.2-12.8,32.9-22.4,51.7-28.8C251.9,97.8,259.3,95.9,266.8,94.6z M255.6,168
				c-23.9,11.1-42.6,33.1-49.2,58.7h-0.2c-0.4,1.9-0.9,3.8-1.2,5.8c-4.1,20.5-0.9,42.4,9.2,60.8c1.4,2.2,2.7,4.5,4,6.8h0.1
				c17.9,27.9,52,43.9,84.8,40.3c27.1-2.2,51.8-18.5,67-40.6h0.1c12.1-16.6,24.3-33,36.4-49.5c-5.8-8-11.7-15.8-17.4-23.9H389
				c-13.8-18.6-25.9-39.5-45.9-52.3C317.7,156.8,283.2,155,255.6,168z"/>
		</defs>
		<clipPath id="SVGID_2_">
			<use xlink:href="#SVGID_1_"  style="overflow:visible;"/>
		</clipPath>
		<g class="st1">
			<polygon class="st2" points="291.5,249.9 518.7,256.1 518.5,264.4 			"/>
			<polygon id="_x31_" class="st3" points="291.5,249.9 518.5,263 518.1,269.9 			"/>
			<polygon id="_x32_" class="st4" points="291.5,249.9 518.2,268.6 517.6,275.4 			"/>
			<polygon id="_x33_" class="st4" points="291.5,249.9 517.7,274 517,280.9 			"/>
			<polygon id="_x34_" class="st5" points="291.5,249.9 517.2,279.5 516.2,286.4 			"/>
			<polygon id="_x35_" class="st6" points="291.5,249.9 516.4,285 515.4,291.8 			"/>
			<polygon id="_x36_" class="st7" points="291.5,249.9 515.6,290.5 514.3,297.2 			"/>
			<polygon id="_x37_" class="st8" points="291.5,249.9 514.6,295.9 513.1,302.6 			"/>
			<polygon id="_x38_" class="st9" points="291.5,249.9 513.4,301.3 511.8,308 			"/>
			<polygon id="_x39_" class="st10" points="291.5,249.9 512.1,306.6 510.4,313.3 			"/>
			<polygon id="_x31_0" class="st10" points="291.5,249.9 510.8,311.9 508.8,318.5 			"/>
			<polygon id="_x31_1" class="st11" points="291.5,249.9 509.2,317.2 507.2,323.8 			"/>
			<polygon id="_x31_2" class="st12" points="291.5,249.9 507.6,322.4 505.3,329 			"/>
			<polygon id="_x31_3" class="st13" points="291.5,249.9 505.8,327.7 503.3,334.1 			"/>
			<polygon id="_x31_4" class="st14" points="291.5,249.9 503.8,332.8 501.2,339.2 			"/>
			<polygon id="_x31_5" class="st15" points="291.5,249.9 501.8,337.9 499.1,344.2 			"/>
			<polygon id="_x31_6" class="st16" points="291.5,249.9 499.6,343 496.7,349.2 			"/>
			<polygon id="_x31_7" class="st16" points="291.5,249.9 497.3,348 494.3,354.2 			"/>
			<polygon id="_x31_8" class="st17" points="291.5,249.9 494.8,352.9 491.7,359 			"/>
			<polygon id="_x31_9" class="st18" points="291.5,249.9 492.3,357.8 489,363.8 			"/>
			<polygon id="_x32_0" class="st19" points="291.5,249.9 489.7,362.6 486.2,368.5 			"/>
			<polygon id="_x32_1" class="st20" points="291.5,249.9 486.8,367.4 483.2,373.2 			"/>
			<polygon id="_x32_2" class="st21" points="291.5,249.9 484,372 480.2,377.8 			"/>
			<polygon id="_x32_3" class="st22" points="291.5,249.9 480.9,376.6 477,382.3 			"/>
			<polygon id="_x32_4" class="st22" points="291.5,249.9 477.8,381.1 473.7,386.7 			"/>
			<polygon id="_x32_5" class="st23" points="291.5,249.9 474.5,385.6 470.4,391 			"/>
			<polygon id="_x32_6" class="st24" points="291.5,249.9 471.2,390 466.8,395.3 			"/>
			<polygon id="_x32_7" class="st25" points="291.5,249.9 467.7,394.2 463.2,399.5 			"/>
			<polygon id="_x32_8" class="st26" points="291.5,249.9 464.2,398.4 459.6,403.6 			"/>
			<polygon id="_x32_9" class="st27" points="291.5,249.9 460.5,402.5 455.7,407.5 			"/>
			<polygon id="_x33_0" class="st28" points="291.5,249.9 456.7,406.5 451.9,411.4 			"/>
			<polygon id="_x33_1" class="st28" points="291.5,249.9 452.8,410.4 447.8,415.2 			"/>
			<polygon id="_x33_2" class="st29" points="291.5,249.9 448.8,414.2 443.7,418.9 			"/>
			<polygon id="_x33_3" class="st30" points="291.5,249.9 444.7,418 439.5,422.5 			"/>
			<polygon id="_x33_4" class="st31" points="291.5,249.9 440.6,421.6 435.3,426 			"/>
			<polygon id="_x33_5" class="st32" points="291.5,249.9 436.3,425.1 430.9,429.4 			"/>
			<polygon id="_x33_6" class="st33" points="291.5,249.9 432,428.6 426.4,432.7 			"/>
			<polygon id="_x33_7" class="st33" points="291.5,249.9 427.6,431.8 421.9,435.8 			"/>
			<polygon id="_x33_8" class="st34" points="291.5,249.9 423.1,435 417.3,438.9 			"/>
			<polygon id="_x33_9" class="st35" points="291.5,249.9 418.4,438.1 412.6,441.8 			"/>
			<polygon id="_x34_0" class="st36" points="291.5,249.9 413.8,441.1 407.9,444.6 			"/>
			<polygon id="_x34_1" class="st37" points="291.5,249.9 409.1,443.9 403,447.4 			"/>
			<polygon id="_x34_2" class="st38" points="291.5,249.9 404.3,446.6 398.1,449.9 			"/>
			<polygon id="_x34_3" class="st39" points="291.5,249.9 399.4,449.3 393.2,452.4 			"/>
			<polygon id="_x34_4" class="st40" points="291.5,249.9 394.5,451.8 388.2,454.8 			"/>
			<polygon id="_x34_5" class="st41" points="291.5,249.9 389.4,454.2 383.1,457 			"/>
			<polygon id="_x34_6" class="st42" points="291.5,249.9 384.4,456.4 378,459.1 			"/>
			<polygon id="_x34_7" class="st43" points="291.5,249.9 379.3,458.5 372.8,461 			"/>
			<polygon id="_x34_8" class="st44" points="291.5,249.9 374.1,460.5 367.5,462.9 			"/>
			<polygon id="_x34_9" class="st45" points="291.5,249.9 368.9,462.4 362.3,464.6 			"/>
			<polygon id="_x35_0" class="st46" points="291.5,249.9 363.6,464.2 357,466.2 			"/>
			<polygon id="_x35_1" class="st46" points="291.5,249.9 358.3,465.8 351.6,467.7 			"/>
			<polygon id="_x35_2" class="st47" points="291.5,249.9 352.9,467.3 346.2,469 			"/>
			<polygon id="_x35_3" class="st48" points="291.5,249.9 347.6,468.7 340.8,470.2 			"/>
			<polygon id="_x35_4" class="st49" points="291.5,249.9 342.1,469.9 335.4,471.3 			"/>
			<polygon id="_x35_5" class="st50" points="291.5,249.9 336.7,471 329.8,472.1 			"/>
			<polygon id="_x35_6" class="st51" points="291.5,249.9 331.2,471.9 324.3,473 			"/>
			<polygon id="_x35_7" class="st52" points="291.5,249.9 325.7,472.8 318.8,473.6 			"/>
			<polygon id="_x35_8" class="st52" points="291.5,249.9 320.2,473.4 313.3,474.1 			"/>
			<polygon id="_x35_9" class="st53" points="291.5,249.9 314.6,474 307.7,474.5 			"/>
			<polygon id="_x36_0" class="st54" points="291.5,249.9 309.1,474.4 302.2,474.8 			"/>
			<polygon id="_x36_1" class="st55" points="291.5,249.9 303.5,474.7 296.6,474.9 			"/>
			<polygon id="_x36_2" class="st56" points="291.5,249.9 298,474.9 291,474.9 			"/>
			<polygon id="_x36_3" class="st57" points="291.5,249.9 292.4,474.9 285.4,474.7 			"/>
			<polygon id="_x36_4" class="st58" points="291.5,249.9 286.8,474.8 279.8,474.4 			"/>
			<polygon id="_x36_5" class="st58" points="291.5,249.9 281.2,474.5 274.3,474 			"/>
			<polygon id="_x36_6" class="st59" points="291.5,249.9 275.7,474.1 268.7,473.5 			"/>
			<polygon id="_x36_7" class="st60" points="291.5,249.9 270.1,473.6 263.1,472.8 			"/>
			<polygon id="_x36_8" class="st61" points="291.5,249.9 264.6,472.9 257.7,472 			"/>
			<polygon id="_x36_9" class="st62" points="291.5,249.9 259,472.1 252.1,471 			"/>
			<polygon id="_x37_0" class="st63" points="291.5,249.9 253.5,471.2 246.7,469.9 			"/>
			<polygon id="_x37_1" class="st64" points="291.5,249.9 248,470.2 241.2,468.7 			"/>
			<polygon id="_x37_2" class="st64" points="291.5,249.9 242.6,469 235.8,467.3 			"/>
			<polygon id="_x37_3" class="st65" points="291.5,249.9 237.2,467.7 230.4,465.8 			"/>
			<polygon id="_x37_4" class="st66" points="291.5,249.9 231.8,466.2 225.1,464.2 			"/>
			<polygon id="_x37_5" class="st67" points="291.5,249.9 226.4,464.6 219.7,462.5 			"/>
			<polygon id="_x37_6" class="st68" points="291.5,249.9 221,462.9 214.5,460.6 			"/>
			<polygon id="_x37_7" class="st69" points="291.5,249.9 215.8,461 209.2,458.6 			"/>
			<polygon id="_x37_8" class="st70" points="291.5,249.9 210.5,459.1 204,456.4 			"/>
			<polygon id="_x37_9" class="st70" points="291.5,249.9 205.3,457 198.9,454.2 			"/>
			<polygon id="_x38_0" class="st71" points="291.5,249.9 200.2,454.8 193.9,451.8 			"/>
			<polygon id="_x38_1" class="st72" points="291.5,249.9 195.2,452.4 188.8,449.3 			"/>
			<polygon id="_x38_2" class="st73" points="291.5,249.9 190.1,449.9 183.9,446.7 			"/>
			<polygon id="_x38_3" class="st74" points="291.5,249.9 185.2,447.4 179,444 			"/>
			<polygon id="_x38_4" class="st75" points="291.5,249.9 180.3,444.6 174.2,441.1 			"/>
			<polygon id="_x38_5" class="st76" points="291.5,249.9 175.4,441.8 169.5,438.1 			"/>
			<polygon id="_x38_6" class="st76" points="291.5,249.9 170.7,438.9 164.8,435 			"/>
			<polygon id="_x38_7" class="st77" points="291.5,249.9 166,435.8 160.3,431.9 			"/>
			<polygon id="_x38_8" class="st78" points="291.5,249.9 161.4,432.7 155.7,428.6 			"/>
			<polygon id="_x38_9" class="st79" points="291.5,249.9 156.9,429.4 151.3,425.2 			"/>
			<polygon id="_x39_0" class="st80" points="291.5,249.9 152.4,426 146.9,421.6 			"/>
			<polygon id="_x39_1" class="st81" points="291.5,249.9 148,422.5 142.7,418 			"/>
			<polygon id="_x39_2" class="st82" points="291.5,249.9 143.8,418.9 138.5,414.3 			"/>
			<polygon id="_x39_3" class="st82" points="291.5,249.9 139.5,415.2 134.4,410.5 			"/>
			<polygon id="_x39_4" class="st83" points="291.5,249.9 135.5,411.4 130.4,406.6 			"/>
			<polygon id="_x39_5" class="st84" points="291.5,249.9 131.5,407.5 126.6,402.6 			"/>
			<polygon id="_x39_6" class="st85" points="291.5,249.9 127.6,403.6 122.7,398.5 			"/>
			<polygon id="_x39_7" class="st86" points="291.5,249.9 123.8,399.5 119.1,394.3 			"/>
			<polygon id="_x39_8" class="st87" points="291.5,249.9 120,395.3 115.5,390 			"/>
			<polygon id="_x39_9" class="st87" points="291.5,249.9 116.4,391 112,385.6 			"/>
			<polygon id="_x31_00" class="st88" points="291.5,249.9 112.9,386.7 108.6,381.2 			"/>
			<polygon id="_x31_01" class="st89" points="291.5,249.9 109.5,382.3 105.4,376.6 			"/>
			<polygon id="_x31_02" class="st90" points="291.5,249.9 106.3,377.8 102.3,372 			"/>
			<polygon id="_x31_03" class="st91" points="291.5,249.9 103.1,373.2 99.2,367.4 			"/>
			<polygon id="_x31_04" class="st92" points="291.5,249.9 100,368.6 96.3,362.7 			"/>
			<polygon id="_x31_05" class="st93" points="291.5,249.9 97,363.8 93.5,357.9 			"/>
			<polygon id="_x31_06" class="st94" points="291.5,249.9 94.2,359 90.8,353 			"/>
			<polygon id="_x31_07" class="st95" points="291.5,249.9 91.5,354.2 88.3,348 			"/>
			<polygon id="_x31_08" class="st96" points="291.5,249.9 88.9,349.3 85.9,343 			"/>
			<polygon id="_x31_09" class="st97" points="291.5,249.9 86.5,344.2 83.5,338 			"/>
			<polygon id="_x31_10" class="st98" points="291.5,249.9 84.2,339.2 81.3,332.9 			"/>
			<polygon id="_x31_11" class="st99" points="291.5,249.9 81.9,334.2 79.3,327.7 			"/>
			<polygon id="_x31_12" class="st100" points="291.5,249.9 79.8,329 77.4,322.5 			"/>
			<polygon id="_x31_13" class="st100" points="291.5,249.9 77.9,323.8 75.6,317.2 			"/>
			<polygon id="_x31_14" class="st101" points="291.5,249.9 76,318.5 73.9,312 			"/>
			<polygon id="_x31_15" class="st102" points="291.5,249.9 74.3,313.3 72.3,306.7 			"/>
			<polygon id="_x31_16" class="st103" points="291.5,249.9 72.8,308 70.9,301.3 			"/>
			<polygon id="_x31_17" class="st104" points="291.5,249.9 71.3,302.6 69.7,295.9 			"/>
			<polygon id="_x31_18" class="st105" points="291.5,249.9 70,297.2 68.5,290.5 			"/>
			<polygon id="_x31_19" class="st106" points="291.5,249.9 68.8,291.8 67.5,285.1 			"/>
			<polygon id="_x31_20" class="st107" points="291.5,249.9 67.7,286.4 66.7,279.6 			"/>
			<polygon id="_x31_21" class="st108" points="291.5,249.9 66.9,281 65.9,274.1 			"/>
			<polygon id="_x31_22" class="st109" points="291.5,249.9 66.1,275.5 65.3,268.6 			"/>
			<polygon id="_x31_23" class="st110" points="291.5,249.9 65.4,269.9 64.9,263.1 			"/>
			<polygon id="_x31_24" class="st111" points="291.5,249.9 64.9,264.5 64.5,257.6 			"/>
			<polygon id="_x31_25" class="st112" points="291.5,249.9 64.6,258.9 64.3,252.1 			"/>
			<polygon id="_x31_26" class="st113" points="291.5,249.9 64.4,253.5 64.3,246.5 			"/>
			<polygon id="_x31_27" class="st113" points="291.5,249.9 64.3,247.9 64.4,241 			"/>
			<polygon id="_x31_28" class="st114" points="291.5,249.9 64.4,242.4 64.6,235.5 			"/>
			<polygon id="_x31_29" class="st115" points="291.5,249.9 64.5,236.9 64.9,230 			"/>
			<polygon id="_x31_30" class="st116" points="291.5,249.9 64.9,231.4 65.4,224.5 			"/>
			<polygon id="_x31_31" class="st117" points="291.5,249.9 65.3,225.9 66,219 			"/>
			<polygon id="_x31_32" class="st118" points="291.5,249.9 65.9,220.4 66.8,213.6 			"/>
			<polygon id="_x31_33" class="st119" points="291.5,249.9 66.6,214.9 67.7,208.2 			"/>
			<polygon id="_x31_34" class="st120" points="291.5,249.9 67.4,209.5 68.7,202.7 			"/>
			<polygon id="_x31_35" class="st121" points="291.5,249.9 68.5,204.1 69.9,197.4 			"/>
			<polygon id="_x31_36" class="st122" points="291.5,249.9 69.6,198.7 71.2,192 			"/>
			<polygon id="_x31_37" class="st123" points="291.5,249.9 70.9,193.3 72.6,186.6 			"/>
			<polygon id="_x31_38" class="st124" points="291.5,249.9 72.3,188 74.2,181.4 			"/>
			<polygon id="_x31_39" class="st125" points="291.5,249.9 73.8,182.7 75.9,176.1 			"/>
			<polygon id="_x31_40" class="st126" points="291.5,249.9 75.4,177.5 77.7,170.9 			"/>
			<polygon id="_x31_41" class="st126" points="291.5,249.9 77.2,172.2 79.7,165.8 			"/>
			<polygon id="_x31_42" class="st127" points="291.5,249.9 79.2,167.1 81.8,160.7 			"/>
			<polygon id="_x31_43" class="st128" points="291.5,249.9 81.3,162 83.9,155.7 			"/>
			<polygon id="_x31_44" class="st129" points="291.5,249.9 83.4,157 86.3,150.7 			"/>
			<polygon id="_x31_45" class="st130" points="291.5,249.9 85.7,151.9 88.8,145.7 			"/>
			<polygon id="_x31_46" class="st131" points="291.5,249.9 88.2,147 91.4,140.9 			"/>
			<polygon id="_x31_47" class="st132" points="291.5,249.9 90.7,142.1 94,136.1 			"/>
			<polygon id="_x31_48" class="st133" points="291.5,249.9 93.4,137.3 96.8,131.4 			"/>
			<polygon id="_x31_49" class="st134" points="291.5,249.9 96.2,132.6 99.8,126.7 			"/>
			<polygon id="_x31_50" class="st135" points="291.5,249.9 99.1,127.9 102.9,122.1 			"/>
			<polygon id="_x31_51" class="st136" points="291.5,249.9 102.1,123.3 106,117.7 			"/>
			<polygon id="_x31_52" class="st137" points="291.5,249.9 105.2,118.8 109.3,113.2 			"/>
			<polygon id="_x31_53" class="st138" points="291.5,249.9 108.5,114.4 112.7,108.9 			"/>
			<polygon id="_x31_54" class="st139" points="291.5,249.9 111.9,110 116.2,104.6 			"/>
			<polygon id="_x31_55" class="st139" points="291.5,249.9 115.3,105.7 119.8,100.5 			"/>
			<polygon id="_x31_56" class="st140" points="291.5,249.9 118.9,101.5 123.5,96.4 			"/>
			<polygon id="_x31_57" class="st141" points="291.5,249.9 122.5,97.4 127.3,92.4 			"/>
			<polygon id="_x31_58" class="st142" points="291.5,249.9 126.3,93.4 131.2,88.5 			"/>
			<polygon id="_x31_59" class="st143" points="291.5,249.9 130.2,89.5 135.2,84.7 			"/>
			<polygon id="_x31_60" class="st144" points="291.5,249.9 134.2,85.6 139.3,81 			"/>
			<polygon id="_x31_61" class="st144" points="291.5,249.9 138.3,82 143.5,77.4 			"/>
			<polygon id="_x31_62" class="st145" points="291.5,249.9 142.4,78.4 147.7,74 			"/>
			<polygon id="_x31_63" class="st146" points="291.5,249.9 146.7,74.8 152.1,70.6 			"/>
			<polygon id="_x31_64" class="st147" points="291.5,249.9 151,71.4 156.6,67.3 			"/>
			<polygon id="_x31_65" class="st148" points="291.5,249.9 155.4,68.1 161.1,64.1 			"/>
			<polygon id="_x31_66" class="st149" points="291.5,249.9 160,64.9 165.7,61.1 			"/>
			<polygon id="_x31_67" class="st150" points="291.5,249.9 164.6,61.8 170.4,58.1 			"/>
			<polygon id="_x31_68" class="st150" points="291.5,249.9 169.2,58.8 175.2,55.3 			"/>
			<polygon id="_x31_69" class="st151" points="291.5,249.9 173.9,56 180,52.6 			"/>
			<polygon id="_x31_70" class="st152" points="291.5,249.9 178.8,53.2 184.9,50 			"/>
			<polygon id="_x31_71" class="st153" points="291.5,249.9 183.7,50.6 189.8,47.5 			"/>
			<polygon id="_x31_72" class="st154" points="291.5,249.9 188.6,48.1 194.8,45.2 			"/>
			<polygon id="_x31_73" class="st155" points="291.5,249.9 193.6,45.7 199.9,42.9 			"/>
			<polygon id="_x31_74" class="st156" points="291.5,249.9 198.6,43.5 205,40.8 			"/>
			<polygon id="_x31_75" class="st156" points="291.5,249.9 203.7,41.4 210.2,38.9 			"/>
			<polygon id="_x31_76" class="st157" points="291.5,249.9 208.9,39.4 215.5,37 			"/>
			<polygon id="_x31_77" class="st158" points="291.5,249.9 214.1,37.5 220.7,35.3 			"/>
			<polygon id="_x31_78" class="st159" points="291.5,249.9 219.4,35.7 226.1,33.7 			"/>
			<polygon id="_x31_79" class="st160" points="291.5,249.9 224.7,34.1 231.4,32.3 			"/>
			<polygon id="_x31_80" class="st161" points="291.5,249.9 230.1,32.6 236.8,31 			"/>
			<polygon id="_x31_81" class="st162" points="291.5,249.9 235.4,31.3 242.3,29.8 			"/>
			<polygon id="_x31_82" class="st162" points="291.5,249.9 240.9,30 247.7,28.7 			"/>
			<polygon id="_x31_83" class="st163" points="291.5,249.9 246.3,29 253.2,27.7 			"/>
			<polygon id="_x31_84" class="st164" points="291.5,249.9 251.8,28 258.7,26.9 			"/>
			<polygon id="_x31_85" class="st165" points="291.5,249.9 257.3,27.2 264.2,26.3 			"/>
			<polygon id="_x31_86" class="st166" points="291.5,249.9 262.9,26.5 269.8,25.8 			"/>
			<polygon id="_x31_87" class="st167" points="291.5,249.9 268.4,25.9 275.3,25.4 			"/>
			<polygon id="_x31_88" class="st168" points="291.5,249.9 273.9,25.5 280.9,25.1 			"/>
			<polygon id="_x31_89" class="st168" points="291.5,249.9 279.5,25.2 286.5,25 			"/>
			<polygon id="_x31_90" class="st169" points="291.5,249.9 285.1,25.1 292,25.1 			"/>
			<polygon id="_x31_91" class="st170" points="291.5,249.9 290.6,25.1 297.6,25.2 			"/>
			<polygon id="_x31_92" class="st171" points="291.5,249.9 296.2,25.1 303.2,25.5 			"/>
			<polygon id="_x31_93" class="st172" points="291.5,249.9 301.8,25.4 308.8,25.9 			"/>
			<polygon id="_x31_94" class="st173" points="291.5,249.9 307.4,25.8 314.3,26.4 			"/>
			<polygon id="_x31_95" class="st174" points="291.5,249.9 312.9,26.4 319.9,27.2 			"/>
			<polygon id="_x31_96" class="st174" points="291.5,249.9 318.4,27 325.4,28 			"/>
			<polygon id="_x31_97" class="st175" points="291.5,249.9 324,27.8 330.9,29 			"/>
			<polygon id="_x31_98" class="st176" points="291.5,249.9 329.5,28.7 336.4,30 			"/>
			<polygon id="_x31_99" class="st177" points="291.5,249.9 335,29.8 341.8,31.3 			"/>
			<polygon id="_x32_00" class="st178" points="291.5,249.9 340.5,31 347.2,32.6 			"/>
			<polygon id="_x32_01" class="st179" points="291.5,249.9 345.9,32.3 352.6,34.1 			"/>
			<polygon id="_x32_02" class="st180" points="291.5,249.9 351.3,33.7 358,35.7 			"/>
			<polygon id="_x32_03" class="st180" points="291.5,249.9 356.7,35.3 363.3,37.5 			"/>
			<polygon id="_x32_04" class="st181" points="291.5,249.9 362,37 368.6,39.3 			"/>
			<polygon id="_x32_05" class="st182" points="291.5,249.9 367.3,38.9 373.8,41.3 			"/>
			<polygon id="_x32_06" class="st183" points="291.5,249.9 372.5,40.8 379,43.5 			"/>
			<polygon id="_x32_07" class="st184" points="291.5,249.9 377.7,42.9 384.1,45.7 			"/>
			<polygon id="_x32_08" class="st185" points="291.5,249.9 382.8,45.2 389.1,48.1 			"/>
			<polygon id="_x32_09" class="st186" points="291.5,249.9 387.9,47.5 394.2,50.6 			"/>
			<polygon id="_x32_10" class="st187" points="291.5,249.9 392.9,50 399.1,53.2 			"/>
			<polygon id="_x32_11" class="st188" points="291.5,249.9 397.9,52.6 404,56 			"/>
			<polygon id="_x32_12" class="st189" points="291.5,249.9 402.8,55.3 408.8,58.8 			"/>
			<polygon id="_x32_13" class="st190" points="291.5,249.9 407.6,58.1 413.6,61.8 			"/>
			<polygon id="_x32_14" class="st191" points="291.5,249.9 412.3,61.1 418.2,64.9 			"/>
			<polygon id="_x32_15" class="st192" points="291.5,249.9 417,64.1 422.8,68.1 			"/>
			<polygon id="_x32_16" class="st193" points="291.5,249.9 421.6,67.3 427.3,71.4 			"/>
			<polygon id="_x32_17" class="st193" points="291.5,249.9 426.2,70.5 431.8,74.8 			"/>
			<polygon id="_x32_18" class="st194" points="291.5,249.9 430.6,73.9 436.1,78.3 			"/>
			<polygon id="_x32_19" class="st195" points="291.5,249.9 435,77.4 440.3,81.9 			"/>
			<polygon id="_x32_20" class="st196" points="291.5,249.9 439.3,81 444.5,85.6 			"/>
			<polygon id="_x32_21" class="st197" points="291.5,249.9 443.5,84.7 448.6,89.4 			"/>
			<polygon id="_x32_22" class="st198" points="291.5,249.9 447.6,88.5 452.6,93.3 			"/>
			<polygon id="_x32_23" class="st198" points="291.5,249.9 451.6,92.4 456.5,97.4 			"/>
			<polygon id="_x32_24" class="st199" points="291.5,249.9 455.5,96.4 460.3,101.5 			"/>
			<polygon id="_x32_25" class="st200" points="291.5,249.9 459.3,100.5 464,105.6 			"/>
			<polygon id="_x32_26" class="st201" points="291.5,249.9 463,104.6 467.6,110 			"/>
			<polygon id="_x32_27" class="st202" points="291.5,249.9 466.6,108.9 471,114.3 			"/>
			<polygon id="_x32_28" class="st203" points="291.5,249.9 470.1,113.2 474.4,118.7 			"/>
			<polygon id="_x32_29" class="st204" points="291.5,249.9 473.5,117.6 477.6,123.3 			"/>
			<polygon id="_x32_30" class="st204" points="291.5,249.9 476.8,122.1 480.7,127.9 			"/>
			<polygon id="_x32_31" class="st205" points="291.5,249.9 479.9,126.7 483.8,132.5 			"/>
			<polygon id="_x32_32" class="st206" points="291.5,249.9 483,131.3 486.7,137.2 			"/>
			<polygon id="_x32_33" class="st207" points="291.5,249.9 486,136.1 489.5,142.1 			"/>
			<polygon id="_x32_34" class="st208" points="291.5,249.9 488.8,140.9 492.2,147 			"/>
			<polygon id="_x32_35" class="st209" points="291.5,249.9 491.5,145.7 494.8,151.9 			"/>
			<polygon id="_x32_36" class="st210" points="291.5,249.9 494.1,150.6 497.1,156.9 			"/>
			<polygon id="_x32_37" class="st210" points="291.5,249.9 496.6,155.7 499.5,161.9 			"/>
			<polygon id="_x32_38" class="st211" points="291.5,249.9 498.9,160.7 501.7,167.1 			"/>
			<polygon id="_x32_39" class="st212" points="291.5,249.9 501.1,165.8 503.8,172.2 			"/>
			<polygon id="_x32_40" class="st213" points="291.5,249.9 503.2,170.9 505.6,177.4 			"/>
			<polygon id="_x32_41" class="st214" points="291.5,249.9 505.2,176.1 507.4,182.7 			"/>
			<polygon id="_x32_42" class="st215" points="291.5,249.9 507,181.4 509.2,187.9 			"/>
			<polygon id="_x32_43" class="st216" points="291.5,249.9 508.7,186.6 510.7,193.3 			"/>
			<polygon id="_x32_44" class="st216" points="291.5,249.9 510.3,192 512.1,198.7 			"/>
			<polygon id="_x32_45" class="st217" points="291.5,249.9 511.8,197.3 513.3,204 			"/>
			<polygon id="_x32_46" class="st218" points="291.5,249.9 513.1,202.7 514.5,209.5 			"/>
			<polygon id="_x32_47" class="st219" points="291.5,249.9 514.2,208.1 515.5,214.9 			"/>
			<polygon id="_x32_48" class="st220" points="291.5,249.9 515.3,213.5 516.4,220.3 			"/>
			<polygon id="_x32_49" class="st221" points="291.5,249.9 516.2,219 517.2,225.8 			"/>
			<polygon id="_x32_50" class="st222" points="291.5,249.9 516.9,224.4 517.7,231.4 			"/>
			<polygon id="_x32_51" class="st222" points="291.5,249.9 517.6,230 518.2,236.8 			"/>
			<polygon id="_x32_52" class="st223" points="291.5,249.9 518.1,235.5 518.5,242.4 			"/>
			<polygon id="_x32_53" class="st224" points="291.5,249.9 518.5,241 518.7,247.8 			"/>
			<polygon id="_x32_54" class="st225" points="291.5,249.9 518.7,246.5 518.7,253.4 			"/>
			<polygon id="_x32_55" class="st226" points="291.5,249.9 518.7,252 518.7,257.6 			"/>
		</g>
	</g>
</g>
</svg>
