<?xml version="1.0" encoding="utf-8"?>
<!-- Generator: Adobe Illustrator 19.0.0, SVG Export Plug-In . SVG Version: 6.00 Build 0)  -->
<svg version="1.1" id="Layer_1" xmlns="http://www.w3.org/2000/svg" xmlns:xlink="http://www.w3.org/1999/xlink" x="0px" y="0px"
	 viewBox="-58 28 382 446" style="enable-background:new -58 28 382 446;" xml:space="preserve">
<style type="text/css">
	.st0{fill:#0667D0;}
</style>
<g id="layer101">
	<path class="st0" d="M132,435.5c-41.7-5.9-74.2-21.5-101-48.4c-14.6-14.7-22.6-25.8-31-43.4c-13-27.2-18-50.9-18-85.5
		c0-32.9,5.2-57.2,17.6-83.2c28.9-60.4,88.9-95.9,162-96c30.7,0,56.8,5.6,83,17.9l10.6,5.1l-3.6,4.7c-8.2,10.8-16,23.6-22.7,36.9
		l-7.1,14.1l-8.6-2.8c-16.6-5.3-24.2-6.4-43.7-6.4c-19.4,0-28.4,1.4-42,6.2C84.6,170.1,60,207.6,60,257.7c0,21.2,3.4,37.1,11.5,53.8
		c14.7,30.5,42.2,49.8,79.4,56c20.4,3.4,50.7,0.6,69-6.4c3-1.1,5.6-2,5.7-1.8c0,0.1,2.2,4.3,4.8,9.2c5.8,11.4,16.5,27.9,23.9,36.9
		c3.1,3.8,5.7,7.2,5.7,7.6c0,0.9-17.6,9.2-26.5,12.5c-8.4,3.1-22.8,6.9-35,9.1C186.2,436.9,145.3,437.4,132,435.5z"/>
</g>
</svg>
