<!DOCTYPE svg PUBLIC "-//W3C//DTD SVG 20010904//EN" "http://www.w3.org/TR/2001/REC-SVG-20010904/DTD/svg10.dtd">
<svg version="1.0" xmlns="http://www.w3.org/2000/svg" width="309px" height="318px" viewBox="0 0 3090 3180" preserveAspectRatio="xMidYMid meet">
<g id="layer101" fill="#10dfda" stroke="none">
 <path d="M0 1590 l0 -1590 1545 0 1545 0 0 1590 0 1590 -1545 0 -1545 0 0 -1590z"/>
 </g>
<g id="layer102" fill="#19e3d6" stroke="none">
 <path d="M0 1590 l0 -1590 1545 0 1545 0 0 1590 0 1590 -1545 0 -1545 0 0 -1590z m1660 1193 c0 -5 -5 -15 -10 -23 -8 -12 -10 -11 -10 8 0 12 5 22 10 22 6 0 10 -3 10 -7z m-182 -117 l-3 -114 -370 -441 -370 -441 -182 0 c-101 0 -183 3 -183 7 0 10 1093 1103 1103 1103 4 0 6 -51 5 -114z m-929 -1218 c-29 -35 -56 -66 -59 -70 -3 -4 -37 24 -75 62 l-69 70 128 0 128 0 -53 -62z"/>
 </g>
<g id="layer103" fill="#2feecc" stroke="none">
 <path d="M0 1590 l0 -1590 1545 0 1545 0 0 1590 0 1590 -1545 0 -1545 0 0 -1590z m1809 1051 l151 -159 -117 -140 c-132 -158 -127 -156 -173 -60 -28 56 -28 60 -30 265 -3 245 -3 253 8 253 5 0 77 -72 161 -159z m-331 -88 l-3 -238 -35 -57 c-19 -31 -135 -159 -256 -285 -177 -182 -234 -235 -285 -263 l-64 -35 -237 -3 c-131 -2 -238 0 -238 5 0 10 1102 1113 1113 1113 5 0 7 -107 5 -237z m116 -468 c16 -12 16 -16 5 -33 -51 -71 -465 -552 -475 -552 -22 0 -64 60 -64 92 0 26 31 62 223 256 122 125 231 232 242 238 27 16 47 16 69 -1z m-785 -576 c65 -21 122 -52 167 -92 24 -21 44 -42 44 -47 0 -7 -195 -247 -231 -285 -6 -6 -89 70 -224 205 l-215 215 122 5 c225 11 301 10 337 -1z"/>
 </g>
<g id="layer104" fill="#47f9c2" stroke="none">
 <path d="M0 1590 l0 -1590 1545 0 1545 0 0 1590 0 1590 -1545 0 -1545 0 0 -1590z m1960 903 c168 -170 341 -345 384 -389 l78 -82 -118 -140 -118 -140 -106 98 c-58 54 -173 167 -256 252 -188 191 -182 175 -185 458 -2 239 -1 250 9 250 4 0 144 -138 312 -307z m-482 60 c-3 -232 -4 -239 -28 -285 -15 -28 -120 -144 -257 -285 -186 -193 -243 -246 -295 -274 l-63 -34 -237 -3 c-131 -2 -238 0 -238 5 0 10 1102 1113 1113 1113 5 0 7 -107 5 -237z m342 -680 c145 -144 232 -238 236 -254 4 -21 -5 -38 -50 -92 -31 -36 -56 -69 -56 -74 0 -4 -78 -85 -172 -180 -130 -129 -181 -173 -205 -178 -32 -6 -39 0 -215 170 -101 98 -209 204 -241 236 -92 92 -97 82 181 363 199 201 238 236 263 236 25 0 65 -35 259 -227z m-975 -374 c66 -20 72 -25 304 -248 229 -221 311 -315 311 -356 0 -15 -143 -198 -211 -270 -6 -6 -174 155 -454 435 l-445 445 122 5 c264 12 302 11 373 -11z"/>
 </g>
<g id="layer105" fill="#ffffff" stroke="none">
 <path d="M0 1590 l0 -1590 1545 0 1545 0 0 1590 0 1590 -1545 0 -1545 0 0 -1590z m2214 651 c490 -490 555 -559 535 -563 -13 -3 -110 -6 -215 -7 -168 -1 -198 1 -260 20 l-69 21 -258 256 c-175 175 -265 271 -280 302 -20 41 -22 64 -27 265 -6 216 -4 265 9 265 3 0 257 -251 565 -559z m-736 312 c-3 -232 -4 -239 -28 -285 -15 -28 -120 -144 -257 -285 -186 -193 -243 -246 -295 -274 l-63 -34 -237 -3 c-131 -2 -238 0 -238 5 0 10 1102 1113 1113 1113 5 0 7 -107 5 -237z m346 -683 c243 -240 258 -259 231 -310 -8 -14 -114 -125 -237 -247 -186 -185 -229 -223 -252 -223 -23 0 -62 33 -210 176 -310 302 -298 288 -294 328 3 31 32 64 236 270 199 201 238 236 263 236 25 0 66 -36 263 -230z m-979 -371 c66 -20 72 -25 300 -245 354 -340 338 -312 343 -612 2 -118 1 -225 -3 -240 -6 -24 -46 14 -571 539 l-564 564 122 5 c264 12 302 11 373 -11z m1922 13 c8 -5 -176 -197 -552 -572 -519 -518 -564 -562 -570 -538 -4 14 -5 124 -3 244 4 292 -14 258 305 577 316 314 280 296 588 297 121 0 225 -4 232 -8z"/>
 </g>

</svg>