<!DOCTYPE svg PUBLIC "-//W3C//DTD SVG 20010904//EN" "http://www.w3.org/TR/2001/REC-SVG-20010904/DTD/svg10.dtd">
<svg version="1.0" xmlns="http://www.w3.org/2000/svg" width="294px" height="272px" viewBox="0 0 2940 2720" preserveAspectRatio="xMidYMid meet">
<g id="layer101" fill="#3b7bfd" stroke="none">
 <path d="M0 1360 l0 -1360 1470 0 1470 0 0 1360 0 1360 -1470 0 -1470 0 0 -1360z"/>
 </g>
<g id="layer102" fill="#ffffff" stroke="none">
 <path d="M0 1360 l0 -1360 1470 0 1470 0 0 1360 0 1360 -1470 0 -1470 0 0 -1360z m1596 1184 c44 -15 98 -65 550 -518 552 -552 534 -530 534 -655 -1 -106 0 -106 -538 -644 -448 -448 -502 -499 -550 -517 -64 -24 -111 -25 -183 -4 -52 15 -73 35 -552 512 -339 339 -504 510 -518 539 -30 62 -35 139 -14 204 16 51 47 84 514 553 391 393 507 503 546 522 60 29 139 32 211 8z"/>
 <path d="M1190 1879 c-32 -13 -78 -56 -96 -91 -20 -39 -21 -773 0 -821 17 -42 66 -83 114 -97 21 -5 148 -10 297 -10 231 0 265 3 300 19 73 33 115 104 115 193 0 35 -2 37 -91 87 -51 28 -93 51 -95 51 -2 0 -4 -31 -4 -68 0 -40 -5 -73 -12 -80 -14 -14 -414 -17 -436 -4 -9 7 -12 78 -10 323 l3 314 214 3 c149 2 218 -1 227 -9 11 -9 14 -50 14 -185 l0 -173 90 -50 c49 -28 92 -51 95 -51 4 0 5 121 3 268 l-3 269 -28 42 c-51 77 -70 81 -392 80 -161 0 -291 -4 -305 -10z"/>
 </g>

</svg>