<?xml version="1.0" encoding="utf-8"?>
<!-- Generator: Adobe Illustrator 19.0.0, SVG Export Plug-In . SVG Version: 6.00 Build 0)  -->
<svg version="1.1" id="Layer_1" xmlns="http://www.w3.org/2000/svg" xmlns:xlink="http://www.w3.org/1999/xlink" x="0px" y="0px"
	 viewBox="-189 234 31.9 33" style="enable-background:new -189 234 31.9 33;" xml:space="preserve">
<style type="text/css">
	.st0{fill:url(#SVGID_1_);}
</style>
<g>
	
		<linearGradient id="SVGID_1_" gradientUnits="userSpaceOnUse" x1="-371.0804" y1="493.4252" x2="-372.0804" y2="493.4252" gradientTransform="matrix(31.928 0 0 -32.934 11690.7842 16500.9336)">
		<stop  offset="0" style="stop-color:#22E6B8"/>
		<stop  offset="1" style="stop-color:#00C1CE"/>
	</linearGradient>
	<path class="st0" d="M-167.6,246.2c-2.6-2.5-6.7-2.5-9.2,0c-2.5,2.5-2.5,6.6,0,9.2c2.5,2.5,6.7,2.6,9.2,0c0,0,0.2-0.2,0.5-0.6
		l-3.1-3c-0.3,0.4-0.5,0.6-0.5,0.6c-0.9,0.9-2.3,0.9-3.1,0c-0.9-0.9-0.9-2.3,0-3.1c0.8-0.8,2.2-0.8,3.1,0l8.2,8.1
		c-2.2,3.2-6,5.3-10.1,5.3c-6.7,0-12.2-5.5-12.2-12.2s5.5-12.2,12.2-12.2c3.9,0,7.5,1.9,9.8,4.9c-0.4,0.4-1.3,1.5-2.8,3.1l3,3l5-5.6
		c-2.6-5.9-8.5-9.7-15-9.7c-9.1,0-16.5,7.4-16.5,16.5s7.4,16.5,16.5,16.5c4.1,0,7.6-1.3,10.9-4.1c3.1-2.6,4.5-6.2,4.5-6.2
		L-167.6,246.2z"/>
</g>
</svg>
