<!DOCTYPE svg PUBLIC "-//W3C//DTD SVG 20010904//EN" "http://www.w3.org/TR/2001/REC-SVG-20010904/DTD/svg10.dtd">
<svg version="1.0" xmlns="http://www.w3.org/2000/svg" width="217px" height="217px" viewBox="0 0 2170 2170" preserveAspectRatio="xMidYMid meet">
<g id="layer101" fill="#fec908" stroke="none">
 <path d="M329 1971 l-29 -29 0 -857 0 -857 29 -29 29 -29 147 0 147 0 29 29 c25 25 29 37 29 81 0 44 -4 56 -29 81 -27 26 -36 29 -95 29 l-66 0 0 695 0 695 66 0 c59 0 68 3 95 29 25 25 29 37 29 81 0 44 -4 56 -29 81 l-29 29 -147 0 -147 0 -29 -29z"/>
 <path d="M879 1971 c-25 -25 -29 -37 -29 -81 0 -43 5 -56 28 -80 24 -23 40 -29 98 -35 164 -15 269 -51 376 -128 386 -275 386 -849 0 -1124 -107 -77 -212 -113 -376 -128 -58 -6 -74 -12 -98 -35 -23 -24 -28 -37 -28 -80 0 -44 4 -56 29 -81 28 -27 34 -29 115 -29 222 0 442 95 611 265 128 128 214 285 249 457 21 100 21 286 0 386 -84 409 -457 722 -860 722 -81 0 -87 -2 -115 -29z"/>
 </g>

</svg>