<!DOCTYPE svg PUBLIC "-//W3C//DTD SVG 20010904//EN" "http://www.w3.org/TR/2001/REC-SVG-20010904/DTD/svg10.dtd">
<svg version="1.0" xmlns="http://www.w3.org/2000/svg" width="399px" height="399px" viewBox="0 0 3990 3990" preserveAspectRatio="xMidYMid meet">
<g id="layer101" fill="#131313" stroke="none">
 <path d="M0 1995 l0 -1995 1995 0 1995 0 0 1995 0 1995 -1995 0 -1995 0 0 -1995z"/>
 </g>
<g id="layer102" fill="#08172c" stroke="none">
 <path d="M0 1995 l0 -1995 1995 0 1995 0 0 1995 0 1995 -1995 0 -1995 0 0 -1995z m3220 761 c52 -4 122 -8 155 -11 33 -3 110 -7 170 -10 139 -7 303 -17 335 -20 28 -3 28 -20 0 -50 -11 -11 -37 -38 -58 -60 -22 -23 -46 -55 -55 -72 -9 -17 -23 -33 -32 -36 -8 -4 -15 -12 -15 -18 0 -7 -7 -19 -15 -28 -27 -28 -65 -79 -65 -85 0 -8 -15 -27 -50 -65 -14 -15 -45 -54 -69 -87 -25 -32 -66 -84 -93 -115 -26 -30 -48 -60 -48 -66 0 -6 -11 -18 -24 -26 -13 -9 -45 -47 -70 -84 -74 -109 -74 -109 -90 -93 -7 8 -67 119 -131 245 -231 453 -308 601 -336 652 -17 29 -25 53 -19 55 9 3 218 -8 510 -26z"/>
 <path d="M3364 2068 c-4 -7 -3 -8 4 -4 12 7 16 16 8 16 -3 0 -8 -5 -12 -12z"/>
 </g>
<g id="layer103" fill="#323433" stroke="none">
 <path d="M0 1995 l0 -1995 1995 0 1995 0 0 1995 0 1995 -1995 0 -1995 0 0 -1995z m3220 761 c52 -4 122 -8 155 -11 33 -2 105 -7 160 -9 157 -8 371 -22 387 -25 9 -1 -21 -61 -31 -61 -5 0 -35 -34 -67 -76 -33 -42 -65 -82 -71 -89 -14 -15 -103 -127 -182 -229 -30 -38 -60 -76 -67 -85 -16 -20 -117 -147 -218 -274 -43 -54 -79 -97 -81 -95 -1 2 -62 120 -135 263 -228 447 -311 608 -341 662 -17 29 -25 53 -19 55 9 3 218 -8 510 -26z"/>
 </g>
<g id="layer104" fill="#1f3651" stroke="none">
 <path d="M0 1995 l0 -1995 1995 0 1995 0 0 1995 0 1995 -1995 0 -1995 0 0 -1995z m2510 1555 c278 -144 427 -222 770 -400 140 -73 320 -166 400 -208 163 -84 175 -92 139 -92 -40 0 -1035 59 -1116 66 l-73 6 -121 237 c-67 130 -155 300 -195 377 -41 78 -74 145 -74 148 0 4 8 3 18 -2 9 -6 123 -65 252 -132z m-2081 -650 l96 0 -92 -56 -93 -55 0 -62 -1 -62 -29 35 c-17 19 -30 40 -30 46 0 7 -6 14 -14 17 -8 3 -22 23 -32 43 -10 20 -34 53 -53 72 l-35 35 94 -6 c51 -4 136 -7 189 -7z m2901 -151 c305 -16 565 -32 577 -35 20 -4 21 -5 7 -34 -9 -16 -19 -30 -23 -30 -5 0 -35 -34 -67 -76 -33 -42 -65 -82 -71 -89 -14 -15 -103 -127 -182 -229 -30 -38 -60 -76 -67 -85 -16 -20 -117 -147 -218 -274 -53 -67 -82 -95 -90 -89 -14 12 -295 5 -310 -7 -13 -11 -317 -19 -332 -9 -6 4 -42 1 -80 -7 -38 -8 -116 -15 -174 -15 -58 -1 -135 -4 -172 -8 -62 -7 -66 -7 -57 10 5 9 94 151 197 315 104 164 191 305 195 314 3 10 58 101 122 203 l116 186 37 -5 c20 -2 287 -19 592 -36z m-2511 -256 c-7 -10 -35 -41 -62 -69 -42 -44 -48 -56 -43 -80 4 -16 8 -38 10 -49 2 -11 8 -29 12 -40 6 -14 -8 -7 -43 23 -28 23 -56 42 -62 42 -6 0 -11 7 -11 16 0 19 -68 85 -94 90 -36 7 -27 12 51 29 43 9 112 25 153 35 101 24 106 24 89 3z m411 -315 c-68 -115 -66 -109 -32 -172 32 -60 30 -68 -10 -37 -13 11 -38 23 -54 27 -16 4 -35 14 -43 21 -7 8 -26 17 -42 20 -32 6 -35 13 -17 31 9 9 9 12 -3 12 -8 0 -19 -4 -25 -10 -5 -5 -19 -7 -31 -4 -17 5 9 22 115 76 75 39 141 75 147 79 25 23 22 4 -5 -43z m490 -186 c-26 -95 -25 -108 10 -149 17 -18 30 -38 30 -43 0 -13 -33 -13 -45 -1 -6 6 -58 18 -117 27 l-107 17 82 77 c123 115 162 149 164 146 2 -1 -6 -35 -17 -74z"/>
 <path d="M255 2830 c3 -5 8 -10 11 -10 2 0 4 5 4 10 0 6 -5 10 -11 10 -5 0 -7 -4 -4 -10z"/>
 <path d="M1546 1882 c-3 -6 -1 -14 5 -17 14 -9 20 -2 10 14 -6 8 -11 9 -15 3z"/>
 </g>
<g id="layer105" fill="#0f59b4" stroke="none">
 <path d="M0 1995 l0 -1995 1995 0 1995 0 0 1995 0 1995 -1995 0 -1995 0 0 -1995z m2510 1555 c278 -144 427 -222 770 -400 140 -73 320 -166 400 -208 163 -84 175 -92 139 -92 -40 0 -1035 59 -1116 66 l-73 6 -121 237 c-67 130 -155 300 -195 377 -41 78 -74 145 -74 148 0 4 8 3 18 -2 9 -6 123 -65 252 -132z m-2081 -650 l96 0 -92 -56 -93 -55 0 -82 0 -82 -20 25 c-11 14 -47 68 -80 120 -33 52 -68 106 -77 119 l-18 24 94 -6 c52 -4 137 -7 190 -7z m2901 -151 c564 -31 600 -34 600 -47 0 -4 -55 -75 -123 -159 -67 -83 -143 -178 -168 -210 -25 -32 -130 -165 -234 -295 l-188 -237 -51 -5 c-28 -3 -112 -8 -186 -11 -74 -3 -180 -8 -235 -11 -330 -15 -506 -25 -596 -30 l-101 -7 27 44 c16 24 108 170 205 324 97 154 179 287 183 296 3 10 58 101 122 203 l116 186 37 -5 c20 -2 287 -19 592 -36z m-2511 -256 c-7 -10 -35 -41 -62 -70 l-50 -51 18 -72 c10 -39 15 -73 13 -75 -3 -3 -58 43 -123 102 -73 67 -112 109 -104 112 22 7 292 69 308 70 11 1 11 -2 0 -16z m411 -315 c-69 -117 -67 -108 -26 -182 20 -37 36 -68 36 -70 0 -4 -253 123 -282 141 -5 2 54 36 130 75 75 39 141 75 147 79 25 23 22 4 -5 -43z m490 -186 c-11 -39 -20 -81 -20 -93 0 -11 21 -46 47 -76 l47 -55 -40 7 c-21 4 -64 13 -94 20 -30 7 -81 18 -113 25 -32 7 -56 17 -55 21 4 10 242 229 245 225 2 -1 -6 -35 -17 -74z"/>
 </g>
<g id="layer106" fill="#27589f" stroke="none">
 <path d="M0 1995 l0 -1995 1995 0 1995 0 0 1995 0 1995 -1995 0 -1995 0 0 -1995z m2510 1555 c278 -144 427 -222 770 -400 140 -73 320 -166 400 -208 163 -84 175 -92 139 -92 -40 0 -1035 59 -1116 66 l-73 6 -121 237 c-67 130 -155 300 -195 377 -41 78 -74 145 -74 148 0 4 8 3 18 -2 9 -6 123 -65 252 -132z m-2081 -650 l96 0 -92 -56 -93 -55 0 -82 0 -82 -20 25 c-11 14 -47 68 -80 120 -33 52 -68 106 -77 119 l-18 24 94 -6 c52 -4 137 -7 190 -7z m2909 -152 c315 -18 578 -36 585 -40 8 -5 7 -11 -2 -22 -10 -12 -10 -23 -1 -51 8 -25 9 -44 1 -67 -9 -28 -17 -162 -20 -317 -1 -32 -2 -33 -14 -17 -8 10 -12 30 -11 45 2 14 8 76 13 136 6 61 13 131 17 158 6 41 4 47 -11 47 -14 0 -15 3 -5 15 7 8 10 15 7 15 -11 0 -152 -185 -149 -196 1 -6 -6 -18 -15 -25 -16 -13 -17 -12 -4 4 19 25 8 21 -15 -5 -10 -12 -13 -18 -6 -14 27 16 9 -16 -35 -61 -25 -26 -38 -37 -27 -23 l19 25 -22 -19 c-13 -10 -20 -22 -18 -26 7 -12 -5 -40 -17 -40 -6 0 -5 8 3 18 11 15 11 15 -1 4 -8 -7 -15 -20 -15 -30 0 -9 -5 -17 -12 -17 -6 0 -15 -4 -20 -9 -5 -5 -3 -6 5 -2 6 4 12 3 12 -1 0 -15 -31 -53 -42 -53 -6 0 -3 10 8 23 l19 22 -22 -19 c-12 -10 -21 -22 -20 -27 1 -5 -9 -19 -23 -31 -14 -13 -20 -19 -13 -14 10 6 12 4 7 -8 -3 -9 -9 -16 -13 -16 -4 0 -15 -16 -24 -35 -9 -19 -22 -35 -28 -35 -8 0 -7 6 2 18 11 14 9 13 -9 -2 -12 -11 -20 -21 -17 -24 7 -8 -21 -56 -46 -77 -18 -15 -20 -15 -10 -2 19 24 8 21 -15 -5 -10 -12 -13 -18 -6 -14 6 4 12 3 12 -2 0 -6 -7 -12 -15 -16 -8 -3 -15 -12 -15 -20 0 -8 -21 -32 -46 -55 -52 -45 -59 -47 -284 -56 -74 -3 -180 -8 -235 -11 -330 -15 -506 -25 -596 -30 l-101 -7 27 44 c16 24 108 170 205 324 97 154 179 287 183 296 3 10 58 101 122 203 116 185 117 187 148 182 18 -3 290 -20 605 -38z m542 -137 c0 -5 -6 -16 -13 -23 -6 -7 -30 -36 -51 -65 -22 -29 -46 -55 -53 -57 -7 -3 15 30 49 73 68 85 68 86 68 72z m20 -41 c0 -5 -4 -10 -10 -10 -5 0 -10 5 -10 10 0 6 5 10 10 10 6 0 10 -4 10 -10z m-3081 -77 c-7 -10 -35 -41 -62 -70 l-50 -51 18 -72 c10 -39 15 -73 13 -75 -3 -3 -58 43 -123 102 -73 67 -112 109 -104 112 22 7 292 69 308 70 11 1 11 -2 0 -16z m411 -315 c-69 -117 -67 -108 -26 -182 20 -37 36 -68 36 -70 0 -4 -253 123 -282 141 -5 2 54 36 130 75 75 39 141 75 147 79 25 23 22 4 -5 -43z m2662 -53 c-3 -5 -7 -41 -8 -80 -2 -106 -3 -115 -13 -115 -9 0 -7 95 5 210 7 60 8 62 15 30 4 -19 5 -39 1 -45z m-372 -35 c0 -5 -4 -10 -10 -10 -5 0 -10 5 -10 10 0 6 5 10 10 10 6 0 10 -4 10 -10z m-1800 -98 c-11 -39 -20 -81 -20 -93 0 -11 21 -46 47 -76 l47 -55 -40 7 c-21 4 -64 13 -94 20 -30 7 -81 18 -113 25 -32 7 -56 17 -55 21 4 10 242 229 245 225 2 -1 -6 -35 -17 -74z m2150 -164 c-1 -29 -4 -69 -6 -88 -16 -182 -21 -273 -17 -289 3 -11 0 -35 -6 -53 -6 -18 -13 -103 -16 -188 -2 -85 -9 -186 -15 -225 -5 -38 -10 -90 -9 -115 0 -25 -2 -72 -4 -105 -3 -33 -5 -69 -6 -80 -1 -14 -4 -16 -13 -7 -8 8 -9 21 -1 45 8 25 7 36 -4 46 -10 9 -11 16 -3 26 6 7 12 63 15 125 3 62 10 118 15 125 6 7 10 39 9 72 -3 66 5 211 21 388 6 66 13 165 16 220 6 117 13 169 21 161 4 -3 5 -30 3 -58z m-635 -37 c-3 -6 -11 -11 -17 -11 -6 0 -6 6 2 15 14 17 26 13 15 -4z"/>
 <path d="M3369 1993 c-13 -16 -12 -17 4 -4 16 13 21 21 13 21 -2 0 -10 -8 -17 -17z"/>
 <path d="M3284 1888 c-4 -7 -3 -8 4 -4 12 7 16 16 8 16 -3 0 -8 -5 -12 -12z"/>
 <path d="M3249 1843 c-13 -16 -12 -17 4 -4 16 13 21 21 13 21 -2 0 -10 -8 -17 -17z"/>
 </g>
<g id="layer107" fill="#015bcd" stroke="none">
 <path d="M0 1995 l0 -1995 1995 0 1995 0 0 1995 0 1995 -1995 0 -1995 0 0 -1995z m2510 1555 c278 -144 427 -222 770 -400 140 -73 320 -166 400 -208 163 -84 175 -92 139 -92 -40 0 -1035 59 -1116 66 l-73 6 -121 237 c-67 130 -155 300 -195 377 -41 78 -74 145 -74 148 0 4 8 3 18 -2 9 -6 123 -65 252 -132z m-2081 -650 l96 0 -92 -56 -93 -55 0 -92 0 -92 -58 95 c-31 53 -69 111 -83 130 -15 19 -32 46 -39 59 l-12 24 92 -6 c51 -4 136 -7 189 -7z m2901 -151 c305 -16 566 -33 579 -35 24 -5 24 -6 17 -97 -10 -136 -25 -369 -31 -477 -3 -52 -7 -115 -10 -140 -2 -25 -7 -83 -10 -130 -3 -47 -9 -143 -15 -215 -5 -71 -14 -204 -20 -295 -6 -91 -15 -219 -20 -285 -5 -66 -12 -173 -16 -238 -7 -131 -17 -184 -29 -155 -4 10 -3 30 3 46 7 20 6 31 -5 41 -10 9 -11 16 -3 26 6 7 12 63 15 125 3 62 10 118 15 125 6 7 10 39 9 72 -3 66 5 211 21 393 18 207 30 369 35 490 3 63 10 141 16 173 6 33 6 64 2 70 -5 7 -8 23 -7 37 2 14 7 75 13 135 5 61 13 131 17 158 6 40 4 47 -10 47 -9 0 -16 -4 -16 -9 0 -5 -6 -16 -12 -23 -7 -7 -25 -29 -40 -49 -15 -20 -45 -55 -67 -79 -23 -24 -41 -48 -41 -52 0 -4 -20 -29 -45 -55 -24 -26 -45 -51 -45 -54 0 -3 -11 -19 -25 -35 -14 -16 -25 -33 -25 -37 0 -4 -19 -27 -42 -51 -53 -54 -62 -65 -82 -104 -9 -18 -21 -32 -26 -32 -5 0 -21 -17 -34 -37 -13 -21 -38 -51 -55 -68 -17 -16 -31 -35 -31 -41 0 -5 -14 -23 -31 -40 -17 -16 -34 -37 -38 -47 -6 -15 -26 -18 -181 -22 -96 -3 -361 -14 -588 -26 -228 -11 -415 -19 -417 -17 -1 2 87 145 197 318 110 173 203 325 208 337 5 12 61 105 125 207 l116 186 37 -5 c20 -2 287 -19 592 -36z m570 -179 c0 -5 -4 -10 -10 -10 -5 0 -10 5 -10 10 0 6 5 10 10 10 6 0 10 -4 10 -10z m-3081 -77 c-7 -10 -35 -41 -62 -70 l-50 -51 18 -72 c10 -39 15 -73 13 -75 -3 -3 -58 43 -123 102 -73 67 -112 109 -104 112 22 7 292 69 308 70 11 1 11 -2 0 -16z m411 -315 c-69 -117 -67 -108 -26 -183 20 -37 36 -69 34 -70 -4 -4 -227 108 -279 140 -5 4 53 38 129 77 75 39 141 75 147 79 25 23 22 4 -5 -43z m2290 -88 c0 -5 -4 -10 -10 -10 -5 0 -10 5 -10 10 0 6 5 10 10 10 6 0 10 -4 10 -10z m-1800 -98 c-11 -39 -20 -81 -20 -93 0 -12 23 -48 51 -80 53 -61 53 -66 2 -48 -17 5 -82 20 -144 33 -63 13 -114 28 -114 33 0 11 237 235 242 229 2 -1 -6 -35 -17 -74z"/>
 </g>
<g id="layer108" fill="#7a7a7b" stroke="none">
 <path d="M0 1995 l0 -1995 1995 0 1995 0 0 1995 0 1995 -1995 0 -1995 0 0 -1995z m2510 1555 c278 -144 427 -222 770 -400 140 -73 320 -166 400 -208 163 -84 175 -92 139 -92 -40 0 -1035 59 -1116 66 l-73 6 -121 237 c-67 130 -155 300 -195 377 -41 78 -74 145 -74 148 0 4 8 3 18 -2 9 -6 123 -65 252 -132z m-2081 -650 l96 0 -92 -56 -93 -55 0 -92 0 -92 -58 95 c-31 53 -69 111 -83 130 -15 19 -32 46 -39 59 l-12 24 92 -6 c51 -4 136 -7 189 -7z m2901 -151 c305 -16 566 -33 579 -35 24 -5 24 -6 17 -97 -10 -136 -25 -369 -31 -477 -3 -52 -7 -115 -10 -140 -2 -25 -7 -83 -10 -130 -3 -47 -9 -143 -15 -215 -5 -71 -14 -204 -20 -295 -6 -91 -15 -219 -20 -285 -5 -66 -12 -173 -16 -238 -10 -193 -6 -194 -118 25 -150 293 -316 616 -400 778 l-75 145 -163 -3 c-90 -1 -349 -12 -576 -23 -228 -11 -415 -19 -417 -17 -1 2 87 145 197 318 110 173 203 325 208 337 5 12 61 105 125 207 l116 186 37 -5 c20 -2 287 -19 592 -36z m-2511 -256 c-7 -10 -35 -41 -62 -70 l-50 -51 18 -72 c10 -39 15 -73 13 -75 -3 -3 -58 43 -123 102 -73 67 -112 109 -104 112 22 7 292 69 308 70 11 1 11 -2 0 -16z m411 -315 c-69 -117 -67 -108 -26 -183 20 -37 36 -69 34 -70 -4 -4 -227 108 -279 140 -5 4 53 38 129 77 75 39 141 75 147 79 25 23 22 4 -5 -43z m490 -186 c-11 -39 -20 -81 -20 -93 0 -12 23 -48 51 -80 53 -61 53 -66 2 -48 -17 5 -82 20 -144 33 -63 13 -114 28 -114 33 0 11 237 235 242 229 2 -1 -6 -35 -17 -74z"/>
 </g>
<g id="layer109" fill="#818180" stroke="none">
 <path d="M0 1995 l0 -1995 1995 0 1995 0 0 1995 0 1995 -1995 0 -1995 0 0 -1995z m2715 1450 c33 -18 132 -69 220 -115 88 -45 219 -113 290 -150 72 -37 240 -125 375 -195 135 -70 249 -131 253 -135 5 -4 -11 -6 -35 -4 -42 4 -1016 61 -1133 66 l-60 3 -24 55 c-28 66 -40 82 -54 73 -6 -3 -7 -1 -3 5 10 16 -63 164 -76 156 -6 -4 -8 -2 -4 4 8 14 -108 244 -119 234 -5 -4 -5 -2 -1 5 3 6 -3 30 -15 53 -18 35 -23 39 -38 28 -14 -12 -14 -11 -3 4 12 15 9 26 -17 78 -17 33 -31 65 -31 71 0 9 251 -116 475 -236z m-1141 99 c3 -8 2 -12 -4 -9 -6 3 -10 10 -10 16 0 14 7 11 14 -7z m31 -2 c-3 -3 -11 0 -18 7 -9 10 -8 11 6 5 10 -3 15 -9 12 -12z m512 1 c-4 -3 -7 0 -7 7 0 7 3 10 7 7 3 -4 3 -10 0 -14z m-610 -10 c-4 -3 -10 -3 -14 0 -3 4 0 7 7 7 7 0 10 -3 7 -7z m-50 -28 c0 -8 -4 -12 -9 -9 -5 3 -6 10 -3 15 9 13 12 11 12 -6z m333 -9 c0 -3 -5 -8 -12 -12 -7 -4 -8 -3 -4 4 7 12 16 16 16 8z m-20 -34 c0 -5 -7 -9 -15 -9 -8 0 -12 4 -9 9 3 4 9 8 15 8 5 0 9 -4 9 -8z m-60 -36 c0 -3 -5 -8 -12 -12 -7 -4 -8 -3 -4 4 7 12 16 16 16 8z m30 0 c0 -3 -5 -8 -12 -12 -7 -4 -8 -3 -4 4 7 12 16 16 16 8z m350 0 c0 -2 -8 -10 -17 -17 -16 -13 -17 -12 -4 4 13 16 21 21 21 13z m-720 -10 c0 -2 -8 -10 -17 -17 -16 -13 -17 -12 -4 4 13 16 21 21 21 13z m294 -28 c-4 -5 -9 -7 -12 -4 -3 3 -12 0 -21 -7 -14 -10 -14 -10 -4 4 13 16 46 23 37 7z m31 2 c3 -5 4 -10 1 -10 -3 0 -8 5 -11 10 -3 6 -4 10 -1 10 3 0 8 -4 11 -10z m195 -4 c0 -3 -5 -8 -12 -12 -7 -4 -8 -3 -4 4 7 12 16 16 16 8z m-783 -13 c-4 -3 -10 -3 -14 0 -3 4 0 7 7 7 7 0 10 -3 7 -7z m128 -31 c-3 -3 -11 0 -18 7 -9 10 -8 11 6 5 10 -3 15 -9 12 -12z m815 14 c0 -3 -5 -8 -12 -12 -7 -4 -8 -3 -4 4 7 12 16 16 16 8z m-475 -26 c3 -5 4 -10 1 -10 -3 0 -8 5 -11 10 -3 6 -4 10 -1 10 3 0 8 -4 11 -10z m55 -4 c0 -3 -5 -8 -12 -12 -7 -4 -8 -3 -4 4 7 12 16 16 16 8z m-555 -56 c3 -5 4 -10 1 -10 -3 0 -8 5 -11 10 -3 6 -4 10 -1 10 3 0 8 -4 11 -10z m32 -17 c-4 -3 -10 -3 -14 0 -3 4 0 7 7 7 7 0 10 -3 7 -7z m388 -2 c-9 -8 -36 -10 -30 -2 2 4 11 8 20 8 8 0 13 -3 10 -6z m300 -1 c3 -5 4 -10 1 -10 -3 0 -8 5 -11 10 -3 6 -4 10 -1 10 3 0 8 -4 11 -10z m-351 -41 c-3 -5 -10 -7 -15 -3 -5 3 -7 10 -3 15 3 5 10 7 15 3 5 -3 7 -10 3 -15z m326 17 c0 -3 -5 -8 -12 -12 -7 -4 -8 -3 -4 4 7 12 16 16 16 8z m-1063 -13 c-4 -3 -10 -3 -14 0 -3 4 0 7 7 7 7 0 10 -3 7 -7z m788 -3 c3 -5 4 -10 1 -10 -3 0 -8 5 -11 10 -3 6 -4 10 -1 10 3 0 8 -4 11 -10z m-105 -14 c0 -3 -5 -8 -12 -12 -7 -4 -8 -3 -4 4 7 12 16 16 16 8z m395 -26 c3 -5 4 -10 1 -10 -3 0 -8 5 -11 10 -3 6 -4 10 -1 10 3 0 8 -4 11 -10z m-455 -14 c0 -2 -8 -10 -17 -17 -16 -13 -17 -12 -4 4 13 16 21 21 21 13z m405 -26 c3 -5 4 -10 1 -10 -3 0 -8 5 -11 10 -3 6 -4 10 -1 10 3 0 8 -4 11 -10z m-890 -20 c3 -5 4 -10 1 -10 -3 0 -8 5 -11 10 -3 6 -4 10 -1 10 3 0 8 -4 11 -10z m410 -20 c3 -5 4 -10 1 -10 -3 0 -8 5 -11 10 -3 6 -4 10 -1 10 3 0 8 -4 11 -10z m678 -41 c-8 -8 -13 -7 -18 2 -6 8 -4 10 5 4 10 -6 12 -4 6 11 -6 15 -5 17 5 7 9 -10 10 -16 2 -24z m-688 11 c3 -5 4 -10 1 -10 -3 0 -8 5 -11 10 -3 6 -4 10 -1 10 3 0 8 -4 11 -10z m402 3 c-4 -3 -10 -3 -14 0 -3 4 0 7 7 7 7 0 10 -3 7 -7z m47 -1 c3 -5 -1 -9 -9 -9 -8 0 -12 4 -9 9 3 4 7 8 9 8 2 0 6 -4 9 -8z m-1387 -9 c-4 -3 -10 -3 -14 0 -3 4 0 7 7 7 7 0 10 -3 7 -7z m463 3 c0 -3 -5 -8 -12 -12 -7 -4 -8 -3 -4 4 7 12 16 16 16 8z m1200 0 c0 -3 -5 -8 -12 -12 -7 -4 -8 -3 -4 4 7 12 16 16 16 8z m-663 -23 c-4 -3 -10 -3 -14 0 -3 4 0 7 7 7 7 0 10 -3 7 -7z m-136 -30 c12 -16 12 -17 -2 -6 -9 7 -20 9 -24 5 -5 -4 -5 -1 -1 6 9 16 11 15 27 -5z m779 13 c0 -3 -5 -8 -12 -12 -7 -4 -8 -3 -4 4 7 12 16 16 16 8z m-30 -30 c0 -3 -5 -8 -12 -12 -7 -4 -8 -3 -4 4 7 12 16 16 16 8z m25 -6 c3 -5 4 -10 1 -10 -3 0 -8 5 -11 10 -3 6 -4 10 -1 10 3 0 8 -4 11 -10z m-815 -6 c0 -8 -19 -13 -24 -6 -3 5 1 9 9 9 8 0 15 -2 15 -3z m45 -4 c3 -5 4 -10 1 -10 -3 0 -8 5 -11 10 -3 6 -4 10 -1 10 3 0 8 -4 11 -10z m390 0 c3 -5 4 -10 1 -10 -3 0 -8 5 -11 10 -3 6 -4 10 -1 10 3 0 8 -4 11 -10z m105 6 c0 -3 -5 -8 -12 -12 -7 -4 -8 -3 -4 4 7 12 16 16 16 8z m-600 -20 c0 -3 -5 -8 -12 -12 -7 -4 -8 -3 -4 4 7 12 16 16 16 8z m568 -8 c-2 -7 2 -12 9 -11 7 2 10 -4 6 -12 -5 -13 -7 -13 -18 2 -7 10 -11 21 -9 25 8 12 14 9 12 -4z m312 8 c0 -3 -5 -8 -12 -12 -7 -4 -8 -3 -4 4 7 12 16 16 16 8z m-70 -10 c0 -3 -5 -8 -12 -12 -7 -4 -8 -3 -4 4 7 12 16 16 16 8z m-1415 -46 l60 0 -25 -20 c-14 -10 -43 -29 -65 -40 -81 -43 -87 -51 -93 -145 l-5 -86 -55 93 c-31 51 -73 115 -94 143 -21 27 -38 54 -38 59 0 5 53 6 128 3 70 -4 154 -7 187 -7z m1155 -24 c0 -3 -5 -8 -12 -12 -7 -4 -8 -3 -4 4 7 12 16 16 16 8z m-685 -26 c3 -5 4 -10 1 -10 -3 0 -8 5 -11 10 -3 6 -4 10 -1 10 3 0 8 -4 11 -10z m22 -25 c0 -8 -4 -12 -9 -9 -5 3 -6 10 -3 15 9 13 12 11 12 -6z m547 6 c3 -5 -1 -14 -8 -20 -12 -10 -14 -9 -11 6 2 10 4 19 4 21 2 5 10 2 15 -7z m-67 -36 c0 -8 -4 -12 -9 -9 -5 3 -6 10 -3 15 9 13 12 11 12 -6z m113 11 c0 -3 -5 -8 -12 -12 -7 -4 -8 -3 -4 4 7 12 16 16 16 8z m1535 -41 c143 -8 289 -17 325 -19 36 -3 162 -10 280 -16 118 -7 221 -14 229 -16 11 -4 13 -22 7 -97 -10 -136 -25 -369 -31 -477 -3 -52 -7 -115 -10 -140 -2 -25 -7 -83 -10 -130 -3 -47 -9 -143 -15 -215 -5 -71 -14 -204 -20 -295 -6 -91 -15 -219 -20 -285 -5 -66 -12 -173 -16 -238 -10 -193 -6 -194 -118 25 -149 292 -316 616 -400 778 l-75 145 -168 -3 c-92 -1 -345 -12 -562 -22 -217 -11 -402 -20 -412 -20 -27 0 -24 16 16 70 19 26 35 51 35 55 0 3 11 21 25 39 14 18 25 37 25 43 0 5 8 17 18 26 9 9 26 33 37 54 10 21 32 54 47 74 15 20 28 41 28 46 0 5 13 27 30 49 16 21 30 43 30 47 0 5 11 23 25 41 14 18 25 36 25 40 0 4 11 22 25 40 14 18 25 37 25 41 0 5 11 25 24 44 52 78 133 207 137 216 2 6 22 36 43 68 l39 57 61 -5 c34 -3 178 -12 321 -20z m-2245 11 c0 -3 -5 -8 -12 -12 -7 -4 -8 -3 -4 4 7 12 16 16 16 8z m580 -10 c0 -3 -5 -8 -12 -12 -7 -4 -8 -3 -4 4 7 12 16 16 16 8z m1110 -10 c0 -3 -5 -8 -12 -12 -7 -4 -8 -3 -4 4 7 12 16 16 16 8z m-1520 -40 c0 -2 -8 -10 -17 -17 -16 -13 -17 -12 -4 4 13 16 21 21 21 13z m520 0 c0 -3 -5 -8 -12 -12 -7 -4 -8 -3 -4 4 7 12 16 16 16 8z m-603 -23 c-4 -3 -10 -3 -14 0 -3 4 0 7 7 7 7 0 10 -3 7 -7z m-202 -13 c3 -5 4 -10 1 -10 -3 0 -8 5 -11 10 -3 6 -4 10 -1 10 3 0 8 -4 11 -10z m132 -17 c-4 -3 -10 -3 -14 0 -3 4 0 7 7 7 7 0 10 -3 7 -7z m480 -8 c0 -8 -4 -12 -9 -9 -5 3 -6 10 -3 15 9 13 12 11 12 -6z m1120 -2 c-4 -3 -7 0 -7 7 0 7 3 10 7 7 3 -4 3 -10 0 -14z m-1772 -24 c-4 -5 -12 -9 -18 -8 -9 0 -8 2 1 6 6 2 9 10 6 15 -4 7 -2 8 5 4 6 -4 9 -12 6 -17z m1412 4 c-4 -3 -7 0 -7 7 0 7 3 10 7 7 3 -4 3 -10 0 -14z m-787 3 c0 -3 -5 -8 -12 -12 -7 -4 -8 -3 -4 4 7 12 16 16 16 8z m154 -14 c3 -5 -1 -9 -9 -9 -8 0 -12 4 -9 9 3 4 7 8 9 8 2 0 6 -4 9 -8z m273 -29 c-4 -3 -10 -3 -14 0 -3 4 0 7 7 7 7 0 10 -3 7 -7z m-480 -30 c-4 -3 -7 0 -7 7 0 7 3 10 7 7 3 -4 3 -10 0 -14z m143 -38 c0 -2 -6 -5 -13 -8 -8 -3 -14 1 -14 8 0 7 6 11 14 8 7 -3 13 -6 13 -8z m-183 -12 c-4 -3 -7 0 -7 7 0 7 3 10 7 7 3 -4 3 -10 0 -14z m1120 0 c-4 -3 -7 0 -7 7 0 7 3 10 7 7 3 -4 3 -10 0 -14z m-1553 -66 c-77 -73 -77 -73 -66 -107 26 -85 35 -120 31 -125 -5 -4 -51 37 -213 183 -45 41 -42 45 62 68 99 21 163 35 202 44 19 4 41 8 48 9 8 0 -21 -32 -64 -72z m626 59 c0 -2 -7 -7 -16 -10 -8 -3 -12 -2 -9 4 6 10 25 14 25 6z m-210 -20 c0 -3 -5 -8 -12 -12 -7 -4 -8 -3 -4 4 7 12 16 16 16 8z m130 -10 c0 -3 -5 -8 -12 -12 -7 -4 -8 -3 -4 4 7 12 16 16 16 8z m-35 -16 c-3 -5 -1 -10 6 -10 7 0 10 -3 6 -6 -9 -9 -28 6 -22 17 4 5 8 9 11 9 3 0 2 -4 -1 -10z m385 -36 c0 -8 -19 -13 -24 -6 -3 5 1 9 9 9 8 0 15 -2 15 -3z m-493 -31 c-4 -3 -7 0 -7 7 0 7 3 10 7 7 3 -4 3 -10 0 -14z m-42 -3 c3 -5 4 -10 1 -10 -3 0 -8 5 -11 10 -3 6 -4 10 -1 10 3 0 8 -4 11 -10z m1135 4 c0 -8 -19 -13 -24 -6 -3 5 1 9 9 9 8 0 15 -2 15 -3z m-1185 -24 c3 -5 4 -10 1 -10 -3 0 -8 5 -11 10 -3 6 -4 10 -1 10 3 0 8 -4 11 -10z m75 6 c0 -3 -5 -8 -12 -12 -7 -4 -8 -3 -4 4 7 12 16 16 16 8z m887 -13 c-4 -3 -7 0 -7 7 0 7 3 10 7 7 3 -4 3 -10 0 -14z m-990 -30 c-4 -3 -10 -3 -14 0 -3 4 0 7 7 7 7 0 10 -3 7 -7z m704 -26 c-10 -9 -11 -8 -5 6 3 10 9 15 12 12 3 -3 0 -11 -7 -18z m414 -7 c3 -5 4 -10 1 -10 -3 0 -8 5 -11 10 -3 6 -4 10 -1 10 3 0 8 -4 11 -10z m-110 -10 c3 -5 4 -10 1 -10 -3 0 -8 5 -11 10 -3 6 -4 10 -1 10 3 0 8 -4 11 -10z m135 -4 c0 -3 -5 -8 -12 -12 -7 -4 -8 -3 -4 4 7 12 16 16 16 8z m-143 -33 c-4 -3 -7 0 -7 7 0 7 3 10 7 7 3 -4 3 -10 0 -14z m-367 -7 c0 -3 -5 -8 -12 -12 -7 -4 -8 -3 -4 4 7 12 16 16 16 8z m-442 -31 c-6 -14 -15 -25 -19 -25 -4 0 -10 -12 -13 -26 -4 -15 -18 -42 -30 -61 l-24 -34 36 -70 c19 -38 33 -71 31 -73 -5 -5 -221 103 -281 140 -13 8 40 42 147 94 44 21 94 47 110 58 43 29 57 28 43 -3z m381 -9 c9 -11 9 -16 -1 -22 -7 -4 -10 -4 -6 1 4 4 3 14 -3 22 -6 7 -9 13 -6 13 2 0 10 -6 16 -14z m531 -10 c0 -2 -7 -7 -16 -10 -8 -3 -12 -2 -9 4 6 10 25 14 25 6z m-553 -23 c0 -9 -4 -10 -14 -2 -7 6 -13 12 -13 14 0 1 6 2 13 2 8 0 14 -6 14 -14z m501 -37 c-10 -7 -14 -17 -10 -21 4 -5 1 -5 -7 0 -12 7 -11 10 4 22 24 17 36 17 13 -1z m-538 -10 c0 -3 -5 -8 -12 -12 -7 -4 -8 -3 -4 4 7 12 16 16 16 8z m457 -13 c-4 -3 -7 0 -7 7 0 7 3 10 7 7 3 -4 3 -10 0 -14z m-292 -50 c-10 -22 -7 -11 -30 -105 l-18 -76 51 -58 c29 -32 50 -59 48 -61 -2 -2 -37 5 -77 16 -41 11 -105 25 -144 32 -102 18 -104 23 -39 83 69 63 174 162 193 181 18 18 26 12 16 -12z m320 -3 c3 -5 4 -10 1 -10 -3 0 -8 5 -11 10 -3 6 -4 10 -1 10 3 0 8 -4 11 -10z m-38 -17 c-4 -3 -10 -3 -14 0 -3 4 0 7 7 7 7 0 10 -3 7 -7z"/>
 </g>
<g id="layer110" fill="#748390" stroke="none">
 <path d="M0 1995 l0 -1995 1995 0 1995 0 0 1995 0 1995 -1995 0 -1995 0 0 -1995z m2625 1498 c238 -124 313 -164 860 -448 198 -103 363 -190 367 -194 5 -4 -20 -5 -55 -3 -34 2 -309 18 -612 37 -543 32 -550 33 -565 13 -18 -22 -30 -15 -23 13 5 16 8 18 14 7 6 -9 9 -9 9 -1 0 6 -5 15 -10 18 -6 4 -8 9 -6 13 2 4 -3 21 -13 38 -9 18 -31 62 -50 98 -19 36 -38 66 -43 66 -4 0 -5 7 -2 15 4 8 1 15 -5 15 -6 0 -10 6 -9 13 2 6 -2 11 -9 10 -7 -2 -10 4 -7 15 5 16 5 16 -9 -1 -14 -16 -15 -16 -19 7 -4 17 -1 23 8 19 8 -3 -2 26 -21 66 -27 56 -38 69 -52 65 -14 -5 -15 -4 -4 4 11 8 12 15 0 40 -7 17 -17 28 -23 25 -5 -3 -6 -1 -2 5 4 7 -4 30 -17 52 -19 32 -26 37 -36 27 -11 -10 -12 -8 -3 8 7 15 6 27 -4 45 -13 25 -13 25 -14 3 0 -13 5 -23 11 -23 5 0 7 -5 3 -11 -5 -8 -9 -8 -14 1 -6 9 -11 7 -20 -6 -11 -18 -11 -18 -4 1 11 32 12 89 2 105 -6 11 -7 8 -3 -10 5 -19 4 -21 -4 -9 -6 8 -8 25 -4 37 6 25 -2 28 388 -175z m-885 132 c0 -2 -6 -8 -13 -14 -10 -8 -14 -7 -14 2 0 8 6 14 14 14 7 0 13 -1 13 -2z m-46 -20 c-4 -8 -10 -12 -15 -9 -5 3 -9 -3 -10 -13 0 -13 -2 -14 -6 -4 -3 8 2 20 13 28 23 17 25 16 18 -2z m553 -2 c-4 -3 -10 -3 -14 0 -3 4 0 7 7 7 7 0 10 -3 7 -7z m-600 -18 c0 -8 -4 -12 -9 -9 -5 4 -12 -3 -15 -15 -3 -12 -11 -21 -18 -21 -8 0 -20 -6 -27 -14 -12 -11 -17 -11 -34 2 -16 12 -16 14 -1 9 23 -9 47 2 41 18 -3 7 -1 16 5 20 7 3 8 0 5 -9 -3 -9 -1 -16 5 -16 6 0 11 4 11 9 0 8 27 41 34 41 1 0 3 -7 3 -15z m603 -5 c0 -5 -7 -10 -15 -10 -8 0 -15 5 -15 10 0 6 7 10 15 10 8 0 15 -4 15 -10z m-680 -25 c0 -8 -4 -15 -9 -15 -13 0 -22 16 -14 24 11 11 23 6 23 -9z m547 -12 c-4 -3 -7 0 -7 7 0 7 3 10 7 7 3 -4 3 -10 0 -14z m115 -8 c3 -13 1 -22 -3 -19 -9 5 -13 44 -5 44 2 0 6 -11 8 -25z m-717 -20 c0 -23 -1 -24 -12 -8 -7 9 -13 20 -13 25 0 4 6 8 13 8 6 0 12 -11 12 -25z m-48 1 c-15 -12 -16 -14 -2 -20 8 -3 15 0 15 7 0 8 4 7 9 -3 13 -19 4 -31 -16 -23 -11 4 -14 3 -9 -5 4 -7 1 -12 -10 -12 -14 0 -14 3 -4 16 11 13 10 16 -10 21 -22 6 -22 6 6 19 38 16 43 16 21 0z m70 -3 c-4 -3 -10 -3 -14 0 -3 4 0 7 7 7 7 0 10 -3 7 -7z m258 -13 c-10 -11 -22 -20 -28 -20 -5 0 1 9 14 20 31 25 37 25 14 0z m432 -14 c-3 -8 -1 -17 6 -20 7 -2 4 -5 -5 -5 -18 -1 -24 19 -11 32 11 11 15 8 10 -7z m-276 -19 c-6 -8 -8 -16 -5 -19 2 -3 -2 -8 -11 -12 -11 -4 -14 -2 -9 7 11 20 26 37 31 37 3 0 0 -6 -6 -13z m-566 -7 c3 -5 4 -10 1 -10 -3 0 -8 5 -11 10 -3 6 -4 10 -1 10 3 0 8 -4 11 -10z m385 3 c0 -11 -153 -163 -164 -163 -5 0 1 11 14 25 22 23 16 37 -6 15 -7 -7 -11 -5 -11 7 0 10 10 25 21 33 20 14 25 16 47 19 5 0 8 5 5 10 -3 5 1 14 8 20 9 8 16 8 20 2 4 -5 2 -12 -4 -16 -5 -3 -10 -11 -10 -17 0 -6 9 -3 20 7 11 10 17 22 14 27 -3 4 0 7 7 6 7 -2 14 3 15 10 3 20 4 22 14 22 6 0 10 -3 10 -7z m-493 -30 c-4 -3 -7 0 -7 7 0 7 3 10 7 7 3 -4 3 -10 0 -14z m76 -20 c2 7 7 9 11 6 4 -3 0 -11 -7 -17 -11 -9 -18 -5 -36 21 l-22 32 25 -27 c15 -17 26 -23 29 -15z m882 27 c-3 -5 -10 -10 -16 -10 -5 0 -9 5 -9 10 0 6 7 10 16 10 8 0 12 -4 9 -10z m-155 -25 c-7 -8 -9 -15 -4 -15 5 0 2 -5 -6 -10 -13 -8 -13 -10 -1 -10 11 0 9 -4 -5 -15 -14 -10 -15 -14 -4 -15 10 0 11 -3 3 -11 -6 -6 -10 -17 -9 -23 2 -6 1 -8 -1 -3 -3 4 -10 4 -16 1 -8 -5 -8 -2 1 7 6 7 12 17 12 22 0 4 -6 5 -12 1 -8 -5 -7 -1 2 10 8 10 15 25 16 33 2 15 23 43 31 43 3 0 0 -7 -7 -15z m-158 -4 c-7 -4 -15 -17 -16 -27 -2 -10 -9 -19 -17 -20 -30 -2 -33 -5 -19 -14 9 -6 10 -10 3 -10 -24 0 -23 19 2 38 14 11 25 25 25 31 0 6 8 11 18 11 13 0 14 -2 4 -9z m311 1 c2 7 4 1 3 -14 0 -16 -5 -28 -9 -28 -5 0 -5 -4 -2 -10 3 -5 0 -7 -9 -4 -9 3 -14 18 -14 35 1 22 4 26 14 19 8 -8 13 -7 17 2z m-1113 -37 c-14 -17 -30 -20 -30 -6 0 5 8 12 18 14 9 3 19 5 21 6 2 0 -2 -6 -9 -14z m147 8 c-4 -3 -10 -3 -14 0 -3 4 0 7 7 7 7 0 10 -3 7 -7z m1073 -8 c0 -8 -2 -15 -4 -15 -2 0 -6 7 -10 15 -3 8 -1 15 4 15 6 0 10 -7 10 -15z m-1108 -33 c-7 -2 -9 -9 -5 -15 3 -7 2 -8 -2 -4 -16 14 -14 36 3 29 10 -4 12 -7 4 -10z m-195 1 c-4 -3 -10 -3 -14 0 -3 4 0 7 7 7 7 0 10 -3 7 -7z m547 -14 c-3 -5 -10 -7 -15 -3 -5 3 -7 10 -3 15 3 5 10 7 15 3 5 -3 7 -10 3 -15z m-457 -6 c-4 -3 -7 0 -7 7 0 7 3 10 7 7 3 -4 3 -10 0 -14z m52 -6 c8 -10 7 -14 -2 -14 -8 0 -14 6 -14 14 0 7 1 13 2 13 2 0 8 -6 14 -13z m671 9 c0 -3 -5 -8 -12 -12 -7 -4 -8 -3 -4 4 7 12 16 16 16 8z m11 -23 c-12 -20 -14 -14 -5 12 4 9 9 14 11 11 3 -2 0 -13 -6 -23z m-909 10 c-6 -2 -10 -9 -6 -14 3 -5 1 -9 -5 -9 -5 0 -12 4 -15 9 -6 9 10 19 29 19 6 0 4 -2 -3 -5z m33 -13 c3 -5 4 -10 1 -10 -3 0 -8 5 -11 10 -3 6 -4 10 -1 10 3 0 8 -4 11 -10z m1232 -12 c-3 -8 -6 -5 -6 6 -1 11 2 17 5 13 3 -3 4 -12 1 -19z m-1310 -5 c-4 -3 -7 0 -7 7 0 7 3 10 7 7 3 -4 3 -10 0 -14z m228 -13 c-10 -11 -25 -20 -34 -19 -10 0 -8 4 7 9 12 5 25 17 28 25 4 9 9 13 12 10 3 -2 -3 -14 -13 -25z m907 7 c-5 -7 -8 -20 -6 -30 1 -13 -2 -17 -12 -13 -8 3 -14 1 -14 -4 0 -6 5 -10 10 -10 6 0 10 -3 10 -8 0 -4 -15 -8 -32 -8 -18 -1 -27 1 -20 3 6 3 9 10 6 15 -5 7 -2 8 5 4 8 -6 11 -2 9 10 -2 13 2 18 14 16 12 -2 16 2 12 13 -3 8 -1 15 6 15 6 0 8 5 4 12 -4 7 -3 8 5 4 8 -5 9 -12 3 -19z m-1165 -4 c-4 -3 -7 0 -7 7 0 7 3 10 7 7 3 -4 3 -10 0 -14z m1550 10 c-4 -3 -10 -3 -14 0 -3 4 0 7 7 7 7 0 10 -3 7 -7z m-1337 -9 c0 -8 -19 -13 -24 -6 -3 5 1 9 9 9 8 0 15 -2 15 -3z m477 -21 c-4 -3 -7 0 -7 7 0 7 3 10 7 7 3 -4 3 -10 0 -14z m-73 -5 c-4 -5 -9 -7 -12 -4 -3 3 -12 0 -21 -7 -14 -10 -14 -10 -4 4 13 16 46 23 37 7z m43 5 c-4 -3 -10 -3 -14 0 -3 4 0 7 7 7 7 0 10 -3 7 -7z m258 -3 c3 -5 4 -10 1 -10 -3 0 -8 5 -11 10 -3 6 -4 10 -1 10 3 0 8 -4 11 -10z m612 -7 c-4 -3 -7 0 -7 7 0 7 3 10 7 7 3 -4 3 -10 0 -14z m-1639 -15 c15 -15 15 -28 1 -28 -5 0 -8 4 -4 9 6 11 -35 9 -54 -3 -7 -4 -15 -5 -18 -2 -10 10 5 19 31 19 14 0 23 3 20 8 -8 13 10 11 24 -3z m99 -5 c-4 -3 -10 -3 -14 0 -3 4 0 7 7 7 7 0 10 -3 7 -7z m579 -19 c2 -11 -1 -12 -10 -5 -7 6 -17 7 -22 3 -4 -4 -2 1 5 11 15 19 24 16 27 -9z m324 22 c0 -2 -8 -10 -17 -17 -16 -13 -17 -12 -4 4 13 16 21 21 21 13z m47 -13 c-4 -3 -7 0 -7 7 0 7 3 10 7 7 3 -4 3 -10 0 -14z m-325 -27 c-34 -39 -44 -46 -54 -40 -11 7 -10 34 2 34 5 0 6 -8 3 -17 -6 -16 -4 -16 9 -5 9 7 15 22 13 34 -4 17 -2 18 12 6 14 -11 16 -11 11 2 -4 11 0 16 13 16 16 0 15 -4 -9 -30z m-92 20 c0 -2 -8 -10 -17 -17 -16 -13 -17 -12 -4 4 13 16 21 21 21 13z m777 -13 c-4 -3 -7 0 -7 7 0 7 3 10 7 7 3 -4 3 -10 0 -14z m-1190 -8 c0 -10 -6 -14 -14 -10 -8 3 -18 5 -21 6 -4 0 2 4 13 9 11 5 20 9 21 9 0 1 1 -6 1 -14z m33 11 c0 -3 -4 -8 -10 -11 -5 -3 -10 -1 -10 4 0 6 5 11 10 11 6 0 10 -2 10 -4z m760 -21 c14 -19 14 -19 -2 -6 -10 7 -18 18 -18 24 0 6 1 8 3 6 1 -2 9 -13 17 -24z m-1143 8 c-4 -3 -10 -3 -14 0 -3 4 0 7 7 7 7 0 10 -3 7 -7z m1583 -4 c0 -5 -5 -7 -12 -3 -8 5 -9 0 -6 -14 4 -12 2 -22 -3 -22 -10 0 -12 33 -2 43 10 10 23 8 23 -4z m-243 -6 c-4 -3 -10 -3 -14 0 -3 4 0 7 7 7 7 0 10 -3 7 -7z m-644 -20 c-20 -7 -15 -23 5 -17 16 5 16 5 -1 -6 -23 -15 -42 -3 -26 16 6 8 17 14 23 13 7 0 6 -2 -1 -6z m64 0 c-4 -3 -10 -3 -14 0 -3 4 0 7 7 7 7 0 10 -3 7 -7z m339 -27 c-2 -38 -12 -39 -12 -1 0 18 3 32 7 30 3 -3 5 -15 5 -29z m31 19 c0 -8 -4 -12 -9 -9 -5 3 -6 10 -3 15 9 13 12 11 12 -6z m-1182 -5 c3 -5 4 -10 1 -10 -3 0 -8 5 -11 10 -3 6 -4 10 -1 10 3 0 8 -4 11 -10z m1595 6 c0 -3 -5 -8 -12 -12 -7 -4 -8 -3 -4 4 7 12 16 16 16 8z m57 -3 c-4 -3 -10 -3 -14 0 -3 4 0 7 7 7 7 0 10 -3 7 -7z m-247 -7 c0 -3 -5 -8 -12 -12 -7 -4 -8 -3 -4 4 7 12 16 16 16 8z m507 -13 c-4 -3 -7 0 -7 7 0 7 3 10 7 7 3 -4 3 -10 0 -14z m-2020 -10 c-4 -3 -7 0 -7 7 0 7 3 10 7 7 3 -4 3 -10 0 -14z m353 -5 c0 7 4 10 10 7 6 -4 5 -11 -3 -19 -12 -14 -27 -4 -27 19 0 6 5 3 10 -5 7 -11 10 -11 10 -2z m37 -5 c-4 -3 -7 0 -7 7 0 7 3 10 7 7 3 -4 3 -10 0 -14z m813 13 c0 -3 -5 -8 -12 -12 -7 -4 -8 -3 -4 4 7 12 16 16 16 8z m-423 -28 c0 -13 -1 -17 -4 -10 -3 6 -10 9 -16 5 -7 -4 -6 1 2 10 17 21 17 21 18 -5z m20 5 c-4 -3 -7 0 -7 7 0 7 3 10 7 7 3 -4 3 -10 0 -14z m-500 -10 c-4 -3 -7 0 -7 7 0 7 3 10 7 7 3 -4 3 -10 0 -14z m1745 -2 c15 -18 15 -21 0 -33 -11 -9 -14 -9 -8 -1 4 7 2 22 -4 33 -14 25 -9 26 12 1z m-1715 -8 c-4 -3 -7 0 -7 7 0 7 3 10 7 7 3 -4 3 -10 0 -14z m860 10 c-4 -3 -10 -3 -14 0 -3 4 0 7 7 7 7 0 10 -3 7 -7z m272 0 c-4 -22 2 -35 14 -30 8 3 20 1 28 -5 11 -8 11 -9 -2 -5 -9 3 -22 0 -28 -6 -8 -8 -11 -7 -11 3 0 10 -4 9 -13 -4 -12 -16 -13 -16 -13 3 0 11 5 17 10 14 5 -4 7 1 3 9 -3 9 -3 19 0 22 8 8 13 8 12 -1z m51 3 c0 -3 -5 -8 -12 -12 -7 -4 -8 -3 -4 4 7 12 16 16 16 8z m-717 -37 c-5 -5 -17 -3 -29 6 -14 11 -15 14 -3 9 10 -3 21 0 25 7 6 11 8 11 12 0 2 -7 0 -17 -5 -22z m439 19 c-14 -14 -44 -20 -36 -7 3 5 9 7 14 4 5 -3 11 -1 15 5 3 5 9 10 13 10 3 0 1 -5 -6 -12z m-1392 -13 c-14 -17 -30 -20 -30 -6 0 5 8 12 18 14 9 3 19 5 21 6 2 0 -2 -6 -9 -14z m147 8 c-4 -3 -10 -3 -14 0 -3 4 0 7 7 7 7 0 10 -3 7 -7z m1180 0 c-4 -3 -10 -3 -14 0 -3 4 0 7 7 7 7 0 10 -3 7 -7z m-877 -7 c0 -3 -5 -8 -12 -12 -7 -4 -8 -3 -4 4 7 12 16 16 16 8z m454 -4 c2 -4 -5 -9 -17 -9 -17 -2 -19 0 -7 7 18 12 18 12 24 2z m-767 -16 c-3 -10 -47 -16 -61 -8 -13 7 9 17 38 17 14 0 25 -4 23 -9z m1193 10 c0 -3 -5 -8 -12 -12 -7 -4 -8 -3 -4 4 7 12 16 16 16 8z m507 -13 c-4 -3 -7 0 -7 7 0 7 3 10 7 7 3 -4 3 -10 0 -14z m-1591 -5 c-9 -5 -23 -5 -32 0 -12 6 -7 9 16 9 23 0 28 -3 16 -9z m148 2 c-3 -2 -33 -5 -67 -6 -38 -1 -54 1 -42 6 21 8 117 8 109 0z m593 3 c-4 -3 -10 -3 -14 0 -3 4 0 7 7 7 7 0 10 -3 7 -7z m30 0 c-4 -3 -10 -3 -14 0 -3 4 0 7 7 7 7 0 10 -3 7 -7z m358 -2 c3 -5 2 -12 -3 -15 -5 -3 -9 1 -9 9 0 17 3 19 12 6z m-522 -31 c10 -12 9 -12 -4 -2 -9 6 -18 9 -21 6 -3 -3 -9 -1 -12 4 -9 15 22 8 37 -8z m22 10 c3 -5 4 -10 1 -10 -3 0 -8 5 -11 10 -3 6 -4 10 -1 10 3 0 8 -4 11 -10z m122 -4 c4 -4 1 -6 -7 -4 -8 2 -14 -3 -12 -9 1 -7 -2 -13 -7 -13 -6 0 -9 8 -8 19 1 18 19 22 34 7z m293 -13 c0 -19 -13 -9 -16 12 -1 8 2 13 7 9 5 -3 9 -12 9 -21z m335 17 c-3 -5 -12 -10 -18 -10 -7 0 -6 4 3 10 19 12 23 12 15 0z m-288 -7 c-4 -3 -10 -3 -14 0 -3 4 0 7 7 7 7 0 10 -3 7 -7z m310 -10 c-4 -3 -7 0 -7 7 0 7 3 10 7 7 3 -4 3 -10 0 -14z m190 0 c-4 -3 -7 0 -7 7 0 7 3 10 7 7 3 -4 3 -10 0 -14z m-1032 -23 c-3 -4 -13 -7 -23 -5 -9 1 -26 -5 -37 -14 -19 -15 -19 -15 -5 3 23 29 82 44 65 16z m790 10 c-3 -5 -12 -10 -18 -10 -7 0 -6 4 3 10 19 12 23 12 15 0z m50 -18 c3 -9 3 -13 -1 -9 -4 4 -14 1 -23 -6 -14 -10 -14 -10 -4 4 10 12 10 18 0 28 -9 10 -9 11 5 6 9 -4 19 -14 23 -23z m-775 7 c0 -4 -9 -7 -19 -6 -11 0 -18 4 -16 7 6 9 35 8 35 -1z m375 1 c3 -5 4 -10 1 -10 -3 0 -8 5 -11 10 -3 6 -4 10 -1 10 3 0 8 -4 11 -10z m102 -5 c0 -8 -4 -12 -9 -9 -5 3 -6 10 -3 15 9 13 12 11 12 -6z m-76 -8 c-6 -8 -7 -18 -3 -22 4 -5 1 -5 -6 -1 -10 6 -10 11 -1 22 6 8 14 14 16 14 3 0 0 -6 -6 -13z m308 -24 c9 -7 11 -13 6 -13 -6 0 -17 6 -23 12 -10 10 -12 7 -10 -12 2 -14 7 -28 12 -31 4 -4 -4 -6 -20 -6 -24 0 -26 1 -11 12 17 13 24 31 8 21 -5 -4 -4 8 2 24 7 17 14 25 16 18 2 -7 11 -18 20 -25z m-262 13 c-1 -6 4 -10 11 -8 10 2 10 -2 2 -18 -6 -11 -14 -20 -18 -21 -4 0 -15 -2 -25 -4 -9 -2 -15 1 -11 6 3 5 9 7 13 5 4 -3 13 -1 21 4 12 7 12 12 -3 28 -14 15 -14 19 -3 19 8 0 14 -5 13 -11z m-520 -28 c-3 -8 -6 -5 -6 6 -1 11 2 17 5 13 3 -3 4 -12 1 -19z m456 -2 c7 4 3 -2 -8 -13 -11 -11 -28 -18 -38 -15 -24 6 -30 19 -11 26 8 3 12 2 9 -4 -3 -5 1 -7 9 -4 8 3 12 13 10 22 -5 14 -4 14 6 -1 6 -9 17 -14 23 -11z m42 14 c3 -5 4 -10 1 -10 -3 0 -8 5 -11 10 -3 6 -4 10 -1 10 3 0 8 -4 11 -10z m336 -13 c-10 -9 -11 -8 -5 6 3 10 9 15 12 12 3 -3 0 -11 -7 -18z m-874 -4 c-4 -3 -10 -3 -14 0 -3 4 0 7 7 7 7 0 10 -3 7 -7z m-663 -12 l109 -6 -56 -37 c-31 -21 -60 -38 -64 -38 -5 -1 -19 -10 -32 -20 -20 -17 -24 -31 -29 -105 l-5 -86 -55 93 c-31 51 -73 115 -94 143 -21 27 -38 53 -38 58 0 8 102 7 264 -2z m1536 -15 c0 -2 -8 -10 -17 -17 -16 -13 -17 -12 -4 4 13 16 21 21 21 13z m-802 -17 c-2 -6 3 -14 10 -16 7 -3 10 1 6 11 -4 11 0 14 15 13 12 -1 21 -2 21 -2 0 -1 -17 -18 -38 -38 -24 -24 -39 -32 -39 -23 0 8 5 14 11 13 12 -2 12 7 1 36 -4 10 -3 17 4 17 6 0 10 -5 9 -11z m472 7 c0 -3 -5 -8 -12 -12 -7 -4 -8 -3 -4 4 7 12 16 16 16 8z m-660 -17 c0 -11 -29 -19 -34 -10 -3 5 -3 10 -1 13 8 7 35 5 35 -3z m560 1 c0 -5 -2 -10 -4 -10 -3 0 -8 5 -11 10 -3 6 -1 10 4 10 6 0 11 -4 11 -10z m1064 -15 c-9 -14 -18 -25 -21 -25 -5 0 5 18 20 38 17 22 18 13 1 -13z m-1027 8 c-4 -3 -10 -3 -14 0 -3 4 0 7 7 7 7 0 10 -3 7 -7z m383 -7 c0 -3 -5 -8 -12 -12 -7 -4 -8 -3 -4 4 7 12 16 16 16 8z m-1001 -16 c13 6 18 5 18 -5 0 -7 -6 -11 -14 -8 -7 3 -13 -1 -13 -8 0 -11 -3 -11 -10 1 -5 8 -9 20 -9 25 0 6 3 4 6 -2 3 -9 10 -10 22 -3z m565 1 c3 -5 -1 -14 -8 -20 -12 -10 -14 -9 -11 6 2 10 4 19 4 21 2 5 10 2 15 -7z m-607 -8 c-4 -3 -10 -3 -14 0 -3 4 0 7 7 7 7 0 10 -3 7 -7z m558 -3 c3 -5 4 -10 1 -10 -3 0 -8 5 -11 10 -3 6 -4 10 -1 10 3 0 8 -4 11 -10z m382 3 c-4 -3 -10 -3 -14 0 -3 4 0 7 7 7 7 0 10 -3 7 -7z m-400 -26 c0 -8 -6 -14 -14 -14 -9 0 -10 4 -2 14 6 7 12 13 14 13 1 0 2 -6 2 -13z m113 9 c0 -3 -5 -8 -12 -12 -7 -4 -8 -3 -4 4 7 12 16 16 16 8z m953 -21 c-3 -9 -8 -14 -10 -11 -3 3 -2 9 2 15 9 16 15 13 8 -4z m577 -20 c140 -8 302 -17 360 -20 58 -3 125 -8 150 -10 25 -2 108 -7 185 -11 77 -3 144 -9 149 -12 5 -3 6 -46 2 -96 -9 -135 -25 -368 -31 -476 -3 -52 -7 -115 -10 -140 -2 -25 -7 -83 -10 -130 -3 -47 -9 -143 -15 -215 -5 -71 -14 -204 -20 -295 -6 -91 -15 -219 -20 -285 -5 -66 -12 -173 -16 -238 -10 -193 -6 -194 -118 25 -149 292 -316 616 -400 778 l-75 145 -168 -3 c-92 -1 -345 -12 -562 -22 -217 -11 -402 -20 -412 -20 -27 0 -24 16 16 70 19 26 35 51 35 55 0 3 11 21 25 39 14 18 25 36 25 41 0 4 16 29 35 55 19 26 35 51 35 55 0 3 11 21 25 39 14 18 25 36 25 41 0 4 16 29 35 55 19 26 35 51 35 55 0 3 11 21 25 39 14 18 25 36 25 40 0 4 11 22 25 40 14 18 25 37 25 41 0 5 11 25 24 44 52 78 133 207 137 216 2 6 22 36 43 68 l39 57 61 -5 c34 -3 176 -12 316 -20z m-2240 11 c0 -3 -5 -8 -12 -12 -7 -4 -8 -3 -4 4 7 12 16 16 16 8z m35 -6 c3 -6 -1 -7 -9 -4 -18 7 -21 14 -7 14 6 0 13 -4 16 -10z m1005 -6 c0 -8 -5 -12 -10 -9 -6 4 -8 11 -5 16 9 14 15 11 15 -7z m-440 -3 c0 -4 -8 -15 -17 -26 -15 -20 -15 -20 -10 2 3 15 1 20 -9 16 -7 -2 -11 -10 -8 -17 3 -7 -2 -13 -10 -13 -11 0 -12 5 -4 22 6 13 19 21 34 21 13 0 24 -2 24 -5z m387 2 c-4 -3 -10 -3 -14 0 -3 4 0 7 7 7 7 0 10 -3 7 -7z m-1034 -20 c-5 -12 -3 -14 7 -8 9 5 11 4 6 -4 -4 -6 -16 -9 -27 -6 -12 4 -19 2 -19 -6 0 -7 -3 -9 -7 -5 -4 4 3 16 17 26 31 24 31 24 23 3z m754 11 c-3 -3 -12 -4 -19 -1 -8 3 -5 6 6 6 11 1 17 -2 13 -5z m983 2 c0 -2 -8 -10 -17 -17 -16 -13 -17 -12 -4 4 13 16 21 21 21 13z m-1505 -43 c-11 -3 -26 -10 -32 -15 -9 -7 -13 -7 -13 1 0 7 -5 9 -12 5 -6 -4 -9 -3 -5 2 3 5 22 10 44 10 21 1 29 0 18 -3z m494 -15 c-12 -23 -21 -24 -12 -1 4 10 2 14 -5 9 -6 -3 -13 -3 -16 2 -2 4 6 8 19 8 20 0 22 -3 14 -18z m-784 -12 c0 -18 -3 -22 -13 -14 -9 8 -9 14 -1 24 15 18 14 18 14 -10z m625 20 c0 -3 -5 -8 -12 -12 -7 -4 -8 -3 -4 4 7 12 16 16 16 8z m507 -13 c-4 -3 -7 0 -7 7 0 7 3 10 7 7 3 -4 3 -10 0 -14z m-940 0 c-4 -3 -10 -3 -14 0 -3 4 0 7 7 7 7 0 10 -3 7 -7z m-227 -7 c0 -2 -8 -10 -17 -17 -16 -13 -17 -12 -4 4 13 16 21 21 21 13z m1725 -26 c10 -11 16 -20 13 -20 -3 0 -13 9 -23 20 -10 11 -16 20 -13 20 3 0 13 -9 23 -20z m33 -5 c-3 -3 -9 2 -12 12 -6 14 -5 15 5 6 7 -7 10 -15 7 -18z m-1748 5 c0 -5 -5 -10 -11 -10 -5 0 -7 5 -4 10 3 6 8 10 11 10 2 0 4 -4 4 -10z m147 3 c-4 -3 -10 -3 -14 0 -3 4 0 7 7 7 7 0 10 -3 7 -7z m480 -8 c0 -8 -4 -12 -9 -9 -5 3 -6 10 -3 15 9 13 12 11 12 -6z m147 -2 c-10 -7 -22 -13 -26 -13 -5 0 -3 6 4 13 7 8 19 14 26 14 11 0 10 -4 -4 -14z m271 -13 c1 -10 -2 -17 -7 -14 -4 3 -8 0 -8 -5 0 -6 -5 -11 -11 -11 -8 0 -9 4 0 13 6 8 8 17 4 20 -3 4 -1 7 6 7 7 0 9 5 5 13 -4 6 -3 9 1 4 5 -4 9 -16 10 -27z m102 11 c0 -11 -5 -18 -9 -15 -4 3 -5 11 -1 19 7 21 12 19 10 -4z m-1172 -22 c-4 -5 -12 -9 -18 -8 -9 0 -8 2 1 6 6 2 9 10 6 15 -4 7 -2 8 5 4 6 -4 9 -12 6 -17z m1412 4 c-4 -3 -7 0 -7 7 0 7 3 10 7 7 3 -4 3 -10 0 -14z m-1467 -8 c0 -8 -4 -15 -10 -15 -5 0 -7 7 -4 15 4 8 8 15 10 15 2 0 4 -7 4 -15z m680 11 c0 -3 -5 -8 -12 -12 -7 -4 -8 -3 -4 4 7 12 16 16 16 8z m154 -14 c3 -5 -1 -9 -9 -9 -8 0 -12 4 -9 9 3 4 7 8 9 8 2 0 6 -4 9 -8z m-107 -24 c-3 -8 -6 -5 -6 6 -1 11 2 17 5 13 3 -3 4 -12 1 -19z m-79 -12 c0 -22 -4 -24 -38 -16 -3 0 3 5 13 11 9 6 15 14 12 20 -4 5 -2 9 3 9 5 0 10 -11 10 -24z m39 7 c-4 -3 -10 -3 -14 0 -3 4 0 7 7 7 7 0 10 -3 7 -7z m420 0 c-4 -3 -10 -3 -14 0 -3 4 0 7 7 7 7 0 10 -3 7 -7z m388 -3 c3 -5 4 -10 1 -10 -3 0 -8 5 -11 10 -3 6 -4 10 -1 10 3 0 8 -4 11 -10z m-368 -15 c0 -8 -2 -13 -5 -10 -3 2 -13 0 -23 -6 -15 -7 -17 -6 -13 6 3 8 10 13 14 10 5 -3 11 -1 15 5 9 14 12 13 12 -5z m343 5 c0 -5 -5 -10 -11 -10 -5 0 -7 5 -4 10 3 6 8 10 11 10 2 0 4 -4 4 -10z m47 -7 c-4 -3 -7 0 -7 7 0 7 3 10 7 7 3 -4 3 -10 0 -14z m-700 -10 c-4 -3 -7 0 -7 7 0 7 3 10 7 7 3 -4 3 -10 0 -14z m897 -15 c-3 -4 4 -8 15 -8 10 0 22 5 24 10 3 6 4 5 3 -2 -2 -7 -14 -13 -28 -13 -20 0 -24 -4 -22 -22 1 -13 -1 -23 -6 -23 -4 0 -8 15 -8 33 0 22 5 34 14 34 7 0 11 -4 8 -9z m-1077 -5 c-4 -3 -10 -3 -14 0 -3 4 0 7 7 7 7 0 10 -3 7 -7z m161 -10 c-12 -15 -22 -18 -14 -4 4 5 0 11 -6 14 -7 3 -3 4 9 4 17 -1 19 -4 11 -14z m432 7 c0 -5 -5 -10 -11 -10 -5 0 -7 5 -4 10 3 6 8 10 11 10 2 0 4 -4 4 -10z m-460 -15 c0 -2 -7 -5 -15 -9 -9 -3 -15 0 -15 9 0 9 6 12 15 9 8 -4 15 -7 15 -9z m-160 -3 c0 -5 -7 -9 -15 -9 -8 0 -15 4 -15 9 0 4 7 8 15 8 8 0 15 -4 15 -8z m27 1 c-4 -3 -10 -3 -14 0 -3 4 0 7 7 7 7 0 10 -3 7 -7z m481 -7 c-7 -8 -15 -12 -17 -11 -5 6 10 25 20 25 5 0 4 -6 -3 -14z m-963 -68 l-76 -73 12 -40 c6 -22 16 -57 21 -78 6 -20 9 -39 7 -42 -5 -4 -51 37 -213 183 -46 42 -42 45 67 69 39 9 108 24 152 34 44 9 86 18 93 18 8 1 -21 -32 -63 -71z m913 46 c-12 -12 -17 -13 -23 -3 -5 8 -4 10 4 5 6 -4 14 0 17 9 4 9 9 13 12 10 3 -3 -1 -13 -10 -21z m662 10 c0 -8 -5 -12 -10 -9 -6 4 -8 11 -5 16 9 14 15 11 15 -7z m-1157 -1 c9 -8 -12 -33 -27 -33 -6 0 -3 5 8 11 15 9 16 13 5 20 -8 5 -9 9 -3 9 6 0 14 -3 17 -7z m207 3 c0 -2 -7 -7 -16 -10 -8 -3 -12 -2 -9 4 6 10 25 14 25 6z m-163 -13 c-4 -3 -10 -3 -14 0 -3 4 0 7 7 7 7 0 10 -3 7 -7z m83 -17 c0 -3 -5 -8 -12 -12 -7 -4 -8 -3 -4 4 7 12 16 16 16 8z m441 -23 c-12 -20 -14 -14 -5 12 4 9 9 14 11 11 3 -2 0 -13 -6 -23z m564 17 c-3 -5 -12 -10 -18 -10 -7 0 -6 4 3 10 19 12 23 12 15 0z m-1040 -10 c-3 -5 -1 -10 6 -10 7 0 10 -3 6 -6 -9 -9 -28 6 -22 17 4 5 8 9 11 9 3 0 2 -4 -1 -10z m-105 -10 c0 -5 -2 -10 -4 -10 -3 0 -8 5 -11 10 -3 6 -1 10 4 10 6 0 11 -4 11 -10z m488 -25 c-1 -14 -7 -21 -15 -18 -7 3 -12 15 -11 28 1 14 7 21 15 18 7 -3 12 -15 11 -28z m402 25 c0 -5 -5 -10 -11 -10 -5 0 -7 5 -4 10 3 6 8 10 11 10 2 0 4 -4 4 -10z m-257 -15 c-3 -9 -8 -14 -10 -11 -3 3 -2 9 2 15 9 16 15 13 8 -4z m-688 -15 c3 -5 4 -10 1 -10 -3 0 -8 5 -11 10 -3 6 -4 10 -1 10 3 0 8 -4 11 -10z m62 3 c-4 -3 -10 -3 -14 0 -3 4 0 7 7 7 7 0 10 -3 7 -7z m880 -13 c-2 -11 -6 -23 -10 -26 -11 -11 -8 -26 3 -19 6 3 10 2 10 -4 0 -5 -5 -13 -10 -16 -13 -8 -24 21 -14 37 9 13 10 18 13 38 0 6 3 10 6 10 3 0 4 -9 2 -20z m213 0 c-6 -11 -8 -20 -5 -20 4 0 3 -5 0 -10 -5 -8 -11 -7 -21 1 -12 10 -13 9 -8 -5 3 -9 1 -16 -6 -16 -6 0 -10 8 -8 18 2 9 9 16 16 15 6 -2 16 6 22 17 6 11 13 20 16 20 2 0 0 -9 -6 -20z m-1155 -22 c4 0 11 6 15 12 5 9 9 9 14 1 4 -6 2 -11 -3 -11 -6 0 -11 -5 -11 -11 0 -5 5 -7 12 -3 7 4 8 3 4 -4 -5 -8 -13 -9 -25 -2 -13 6 -24 5 -37 -4 -16 -12 -16 -16 -5 -30 8 -9 11 -19 7 -23 -3 -3 -6 0 -7 8 0 8 -4 6 -9 -6 -8 -18 -9 -18 -9 -2 -1 10 -6 15 -11 12 -6 -4 -7 -11 -4 -17 4 -7 2 -8 -4 -4 -7 4 -12 2 -12 -3 0 -6 -5 -11 -11 -11 -8 0 -9 4 0 13 6 8 8 17 4 21 -4 4 3 9 15 13 20 5 27 15 23 36 -1 5 3 6 8 3 5 -4 13 3 16 15 5 15 10 18 15 9 4 -6 11 -12 15 -12z m64 6 c4 3 12 2 18 -2 7 -5 0 -14 -19 -25 -21 -12 -27 -13 -19 -4 6 8 10 21 8 28 -2 8 -2 11 0 6 3 -4 8 -5 12 -3z m607 -20 c-11 -10 -14 -19 -7 -23 5 -4 0 -15 -12 -28 l-23 -21 2 37 c4 68 3 65 19 51 12 -10 15 -9 15 6 0 13 3 15 11 7 9 -9 7 -16 -5 -29z m-170 -31 c-3 -4 -6 -1 -6 6 0 7 -4 9 -10 6 -6 -4 -7 1 -3 11 6 15 7 15 15 -1 6 -9 7 -19 4 -22z m29 27 c3 -5 2 -10 -4 -10 -5 0 -13 5 -16 10 -3 6 -2 10 4 10 5 0 13 -4 16 -10z m-517 -21 c13 0 13 -2 -3 -8 -25 -10 -53 8 -33 20 7 5 15 4 16 -1 2 -6 11 -10 20 -11z m472 -23 c0 -2 -7 -7 -16 -10 -8 -3 -12 -2 -9 4 6 10 25 14 25 6z m435 -6 c-3 -5 -2 -10 4 -10 5 0 11 5 13 12 2 6 4 -12 4 -40 0 -29 -3 -52 -7 -52 -4 0 -6 12 -4 27 1 16 -4 32 -13 39 -13 9 -10 34 4 34 3 0 2 -4 -1 -10z m130 -20 c3 -5 4 -10 1 -10 -3 0 -8 5 -11 10 -3 6 -4 10 -1 10 3 0 8 -4 11 -10z m-585 -10 c0 -5 -5 -10 -11 -10 -5 0 -7 5 -4 10 3 6 8 10 11 10 2 0 4 -4 4 -10z m-576 -9 c3 -5 -1 -11 -9 -14 -9 -4 -12 -1 -8 9 6 16 10 17 17 5z m1183 -6 c0 -8 -3 -13 -5 -10 -3 3 -12 -1 -21 -7 -10 -8 -9 -4 3 10 23 26 23 26 23 7z m-160 -12 c-4 -3 -7 0 -7 7 0 7 3 10 7 7 3 -4 3 -10 0 -14z m-447 -6 c0 -8 -6 -14 -14 -14 -8 0 -12 6 -9 14 3 7 9 13 14 13 5 0 9 -6 9 -13z m85 -23 c-11 -8 -20 -18 -20 -23 0 -4 -8 -15 -17 -25 -10 -10 -18 -12 -18 -6 0 6 -5 8 -10 5 -6 -4 -7 -12 -3 -18 4 -7 0 -6 -10 2 -18 14 -24 26 -8 17 5 -3 15 2 22 11 12 15 12 16 -2 11 -13 -5 -16 -2 -12 13 6 22 28 21 28 -1 0 -7 5 -15 12 -17 8 -3 11 3 8 17 -2 11 -1 18 4 16 4 -3 13 -1 21 5 24 14 27 10 5 -7z m365 12 c0 -3 -5 -8 -12 -12 -7 -4 -8 -3 -4 4 7 12 16 16 16 8z m-820 -83 c-23 -43 -46 -82 -50 -86 -4 -5 8 -40 28 -78 19 -38 33 -71 31 -73 -5 -5 -221 103 -281 140 -13 8 40 42 147 94 44 21 94 47 110 58 55 37 58 25 15 -55z m935 58 c-3 -6 -11 -11 -16 -11 -5 0 -4 6 3 14 14 16 24 13 13 -3z m-578 -18 c-4 -3 -10 -3 -14 0 -3 4 0 7 7 7 7 0 10 -3 7 -7z m503 3 c0 -2 -7 -6 -15 -10 -8 -3 -15 -1 -15 4 0 6 7 10 15 10 8 0 15 -2 15 -4z m80 -10 c0 -2 -7 -7 -16 -10 -8 -3 -12 -2 -9 4 6 10 25 14 25 6z m-137 -31 c-3 -9 -8 -14 -10 -11 -3 3 -2 9 2 15 9 16 15 13 8 -4z m47 5 c0 -5 -7 -7 -15 -4 -8 4 -15 8 -15 10 0 2 7 4 15 4 8 0 15 -4 15 -10z m49 -22 c-5 -10 -14 -18 -20 -18 -6 0 -7 -6 -3 -12 4 -7 3 -9 -1 -5 -16 14 -14 36 3 30 11 -5 14 -2 10 9 -4 8 -1 15 7 15 10 0 11 -5 4 -19z m-559 8 c0 -3 -5 -8 -12 -12 -7 -4 -8 -3 -4 4 7 12 16 16 16 8z m10 -30 c0 -3 -5 -8 -12 -12 -7 -4 -8 -3 -4 4 7 12 16 16 16 8z m480 -19 c11 -5 9 -6 -4 -4 -11 1 -21 9 -23 17 -3 10 -2 11 4 4 4 -6 15 -14 23 -17z m7 16 c-4 -3 -10 -3 -14 0 -3 4 0 7 7 7 7 0 10 -3 7 -7z m-553 -38 c-4 -8 -11 -12 -17 -8 -8 5 -7 8 1 11 7 2 9 9 6 14 -4 7 -2 8 4 4 6 -4 9 -13 6 -21z m512 -11 c1 -9 0 -13 -4 -10 -3 4 -7 14 -8 22 -1 9 0 13 4 10 3 -4 7 -14 8 -22z m-290 -45 c-8 -30 -20 -70 -25 -89 -15 -47 -14 -53 7 -76 39 -43 83 -104 75 -104 -4 0 -29 7 -54 14 -26 8 -89 22 -140 32 -52 9 -100 22 -106 27 -9 6 7 27 59 76 39 36 98 92 131 124 33 31 62 55 64 53 2 -2 -3 -27 -11 -57z m331 35 c15 -14 14 -15 -3 -12 -13 2 -18 -2 -16 -14 2 -11 -3 -18 -12 -18 -10 0 -13 -6 -10 -17 5 -15 4 -16 -5 -3 -9 13 -11 13 -11 -2 0 -10 5 -18 11 -18 8 0 8 -5 -1 -15 -7 -8 -18 -15 -24 -14 -7 0 -6 2 1 6 8 3 11 14 7 29 -5 18 -1 30 12 40 18 15 18 15 1 10 -11 -3 -16 -2 -12 4 3 6 13 10 21 10 8 0 14 7 14 15 0 19 7 19 27 -1z m20 9 c-4 -3 -10 -3 -14 0 -3 4 0 7 7 7 7 0 10 -3 7 -7z m-590 -20 c-4 -3 -10 -3 -14 0 -3 4 0 7 7 7 7 0 10 -3 7 -7z m500 -130 c-4 -3 -7 0 -7 7 0 7 3 10 7 7 3 -4 3 -10 0 -14z"/>
 <path d="M1684 3418 c-4 -7 -3 -8 4 -4 12 7 16 16 8 16 -3 0 -8 -5 -12 -12z"/>
 <path d="M1627 3370 c-16 -16 -16 -17 6 -14 12 1 26 3 30 3 5 1 6 5 2 10 -3 5 3 12 12 14 11 3 8 4 -7 4 -14 -1 -33 -8 -43 -17z"/>
 <path d="M2210 3380 c0 -7 3 -10 7 -7 3 4 3 10 0 14 -4 3 -7 0 -7 -7z"/>
 <path d="M1660 2430 c0 -7 3 -10 7 -7 3 4 3 10 0 14 -4 3 -7 0 -7 -7z"/>
 <path d="M1775 2370 c-3 -5 -1 -10 4 -10 6 0 11 5 11 10 0 6 -2 10 -4 10 -3 0 -8 -4 -11 -10z"/>
 <path d="M1774 2338 c-4 -7 -3 -8 4 -4 12 7 16 16 8 16 -3 0 -8 -5 -12 -12z"/>
 </g>
<g id="layer111" fill="#838485" stroke="none">
 <path d="M0 1995 l0 -1995 1995 0 1995 0 0 1995 0 1995 -1995 0 -1995 0 0 -1995z m2625 1498 c238 -124 313 -164 860 -448 198 -103 363 -190 367 -194 5 -4 -20 -5 -55 -3 -34 2 -309 18 -612 37 -543 32 -550 33 -565 13 -18 -22 -30 -15 -23 13 5 16 8 18 14 7 6 -9 9 -9 9 -1 0 6 -5 15 -10 18 -6 4 -8 9 -6 13 2 4 -3 21 -13 38 -9 18 -31 62 -50 98 -19 36 -38 66 -43 66 -4 0 -5 7 -2 15 4 8 1 15 -5 15 -6 0 -10 6 -9 13 2 6 -2 11 -9 10 -7 -2 -10 4 -7 15 5 16 5 16 -9 -1 -14 -16 -15 -16 -19 7 -4 17 -1 23 8 19 8 -3 -2 26 -21 66 -27 56 -38 69 -52 65 -14 -5 -15 -4 -4 4 11 8 12 15 0 40 -7 17 -17 28 -23 25 -5 -3 -6 -1 -2 5 4 7 -4 30 -17 52 -19 32 -26 37 -36 27 -11 -10 -12 -8 -3 8 7 15 6 27 -4 45 -13 25 -13 25 -14 3 0 -13 5 -23 11 -23 5 0 7 -5 3 -11 -5 -8 -9 -8 -14 1 -6 9 -11 7 -20 -6 -11 -18 -11 -18 -4 1 11 32 12 89 2 105 -6 11 -7 8 -3 -10 5 -19 4 -21 -4 -9 -6 8 -8 25 -4 37 6 25 -2 28 388 -175z m-885 132 c0 -2 -6 -8 -13 -14 -10 -8 -14 -7 -14 2 0 8 6 14 14 14 7 0 13 -1 13 -2z m-46 -20 c-4 -8 -10 -12 -15 -9 -5 3 -9 -3 -10 -13 0 -13 -2 -14 -6 -4 -3 8 2 20 13 28 23 17 25 16 18 -2z m553 -2 c-4 -3 -10 -3 -14 0 -3 4 0 7 7 7 7 0 10 -3 7 -7z m-600 -18 c0 -8 -4 -12 -9 -9 -5 4 -12 -3 -15 -15 -3 -12 -11 -21 -18 -21 -8 0 -20 -6 -27 -14 -12 -11 -17 -11 -34 2 -16 12 -16 14 -1 9 23 -9 47 2 41 18 -3 7 -1 16 5 20 7 3 8 0 5 -9 -3 -9 -1 -16 5 -16 6 0 11 4 11 9 0 8 27 41 34 41 1 0 3 -7 3 -15z m603 -5 c0 -5 -7 -10 -15 -10 -8 0 -15 5 -15 10 0 6 7 10 15 10 8 0 15 -4 15 -10z m-680 -25 c0 -8 -4 -15 -9 -15 -13 0 -22 16 -14 24 11 11 23 6 23 -9z m547 -12 c-4 -3 -7 0 -7 7 0 7 3 10 7 7 3 -4 3 -10 0 -14z m115 -8 c3 -13 1 -22 -3 -19 -9 5 -13 44 -5 44 2 0 6 -11 8 -25z m-717 -20 c0 -23 -1 -24 -12 -8 -7 9 -13 20 -13 25 0 4 6 8 13 8 6 0 12 -11 12 -25z m-48 1 c-15 -12 -16 -14 -2 -20 8 -3 15 0 15 7 0 8 4 7 9 -3 13 -19 4 -31 -16 -23 -11 4 -14 3 -9 -5 4 -7 1 -12 -10 -12 -14 0 -14 3 -4 16 11 13 10 16 -10 21 -22 6 -22 6 6 19 38 16 43 16 21 0z m70 -3 c-4 -3 -10 -3 -14 0 -3 4 0 7 7 7 7 0 10 -3 7 -7z m258 -13 c-10 -11 -22 -20 -28 -20 -5 0 1 9 14 20 31 25 37 25 14 0z m432 -14 c-3 -8 -1 -17 6 -20 7 -2 4 -5 -5 -5 -18 -1 -24 19 -11 32 11 11 15 8 10 -7z m-276 -19 c-6 -8 -8 -16 -5 -19 2 -3 -2 -8 -11 -12 -11 -4 -14 -2 -9 7 11 20 26 37 31 37 3 0 0 -6 -6 -13z m-566 -7 c3 -5 4 -10 1 -10 -3 0 -8 5 -11 10 -3 6 -4 10 -1 10 3 0 8 -4 11 -10z m385 3 c0 -11 -153 -163 -164 -163 -5 0 1 11 14 25 22 23 16 37 -6 15 -7 -7 -11 -5 -11 7 0 10 10 25 21 33 20 14 25 16 47 19 5 0 8 5 5 10 -3 5 1 14 8 20 9 8 16 8 20 2 4 -5 2 -12 -4 -16 -5 -3 -10 -11 -10 -17 0 -6 9 -3 20 7 11 10 17 22 14 27 -3 4 0 7 7 6 7 -2 14 3 15 10 3 20 4 22 14 22 6 0 10 -3 10 -7z m-493 -30 c-4 -3 -7 0 -7 7 0 7 3 10 7 7 3 -4 3 -10 0 -14z m76 -20 c2 7 7 9 11 6 4 -3 0 -11 -7 -17 -11 -9 -18 -5 -36 21 l-22 32 25 -27 c15 -17 26 -23 29 -15z m882 27 c-3 -5 -10 -10 -16 -10 -5 0 -9 5 -9 10 0 6 7 10 16 10 8 0 12 -4 9 -10z m-155 -25 c-7 -8 -9 -15 -4 -15 5 0 2 -5 -6 -10 -13 -8 -13 -10 -1 -10 11 0 9 -4 -5 -15 -14 -10 -15 -14 -4 -15 10 0 11 -3 3 -11 -6 -6 -10 -17 -9 -23 2 -6 1 -8 -1 -3 -3 4 -10 4 -16 1 -8 -5 -8 -2 1 7 6 7 12 17 12 22 0 4 -6 5 -12 1 -8 -5 -7 -1 2 10 8 10 15 25 16 33 2 15 23 43 31 43 3 0 0 -7 -7 -15z m-158 -4 c-7 -4 -15 -17 -16 -27 -2 -10 -9 -19 -17 -20 -30 -2 -33 -5 -19 -14 9 -6 10 -10 3 -10 -24 0 -23 19 2 38 14 11 25 25 25 31 0 6 8 11 18 11 13 0 14 -2 4 -9z m311 1 c2 7 4 1 3 -14 0 -16 -5 -28 -9 -28 -5 0 -5 -4 -2 -10 3 -5 0 -7 -9 -4 -9 3 -14 18 -14 35 1 22 4 26 14 19 8 -8 13 -7 17 2z m-1113 -37 c-14 -17 -30 -20 -30 -6 0 5 8 12 18 14 9 3 19 5 21 6 2 0 -2 -6 -9 -14z m147 8 c-4 -3 -10 -3 -14 0 -3 4 0 7 7 7 7 0 10 -3 7 -7z m1073 -8 c0 -8 -2 -15 -4 -15 -2 0 -6 7 -10 15 -3 8 -1 15 4 15 6 0 10 -7 10 -15z m-1108 -33 c-7 -2 -9 -9 -5 -15 3 -7 2 -8 -2 -4 -16 14 -14 36 3 29 10 -4 12 -7 4 -10z m-195 1 c-4 -3 -10 -3 -14 0 -3 4 0 7 7 7 7 0 10 -3 7 -7z m547 -14 c-3 -5 -10 -7 -15 -3 -5 3 -7 10 -3 15 3 5 10 7 15 3 5 -3 7 -10 3 -15z m-457 -6 c-4 -3 -7 0 -7 7 0 7 3 10 7 7 3 -4 3 -10 0 -14z m52 -6 c8 -10 7 -14 -2 -14 -8 0 -14 6 -14 14 0 7 1 13 2 13 2 0 8 -6 14 -13z m671 9 c0 -3 -5 -8 -12 -12 -7 -4 -8 -3 -4 4 7 12 16 16 16 8z m11 -23 c-12 -20 -14 -14 -5 12 4 9 9 14 11 11 3 -2 0 -13 -6 -23z m-909 10 c-6 -2 -10 -9 -6 -14 3 -5 1 -9 -5 -9 -5 0 -12 4 -15 9 -6 9 10 19 29 19 6 0 4 -2 -3 -5z m33 -13 c3 -5 4 -10 1 -10 -3 0 -8 5 -11 10 -3 6 -4 10 -1 10 3 0 8 -4 11 -10z m1232 -12 c-3 -8 -6 -5 -6 6 -1 11 2 17 5 13 3 -3 4 -12 1 -19z m-1310 -5 c-4 -3 -7 0 -7 7 0 7 3 10 7 7 3 -4 3 -10 0 -14z m228 -13 c-10 -11 -25 -20 -34 -19 -10 0 -8 4 7 9 12 5 25 17 28 25 4 9 9 13 12 10 3 -2 -3 -14 -13 -25z m907 7 c-5 -7 -8 -20 -6 -30 1 -13 -2 -17 -12 -13 -8 3 -14 1 -14 -4 0 -6 5 -10 10 -10 6 0 10 -3 10 -8 0 -4 -15 -8 -32 -8 -18 -1 -27 1 -20 3 6 3 9 10 6 15 -5 7 -2 8 5 4 8 -6 11 -2 9 10 -2 13 2 18 14 16 12 -2 16 2 12 13 -3 8 -1 15 6 15 6 0 8 5 4 12 -4 7 -3 8 5 4 8 -5 9 -12 3 -19z m-1165 -4 c-4 -3 -7 0 -7 7 0 7 3 10 7 7 3 -4 3 -10 0 -14z m1550 10 c-4 -3 -10 -3 -14 0 -3 4 0 7 7 7 7 0 10 -3 7 -7z m-1337 -9 c0 -8 -19 -13 -24 -6 -3 5 1 9 9 9 8 0 15 -2 15 -3z m477 -21 c-4 -3 -7 0 -7 7 0 7 3 10 7 7 3 -4 3 -10 0 -14z m-73 -5 c-4 -5 -9 -7 -12 -4 -3 3 -12 0 -21 -7 -14 -10 -14 -10 -4 4 13 16 46 23 37 7z m43 5 c-4 -3 -10 -3 -14 0 -3 4 0 7 7 7 7 0 10 -3 7 -7z m258 -3 c3 -5 4 -10 1 -10 -3 0 -8 5 -11 10 -3 6 -4 10 -1 10 3 0 8 -4 11 -10z m612 -7 c-4 -3 -7 0 -7 7 0 7 3 10 7 7 3 -4 3 -10 0 -14z m-1639 -15 c15 -15 15 -28 1 -28 -5 0 -8 4 -4 9 6 11 -35 9 -54 -3 -7 -4 -15 -5 -18 -2 -10 10 5 19 31 19 14 0 23 3 20 8 -8 13 10 11 24 -3z m99 -5 c-4 -3 -10 -3 -14 0 -3 4 0 7 7 7 7 0 10 -3 7 -7z m579 -19 c2 -11 -1 -12 -10 -5 -7 6 -17 7 -22 3 -4 -4 -2 1 5 11 15 19 24 16 27 -9z m324 22 c0 -2 -8 -10 -17 -17 -16 -13 -17 -12 -4 4 13 16 21 21 21 13z m47 -13 c-4 -3 -7 0 -7 7 0 7 3 10 7 7 3 -4 3 -10 0 -14z m-325 -27 c-34 -39 -44 -46 -54 -40 -11 7 -10 34 2 34 5 0 6 -8 3 -17 -6 -16 -4 -16 9 -5 9 7 15 22 13 34 -4 17 -2 18 12 6 14 -11 16 -11 11 2 -4 11 0 16 13 16 16 0 15 -4 -9 -30z m-92 20 c0 -2 -8 -10 -17 -17 -16 -13 -17 -12 -4 4 13 16 21 21 21 13z m777 -13 c-4 -3 -7 0 -7 7 0 7 3 10 7 7 3 -4 3 -10 0 -14z m-1190 -8 c0 -10 -6 -14 -14 -10 -8 3 -18 5 -21 6 -4 0 2 4 13 9 11 5 20 9 21 9 0 1 1 -6 1 -14z m33 11 c0 -3 -4 -8 -10 -11 -5 -3 -10 -1 -10 4 0 6 5 11 10 11 6 0 10 -2 10 -4z m760 -21 c14 -19 14 -19 -2 -6 -10 7 -18 18 -18 24 0 6 1 8 3 6 1 -2 9 -13 17 -24z m-1143 8 c-4 -3 -10 -3 -14 0 -3 4 0 7 7 7 7 0 10 -3 7 -7z m1583 -4 c0 -5 -5 -7 -12 -3 -8 5 -9 0 -6 -14 4 -12 2 -22 -3 -22 -10 0 -12 33 -2 43 10 10 23 8 23 -4z m-243 -6 c-4 -3 -10 -3 -14 0 -3 4 0 7 7 7 7 0 10 -3 7 -7z m-644 -20 c-20 -7 -15 -23 5 -17 16 5 16 5 -1 -6 -23 -15 -42 -3 -26 16 6 8 17 14 23 13 7 0 6 -2 -1 -6z m64 0 c-4 -3 -10 -3 -14 0 -3 4 0 7 7 7 7 0 10 -3 7 -7z m339 -27 c-2 -38 -12 -39 -12 -1 0 18 3 32 7 30 3 -3 5 -15 5 -29z m31 19 c0 -8 -4 -12 -9 -9 -5 3 -6 10 -3 15 9 13 12 11 12 -6z m-1182 -5 c3 -5 4 -10 1 -10 -3 0 -8 5 -11 10 -3 6 -4 10 -1 10 3 0 8 -4 11 -10z m1595 6 c0 -3 -5 -8 -12 -12 -7 -4 -8 -3 -4 4 7 12 16 16 16 8z m57 -3 c-4 -3 -10 -3 -14 0 -3 4 0 7 7 7 7 0 10 -3 7 -7z m-247 -7 c0 -3 -5 -8 -12 -12 -7 -4 -8 -3 -4 4 7 12 16 16 16 8z m507 -13 c-4 -3 -7 0 -7 7 0 7 3 10 7 7 3 -4 3 -10 0 -14z m-2020 -10 c-4 -3 -7 0 -7 7 0 7 3 10 7 7 3 -4 3 -10 0 -14z m353 -5 c0 7 4 10 10 7 6 -4 5 -11 -3 -19 -12 -14 -27 -4 -27 19 0 6 5 3 10 -5 7 -11 10 -11 10 -2z m37 -5 c-4 -3 -7 0 -7 7 0 7 3 10 7 7 3 -4 3 -10 0 -14z m813 13 c0 -3 -5 -8 -12 -12 -7 -4 -8 -3 -4 4 7 12 16 16 16 8z m-423 -28 c0 -13 -1 -17 -4 -10 -3 6 -10 9 -16 5 -7 -4 -6 1 2 10 17 21 17 21 18 -5z m20 5 c-4 -3 -7 0 -7 7 0 7 3 10 7 7 3 -4 3 -10 0 -14z m-500 -10 c-4 -3 -7 0 -7 7 0 7 3 10 7 7 3 -4 3 -10 0 -14z m1745 -2 c15 -18 15 -21 0 -33 -11 -9 -14 -9 -8 -1 4 7 2 22 -4 33 -14 25 -9 26 12 1z m-1715 -8 c-4 -3 -7 0 -7 7 0 7 3 10 7 7 3 -4 3 -10 0 -14z m860 10 c-4 -3 -10 -3 -14 0 -3 4 0 7 7 7 7 0 10 -3 7 -7z m272 0 c-4 -22 2 -35 14 -30 8 3 20 1 28 -5 11 -8 11 -9 -2 -5 -9 3 -22 0 -28 -6 -8 -8 -11 -7 -11 3 0 10 -4 9 -13 -4 -12 -16 -13 -16 -13 3 0 11 5 17 10 14 5 -4 7 1 3 9 -3 9 -3 19 0 22 8 8 13 8 12 -1z m51 3 c0 -3 -5 -8 -12 -12 -7 -4 -8 -3 -4 4 7 12 16 16 16 8z m-717 -37 c-5 -5 -17 -3 -29 6 -14 11 -15 14 -3 9 10 -3 21 0 25 7 6 11 8 11 12 0 2 -7 0 -17 -5 -22z m439 19 c-14 -14 -44 -20 -36 -7 3 5 9 7 14 4 5 -3 11 -1 15 5 3 5 9 10 13 10 3 0 1 -5 -6 -12z m-1392 -13 c-14 -17 -30 -20 -30 -6 0 5 8 12 18 14 9 3 19 5 21 6 2 0 -2 -6 -9 -14z m147 8 c-4 -3 -10 -3 -14 0 -3 4 0 7 7 7 7 0 10 -3 7 -7z m1180 0 c-4 -3 -10 -3 -14 0 -3 4 0 7 7 7 7 0 10 -3 7 -7z m-877 -7 c0 -3 -5 -8 -12 -12 -7 -4 -8 -3 -4 4 7 12 16 16 16 8z m454 -4 c2 -4 -5 -9 -17 -9 -17 -2 -19 0 -7 7 18 12 18 12 24 2z m-767 -16 c-3 -10 -47 -16 -61 -8 -13 7 9 17 38 17 14 0 25 -4 23 -9z m1193 10 c0 -3 -5 -8 -12 -12 -7 -4 -8 -3 -4 4 7 12 16 16 16 8z m507 -13 c-4 -3 -7 0 -7 7 0 7 3 10 7 7 3 -4 3 -10 0 -14z m-1591 -5 c-9 -5 -23 -5 -32 0 -12 6 -7 9 16 9 23 0 28 -3 16 -9z m148 2 c-3 -2 -33 -5 -67 -6 -38 -1 -54 1 -42 6 21 8 117 8 109 0z m593 3 c-4 -3 -10 -3 -14 0 -3 4 0 7 7 7 7 0 10 -3 7 -7z m30 0 c-4 -3 -10 -3 -14 0 -3 4 0 7 7 7 7 0 10 -3 7 -7z m358 -2 c3 -5 2 -12 -3 -15 -5 -3 -9 1 -9 9 0 17 3 19 12 6z m-522 -31 c10 -12 9 -12 -4 -2 -9 6 -18 9 -21 6 -3 -3 -9 -1 -12 4 -9 15 22 8 37 -8z m22 10 c3 -5 4 -10 1 -10 -3 0 -8 5 -11 10 -3 6 -4 10 -1 10 3 0 8 -4 11 -10z m122 -4 c4 -4 1 -6 -7 -4 -8 2 -14 -3 -12 -9 1 -7 -2 -13 -7 -13 -6 0 -9 8 -8 19 1 18 19 22 34 7z m293 -13 c0 -19 -13 -9 -16 12 -1 8 2 13 7 9 5 -3 9 -12 9 -21z m335 17 c-3 -5 -12 -10 -18 -10 -7 0 -6 4 3 10 19 12 23 12 15 0z m-288 -7 c-4 -3 -10 -3 -14 0 -3 4 0 7 7 7 7 0 10 -3 7 -7z m310 -10 c-4 -3 -7 0 -7 7 0 7 3 10 7 7 3 -4 3 -10 0 -14z m190 0 c-4 -3 -7 0 -7 7 0 7 3 10 7 7 3 -4 3 -10 0 -14z m-1032 -23 c-3 -4 -13 -7 -23 -5 -9 1 -26 -5 -37 -14 -19 -15 -19 -15 -5 3 23 29 82 44 65 16z m790 10 c-3 -5 -12 -10 -18 -10 -7 0 -6 4 3 10 19 12 23 12 15 0z m50 -18 c3 -9 3 -13 -1 -9 -4 4 -14 1 -23 -6 -14 -10 -14 -10 -4 4 10 12 10 18 0 28 -9 10 -9 11 5 6 9 -4 19 -14 23 -23z m-775 7 c0 -4 -9 -7 -19 -6 -11 0 -18 4 -16 7 6 9 35 8 35 -1z m375 1 c3 -5 4 -10 1 -10 -3 0 -8 5 -11 10 -3 6 -4 10 -1 10 3 0 8 -4 11 -10z m102 -5 c0 -8 -4 -12 -9 -9 -5 3 -6 10 -3 15 9 13 12 11 12 -6z m-76 -8 c-6 -8 -7 -18 -3 -22 4 -5 1 -5 -6 -1 -10 6 -10 11 -1 22 6 8 14 14 16 14 3 0 0 -6 -6 -13z m308 -24 c9 -7 11 -13 6 -13 -6 0 -17 6 -23 12 -10 10 -12 7 -10 -12 2 -14 7 -28 12 -31 4 -4 -4 -6 -20 -6 -24 0 -26 1 -11 12 17 13 24 31 8 21 -5 -4 -4 8 2 24 7 17 14 25 16 18 2 -7 11 -18 20 -25z m-262 13 c-1 -6 4 -10 11 -8 10 2 10 -2 2 -18 -6 -11 -14 -20 -18 -21 -4 0 -15 -2 -25 -4 -9 -2 -15 1 -11 6 3 5 9 7 13 5 4 -3 13 -1 21 4 12 7 12 12 -3 28 -14 15 -14 19 -3 19 8 0 14 -5 13 -11z m-520 -28 c-3 -8 -6 -5 -6 6 -1 11 2 17 5 13 3 -3 4 -12 1 -19z m456 -2 c7 4 3 -2 -8 -13 -11 -11 -28 -18 -38 -15 -24 6 -30 19 -11 26 8 3 12 2 9 -4 -3 -5 1 -7 9 -4 8 3 12 13 10 22 -5 14 -4 14 6 -1 6 -9 17 -14 23 -11z m42 14 c3 -5 4 -10 1 -10 -3 0 -8 5 -11 10 -3 6 -4 10 -1 10 3 0 8 -4 11 -10z m336 -13 c-10 -9 -11 -8 -5 6 3 10 9 15 12 12 3 -3 0 -11 -7 -18z m-874 -4 c-4 -3 -10 -3 -14 0 -3 4 0 7 7 7 7 0 10 -3 7 -7z m-663 -12 l109 -6 -56 -37 c-31 -21 -60 -38 -64 -38 -5 -1 -19 -10 -32 -20 -20 -17 -24 -31 -29 -105 l-5 -86 -56 93 c-69 115 -116 179 -125 171 -3 -3 -6 3 -6 15 0 21 4 22 78 21 42 -1 126 -4 186 -8z m1536 -15 c0 -2 -8 -10 -17 -17 -16 -13 -17 -12 -4 4 13 16 21 21 21 13z m-802 -17 c-2 -6 3 -14 10 -16 7 -3 10 1 6 11 -4 11 0 14 15 13 12 -1 21 -2 21 -2 0 -1 -17 -18 -38 -38 -24 -24 -39 -32 -39 -23 0 8 5 14 11 13 12 -2 12 7 1 36 -4 10 -3 17 4 17 6 0 10 -5 9 -11z m472 7 c0 -3 -5 -8 -12 -12 -7 -4 -8 -3 -4 4 7 12 16 16 16 8z m-660 -17 c0 -11 -29 -19 -34 -10 -3 5 -3 10 -1 13 8 7 35 5 35 -3z m560 1 c0 -5 -2 -10 -4 -10 -3 0 -8 5 -11 10 -3 6 -1 10 4 10 6 0 11 -4 11 -10z m1064 -15 c-9 -14 -18 -25 -21 -25 -5 0 5 18 20 38 17 22 18 13 1 -13z m-1027 8 c-4 -3 -10 -3 -14 0 -3 4 0 7 7 7 7 0 10 -3 7 -7z m383 -7 c0 -3 -5 -8 -12 -12 -7 -4 -8 -3 -4 4 7 12 16 16 16 8z m-1001 -16 c13 6 18 5 18 -5 0 -7 -6 -11 -14 -8 -7 3 -13 -1 -13 -8 0 -11 -3 -11 -10 1 -5 8 -9 20 -9 25 0 6 3 4 6 -2 3 -9 10 -10 22 -3z m565 1 c3 -5 -1 -14 -8 -20 -12 -10 -14 -9 -11 6 2 10 4 19 4 21 2 5 10 2 15 -7z m-607 -8 c-4 -3 -10 -3 -14 0 -3 4 0 7 7 7 7 0 10 -3 7 -7z m558 -3 c3 -5 4 -10 1 -10 -3 0 -8 5 -11 10 -3 6 -4 10 -1 10 3 0 8 -4 11 -10z m382 3 c-4 -3 -10 -3 -14 0 -3 4 0 7 7 7 7 0 10 -3 7 -7z m-400 -26 c0 -8 -6 -14 -14 -14 -9 0 -10 4 -2 14 6 7 12 13 14 13 1 0 2 -6 2 -13z m113 9 c0 -3 -5 -8 -12 -12 -7 -4 -8 -3 -4 4 7 12 16 16 16 8z m953 -21 c-3 -9 -8 -14 -10 -11 -3 3 -2 9 2 15 9 16 15 13 8 -4z m572 -20 c138 -8 302 -17 365 -20 63 -3 131 -8 150 -10 19 -2 105 -7 190 -11 85 -3 155 -7 156 -8 0 0 -3 -39 -7 -86 -8 -78 -21 -278 -34 -490 -3 -47 -7 -110 -10 -140 -3 -30 -7 -91 -10 -135 -3 -44 -9 -138 -15 -210 -5 -71 -14 -204 -20 -295 -6 -91 -15 -219 -20 -285 -5 -66 -12 -173 -16 -238 -10 -193 -6 -194 -118 25 -149 292 -316 616 -400 778 l-75 145 -168 -3 c-291 -5 -958 -41 -961 -52 -5 -13 -32 7 -32 22 0 6 16 32 35 58 19 26 35 51 35 55 0 3 11 21 25 39 14 18 25 36 25 41 0 4 16 29 35 55 19 26 35 51 35 55 0 3 11 21 25 39 14 18 25 36 25 41 0 4 16 29 35 55 19 26 35 51 35 55 0 3 11 21 25 39 14 18 25 36 25 40 0 4 11 22 25 40 14 18 25 37 25 41 0 5 11 25 24 44 52 78 133 207 137 216 2 6 22 36 43 68 l39 57 61 -5 c34 -3 174 -12 311 -20z m-2235 11 c0 -3 -5 -8 -12 -12 -7 -4 -8 -3 -4 4 7 12 16 16 16 8z m35 -6 c3 -6 -1 -7 -9 -4 -18 7 -21 14 -7 14 6 0 13 -4 16 -10z m1005 -6 c0 -8 -5 -12 -10 -9 -6 4 -8 11 -5 16 9 14 15 11 15 -7z m-440 -3 c0 -4 -8 -15 -17 -26 -15 -20 -15 -20 -10 2 3 15 1 20 -9 16 -7 -2 -11 -10 -8 -17 3 -7 -2 -13 -10 -13 -11 0 -12 5 -4 22 6 13 19 21 34 21 13 0 24 -2 24 -5z m387 2 c-4 -3 -10 -3 -14 0 -3 4 0 7 7 7 7 0 10 -3 7 -7z m-1034 -20 c-5 -12 -3 -14 7 -8 9 5 11 4 6 -4 -4 -6 -16 -9 -27 -6 -12 4 -19 2 -19 -6 0 -7 -3 -9 -7 -5 -4 4 3 16 17 26 31 24 31 24 23 3z m754 11 c-3 -3 -12 -4 -19 -1 -8 3 -5 6 6 6 11 1 17 -2 13 -5z m983 2 c0 -2 -8 -10 -17 -17 -16 -13 -17 -12 -4 4 13 16 21 21 21 13z m-1505 -43 c-11 -3 -26 -10 -32 -15 -9 -7 -13 -7 -13 1 0 7 -5 9 -12 5 -6 -4 -9 -3 -5 2 3 5 22 10 44 10 21 1 29 0 18 -3z m494 -15 c-12 -23 -21 -24 -12 -1 4 10 2 14 -5 9 -6 -3 -13 -3 -16 2 -2 4 6 8 19 8 20 0 22 -3 14 -18z m-784 -12 c0 -18 -3 -22 -13 -14 -9 8 -9 14 -1 24 15 18 14 18 14 -10z m625 20 c0 -3 -5 -8 -12 -12 -7 -4 -8 -3 -4 4 7 12 16 16 16 8z m507 -13 c-4 -3 -7 0 -7 7 0 7 3 10 7 7 3 -4 3 -10 0 -14z m-940 0 c-4 -3 -10 -3 -14 0 -3 4 0 7 7 7 7 0 10 -3 7 -7z m-227 -7 c0 -2 -8 -10 -17 -17 -16 -13 -17 -12 -4 4 13 16 21 21 21 13z m1725 -26 c10 -11 16 -20 13 -20 -3 0 -13 9 -23 20 -10 11 -16 20 -13 20 3 0 13 -9 23 -20z m33 -5 c-3 -3 -9 2 -12 12 -6 14 -5 15 5 6 7 -7 10 -15 7 -18z m-1748 5 c0 -5 -5 -10 -11 -10 -5 0 -7 5 -4 10 3 6 8 10 11 10 2 0 4 -4 4 -10z m147 3 c-4 -3 -10 -3 -14 0 -3 4 0 7 7 7 7 0 10 -3 7 -7z m480 -8 c0 -8 -4 -12 -9 -9 -5 3 -6 10 -3 15 9 13 12 11 12 -6z m147 -2 c-10 -7 -22 -13 -26 -13 -5 0 -3 6 4 13 7 8 19 14 26 14 11 0 10 -4 -4 -14z m271 -13 c1 -10 -2 -17 -7 -14 -4 3 -8 0 -8 -5 0 -6 -5 -11 -11 -11 -8 0 -9 4 0 13 6 8 8 17 4 20 -3 4 -1 7 6 7 7 0 9 5 5 13 -4 6 -3 9 1 4 5 -4 9 -16 10 -27z m102 11 c0 -11 -5 -18 -9 -15 -4 3 -5 11 -1 19 7 21 12 19 10 -4z m-1172 -22 c-4 -5 -12 -9 -18 -8 -9 0 -8 2 1 6 6 2 9 10 6 15 -4 7 -2 8 5 4 6 -4 9 -12 6 -17z m1412 4 c-4 -3 -7 0 -7 7 0 7 3 10 7 7 3 -4 3 -10 0 -14z m-1467 -8 c0 -8 -4 -15 -10 -15 -5 0 -7 7 -4 15 4 8 8 15 10 15 2 0 4 -7 4 -15z m680 11 c0 -3 -5 -8 -12 -12 -7 -4 -8 -3 -4 4 7 12 16 16 16 8z m154 -14 c3 -5 -1 -9 -9 -9 -8 0 -12 4 -9 9 3 4 7 8 9 8 2 0 6 -4 9 -8z m-107 -24 c-3 -8 -6 -5 -6 6 -1 11 2 17 5 13 3 -3 4 -12 1 -19z m-79 -12 c0 -22 -4 -24 -38 -16 -3 0 3 5 13 11 9 6 15 14 12 20 -4 5 -2 9 3 9 5 0 10 -11 10 -24z m39 7 c-4 -3 -10 -3 -14 0 -3 4 0 7 7 7 7 0 10 -3 7 -7z m420 0 c-4 -3 -10 -3 -14 0 -3 4 0 7 7 7 7 0 10 -3 7 -7z m388 -3 c3 -5 4 -10 1 -10 -3 0 -8 5 -11 10 -3 6 -4 10 -1 10 3 0 8 -4 11 -10z m-368 -15 c0 -8 -2 -13 -5 -10 -3 2 -13 0 -23 -6 -15 -7 -17 -6 -13 6 3 8 10 13 14 10 5 -3 11 -1 15 5 9 14 12 13 12 -5z m343 5 c0 -5 -5 -10 -11 -10 -5 0 -7 5 -4 10 3 6 8 10 11 10 2 0 4 -4 4 -10z m47 -7 c-4 -3 -7 0 -7 7 0 7 3 10 7 7 3 -4 3 -10 0 -14z m-700 -10 c-4 -3 -7 0 -7 7 0 7 3 10 7 7 3 -4 3 -10 0 -14z m897 -15 c-3 -4 4 -8 15 -8 10 0 22 5 24 10 3 6 4 5 3 -2 -2 -7 -14 -13 -28 -13 -20 0 -24 -4 -22 -22 1 -13 -1 -23 -6 -23 -4 0 -8 15 -8 33 0 22 5 34 14 34 7 0 11 -4 8 -9z m-1077 -5 c-4 -3 -10 -3 -14 0 -3 4 0 7 7 7 7 0 10 -3 7 -7z m161 -10 c-12 -15 -22 -18 -14 -4 4 5 0 11 -6 14 -7 3 -3 4 9 4 17 -1 19 -4 11 -14z m432 7 c0 -5 -5 -10 -11 -10 -5 0 -7 5 -4 10 3 6 8 10 11 10 2 0 4 -4 4 -10z m-460 -15 c0 -2 -7 -5 -15 -9 -9 -3 -15 0 -15 9 0 9 6 12 15 9 8 -4 15 -7 15 -9z m-160 -3 c0 -5 -7 -9 -15 -9 -8 0 -15 4 -15 9 0 4 7 8 15 8 8 0 15 -4 15 -8z m27 1 c-4 -3 -10 -3 -14 0 -3 4 0 7 7 7 7 0 10 -3 7 -7z m481 -7 c-7 -8 -15 -12 -17 -11 -5 6 10 25 20 25 5 0 4 -6 -3 -14z m-962 -68 l-76 -73 20 -70 c11 -38 19 -76 18 -83 -2 -7 -50 31 -108 83 -58 52 -113 95 -122 95 -11 0 -16 7 -15 20 1 23 26 31 197 69 131 28 133 29 148 30 8 0 -21 -32 -62 -71z m912 46 c-12 -12 -17 -13 -23 -3 -5 8 -4 10 4 5 6 -4 14 0 17 9 4 9 9 13 12 10 3 -3 -1 -13 -10 -21z m662 10 c0 -8 -5 -12 -10 -9 -6 4 -8 11 -5 16 9 14 15 11 15 -7z m-1157 -1 c9 -8 -12 -33 -27 -33 -6 0 -3 5 8 11 15 9 16 13 5 20 -8 5 -9 9 -3 9 6 0 14 -3 17 -7z m207 3 c0 -2 -7 -7 -16 -10 -8 -3 -12 -2 -9 4 6 10 25 14 25 6z m-163 -13 c-4 -3 -10 -3 -14 0 -3 4 0 7 7 7 7 0 10 -3 7 -7z m83 -17 c0 -3 -5 -8 -12 -12 -7 -4 -8 -3 -4 4 7 12 16 16 16 8z m441 -23 c-12 -20 -14 -14 -5 12 4 9 9 14 11 11 3 -2 0 -13 -6 -23z m564 17 c-3 -5 -12 -10 -18 -10 -7 0 -6 4 3 10 19 12 23 12 15 0z m-1040 -10 c-3 -5 -1 -10 6 -10 7 0 10 -3 6 -6 -9 -9 -28 6 -22 17 4 5 8 9 11 9 3 0 2 -4 -1 -10z m-105 -10 c0 -5 -2 -10 -4 -10 -3 0 -8 5 -11 10 -3 6 -1 10 4 10 6 0 11 -4 11 -10z m488 -25 c-1 -14 -7 -21 -15 -18 -7 3 -12 15 -11 28 1 14 7 21 15 18 7 -3 12 -15 11 -28z m402 25 c0 -5 -5 -10 -11 -10 -5 0 -7 5 -4 10 3 6 8 10 11 10 2 0 4 -4 4 -10z m-257 -15 c-3 -9 -8 -14 -10 -11 -3 3 -2 9 2 15 9 16 15 13 8 -4z m-688 -15 c3 -5 4 -10 1 -10 -3 0 -8 5 -11 10 -3 6 -4 10 -1 10 3 0 8 -4 11 -10z m62 3 c-4 -3 -10 -3 -14 0 -3 4 0 7 7 7 7 0 10 -3 7 -7z m880 -13 c-2 -11 -6 -23 -10 -26 -11 -11 -8 -26 3 -19 6 3 10 2 10 -4 0 -5 -5 -13 -10 -16 -13 -8 -24 21 -14 37 9 13 10 18 13 38 0 6 3 10 6 10 3 0 4 -9 2 -20z m213 0 c-6 -11 -8 -20 -5 -20 4 0 3 -5 0 -10 -5 -8 -11 -7 -21 1 -12 10 -13 9 -8 -5 3 -9 1 -16 -6 -16 -6 0 -10 8 -8 18 2 9 9 16 16 15 6 -2 16 6 22 17 6 11 13 20 16 20 2 0 0 -9 -6 -20z m-1155 -22 c4 0 11 6 15 12 5 9 9 9 14 1 4 -6 2 -11 -3 -11 -6 0 -11 -5 -11 -11 0 -5 5 -7 12 -3 7 4 8 3 4 -4 -5 -8 -13 -9 -25 -2 -13 6 -24 5 -37 -4 -16 -12 -16 -16 -5 -30 8 -9 11 -19 7 -23 -3 -3 -6 0 -7 8 0 8 -4 6 -9 -6 -8 -18 -9 -18 -9 -2 -1 10 -6 15 -11 12 -6 -4 -7 -11 -4 -17 4 -7 2 -8 -4 -4 -7 4 -12 2 -12 -3 0 -6 -5 -11 -11 -11 -8 0 -9 4 0 13 6 8 8 17 4 21 -4 4 3 9 15 13 20 5 27 15 23 36 -1 5 3 6 8 3 5 -4 13 3 16 15 5 15 10 18 15 9 4 -6 11 -12 15 -12z m64 6 c4 3 12 2 18 -2 7 -5 0 -14 -19 -25 -21 -12 -27 -13 -19 -4 6 8 10 21 8 28 -2 8 -2 11 0 6 3 -4 8 -5 12 -3z m607 -20 c-11 -10 -14 -19 -7 -23 5 -4 0 -15 -12 -28 l-23 -21 2 37 c4 68 3 65 19 51 12 -10 15 -9 15 6 0 13 3 15 11 7 9 -9 7 -16 -5 -29z m-170 -31 c-3 -4 -6 -1 -6 6 0 7 -4 9 -10 6 -6 -4 -7 1 -3 11 6 15 7 15 15 -1 6 -9 7 -19 4 -22z m29 27 c3 -5 2 -10 -4 -10 -5 0 -13 5 -16 10 -3 6 -2 10 4 10 5 0 13 -4 16 -10z m-517 -21 c13 0 13 -2 -3 -8 -25 -10 -53 8 -33 20 7 5 15 4 16 -1 2 -6 11 -10 20 -11z m472 -23 c0 -2 -7 -7 -16 -10 -8 -3 -12 -2 -9 4 6 10 25 14 25 6z m435 -6 c-3 -5 -2 -10 4 -10 5 0 11 5 13 12 2 6 4 -12 4 -40 0 -29 -3 -52 -7 -52 -4 0 -6 12 -4 27 1 16 -4 32 -13 39 -13 9 -10 34 4 34 3 0 2 -4 -1 -10z m130 -20 c3 -5 4 -10 1 -10 -3 0 -8 5 -11 10 -3 6 -4 10 -1 10 3 0 8 -4 11 -10z m-585 -10 c0 -5 -5 -10 -11 -10 -5 0 -7 5 -4 10 3 6 8 10 11 10 2 0 4 -4 4 -10z m-576 -9 c3 -5 -1 -11 -9 -14 -9 -4 -12 -1 -8 9 6 16 10 17 17 5z m1183 -6 c0 -8 -3 -13 -5 -10 -3 3 -12 -1 -21 -7 -10 -8 -9 -4 3 10 23 26 23 26 23 7z m-160 -12 c-4 -3 -7 0 -7 7 0 7 3 10 7 7 3 -4 3 -10 0 -14z m-447 -6 c0 -8 -6 -14 -14 -14 -8 0 -12 6 -9 14 3 7 9 13 14 13 5 0 9 -6 9 -13z m85 -23 c-11 -8 -20 -18 -20 -23 0 -4 -8 -15 -17 -25 -10 -10 -18 -12 -18 -6 0 6 -5 8 -10 5 -6 -4 -7 -12 -3 -18 4 -7 0 -6 -10 2 -18 14 -24 26 -8 17 5 -3 15 2 22 11 12 15 12 16 -2 11 -13 -5 -16 -2 -12 13 6 22 28 21 28 -1 0 -7 5 -15 12 -17 8 -3 11 3 8 17 -2 11 -1 18 4 16 4 -3 13 -1 21 5 24 14 27 10 5 -7z m365 12 c0 -3 -5 -8 -12 -12 -7 -4 -8 -3 -4 4 7 12 16 16 16 8z m-820 -83 c-23 -43 -46 -82 -50 -87 -8 -8 10 -47 60 -130 l23 -38 -29 14 c-91 45 -249 128 -276 144 -13 8 40 42 147 94 44 21 94 47 110 58 55 37 58 25 15 -55z m935 58 c-3 -6 -11 -11 -16 -11 -5 0 -4 6 3 14 14 16 24 13 13 -3z m-578 -18 c-4 -3 -10 -3 -14 0 -3 4 0 7 7 7 7 0 10 -3 7 -7z m503 3 c0 -2 -7 -6 -15 -10 -8 -3 -15 -1 -15 4 0 6 7 10 15 10 8 0 15 -2 15 -4z m80 -10 c0 -2 -7 -7 -16 -10 -8 -3 -12 -2 -9 4 6 10 25 14 25 6z m-137 -31 c-3 -9 -8 -14 -10 -11 -3 3 -2 9 2 15 9 16 15 13 8 -4z m47 5 c0 -5 -7 -7 -15 -4 -8 4 -15 8 -15 10 0 2 7 4 15 4 8 0 15 -4 15 -10z m49 -22 c-5 -10 -14 -18 -20 -18 -6 0 -7 -6 -3 -12 4 -7 3 -9 -1 -5 -16 14 -14 36 3 30 11 -5 14 -2 10 9 -4 8 -1 15 7 15 10 0 11 -5 4 -19z m-559 8 c0 -3 -5 -8 -12 -12 -7 -4 -8 -3 -4 4 7 12 16 16 16 8z m10 -30 c0 -3 -5 -8 -12 -12 -7 -4 -8 -3 -4 4 7 12 16 16 16 8z m480 -19 c11 -5 9 -6 -4 -4 -11 1 -21 9 -23 17 -3 10 -2 11 4 4 4 -6 15 -14 23 -17z m7 16 c-4 -3 -10 -3 -14 0 -3 4 0 7 7 7 7 0 10 -3 7 -7z m-553 -38 c-4 -8 -11 -12 -17 -8 -8 5 -7 8 1 11 7 2 9 9 6 14 -4 7 -2 8 4 4 6 -4 9 -13 6 -21z m512 -11 c1 -9 0 -13 -4 -10 -3 4 -7 14 -8 22 -1 9 0 13 4 10 3 -4 7 -14 8 -22z m-290 -45 c-8 -30 -20 -70 -25 -89 -16 -53 -15 -56 45 -115 32 -31 54 -58 51 -62 -4 -3 -32 1 -64 10 -81 23 -203 47 -234 47 -14 0 -29 3 -32 7 -4 3 28 38 70 77 42 39 103 97 136 129 33 31 62 55 64 53 2 -2 -3 -27 -11 -57z m331 35 c15 -14 14 -15 -3 -12 -13 2 -18 -2 -16 -14 2 -11 -3 -18 -12 -18 -10 0 -13 -6 -10 -17 5 -15 4 -16 -5 -3 -9 13 -11 13 -11 -2 0 -10 5 -18 11 -18 8 0 8 -5 -1 -15 -7 -8 -18 -15 -24 -14 -7 0 -6 2 1 6 8 3 11 14 7 29 -5 18 -1 30 12 40 18 15 18 15 1 10 -11 -3 -16 -2 -12 4 3 6 13 10 21 10 8 0 14 7 14 15 0 19 7 19 27 -1z m20 9 c-4 -3 -10 -3 -14 0 -3 4 0 7 7 7 7 0 10 -3 7 -7z m-590 -20 c-4 -3 -10 -3 -14 0 -3 4 0 7 7 7 7 0 10 -3 7 -7z m500 -130 c-4 -3 -7 0 -7 7 0 7 3 10 7 7 3 -4 3 -10 0 -14z m-1887 -1002 c0 -6 -4 -13 -10 -16 -5 -3 -10 1 -10 9 0 9 5 16 10 16 6 0 10 -4 10 -9z m860 -425 c0 -3 -4 -8 -10 -11 -5 -3 -10 -1 -10 4 0 6 5 11 10 11 6 0 10 -2 10 -4z m1885 -116 c3 -5 4 -10 1 -10 -3 0 -8 5 -11 10 -3 6 -4 10 -1 10 3 0 8 -4 11 -10z m-958 -77 c-4 -3 -7 0 -7 7 0 7 3 10 7 7 3 -4 3 -10 0 -14z"/>
 <path d="M1684 3418 c-4 -7 -3 -8 4 -4 12 7 16 16 8 16 -3 0 -8 -5 -12 -12z"/>
 <path d="M1627 3370 c-16 -16 -16 -17 6 -14 12 1 26 3 30 3 5 1 6 5 2 10 -3 5 3 12 12 14 11 3 8 4 -7 4 -14 -1 -33 -8 -43 -17z"/>
 <path d="M2210 3380 c0 -7 3 -10 7 -7 3 4 3 10 0 14 -4 3 -7 0 -7 -7z"/>
 <path d="M1660 2430 c0 -7 3 -10 7 -7 3 4 3 10 0 14 -4 3 -7 0 -7 -7z"/>
 <path d="M1775 2370 c-3 -5 -1 -10 4 -10 6 0 11 5 11 10 0 6 -2 10 -4 10 -3 0 -8 -4 -11 -10z"/>
 <path d="M1774 2338 c-4 -7 -3 -8 4 -4 12 7 16 16 8 16 -3 0 -8 -5 -12 -12z"/>
 </g>
<g id="layer112" fill="#3c8dd3" stroke="none">
 <path d="M0 1995 l0 -1995 1995 0 1995 0 0 1995 0 1995 -1995 0 -1995 0 0 -1995z m2576 1524 c181 -94 392 -204 469 -244 77 -40 248 -129 380 -198 132 -68 286 -148 343 -177 56 -29 101 -55 99 -56 -2 -2 -183 8 -402 21 -712 43 -825 49 -835 39 -4 -5 -52 -78 -105 -163 -53 -85 -109 -166 -123 -181 -15 -15 -37 -48 -50 -73 -13 -26 -29 -53 -36 -59 -6 -7 -82 -125 -169 -262 -86 -137 -157 -243 -157 -235 1 8 18 133 39 279 84 583 191 1349 197 1413 3 37 9 67 14 67 4 0 156 -77 336 -171z m-806 117 c-30 -19 -59 -38 -65 -43 -5 -5 -17 -12 -25 -15 -24 -9 -464 -269 -481 -284 -8 -8 -19 -14 -23 -14 -11 0 -420 -242 -428 -253 -7 -11 -100 -11 -338 -1 -144 6 -170 9 -159 17 8 7 1554 625 1564 626 6 0 -15 -15 -45 -33z m357 -63 c-4 -3 -7 0 -7 7 0 7 3 10 7 7 3 -4 3 -10 0 -14z m-312 -65 c-27 -29 -173 -178 -325 -330 -151 -153 -272 -278 -269 -278 3 0 -40 -46 -95 -103 -56 -56 -104 -101 -107 -100 -3 1 -50 -9 -105 -22 -99 -23 -267 -61 -314 -71 -21 -4 -20 -1 12 22 21 15 38 31 38 36 0 4 5 8 11 8 6 0 53 33 106 73 53 39 105 79 117 87 12 8 83 62 160 120 76 58 153 115 170 126 17 12 168 126 336 252 168 127 307 231 310 232 2 0 -18 -24 -45 -52z m302 30 c-3 -8 -6 -5 -6 6 -1 11 2 17 5 13 3 -3 4 -12 1 -19z m-173 -95 c-21 -38 -47 -85 -59 -105 -11 -20 -57 -102 -102 -182 -46 -79 -83 -147 -83 -151 0 -3 -5 -11 -11 -18 -6 -7 -75 -127 -154 -266 l-144 -255 -193 -102 c-106 -56 -194 -101 -196 -99 -3 3 115 158 217 285 16 19 67 85 114 145 47 61 109 138 136 171 28 34 51 65 51 70 0 5 10 19 23 30 12 12 114 139 227 283 113 143 207 261 208 261 2 0 -13 -30 -34 -67z m125 -94 c-22 -85 -69 -266 -104 -404 -76 -296 -97 -376 -131 -510 -30 -112 -19 -99 -240 -300 -127 -117 -129 -118 -101 -53 13 29 155 362 317 740 162 378 296 686 297 684 1 -1 -16 -72 -38 -157z m-1619 -447 l85 -7 -91 -54 c-102 -60 -104 -63 -104 -181 l0 -55 -58 95 c-70 117 -117 181 -126 173 -3 -3 -6 3 -6 15 0 21 4 22 108 21 59 -1 145 -4 192 -7z m2945 -153 c297 -17 540 -32 541 -33 0 0 -3 -39 -7 -86 -8 -78 -21 -278 -34 -490 -3 -47 -7 -110 -10 -140 -3 -30 -7 -91 -10 -135 -3 -44 -9 -138 -15 -210 -5 -71 -14 -204 -20 -295 -6 -91 -15 -219 -20 -285 -5 -66 -12 -173 -16 -238 -10 -193 -6 -194 -118 25 -149 292 -316 616 -400 778 l-75 145 -168 -3 c-266 -4 -956 -41 -962 -51 -4 -5 -13 -4 -23 3 -15 11 -12 19 31 87 26 40 121 191 211 334 89 143 197 314 238 380 41 66 95 151 120 189 l44 68 77 -6 c42 -3 319 -20 616 -37z m-2605 -304 l-74 -74 18 -76 c10 -42 16 -78 14 -80 -2 -2 -51 38 -108 90 -58 52 -113 95 -122 95 -12 0 -18 8 -18 23 0 20 12 25 158 58 225 52 221 53 132 -36z m454 -257 c-74 -132 -72 -116 -25 -203 l42 -76 -28 14 c-38 18 -155 79 -222 114 -29 16 -53 33 -53 38 0 8 295 172 314 174 4 1 -8 -27 -28 -61z m481 -204 l-25 -98 57 -58 c31 -31 54 -60 50 -64 -3 -4 -32 0 -64 9 -82 23 -203 47 -235 47 -15 0 -29 4 -32 9 -6 8 264 264 271 257 2 -2 -8 -48 -22 -102z m-1615 -1063 c0 -6 -4 -13 -10 -16 -5 -3 -10 1 -10 9 0 9 5 16 10 16 6 0 10 -4 10 -9z m860 -425 c0 -3 -4 -8 -10 -11 -5 -3 -10 -1 -10 4 0 6 5 11 10 11 6 0 10 -2 10 -4z m1885 -116 c3 -5 4 -10 1 -10 -3 0 -8 5 -11 10 -3 6 -4 10 -1 10 3 0 8 -4 11 -10z m-958 -77 c-4 -3 -7 0 -7 7 0 7 3 10 7 7 3 -4 3 -10 0 -14z"/>
 </g>
<g id="layer113" fill="#2292f8" stroke="none">
 <path d="M0 1995 l0 -1995 1995 0 1995 0 0 1995 0 1995 -1995 0 -1995 0 0 -1995z m2576 1524 c181 -94 392 -204 469 -244 77 -40 248 -129 380 -198 132 -68 286 -148 343 -177 56 -29 101 -55 99 -56 -2 -2 -183 8 -402 21 -712 43 -825 49 -835 39 -4 -5 -52 -78 -105 -163 -53 -85 -109 -166 -123 -181 -15 -15 -37 -48 -50 -73 -13 -26 -29 -53 -36 -59 -6 -7 -82 -125 -169 -262 -86 -137 -157 -243 -157 -235 1 8 18 133 39 279 84 583 191 1349 197 1413 3 37 9 67 14 67 4 0 156 -77 336 -171z m-806 117 c-30 -19 -59 -38 -65 -43 -5 -5 -17 -12 -25 -15 -24 -9 -464 -269 -481 -284 -8 -8 -19 -14 -23 -14 -11 0 -420 -242 -428 -253 -7 -11 -100 -11 -338 -1 -144 6 -170 9 -159 17 8 7 1554 625 1564 626 6 0 -15 -15 -45 -33z m357 -63 c-4 -3 -7 0 -7 7 0 7 3 10 7 7 3 -4 3 -10 0 -14z m-312 -65 c-27 -29 -173 -178 -325 -330 -151 -153 -272 -278 -269 -278 3 0 -40 -46 -95 -103 -56 -56 -104 -101 -107 -100 -3 1 -50 -9 -105 -22 -99 -23 -267 -61 -314 -71 -21 -4 -20 -1 12 22 21 15 38 31 38 36 0 4 5 8 11 8 6 0 53 33 106 73 53 39 105 79 117 87 12 8 83 62 160 120 76 58 153 115 170 126 17 12 168 126 336 252 168 127 307 231 310 232 2 0 -18 -24 -45 -52z m302 30 c-3 -8 -6 -5 -6 6 -1 11 2 17 5 13 3 -3 4 -12 1 -19z m-173 -95 c-21 -38 -47 -85 -59 -105 -11 -20 -57 -102 -102 -182 -46 -79 -83 -147 -83 -151 0 -3 -5 -11 -11 -18 -6 -7 -75 -127 -154 -266 l-144 -255 -193 -102 c-106 -56 -194 -101 -196 -99 -3 3 115 158 217 285 16 19 67 85 114 145 47 61 109 138 136 171 28 34 51 65 51 70 0 5 10 19 23 30 12 12 114 139 227 283 113 143 207 261 208 261 2 0 -13 -30 -34 -67z m125 -94 c-22 -85 -69 -266 -104 -404 -76 -296 -97 -376 -131 -510 -30 -112 -19 -99 -240 -300 -127 -117 -129 -118 -101 -53 13 29 155 362 317 740 162 378 296 686 297 684 1 -1 -16 -72 -38 -157z m-1619 -447 l85 -7 -91 -54 c-109 -64 -103 -48 -106 -291 l-2 -165 -5 116 c-6 107 -8 118 -33 148 -16 18 -28 37 -28 43 0 9 -40 73 -82 133 -15 20 -25 -16 -27 -93 -1 -42 -7 -81 -13 -87 -8 -7 -9 -3 -4 15 3 14 6 76 6 138 l0 112 108 -1 c59 -1 145 -4 192 -7z m2845 -147 c319 -19 595 -35 613 -35 28 0 32 -3 27 -22 -2 -13 -14 -162 -25 -333 -11 -170 -22 -339 -25 -375 -15 -176 -85 -1238 -85 -1281 0 -27 -3 -49 -6 -49 -7 0 -442 268 -841 517 -138 87 -305 191 -370 232 -65 41 -165 103 -223 139 -58 35 -130 80 -160 99 -30 19 -78 49 -107 67 l-52 31 48 75 c26 41 121 192 211 335 89 143 197 314 238 380 124 198 162 255 170 255 4 0 268 -16 587 -35z m-3154 -640 l-8 -70 -2 91 c0 50 2 174 7 275 l7 184 3 -205 c1 -113 -2 -237 -7 -275z m650 331 l-74 -75 22 -101 c13 -55 21 -104 17 -107 -3 -4 -6 -1 -6 5 0 16 -161 172 -177 172 -7 0 -17 9 -23 20 -20 37 -29 11 -14 -38 8 -26 19 -61 24 -78 6 -17 10 -40 10 -51 0 -11 12 -65 26 -119 27 -102 47 -204 41 -210 -2 -2 -34 127 -72 286 -38 160 -67 291 -64 293 8 6 314 75 339 76 21 1 15 -9 -49 -73z m-462 -476 c-5 -206 -10 -411 -13 -455 -2 -44 -1 123 1 370 4 399 7 475 18 463 1 -2 -1 -172 -6 -378z m915 218 c-19 -35 -42 -77 -51 -94 l-15 -31 122 -229 c67 -126 126 -233 130 -239 4 -5 24 -41 45 -80 81 -149 203 -372 222 -406 12 -20 66 -119 122 -221 91 -168 101 -191 100 -235 l-2 -48 -7 57 c-4 32 -16 70 -26 85 -31 46 -42 66 -64 111 -11 24 -35 67 -54 95 -19 29 -48 81 -66 117 -47 98 -60 122 -85 160 -12 19 -47 82 -77 140 -61 117 -102 185 -118 195 -5 3 -10 13 -10 22 0 22 -139 276 -157 286 -7 4 -13 13 -13 20 0 14 -227 134 -236 125 -6 -6 66 -149 114 -228 12 -19 26 -44 31 -55 34 -72 47 -99 87 -170 24 -44 62 -116 84 -160 48 -97 118 -224 134 -245 7 -8 18 -28 25 -45 23 -55 125 -249 141 -270 5 -5 30 -53 56 -105 27 -52 51 -97 54 -100 4 -3 35 -61 69 -130 64 -126 77 -148 85 -139 3 3 7 52 11 109 3 57 9 108 14 113 9 9 6 -129 -5 -242 l-6 -54 -40 74 c-113 208 -495 922 -558 1044 -40 77 -85 163 -100 190 -15 28 -49 91 -75 140 -26 50 -72 134 -101 188 -30 53 -54 103 -54 110 0 7 -5 18 -11 24 -8 8 12 23 73 56 45 24 117 63 158 85 41 22 78 41 82 41 4 1 -8 -27 -28 -61z m-436 -206 c22 -90 36 -160 31 -155 -4 4 -17 48 -29 97 -11 50 -24 95 -29 100 -8 11 -24 132 -16 124 2 -2 22 -77 43 -166z m917 2 l-25 -98 57 -60 c32 -34 101 -105 152 -159 52 -53 92 -100 89 -103 -3 -3 -51 40 -106 96 -67 67 -105 98 -115 94 -8 -3 -18 -1 -22 5 -3 6 -21 11 -40 11 -19 0 -44 4 -57 9 -32 12 -120 32 -124 29 -3 -4 66 -80 181 -200 44 -45 95 -101 114 -123 18 -22 65 -74 105 -116 39 -42 100 -108 135 -147 35 -40 102 -112 150 -161 47 -49 110 -117 140 -150 29 -34 59 -61 66 -61 8 0 16 -8 19 -18 5 -14 32 -44 140 -152 9 -8 50 -53 93 -100 43 -47 83 -86 89 -88 6 -2 17 -14 24 -27 7 -13 18 -26 25 -28 14 -6 4 62 -32 213 -28 115 -14 96 -180 266 -109 112 -227 238 -270 287 -18 20 -36 37 -40 37 -4 0 -26 22 -48 48 -22 26 -76 84 -120 130 -44 45 -82 88 -83 95 -4 12 85 -77 303 -303 66 -69 170 -177 231 -240 199 -206 198 -206 218 -301 9 -46 27 -132 40 -191 13 -60 23 -108 21 -108 -4 0 -412 432 -727 770 -69 74 -231 248 -359 385 -128 138 -248 264 -266 281 l-33 32 137 126 c75 69 138 124 140 122 2 -2 -8 -48 -22 -102z m-1606 -318 c-9 -8 -10 -5 -5 14 3 14 7 77 8 140 l2 115 3 -129 c3 -89 0 -133 -8 -140z m557 87 c2 -24 9 -54 14 -68 6 -15 10 -41 10 -60 0 -19 5 -46 11 -62 7 -15 15 -48 20 -73 4 -25 12 -63 18 -85 6 -22 15 -58 20 -80 5 -22 16 -65 24 -95 18 -66 32 -173 17 -125 -21 65 -170 715 -170 739 0 28 32 -54 36 -91z m184 16 c9 -31 8 -32 -5 -15 -8 11 -15 29 -15 40 0 26 9 16 20 -25z m113 -462 c58 -230 99 -413 92 -407 -7 6 -15 31 -19 57 -3 25 -22 103 -41 172 -43 158 -64 243 -75 301 -4 25 -13 58 -20 75 -6 16 -17 61 -25 100 -7 38 -17 84 -21 100 -4 17 -4 28 -1 24 4 -3 53 -193 110 -422z m-852 178 l-8 -120 -2 130 c-1 86 2 126 9 119 6 -6 7 -52 1 -129z m194 -172 c-7 -86 -8 -90 -69 -183 -35 -52 -82 -126 -107 -165 -44 -70 -44 -70 -47 -37 -2 18 -1 45 1 60 4 25 5 26 12 5 7 -21 8 -21 33 10 36 43 63 81 110 158 33 55 40 74 45 141 5 73 11 98 23 98 3 0 3 -39 -1 -87z m-214 -286 c-7 -7 -9 0 -6 19 2 16 5 79 6 139 l3 110 3 -129 c2 -76 0 -133 -6 -139z m757 -87 c16 -63 32 -133 36 -155 4 -22 13 -62 21 -90 8 -27 19 -72 26 -98 6 -26 16 -46 22 -44 9 3 87 230 103 300 4 17 9 26 11 19 4 -10 -51 -197 -103 -350 -13 -41 -34 19 -91 259 -34 145 -62 268 -63 273 -1 27 12 -12 38 -114z m112 -444 c0 -3 -4 -8 -10 -11 -5 -3 -10 -1 -10 4 0 6 5 11 10 11 6 0 10 -2 10 -4z"/>
 <path d="M2791 1767 c-5 -5 -91 -11 -191 -13 -100 -2 -186 -7 -192 -10 -5 -3 -44 -4 -88 -3 -43 2 -82 0 -86 -4 -4 -4 -31 -7 -61 -7 -29 0 -53 -4 -53 -10 0 -5 30 -26 68 -46 37 -21 83 -50 102 -64 19 -15 61 -43 93 -61 32 -19 71 -42 85 -51 15 -10 36 -22 47 -28 39 -20 240 -150 256 -165 9 -8 19 -15 22 -15 4 0 26 -13 49 -29 94 -62 157 -101 166 -101 6 0 17 -6 24 -12 22 -21 69 -52 132 -88 33 -18 81 -47 107 -64 77 -50 140 -88 214 -131 39 -22 110 -66 159 -98 98 -65 116 -74 116 -59 0 10 -93 193 -322 637 -54 105 -126 244 -160 311 l-61 120 -209 0 c-115 -1 -213 -5 -217 -9z"/>
 </g>
<g id="layer114" fill="#d5f8fe" stroke="none">
 <path d="M0 1995 l0 -1995 1995 0 1995 0 0 1995 0 1995 -1995 0 -1995 0 0 -1995z m2576 1524 c181 -94 392 -204 469 -244 77 -40 248 -129 380 -198 132 -68 286 -148 343 -177 56 -29 101 -55 99 -56 -2 -2 -183 8 -402 21 -712 43 -825 49 -835 39 -4 -5 -52 -78 -105 -163 -53 -85 -109 -166 -123 -181 -15 -15 -37 -48 -50 -73 -13 -26 -29 -53 -36 -59 -6 -7 -82 -125 -169 -262 -86 -137 -157 -243 -157 -235 1 8 18 133 39 279 84 583 191 1349 197 1413 3 37 9 67 14 67 4 0 156 -77 336 -171z m-806 117 c-30 -19 -59 -38 -65 -43 -5 -5 -17 -12 -25 -15 -24 -9 -464 -269 -481 -284 -8 -8 -19 -14 -23 -14 -11 0 -420 -242 -428 -253 -7 -11 -100 -11 -338 -1 -144 6 -170 9 -159 17 8 7 1554 625 1564 626 6 0 -15 -15 -45 -33z m357 -63 c-4 -3 -7 0 -7 7 0 7 3 10 7 7 3 -4 3 -10 0 -14z m-312 -65 c-27 -29 -173 -178 -325 -330 -151 -153 -272 -278 -269 -278 3 0 -40 -46 -95 -103 -56 -56 -104 -101 -107 -100 -3 1 -50 -9 -105 -22 -99 -23 -267 -61 -314 -71 -21 -4 -20 -1 12 22 21 15 38 31 38 36 0 4 5 8 11 8 6 0 53 33 106 73 53 39 105 79 117 87 12 8 83 62 160 120 76 58 153 115 170 126 17 12 168 126 336 252 168 127 307 231 310 232 2 0 -18 -24 -45 -52z m302 30 c-3 -8 -6 -5 -6 6 -1 11 2 17 5 13 3 -3 4 -12 1 -19z m-173 -95 c-21 -38 -47 -85 -59 -105 -11 -20 -57 -102 -102 -182 -46 -79 -83 -147 -83 -151 0 -3 -5 -11 -11 -18 -6 -7 -75 -127 -154 -266 l-144 -255 -193 -102 c-106 -56 -194 -101 -196 -99 -3 3 115 158 217 285 16 19 67 85 114 145 47 61 109 138 136 171 28 34 51 65 51 70 0 5 10 19 23 30 12 12 114 139 227 283 113 143 207 261 208 261 2 0 -13 -30 -34 -67z m125 -94 c-22 -85 -69 -266 -104 -404 -76 -296 -97 -376 -131 -510 -30 -112 -19 -99 -240 -300 -127 -117 -129 -118 -101 -53 13 29 155 362 317 740 162 378 296 686 297 684 1 -1 -16 -72 -38 -157z m-1619 -447 l85 -7 -80 -47 c-44 -26 -87 -52 -95 -57 -12 -9 -17 -124 -31 -784 l-16 -775 -65 -98 c-35 -55 -84 -129 -107 -166 -24 -38 -45 -68 -48 -68 -3 0 -2 64 1 142 4 79 13 375 21 658 9 283 20 643 25 800 5 157 10 313 10 348 l0 62 108 -1 c59 -1 145 -4 192 -7z m2845 -147 c319 -19 595 -35 613 -35 28 0 32 -3 27 -22 -2 -13 -14 -162 -25 -333 -11 -170 -22 -339 -25 -375 -15 -176 -85 -1238 -85 -1281 0 -27 -3 -49 -6 -49 -7 0 -442 268 -841 517 -138 87 -305 191 -370 232 -65 41 -165 103 -223 139 -58 35 -130 80 -160 99 -30 19 -78 49 -107 67 l-52 31 48 75 c26 41 121 192 211 335 89 143 197 314 238 380 124 198 162 255 170 255 4 0 268 -16 587 -35z m-2505 -310 l-74 -74 18 -78 c37 -162 152 -632 248 -1018 l100 -400 -15 -55 c-38 -143 -96 -305 -108 -305 -9 0 -36 98 -85 305 -171 730 -203 869 -219 945 -10 44 -48 210 -86 369 -38 159 -69 294 -69 300 0 10 287 82 340 85 21 1 15 -9 -50 -74z m454 -257 c-19 -35 -42 -77 -51 -94 l-15 -31 122 -229 c67 -126 126 -233 130 -239 4 -5 24 -41 45 -80 81 -149 203 -372 222 -406 12 -20 67 -120 123 -223 l102 -188 -6 -152 c-4 -83 -9 -173 -12 -200 l-6 -48 -40 73 c-113 208 -495 922 -558 1044 -40 77 -85 163 -100 190 -15 28 -49 91 -75 140 -26 50 -72 134 -101 188 -30 53 -54 103 -54 110 0 7 -5 18 -11 24 -8 8 12 23 73 56 45 24 117 63 158 85 41 22 78 41 82 41 4 1 -8 -27 -28 -61z m481 -204 l-25 -98 57 -60 c32 -34 99 -104 148 -156 50 -52 194 -203 320 -335 126 -132 275 -287 330 -345 55 -57 107 -111 117 -120 9 -8 36 -38 60 -66 39 -44 47 -61 62 -135 9 -46 27 -132 40 -191 13 -60 23 -108 21 -108 -4 0 -412 432 -727 770 -69 74 -231 248 -359 385 -128 138 -248 264 -266 281 l-33 32 137 126 c75 69 138 124 140 122 2 -2 -8 -48 -22 -102z m-755 -1488 c0 -3 -4 -8 -10 -11 -5 -3 -10 -1 -10 4 0 6 5 11 10 11 6 0 10 -2 10 -4z"/>
 </g>
<g id="layer115" fill="#fdfefe" stroke="none">
 <path d="M0 1995 l0 -1995 1995 0 1995 0 0 1995 0 1995 -1995 0 -1995 0 0 -1995z m2576 1524 c181 -94 392 -204 469 -244 77 -40 248 -129 380 -198 132 -68 286 -148 343 -177 56 -29 101 -55 99 -56 -2 -2 -183 8 -402 21 -712 43 -825 49 -835 39 -4 -5 -52 -78 -105 -163 -53 -85 -109 -166 -123 -181 -15 -15 -37 -48 -50 -73 -13 -26 -29 -53 -36 -59 -6 -7 -82 -125 -169 -262 -86 -137 -157 -243 -157 -235 1 8 18 133 39 279 84 583 191 1349 197 1413 3 37 9 67 14 67 4 0 156 -77 336 -171z m-806 117 c-30 -19 -59 -38 -65 -43 -5 -5 -17 -12 -25 -15 -24 -9 -464 -269 -481 -284 -8 -8 -19 -14 -23 -14 -11 0 -420 -242 -428 -253 -7 -11 -100 -11 -338 -1 -144 6 -170 9 -159 17 8 7 1554 625 1564 626 6 0 -15 -15 -45 -33z m357 -63 c-4 -3 -7 0 -7 7 0 7 3 10 7 7 3 -4 3 -10 0 -14z m-312 -65 c-27 -29 -173 -178 -325 -330 -151 -153 -272 -278 -269 -278 3 0 -40 -46 -95 -103 -56 -56 -104 -101 -107 -100 -3 1 -50 -9 -105 -22 -99 -23 -267 -61 -314 -71 -21 -4 -20 -1 12 22 21 15 38 31 38 36 0 4 5 8 11 8 6 0 53 33 106 73 53 39 105 79 117 87 12 8 83 62 160 120 76 58 153 115 170 126 17 12 168 126 336 252 168 127 307 231 310 232 2 0 -18 -24 -45 -52z m302 30 c-3 -8 -6 -5 -6 6 -1 11 2 17 5 13 3 -3 4 -12 1 -19z m-173 -95 c-21 -38 -47 -85 -59 -105 -11 -20 -57 -102 -102 -182 -46 -79 -83 -147 -83 -151 0 -3 -5 -11 -11 -18 -6 -7 -75 -127 -154 -266 l-144 -255 -193 -102 c-106 -56 -194 -101 -196 -99 -3 3 115 158 217 285 16 19 67 85 114 145 47 61 109 138 136 171 28 34 51 65 51 70 0 5 10 19 23 30 12 12 114 139 227 283 113 143 207 261 208 261 2 0 -13 -30 -34 -67z m125 -94 c-22 -85 -69 -266 -104 -404 -76 -296 -97 -376 -131 -510 -30 -112 -19 -99 -240 -300 -127 -117 -129 -118 -101 -53 13 29 155 362 317 740 162 378 296 686 297 684 1 -1 -16 -72 -38 -157z m-1554 -451 c14 -2 -9 -20 -72 -58 -68 -40 -93 -60 -93 -75 -1 -11 -2 -251 -5 -533 -2 -344 -7 -517 -14 -526 -6 -7 -8 -15 -5 -19 9 -9 4 -410 -6 -422 -5 -6 -7 -21 -4 -32 4 -12 -1 -29 -10 -40 -41 -45 -66 -82 -66 -95 0 -8 -11 -28 -25 -44 -14 -16 -25 -32 -25 -35 0 -4 -10 -19 -22 -35 -12 -15 -23 -35 -25 -43 -2 -15 -30 -41 -45 -41 -18 0 -26 40 -19 100 4 36 9 146 10 245 1 99 6 184 10 188 5 5 6 82 3 171 -3 116 -1 165 7 170 14 9 15 53 1 61 -6 4 -9 9 -6 13 2 4 7 128 10 276 4 164 11 275 17 283 6 6 7 17 3 24 -12 19 -4 289 9 310 9 15 9 23 0 38 -7 10 -9 21 -6 25 3 3 6 27 6 53 0 27 1 50 2 53 3 5 323 -6 370 -12z m2780 -143 c319 -19 594 -35 611 -35 35 0 33 6 33 -104 0 -32 -2 -63 -6 -69 -3 -6 -5 -39 -4 -73 1 -35 -1 -69 -5 -75 -4 -6 -7 -39 -6 -73 0 -33 -2 -65 -5 -70 -8 -12 -20 -194 -23 -341 -1 -44 -6 -85 -11 -91 -5 -6 -4 -26 2 -47 7 -26 7 -43 -1 -57 -6 -11 -8 -25 -5 -30 3 -5 1 -11 -3 -14 -5 -3 -7 -33 -5 -67 2 -34 1 -69 -2 -78 -4 -9 -7 -44 -8 -79 0 -35 -4 -65 -9 -68 -13 -8 2 -25 15 -18 8 5 8 3 0 -7 -7 -7 -13 -34 -13 -60 0 -26 -4 -50 -8 -53 -4 -3 -7 -35 -6 -72 2 -37 0 -72 -2 -76 -3 -5 -8 -72 -10 -149 -2 -78 -7 -146 -11 -152 -3 -6 -7 -38 -8 -71 -3 -78 -1 -74 -29 -72 -13 0 -22 4 -20 8 3 4 -6 10 -20 14 -13 3 -34 17 -47 30 -12 13 -30 24 -40 24 -9 0 -22 7 -29 16 -8 8 -27 21 -44 28 -17 8 -42 23 -55 35 -13 11 -30 21 -38 21 -7 0 -13 4 -13 10 0 5 -17 17 -37 27 -21 9 -40 20 -43 24 -3 3 -22 14 -42 24 -21 9 -38 21 -38 26 0 5 -7 9 -15 9 -8 0 -15 4 -15 9 0 5 -14 14 -31 20 -18 6 -52 27 -76 47 -24 20 -49 37 -56 39 -38 9 -56 18 -52 25 2 4 -17 18 -43 31 -26 13 -49 26 -52 30 -10 12 -149 99 -158 99 -5 0 -15 7 -22 15 -7 8 -21 15 -31 15 -11 0 -19 4 -19 8 0 11 -49 34 -60 27 -4 -3 -7 2 -6 11 1 15 -178 135 -244 164 -13 6 -27 15 -30 20 -3 5 -15 11 -26 13 -11 1 -30 13 -42 25 -13 13 -27 20 -32 17 -6 -4 -10 -1 -10 6 0 7 -3 9 -7 6 -3 -4 -11 0 -18 9 -6 9 -23 17 -37 17 -15 1 -25 8 -24 17 1 8 -14 22 -32 32 -18 9 -41 23 -51 32 -10 9 -21 16 -25 16 -4 0 -18 10 -31 23 l-24 22 48 75 c26 41 121 192 211 335 89 143 197 314 238 380 124 198 162 255 170 255 4 0 268 -16 587 -35z m-2505 -310 l-74 -74 18 -78 c9 -43 21 -87 26 -98 14 -33 27 -77 41 -130 6 -27 16 -55 20 -61 5 -6 7 -13 4 -16 -3 -3 6 -49 20 -102 14 -54 28 -114 31 -134 3 -21 11 -57 18 -82 14 -49 45 -166 70 -270 39 -157 47 -190 66 -280 11 -52 24 -96 29 -98 5 -2 7 -12 4 -23 -3 -11 2 -40 12 -65 21 -55 17 -84 -31 -236 -71 -227 -94 -268 -109 -191 -4 21 -11 44 -17 50 -5 7 -10 29 -10 50 0 21 -5 44 -10 51 -6 7 -8 15 -5 18 3 3 1 20 -4 37 -5 18 -16 65 -24 106 -8 41 -19 79 -25 85 -5 5 -10 22 -10 36 0 15 -10 62 -21 106 -27 98 -42 160 -70 289 -11 55 -27 121 -35 147 -8 26 -14 60 -14 75 0 16 -4 33 -8 38 -5 6 -14 35 -20 65 -27 138 -37 180 -42 180 -4 0 -7 17 -8 38 -1 20 -7 53 -13 72 -5 19 -13 49 -15 65 -3 17 -17 77 -31 135 -14 58 -26 117 -28 132 -2 15 -11 49 -19 77 -24 82 -25 82 152 122 225 52 221 53 132 -36z m-32 -100 c-3 -3 -9 2 -12 12 -6 14 -5 15 5 6 7 -7 10 -15 7 -18z m504 -127 c-79 -134 -85 -148 -71 -180 7 -17 36 -66 65 -110 29 -44 56 -88 59 -99 4 -10 11 -19 16 -19 6 0 7 -4 4 -10 -3 -5 -1 -10 5 -10 6 0 9 -4 6 -8 -3 -5 5 -24 16 -43 12 -19 33 -56 46 -82 14 -27 30 -51 38 -54 7 -2 10 -12 7 -20 -4 -10 -2 -14 4 -10 11 7 23 -14 23 -40 0 -9 9 -24 21 -34 11 -9 20 -20 20 -23 -3 -22 1 -35 17 -52 9 -11 18 -25 19 -32 5 -21 143 -266 156 -274 7 -4 8 -8 2 -8 -5 0 -1 -7 9 -15 11 -8 17 -15 13 -15 -4 0 -1 -13 8 -30 9 -16 20 -30 25 -30 5 0 6 -7 3 -17 -5 -12 -3 -14 7 -8 10 6 12 4 7 -7 -3 -9 1 -25 8 -35 8 -11 31 -53 53 -94 21 -41 49 -90 61 -109 22 -34 22 -40 17 -209 -4 -105 -11 -180 -17 -188 -7 -7 -9 -27 -5 -46 l6 -32 -29 33 c-16 18 -38 53 -48 77 -10 25 -22 45 -26 45 -5 0 -6 4 -3 9 3 5 -1 11 -9 15 -8 3 -15 17 -15 31 0 14 -4 25 -10 25 -5 0 -10 5 -10 11 0 6 -11 25 -25 43 -14 18 -25 40 -25 49 0 9 -5 19 -10 22 -6 4 -8 11 -5 16 4 5 2 9 -4 9 -5 0 -13 9 -16 20 -4 11 -10 18 -15 15 -4 -3 -7 1 -6 8 2 17 -124 267 -146 289 -10 10 -21 32 -25 48 -3 17 -9 30 -14 30 -5 0 -9 5 -9 11 0 6 -11 25 -24 42 -13 18 -26 41 -28 52 -1 10 -11 27 -20 37 -10 10 -18 26 -18 36 0 11 -9 29 -20 42 -11 13 -20 28 -20 34 0 6 -11 28 -25 47 -13 20 -22 39 -19 42 10 10 -17 47 -34 47 -12 0 -14 2 -4 8 10 7 8 14 -8 34 -11 15 -20 29 -20 32 0 14 -116 233 -214 406 -17 30 -31 57 -31 60 0 3 -6 14 -12 26 -24 43 -11 55 148 140 85 45 158 83 162 83 5 1 0 -14 -11 -31z m463 -233 l-25 -98 117 -117 c65 -64 126 -120 136 -123 9 -4 17 -12 17 -20 0 -7 38 -50 85 -95 47 -45 85 -85 85 -90 0 -14 77 -81 85 -74 4 4 5 2 3 -3 -1 -6 20 -33 47 -61 28 -28 60 -64 73 -79 12 -16 22 -26 22 -21 0 4 23 -14 50 -42 28 -28 50 -53 50 -57 0 -14 142 -160 152 -157 5 1 7 -2 5 -7 -2 -9 78 -98 117 -129 29 -22 64 -118 70 -189 4 -47 7 -58 28 -116 6 -15 8 -30 5 -34 -4 -3 0 -14 7 -24 7 -10 11 -32 8 -48 -6 -41 -28 -32 -101 45 -33 35 -65 64 -71 64 -5 0 -9 3 -8 8 3 12 -71 84 -81 77 -5 -3 -13 0 -17 6 -4 8 -3 9 4 5 19 -11 14 9 -9 38 -11 14 -25 24 -30 20 -5 -3 -8 0 -7 8 2 7 -3 12 -10 10 -8 -1 -11 2 -8 7 4 5 -1 16 -9 23 -9 7 -37 35 -63 63 -26 27 -64 67 -84 88 -21 22 -38 46 -38 54 0 8 -6 13 -13 10 -6 -2 -18 2 -25 9 -7 8 -10 14 -7 14 3 0 -27 33 -67 74 -40 40 -95 99 -122 129 -27 31 -53 54 -58 51 -5 -3 -7 -1 -6 4 3 10 -15 32 -64 80 -16 15 -28 34 -28 44 0 9 -9 19 -19 23 -11 3 -43 33 -73 66 -94 106 -109 120 -119 114 -5 -4 -8 -3 -7 2 3 8 -8 23 -44 64 -10 10 -18 24 -18 30 0 5 -4 8 -8 5 -5 -3 -16 8 -26 25 -9 16 -23 29 -29 29 -7 0 -21 12 -32 26 -11 15 -36 43 -55 62 -19 20 -29 33 -22 28 18 -11 15 5 -4 18 -13 10 5 31 122 139 76 70 139 125 141 123 2 -2 -8 -47 -22 -101z m1162 -832 c-4 -3 -7 0 -7 7 0 7 3 10 7 7 3 -4 3 -10 0 -14z m-1320 -350 c-4 -3 -7 0 -7 7 0 7 3 10 7 7 3 -4 3 -10 0 -14z m1008 -163 c3 -5 4 -10 1 -10 -3 0 -8 5 -11 10 -3 6 -4 10 -1 10 3 0 8 -4 11 -10z"/>
 <path d="M3870 1740 c0 -7 3 -10 7 -7 3 4 3 10 0 14 -4 3 -7 0 -7 -7z"/>
 </g>

</svg>