<!DOCTYPE svg PUBLIC "-//W3C//DTD SVG 20010904//EN" "http://www.w3.org/TR/2001/REC-SVG-20010904/DTD/svg10.dtd">
<svg version="1.0" xmlns="http://www.w3.org/2000/svg" width="265px" height="265px" viewBox="0 0 2650 2650" preserveAspectRatio="xMidYMid meet">
<g id="layer101" fill="#00b07b" stroke="none">
 <path d="M0 1325 l0 -1325 1325 0 1325 0 0 1325 0 1325 -1325 0 -1325 0 0 -1325z"/>
 </g>
<g id="layer102" fill="#ffffff" stroke="none">
 <path d="M0 1325 l0 -1325 1325 0 1325 0 0 1325 0 1325 -1325 0 -1325 0 0 -1325z m497 1100 c14 -9 31 -33 40 -53 32 -77 -28 -162 -114 -162 -38 0 -50 5 -79 34 -33 33 -39 51 -34 106 6 82 111 124 187 75z m643 -45 c12 -12 20 -33 20 -53 0 -78 -107 -100 -139 -30 -33 73 63 139 119 83z m-610 -554 c93 -61 108 -198 32 -279 -40 -42 -80 -60 -137 -60 -141 0 -227 141 -164 270 48 99 175 132 269 69z m610 -51 c66 -34 78 -132 23 -187 -98 -97 -251 19 -188 142 29 55 105 76 165 45z m634 -45 c44 -43 11 -120 -51 -120 -84 0 -102 114 -23 143 21 8 52 -2 74 -23z m-1256 -466 c84 -35 136 -115 136 -210 -1 -233 -310 -309 -423 -104 -62 111 -9 263 109 314 46 20 131 20 178 0z m637 -43 c179 -81 135 -343 -60 -359 -170 -14 -268 178 -157 310 32 38 95 68 142 68 19 0 53 -9 75 -19z m630 -67 c13 -8 29 -29 35 -45 45 -108 -51 -204 -159 -159 -88 36 -85 177 4 216 34 16 86 10 120 -12z m631 -38 c21 -18 28 -32 28 -60 0 -76 -90 -110 -140 -52 -32 37 -30 71 5 107 36 35 70 37 107 5z m-1888 -483 c51 -24 108 -96 122 -154 23 -94 -21 -195 -107 -246 -102 -60 -239 -27 -303 73 -37 59 -46 120 -26 187 41 135 185 199 314 140z m620 -28 c95 -40 143 -140 111 -236 -15 -43 -65 -97 -106 -115 -78 -34 -184 -2 -230 67 -101 153 58 353 225 284z m633 -78 c97 -65 51 -217 -66 -217 -85 0 -144 86 -112 163 30 71 114 97 178 54z m630 -30 c66 -50 36 -147 -46 -147 -41 0 -72 23 -80 59 -11 52 27 100 80 100 17 0 37 -5 46 -12z"/>
 </g>

</svg>