<!DOCTYPE svg PUBLIC "-//W3C//DTD SVG 20010904//EN" "http://www.w3.org/TR/2001/REC-SVG-20010904/DTD/svg10.dtd">
<svg version="1.0" xmlns="http://www.w3.org/2000/svg" width="404px" height="404px" viewBox="0 0 4040 4040" preserveAspectRatio="xMidYMid meet">
<g id="layer101" fill="#585c6a" stroke="none">
 <path d="M3134 3896 c-34 -8 -81 -24 -104 -36 -55 -28 -143 -110 -174 -164 -82 -141 -73 -349 23 -476 198 -263 598 -227 743 67 28 58 33 78 36 163 5 119 -11 183 -69 269 -95 143 -283 216 -455 177z m235 -162 c99 -53 155 -147 154 -259 0 -87 -25 -148 -86 -209 -102 -101 -258 -113 -380 -29 -86 60 -138 187 -117 287 15 75 65 153 124 193 64 44 97 53 182 49 55 -2 82 -9 123 -32z"/>
 <path d="M2549 2415 l-204 -354 -415 -3 -415 -3 -3 -57 -3 -58 417 -2 417 -3 201 -347 c111 -191 206 -352 211 -357 11 -11 109 44 101 57 -2 4 -95 164 -206 357 -167 290 -200 353 -192 370 6 11 96 168 201 350 105 181 191 337 191 345 0 12 -72 60 -91 60 -3 0 -97 -160 -210 -355z"/>
 <path d="M536 2410 c-130 -41 -237 -151 -277 -282 -31 -102 -24 -219 18 -311 127 -270 474 -339 688 -136 103 97 141 195 133 344 -6 104 -33 177 -94 252 -106 130 -303 186 -468 133z m259 -148 c226 -107 224 -425 -3 -532 -191 -90 -417 56 -416 270 1 214 225 354 419 262z"/>
 <path d="M3117 940 c-113 -29 -227 -125 -280 -237 -30 -64 -32 -74 -32 -184 0 -113 1 -116 38 -191 45 -91 112 -157 207 -202 61 -29 72 -31 180 -31 114 0 117 1 191 37 93 46 158 112 202 206 30 63 32 73 32 182 0 109 -2 119 -32 182 -44 93 -110 160 -200 205 -66 33 -82 36 -171 39 -53 2 -114 -1 -135 -6z m240 -156 c183 -87 224 -325 81 -471 -183 -186 -502 -55 -502 207 0 217 224 357 421 264z"/>
 </g>
<g id="layer102" fill="#abadb4" stroke="none">
 <path d="M2725 2718 c-15 -29 -36 -64 -45 -78 -9 -14 -31 -50 -48 -82 -27 -51 -69 -122 -221 -383 -26 -44 -50 -88 -54 -97 -6 -17 -35 -18 -420 -18 -228 0 -416 -2 -418 -4 -2 -2 -2 -29 -1 -60 l4 -56 414 0 c228 0 414 -4 414 -8 0 -5 34 -66 76 -138 42 -71 92 -158 111 -194 20 -36 44 -76 53 -90 9 -14 45 -76 79 -138 35 -61 70 -121 79 -132 17 -20 17 -19 64 10 l47 29 -53 93 c-41 73 -262 457 -344 599 -17 28 -18 25 153 319 163 280 235 409 235 422 0 11 -73 58 -91 58 -3 0 -18 -24 -34 -52z"/>
 </g>

</svg>