<!DOCTYPE svg PUBLIC "-//W3C//DTD SVG 20010904//EN" "http://www.w3.org/TR/2001/REC-SVG-20010904/DTD/svg10.dtd">
<svg version="1.0" xmlns="http://www.w3.org/2000/svg" width="225px" height="225px" viewBox="0 0 2250 2250" preserveAspectRatio="xMidYMid meet">
<g id="layer101" fill="#de5959" stroke="none">
 <path d="M0 1125 l0 -1125 1125 0 1125 0 0 1125 0 1125 -1125 0 -1125 0 0 -1125z"/>
 </g>
<g id="layer102" fill="#ffffff" stroke="none">
 <path d="M0 1692 l0 -558 282 283 c155 155 406 406 558 558 l276 275 -558 0 -558 0 0 -558z"/>
 <path d="M1410 1975 c152 -152 403 -403 558 -558 l282 -283 0 558 0 558 -558 0 -558 0 276 -275z"/>
 <path d="M798 1432 l-323 -322 438 -437 c240 -241 437 -443 437 -449 0 -5 -49 -58 -109 -117 l-108 -107 558 0 559 0 0 558 0 557 -335 -335 -335 -335 -333 333 c-182 182 -338 332 -346 332 -8 0 -22 -7 -32 -16 -10 -9 -25 -14 -34 -11 -21 9 -23 298 -1 316 9 8 61 11 162 9 l149 -3 -3 -35 c-2 -32 7 -44 155 -192 l157 -157 -22 -24 c-26 -27 -28 -52 -6 -61 20 -8 268 -8 288 0 14 5 16 29 16 165 0 149 -1 159 -19 159 -10 0 -24 -7 -31 -15 -7 -8 -17 -15 -24 -15 -6 0 -129 118 -273 262 l-263 263 -322 -323z"/>
 <path d="M0 558 l0 -558 558 0 558 0 -283 282 c-155 155 -406 406 -558 558 l-275 276 0 -558z"/>
 </g>

</svg>