<!DOCTYPE svg PUBLIC "-//W3C//DTD SVG 20010904//EN" "http://www.w3.org/TR/2001/REC-SVG-20010904/DTD/svg10.dtd">
<svg version="1.0" xmlns="http://www.w3.org/2000/svg" width="315px" height="294px" viewBox="0 0 3150 2940" preserveAspectRatio="xMidYMid meet">
<g id="layer101" fill="#135271" stroke="none">
 <path d="M1059 2317 l-326 -582 -352 -200 c-193 -110 -351 -203 -351 -207 0 -4 246 -161 548 -349 l547 -342 375 48 c206 26 384 49 395 51 16 4 28 -9 58 -63 l38 -68 167 -88 166 -88 232 -22 231 -22 139 -169 c76 -93 140 -164 142 -157 2 7 -8 92 -24 187 l-28 175 -201 116 c-110 63 -217 126 -237 139 -35 22 -275 298 -271 312 1 4 65 112 142 240 122 201 150 252 139 252 -2 0 -75 -27 -163 -59 -88 -33 -162 -58 -163 -56 -2 2 14 33 35 69 l38 66 110 0 110 0 78 298 c42 163 80 306 83 318 5 19 -1 22 -67 33 l-72 13 39 23 c88 52 100 36 -138 188 -118 75 -221 139 -230 142 -10 4 -105 -88 -313 -305 -201 -210 -301 -307 -305 -298 -4 7 -58 232 -121 500 -63 269 -116 488 -119 488 -3 0 -152 -263 -331 -583z"/>
 </g>
<g id="layer102" fill="#1e709f" stroke="none">
 <path d="M1059 2317 l-326 -582 -352 -200 c-193 -110 -351 -203 -351 -207 0 -4 246 -161 548 -349 l547 -342 375 48 c206 26 384 49 395 51 16 4 28 -9 58 -63 l38 -68 167 -88 166 -88 232 -22 231 -22 139 -169 c76 -93 140 -164 142 -157 2 7 -8 92 -24 187 l-28 175 -201 116 c-110 63 -217 126 -237 139 -35 22 -275 298 -271 312 1 4 65 112 142 240 122 201 150 252 139 252 -2 0 -75 -27 -163 -59 -88 -33 -162 -58 -163 -56 -2 2 14 33 35 69 l38 66 110 0 110 0 78 298 c42 163 80 306 83 318 5 19 -1 22 -67 33 l-72 13 39 23 c88 52 100 36 -138 188 -118 75 -221 139 -230 142 -10 4 -105 -88 -313 -305 -221 -231 -300 -308 -307 -298 -7 9 -8 7 -5 -9 4 -20 -10 -28 -147 -86 -83 -35 -152 -64 -153 -63 -3 2 66 1084 72 1114 3 17 2 32 -2 32 -4 0 -155 -263 -334 -583z"/>
 </g>
<g id="layer103" fill="#268bbd" stroke="none">
 <path d="M1367 2863 c-14 -30 -14 -34 -2 -19 8 11 15 24 15 29 0 4 5 5 10 2 6 -3 10 1 10 9 0 28 -16 17 -33 -21z"/>
 <path d="M1337 2813 c-49 -89 -78 -146 -70 -138 14 14 86 145 79 145 -2 0 -7 -3 -9 -7z"/>
 <path d="M1247 2653 c-49 -89 -78 -146 -70 -138 14 14 86 145 79 145 -2 0 -7 -3 -9 -7z"/>
 <path d="M2150 2433 l-85 -88 83 80 83 80 -24 -55 c-296 -678 -552 -1239 -561 -1230 -6 6 -81 126 -166 268 l-156 257 -205 -2 c-112 -2 -244 -5 -292 -9 l-89 -6 37 66 c20 36 34 66 32 66 -3 0 -21 -29 -41 -64 l-36 -63 -350 -199 c-192 -110 -350 -202 -350 -206 0 -4 246 -161 548 -349 l547 -342 375 48 c206 26 384 49 395 51 16 4 28 -9 58 -63 l38 -68 167 -88 166 -88 232 -22 231 -22 139 -169 c76 -93 140 -164 142 -157 2 7 -8 92 -24 187 l-28 175 -201 116 c-110 63 -217 126 -237 139 -35 22 -275 298 -271 312 1 4 65 112 142 240 122 201 150 252 139 252 -2 0 -75 -27 -163 -59 -88 -33 -162 -58 -163 -56 -2 2 14 33 35 69 l38 66 110 0 110 0 78 298 c42 163 80 306 83 318 5 19 -1 22 -67 33 l-72 13 39 23 c87 52 91 42 -47 130 -68 43 -134 85 -146 93 -13 8 -23 12 -23 9 0 -3 63 -45 140 -94 76 -48 136 -91 132 -94 -4 -3 -32 -20 -62 -37 l-55 -30 -120 135 c-66 75 -133 151 -150 171 l-29 35 54 -34 c77 -49 80 -51 80 -45 0 5 -143 96 -151 96 -2 0 -43 -39 -89 -87z"/>
 <path d="M1157 2493 c-49 -89 -78 -146 -70 -138 14 14 86 145 79 145 -2 0 -7 -3 -9 -7z"/>
 <path d="M1067 2333 c-49 -89 -78 -146 -70 -138 14 14 86 145 79 145 -2 0 -7 -3 -9 -7z"/>
 <path d="M1950 2223 l-105 -108 108 105 c99 97 112 110 104 110 -1 0 -50 -48 -107 -107z"/>
 <path d="M977 2173 c-49 -89 -78 -146 -70 -138 14 14 86 145 79 145 -2 0 -7 -3 -9 -7z"/>
 <path d="M1735 2000 c-68 -68 -102 -96 -107 -87 -6 9 -8 9 -8 0 0 -31 24 -14 121 83 57 57 101 104 99 104 -3 0 -50 -45 -105 -100z"/>
 <path d="M887 2013 c-49 -89 -78 -146 -70 -138 14 14 86 145 79 145 -2 0 -7 -3 -9 -7z"/>
 </g>
<g id="layer104" fill="#5eb7e4" stroke="none">
 <path d="M1371 2873 l-13 -28 21 22 c23 24 26 33 13 33 -5 0 -14 -12 -21 -27z"/>
 <path d="M1285 2720 c-9 -16 -13 -30 -11 -30 3 0 12 14 21 30 9 17 13 30 11 30 -3 0 -12 -13 -21 -30z"/>
 <path d="M1195 2560 c-9 -16 -13 -30 -11 -30 3 0 12 14 21 30 9 17 13 30 11 30 -3 0 -12 -13 -21 -30z"/>
 <path d="M2150 2433 l-85 -88 88 85 89 85 -5 -583 c-2 -320 -6 -584 -8 -586 -2 -2 -132 -36 -289 -75 l-285 -71 -332 2 -332 3 145 240 c80 132 155 255 166 274 l21 33 -129 -6 c-71 -3 -203 -9 -292 -12 l-164 -6 16 31 c9 17 14 31 12 31 -3 0 -12 -13 -20 -29 -12 -22 -94 -73 -366 -227 -192 -109 -350 -202 -350 -206 0 -4 246 -161 548 -349 l547 -342 375 48 c206 26 384 49 395 51 16 4 28 -9 58 -63 l38 -68 167 -88 166 -88 232 -22 231 -22 139 -169 c76 -93 140 -164 142 -157 2 7 -8 92 -24 187 l-28 175 -201 116 c-110 63 -217 126 -237 139 -35 22 -275 298 -271 312 1 4 65 112 142 240 122 201 150 252 139 252 -2 0 -75 -27 -163 -59 -88 -33 -162 -58 -163 -56 -2 2 14 33 35 69 l38 66 110 0 110 0 78 298 c42 163 80 306 83 318 5 19 -1 22 -66 33 -65 12 -69 14 -53 27 15 12 12 12 -13 0 l-32 -15 -151 169 c-83 93 -151 174 -151 180 0 21 -18 8 -100 -77z"/>
 <path d="M1105 2400 c-9 -16 -13 -30 -11 -30 3 0 12 14 21 30 9 17 13 30 11 30 -3 0 -12 -13 -21 -30z"/>
 <path d="M2495 2355 c11 -9 29 -21 40 -26 l20 -10 -20 16 c-11 9 -29 21 -40 26 l-20 10 20 -16z"/>
 <path d="M1935 2208 l-90 -93 93 90 c50 49 92 91 92 92 0 8 -12 -4 -95 -89z"/>
 <path d="M1015 2240 c-9 -16 -13 -30 -11 -30 3 0 12 14 21 30 9 17 13 30 11 30 -3 0 -12 -13 -21 -30z"/>
 <path d="M2672 2241 c2 -5 -6 -17 -17 -26 -20 -16 -20 -16 2 -5 27 13 36 27 23 35 -6 4 -9 2 -8 -4z"/>
 <path d="M925 2080 c-9 -16 -13 -30 -11 -30 3 0 12 14 21 30 9 17 13 30 11 30 -3 0 -12 -13 -21 -30z"/>
 <path d="M1720 1985 c-58 -58 -87 -81 -92 -72 -6 9 -8 9 -8 0 0 -30 23 -15 106 68 48 49 86 89 84 89 -3 0 -43 -38 -90 -85z"/>
 <path d="M835 1920 c-9 -16 -13 -30 -11 -30 3 0 12 14 21 30 9 17 13 30 11 30 -3 0 -12 -13 -21 -30z"/>
 </g>

</svg>