<!DOCTYPE svg PUBLIC "-//W3C//DTD SVG 20010904//EN" "http://www.w3.org/TR/2001/REC-SVG-20010904/DTD/svg10.dtd">
<svg version="1.0" xmlns="http://www.w3.org/2000/svg" width="226px" height="223px" viewBox="0 0 2260 2230" preserveAspectRatio="xMidYMid meet">
<g id="layer101" fill="#26b193" stroke="none">
 <path d="M0 1115 l0 -1115 1130 0 1130 0 0 1115 0 1115 -1130 0 -1130 0 0 -1115z"/>
 </g>
<g id="layer102" fill="#ffffff" stroke="none">
 <path d="M0 1915 c0 -173 4 -315 8 -315 7 0 960 536 1077 606 l40 24 -562 0 -563 0 0 -315z"/>
 <path d="M1141 2226 c10 -10 1103 -626 1111 -626 4 0 8 142 8 315 l0 315 -562 0 c-309 0 -559 -2 -557 -4z"/>
 <path d="M1095 1941 c-16 -10 -212 -121 -435 -246 -223 -126 -413 -235 -422 -243 -16 -13 -18 -36 -18 -194 0 -119 4 -178 11 -178 5 0 237 128 514 285 277 157 506 285 510 285 10 0 235 -143 235 -150 0 -3 -81 -50 -180 -105 -98 -55 -179 -103 -180 -106 0 -7 199 -239 205 -239 7 0 679 380 688 389 5 5 -74 56 -175 114 -208 119 -718 407 -721 407 -1 0 -15 -9 -32 -19z"/>
 <path d="M715 1057 c-100 -56 -249 -140 -333 -187 -83 -47 -152 -87 -152 -90 0 -8 45 -34 486 -283 220 -125 406 -227 414 -227 7 0 173 91 369 202 196 111 395 224 444 251 l87 49 0 188 0 189 -287 -161 c-159 -88 -385 -216 -503 -283 -118 -67 -229 -129 -246 -138 -31 -16 -31 -16 -153 57 l-123 74 191 108 c105 60 191 112 191 117 0 9 -188 231 -198 234 -4 1 -88 -44 -187 -100z"/>
 <path d="M0 315 l0 -315 560 0 c308 0 560 2 560 4 0 2 -51 32 -112 67 -62 34 -310 174 -552 311 -241 136 -442 248 -447 248 -5 0 -9 -138 -9 -315z"/>
 <path d="M1692 320 c-299 -169 -546 -310 -549 -314 -4 -3 246 -6 555 -6 l562 0 0 315 c0 246 -3 315 -12 314 -7 0 -257 -139 -556 -309z"/>
 </g>

</svg>