<!DOCTYPE svg PUBLIC "-//W3C//DTD SVG 20010904//EN" "http://www.w3.org/TR/2001/REC-SVG-20010904/DTD/svg10.dtd">
<svg version="1.0" xmlns="http://www.w3.org/2000/svg" width="211px" height="324px" viewBox="0 0 2110 3240" preserveAspectRatio="xMidYMid meet">
<g id="layer101" fill="#0c164f" stroke="none">
 <path d="M0 1620 l0 -1620 1055 0 1055 0 0 1620 0 1620 -1055 0 -1055 0 0 -1620z"/>
 </g>
<g id="layer102" fill="#1e2556" stroke="none">
 <path d="M0 1620 l0 -1620 1055 0 1055 0 0 1620 0 1620 -1055 0 -1055 0 0 -1620z m837 1373 c-4 -3 -10 -3 -14 0 -3 4 0 7 7 7 7 0 10 -3 7 -7z m60 -15 c-3 -8 -6 -5 -6 6 -1 11 2 17 5 13 3 -3 4 -12 1 -19z m-198 -32 c-2 -2 -15 -9 -29 -15 -24 -11 -24 -11 -6 3 16 13 49 24 35 12z m-79 -40 c0 -3 -5 -8 -12 -12 -7 -4 -8 -3 -4 4 7 12 16 16 16 8z m-30 -20 c0 -3 -5 -8 -12 -12 -7 -4 -8 -3 -4 4 7 12 16 16 16 8z m-40 -30 c0 -3 -5 -8 -12 -12 -7 -4 -8 -3 -4 4 7 12 16 16 16 8z m-40 -29 c0 -1 -26 -27 -57 -57 l-58 -55 55 58 c50 53 60 62 60 54z m267 -94 c-4 -3 -7 0 -7 7 0 7 3 10 7 7 3 -4 3 -10 0 -14z m-20 -50 c-4 -3 -7 0 -7 7 0 7 3 10 7 7 3 -4 3 -10 0 -14z m-377 3 c0 -3 -5 -8 -12 -12 -7 -4 -8 -3 -4 4 7 12 16 16 16 8z m367 -33 c-4 -3 -7 0 -7 7 0 7 3 10 7 7 3 -4 3 -10 0 -14z m-397 -7 c0 -3 -5 -8 -12 -12 -7 -4 -8 -3 -4 4 7 12 16 16 16 8z m-20 -30 c0 -3 -5 -8 -12 -12 -7 -4 -8 -3 -4 4 7 12 16 16 16 8z m397 -23 c-4 -3 -7 0 -7 7 0 7 3 10 7 7 3 -4 3 -10 0 -14z m-10 -40 c-4 -3 -7 0 -7 7 0 7 3 10 7 7 3 -4 3 -10 0 -14z m-10 -45 c-3 -8 -6 -5 -6 6 -1 11 2 17 5 13 3 -3 4 -12 1 -19z m-10 -75 c-3 -10 -5 -4 -5 12 0 17 2 24 5 18 2 -7 2 -21 0 -30z m-460 10 c-4 -3 -7 0 -7 7 0 7 3 10 7 7 3 -4 3 -10 0 -14z m-20 -50 c-4 -3 -7 0 -7 7 0 7 3 10 7 7 3 -4 3 -10 0 -14z m-20 -70 c-4 -3 -7 0 -7 7 0 7 3 10 7 7 3 -4 3 -10 0 -14z m500 -25 c-3 -7 -5 -2 -5 12 0 14 2 19 5 13 2 -7 2 -19 0 -25z m-510 -15 c-4 -3 -7 0 -7 7 0 7 3 10 7 7 3 -4 3 -10 0 -14z m520 -40 c-4 -3 -7 0 -7 7 0 7 3 10 7 7 3 -4 3 -10 0 -14z m-530 -15 c-3 -8 -6 -5 -6 6 -1 11 2 17 5 13 3 -3 4 -12 1 -19z m540 -25 c-4 -3 -7 0 -7 7 0 7 3 10 7 7 3 -4 3 -10 0 -14z m-550 -150 c-2 -27 -3 -5 -3 47 0 52 1 74 3 48 2 -27 2 -69 0 -95z m560 120 c-4 -3 -7 0 -7 7 0 7 3 10 7 7 3 -4 3 -10 0 -14z m10 -30 c-4 -3 -7 0 -7 7 0 7 3 10 7 7 3 -4 3 -10 0 -14z m30 -70 c-4 -3 -7 0 -7 7 0 7 3 10 7 7 3 -4 3 -10 0 -14z m38 -63 c3 -5 4 -10 1 -10 -3 0 -8 5 -11 10 -3 6 -4 10 -1 10 3 0 8 -4 11 -10z m-628 -62 c-3 -8 -6 -5 -6 6 -1 11 2 17 5 13 3 -3 4 -12 1 -19z m658 12 c3 -5 4 -10 1 -10 -3 0 -8 5 -11 10 -3 6 -4 10 -1 10 3 0 8 -4 11 -10z m30 -50 c3 -5 4 -10 1 -10 -3 0 -8 5 -11 10 -3 6 -4 10 -1 10 3 0 8 -4 11 -10z m-678 -17 c-4 -3 -7 0 -7 7 0 7 3 10 7 7 3 -4 3 -10 0 -14z m698 -13 c3 -5 4 -10 1 -10 -3 0 -8 5 -11 10 -3 6 -4 10 -1 10 3 0 8 -4 11 -10z m26 -37 c13 -16 12 -17 -3 -4 -10 7 -18 15 -18 17 0 8 8 3 21 -13z m-704 -20 c-4 -3 -7 0 -7 7 0 7 3 10 7 7 3 -4 3 -10 0 -14z m728 -13 c3 -5 4 -10 1 -10 -3 0 -8 5 -11 10 -3 6 -4 10 -1 10 3 0 8 -4 11 -10z m20 -30 c3 -5 4 -10 1 -10 -3 0 -8 5 -11 10 -3 6 -4 10 -1 10 3 0 8 -4 11 -10z m-728 -17 c-4 -3 -7 0 -7 7 0 7 3 10 7 7 3 -4 3 -10 0 -14z m764 -30 c13 -16 12 -17 -3 -4 -10 7 -18 15 -18 17 0 8 8 3 21 -13z m30 -40 c13 -16 12 -17 -3 -4 -10 7 -18 15 -18 17 0 8 8 3 21 -13z m30 -40 c13 -16 12 -17 -3 -4 -10 7 -18 15 -18 17 0 8 8 3 21 -13z m34 -43 c3 -5 4 -10 1 -10 -3 0 -8 5 -11 10 -3 6 -4 10 -1 10 3 0 8 -4 11 -10z m-750 -40 c3 -5 4 -10 1 -10 -3 0 -8 5 -11 10 -3 6 -4 10 -1 10 3 0 8 -4 11 -10z m780 0 c3 -5 4 -10 1 -10 -3 0 -8 5 -11 10 -3 6 -4 10 -1 10 3 0 8 -4 11 -10z m-760 -30 c3 -5 4 -10 1 -10 -3 0 -8 5 -11 10 -3 6 -4 10 -1 10 3 0 8 -4 11 -10z m780 0 c3 -5 4 -10 1 -10 -3 0 -8 5 -11 10 -3 6 -4 10 -1 10 3 0 8 -4 11 -10z m-750 -40 c3 -5 4 -10 1 -10 -3 0 -8 5 -11 10 -3 6 -4 10 -1 10 3 0 8 -4 11 -10z m780 0 c3 -5 4 -10 1 -10 -3 0 -8 5 -11 10 -3 6 -4 10 -1 10 3 0 8 -4 11 -10z m20 -30 c3 -5 4 -10 1 -10 -3 0 -8 5 -11 10 -3 6 -4 10 -1 10 3 0 8 -4 11 -10z m-749 -32 l29 -33 -32 29 c-18 17 -33 31 -33 33 0 8 8 1 36 -29z m769 2 c3 -5 4 -10 1 -10 -3 0 -8 5 -11 10 -3 6 -4 10 -1 10 3 0 8 -4 11 -10z m30 -50 c3 -5 4 -10 1 -10 -3 0 -8 5 -11 10 -3 6 -4 10 -1 10 3 0 8 -4 11 -10z m-675 -85 c30 -30 52 -55 49 -55 -2 0 -29 25 -59 55 -30 30 -52 55 -49 55 2 0 29 -25 59 -55z m100 -110 c13 -14 21 -25 18 -25 -2 0 -15 11 -28 25 -13 14 -21 25 -18 25 2 0 15 -11 28 -25z m657 -12 c-4 -3 -7 0 -7 7 0 7 3 10 7 7 3 -4 3 -10 0 -14z m-606 -50 c13 -16 12 -17 -3 -4 -17 13 -22 21 -14 21 2 0 10 -8 17 -17z m616 -15 c-3 -7 -5 -2 -5 12 0 14 2 19 5 13 2 -7 2 -19 0 -25z m-582 -28 c3 -5 4 -10 1 -10 -3 0 -8 5 -11 10 -3 6 -4 10 -1 10 3 0 8 -4 11 -10z m20 -30 c3 -5 4 -10 1 -10 -3 0 -8 5 -11 10 -3 6 -4 10 -1 10 3 0 8 -4 11 -10z m562 -62 c-2 -13 -4 -5 -4 17 -1 22 1 32 4 23 2 -10 2 -28 0 -40z m-542 32 c3 -5 4 -10 1 -10 -3 0 -8 5 -11 10 -3 6 -4 10 -1 10 3 0 8 -4 11 -10z m532 -132 c-3 -8 -6 -5 -6 6 -1 11 2 17 5 13 3 -3 4 -12 1 -19z m-10 -60 c-3 -8 -6 -5 -6 6 -1 11 2 17 5 13 3 -3 4 -12 1 -19z m-10 -45 c-4 -3 -7 0 -7 7 0 7 3 10 7 7 3 -4 3 -10 0 -14z m-390 -20 c-4 -3 -7 0 -7 7 0 7 3 10 7 7 3 -4 3 -10 0 -14z m10 -30 c-4 -3 -7 0 -7 7 0 7 3 10 7 7 3 -4 3 -10 0 -14z m370 0 c-4 -3 -7 0 -7 7 0 7 3 10 7 7 3 -4 3 -10 0 -14z m-360 -30 c-4 -3 -7 0 -7 7 0 7 3 10 7 7 3 -4 3 -10 0 -14z m350 0 c-4 -3 -7 0 -7 7 0 7 3 10 7 7 3 -4 3 -10 0 -14z m-10 -40 c-4 -3 -7 0 -7 7 0 7 3 10 7 7 3 -4 3 -10 0 -14z m-320 -30 c-4 -3 -7 0 -7 7 0 7 3 10 7 7 3 -4 3 -10 0 -14z m10 -40 c-4 -3 -7 0 -7 7 0 7 3 10 7 7 3 -4 3 -10 0 -14z m10 -50 c-4 -3 -7 0 -7 7 0 7 3 10 7 7 3 -4 3 -10 0 -14z m230 -50 c-4 -3 -7 0 -7 7 0 7 3 10 7 7 3 -4 3 -10 0 -14z m-220 -15 c-3 -8 -6 -5 -6 6 -1 11 2 17 5 13 3 -3 4 -12 1 -19z m203 -18 c-6 -11 -13 -20 -16 -20 -2 0 0 9 6 20 6 11 13 20 16 20 2 0 0 -9 -6 -20z m-193 -67 c-3 -10 -5 -4 -5 12 0 17 2 24 5 18 2 -7 2 -21 0 -30z m163 13 c0 -3 -5 -8 -12 -12 -7 -4 -8 -3 -4 4 7 12 16 16 16 8z m-20 -30 c0 -3 -5 -8 -12 -12 -7 -4 -8 -3 -4 4 7 12 16 16 16 8z m-20 -30 c0 -3 -5 -8 -12 -12 -7 -4 -8 -3 -4 4 7 12 16 16 16 8z m-69 -70 c21 21 39 36 39 33 0 -3 -20 -25 -45 -49 l-45 -44 2 49 c1 46 2 47 5 11 l4 -39 40 39z"/>
 </g>
<g id="layer103" fill="#282e5b" stroke="none">
 <path d="M0 1620 l0 -1620 1055 0 1055 0 0 1620 0 1620 -1055 0 -1055 0 0 -1620z m853 1373 c-7 -2 -19 -2 -25 0 -7 3 -2 5 12 5 14 0 19 -2 13 -5z m17 -72 c-41 -83 -47 -77 -7 7 18 38 33 65 35 61 2 -4 -11 -35 -28 -68z m-75 59 c-27 -12 -43 -12 -25 0 8 5 22 9 30 9 10 0 8 -3 -5 -9z m-55 -20 c-8 -5 -19 -10 -25 -10 -5 0 -3 5 5 10 8 5 20 10 25 10 6 0 3 -5 -5 -10z m-41 -14 c-2 -2 -15 -9 -29 -15 -24 -11 -24 -11 -6 3 16 13 49 24 35 12z m-79 -44 c-168 -116 -255 -213 -347 -387 -49 -93 -58 -94 -12 -2 50 99 107 176 188 258 65 65 175 150 191 148 3 0 -6 -8 -20 -17z m188 -97 c-12 -24 -23 -43 -26 -41 -4 5 36 86 43 86 3 0 -5 -20 -17 -45z m-53 -128 c-14 -37 -27 -78 -30 -92 -3 -14 -8 -37 -11 -52 -7 -34 -14 -43 -14 -16 0 34 67 239 76 231 1 -2 -8 -34 -21 -71z m-53 -231 c-6 -48 -12 -46 -12 5 0 22 4 38 8 35 4 -3 6 -21 4 -40z m-486 -62 c-8 -21 -15 -34 -15 -28 -1 15 20 76 25 71 2 -2 -2 -21 -10 -43z m487 -99 c4 -39 3 -51 -3 -35 -8 25 -13 107 -6 99 2 -2 6 -31 9 -64z m-506 33 c-3 -8 -6 -5 -6 6 -1 11 2 17 5 13 3 -3 4 -12 1 -19z m-10 -40 c-3 -8 -6 -5 -6 6 -1 11 2 17 5 13 3 -3 4 -12 1 -19z m-7 -49 c0 -16 -4 -28 -9 -25 -8 5 -3 56 5 56 2 0 4 -14 4 -31z m558 -84 c0 -5 -6 4 -13 20 -8 17 -14 37 -14 45 0 8 7 -1 14 -20 7 -19 13 -39 13 -45z m-571 -97 c-2 -29 -3 -8 -3 47 0 55 1 79 3 53 2 -26 2 -71 0 -100z m602 27 c0 -5 -6 1 -14 15 -8 14 -14 30 -14 35 0 6 6 -1 14 -15 8 -14 14 -29 14 -35z m69 -122 c22 -38 109 -161 194 -275 144 -194 195 -268 185 -268 -2 0 -21 26 -42 58 -21 31 -84 118 -140 192 -155 207 -258 360 -242 360 3 0 23 -30 45 -67z m-659 10 c0 -25 -1 -25 -8 -8 -5 11 -7 23 -4 28 8 14 13 7 12 -20z m61 -213 c13 -25 12 -40 -1 -17 -18 30 -51 130 -55 167 -2 19 7 -3 21 -49 14 -46 30 -91 35 -101z m24 -56 c3 -8 2 -12 -4 -9 -6 3 -10 10 -10 16 0 14 7 11 14 -7z m80 -132 c27 -41 101 -131 165 -200 64 -69 131 -144 149 -166 37 -45 7 -13 -163 171 -103 111 -180 211 -209 273 -9 19 -11 26 -4 16 7 -11 35 -53 62 -94z m917 -223 c16 -34 29 -63 27 -65 -2 -2 -18 26 -36 61 -17 36 -30 65 -27 65 3 0 19 -27 36 -61z m48 -119 c0 -10 -3 -8 -9 5 -12 27 -12 43 0 25 5 -8 9 -22 9 -30z m17 -62 c3 -18 6 -42 8 -53 2 -11 0 -47 -4 -80 l-7 -60 -2 86 c0 48 -4 102 -7 120 -4 19 -4 31 0 27 4 -3 9 -21 12 -40z m-552 -112 c52 -79 106 -177 106 -193 0 -4 -21 30 -46 77 -25 47 -68 117 -96 155 -28 39 -44 64 -34 56 9 -8 41 -51 70 -95z m548 -131 c-6 -34 -12 -32 -12 6 0 16 4 28 9 25 4 -3 6 -17 3 -31z m-6 -54 c-3 -4 -7 -21 -10 -37 -3 -16 -12 -49 -21 -74 -8 -25 -13 -34 -10 -20 3 14 10 53 17 87 6 34 15 60 20 57 4 -3 6 -9 4 -13z m-391 -126 c3 -16 -6 -1 -19 35 -14 36 -25 67 -25 70 1 11 38 -77 44 -105z m34 -124 c19 -81 27 -140 17 -130 -2 2 -7 20 -10 39 -11 65 -17 95 -26 130 -11 39 -12 50 -6 50 2 0 14 -40 25 -89z m301 52 c-11 -17 -11 -17 -6 0 3 10 6 24 7 30 0 9 2 9 5 0 3 -7 0 -20 -6 -30z m-26 -72 c-9 -23 -18 -40 -20 -38 -2 2 4 22 13 45 9 23 18 40 20 38 2 -2 -4 -22 -13 -45z m-54 -118 c-44 -79 -111 -171 -153 -211 l-34 -33 -5 63 c-3 35 -2 67 3 72 5 6 9 -17 9 -54 l0 -64 31 30 c34 32 128 169 155 226 10 21 20 36 22 33 2 -2 -10 -30 -28 -62z m-191 -45 l-2 -43 -6 35 c-7 33 -5 50 5 50 2 0 3 -19 3 -42z"/>
 </g>
<g id="layer104" fill="#059bdc" stroke="none">
 <path d="M0 1620 l0 -1620 1055 0 1055 0 0 1620 0 1620 -1055 0 -1055 0 0 -1620z m900 1373 c0 -10 -31 -81 -70 -158 -85 -171 -120 -284 -127 -420 -12 -214 61 -375 331 -733 251 -334 300 -437 298 -624 -4 -293 -120 -608 -289 -784 l-47 -49 -8 90 c-40 450 -141 671 -469 1020 -136 145 -203 234 -259 345 -79 158 -105 279 -97 458 6 153 28 237 97 377 113 229 333 423 543 480 73 19 97 19 97 -2z"/>
 </g>
<g id="layer105" fill="#ffffff" stroke="none">
 <path d="M0 1620 l0 -1620 1055 0 1055 0 0 1620 0 1620 -1055 0 -1055 0 0 -1620z m900 1373 c0 -10 -31 -81 -70 -158 -85 -171 -120 -284 -127 -420 -12 -214 61 -375 331 -733 251 -334 300 -437 298 -624 -4 -293 -120 -608 -289 -784 l-47 -49 -8 90 c-40 450 -141 671 -469 1020 -136 145 -203 234 -259 345 -79 158 -105 279 -97 458 6 153 28 237 97 377 113 229 333 423 543 480 73 19 97 19 97 -2z m457 -17 c12 -18 42 -46 67 -62 203 -127 269 -182 354 -295 56 -75 118 -202 144 -296 28 -103 31 -333 5 -435 -44 -178 -137 -345 -261 -471 -37 -37 -71 -67 -75 -67 -4 0 -13 24 -21 52 -20 81 -118 267 -230 438 -151 229 -215 367 -246 528 -42 221 24 423 199 610 17 17 33 32 36 32 4 0 16 -15 28 -34z"/>
 </g>

</svg>