<!DOCTYPE svg PUBLIC "-//W3C//DTD SVG 20010904//EN" "http://www.w3.org/TR/2001/REC-SVG-20010904/DTD/svg10.dtd">
<svg version="1.0" xmlns="http://www.w3.org/2000/svg" width="101px" height="141px" viewBox="0 0 1010 1410" preserveAspectRatio="xMidYMid meet">
<g id="layer101" fill="#1b8fba" stroke="none">
 <path d="M0 705 l0 -705 505 0 505 0 0 705 0 705 -505 0 -505 0 0 -705z"/>
 </g>
<g id="layer102" fill="#03a2de" stroke="none">
 <path d="M0 705 l0 -705 505 0 505 0 0 705 0 705 -505 0 -505 0 0 -705z m459 621 c-2 -2 -26 -6 -54 -9 -34 -4 -42 -3 -25 3 25 8 87 13 79 6z m38 -21 c9 -25 -4 -29 -17 -6 -7 15 -7 21 0 21 6 0 13 -7 17 -15z m166 -293 c-8 -5 -13 -47 -16 -127 l-3 -120 -2 128 c-2 115 0 127 16 127 12 0 13 -3 5 -8z m60 1 c-7 -2 -19 -2 -25 0 -7 3 -2 5 12 5 14 0 19 -2 13 -5z m44 0 c-4 -3 -10 -3 -14 0 -3 4 0 7 7 7 7 0 10 -3 7 -7z m-559 -83 c4 -13 3 -13 -11 -2 -9 8 -34 12 -64 10 -46 -3 -48 -4 -54 -38 l-6 -35 -2 36 c0 20 2 39 6 43 4 4 34 6 67 4 42 -2 61 -7 64 -18z m-131 -87 c-4 -3 -7 0 -7 7 0 7 3 10 7 7 3 -4 3 -10 0 -14z m69 -101 c35 2 64 0 64 -4 0 -5 -31 -8 -70 -8 l-70 0 1 28 c2 24 2 25 6 4 4 -22 8 -23 69 -20z m284 -2 c69 0 93 -11 71 -33 -9 -9 -11 -8 -6 6 6 15 -1 17 -69 17 -66 0 -76 -2 -76 -17 0 -12 -3 -14 -8 -6 -4 6 -23 13 -42 16 -33 4 -33 4 8 5 38 2 42 4 43 30 2 23 2 24 6 5 4 -21 10 -23 73 -23z m283 -1 c34 0 71 -4 81 -8 11 -4 -19 -6 -67 -3 l-87 5 0 -296 c0 -291 0 -295 -21 -300 -19 -5 -20 -4 -5 12 14 15 16 55 16 294 0 254 -1 276 -17 280 -14 4 -12 5 5 6 13 1 22 8 23 19 0 10 3 12 6 5 3 -8 27 -13 66 -14z m-476 -16 c-4 -3 -10 -3 -14 0 -3 4 0 7 7 7 7 0 10 -3 7 -7z m683 -23 c0 -16 -2 -30 -4 -30 -2 0 -6 14 -8 30 -3 17 -1 30 4 30 4 0 8 -13 8 -30z m-3 -72 c-3 -7 -5 -2 -5 12 0 14 2 19 5 13 2 -7 2 -19 0 -25z m0 -95 c-3 -10 -5 -2 -5 17 0 19 2 27 5 18 2 -10 2 -26 0 -35z m-117 3 c0 -3 -5 -8 -12 -12 -7 -4 -8 -3 -4 4 7 12 16 16 16 8z m-450 -171 c0 -12 -13 -15 -59 -15 -33 0 -62 3 -64 8 -3 4 17 5 45 3 28 -2 55 2 61 8 14 14 17 14 17 -4z m157 -222 c-4 -3 -7 0 -7 7 0 7 3 10 7 7 3 -4 3 -10 0 -14z"/>
 </g>
<g id="layer103" fill="#039ee4" stroke="none">
 <path d="M0 705 l0 -705 505 0 505 0 0 705 0 705 -505 0 -505 0 0 -705z m459 621 c-2 -2 -26 -6 -54 -9 -34 -4 -42 -3 -25 3 25 8 87 13 79 6z m38 -21 c9 -25 -4 -29 -17 -6 -7 15 -7 21 0 21 6 0 13 -7 17 -15z m-57 -5 c0 -5 -4 -10 -9 -10 -6 0 -13 5 -16 10 -3 6 1 10 9 10 9 0 16 -4 16 -10z m223 -288 c-7 -4 -11 -46 -11 -120 0 -62 -3 -116 -6 -119 -3 -4 -6 51 -6 120 0 114 2 127 18 127 11 0 13 -3 5 -8z m59 -4 c-9 -9 -15 -9 -24 0 -9 9 -7 12 12 12 19 0 21 -3 12 -12z m45 5 c-4 -3 -10 -3 -14 0 -3 4 0 7 7 7 7 0 10 -3 7 -7z m-50 -100 c-2 -16 -4 -3 -4 27 0 30 2 43 4 28 2 -16 2 -40 0 -55z m-509 17 c4 -13 3 -13 -11 -2 -9 8 -34 12 -64 10 -45 -3 -48 -4 -45 -30 2 -14 -2 -29 -7 -33 -12 -7 -16 57 -4 69 4 4 34 6 67 4 42 -2 61 -7 64 -18z m-11 -127 c-2 -21 -4 -4 -4 37 0 41 2 58 4 38 2 -21 2 -55 0 -75z m564 -16 c-8 -8 -11 4 -11 39 0 66 14 80 18 19 2 -26 -2 -53 -7 -58z m-684 56 c-4 -3 -7 0 -7 7 0 7 3 10 7 7 3 -4 3 -10 0 -14z m64 -103 c43 0 58 3 53 12 -4 7 -3 8 4 4 28 -17 7 -26 -58 -26 l-70 0 1 28 c2 23 2 24 6 5 4 -21 10 -23 64 -23z m246 0 c21 0 24 2 13 15 -7 9 -8 15 -2 15 5 0 12 -7 16 -15 3 -10 19 -15 45 -15 43 0 61 -14 42 -33 -9 -9 -11 -8 -6 6 6 15 -1 17 -68 17 -66 0 -75 -2 -80 -20 -3 -11 -10 -20 -16 -20 -15 0 -14 20 2 21 6 1 -6 5 -28 9 l-40 7 43 2 c38 1 42 3 43 29 2 23 2 24 6 5 3 -17 11 -23 30 -23z m83 30 c0 -5 -5 -10 -11 -10 -5 0 -7 5 -4 10 3 6 8 10 11 10 2 0 4 -4 4 -10z m250 -11 c0 -5 -4 -8 -9 -4 -5 3 -12 1 -16 -5 -4 -6 10 -10 37 -11 24 0 52 -4 62 -8 11 -4 -19 -6 -67 -3 l-87 5 0 -296 c0 -282 -1 -295 -19 -300 -14 -3 -18 -1 -14 9 3 8 9 14 14 14 5 0 9 122 9 279 0 258 -1 280 -17 284 -14 4 -12 5 5 6 13 1 22 8 23 19 0 10 3 12 6 5 6 -17 28 -16 43 2 14 17 30 20 30 4z m-480 -39 c0 -5 -2 -10 -4 -10 -3 0 -8 5 -11 10 -3 6 -1 10 4 10 6 0 11 -4 11 -10z m680 -20 c0 -16 -2 -30 -4 -30 -2 0 -6 14 -8 30 -3 17 -1 30 4 30 4 0 8 -13 8 -30z m-623 3 c-4 -3 -10 -3 -14 0 -3 4 0 7 7 7 7 0 10 -3 7 -7z m20 -260 c-1 -43 -3 -8 -3 77 0 85 2 120 3 78 2 -43 2 -113 0 -155z m600 185 c-3 -7 -5 -2 -5 12 0 14 2 19 5 13 2 -7 2 -19 0 -25z m-640 -130 c-2 -18 -4 -6 -4 27 0 33 2 48 4 33 2 -15 2 -42 0 -60z m520 65 c-4 -3 -7 0 -7 7 0 7 3 10 7 7 3 -4 3 -10 0 -14z m122 -15 c-1 -18 -3 -25 -6 -15 -2 9 -12 18 -21 18 -15 1 -15 2 1 6 9 2 17 9 17 14 0 5 2 9 5 9 3 0 4 -15 4 -32z m-56 5 c-7 -2 -21 -2 -30 0 -10 3 -4 5 12 5 17 0 24 -2 18 -5z m-63 -17 c0 -3 -5 -8 -12 -12 -7 -4 -8 -3 -4 4 7 12 16 16 16 8z m68 -3 c-10 -2 -26 -2 -35 0 -10 3 -2 5 17 5 19 0 27 -2 18 -5z m-591 -130 c-4 -3 -7 0 -7 7 0 7 3 10 7 7 3 -4 3 -10 0 -14z m73 -38 c0 -12 -13 -15 -59 -15 -33 0 -62 3 -64 8 -3 4 19 5 49 4 34 -3 54 0 54 7 0 6 5 11 10 11 6 0 10 -7 10 -15z m157 -222 c-4 -3 -7 0 -7 7 0 7 3 10 7 7 3 -4 3 -10 0 -14z"/>
 </g>
<g id="layer104" fill="#319ecc" stroke="none">
 <path d="M0 705 l0 -705 505 0 505 0 0 705 0 705 -505 0 -505 0 0 -705z m481 615 c18 -10 19 -24 19 -300 l0 -290 -75 0 -75 0 0 -190 0 -191 -62 3 -63 3 -3 188 -2 187 65 0 65 0 0 279 c0 179 4 282 10 286 6 4 8 10 5 15 -11 17 86 25 116 10z m291 -442 l3 -143 73 -3 72 -3 0 -102 0 -102 -67 0 -68 0 0 100 0 100 -72 3 -73 3 0 -296 c0 -162 -1 -295 -2 -295 -51 -8 -116 -9 -125 -3 -8 6 -12 85 -13 288 -1 154 -1 286 -1 293 1 8 22 12 71 12 l70 0 0 145 0 145 65 0 64 0 3 -142z m-568 -41 l1 -107 -67 0 -66 0 -1 101 c-1 55 1 105 5 110 3 6 33 9 66 7 l60 -3 2 -108z"/>
 </g>
<g id="layer105" fill="#84bacc" stroke="none">
 <path d="M0 705 l0 -705 505 0 505 0 0 705 0 705 -505 0 -505 0 0 -705z m481 615 c18 -10 19 -24 19 -300 l0 -290 -75 0 -75 0 0 -190 0 -190 -54 0 c-91 0 -86 -12 -86 196 l0 184 -70 0 -71 0 3 108 3 107 65 0 65 0 3 -107 3 -108 69 0 70 0 0 294 0 295 28 4 c53 8 83 7 103 -3z m299 -445 l0 -145 70 0 70 0 0 -105 0 -105 -70 0 -70 0 0 105 0 105 -70 0 -70 0 0 -295 c0 -162 -1 -295 -2 -295 -51 -8 -116 -9 -125 -3 -8 6 -12 85 -13 288 -1 154 -1 286 -1 293 1 8 22 12 71 12 l70 0 0 145 0 145 70 0 70 0 0 -145z"/>
 </g>
<g id="layer106" fill="#9dccdb" stroke="none">
 <path d="M0 705 l0 -705 505 0 505 0 0 705 0 705 -505 0 -505 0 0 -705z m498 323 l2 -298 -75 0 -75 0 0 -190 0 -190 -70 0 -70 0 0 190 0 190 -70 0 -71 0 3 108 3 107 65 0 65 0 3 -107 3 -108 69 0 70 0 0 294 0 295 28 4 c15 2 47 4 72 3 l45 -1 3 -297z m282 -153 l0 -145 70 0 70 0 0 -105 0 -105 -70 0 -70 0 0 105 0 105 -70 0 -70 0 0 -294 c0 -333 8 -304 -88 -302 l-52 1 -1 285 c0 157 0 291 0 298 1 8 22 12 71 12 l70 0 0 145 0 145 70 0 70 0 0 -145z"/>
 </g>
<g id="layer107" fill="#b2dde9" stroke="none">
 <path d="M0 705 l0 -705 505 0 505 0 0 705 0 705 -505 0 -505 0 0 -705z m498 323 l2 -298 -75 0 -75 0 0 -190 0 -190 -70 0 -70 0 0 190 0 190 -70 0 -71 0 3 108 3 107 65 0 65 0 3 -107 3 -108 69 0 70 0 0 294 0 295 28 4 c15 2 47 4 72 3 l45 -1 3 -297z m282 -150 l0 -148 70 0 70 0 0 -105 0 -105 -70 0 -70 0 0 105 0 105 -70 0 -70 0 0 -298 0 -299 -70 1 -70 1 -1 285 c0 157 0 291 0 298 1 8 22 12 71 12 l70 0 0 148 0 147 70 0 70 0 0 -147z"/>
 </g>
<g id="layer108" fill="#b1ecf6" stroke="none">
 <path d="M0 705 l0 -705 505 0 505 0 0 705 0 705 -505 0 -505 0 0 -705z m500 325 l0 -300 -76 0 -75 0 3 -190 3 -190 -72 0 -73 0 0 190 0 190 -70 0 -71 0 3 108 3 107 65 0 65 0 3 -107 3 -108 69 0 70 0 0 298 0 297 75 3 75 3 0 -301z m280 -152 l0 -148 73 0 72 0 0 -105 0 -105 -72 0 -73 0 0 105 0 105 -70 0 -70 0 0 -298 0 -298 -72 -2 -73 -3 2 288 c1 159 2 294 3 301 0 8 21 12 70 12 l71 0 -1 143 c-1 78 -1 144 0 147 0 3 32 5 70 5 l70 0 0 -147z"/>
 </g>
<g id="layer109" fill="#d4fbfe" stroke="none">
 <path d="M0 705 l0 -705 505 0 505 0 0 705 0 705 -505 0 -505 0 0 -705z m500 325 l0 -300 -76 0 -75 0 3 -190 3 -190 -72 0 -73 0 -2 188 -3 187 -73 3 -73 3 3 107 3 107 75 0 75 0 3 -107 3 -108 64 0 65 0 0 298 0 297 75 3 75 3 0 -301z m281 -154 l-3 -146 74 0 73 0 0 -105 0 -105 -72 0 -73 0 0 89 c0 122 1 121 -76 121 l-64 0 0 -298 0 -298 -72 -2 -73 -3 2 288 c1 159 2 294 3 301 0 8 20 12 64 12 42 0 66 4 69 13 2 6 5 72 5 145 0 72 1 133 1 135 1 1 33 2 73 1 l72 -1 -3 -147z"/>
 </g>
<g id="layer110" fill="#fdfefe" stroke="none">
 <path d="M0 705 l0 -705 505 0 505 0 0 705 0 705 -505 0 -505 0 0 -705z m497 622 c2 -3 5 -134 6 -293 l2 -289 65 0 65 0 3 116 c2 71 0 119 -6 123 -6 3 -8 14 -6 24 4 14 17 17 85 17 l79 0 0 -142 0 -143 68 0 67 0 -1 -117 -1 -116 -69 2 c-37 1 -72 5 -76 7 -4 3 -8 50 -8 105 l0 99 -60 0 -60 0 0 -295 c0 -229 -3 -295 -12 -296 -7 -1 -43 -2 -80 -3 -59 -1 -68 1 -72 19 -3 11 -1 24 4 29 11 11 14 447 4 509 l-7 38 -66 -3 -66 -3 -1 -185 -2 -185 -73 0 -74 0 -3 188 -2 188 -58 -2 c-32 -1 -64 1 -70 5 -8 5 -12 45 -12 122 l0 115 78 -3 77 -3 3 -107 3 -108 59 0 c50 0 60 3 60 18 0 9 0 137 0 283 0 146 2 273 6 282 5 13 18 15 76 12 39 -2 72 -6 75 -8z"/>
 </g>

</svg>