<?xml version="1.0" encoding="UTF-8"?>
<!DOCTYPE svg PUBLIC "-//W3C//DTD SVG 1.1//EN" "http://www.w3.org/Graphics/SVG/1.1/DTD/svg11.dtd">
<!-- Creator: CorelDRAW X7 -->
<svg xmlns="http://www.w3.org/2000/svg" xml:space="preserve" width="10in" height="10in" version="1.1" style="shape-rendering:geometricPrecision; text-rendering:geometricPrecision; image-rendering:optimizeQuality; fill-rule:evenodd; clip-rule:evenodd"
viewBox="0 0 10000 10000"
 xmlns:xlink="http://www.w3.org/1999/xlink">
 <defs>
  <style type="text/css">
   <![CDATA[
    .fil2 {fill:none}
    .fil0 {fill:#004B6A}
    .fil1 {fill:white}
   ]]>
  </style>
 </defs>
 <g id="Layer_x0020_1">
  <metadata id="CorelCorpID_0Corel-Layer"/>
  <g id="_2228386997104">
   <circle class="fil0" cx="5000" cy="5000" r="3100"/>
   <path class="fil1" d="M6779 2880c40,33 45,92 12,131 -33,40 -92,45 -132,12 -39,-33 -44,-92 -11,-132 33,-39 92,-45 131,-11zm-1298 -606c50,9 84,57 75,108 -9,51 -57,85 -108,76 -51,-9 -84,-57 -76,-108 9,-51 58,-85 109,-76zm466 125c48,18 73,71 56,120 -18,48 -72,73 -120,55 -49,-17 -74,-71 -56,-119 18,-49 71,-74 120,-56zm437 204c45,26 60,83 34,127 -26,45 -83,60 -127,35 -45,-26 -60,-83 -35,-128 26,-45 83,-60 128,-34zm736 618c34,39 28,98 -11,131 -40,33 -99,28 -132,-11 -33,-40 -28,-99 12,-132 39,-33 98,-28 131,12zm277 395c26,45 11,102 -34,128 -45,25 -102,10 -128,-35 -25,-44 -10,-101 35,-127 44,-26 101,-11 127,34zm204 437c18,49 -7,102 -56,120 -48,18 -102,-7 -119,-56 -18,-48 7,-102 55,-120 49,-17 102,8 120,56zm125 466c9,51 -25,100 -76,109 -51,8 -99,-25 -108,-76 -9,-51 25,-99 76,-108 51,-9 99,25 108,75zm42 481c0,52 -42,93 -93,93 -52,0 -94,-41 -94,-93 0,-52 42,-93 94,-93 51,0 93,41 93,93zm-42 481c-9,50 -57,84 -108,75 -51,-9 -85,-57 -76,-108 9,-51 57,-84 108,-76 51,9 85,58 76,109zm-125 466c-18,48 -71,73 -120,56 -48,-18 -73,-72 -55,-120 17,-49 71,-74 119,-56 49,18 74,71 56,120zm-204 437c-26,45 -83,60 -127,34 -45,-26 -60,-83 -35,-127 26,-45 83,-60 128,-35 45,26 60,83 34,128zm-277 395c-33,40 -92,45 -131,12 -40,-33 -45,-92 -12,-132 33,-39 92,-44 132,-11 39,33 45,92 11,131zm-341 341c-39,34 -98,28 -131,-11 -33,-40 -28,-99 11,-132 40,-33 99,-28 132,12 33,39 28,98 -12,131zm-395 277c-45,26 -102,11 -128,-34 -25,-45 -10,-102 35,-128 44,-25 101,-10 127,35 26,44 11,101 -34,127zm-437 204c-49,18 -102,-7 -120,-56 -18,-48 7,-102 56,-119 48,-18 102,7 120,55 17,49 -8,102 -56,120zm-466 125c-51,9 -100,-25 -109,-76 -8,-51 25,-99 76,-108 51,-9 99,25 108,76 9,51 -25,99 -75,108zm-481 42c-52,0 -93,-42 -93,-93 0,-52 41,-94 93,-94 52,0 93,42 93,94 0,51 -41,93 -93,93zm-481 -42c-50,-9 -84,-57 -75,-108 9,-51 57,-85 108,-76 51,9 84,57 76,108 -9,51 -58,85 -109,76zm-466 -125c-48,-18 -73,-71 -56,-120 18,-48 72,-73 120,-55 49,17 74,71 56,119 -18,49 -71,74 -120,56zm-437 -204c-45,-26 -60,-83 -34,-127 26,-45 83,-60 127,-35 45,26 60,83 35,128 -26,45 -83,60 -128,34zm-395 -277c-40,-33 -45,-92 -12,-131 33,-40 92,-45 132,-12 39,33 44,92 11,132 -33,39 -92,45 -131,11zm-341 -341c-34,-39 -28,-98 11,-131 40,-33 99,-28 132,11 33,40 28,99 -12,132 -39,33 -98,28 -131,-12zm-277 -395c-26,-45 -11,-102 34,-128 45,-25 102,-10 128,35 25,44 10,101 -35,127 -44,26 -101,11 -127,-34zm-204 -437c-18,-49 7,-102 56,-120 48,-18 102,7 119,56 18,48 -7,102 -55,120 -49,17 -102,-8 -120,-56zm-125 -466c-9,-51 25,-100 76,-109 51,-8 99,25 108,76 9,51 -25,99 -76,108 -51,9 -99,-25 -108,-75zm-42 -481c0,-52 42,-93 93,-93 52,0 94,41 94,93 0,52 -42,93 -94,93 -51,0 -93,-41 -93,-93zm42 -481c9,-50 57,-84 108,-75 51,9 85,57 76,108 -9,51 -57,84 -108,76 -51,-9 -85,-58 -76,-109zm125 -466c18,-48 71,-73 120,-56 48,18 73,72 55,120 -17,49 -71,74 -119,56 -49,-18 -74,-71 -56,-120zm204 -437c26,-45 83,-60 127,-34 45,26 60,83 35,127 -26,45 -83,60 -128,35 -45,-26 -60,-83 -34,-128zm277 -395c33,-40 92,-45 131,-12 40,33 45,92 12,132 -33,39 -92,44 -132,11 -39,-33 -45,-92 -11,-131zm341 -341c39,-34 98,-28 131,11 33,40 28,99 -11,132 -40,33 -99,28 -132,-12 -33,-39 -28,-98 12,-131zm395 -277c45,-26 102,-11 128,34 25,45 10,102 -35,128 -44,25 -101,10 -127,-35 -26,-44 -11,-101 34,-127zm437 -204c49,-18 102,7 120,56 18,48 -7,102 -56,119 -48,18 -102,-7 -120,-55 -17,-49 8,-102 56,-120zm466 -125c51,-9 100,25 109,76 8,51 -25,99 -76,108 -51,9 -99,-25 -108,-76 -9,-51 25,-99 75,-108zm481 -42c52,0 93,42 93,93 0,52 -41,94 -93,94 -52,0 -93,-42 -93,-94 0,-51 41,-93 93,-93zm-365 2427c33,0 60,27 60,61l0 1163c0,33 -27,61 -60,61l-143 0c-33,0 -60,-28 -60,-61l0 -859 0 -33c0,-33 -28,-61 -61,-61l-84 0c-34,0 -61,28 -61,61l0 33 0 859c0,33 -28,61 -61,61l-57 0 0 2 -767 0c-54,1 -104,-9 -150,-33l-507 -236 1125 0 33 0c59,0 107,-48 107,-106l0 -29 0 -822c0,-34 27,-61 61,-61 214,0 408,0 625,0zm370 -631c215,0 429,0 644,0 33,0 61,27 61,61l0 2180c0,33 -28,61 -61,61l-167 0c-34,0 -61,-28 -61,-61l0 -1870 0 -24c0,-34 -28,-61 -61,-61l-66 0c-33,0 -60,27 -60,61l0 24 0 1870c0,33 -28,61 -61,61l-90 0 0 1 -939 0c-38,1 -75,-7 -111,-26l-570 -266 0 0 1391 0 30 0c33,0 61,-27 61,-60l0 -39 0 -1851c0,-34 27,-61 60,-61zm928 2264l0 75c0,33 -27,61 -61,61l-53 0 -1522 0 557 259c33,18 67,25 104,24l1036 0 115 0 67 0c33,0 60,-28 60,-61l0 -2897 0 0c0,-33 27,-61 59,-61l57 0c33,0 61,28 61,61l0 0 0 2897c0,33 27,61 61,61l181 0c34,0 61,-28 61,-61l0 -3177c0,-34 -27,-61 -61,-61 -220,0 -441,0 -661,0 -34,0 -61,27 -61,61l0 2819z"/>
  </g>
  <rect class="fil2" x="1250" y="1250" width="7500" height="7500"/>
  <rect class="fil2" x="1283" y="1217" width="7500" height="7500"/>
 </g>
</svg>
