<?xml version="1.0" encoding="utf-8"?>
<!-- Generator: Adobe Illustrator 19.0.0, SVG Export Plug-In . SVG Version: 6.00 Build 0)  -->
<svg version="1.1" id="Layer_1" xmlns="http://www.w3.org/2000/svg" xmlns:xlink="http://www.w3.org/1999/xlink" x="0px" y="0px"
	 viewBox="-203 204 93 93" style="enable-background:new -203 204 93 93;" xml:space="preserve">
<style type="text/css">
	.st0{fill:#1E5FDA;}
</style>
<g id="layer101">
	<path class="st0" d="M-165.5,296.3c-3.2-0.7-11.5-3.4-11.5-3.8c0-0.2,1.7-3.2,3.8-6.6c2.1-3.5,5.2-8.8,6.8-11.6l2.9-5.3h7h7
		l2.9,5.3c1.6,2.8,4.7,8.1,6.8,11.6c2.1,3.4,3.8,6.5,3.8,6.7c0,0.2-3,1.2-6.6,2.4C-148.8,296.9-160,297.5-165.5,296.3z"/>
	<path class="st0" d="M-188.5,283.9c-3.1-3-6.8-7.3-8.2-9.7c-8.5-14.5-8.3-34.4,0.6-48.4c2.8-4.4,11.7-13.8,13-13.8
		c0.3,0,3.6,5.2,7.3,11.6l6.7,11.5l-4.5,7.6l-4.5,7.6l4.5,7.8l4.5,7.7l-4.3,7.4c-2.4,4-5.5,9.3-6.9,11.7l-2.5,4.4L-188.5,283.9z"/>
	<path class="st0" d="M-137.2,277.3l-6.8-11.6l3.4-5.6c6-10.1,6-8.9,1.1-17.4l-4.3-7.7l6.6-11.5c3.7-6.3,6.9-11.5,7.3-11.5
		c1.3,0,10.2,9.4,13,13.8c8.8,14,9.1,34.6,0.6,48.6c-2.3,3.7-12.5,14.6-13.6,14.6C-130.2,289-133.5,283.7-137.2,277.3z"/>
	<path class="st0" d="M-166.9,256.3l-3.4-5.6l2.8-5.1c4.2-7.6,4.1-7.6,11-7.6s6.8,0,11,7.5l2.7,5l-3.3,5.8l-3.3,5.7h-7.1h-7
		L-166.9,256.3z"/>
	<path class="st0" d="M-166.7,226.2c-1.8-3.1-4.8-8.5-6.7-11.9l-3.5-6.2l6.5-2.1c8.7-2.6,19.1-2.6,27.8,0l6.6,2.1l-3,5.2
		c-1.7,2.9-4.7,8.2-6.8,11.9l-3.7,6.8h-7h-7L-166.7,226.2z"/>
</g>
</svg>
