<!DOCTYPE svg PUBLIC "-//W3C//DTD SVG 20010904//EN" "http://www.w3.org/TR/2001/REC-SVG-20010904/DTD/svg10.dtd">
<svg version="1.0" xmlns="http://www.w3.org/2000/svg" width="139px" height="99px" viewBox="0 0 1390 990" preserveAspectRatio="xMidYMid meet">
<g id="layer101" fill="#010101" stroke="none">
 <path d="M0 495 l0 -495 695 0 695 0 0 495 0 495 -695 0 -695 0 0 -495z"/>
 </g>
<g id="layer102" fill="#2aaf04" stroke="none">
 <path d="M0 495 l0 -495 695 0 695 0 0 495 0 495 -695 0 -695 0 0 -495z m1169 388 c-34 -38 -132 -141 -217 -231 l-155 -163 54 -57 c30 -31 95 -100 145 -152 49 -52 123 -130 164 -172 l73 -78 -119 0 -120 0 -110 118 c-60 64 -132 141 -159 170 l-49 53 59 59 59 60 -59 60 -58 59 116 123 c64 68 136 144 159 169 l43 47 119 1 118 1 -63 -67z"/>
 </g>
<g id="layer103" fill="#4fc22d" stroke="none">
 <path d="M0 495 l0 -495 695 0 695 0 0 495 0 495 -695 0 -695 0 0 -495z m1169 388 c-34 -38 -132 -141 -217 -231 l-155 -163 54 -57 c30 -31 95 -100 145 -152 49 -52 123 -130 164 -172 l73 -78 -120 0 -120 0 -153 165 c-85 91 -157 165 -160 165 -4 0 -56 -53 -116 -117 -60 -65 -129 -139 -154 -165 l-45 -48 -112 0 c-62 0 -113 3 -113 6 0 3 12 18 28 33 15 14 79 82 142 151 63 68 144 155 180 193 36 38 65 73 65 77 0 8 -60 73 -319 345 -47 50 -86 93 -86 98 0 4 49 7 109 7 l109 0 156 -162 156 -163 153 159 c83 87 154 163 155 167 2 5 58 9 124 9 l120 0 -63 -67z"/>
 </g>
<g id="layer104" fill="#e5f9df" stroke="none">
 <path d="M0 495 l0 -495 695 0 695 0 0 495 0 495 -695 0 -695 0 0 -495z m520 289 c85 -90 157 -164 160 -164 3 0 75 74 160 164 l155 164 119 1 118 1 -63 -67 c-34 -38 -132 -141 -217 -231 l-155 -163 54 -57 c30 -31 95 -100 145 -152 49 -52 123 -130 164 -172 l73 -78 -120 0 -120 0 -153 165 c-85 91 -157 165 -161 165 -3 0 -26 -21 -50 -47 -23 -27 -93 -101 -153 -165 l-111 -118 -112 0 c-62 0 -113 3 -113 7 0 4 35 43 77 87 42 45 113 119 157 166 44 47 105 111 135 142 l54 57 -155 163 c-85 90 -183 193 -217 231 l-63 67 118 -1 119 -1 155 -164z"/>
 </g>
<g id="layer105" fill="#ffffff" stroke="none">
 <path d="M0 495 l0 -495 695 0 695 0 0 495 0 495 -695 0 -695 0 0 -495z m457 353 c56 -57 129 -132 162 -168 l61 -65 61 65 c33 36 94 99 135 140 41 41 74 80 74 85 0 6 9 18 20 28 17 14 42 17 147 17 l128 0 -38 -31 c-20 -17 -37 -36 -37 -43 0 -7 -41 -50 -90 -95 -50 -46 -90 -88 -90 -94 0 -7 -43 -54 -97 -105 l-98 -92 58 -53 c31 -29 57 -57 57 -62 0 -6 52 -60 115 -120 63 -61 115 -115 115 -121 0 -6 21 -31 47 -55 27 -24 46 -45 43 -47 -3 -2 -59 -3 -125 -4 l-119 0 -62 75 c-35 41 -94 103 -133 138 -39 35 -71 68 -71 74 0 7 -9 20 -20 30 -20 18 -21 18 -54 -16 -45 -47 -192 -205 -244 -262 l-43 -47 -115 0 c-62 0 -114 4 -114 8 0 4 29 37 65 72 36 35 65 67 65 71 0 6 124 136 252 267 l52 52 -71 73 c-132 134 -218 224 -291 306 l-73 81 114 0 113 0 101 -102z"/>
 </g>

</svg>