<svg width="252" height="252" viewBox="0 0 252 252" fill="none" xmlns="http://www.w3.org/2000/svg">
    <g filter="url(#filter0_d)">
        <path d="M74.1073 56.1192C77.6799 49.9312 84.2825 46.1192 91.4278 46.1192L160.572 46.1192C167.717 46.1192 174.32 49.9312 177.893 56.1192L212.465 116C216.038 122.188 216.038 129.812 212.465 136L177.893 195.881C174.32 202.069 167.718 205.881 160.572 205.881L91.4278 205.881C84.2825 205.881 77.68 202.069 74.1073 195.881L39.5351 136C35.9625 129.812 35.9624 122.188 39.5351 116L74.1073 56.1192Z" fill="white" fill-opacity="0.31"/>
        <path d="M75.4063 56.8692C78.711 51.1453 84.8184 47.6192 91.4278 47.6192L160.572 47.6192C167.182 47.6192 173.289 51.1453 176.594 56.8692L211.166 116.75C214.471 122.474 214.471 129.526 211.166 135.25L176.594 195.131C173.289 200.855 167.182 204.381 160.572 204.381L91.4278 204.381C84.8184 204.381 78.711 200.855 75.4063 195.131L40.8341 135.25C37.5294 129.526 37.5294 122.474 40.8341 116.75L75.4063 56.8692Z" stroke="white" stroke-opacity="0.3" stroke-width="3"/>
    </g>
    <path d="M139.965 157.296H111.3C109.603 157.296 108.229 155.921 108.229 154.225C108.229 152.529 109.603 151.154 111.3 151.154H139.965C141.662 151.154 143.037 152.529 143.037 154.225C143.037 155.921 141.661 157.296 139.965 157.296Z" fill="black" fill-opacity="0.12"/>
    <path d="M164.737 139.689H86.528C84.8316 139.689 83.4568 141.064 83.4568 142.76C83.4568 144.456 84.8313 145.832 86.528 145.832H164.737C166.433 145.832 167.808 144.456 167.808 142.76C167.808 141.064 166.433 139.689 164.737 139.689Z" fill="black"/>
    <path d="M100.727 116.253C100.727 109.988 95.6294 104.89 89.3642 104.89C83.0989 104.89 78.0018 109.988 78.0018 116.253C78.0018 122.518 83.0989 127.615 89.3642 127.615C95.6294 127.615 100.727 122.518 100.727 116.253Z" fill="black"/>
    <path d="M162.72 104.89C156.455 104.89 151.358 109.988 151.358 116.253C151.358 122.518 156.455 127.615 162.72 127.615C168.986 127.615 174.083 122.518 174.083 116.253C174.083 109.988 168.986 104.89 162.72 104.89Z" fill="black"/>
    <path d="M92.4669 116.941C94.1631 116.941 95.5381 115.566 95.5381 113.87C95.5381 112.174 94.1631 110.799 92.4669 110.799C90.7708 110.799 89.3958 112.174 89.3958 113.87C89.3958 115.566 90.7708 116.941 92.4669 116.941Z" fill="white"/>
    <path d="M165.762 116.941C167.459 116.941 168.834 115.566 168.834 113.87C168.834 112.174 167.459 110.799 165.762 110.799C164.066 110.799 162.691 112.174 162.691 113.87C162.691 115.566 164.066 116.941 165.762 116.941Z" fill="white"/>
    <defs>
        <filter id="filter0_d" x="8.24902" y="8.85828" width="235.502" height="242.283" filterUnits="userSpaceOnUse" color-interpolation-filters="sRGB">
            <feFlood flood-opacity="0" result="BackgroundImageFix"/>
            <feColorMatrix in="SourceAlpha" type="matrix" values="0 0 0 0 0 0 0 0 0 0 0 0 0 0 0 0 0 0 127 0"/>
            <feOffset dy="4"/>
            <feGaussianBlur stdDeviation="2"/>
            <feColorMatrix type="matrix" values="0 0 0 0 0 0 0 0 0 0 0 0 0 0 0 0 0 0 1 0"/>
            <feBlend mode="normal" in2="BackgroundImageFix" result="effect1_dropShadow"/>
            <feBlend mode="normal" in="SourceGraphic" in2="effect1_dropShadow" result="shape"/>
        </filter>
    </defs>
</svg>
