<?xml version="1.0" encoding="utf-8"?>
<!-- Generator: Adobe Illustrator 19.0.0, SVG Export Plug-In . SVG Version: 6.00 Build 0)  -->
<svg version="1.1" id="Layer_1" xmlns="http://www.w3.org/2000/svg" xmlns:xlink="http://www.w3.org/1999/xlink" x="0px" y="0px"
	 viewBox="77 145 212 212" style="enable-background:new 77 145 212 212;" xml:space="preserve">
<style type="text/css">
	.st0{fill:#88BDF3;}
	.st1{fill:#3075EE;}
	.st2{fill:#5795F1;}
	.st3{fill:#205FEC;}
	.st4{fill:#134BEF;}
	.st5{fill:#0932E8;}
	.st6{fill:#164BEA;}
	.st7{fill:#3170F1;}
</style>
<title>OKEx logo &amp; Subtitle</title>
<desc>Created with Sketch.</desc>
<g id="Path-raw">
	<circle id="Oval" class="st0" cx="183" cy="193" r="48"/>
	<circle id="Oval-Copy" class="st1" cx="183" cy="309" r="48"/>
	<circle id="Oval-Copy-2" class="st2" cx="241" cy="251" r="48"/>
	<circle id="Oval-Copy-3" class="st3" cx="125" cy="251" r="48"/>
	<path id="Combined-Shape" class="st4" d="M171.7,239.7c-17.4-4.2-31.1-17.9-35.3-35.3C153.7,208.6,167.4,222.3,171.7,239.7z"/>
	<path id="Combined-Shape_1_" class="st5" d="M136.3,297.7c4.2-17.4,17.9-31.1,35.3-35.3C167.4,279.7,153.7,293.4,136.3,297.7z"/>
	<path id="Combined-Shape_2_" class="st6" d="M194.3,262.3c17.4,4.2,31.1,17.9,35.3,35.3C212.3,293.4,198.6,279.7,194.3,262.3z"/>
	<path id="Combined-Shape_3_" class="st7" d="M229.7,204.3c-4.2,17.4-17.9,31.1-35.3,35.3C198.6,222.3,212.3,208.6,229.7,204.3z"/>
</g>
</svg>
