<!DOCTYPE svg PUBLIC "-//W3C//DTD SVG 20010904//EN" "http://www.w3.org/TR/2001/REC-SVG-20010904/DTD/svg10.dtd">
<svg version="1.0" xmlns="http://www.w3.org/2000/svg" width="464px" height="464px" viewBox="0 0 4640 4640" preserveAspectRatio="xMidYMid meet">
<g id="layer101" fill="#22da78" stroke="none">
 <path d="M0 2320 l0 -2320 2320 0 2320 0 0 2320 0 2320 -2320 0 -2320 0 0 -2320z"/>
 </g>
<g id="layer102" fill="#43c681" stroke="none">
 <path d="M0 2320 l0 -2320 2320 0 2320 0 0 2320 0 2320 -2320 0 -2320 0 0 -2320z m2384 1820 c17 -5 44 -12 59 -15 15 -3 25 -10 22 -15 -4 -6 1 -7 11 -3 12 4 15 3 10 -5 -5 -8 -2 -10 8 -6 9 3 16 1 16 -5 0 -6 8 -11 18 -11 11 0 32 -11 48 -25 16 -14 34 -25 40 -25 6 0 21 -9 34 -20 13 -11 31 -20 40 -20 9 0 25 -9 35 -20 10 -11 27 -22 39 -26 11 -4 38 -20 58 -36 20 -15 40 -28 45 -27 23 6 147 -76 138 -91 -2 -4 6 -5 19 -3 13 3 27 0 30 -6 4 -6 15 -11 25 -11 10 0 24 -7 31 -15 7 -8 16 -12 21 -9 8 5 13 -9 10 -28 -1 -7 14 -12 31 -9 15 2 117 -57 110 -63 -3 -4 1 -4 11 0 9 3 17 2 17 -2 0 -5 27 -22 60 -38 33 -16 60 -33 60 -38 0 -4 3 -7 8 -6 4 2 25 -8 47 -21 22 -14 42 -25 45 -25 3 -1 31 -18 62 -38 31 -21 61 -38 66 -38 19 0 61 -27 54 -35 -4 -5 -1 -5 6 -1 8 5 22 0 35 -12 12 -11 36 -27 54 -36 17 -9 34 -25 38 -36 3 -11 14 -20 23 -20 18 0 59 -54 54 -72 -1 -5 3 -17 10 -25 35 -42 37 -96 37 -873 0 -664 -2 -770 -15 -805 -9 -22 -18 -50 -21 -62 -3 -13 -9 -23 -13 -23 -5 0 -12 -9 -15 -20 -3 -11 -13 -20 -20 -20 -8 0 -17 -5 -21 -12 -5 -7 -3 -8 7 -3 12 8 12 6 1 -8 -8 -9 -22 -19 -33 -22 -11 -4 -17 -10 -14 -15 7 -11 -24 -22 -38 -13 -7 3 -9 2 -4 -2 12 -13 -109 -86 -129 -78 -11 4 -15 2 -11 -4 8 -13 -20 -26 -35 -16 -7 3 -8 1 -4 -5 4 -7 1 -12 -9 -12 -9 0 -14 -3 -12 -7 3 -5 -11 -16 -30 -26 -19 -9 -31 -12 -27 -6 9 15 -4 8 -81 -48 -33 -24 -66 -41 -73 -38 -7 2 -10 1 -7 -4 3 -5 -4 -12 -15 -16 -11 -4 -48 -24 -83 -46 -34 -21 -73 -44 -87 -50 -14 -6 -32 -17 -40 -24 -33 -30 -154 -85 -175 -79 -17 4 -17 3 -5 -6 12 -9 9 -10 -15 -6 -25 5 -27 4 -12 -5 17 -10 15 -12 -15 -30 -18 -11 -58 -31 -88 -45 -30 -14 -57 -29 -60 -33 -3 -4 -12 -11 -20 -15 -8 -4 -33 -18 -55 -31 -22 -13 -62 -36 -90 -51 -27 -15 -52 -29 -55 -33 -11 -13 -86 -49 -117 -56 -18 -3 -35 -11 -38 -16 -8 -12 -142 -12 -150 0 -3 5 -20 13 -38 16 -31 7 -106 43 -117 56 -5 6 -23 16 -170 94 -35 19 -60 35 -55 35 6 1 -19 16 -55 34 -122 61 -124 62 -103 75 15 9 13 10 -12 5 -24 -4 -27 -3 -15 6 12 9 12 10 -5 6 -20 -6 -115 37 -181 80 -49 33 -67 44 -110 64 -23 11 -47 26 -53 34 -7 8 -23 17 -37 20 -14 4 -22 11 -19 16 3 5 0 8 -7 5 -7 -3 -44 17 -82 44 -38 28 -73 48 -77 45 -5 -3 -21 2 -36 10 -16 8 -22 15 -15 16 6 0 12 4 12 9 0 5 -10 7 -22 3 -14 -3 -19 -1 -14 6 5 8 1 10 -10 5 -12 -4 -15 -3 -10 5 5 8 2 10 -8 6 -9 -3 -16 -1 -16 6 0 6 -4 8 -10 5 -13 -8 -132 69 -123 80 5 4 3 5 -4 2 -15 -9 -45 2 -37 14 3 5 2 9 -3 9 -4 0 -19 10 -33 21 -14 11 -19 17 -11 13 9 -5 12 -3 7 4 -4 7 -13 12 -21 12 -7 0 -17 9 -20 20 -3 11 -11 20 -16 20 -5 0 -9 9 -9 20 0 12 -8 33 -17 47 -17 25 -18 84 -21 798 -3 788 -1 854 35 896 8 9 13 21 11 27 -5 17 35 72 53 72 9 0 22 11 29 25 7 13 22 27 32 31 10 3 31 17 48 30 17 15 35 22 42 18 7 -4 10 -4 6 1 -7 8 35 35 54 35 5 0 33 16 62 35 29 19 56 35 59 35 4 0 26 13 49 29 24 16 46 27 50 25 5 -3 8 -1 8 4 0 5 27 22 60 38 33 16 60 33 60 38 0 4 8 5 17 2 10 -4 14 -4 11 0 -7 6 95 65 110 63 17 -3 32 2 31 9 -3 19 2 33 10 28 5 -3 14 1 21 9 7 8 21 15 31 15 10 0 21 5 25 11 3 6 17 9 30 6 13 -2 21 -1 19 3 -9 15 115 97 138 91 5 -1 25 12 45 27 20 16 47 32 58 36 12 4 29 15 39 26 10 11 26 20 35 20 9 0 27 9 39 19 12 10 35 24 51 31 17 7 30 16 30 20 0 5 14 11 30 15 17 4 30 11 30 17 0 6 7 7 16 4 8 -3 13 -2 10 3 -3 5 7 13 22 19 86 32 153 39 206 22z"/>
 <path d="M1975 3014 c-90 -17 -133 -29 -200 -55 -42 -16 -81 -27 -86 -23 -5 3 -8 0 -7 -8 2 -8 -4 -12 -16 -10 -11 2 -15 -1 -11 -7 3 -6 -1 -11 -9 -11 -9 0 -25 -9 -36 -20 -11 -11 -20 -17 -20 -14 0 3 -19 -14 -43 -38 -23 -24 -52 -49 -64 -57 -12 -8 -21 -17 -20 -20 2 -7 -13 -26 -50 -67 -13 -14 -23 -30 -23 -37 0 -7 -9 -19 -20 -27 -11 -8 -20 -22 -20 -31 0 -9 -7 -20 -16 -23 -8 -3 -13 -10 -9 -15 5 -9 -26 -107 -46 -143 -5 -10 -9 -37 -9 -62 0 -61 -10 -107 -23 -99 -5 3 -8 2 -5 -3 3 -5 8 -36 12 -69 3 -33 11 -85 17 -115 6 -30 13 -77 16 -104 3 -33 8 -44 14 -35 7 11 9 10 9 -4 0 -27 49 -119 78 -146 23 -21 29 -22 62 -12 20 6 49 22 64 36 15 14 41 32 59 41 18 9 36 23 40 30 4 8 12 14 18 14 11 0 70 40 80 54 4 4 9 2 12 -5 3 -9 7 -3 12 13 4 16 11 25 16 22 9 -5 5 13 -13 56 -24 57 -28 67 -37 105 -18 68 -7 195 18 215 3 3 16 26 29 53 13 26 30 47 39 47 10 0 13 6 9 16 -5 12 -2 15 9 10 9 -3 14 -2 11 2 -2 4 -1 14 4 22 9 15 13 16 46 19 9 0 12 6 8 13 -4 7 -3 8 4 4 6 -4 20 2 32 14 18 18 39 24 77 23 7 -1 11 3 8 7 -7 11 32 20 86 20 52 0 175 -41 193 -64 6 -9 20 -17 31 -19 30 -4 47 -17 41 -33 -3 -8 0 -11 10 -7 10 4 12 0 8 -11 -4 -12 0 -16 15 -16 12 0 21 -4 21 -8 0 -4 16 -6 36 -4 19 2 33 7 30 10 -5 5 81 66 96 68 5 1 12 2 17 3 8 1 25 15 94 75 9 9 20 16 25 16 16 1 60 46 67 69 5 16 4 21 -4 17 -6 -4 -11 0 -11 11 0 14 -2 15 -9 4 -6 -9 -11 -10 -15 -2 -4 6 -5 11 -2 11 3 0 -3 9 -13 21 -28 31 -37 40 -89 88 -26 24 -56 52 -67 62 -12 10 -26 19 -33 19 -7 0 -12 5 -12 10 0 6 -8 10 -17 8 -11 -2 -17 2 -15 10 1 8 -2 11 -7 8 -5 -3 -40 6 -77 20 -118 45 -165 55 -284 58 -63 2 -124 2 -135 0z"/>
 <path d="M1603 2993 c4 -3 10 -3 14 0 3 4 0 7 -7 7 -7 0 -10 -3 -7 -7z"/>
 <path d="M3206 2970 c-16 -10 -33 -17 -38 -14 -4 3 -8 0 -8 -6 0 -6 -5 -8 -12 -4 -6 4 -8 3 -5 -3 8 -13 -31 -45 -45 -37 -7 4 -8 3 -4 -5 4 -6 0 -14 -11 -18 -10 -3 -30 -15 -45 -25 -16 -11 -33 -16 -39 -12 -7 4 -9 3 -6 -3 3 -5 -7 -20 -23 -32 -27 -19 -75 -91 -52 -77 13 8 52 -79 55 -125 0 -13 6 -27 12 -31 6 -5 7 -11 0 -15 -5 -5 -11 -21 -11 -38 -4 -83 -10 -113 -26 -145 -28 -54 -41 -74 -60 -88 -10 -7 -18 -20 -18 -28 0 -17 -16 -19 -23 -1 -4 8 -6 8 -6 -3 -1 -14 -57 -68 -73 -71 -13 -2 -20 -4 -77 -22 -91 -28 -197 -19 -244 21 -9 8 -20 12 -24 9 -3 -4 -13 2 -20 13 -8 11 -18 18 -22 15 -5 -2 -30 16 -57 41 -28 25 -40 42 -29 39 14 -5 16 -4 7 2 -7 5 -23 8 -35 7 -12 -1 -27 -3 -32 -3 -13 -1 -142 -83 -168 -106 -10 -9 -21 -14 -24 -11 -3 3 -19 -8 -36 -25 -16 -17 -35 -28 -43 -25 -15 6 -38 -19 -30 -33 4 -5 2 -12 -3 -16 -11 -6 -8 -25 8 -68 6 -16 15 -25 21 -22 5 3 15 -5 21 -19 7 -14 15 -24 18 -21 4 2 28 -18 55 -45 26 -27 61 -54 77 -60 16 -7 29 -17 29 -22 0 -5 4 -7 9 -4 5 3 14 -1 21 -9 7 -8 19 -15 26 -15 8 0 14 -4 14 -10 0 -5 7 -7 15 -4 8 4 15 2 15 -4 0 -6 15 -14 33 -17 17 -4 37 -11 42 -15 6 -4 31 -11 58 -14 26 -4 45 -10 43 -14 -2 -4 30 -4 72 -1 42 4 115 5 162 2 77 -4 94 -2 172 26 49 17 95 31 103 31 8 0 15 4 15 10 0 5 7 6 17 3 10 -4 14 -2 9 5 -3 6 3 14 16 17 13 4 31 14 40 22 9 8 22 12 30 7 7 -4 10 -4 6 0 -8 9 101 112 114 108 5 -1 7 2 4 6 -7 12 28 44 38 35 4 -5 6 -1 4 7 -2 8 3 14 11 15 8 0 16 11 18 24 4 30 44 101 56 101 5 0 6 7 3 15 -3 9 1 18 9 21 8 3 19 22 25 42 6 21 15 46 20 57 20 44 30 138 30 280 -1 87 -5 151 -10 153 -6 2 -10 11 -10 20 0 10 -12 49 -26 87 -14 39 -26 78 -27 87 -1 9 -6 14 -11 11 -5 -4 -7 1 -3 11 4 9 3 15 -2 12 -4 -3 -19 6 -31 19 -28 29 -45 30 -84 5z"/>
 <path d="M2624 2858 c-4 -7 -3 -8 4 -4 7 4 12 9 12 12 0 8 -9 4 -16 -8z"/>
 <path d="M2965 2860 c3 -5 8 -10 11 -10 3 0 2 5 -1 10 -3 6 -8 10 -11 10 -3 0 -2 -4 1 -10z"/>
 <path d="M2880 2780 c0 -5 5 -10 10 -10 6 0 10 5 10 10 0 6 -4 10 -10 10 -5 0 -10 -4 -10 -10z"/>
 <path d="M1360 2710 c0 -7 3 -10 7 -7 3 4 3 10 0 14 -4 3 -7 0 -7 -7z"/>
 <path d="M2550 2470 c0 -7 3 -10 7 -7 3 4 3 10 0 14 -4 3 -7 0 -7 -7z"/>
 <path d="M2453 2413 c4 -3 10 -3 14 0 3 4 0 7 -7 7 -7 0 -10 -3 -7 -7z"/>
 <path d="M1740 2260 c0 -7 3 -10 7 -7 3 4 3 10 0 14 -4 3 -7 0 -7 -7z"/>
 <path d="M1700 2250 c0 -7 3 -10 7 -7 3 4 3 10 0 14 -4 3 -7 0 -7 -7z"/>
 <path d="M3330 2100 c0 -7 3 -10 7 -7 3 4 3 10 0 14 -4 3 -7 0 -7 -7z"/>
 <path d="M1740 2040 c0 -7 3 -10 7 -7 3 4 3 10 0 14 -4 3 -7 0 -7 -7z"/>
 <path d="M1925 1930 c3 -5 8 -10 11 -10 2 0 4 5 4 10 0 6 -5 10 -11 10 -5 0 -7 -4 -4 -10z"/>
 <path d="M1646 1875 c-11 -8 -15 -15 -9 -15 6 0 16 7 23 15 16 19 11 19 -14 0z"/>
 <path d="M753 1427 c0 -8 6 -14 14 -14 9 0 10 4 2 14 -6 7 -12 13 -14 13 -1 0 -2 -6 -2 -13z"/>
 <path d="M785 1430 c3 -5 8 -10 11 -10 3 0 2 5 -1 10 -3 6 -8 10 -11 10 -3 0 -2 -4 1 -10z"/>
 <path d="M3844 1428 c-4 -7 -3 -8 4 -4 7 4 12 9 12 12 0 8 -9 4 -16 -8z"/>
 <path d="M3871 1427 c-8 -10 -7 -14 2 -14 8 0 14 6 14 14 0 7 -1 13 -2 13 -2 0 -8 -6 -14 -13z"/>
 <path d="M1175 1160 c3 -5 8 -10 11 -10 3 0 2 5 -1 10 -3 6 -8 10 -11 10 -3 0 -2 -4 1 -10z"/>
 <path d="M3454 1158 c-4 -7 -3 -8 4 -4 7 4 12 9 12 12 0 8 -9 4 -16 -8z"/>
 <path d="M1385 1070 c-3 -5 -1 -10 4 -10 6 0 11 5 11 10 0 6 -2 10 -4 10 -3 0 -8 -4 -11 -10z"/>
 <path d="M3240 1070 c0 -5 5 -10 11 -10 5 0 7 5 4 10 -3 6 -8 10 -11 10 -2 0 -4 -4 -4 -10z"/>
 <path d="M1573 943 c4 -3 10 -3 14 0 3 4 0 7 -7 7 -7 0 -10 -3 -7 -7z"/>
 <path d="M3053 943 c4 -3 10 -3 14 0 3 4 0 7 -7 7 -7 0 -10 -3 -7 -7z"/>
 <path d="M1905 790 c-3 -5 -1 -10 4 -10 6 0 11 5 11 10 0 6 -2 10 -4 10 -3 0 -8 -4 -11 -10z"/>
 <path d="M2060 730 c0 -5 5 -10 11 -10 5 0 7 5 4 10 -3 6 -8 10 -11 10 -2 0 -4 -4 -4 -10z"/>
 <path d="M2565 730 c-3 -5 -1 -10 4 -10 6 0 11 5 11 10 0 6 -2 10 -4 10 -3 0 -8 -4 -11 -10z"/>
 </g>
<g id="layer103" fill="#35d184" stroke="none">
 <path d="M0 2320 l0 -2320 2320 0 2320 0 0 2320 0 2320 -2320 0 -2320 0 0 -2320z m2376 1831 c-6 -9 16 -21 37 -21 7 0 6 4 -3 10 -9 6 -10 10 -3 10 6 0 14 -4 18 -10 3 -5 13 -6 22 -3 11 4 14 3 9 -6 -5 -8 -3 -12 5 -10 34 4 42 0 29 -16 -11 -13 -10 -14 4 -9 9 3 16 1 16 -5 0 -6 8 -11 18 -11 14 0 15 2 2 10 -8 5 -11 10 -6 10 4 0 24 -16 43 -35 19 -19 42 -35 52 -35 10 1 6 6 -11 16 -38 20 -35 28 3 9 17 -9 28 -19 25 -22 -9 -9 36 -44 51 -39 7 3 15 1 18 -5 4 -5 10 -7 15 -4 4 3 14 -3 21 -13 13 -16 13 -16 -6 -2 -18 14 -19 14 -7 -2 8 -10 24 -20 35 -24 12 -4 39 -20 59 -36 34 -26 56 -36 98 -41 17 -3 86 -67 83 -78 -1 -4 7 -5 17 -2 11 3 27 0 35 -7 8 -6 19 -9 25 -5 6 4 31 -5 55 -20 44 -25 64 -46 25 -25 -16 8 -20 8 -18 -2 5 -21 21 -27 42 -16 12 6 18 7 14 3 -12 -12 28 -36 47 -29 10 4 15 2 13 -6 -2 -7 3 -15 11 -18 9 -3 11 0 6 8 -4 7 21 -4 56 -24 35 -20 63 -41 61 -47 -1 -6 2 -8 7 -4 12 7 66 -19 78 -37 4 -7 19 -22 33 -33 19 -15 22 -16 11 -2 -18 23 -11 22 40 -9 24 -14 35 -23 25 -20 -16 6 -17 4 -6 -9 7 -9 19 -14 27 -11 8 3 37 -6 64 -20 37 -18 49 -29 45 -41 -5 -12 -3 -13 7 -5 13 11 40 1 37 -14 -1 -5 9 -16 21 -24 18 -12 21 -12 15 -1 -6 9 -5 12 5 9 8 -3 13 -10 12 -16 -1 -5 4 -13 13 -16 10 -4 13 -2 8 7 -5 7 -1 7 10 -2 10 -8 13 -17 7 -20 -7 -4 -6 -12 0 -21 8 -11 12 -12 16 -3 3 9 12 6 28 -10 31 -29 67 -96 59 -108 -3 -6 -3 -27 1 -46 5 -27 9 -33 15 -22 10 16 14 -1546 4 -1586 -3 -14 -9 -23 -14 -20 -4 2 -12 -8 -19 -23 -11 -26 -11 -26 5 -7 16 20 16 19 9 -5 -21 -68 -108 -158 -143 -146 -16 6 -16 5 0 -7 14 -11 11 -16 -33 -41 -27 -15 -54 -24 -61 -20 -7 4 -8 3 -4 -4 4 -6 -6 -18 -24 -27 -24 -13 -35 -13 -53 -4 -19 11 -20 10 -9 -3 10 -13 9 -18 -3 -28 -10 -9 -15 -9 -15 -1 0 6 -7 11 -15 11 -8 0 -12 -6 -9 -14 7 -19 -33 -41 -50 -27 -9 7 -28 -1 -69 -30 -31 -22 -57 -42 -57 -44 0 -5 72 36 80 45 3 3 13 11 23 19 14 11 17 11 17 0 0 -16 -105 -75 -126 -71 -8 2 -14 -2 -14 -9 0 -9 -3 -9 -14 0 -12 10 -14 9 -10 -6 3 -14 -10 -26 -55 -51 -64 -34 -87 -41 -55 -17 17 14 16 14 -13 1 -17 -9 -35 -22 -39 -28 -5 -9 -3 -9 9 1 9 7 17 10 17 5 0 -5 -18 -19 -40 -31 -22 -12 -40 -18 -40 -13 0 5 9 12 21 15 11 4 18 9 15 12 -8 8 -58 -26 -52 -35 2 -4 -9 -15 -25 -25 -17 -9 -27 -12 -24 -7 9 15 -9 12 -31 -6 -10 -8 -13 -12 -5 -8 9 4 12 3 7 -4 -4 -6 -13 -9 -21 -5 -8 3 -15 0 -15 -6 0 -6 -7 -8 -17 -4 -11 5 -14 3 -8 -6 6 -10 3 -11 -13 -2 -30 16 -39 14 -16 -4 18 -14 17 -14 -9 -5 -39 14 -42 13 -18 -8 l22 -17 -30 -18 c-23 -13 -31 -15 -31 -5 0 7 -7 2 -16 -10 -9 -13 -21 -21 -27 -19 -6 2 -18 -4 -27 -13 -22 -25 -99 -69 -81 -47 8 11 9 17 2 17 -6 0 -17 -10 -26 -23 -15 -23 -105 -81 -91 -59 5 8 2 10 -8 6 -9 -3 -14 -10 -11 -15 3 -4 -5 -13 -17 -20 -22 -12 -22 -11 -8 6 13 17 13 18 0 10 -8 -5 -23 -19 -33 -32 -18 -23 -44 -33 -31 -12 4 8 0 8 -15 0 -11 -7 -21 -16 -21 -22 0 -5 -16 -17 -35 -25 -40 -16 -68 -19 -45 -4 8 5 10 10 4 10 -6 0 -17 -7 -24 -15 -17 -21 -123 -21 -140 0 -7 8 -18 15 -24 15 -6 0 -4 -5 4 -10 13 -9 13 -10 0 -10 -25 0 -136 57 -151 77 -8 11 -21 23 -29 28 -13 8 -13 7 0 -10 14 -17 14 -18 -8 -6 -12 7 -20 16 -17 20 3 5 -2 12 -11 15 -9 4 -13 2 -8 -5 4 -6 -24 6 -62 27 -104 57 -144 83 -144 94 0 5 -6 7 -14 4 -8 -3 -21 5 -30 18 -9 12 -16 17 -16 10 0 -10 -8 -8 -31 5 l-30 18 22 17 c24 21 21 22 -18 8 -26 -9 -27 -9 -9 5 23 18 14 20 -16 4 -16 -8 -19 -8 -13 1 5 9 1 10 -15 5 -17 -5 -21 -4 -15 6 6 9 4 11 -8 6 -9 -3 -19 -1 -23 5 -5 7 -2 8 7 4 8 -4 5 0 -5 8 -23 18 -40 21 -31 5 4 -6 -2 -5 -13 2 -12 7 -19 17 -16 21 3 4 -2 5 -10 2 -10 -4 -16 -1 -16 10 0 15 -37 42 -47 33 -2 -3 5 -8 16 -12 12 -3 21 -10 21 -15 0 -5 -18 1 -40 13 -22 12 -40 26 -40 31 0 5 8 2 17 -5 12 -10 14 -10 9 -1 -4 6 -22 19 -39 28 -29 13 -30 13 -13 -1 25 -19 13 -19 -25 1 -17 8 -28 18 -25 21 9 10 -15 33 -33 32 -10 0 -7 -4 8 -10 13 -5 22 -12 19 -15 -3 -2 -18 1 -32 8 -19 8 -26 17 -22 30 4 16 2 17 -10 7 -11 -9 -14 -9 -14 0 0 7 -6 11 -14 9 -21 -4 -126 55 -126 71 0 11 3 11 18 0 9 -8 19 -16 22 -19 8 -9 80 -50 80 -45 0 2 -26 22 -57 44 -41 29 -60 37 -69 30 -9 -7 -18 -7 -31 0 -10 6 -13 11 -8 11 6 0 3 5 -5 10 -10 6 -11 10 -2 10 6 0 12 4 12 9 0 5 -9 7 -20 4 -11 -3 -20 -10 -20 -15 0 -6 -7 -5 -15 2 -12 10 -13 16 -3 28 11 13 11 14 -1 8 -8 -5 -17 -3 -23 5 -8 11 -9 10 -4 -3 7 -22 3 -22 -35 -3 -17 9 -27 21 -23 27 4 7 3 8 -4 4 -7 -4 -34 5 -61 20 -43 25 -47 30 -33 41 15 11 15 11 -4 7 -13 -3 -26 1 -34 13 -12 15 -12 16 0 6 8 -7 19 -13 24 -13 6 0 0 7 -12 16 -12 8 -26 13 -31 10 -21 -13 -95 106 -85 138 4 11 2 16 -4 12 -5 -3 -13 5 -16 19 -10 40 -6 1602 4 1586 6 -11 10 -5 15 22 4 19 4 40 1 46 -8 12 28 79 59 108 16 15 25 19 28 10 5 -13 37 20 36 38 0 6 -3 4 -6 -2 -2 -7 -9 -13 -15 -13 -7 0 -6 5 2 14 6 8 18 12 26 9 9 -3 14 0 12 7 -2 7 3 15 11 18 10 3 11 0 5 -9 -6 -10 -1 -9 16 2 14 9 23 20 22 24 -6 14 22 24 35 13 10 -8 12 -7 7 5 -4 12 8 23 45 41 27 14 56 23 64 20 8 -3 18 0 22 5 3 6 11 8 17 5 7 -4 8 -2 4 4 -4 6 -14 9 -24 6 -9 -3 3 6 27 20 47 28 68 34 37 11 -11 -8 -15 -15 -10 -15 6 0 24 14 40 30 35 37 81 63 95 55 5 -4 8 -2 7 4 -2 6 26 27 61 47 35 20 60 31 56 24 -5 -8 -3 -11 6 -8 8 3 13 11 11 18 -2 8 3 10 13 6 19 -7 59 17 47 29 -4 4 2 3 14 -3 21 -11 37 -5 42 16 2 10 -2 10 -18 2 -39 -21 -19 0 25 25 24 15 49 24 55 20 6 -4 17 -1 25 5 8 7 24 10 35 7 10 -3 18 -2 17 2 -3 11 66 75 83 78 42 5 64 15 98 41 20 16 47 32 59 36 11 4 27 14 35 24 12 16 11 16 -7 2 -19 -14 -19 -14 -6 2 7 10 17 16 21 13 5 -3 11 -1 15 4 3 6 11 8 18 5 15 -5 60 30 51 39 -3 3 9 13 28 22 28 14 30 14 14 0 -11 -8 -24 -15 -30 -15 -5 0 -7 -2 -4 -5 7 -7 58 16 58 26 0 4 14 10 30 14 17 4 30 11 30 16 0 6 -8 5 -20 -1 -11 -6 -20 -8 -20 -6 0 10 101 57 110 51 5 -3 11 -1 15 5 3 5 12 10 18 10 7 0 6 -4 -3 -11 -12 -9 -12 -10 3 -5 10 3 23 6 28 6 6 0 7 5 4 10 -4 6 17 10 55 10 34 0 59 -4 56 -9z m-396 -135 c0 -3 -5 -8 -12 -12 -7 -4 -8 -3 -4 4 7 12 16 16 16 8z m-110 -63 c-8 -3 -24 -13 -35 -22 -20 -16 -20 -16 -1 7 11 12 26 22 35 21 14 0 14 -1 1 -6z m936 -15 c19 -23 19 -23 -1 -7 -11 9 -27 19 -35 22 -13 5 -13 6 1 6 9 1 24 -9 35 -21z m-1010 -33 c-8 -9 -25 -18 -37 -20 -25 -5 -20 1 18 25 33 20 42 18 19 -5z m1104 -20 c0 -9 -42 5 -55 19 -25 24 -17 26 20 5 19 -12 35 -23 35 -24z m-1250 -53 c0 -10 -81 -54 -87 -48 -2 2 15 15 39 29 52 30 48 29 48 19z m1427 -48 c-6 -6 -87 38 -87 47 0 4 20 -4 46 -18 25 -14 43 -27 41 -29z m-2400 -636 c-3 -8 -6 -5 -6 6 -1 11 2 17 5 13 3 -3 4 -12 1 -19z m3290 0 c-3 -8 -6 -5 -6 6 -1 11 2 17 5 13 3 -3 4 -12 1 -19z"/>
 <path d="M2464 4108 c-4 -7 -3 -8 4 -4 12 7 16 16 8 16 -3 0 -8 -5 -12 -12z"/>
 <path d="M2145 4100 c3 -5 8 -10 11 -10 3 0 2 5 -1 10 -3 6 -8 10 -11 10 -3 0 -2 -4 1 -10z"/>
 <path d="M1514 3748 c-4 -7 -3 -8 4 -4 12 7 16 16 8 16 -3 0 -8 -5 -12 -12z"/>
 <path d="M3115 3750 c3 -5 8 -10 11 -10 3 0 2 5 -1 10 -3 6 -8 10 -11 10 -3 0 -2 -4 1 -10z"/>
 <path d="M1345 3650 c3 -5 8 -10 11 -10 3 0 2 5 -1 10 -3 6 -8 10 -11 10 -3 0 -2 -4 1 -10z"/>
 <path d="M3284 3648 c-4 -7 -3 -8 4 -4 12 7 16 16 8 16 -3 0 -8 -5 -12 -12z"/>
 <path d="M1306 3634 c-11 -8 -16 -14 -10 -14 13 0 39 18 34 24 -3 2 -14 -2 -24 -10z"/>
 <path d="M3310 3641 c0 -9 30 -24 36 -18 2 1 -6 8 -16 15 -11 7 -20 8 -20 3z"/>
 <path d="M1264 3608 c-4 -7 -3 -8 4 -4 7 4 12 9 12 12 0 8 -9 4 -16 -8z"/>
 <path d="M3365 3610 c3 -5 8 -10 11 -10 3 0 2 5 -1 10 -3 6 -8 10 -11 10 -3 0 -2 -4 1 -10z"/>
 <path d="M1200 3570 c0 -7 3 -10 7 -7 3 4 3 10 0 14 -4 3 -7 0 -7 -7z"/>
 <path d="M3430 3570 c0 -7 3 -10 7 -7 3 4 3 10 0 14 -4 3 -7 0 -7 -7z"/>
 <path d="M1174 3558 c-4 -7 -3 -8 4 -4 7 4 12 9 12 12 0 8 -9 4 -16 -8z"/>
 <path d="M3455 3560 c3 -5 8 -10 11 -10 3 0 2 5 -1 10 -3 6 -8 10 -11 10 -3 0 -2 -4 1 -10z"/>
 <path d="M990 3454 c-14 -8 -18 -14 -10 -14 8 1 24 7 34 15 24 19 10 18 -24 -1z"/>
 <path d="M3626 3455 c10 -8 26 -14 34 -15 8 0 2 7 -14 15 -36 19 -45 19 -20 0z"/>
 <path d="M700 3208 c-12 -22 -12 -22 6 -6 10 10 15 20 12 24 -4 3 -12 -5 -18 -18z"/>
 <path d="M3920 3221 c0 -5 7 -15 17 -22 15 -13 15 -12 4 9 -12 23 -21 28 -21 13z"/>
 <path d="M2026 3008 c5 -8 -8 -9 -50 -4 -35 4 -55 3 -52 -3 9 -14 -28 -23 -60 -15 -18 5 -25 3 -21 -3 9 -14 -18 -24 -40 -16 -11 5 -14 3 -8 -6 5 -10 2 -12 -11 -7 -11 3 -26 1 -34 -4 -8 -5 -10 -10 -5 -10 6 0 -19 -16 -54 -36 -36 -20 -80 -47 -98 -61 -18 -14 -33 -21 -33 -15 0 5 7 12 15 16 8 3 15 11 15 17 0 13 -27 -15 -85 -90 -23 -29 -45 -49 -53 -46 -7 3 -11 1 -7 -4 6 -11 -76 -144 -84 -136 -2 3 1 11 7 17 7 7 12 16 12 21 0 5 -7 1 -16 -7 -8 -9 -14 -24 -13 -33 3 -33 -1 -44 -12 -37 -8 4 -7 9 2 16 12 8 12 9 0 6 -8 -2 -15 -14 -16 -26 -1 -11 2 -19 7 -16 4 3 8 1 8 -4 0 -6 -7 -13 -16 -16 -8 -3 -12 -10 -9 -16 7 -12 -13 -80 -28 -95 -7 -7 -7 -5 -2 4 6 10 4 12 -4 6 -9 -5 -11 -23 -6 -60 4 -34 2 -55 -4 -60 -6 -3 -11 -15 -11 -26 0 -11 -4 -18 -8 -15 -7 4 -2 -64 6 -89 1 -3 2 -20 2 -37 0 -26 3 -30 11 -18 8 11 9 4 5 -27 -6 -44 1 -76 15 -68 4 3 6 -18 2 -47 -5 -47 -4 -51 8 -35 13 16 15 15 26 -15 11 -30 11 -31 -2 -14 -23 31 -17 6 11 -44 24 -43 25 -42 9 5 -3 11 3 4 14 -15 22 -39 26 -54 11 -45 -5 3 -10 3 -10 0 0 -3 14 -11 31 -17 23 -8 27 -13 17 -19 -9 -6 -7 -9 10 -9 12 0 22 4 22 10 0 12 89 73 109 75 33 3 59 16 66 32 5 14 3 14 -15 -2 -11 -10 -22 -16 -25 -13 -10 10 44 38 60 31 13 -5 14 -7 3 -14 -8 -5 -9 -9 -2 -9 13 0 31 19 34 35 1 6 11 15 23 22 12 7 17 12 12 13 -19 0 -55 -31 -49 -42 5 -7 2 -8 -6 -3 -10 6 -3 17 26 42 46 39 58 41 49 11 -5 -18 -4 -20 4 -8 12 17 7 47 -20 112 -19 47 -26 90 -8 53 8 -17 9 -17 4 5 -2 14 -5 32 -5 40 0 12 -2 12 -9 2 -5 -8 -8 15 -7 57 0 39 4 71 8 71 5 0 5 12 2 26 -5 21 -4 25 6 19 10 -6 12 -4 7 9 -11 28 71 166 98 166 6 0 4 -4 -3 -9 -11 -7 -11 -9 1 -14 11 -4 15 0 12 14 -5 27 55 71 108 76 23 3 50 6 59 6 9 1 14 5 12 9 -3 4 -19 5 -37 2 -31 -4 -31 -4 -7 7 14 6 67 13 118 15 74 3 94 0 98 -11 4 -8 24 -20 45 -25 21 -6 47 -19 56 -29 17 -17 53 -35 53 -26 0 9 -65 49 -99 61 -22 8 -28 13 -16 13 29 1 114 -51 162 -98 26 -26 53 -43 74 -46 20 -3 27 -2 17 2 -13 7 -7 14 34 41 27 19 47 28 43 20 -4 -7 2 -4 12 8 24 28 79 65 86 58 3 -3 15 0 27 6 12 6 19 14 16 17 -7 8 13 33 26 33 5 0 6 -5 2 -11 -4 -7 7 -1 25 12 17 12 31 26 31 30 0 4 3 15 7 25 4 12 3 15 -5 10 -7 -4 -12 -15 -12 -24 0 -10 -10 -23 -22 -31 -18 -10 -20 -11 -10 0 6 7 12 21 12 30 0 23 -25 70 -33 62 -7 -7 -11 11 -8 37 2 13 1 13 -8 0 -10 -14 -15 -7 -12 13 1 5 -3 6 -8 3 -10 -6 -34 18 -25 26 9 9 -56 57 -70 52 -7 -3 -16 2 -20 11 -4 11 -2 14 7 9 8 -5 7 -2 -2 9 -7 9 -20 17 -27 17 -8 0 -14 5 -14 10 0 6 -4 10 -10 10 -18 0 -11 -18 10 -25 11 -3 20 -10 20 -14 0 -5 -27 6 -59 23 -33 17 -57 34 -55 37 6 11 -24 19 -43 12 -12 -5 -14 -3 -8 7 6 10 4 12 -8 7 -22 -8 -49 2 -40 16 4 6 -3 8 -21 3 -33 -8 -69 1 -60 16 4 6 -13 7 -51 3 -42 -6 -56 -5 -51 4 5 8 -11 11 -54 11 -44 0 -59 -3 -54 -12z m579 -186 c-3 -3 -11 0 -18 7 -9 10 -8 11 6 5 10 -3 15 -9 12 -12z m65 -236 c0 -2 -7 -7 -16 -10 -8 -3 -12 -2 -9 4 6 10 25 14 25 6z m-1383 -223 c-4 -3 -7 0 -7 7 0 7 3 10 7 7 3 -4 3 -10 0 -14z m-7 -145 c0 -16 -3 -19 -11 -11 -6 6 -8 16 -5 22 11 17 16 13 16 -11z m7 -195 c-4 -3 -7 0 -7 7 0 7 3 10 7 7 3 -4 3 -10 0 -14z m20 -70 c-4 -3 -7 0 -7 7 0 7 3 10 7 7 3 -4 3 -10 0 -14z"/>
 <path d="M1603 2993 c4 -3 10 -3 14 0 3 4 0 7 -7 7 -7 0 -10 -3 -7 -7z"/>
 <path d="M1888 2993 c7 -3 16 -2 19 1 4 3 -2 6 -13 5 -11 0 -14 -3 -6 -6z"/>
 <path d="M2258 2993 c7 -3 16 -2 19 1 4 3 -2 6 -13 5 -11 0 -14 -3 -6 -6z"/>
 <path d="M3238 2983 c6 -2 18 -2 25 0 6 3 1 5 -13 5 -14 0 -19 -2 -12 -5z"/>
 <path d="M3187 2958 c-6 -4 -15 -4 -21 -1 -5 3 -6 1 -2 -5 5 -9 13 -9 27 -2 38 21 18 2 -37 -34 -31 -21 -53 -33 -50 -28 4 6 1 14 -5 18 -8 4 -9 3 -5 -4 4 -7 -5 -23 -20 -37 -28 -26 -50 -34 -38 -12 4 7 3 9 -2 4 -5 -5 -9 -12 -9 -17 0 -5 -20 -23 -44 -40 -24 -18 -40 -26 -36 -19 5 8 4 10 -3 5 -8 -4 -8 -15 -2 -31 6 -17 6 -25 -1 -25 -6 0 -7 -5 -4 -10 4 -6 10 -8 15 -5 4 3 10 -2 14 -10 3 -8 1 -15 -4 -15 -6 0 -10 -4 -10 -10 0 -5 6 -10 14 -10 14 0 26 -29 26 -63 0 -10 -4 -15 -10 -12 -5 3 -10 2 -10 -4 0 -5 6 -12 13 -14 8 -4 8 -8 2 -14 -13 -11 -19 -113 -6 -113 13 0 1 -42 -29 -100 -29 -57 -126 -154 -146 -146 -8 3 -13 2 -10 -2 3 -5 -11 -16 -30 -25 -43 -21 -54 -22 -28 -2 17 14 17 14 -11 3 -16 -6 -37 -17 -45 -24 -13 -10 -140 -13 -160 -4 -3 1 -13 1 -24 0 -12 -1 -16 2 -10 11 5 9 2 11 -9 6 -24 -9 -79 13 -73 28 3 8 -2 19 -10 25 -8 7 -14 9 -14 5 0 -4 -6 -4 -13 1 -7 5 -5 2 5 -8 26 -24 22 -31 -7 -12 -14 9 -25 23 -25 30 0 8 -5 14 -11 14 -5 0 -8 4 -4 9 3 5 0 13 -6 17 -8 4 -9 3 -5 -4 12 -19 -9 -14 -28 7 -18 20 -70 36 -59 18 4 -6 0 -8 -9 -4 -18 6 -61 -20 -53 -33 6 -10 -29 -32 -38 -24 -6 6 -67 -23 -67 -32 0 -2 9 0 20 6 11 6 20 7 20 3 0 -14 -94 -68 -120 -68 -14 0 -31 -4 -37 -8 -16 -10 -17 -27 -2 -27 5 0 7 6 3 13 -4 6 -4 9 1 5 4 -4 16 -3 26 3 32 17 21 2 -15 -21 -22 -13 -33 -27 -31 -38 8 -38 26 -73 35 -67 15 9 12 17 -2 9 -7 -4 -10 -4 -6 1 4 4 2 15 -4 24 -8 10 -4 9 9 -3 13 -10 21 -22 19 -25 -2 -3 2 -17 10 -31 l15 -25 -7 25 c-6 22 -5 23 9 11 9 -7 15 -17 12 -21 -6 -10 20 -32 28 -24 4 4 11 -4 16 -17 9 -24 34 -50 61 -63 8 -4 4 2 -10 13 -30 24 -20 28 15 5 14 -9 22 -21 18 -27 -4 -6 -1 -7 7 -2 7 5 20 -2 34 -17 11 -13 17 -18 12 -10 -7 10 1 8 27 -4 20 -10 37 -23 37 -30 0 -13 46 -28 60 -19 4 3 19 0 32 -5 23 -10 23 -10 0 -6 -13 2 -20 0 -16 -6 4 -6 22 -8 40 -5 19 3 32 2 30 -2 -3 -5 7 -6 22 -3 25 5 26 4 12 -13 -13 -17 -13 -18 0 -9 18 11 290 22 283 12 -5 -10 23 -10 55 -1 18 4 21 8 10 15 -9 7 -4 8 15 3 20 -4 27 -2 22 6 -5 8 -1 9 15 4 17 -5 21 -4 15 6 -6 9 -3 11 8 6 10 -3 17 -3 17 1 0 5 20 18 45 30 25 12 44 17 42 11 -1 -7 4 -14 12 -17 8 -3 11 0 7 7 -4 6 -1 11 6 11 10 0 11 2 0 8 -9 6 -5 12 14 21 25 11 26 11 13 -5 -12 -15 -12 -17 1 -12 8 2 20 15 26 27 10 19 70 71 82 71 3 0 -3 -10 -14 -22 -10 -13 1 -5 24 17 44 41 58 61 20 29 -13 -10 -5 0 16 23 30 32 43 40 52 32 10 -8 12 -5 8 15 -2 13 0 27 5 30 5 3 8 0 7 -7 0 -6 3 -14 9 -17 5 -3 10 11 11 30 2 35 83 200 84 169 0 -8 -5 -20 -12 -27 -8 -8 -9 -12 -1 -12 14 0 37 65 29 79 -4 5 -1 30 6 56 10 36 14 42 20 28 5 -11 7 -5 4 19 -3 26 0 38 10 42 12 5 13 10 3 27 -7 15 -9 60 -4 150 5 90 4 129 -4 129 -6 0 -9 -13 -6 -32 l5 -33 -10 30 c-6 17 -8 44 -4 60 3 19 2 25 -4 17 -12 -17 -35 59 -25 84 5 13 3 15 -7 9 -10 -6 -12 -4 -7 8 4 11 1 17 -7 17 -8 0 -22 20 -33 45 -18 45 -19 45 -61 43 -24 -2 -49 -6 -55 -10z m-195 -470 c-7 -7 -12 -8 -12 -2 0 14 12 26 19 19 2 -3 -1 -11 -7 -17z m-802 -218 c0 -5 -5 -10 -11 -10 -5 0 -7 5 -4 10 3 6 8 10 11 10 2 0 4 -4 4 -10z m517 -117 c-4 -3 -10 -3 -14 0 -3 4 0 7 7 7 7 0 10 -3 7 -7z m-407 -363 c8 -5 11 -10 5 -10 -5 0 -17 5 -25 10 -8 5 -10 10 -5 10 6 0 17 -5 25 -10z m467 -46 c-3 -3 -12 -4 -19 -1 -8 3 -5 6 6 6 11 1 17 -2 13 -5z"/>
 <path d="M3144 2942 c3 -6 -2 -15 -11 -21 -10 -6 -13 -11 -7 -11 20 0 37 27 23 36 -7 4 -9 3 -5 -4z"/>
 <path d="M3316 2918 c17 -33 20 -34 20 -9 0 11 -5 17 -10 14 -5 -4 -7 0 -4 9 4 8 0 15 -7 15 -11 0 -11 -6 1 -29z"/>
 <path d="M1683 2923 c0 -9 6 -9 21 -1 30 15 30 16 3 14 -13 0 -24 -6 -24 -13z"/>
 <path d="M2432 2935 c2 -1 12 -7 24 -13 15 -8 21 -8 21 1 0 7 -11 13 -24 13 -14 1 -23 1 -21 -1z"/>
 <path d="M1655 2910 c3 -5 8 -10 11 -10 2 0 4 5 4 10 0 6 -5 10 -11 10 -5 0 -7 -4 -4 -10z"/>
 <path d="M1614 2884 c-18 -14 -18 -14 6 -3 31 14 36 19 24 19 -6 0 -19 -7 -30 -16z"/>
 <path d="M3055 2870 c-3 -6 1 -7 9 -4 18 7 21 14 7 14 -6 0 -13 -4 -16 -10z"/>
 <path d="M2624 2858 c-4 -7 -3 -8 4 -4 7 4 12 9 12 12 0 8 -9 4 -16 -8z"/>
 <path d="M2965 2860 c3 -5 8 -10 11 -10 3 0 2 5 -1 10 -3 6 -8 10 -11 10 -3 0 -2 -4 1 -10z"/>
 <path d="M2992 2841 c2 -5 -6 -17 -17 -26 -20 -16 -20 -16 2 -5 27 13 36 27 23 35 -6 4 -9 2 -8 -4z"/>
 <path d="M3360 2820 c0 -7 3 -10 7 -7 3 4 3 10 0 14 -4 3 -7 0 -7 -7z"/>
 <path d="M1480 2770 c-13 -11 -19 -20 -13 -20 5 0 18 9 28 20 10 11 16 20 13 20 -3 0 -15 -9 -28 -20z"/>
 <path d="M2880 2780 c0 -5 5 -10 10 -10 6 0 10 5 10 10 0 6 -4 10 -10 10 -5 0 -10 -4 -10 -10z"/>
 <path d="M2916 2743 c-6 -14 -5 -15 5 -6 7 7 10 15 7 18 -3 3 -9 -2 -12 -12z"/>
 <path d="M1360 2710 c0 -7 3 -10 7 -7 3 4 3 10 0 14 -4 3 -7 0 -7 -7z"/>
 <path d="M2740 2700 c0 -7 3 -10 7 -7 3 4 3 10 0 14 -4 3 -7 0 -7 -7z"/>
 <path d="M1405 2680 c3 -5 8 -10 11 -10 3 0 2 5 -1 10 -3 6 -8 10 -11 10 -3 0 -2 -4 1 -10z"/>
 <path d="M1391 2654 c0 -11 3 -14 6 -6 3 7 2 16 -1 19 -3 4 -6 -2 -5 -13z"/>
 <path d="M2971 2624 c0 -11 3 -14 6 -6 3 7 2 16 -1 19 -3 4 -6 -2 -5 -13z"/>
 <path d="M2003 2583 c4 -3 10 -3 14 0 3 4 0 7 -7 7 -7 0 -10 -3 -7 -7z"/>
 <path d="M2143 2583 c4 -3 10 -3 14 0 3 4 0 7 -7 7 -7 0 -10 -3 -7 -7z"/>
 <path d="M1882 2543 c-6 -2 -10 -9 -6 -14 3 -5 -2 -9 -10 -9 -8 0 -17 -4 -21 -10 -3 -5 6 -5 24 1 16 6 32 17 35 25 6 14 0 16 -22 7z"/>
 <path d="M2585 2524 c-26 -22 -27 -24 -5 -13 27 14 56 39 43 39 -4 -1 -21 -12 -38 -26z"/>
 <path d="M2345 2470 c-3 -6 1 -7 9 -4 18 7 21 14 7 14 -6 0 -13 -4 -16 -10z"/>
 <path d="M2494 2468 c-4 -7 -3 -8 4 -4 12 7 16 16 8 16 -3 0 -8 -5 -12 -12z"/>
 <path d="M2550 2470 c0 -7 3 -10 7 -7 3 4 3 10 0 14 -4 3 -7 0 -7 -7z"/>
 <path d="M1774 2445 c-18 -14 -18 -14 4 -8 12 3 22 9 22 14 0 12 -3 11 -26 -6z"/>
 <path d="M2360 2450 c0 -5 5 -10 11 -10 5 0 7 5 4 10 -3 6 -8 10 -11 10 -2 0 -4 -4 -4 -10z"/>
 <path d="M2475 2450 c3 -5 8 -10 11 -10 3 0 2 5 -1 10 -3 6 -8 10 -11 10 -3 0 -2 -4 1 -10z"/>
 <path d="M1290 2440 c0 -7 3 -10 7 -7 3 4 3 10 0 14 -4 3 -7 0 -7 -7z"/>
 <path d="M1742 2400 c-18 -29 -15 -38 4 -12 9 13 14 25 12 27 -2 2 -9 -5 -16 -15z"/>
 <path d="M2453 2413 c4 -3 10 -3 14 0 3 4 0 7 -7 7 -7 0 -10 -3 -7 -7z"/>
 <path d="M2954 2398 c-4 -7 -3 -8 4 -4 12 7 16 16 8 16 -3 0 -8 -5 -12 -12z"/>
 <path d="M1715 2350 c-3 -5 -1 -10 4 -10 6 0 11 5 11 10 0 6 -2 10 -4 10 -3 0 -8 -4 -11 -10z"/>
 <path d="M2920 2335 c-7 -9 -11 -17 -9 -20 3 -2 10 5 17 15 14 24 10 26 -8 5z"/>
 <path d="M3381 2323 c0 -6 -4 -20 -7 -30 -5 -14 -4 -15 5 -7 7 7 11 20 8 30 -3 11 -5 14 -6 7z"/>
 <path d="M2275 2311 c-2 -5 3 -15 12 -22 9 -8 14 -9 10 -2 -4 6 -2 13 5 15 8 3 6 7 -5 11 -9 3 -19 2 -22 -2z"/>
 <path d="M2879 2283 c-13 -16 -12 -17 4 -4 16 13 21 21 13 21 -2 0 -10 -8 -17 -17z"/>
 <path d="M1740 2260 c0 -7 3 -10 7 -7 3 4 3 10 0 14 -4 3 -7 0 -7 -7z"/>
 <path d="M2841 2258 c-1 -9 -9 -22 -18 -27 -10 -6 -13 -11 -7 -11 17 0 37 27 31 42 -4 8 -6 7 -6 -4z"/>
 <path d="M1700 2250 c0 -7 3 -10 7 -7 3 4 3 10 0 14 -4 3 -7 0 -7 -7z"/>
 <path d="M2134 2248 c-4 -7 -3 -8 4 -4 12 7 16 16 8 16 -3 0 -8 -5 -12 -12z"/>
 <path d="M2015 2177 l-20 -20 25 13 c32 16 33 17 23 23 -4 2 -17 -5 -28 -16z"/>
 <path d="M2421 2197 c2 -1 13 -9 24 -17 19 -14 19 -14 6 3 -7 9 -18 17 -24 17 -6 0 -8 -1 -6 -3z"/>
 <path d="M3315 2160 c-3 -5 -1 -10 4 -10 6 0 11 5 11 10 0 6 -2 10 -4 10 -3 0 -8 -4 -11 -10z"/>
 <path d="M2653 2153 c4 -3 10 -3 14 0 3 4 0 7 -7 7 -7 0 -10 -3 -7 -7z"/>
 <path d="M3330 2100 c0 -7 3 -10 7 -7 3 4 3 10 0 14 -4 3 -7 0 -7 -7z"/>
 <path d="M1717 2049 c4 -13 8 -18 11 -10 2 7 -1 18 -6 23 -8 8 -9 4 -5 -13z"/>
 <path d="M1740 2040 c0 -7 3 -10 7 -7 3 4 3 10 0 14 -4 3 -7 0 -7 -7z"/>
 <path d="M1738 1995 c2 -14 8 -27 12 -30 4 -2 5 7 2 20 -2 14 -8 27 -12 30 -4 2 -5 -7 -2 -20z"/>
 <path d="M3199 1993 c-13 -16 -12 -17 4 -4 16 13 21 21 13 21 -2 0 -10 -8 -17 -17z"/>
 <path d="M1925 1930 c3 -5 8 -10 11 -10 2 0 4 5 4 10 0 6 -5 10 -11 10 -5 0 -7 -4 -4 -10z"/>
 <path d="M3071 1876 c-9 -11 -9 -16 0 -22 7 -4 9 -3 5 4 -3 5 0 12 6 15 7 2 10 7 7 11 -3 4 -12 0 -18 -8z"/>
 <path d="M2160 1840 c0 -7 3 -10 7 -7 3 4 3 10 0 14 -4 3 -7 0 -7 -7z"/>
 <path d="M1486 1789 c-21 -16 -35 -29 -31 -29 14 0 75 41 75 51 0 12 1 12 -44 -22z"/>
 <path d="M2230 1800 c0 -7 3 -10 7 -7 3 4 3 10 0 14 -4 3 -7 0 -7 -7z"/>
 <path d="M2935 1800 c-3 -5 1 -10 9 -10 9 0 16 5 16 10 0 6 -4 10 -9 10 -6 0 -13 -4 -16 -10z"/>
 <path d="M670 1550 c0 -7 3 -10 7 -7 3 4 3 10 0 14 -4 3 -7 0 -7 -7z"/>
 <path d="M3960 1550 c0 -7 3 -10 7 -7 3 4 3 10 0 14 -4 3 -7 0 -7 -7z"/>
 <path d="M690 1491 c0 -5 5 -13 10 -16 6 -3 10 -2 10 4 0 5 -4 13 -10 16 -5 3 -10 2 -10 -4z"/>
 <path d="M720 1431 c0 -6 4 -13 10 -16 6 -3 7 1 4 9 -7 18 -14 21 -14 7z"/>
 <path d="M753 1427 c0 -8 6 -14 14 -14 9 0 10 4 2 14 -6 7 -12 13 -14 13 -1 0 -2 -6 -2 -13z"/>
 <path d="M785 1430 c3 -5 8 -10 11 -10 3 0 2 5 -1 10 -3 6 -8 10 -11 10 -3 0 -2 -4 1 -10z"/>
 <path d="M3844 1428 c-4 -7 -3 -8 4 -4 7 4 12 9 12 12 0 8 -9 4 -16 -8z"/>
 <path d="M3871 1427 c-8 -10 -7 -14 2 -14 8 0 14 6 14 14 0 7 -1 13 -2 13 -2 0 -8 -6 -14 -13z"/>
 <path d="M3906 1423 c-6 -14 -5 -15 5 -6 7 7 10 15 7 18 -3 3 -9 -2 -12 -12z"/>
 <path d="M752 1391 c2 -7 7 -12 11 -12 12 1 9 15 -3 20 -7 2 -11 -2 -8 -8z"/>
 <path d="M3865 1391 c-6 -11 9 -23 19 -14 9 9 7 23 -3 23 -6 0 -12 -4 -16 -9z"/>
 <path d="M3830 1350 c-9 -6 -10 -10 -3 -10 6 0 15 5 18 10 8 12 4 12 -15 0z"/>
 <path d="M845 1321 c-3 -5 0 -13 7 -17 7 -4 24 -14 38 -22 l25 -14 -25 21 c-14 11 -29 21 -33 21 -5 0 -5 5 -2 10 3 6 4 10 1 10 -3 0 -7 -4 -11 -9z"/>
 <path d="M3784 1322 c4 -7 4 -12 -1 -12 -4 0 -19 -10 -33 -21 -28 -23 1 -11 34 14 15 11 16 16 6 22 -9 5 -11 4 -6 -3z"/>
 <path d="M946 1248 c3 -5 10 -6 15 -3 13 9 11 12 -6 12 -8 0 -12 -4 -9 -9z"/>
 <path d="M3676 1248 c3 -5 10 -6 15 -3 13 9 11 12 -6 12 -8 0 -12 -4 -9 -9z"/>
 <path d="M3645 1240 c3 -5 11 -10 16 -10 6 0 7 5 4 10 -3 6 -11 10 -16 10 -6 0 -7 -4 -4 -10z"/>
 <path d="M1020 1220 c-9 -6 -10 -10 -3 -10 6 0 15 5 18 10 8 12 4 12 -15 0z"/>
 <path d="M3607 1219 c7 -7 15 -10 18 -7 3 3 -2 9 -12 12 -14 6 -15 5 -6 -5z"/>
 <path d="M3555 1180 c-3 -6 1 -7 9 -4 18 7 21 14 7 14 -6 0 -13 -4 -16 -10z"/>
 <path d="M1175 1160 c3 -5 8 -10 11 -10 3 0 2 5 -1 10 -3 6 -8 10 -11 10 -3 0 -2 -4 1 -10z"/>
 <path d="M3454 1158 c-4 -7 -3 -8 4 -4 7 4 12 9 12 12 0 8 -9 4 -16 -8z"/>
 <path d="M1385 1070 c-3 -5 -1 -10 4 -10 6 0 11 5 11 10 0 6 -2 10 -4 10 -3 0 -8 -4 -11 -10z"/>
 <path d="M3240 1070 c0 -5 5 -10 11 -10 5 0 7 5 4 10 -3 6 -8 10 -11 10 -2 0 -4 -4 -4 -10z"/>
 <path d="M3300 1039 c-14 -11 -19 -18 -12 -14 57 30 65 35 52 35 -8 0 -26 -10 -40 -21z"/>
 <path d="M1573 943 c4 -3 10 -3 14 0 3 4 0 7 -7 7 -7 0 -10 -3 -7 -7z"/>
 <path d="M3053 943 c4 -3 10 -3 14 0 3 4 0 7 -7 7 -7 0 -10 -3 -7 -7z"/>
 <path d="M1700 826 c0 -2 7 -7 16 -10 8 -3 12 -2 9 4 -6 10 -25 14 -25 6z"/>
 <path d="M2915 820 c-3 -6 1 -7 9 -4 18 7 21 14 7 14 -6 0 -13 -4 -16 -10z"/>
 <path d="M1905 790 c-3 -5 -1 -10 4 -10 6 0 11 5 11 10 0 6 -2 10 -4 10 -3 0 -8 -4 -11 -10z"/>
 <path d="M1830 755 c14 -8 30 -14 35 -14 6 0 -1 6 -15 14 -14 8 -29 14 -35 14 -5 0 1 -6 15 -14z"/>
 <path d="M2790 755 c-14 -8 -20 -14 -15 -14 6 0 21 6 35 14 14 8 21 14 15 14 -5 0 -21 -6 -35 -14z"/>
 <path d="M2060 730 c0 -5 5 -10 11 -10 5 0 7 5 4 10 -3 6 -8 10 -11 10 -2 0 -4 -4 -4 -10z"/>
 <path d="M2565 730 c-3 -5 -1 -10 4 -10 6 0 11 5 11 10 0 6 -2 10 -4 10 -3 0 -8 -4 -11 -10z"/>
 <path d="M1880 726 c0 -3 9 -10 20 -16 11 -6 20 -8 20 -6 0 3 -9 10 -20 16 -11 6 -20 8 -20 6z"/>
 <path d="M1950 685 c0 -2 9 -9 19 -15 14 -7 22 -7 27 2 4 6 3 8 -4 4 -6 -3 -13 -2 -17 4 -6 10 -25 14 -25 5z"/>
 <path d="M2659 673 c-13 -15 -12 -15 9 -4 23 12 28 21 13 21 -5 0 -15 -7 -22 -17z"/>
 <path d="M2110 596 c0 -3 9 -10 20 -16 11 -6 20 -8 20 -6 0 3 -9 10 -20 16 -11 6 -20 8 -20 6z"/>
 <path d="M2193 553 c4 -3 10 -3 14 0 3 4 0 7 -7 7 -7 0 -10 -3 -7 -7z"/>
 <path d="M2433 553 c4 -3 10 -3 14 0 3 4 0 7 -7 7 -7 0 -10 -3 -7 -7z"/>
 </g>
<g id="layer104" fill="#4cbe84" stroke="none">
 <path d="M0 2320 l0 -2320 2320 0 2320 0 0 2320 0 2320 -2320 0 -2320 0 0 -2320z m2436 1821 c32 -11 60 -25 62 -30 2 -6 9 -11 16 -11 24 0 126 -62 120 -72 -4 -7 -2 -8 5 -4 14 9 43 -12 35 -25 -3 -5 2 -6 11 -3 9 4 29 -2 45 -15 16 -11 36 -21 43 -21 8 0 20 -7 27 -15 7 -8 9 -15 6 -15 -4 0 -4 -5 0 -11 4 -7 10 -7 16 -1 11 11 81 -24 74 -37 -3 -4 4 -8 15 -8 19 -2 71 -36 66 -44 -1 -3 2 -1 6 2 11 9 168 -81 162 -91 -3 -5 0 -12 6 -16 8 -4 9 -3 5 4 -9 15 -1 15 25 1 11 -5 17 -15 13 -22 -4 -7 -4 -9 0 -5 4 3 24 -1 44 -9 55 -22 229 -122 243 -139 6 -8 17 -14 23 -14 23 0 96 -45 92 -57 -3 -7 1 -10 9 -7 15 6 155 -65 155 -78 0 -4 6 -8 13 -8 7 0 29 -12 50 -26 29 -19 36 -30 32 -45 -4 -11 -2 -19 5 -19 6 0 8 5 5 10 -13 20 9 9 35 -19 31 -32 53 -76 69 -136 7 -26 11 -304 11 -821 0 -849 2 -823 -56 -916 -24 -38 -62 -70 -75 -63 -3 3 -6 -3 -5 -12 1 -12 -34 -38 -114 -84 -63 -36 -117 -65 -119 -63 -2 2 -15 -6 -29 -16 -13 -11 -31 -20 -38 -20 -8 0 -14 -4 -14 -8 0 -4 -35 -26 -77 -47 -43 -22 -80 -42 -83 -46 -16 -18 -123 -70 -135 -65 -8 3 -12 0 -9 -8 4 -11 -62 -52 -78 -48 -5 1 -8 -2 -8 -6 0 -7 -43 -33 -60 -37 -3 0 -17 -9 -32 -19 -16 -10 -35 -16 -43 -12 -9 3 -13 2 -10 -4 3 -6 2 -10 -3 -10 -5 0 -22 -11 -38 -25 -27 -23 -39 -29 -56 -27 -3 1 -12 -5 -18 -13 -7 -8 -16 -15 -21 -15 -4 0 -29 -14 -54 -31 -25 -17 -51 -32 -58 -33 -7 -1 -26 -11 -42 -22 -60 -41 -120 -71 -138 -69 -9 2 -15 0 -12 -5 7 -12 -23 -33 -38 -27 -7 3 -19 -3 -25 -14 -19 -30 -114 -52 -198 -47 -58 4 -88 12 -141 39 -38 19 -67 39 -66 45 1 5 -8 10 -20 11 -12 0 -75 31 -140 69 -130 76 -145 84 -167 99 -8 5 -18 10 -22 11 -5 1 -11 2 -15 3 -5 0 -21 12 -37 26 -16 14 -33 25 -38 25 -5 0 -6 4 -3 10 3 6 -1 7 -10 4 -8 -4 -27 2 -43 12 -15 10 -29 19 -32 19 -17 4 -60 30 -60 37 0 4 -3 7 -7 6 -17 -4 -83 37 -79 48 3 8 -1 11 -9 8 -12 -5 -119 47 -135 65 -3 4 -40 24 -82 46 -43 21 -78 43 -78 47 0 4 -6 8 -14 8 -7 0 -25 9 -38 20 -14 10 -27 18 -29 16 -2 -2 -56 27 -119 63 -85 49 -115 71 -115 86 -1 11 -7 19 -14 17 -28 -6 -76 59 -104 142 -15 45 -17 128 -17 830 0 517 4 795 11 821 16 60 38 104 69 136 26 28 48 39 35 19 -3 -5 -1 -10 5 -10 7 0 9 8 5 19 -4 15 3 26 32 45 21 14 43 26 50 26 7 0 13 4 13 8 0 13 140 84 155 78 8 -3 12 0 9 7 -4 12 69 57 92 57 6 0 17 6 23 14 14 17 188 117 243 139 20 8 40 12 44 9 4 -4 4 -2 0 5 -4 7 2 17 13 22 26 14 34 14 25 -1 -4 -7 -3 -8 5 -4 6 4 9 11 6 16 -6 10 151 100 162 91 4 -3 7 -5 6 -2 -5 8 47 42 66 44 11 0 18 4 15 8 -2 4 11 16 30 27 25 15 37 17 45 9 11 -11 12 -9 15 14 0 7 10 16 21 22 11 6 27 14 35 19 8 5 29 15 47 23 17 8 35 20 38 26 4 5 14 8 22 5 8 -3 12 -2 8 3 -6 11 148 97 208 116 63 20 155 18 223 -4z"/>
 <path d="M2113 4083 c4 -3 10 -3 14 0 3 4 0 7 -7 7 -7 0 -10 -3 -7 -7z"/>
 <path d="M2513 4083 c4 -3 10 -3 14 0 3 4 0 7 -7 7 -7 0 -10 -3 -7 -7z"/>
 <path d="M1863 3943 c4 -3 10 -3 14 0 3 4 0 7 -7 7 -7 0 -10 -3 -7 -7z"/>
 <path d="M2763 3943 c4 -3 10 -3 14 0 3 4 0 7 -7 7 -7 0 -10 -3 -7 -7z"/>
 <path d="M1765 3880 c-3 -6 1 -7 9 -4 18 7 21 14 7 14 -6 0 -13 -4 -16 -10z"/>
 <path d="M2850 3886 c0 -2 7 -7 16 -10 8 -3 12 -2 9 4 -6 10 -25 14 -25 6z"/>
 <path d="M1610 3796 c0 -2 7 -7 16 -10 8 -3 12 -2 9 4 -6 10 -25 14 -25 6z"/>
 <path d="M3005 3790 c-3 -6 1 -7 9 -4 18 7 21 14 7 14 -6 0 -13 -4 -16 -10z"/>
 <path d="M1880 2979 c-41 -10 -112 -37 -157 -59 -87 -43 -224 -145 -243 -180 -7 -13 -17 -19 -26 -16 -8 3 -12 2 -9 -3 8 -14 -88 -159 -102 -154 -6 2 -14 -1 -18 -6 -4 -7 0 -8 11 -4 13 5 15 2 9 -18 -4 -13 -11 -26 -15 -29 -4 -3 -9 -18 -13 -35 -3 -16 -11 -43 -18 -60 -15 -39 -17 -56 -20 -210 -2 -152 18 -244 79 -360 45 -85 61 -90 134 -41 29 20 58 36 64 36 7 0 14 6 17 13 3 8 18 20 34 28 15 8 50 30 76 49 53 39 54 44 18 140 -28 74 -28 261 0 244 5 -3 6 2 3 10 -6 17 28 88 64 131 35 42 120 105 143 105 10 0 19 4 19 9 0 25 221 44 235 20 4 -6 13 -8 20 -5 23 8 128 -51 177 -99 25 -25 52 -45 60 -45 8 0 79 44 159 98 106 71 145 103 147 120 3 16 -11 41 -45 80 -26 31 -47 59 -46 63 1 3 -10 17 -25 30 l-27 24 24 -27 c14 -16 20 -28 13 -28 -6 0 -19 11 -30 25 -11 14 -25 25 -32 25 -7 0 -10 6 -7 14 6 16 -19 43 -30 32 -3 -3 -1 -6 6 -6 7 0 10 -4 7 -8 -3 -5 -45 11 -93 35 -125 62 -221 83 -368 82 -83 0 -143 -7 -195 -20z"/>
 <path d="M3090 2873 c-121 -82 -145 -102 -145 -123 -1 -14 5 -31 12 -38 7 -8 10 -18 7 -24 -4 -6 -1 -14 6 -18 18 -11 36 -154 23 -182 -6 -13 -11 -35 -12 -51 -1 -38 -41 -114 -90 -169 -43 -48 -173 -123 -198 -114 -7 3 -15 1 -18 -4 -20 -32 -284 12 -271 45 2 7 -3 19 -12 27 -15 12 -16 11 -4 -4 7 -9 9 -19 4 -22 -5 -3 -36 20 -68 50 -52 49 -62 54 -89 49 -16 -4 -35 -7 -42 -8 -6 0 -9 -5 -7 -11 2 -6 -9 -19 -26 -29 -16 -10 -30 -15 -30 -11 0 3 -6 1 -13 -5 -8 -6 -17 -8 -21 -4 -4 4 -5 1 -2 -7 7 -18 -89 -84 -106 -74 -6 4 -8 3 -5 -3 4 -6 -4 -18 -18 -27 -14 -9 -25 -25 -25 -36 0 -19 130 -170 154 -179 6 -2 30 -17 54 -33 62 -43 164 -87 250 -109 93 -23 275 -25 377 -4 81 17 255 97 299 138 17 15 33 27 36 27 10 0 120 111 120 121 0 4 6 12 13 16 6 4 32 46 56 93 25 47 48 87 51 90 4 3 10 19 13 35 2 17 12 62 21 100 19 85 20 238 2 320 -16 74 -48 178 -57 185 -3 3 -16 24 -28 48 -16 31 -27 42 -44 42 -12 0 -88 -44 -167 -97z"/>
 <path d="M1653 2913 c4 -3 10 -3 14 0 3 4 0 7 -7 7 -7 0 -10 -3 -7 -7z"/>
 <path d="M2493 2913 c4 -3 10 -3 14 0 3 4 0 7 -7 7 -7 0 -10 -3 -7 -7z"/>
 <path d="M1614 2884 c-18 -14 -18 -15 4 -4 12 6 22 13 22 15 0 8 -5 6 -26 -11z"/>
 <path d="M2624 2858 c-4 -7 -3 -8 4 -4 7 4 12 9 12 12 0 8 -9 4 -16 -8z"/>
 <path d="M2965 2860 c3 -5 8 -10 11 -10 3 0 2 5 -1 10 -3 6 -8 10 -11 10 -3 0 -2 -4 1 -10z"/>
 <path d="M1554 2838 c-4 -7 -3 -8 4 -4 12 7 16 16 8 16 -3 0 -8 -5 -12 -12z"/>
 <path d="M3400 2710 c0 -7 3 -10 7 -7 3 4 3 10 0 14 -4 3 -7 0 -7 -7z"/>
 <path d="M2760 2680 c0 -7 3 -10 7 -7 3 4 3 10 0 14 -4 3 -7 0 -7 -7z"/>
 <path d="M2970 2590 c0 -7 3 -10 7 -7 3 4 3 10 0 14 -4 3 -7 0 -7 -7z"/>
 <path d="M1883 2523 c4 -3 10 -3 14 0 3 4 0 7 -7 7 -7 0 -10 -3 -7 -7z"/>
 <path d="M2273 2523 c4 -3 10 -3 14 0 3 4 0 7 -7 7 -7 0 -10 -3 -7 -7z"/>
 <path d="M2565 2510 c-3 -6 1 -7 9 -4 18 7 21 14 7 14 -6 0 -13 -4 -16 -10z"/>
 <path d="M1790 2450 c0 -7 3 -10 7 -7 3 4 3 10 0 14 -4 3 -7 0 -7 -7z"/>
 <path d="M2360 2450 c0 -7 3 -10 7 -7 3 4 3 10 0 14 -4 3 -7 0 -7 -7z"/>
 <path d="M2453 2413 c4 -3 10 -3 14 0 3 4 0 7 -7 7 -7 0 -10 -3 -7 -7z"/>
 <path d="M2287 2309 c7 -7 15 -10 18 -7 3 3 -2 9 -12 12 -14 6 -15 5 -6 -5z"/>
 <path d="M1740 2260 c0 -7 3 -10 7 -7 3 4 3 10 0 14 -4 3 -7 0 -7 -7z"/>
 <path d="M2840 2260 c0 -7 3 -10 7 -7 3 4 3 10 0 14 -4 3 -7 0 -7 -7z"/>
 <path d="M2004 2168 c-4 -7 -3 -8 4 -4 7 4 12 9 12 12 0 8 -9 4 -16 -8z"/>
 <path d="M3320 2160 c0 -7 3 -10 7 -7 3 4 3 10 0 14 -4 3 -7 0 -7 -7z"/>
 <path d="M1940 2135 c-7 -9 -11 -17 -9 -20 3 -2 10 5 17 15 14 24 10 26 -8 5z"/>
 <path d="M3330 2100 c0 -7 3 -10 7 -7 3 4 3 10 0 14 -4 3 -7 0 -7 -7z"/>
 <path d="M1720 2050 c0 -7 3 -10 7 -7 3 4 3 10 0 14 -4 3 -7 0 -7 -7z"/>
 <path d="M1740 2040 c0 -7 3 -10 7 -7 3 4 3 10 0 14 -4 3 -7 0 -7 -7z"/>
 <path d="M3246 2028 c3 -5 10 -6 15 -3 13 9 11 12 -6 12 -8 0 -12 -4 -9 -9z"/>
 <path d="M1290 1920 c0 -7 3 -10 7 -7 3 4 3 10 0 14 -4 3 -7 0 -7 -7z"/>
 <path d="M1646 1875 c-11 -8 -15 -15 -9 -15 6 0 16 7 23 15 16 19 11 19 -14 0z"/>
 <path d="M2095 1880 c3 -5 8 -10 11 -10 3 0 2 5 -1 10 -3 6 -8 10 -11 10 -3 0 -2 -4 1 -10z"/>
 <path d="M2973 1803 c4 -3 10 -3 14 0 3 4 0 7 -7 7 -7 0 -10 -3 -7 -7z"/>
 <path d="M753 1427 c0 -8 6 -14 14 -14 9 0 10 4 2 14 -6 7 -12 13 -14 13 -1 0 -2 -6 -2 -13z"/>
 <path d="M3871 1427 c-8 -10 -7 -14 2 -14 8 0 14 6 14 14 0 7 -1 13 -2 13 -2 0 -8 -6 -14 -13z"/>
 <path d="M750 1396 c0 -2 7 -7 16 -10 8 -3 12 -2 9 4 -6 10 -25 14 -25 6z"/>
 <path d="M3865 1390 c-3 -6 1 -7 9 -4 18 7 21 14 7 14 -6 0 -13 -4 -16 -10z"/>
 <path d="M865 1300 c3 -5 8 -10 11 -10 3 0 2 5 -1 10 -3 6 -8 10 -11 10 -3 0 -2 -4 1 -10z"/>
 <path d="M3764 1298 c-4 -7 -3 -8 4 -4 12 7 16 16 8 16 -3 0 -8 -5 -12 -12z"/>
 <path d="M3643 1243 c4 -3 10 -3 14 0 3 4 0 7 -7 7 -7 0 -10 -3 -7 -7z"/>
 <path d="M1005 1231 c-9 -15 15 -25 28 -12 9 9 7 10 -7 5 -13 -5 -17 -4 -12 4 4 7 5 12 2 12 -3 0 -7 -4 -11 -9z"/>
 <path d="M3605 1220 c3 -5 8 -10 11 -10 3 0 2 5 -1 10 -3 6 -8 10 -11 10 -3 0 -2 -4 1 -10z"/>
 <path d="M1175 1160 c3 -5 8 -10 11 -10 3 0 2 5 -1 10 -3 6 -8 10 -11 10 -3 0 -2 -4 1 -10z"/>
 <path d="M3454 1158 c-4 -7 -3 -8 4 -4 7 4 12 9 12 12 0 8 -9 4 -16 -8z"/>
 <path d="M1573 943 c4 -3 10 -3 14 0 3 4 0 7 -7 7 -7 0 -10 -3 -7 -7z"/>
 <path d="M3053 943 c4 -3 10 -3 14 0 3 4 0 7 -7 7 -7 0 -10 -3 -7 -7z"/>
 <path d="M1665 860 c-3 -6 1 -7 9 -4 18 7 21 14 7 14 -6 0 -13 -4 -16 -10z"/>
 <path d="M2950 866 c0 -2 7 -7 16 -10 8 -3 12 -2 9 4 -6 10 -25 14 -25 6z"/>
 <path d="M1695 850 c-3 -6 1 -7 9 -4 18 7 21 14 7 14 -6 0 -13 -4 -16 -10z"/>
 <path d="M2920 856 c0 -2 7 -7 16 -10 8 -3 12 -2 9 4 -6 10 -25 14 -25 6z"/>
 <path d="M1965 680 c3 -5 8 -10 11 -10 3 0 2 5 -1 10 -3 6 -8 10 -11 10 -3 0 -2 -4 1 -10z"/>
 <path d="M2664 678 c-4 -7 -3 -8 4 -4 7 4 12 9 12 12 0 8 -9 4 -16 -8z"/>
 </g>
<g id="layer105" fill="#27e283" stroke="none">
 <path d="M0 2320 l0 -2320 2320 0 2320 0 0 2320 0 2320 -2320 0 -2320 0 0 -2320z m2423 1825 c68 -20 219 -104 211 -117 -4 -7 -2 -8 4 -4 6 3 46 -13 89 -37 291 -162 422 -240 418 -247 -3 -5 0 -12 6 -16 8 -5 9 -3 4 6 -6 10 -4 12 11 6 20 -8 440 -244 590 -331 129 -76 185 -142 213 -250 7 -26 11 -304 11 -821 0 -848 1 -824 -56 -914 -44 -69 -104 -111 -409 -283 -170 -96 -472 -266 -670 -378 -198 -112 -382 -211 -410 -221 -64 -22 -166 -22 -230 0 -27 10 -212 109 -410 221 -198 112 -499 282 -670 378 -305 172 -365 214 -409 283 -57 90 -56 66 -56 914 0 517 4 795 11 821 28 108 84 174 213 250 150 87 570 323 590 331 15 6 17 4 11 -6 -5 -9 -4 -11 4 -6 6 4 9 11 6 16 -4 7 127 85 418 247 43 24 83 40 89 37 6 -4 8 -3 4 4 -7 12 142 96 207 117 57 18 152 18 210 0z"/>
 <path d="M2113 4083 c4 -3 10 -3 14 0 3 4 0 7 -7 7 -7 0 -10 -3 -7 -7z"/>
 <path d="M2513 4083 c4 -3 10 -3 14 0 3 4 0 7 -7 7 -7 0 -10 -3 -7 -7z"/>
 <path d="M1863 3943 c4 -3 10 -3 14 0 3 4 0 7 -7 7 -7 0 -10 -3 -7 -7z"/>
 <path d="M2763 3943 c4 -3 10 -3 14 0 3 4 0 7 -7 7 -7 0 -10 -3 -7 -7z"/>
 <path d="M1824 3918 c-4 -7 -3 -8 4 -4 12 7 16 16 8 16 -3 0 -8 -5 -12 -12z"/>
 <path d="M2805 3920 c3 -5 8 -10 11 -10 3 0 2 5 -1 10 -3 6 -8 10 -11 10 -3 0 -2 -4 1 -10z"/>
 <path d="M1765 3880 c-3 -6 1 -7 9 -4 18 7 21 14 7 14 -6 0 -13 -4 -16 -10z"/>
 <path d="M2850 3886 c0 -2 7 -7 16 -10 8 -3 12 -2 9 4 -6 10 -25 14 -25 6z"/>
 <path d="M1610 3796 c0 -2 7 -7 16 -10 8 -3 12 -2 9 4 -6 10 -25 14 -25 6z"/>
 <path d="M3005 3790 c-3 -6 1 -7 9 -4 18 7 21 14 7 14 -6 0 -13 -4 -16 -10z"/>
 <path d="M775 3310 c-3 -5 -1 -10 4 -10 6 0 11 5 11 10 0 6 -2 10 -4 10 -3 0 -8 -4 -11 -10z"/>
 <path d="M3850 3310 c0 -5 5 -10 11 -10 5 0 7 5 4 10 -3 6 -8 10 -11 10 -2 0 -4 -4 -4 -10z"/>
 <path d="M1880 2979 c-41 -10 -112 -37 -157 -59 -87 -43 -224 -145 -243 -180 -7 -13 -17 -19 -26 -16 -8 3 -12 2 -9 -3 8 -14 -88 -159 -102 -154 -6 2 -14 -1 -18 -6 -3 -7 0 -8 9 -5 20 8 21 12 -15 -87 -53 -146 -57 -359 -10 -509 31 -97 81 -184 108 -188 15 -2 71 30 168 95 164 110 156 96 116 203 -28 74 -28 261 0 244 5 -3 6 1 3 9 -9 24 41 110 92 161 27 26 77 61 113 79 61 30 73 32 171 32 98 0 110 -2 171 -32 36 -18 86 -53 111 -78 25 -25 52 -45 60 -45 8 0 79 44 159 98 106 71 145 103 147 120 3 16 -11 41 -45 80 -26 31 -47 59 -46 63 1 3 -10 17 -25 30 l-27 24 24 -27 c34 -39 17 -35 -32 8 -58 49 -207 120 -302 144 -107 26 -289 26 -395 -1z"/>
 <path d="M3093 2875 c-78 -51 -144 -99 -148 -105 -3 -5 5 -38 18 -73 83 -208 5 -418 -191 -514 -73 -36 -80 -38 -176 -38 -129 1 -192 24 -275 101 -32 30 -64 54 -71 54 -7 0 -66 -36 -131 -81 -67 -45 -124 -77 -131 -73 -6 4 -8 3 -5 -3 4 -6 -4 -18 -18 -27 -39 -26 -31 -52 43 -128 161 -168 349 -248 581 -248 148 0 233 19 349 75 172 83 287 193 370 354 71 137 87 207 87 371 0 156 -14 219 -75 348 -32 68 -43 82 -62 82 -13 0 -87 -43 -165 -95z"/>
 <path d="M1653 2913 c4 -3 10 -3 14 0 3 4 0 7 -7 7 -7 0 -10 -3 -7 -7z"/>
 <path d="M2493 2913 c4 -3 10 -3 14 0 3 4 0 7 -7 7 -7 0 -10 -3 -7 -7z"/>
 <path d="M1614 2884 c-18 -14 -18 -15 4 -4 12 6 22 13 22 15 0 8 -5 6 -26 -11z"/>
 <path d="M2521 2897 c2 -1 13 -9 24 -17 19 -14 19 -14 6 3 -7 9 -18 17 -24 17 -6 0 -8 -1 -6 -3z"/>
 <path d="M2624 2858 c-4 -7 -3 -8 4 -4 7 4 12 9 12 12 0 8 -9 4 -16 -8z"/>
 <path d="M2965 2860 c3 -5 8 -10 11 -10 3 0 2 5 -1 10 -3 6 -8 10 -11 10 -3 0 -2 -4 1 -10z"/>
 <path d="M1554 2838 c-4 -7 -3 -8 4 -4 12 7 16 16 8 16 -3 0 -8 -5 -12 -12z"/>
 <path d="M3400 2710 c0 -7 3 -10 7 -7 3 4 3 10 0 14 -4 3 -7 0 -7 -7z"/>
 <path d="M2760 2680 c0 -7 3 -10 7 -7 3 4 3 10 0 14 -4 3 -7 0 -7 -7z"/>
 <path d="M2970 2590 c0 -7 3 -10 7 -7 3 4 3 10 0 14 -4 3 -7 0 -7 -7z"/>
 <path d="M1883 2523 c4 -3 10 -3 14 0 3 4 0 7 -7 7 -7 0 -10 -3 -7 -7z"/>
 <path d="M2273 2523 c4 -3 10 -3 14 0 3 4 0 7 -7 7 -7 0 -10 -3 -7 -7z"/>
 <path d="M2565 2510 c-3 -6 1 -7 9 -4 18 7 21 14 7 14 -6 0 -13 -4 -16 -10z"/>
 <path d="M1790 2450 c0 -7 3 -10 7 -7 3 4 3 10 0 14 -4 3 -7 0 -7 -7z"/>
 <path d="M2360 2450 c0 -7 3 -10 7 -7 3 4 3 10 0 14 -4 3 -7 0 -7 -7z"/>
 <path d="M2453 2413 c4 -3 10 -3 14 0 3 4 0 7 -7 7 -7 0 -10 -3 -7 -7z"/>
 <path d="M2287 2309 c7 -7 15 -10 18 -7 3 3 -2 9 -12 12 -14 6 -15 5 -6 -5z"/>
 <path d="M1740 2260 c0 -7 3 -10 7 -7 3 4 3 10 0 14 -4 3 -7 0 -7 -7z"/>
 <path d="M2840 2260 c0 -7 3 -10 7 -7 3 4 3 10 0 14 -4 3 -7 0 -7 -7z"/>
 <path d="M2380 2226 c0 -2 8 -10 18 -17 15 -13 16 -12 3 4 -13 16 -21 21 -21 13z"/>
 <path d="M2004 2168 c-4 -7 -3 -8 4 -4 7 4 12 9 12 12 0 8 -9 4 -16 -8z"/>
 <path d="M3320 2160 c0 -7 3 -10 7 -7 3 4 3 10 0 14 -4 3 -7 0 -7 -7z"/>
 <path d="M1940 2135 c-7 -9 -11 -17 -9 -20 3 -2 10 5 17 15 14 24 10 26 -8 5z"/>
 <path d="M3330 2100 c0 -7 3 -10 7 -7 3 4 3 10 0 14 -4 3 -7 0 -7 -7z"/>
 <path d="M1720 2050 c0 -7 3 -10 7 -7 3 4 3 10 0 14 -4 3 -7 0 -7 -7z"/>
 <path d="M1740 2040 c0 -7 3 -10 7 -7 3 4 3 10 0 14 -4 3 -7 0 -7 -7z"/>
 <path d="M3246 2028 c3 -5 10 -6 15 -3 13 9 11 12 -6 12 -8 0 -12 -4 -9 -9z"/>
 <path d="M1290 1920 c0 -7 3 -10 7 -7 3 4 3 10 0 14 -4 3 -7 0 -7 -7z"/>
 <path d="M1646 1875 c-11 -8 -15 -15 -9 -15 6 0 16 7 23 15 16 19 11 19 -14 0z"/>
 <path d="M2095 1880 c3 -5 8 -10 11 -10 3 0 2 5 -1 10 -3 6 -8 10 -11 10 -3 0 -2 -4 1 -10z"/>
 <path d="M2973 1803 c4 -3 10 -3 14 0 3 4 0 7 -7 7 -7 0 -10 -3 -7 -7z"/>
 <path d="M753 1427 c0 -8 6 -14 14 -14 9 0 10 4 2 14 -6 7 -12 13 -14 13 -1 0 -2 -6 -2 -13z"/>
 <path d="M3871 1427 c-8 -10 -7 -14 2 -14 8 0 14 6 14 14 0 7 -1 13 -2 13 -2 0 -8 -6 -14 -13z"/>
 <path d="M750 1396 c0 -2 7 -7 16 -10 8 -3 12 -2 9 4 -6 10 -25 14 -25 6z"/>
 <path d="M3865 1390 c-3 -6 1 -7 9 -4 18 7 21 14 7 14 -6 0 -13 -4 -16 -10z"/>
 <path d="M785 1360 c3 -5 8 -10 11 -10 3 0 2 5 -1 10 -3 6 -8 10 -11 10 -3 0 -2 -4 1 -10z"/>
 <path d="M865 1300 c3 -5 8 -10 11 -10 3 0 2 5 -1 10 -3 6 -8 10 -11 10 -3 0 -2 -4 1 -10z"/>
 <path d="M3764 1298 c-4 -7 -3 -8 4 -4 12 7 16 16 8 16 -3 0 -8 -5 -12 -12z"/>
 <path d="M3643 1243 c4 -3 10 -3 14 0 3 4 0 7 -7 7 -7 0 -10 -3 -7 -7z"/>
 <path d="M1005 1231 c-9 -15 15 -25 28 -12 9 9 7 10 -7 5 -13 -5 -17 -4 -12 4 4 7 5 12 2 12 -3 0 -7 -4 -11 -9z"/>
 <path d="M3605 1220 c3 -5 8 -10 11 -10 3 0 2 5 -1 10 -3 6 -8 10 -11 10 -3 0 -2 -4 1 -10z"/>
 <path d="M1175 1160 c3 -5 8 -10 11 -10 3 0 2 5 -1 10 -3 6 -8 10 -11 10 -3 0 -2 -4 1 -10z"/>
 <path d="M3454 1158 c-4 -7 -3 -8 4 -4 7 4 12 9 12 12 0 8 -9 4 -16 -8z"/>
 <path d="M1573 943 c4 -3 10 -3 14 0 3 4 0 7 -7 7 -7 0 -10 -3 -7 -7z"/>
 <path d="M3053 943 c4 -3 10 -3 14 0 3 4 0 7 -7 7 -7 0 -10 -3 -7 -7z"/>
 <path d="M1665 860 c-3 -6 1 -7 9 -4 18 7 21 14 7 14 -6 0 -13 -4 -16 -10z"/>
 <path d="M2950 866 c0 -2 7 -7 16 -10 8 -3 12 -2 9 4 -6 10 -25 14 -25 6z"/>
 <path d="M1695 850 c-3 -6 1 -7 9 -4 18 7 21 14 7 14 -6 0 -13 -4 -16 -10z"/>
 <path d="M2920 856 c0 -2 7 -7 16 -10 8 -3 12 -2 9 4 -6 10 -25 14 -25 6z"/>
 <path d="M1965 680 c3 -5 8 -10 11 -10 3 0 2 5 -1 10 -3 6 -8 10 -11 10 -3 0 -2 -4 1 -10z"/>
 <path d="M2664 678 c-4 -7 -3 -8 4 -4 7 4 12 9 12 12 0 8 -9 4 -16 -8z"/>
 </g>
<g id="layer106" fill="#d5ffee" stroke="none">
 <path d="M0 2320 l0 -2320 2320 0 2320 0 0 2320 0 2320 -2320 0 -2320 0 0 -2320z m2432 1822 c30 -10 110 -50 179 -89 187 -106 555 -314 819 -463 364 -205 413 -235 457 -283 43 -47 65 -87 82 -152 7 -26 11 -304 11 -821 0 -848 1 -824 -56 -914 -44 -69 -104 -111 -409 -283 -170 -96 -472 -266 -670 -378 -198 -112 -382 -211 -410 -221 -64 -22 -166 -22 -230 0 -27 10 -212 109 -410 221 -198 112 -499 282 -670 378 -305 172 -365 214 -409 283 -57 90 -56 66 -56 914 0 517 4 795 11 821 17 65 39 105 82 152 44 48 93 78 457 283 264 149 632 357 820 463 68 39 147 79 175 88 66 23 159 23 227 1z"/>
 <path d="M1880 2979 c-331 -84 -575 -370 -600 -702 -13 -177 12 -311 83 -442 22 -41 39 -61 54 -63 15 -2 71 30 168 95 164 110 156 95 115 208 -32 88 -26 206 16 295 38 82 108 151 193 193 61 30 73 32 171 32 98 0 110 -2 171 -32 36 -18 86 -53 111 -78 25 -25 52 -45 60 -45 8 0 79 44 159 98 103 69 145 104 147 119 8 52 -143 189 -283 259 -127 63 -222 84 -370 83 -83 0 -143 -7 -195 -20z"/>
 <path d="M3093 2875 c-78 -51 -144 -99 -148 -105 -3 -5 5 -38 18 -73 83 -208 5 -418 -191 -514 -73 -36 -80 -38 -176 -38 -129 1 -192 24 -276 102 -40 36 -66 54 -78 50 -9 -2 -81 -48 -159 -101 -106 -72 -143 -102 -143 -117 0 -27 118 -150 194 -201 139 -95 281 -138 455 -138 148 0 233 19 349 75 172 83 287 193 370 354 71 137 87 207 87 371 0 156 -14 219 -75 348 -32 68 -43 82 -62 82 -13 0 -87 -43 -165 -95z"/>
 </g>
<g id="layer107" fill="#ffffff" stroke="none">
 <path d="M0 2320 l0 -2320 2320 0 2320 0 0 2320 0 2320 -2320 0 -2320 0 0 -2320z m2421 1839 c19 -7 41 -17 49 -24 8 -7 28 -15 44 -19 15 -4 51 -22 79 -41 29 -19 59 -35 67 -35 9 0 26 -9 37 -20 12 -10 33 -22 47 -26 14 -3 24 -10 21 -14 -3 -5 4 -12 16 -15 11 -4 55 -27 97 -52 42 -26 106 -61 142 -80 66 -34 83 -43 133 -76 15 -11 33 -20 40 -21 7 -1 52 -25 100 -54 48 -29 92 -52 97 -52 6 0 10 -3 10 -8 0 -7 88 -57 101 -57 4 0 10 -3 14 -7 4 -4 13 -4 21 -1 9 3 14 0 12 -8 -2 -8 3 -13 10 -12 6 2 12 -1 12 -7 0 -9 15 -19 106 -65 21 -11 44 -24 49 -28 6 -4 41 -27 79 -50 86 -52 151 -131 171 -208 12 -45 15 -189 15 -838 0 -779 0 -785 -22 -852 -28 -88 -115 -185 -196 -218 -19 -8 -39 -19 -45 -26 -7 -6 -41 -27 -77 -46 -36 -18 -66 -37 -68 -41 -2 -5 -8 -8 -14 -8 -6 0 -47 -21 -92 -48 -45 -26 -99 -56 -121 -67 -22 -11 -75 -41 -118 -67 -43 -26 -82 -48 -86 -48 -3 0 -38 -20 -76 -44 -38 -25 -72 -43 -77 -40 -4 3 -11 -2 -14 -10 -3 -9 -12 -16 -19 -16 -8 0 -20 -6 -27 -14 -8 -8 -50 -32 -94 -53 -96 -49 -171 -91 -201 -113 -31 -24 -158 -85 -216 -104 -119 -40 -269 -2 -439 111 -27 17 -64 37 -83 44 -19 7 -35 17 -35 22 0 4 -34 24 -76 43 -42 19 -82 41 -91 49 -8 8 -20 15 -28 15 -7 0 -16 7 -19 16 -3 8 -10 13 -14 10 -5 -3 -39 15 -77 40 -38 24 -73 44 -76 44 -4 0 -43 22 -86 48 -43 26 -96 56 -118 67 -35 17 -181 99 -225 126 -8 5 -42 23 -74 40 -33 17 -65 37 -72 43 -7 7 -27 19 -46 27 -43 18 -62 33 -124 97 -39 41 -56 69 -72 121 -22 67 -22 73 -22 852 0 906 -4 858 85 964 22 26 71 65 110 88 38 23 72 44 75 47 3 3 34 20 70 39 36 18 71 41 78 50 7 9 16 16 20 16 4 0 6 4 4 9 -2 5 4 6 12 3 8 -3 17 -3 21 1 4 4 10 7 14 7 13 0 101 50 101 57 0 5 4 8 10 8 5 0 49 23 97 52 48 29 93 53 100 54 7 1 25 10 40 21 50 32 67 42 133 77 36 18 94 50 130 71 36 21 80 45 98 55 18 9 30 19 27 22 -3 3 6 9 20 12 15 4 36 16 48 26 11 11 26 20 33 20 14 0 79 35 104 56 8 7 29 16 45 20 17 3 37 12 45 19 37 32 185 46 251 24z"/>
 <path d="M1943 2988 c-2 -5 -13 -8 -24 -8 -37 0 -198 -69 -268 -115 -39 -25 -74 -45 -78 -46 -4 0 -30 -26 -56 -57 -26 -31 -59 -70 -73 -87 -61 -72 -111 -180 -145 -315 -22 -87 -14 -278 15 -377 30 -100 72 -183 92 -183 8 0 12 -4 9 -10 -15 -24 24 -6 104 48 47 31 90 59 97 62 28 12 103 76 104 88 0 7 -9 31 -21 53 -11 23 -18 47 -15 54 2 7 2 16 -2 20 -4 4 -8 43 -8 88 -1 68 3 95 28 159 24 64 39 86 88 132 33 30 84 67 113 82 48 25 61 27 177 27 116 0 129 -2 177 -27 29 -14 76 -49 106 -76 30 -28 59 -50 64 -50 5 0 43 23 84 52 41 28 101 69 134 91 33 22 63 45 67 51 11 16 10 56 -1 56 -6 0 -33 25 -62 55 -29 31 -68 65 -88 77 -20 12 -41 27 -47 33 -29 28 -234 115 -272 115 -10 0 -22 3 -26 7 -9 10 -267 10 -273 1z"/>
 <path d="M3210 2942 c-14 -9 -31 -23 -38 -29 -7 -7 -16 -13 -20 -13 -4 0 -23 -14 -42 -30 -19 -16 -39 -30 -43 -30 -10 0 -100 -60 -108 -72 -3 -5 7 -45 22 -91 32 -92 36 -168 15 -238 -18 -57 -66 -151 -83 -162 -7 -4 -13 -13 -13 -20 0 -17 -159 -109 -195 -113 -16 -1 -30 -4 -30 -4 0 -7 -157 -5 -161 2 -3 4 -9 6 -14 3 -21 -13 -179 57 -181 79 0 6 -16 24 -35 40 l-34 28 -53 -33 c-28 -19 -53 -37 -55 -41 -2 -4 -29 -22 -60 -40 -31 -17 -63 -38 -72 -45 -8 -7 -24 -19 -34 -26 -30 -22 -13 -58 59 -129 36 -35 71 -69 80 -76 31 -26 134 -82 152 -82 11 0 23 -4 29 -10 5 -5 36 -19 69 -31 93 -33 303 -39 414 -10 94 23 223 79 215 92 -3 5 4 9 15 9 11 0 32 10 46 23 14 12 47 40 73 62 95 80 172 194 213 315 12 36 26 76 32 90 15 39 17 58 16 159 -1 113 -20 230 -48 291 -11 25 -21 51 -21 58 0 24 -50 92 -68 91 -9 0 -28 -8 -42 -17z"/>
 </g>

</svg>