<!DOCTYPE svg PUBLIC "-//W3C//DTD SVG 20010904//EN" "http://www.w3.org/TR/2001/REC-SVG-20010904/DTD/svg10.dtd">
<svg version="1.0" xmlns="http://www.w3.org/2000/svg" width="1600px" height="1485px" viewBox="0 0 16000 14850" preserveAspectRatio="xMidYMid meet">
<g id="layer101" fill="#28343a" stroke="none">
 <path d="M1000 14323 c0 -22 96 -167 218 -330 17 -24 32 -45 32 -48 0 -7 100 -146 117 -163 7 -7 25 -34 40 -60 14 -26 41 -65 58 -87 17 -22 76 -105 131 -185 55 -80 117 -167 138 -195 20 -27 55 -77 76 -110 49 -74 257 -371 288 -411 13 -16 45 -63 73 -104 27 -41 74 -110 104 -152 29 -42 83 -120 120 -172 36 -53 70 -98 75 -101 5 -3 16 -20 25 -38 8 -18 51 -80 95 -139 44 -59 80 -110 80 -113 0 -3 34 -53 75 -110 69 -96 173 -246 252 -363 18 -26 52 -74 76 -107 25 -33 91 -127 147 -209 56 -83 113 -163 127 -180 14 -16 29 -39 33 -51 4 -11 25 -43 47 -70 22 -28 79 -108 128 -180 49 -71 107 -155 131 -186 23 -31 48 -67 54 -80 7 -13 43 -65 80 -115 38 -50 81 -111 97 -136 15 -26 60 -91 98 -145 39 -54 82 -116 96 -138 14 -23 55 -80 90 -127 35 -48 76 -106 91 -130 15 -24 81 -119 148 -213 66 -93 138 -197 160 -230 21 -33 54 -80 72 -105 18 -24 80 -112 138 -196 58 -83 118 -169 133 -190 15 -21 46 -66 68 -99 21 -33 93 -136 159 -230 65 -93 132 -189 147 -213 15 -24 63 -91 106 -150 43 -59 85 -120 93 -135 8 -15 33 -51 54 -80 46 -60 50 -91 20 -166 -35 -89 -117 -246 -178 -343 -33 -52 -68 -111 -79 -131 -23 -46 -238 -384 -442 -694 -46 -71 -87 -137 -91 -148 -4 -11 -30 -50 -57 -86 -27 -37 -80 -117 -118 -178 -38 -61 -87 -134 -108 -162 -20 -28 -45 -65 -55 -82 -9 -18 -97 -152 -194 -298 -98 -147 -178 -270 -178 -274 0 -5 -17 -31 -39 -59 -33 -44 -269 -398 -327 -492 -48 -78 -257 -388 -290 -431 -20 -26 -43 -62 -50 -79 -7 -18 -24 -45 -37 -60 -22 -27 -288 -427 -333 -500 -10 -18 -48 -74 -84 -125 -36 -52 -77 -114 -91 -139 -15 -25 -52 -79 -83 -120 -31 -41 -65 -94 -77 -118 -12 -23 -26 -48 -33 -55 -7 -7 -43 -59 -82 -117 -39 -58 -91 -136 -117 -175 -25 -38 -61 -90 -78 -114 -18 -25 -42 -61 -53 -81 -12 -20 -55 -86 -96 -146 -41 -60 -90 -135 -110 -166 -19 -32 -42 -66 -51 -76 -26 -30 -99 -140 -99 -149 0 -5 -19 -33 -41 -63 -46 -61 -94 -131 -152 -224 -22 -34 -60 -90 -87 -126 -26 -36 -58 -83 -71 -106 -13 -23 -58 -90 -99 -150 -41 -60 -90 -135 -110 -166 -19 -32 -42 -66 -51 -76 -24 -28 -99 -140 -99 -148 0 -4 -17 -30 -39 -58 -82 -108 -211 -311 -211 -333 l0 -23 2130 0 2130 0 31 42 c17 24 35 52 39 63 4 12 23 41 43 66 40 54 251 367 321 477 26 42 51 79 55 82 5 3 62 86 129 185 66 99 130 191 141 205 11 14 21 29 21 33 0 9 59 98 70 107 14 11 110 158 110 169 0 6 4 11 8 11 4 0 15 13 25 29 9 16 46 69 82 119 36 50 65 94 65 97 0 7 60 97 70 105 16 12 110 154 110 166 0 7 4 14 8 16 9 4 146 197 166 235 8 16 46 71 85 123 39 52 76 106 83 120 7 14 24 41 39 60 14 19 72 103 128 185 55 83 119 175 140 206 22 30 48 69 58 86 10 17 50 76 90 132 40 55 79 113 87 128 8 16 46 71 85 123 39 52 78 109 86 127 9 18 26 45 39 60 13 15 71 99 130 186 59 87 122 178 142 204 19 25 44 63 54 83 11 21 25 44 33 51 7 8 62 86 122 174 59 88 120 175 134 194 14 18 44 62 66 96 22 35 95 144 163 242 140 204 171 250 215 315 70 104 259 380 288 420 17 24 47 68 67 100 52 79 253 375 292 429 17 24 49 71 71 104 21 33 62 94 91 136 101 145 193 281 243 358 28 43 67 102 88 132 45 64 178 269 184 285 4 10 -134 221 -211 323 -23 30 -57 79 -76 110 -20 31 -65 95 -100 143 -36 47 -78 106 -95 130 -73 104 -253 358 -288 403 -21 28 -52 71 -70 97 -70 105 -271 385 -292 408 -13 14 -30 40 -39 57 -9 18 -36 57 -61 87 -25 31 -65 85 -90 121 -25 37 -78 112 -118 167 -39 56 -97 136 -127 179 -30 43 -74 102 -97 133 -24 30 -43 58 -43 61 0 3 -39 60 -87 125 -91 123 -175 239 -278 385 -33 47 -83 118 -112 157 -29 40 -63 89 -77 108 -14 19 -53 73 -88 120 -34 47 -68 95 -74 106 -6 12 -31 47 -55 79 -24 31 -63 84 -86 118 -23 34 -53 76 -66 92 -14 17 -64 86 -112 155 -49 69 -107 149 -129 179 -23 29 -63 86 -91 126 -27 40 -75 107 -105 147 -30 41 -59 81 -65 90 -5 9 -44 62 -85 118 -41 56 -79 110 -85 118 -5 9 -35 50 -65 90 -30 41 -77 107 -105 147 -49 72 -118 168 -265 368 -41 56 -95 132 -120 168 -25 37 -70 100 -100 141 -30 40 -59 81 -65 90 -13 22 -155 219 -228 316 -31 42 -82 113 -112 157 -30 44 -86 121 -123 172 -37 51 -89 125 -117 164 -27 40 -67 93 -87 118 -21 25 -38 50 -38 55 0 5 -21 38 -47 72 l-48 64 -2117 0 c-2011 0 -2118 -1 -2118 -17z"/>
 <path d="M10527 14302 c-15 -20 -46 -65 -70 -98 -23 -34 -61 -88 -85 -120 -23 -33 -53 -74 -65 -91 -48 -71 -204 -289 -249 -347 -26 -33 -59 -81 -75 -104 -15 -24 -46 -67 -69 -95 -22 -29 -78 -106 -124 -172 -46 -66 -107 -152 -137 -191 -29 -40 -53 -75 -53 -78 0 -4 -19 -32 -42 -63 -84 -110 -138 -188 -138 -200 0 -6 -4 -13 -8 -15 -10 -4 -123 -159 -175 -241 -21 -32 -62 -90 -92 -130 -30 -40 -62 -86 -70 -104 -9 -18 -26 -45 -39 -60 -57 -68 -146 -217 -146 -243 0 -18 19 -56 51 -102 28 -40 80 -118 116 -173 37 -55 91 -134 122 -175 31 -41 70 -96 86 -122 47 -74 266 -385 286 -407 11 -11 33 -44 50 -73 17 -29 46 -71 63 -93 18 -22 59 -78 91 -125 83 -121 155 -221 180 -250 11 -14 27 -38 35 -53 7 -15 35 -54 61 -86 26 -32 63 -83 83 -112 20 -30 62 -90 95 -134 32 -44 86 -120 121 -170 34 -49 79 -111 100 -136 21 -25 48 -64 60 -85 12 -21 46 -68 75 -104 29 -36 67 -87 86 -115 19 -27 68 -95 109 -149 41 -54 86 -116 100 -137 40 -60 153 -189 166 -189 16 0 145 139 164 176 7 16 26 43 41 59 14 17 73 98 129 180 57 83 121 172 142 198 21 27 45 63 54 82 8 18 30 50 48 71 18 22 68 91 111 154 43 63 102 149 132 190 30 41 73 103 96 137 23 33 65 93 92 131 73 103 198 281 210 300 37 57 99 148 105 152 4 3 28 37 54 75 25 39 66 97 89 130 24 33 83 119 132 190 49 72 95 136 102 143 18 19 73 99 73 107 0 4 24 39 53 79 29 39 93 130 142 201 49 72 95 136 102 143 7 7 25 34 40 60 15 26 52 81 83 122 31 41 85 118 120 170 35 52 87 127 117 166 29 40 53 76 53 80 0 5 16 29 35 54 19 25 66 90 103 145 38 55 95 137 128 183 32 46 68 98 78 115 11 18 52 75 90 127 39 52 78 110 88 129 10 19 26 44 36 55 23 26 92 125 170 243 33 48 82 119 110 156 29 37 52 73 52 79 0 7 11 23 24 37 13 15 72 98 132 186 59 88 122 177 139 197 18 21 42 58 55 82 12 25 31 54 41 65 11 11 19 23 19 26 0 3 -957 5 -2127 5 l-2128 -1 -28 -37z"/>
 <path d="M10981 6138 c-28 -40 -67 -95 -86 -123 -19 -27 -54 -79 -76 -115 -23 -36 -45 -67 -49 -70 -3 -3 -28 -36 -53 -75 -57 -86 -200 -297 -262 -385 -57 -83 -137 -201 -150 -222 -5 -8 -39 -57 -75 -107 -36 -51 -77 -112 -93 -137 -15 -25 -59 -88 -97 -139 -39 -52 -74 -105 -79 -118 -6 -14 -23 -40 -39 -58 -16 -19 -76 -104 -133 -189 -57 -85 -110 -163 -119 -172 -8 -9 -26 -35 -40 -58 -14 -23 -35 -56 -47 -73 -12 -18 -70 -104 -129 -192 -59 -88 -124 -182 -145 -210 -20 -27 -48 -69 -61 -91 -13 -23 -96 -151 -185 -285 -90 -134 -163 -252 -163 -263 0 -21 75 -166 122 -234 16 -23 36 -58 44 -77 13 -32 112 -189 155 -245 10 -14 25 -39 33 -57 8 -18 50 -85 94 -150 44 -65 113 -167 153 -228 40 -60 77 -114 81 -120 5 -5 25 -38 46 -72 20 -33 51 -78 67 -98 17 -20 48 -65 70 -100 46 -73 166 -248 175 -255 3 -3 18 -26 32 -52 14 -25 51 -80 83 -122 31 -42 66 -93 78 -115 12 -21 56 -88 97 -148 41 -59 80 -117 86 -128 13 -25 72 -114 120 -180 19 -27 46 -71 59 -96 13 -25 30 -51 38 -57 11 -9 520 -11 2190 -10 l2176 3 -77 103 c-177 237 -199 267 -236 326 -21 33 -60 88 -86 121 -26 33 -75 103 -110 155 -35 52 -87 127 -117 166 -29 40 -53 76 -53 80 -1 5 -21 36 -45 69 -24 33 -95 134 -156 225 -62 91 -120 176 -131 190 -10 14 -41 59 -68 100 -27 41 -69 102 -92 136 -48 69 -198 288 -213 312 -22 35 -107 160 -144 212 -22 30 -40 58 -41 62 0 4 -35 57 -77 118 -43 61 -85 123 -93 138 -23 40 -91 143 -109 164 -9 10 -34 47 -56 83 -22 35 -74 115 -116 177 -230 343 -417 626 -439 664 -14 24 -47 74 -74 110 -27 36 -63 89 -80 117 -17 29 -65 101 -106 161 -41 60 -84 126 -96 146 -11 20 -35 56 -53 81 -17 24 -51 73 -75 109 -109 162 -185 277 -231 349 -93 146 -288 436 -312 465 -13 15 -30 42 -37 60 -7 17 -30 53 -50 79 -20 26 -87 125 -149 220 -62 95 -121 178 -129 185 -15 12 -23 4 -67 -60z"/>
 </g>
<g id="layer102" fill="#116064" stroke="none">
 <path d="M1000 14323 c0 -22 96 -167 218 -330 17 -24 32 -45 32 -48 0 -6 101 -148 110 -155 10 -8 70 -98 70 -106 0 -4 15 -25 33 -48 19 -23 78 -106 133 -186 55 -80 117 -167 138 -195 20 -27 55 -77 76 -110 49 -74 257 -371 288 -411 13 -16 45 -63 73 -104 27 -41 74 -110 104 -152 29 -42 83 -120 120 -172 36 -53 70 -98 75 -101 5 -3 16 -20 25 -38 8 -18 51 -80 95 -139 44 -59 80 -110 80 -113 0 -3 35 -54 77 -113 42 -59 99 -141 127 -182 27 -41 72 -104 99 -140 27 -35 52 -71 55 -80 3 -8 19 -33 37 -55 18 -22 76 -105 130 -185 54 -80 113 -163 131 -186 18 -22 42 -58 54 -80 12 -21 37 -57 54 -79 18 -22 72 -98 121 -170 49 -71 107 -155 131 -186 23 -31 48 -67 54 -80 7 -13 43 -65 80 -115 38 -50 81 -111 97 -136 15 -26 60 -91 98 -145 39 -54 82 -116 96 -138 14 -23 55 -80 90 -127 35 -48 76 -106 91 -130 15 -24 81 -119 148 -213 66 -93 138 -197 160 -230 21 -33 54 -80 72 -105 18 -24 80 -112 138 -196 58 -83 118 -169 133 -190 15 -21 46 -66 68 -99 21 -33 93 -136 159 -230 65 -93 132 -189 147 -213 15 -24 63 -91 106 -150 43 -59 85 -120 93 -135 8 -15 33 -51 54 -80 46 -60 50 -91 20 -166 -35 -89 -117 -246 -178 -343 -33 -52 -67 -110 -76 -129 -9 -19 -54 -92 -100 -164 -46 -71 -124 -192 -173 -267 -48 -76 -126 -195 -172 -265 -46 -71 -87 -137 -91 -148 -4 -11 -30 -50 -57 -86 -27 -37 -80 -117 -118 -178 -38 -61 -87 -134 -108 -162 -20 -28 -45 -65 -55 -82 -9 -18 -97 -152 -194 -298 -98 -147 -178 -270 -178 -275 0 -5 -10 -20 -21 -34 -18 -23 -300 -444 -345 -516 -50 -80 -258 -389 -290 -431 -20 -26 -43 -62 -50 -79 -7 -18 -24 -45 -37 -60 -22 -27 -288 -427 -333 -500 -10 -18 -48 -74 -84 -125 -36 -52 -77 -114 -91 -139 -15 -25 -52 -79 -83 -120 -31 -41 -65 -94 -77 -118 -12 -23 -26 -48 -33 -55 -7 -7 -43 -59 -82 -117 -39 -58 -91 -136 -117 -175 -25 -38 -61 -90 -78 -114 -18 -25 -42 -61 -53 -81 -12 -20 -55 -86 -96 -146 -41 -60 -77 -113 -79 -119 -6 -14 -83 -129 -91 -135 -11 -9 -90 -129 -90 -137 0 -5 -19 -33 -41 -63 -23 -30 -76 -107 -117 -170 -41 -63 -96 -144 -122 -180 -26 -36 -58 -83 -71 -106 -13 -23 -58 -90 -99 -150 -41 -60 -77 -113 -79 -119 -4 -11 -78 -118 -140 -205 -22 -30 -40 -59 -41 -64 0 -5 -17 -32 -39 -60 -82 -108 -211 -311 -211 -333 l0 -23 2130 0 2130 0 31 42 c17 24 35 52 39 63 4 12 23 41 43 66 40 54 251 367 321 477 26 42 51 79 55 82 5 3 62 86 129 185 66 99 130 191 141 205 11 14 21 29 21 33 0 9 59 98 70 107 14 11 110 158 110 169 0 6 4 11 8 11 4 0 15 13 25 29 9 16 46 69 82 119 36 50 65 94 65 97 0 7 60 97 70 105 16 12 110 154 110 166 0 7 4 14 8 16 9 4 146 197 166 235 8 16 46 71 85 123 39 52 76 106 83 120 7 14 24 41 39 60 14 19 72 103 128 185 55 83 119 175 140 206 22 30 48 69 58 86 10 17 50 76 90 132 40 55 79 113 87 128 8 16 46 71 85 123 39 52 78 109 86 127 9 18 26 45 39 60 13 15 71 99 130 186 59 87 122 178 142 204 19 25 44 63 54 83 11 21 25 44 33 51 7 8 61 84 118 169 58 85 126 184 152 219 26 35 47 68 47 74 0 5 15 28 33 51 19 23 84 115 145 206 62 91 126 185 143 210 17 25 45 66 62 92 70 104 259 380 288 420 17 24 47 68 67 100 52 79 253 375 292 429 17 24 49 71 71 104 21 33 62 94 91 136 101 145 193 281 243 358 28 43 67 102 88 132 45 64 178 269 184 285 4 10 -134 221 -211 323 -23 30 -58 81 -79 114 -20 33 -59 87 -86 121 -26 33 -64 86 -84 116 -54 82 -159 225 -168 228 -5 2 -9 8 -9 14 0 11 -69 110 -135 195 -22 28 -52 71 -67 95 -15 23 -58 84 -95 135 -90 123 -193 266 -218 304 -11 16 -40 57 -65 91 -25 33 -69 95 -99 136 -29 42 -85 121 -125 176 -39 54 -96 134 -126 177 -30 43 -74 102 -97 133 -24 30 -43 58 -43 61 0 3 -39 60 -87 125 -91 123 -175 239 -278 385 -33 47 -83 118 -112 157 -29 40 -63 89 -77 108 -14 19 -53 73 -88 120 -34 47 -68 95 -74 106 -6 12 -31 47 -55 78 -24 32 -69 92 -99 135 -107 152 -212 297 -273 380 -34 46 -84 116 -112 156 -27 40 -75 107 -105 147 -30 41 -59 81 -65 90 -5 9 -44 62 -85 118 -41 56 -79 110 -85 118 -5 9 -35 50 -65 90 -30 41 -77 107 -105 147 -49 72 -118 168 -265 368 -41 56 -95 132 -120 168 -25 37 -70 100 -100 141 -30 40 -59 81 -65 90 -13 22 -155 219 -228 316 -31 42 -82 113 -112 157 -30 44 -86 121 -123 172 -37 51 -89 125 -117 164 -27 40 -67 93 -87 118 -21 25 -38 50 -38 55 0 5 -21 38 -47 72 l-48 64 -2117 0 c-2011 0 -2118 -1 -2118 -17z"/>
 <path d="M10527 14302 c-15 -20 -46 -65 -70 -98 -23 -34 -61 -88 -85 -120 -23 -33 -53 -74 -65 -91 -48 -71 -204 -289 -249 -347 -26 -33 -59 -81 -75 -104 -15 -24 -46 -67 -69 -95 -22 -29 -78 -106 -124 -172 -46 -66 -107 -152 -137 -191 -29 -40 -53 -75 -53 -78 0 -4 -19 -32 -42 -63 -84 -110 -138 -188 -138 -200 0 -6 -4 -13 -9 -15 -9 -3 -141 -187 -178 -248 -12 -19 -49 -71 -82 -115 -34 -44 -68 -94 -76 -112 -9 -18 -26 -45 -39 -60 -57 -68 -146 -217 -146 -243 0 -18 19 -56 51 -102 28 -40 80 -118 116 -173 37 -55 91 -134 122 -175 31 -41 70 -96 86 -122 47 -74 266 -385 286 -407 11 -11 33 -44 50 -73 17 -29 46 -71 63 -93 18 -22 81 -110 140 -195 60 -85 118 -166 130 -180 12 -14 28 -38 36 -53 7 -15 35 -54 61 -86 26 -32 63 -83 83 -112 20 -30 62 -90 95 -134 32 -44 86 -120 121 -170 34 -49 79 -111 100 -136 21 -25 48 -64 60 -85 12 -21 46 -68 75 -104 29 -36 67 -87 86 -115 19 -27 68 -95 109 -149 41 -54 86 -116 100 -137 40 -60 153 -189 166 -189 16 0 145 139 164 176 7 16 26 43 41 59 14 17 73 98 129 180 57 83 121 172 142 198 21 27 45 63 54 82 8 18 30 50 48 71 18 22 68 91 111 154 43 63 102 149 132 190 30 41 73 103 96 137 23 33 65 93 92 131 73 103 198 281 210 300 37 57 99 148 105 152 4 3 28 37 54 75 25 39 66 97 89 130 24 33 83 119 132 190 49 72 95 136 102 143 18 19 73 99 73 107 0 4 24 39 53 79 29 39 93 130 142 201 49 72 95 136 102 143 7 7 25 34 40 60 15 26 52 81 83 122 31 41 85 118 120 170 35 52 87 127 117 166 29 40 53 76 53 80 0 5 16 29 35 54 19 25 66 90 103 145 38 55 95 137 128 183 32 46 68 98 78 115 11 18 52 75 90 127 39 52 78 110 88 129 10 19 26 44 36 55 23 26 92 125 170 243 33 48 82 119 110 156 29 37 52 73 52 79 0 7 11 23 24 37 13 15 72 98 132 186 59 88 122 177 139 197 18 21 42 58 55 82 12 25 32 55 42 66 11 12 17 24 14 27 -3 4 -7 4 -9 2 -2 -2 -37 -51 -79 -109 -71 -99 -169 -240 -598 -860 -101 -146 -259 -373 -350 -505 -294 -423 -400 -575 -570 -820 -92 -132 -287 -413 -435 -625 -148 -212 -334 -479 -415 -595 -210 -302 -517 -742 -715 -1025 -94 -135 -230 -330 -303 -435 -143 -206 -280 -386 -299 -392 -21 -7 -150 164 -715 946 -242 336 -296 412 -472 663 -83 117 -175 249 -206 293 -78 109 -490 726 -571 855 -36 58 -85 140 -109 183 l-42 78 53 82 c30 45 112 163 183 262 71 99 252 351 401 561 150 209 304 423 342 475 38 52 136 191 218 309 82 118 220 315 306 438 87 122 153 222 146 222 -7 -1 -24 -18 -40 -38z"/>
 <path d="M10981 6138 c-28 -40 -67 -95 -86 -123 -19 -27 -54 -79 -76 -115 -23 -36 -45 -67 -49 -70 -3 -3 -28 -36 -53 -75 -57 -86 -200 -297 -262 -385 -57 -83 -137 -201 -150 -222 -5 -8 -39 -57 -75 -107 -36 -51 -77 -112 -93 -137 -15 -25 -59 -88 -97 -139 -39 -52 -74 -105 -79 -118 -6 -14 -23 -40 -39 -58 -16 -19 -76 -104 -132 -189 -57 -85 -106 -157 -109 -160 -15 -13 -60 -79 -79 -116 -12 -23 -28 -48 -36 -56 -8 -9 -60 -84 -117 -169 -56 -85 -119 -176 -140 -204 -20 -27 -48 -69 -61 -91 -13 -23 -96 -151 -185 -285 -90 -134 -163 -252 -163 -263 0 -21 75 -166 122 -234 16 -23 36 -58 44 -77 13 -32 112 -189 155 -245 10 -14 25 -39 33 -57 8 -18 50 -85 94 -150 44 -65 113 -167 153 -228 40 -60 77 -114 81 -120 5 -5 25 -38 46 -72 20 -33 51 -78 67 -98 17 -20 48 -65 70 -100 49 -77 166 -248 176 -255 3 -3 16 -23 27 -45 11 -22 50 -80 87 -130 37 -49 73 -102 80 -116 8 -14 50 -78 94 -143 45 -65 81 -119 81 -122 0 -2 19 -32 43 -67 53 -80 140 -213 164 -251 10 -16 24 -32 31 -34 10 -3 9 4 -4 24 -38 61 -775 1165 -974 1458 -116 169 -210 310 -210 313 0 2 -22 37 -49 77 -91 134 -299 473 -335 544 l-36 71 16 48 c51 151 303 544 996 1553 217 317 417 610 962 1412 67 98 123 178 126 178 3 0 67 -96 143 -213 76 -116 160 -243 187 -282 56 -82 305 -458 1160 -1755 725 -1101 1466 -2206 1775 -2650 290 -417 561 -780 581 -780 12 0 9 9 -13 38 -44 60 -117 159 -186 251 -34 46 -79 111 -101 145 -21 33 -60 88 -86 121 -26 33 -75 103 -110 155 -35 52 -87 127 -117 166 -29 40 -53 76 -53 80 -1 5 -21 36 -45 69 -24 33 -95 134 -156 225 -62 91 -120 176 -131 190 -10 14 -41 59 -68 100 -27 41 -69 102 -92 136 -48 69 -198 288 -213 312 -22 35 -107 160 -144 212 -22 30 -40 58 -41 62 0 4 -35 57 -77 118 -43 61 -85 123 -93 138 -23 40 -91 143 -109 164 -9 10 -34 47 -56 83 -22 35 -74 115 -116 177 -226 337 -417 625 -437 660 -12 22 -36 59 -52 81 -52 72 -127 182 -131 192 -2 6 -38 59 -79 119 -41 60 -84 126 -96 146 -11 20 -35 56 -53 81 -17 24 -51 73 -75 109 -109 162 -185 277 -231 349 -93 146 -288 436 -312 465 -13 15 -30 42 -37 60 -7 17 -30 53 -50 79 -20 26 -87 125 -149 220 -62 95 -121 178 -129 185 -15 12 -23 4 -67 -60z"/>
 </g>
<g id="layer103" fill="#4a575b" stroke="none">
 <path d="M5220 14333 c0 -5 36 -57 80 -118 44 -60 113 -157 154 -215 140 -196 276 -385 356 -495 88 -121 163 -226 253 -355 33 -47 85 -119 116 -160 31 -41 78 -107 106 -147 93 -133 348 -487 415 -578 37 -49 118 -162 180 -250 63 -88 150 -210 194 -271 141 -194 241 -334 373 -519 71 -99 152 -211 179 -250 50 -68 165 -229 322 -448 42 -60 109 -152 147 -205 39 -54 126 -176 194 -272 69 -96 159 -222 201 -280 42 -58 121 -168 175 -245 96 -136 215 -302 312 -435 26 -36 118 -164 204 -285 86 -121 277 -389 424 -595 277 -388 435 -616 435 -630 0 -9 -332 -507 -554 -830 -77 -113 -177 -259 -221 -325 -44 -66 -100 -146 -123 -177 -24 -32 -39 -58 -35 -58 4 0 3 -4 -3 -8 -6 -4 -75 -101 -153 -217 -78 -115 -220 -325 -316 -465 -96 -140 -228 -334 -294 -430 -65 -96 -153 -224 -194 -285 -42 -60 -137 -200 -212 -310 -75 -110 -174 -254 -219 -320 -187 -273 -510 -745 -663 -970 -90 -132 -247 -361 -348 -510 -101 -148 -221 -324 -266 -390 -45 -66 -122 -178 -170 -250 -48 -71 -169 -249 -268 -395 -99 -146 -255 -377 -347 -514 -91 -136 -191 -282 -221 -325 -31 -42 -58 -83 -61 -91 -3 -8 -8 -17 -12 -20 -15 -12 -118 -175 -113 -180 7 -7 59 57 78 96 9 18 31 53 49 77 40 52 251 366 320 475 26 42 51 79 55 82 5 3 62 86 129 185 66 99 130 191 141 205 11 14 21 29 21 33 0 9 59 98 70 107 14 11 110 158 110 169 0 6 4 11 8 11 4 0 15 13 25 29 9 16 46 69 82 119 36 50 65 94 65 97 0 7 60 97 70 105 16 12 110 154 110 166 0 7 4 14 8 16 9 4 146 197 166 235 8 16 46 71 85 123 39 52 76 106 83 120 7 14 24 41 39 60 14 19 72 103 128 185 55 83 123 182 150 220 28 39 50 73 50 77 1 4 21 34 45 65 24 32 73 103 109 158 35 55 90 134 121 175 30 41 63 89 71 107 9 18 26 45 39 60 13 15 71 99 130 186 59 87 122 178 142 204 19 25 44 63 54 83 11 21 25 44 33 51 7 8 61 84 118 169 58 85 126 184 152 219 26 35 47 68 47 74 0 5 15 28 33 51 31 38 213 302 299 435 20 31 51 76 69 101 19 25 81 115 139 200 58 85 118 173 133 195 16 22 45 65 65 97 56 84 255 378 292 429 17 24 49 71 71 104 21 33 62 94 91 136 101 145 193 281 243 358 28 43 67 102 88 132 45 64 178 269 184 285 4 10 -134 221 -211 323 -23 30 -58 81 -79 114 -20 33 -59 87 -86 121 -26 33 -64 86 -84 116 -54 82 -159 225 -168 228 -5 2 -9 8 -9 14 0 11 -69 110 -135 195 -22 28 -52 71 -67 95 -15 23 -58 84 -95 135 -90 123 -193 266 -218 304 -11 16 -40 57 -65 91 -25 33 -69 95 -99 136 -29 42 -85 121 -125 176 -39 54 -96 134 -126 177 -30 43 -74 102 -97 133 -24 30 -43 58 -43 61 0 3 -39 60 -87 125 -91 123 -175 239 -278 385 -33 47 -83 118 -112 157 -29 40 -63 89 -77 108 -14 19 -53 73 -88 120 -34 47 -68 95 -74 106 -6 12 -31 47 -55 78 -24 32 -69 92 -99 135 -107 152 -212 297 -273 380 -34 46 -84 116 -112 156 -27 40 -75 107 -105 147 -30 41 -59 81 -65 90 -5 9 -44 62 -85 118 -41 56 -79 110 -85 118 -5 9 -35 50 -65 90 -30 41 -77 107 -105 147 -49 72 -118 168 -265 368 -41 56 -95 132 -120 168 -25 37 -70 100 -100 141 -30 40 -59 81 -65 90 -13 22 -155 219 -228 316 -31 42 -82 113 -112 157 -30 44 -86 121 -123 172 -37 51 -89 125 -117 164 -27 40 -67 93 -87 118 -21 25 -38 50 -38 55 0 5 -21 38 -47 72 -44 58 -63 76 -63 57z"/>
 <path d="M10527 14302 c-15 -20 -46 -65 -70 -98 -23 -34 -61 -88 -85 -120 -23 -33 -53 -74 -65 -91 -48 -71 -204 -289 -249 -347 -26 -33 -59 -81 -75 -104 -15 -24 -46 -67 -69 -95 -22 -29 -78 -106 -124 -172 -46 -66 -107 -152 -137 -191 -29 -40 -53 -75 -53 -78 0 -4 -19 -32 -42 -63 -84 -110 -138 -188 -138 -200 0 -6 -4 -13 -9 -15 -9 -3 -141 -187 -178 -248 -12 -19 -49 -71 -82 -115 -34 -44 -68 -94 -76 -112 -9 -18 -26 -45 -39 -60 -57 -68 -146 -217 -146 -243 0 -18 19 -56 51 -102 28 -40 80 -118 116 -173 37 -55 91 -134 122 -175 31 -41 70 -96 86 -122 47 -74 266 -385 286 -407 11 -11 33 -44 50 -73 17 -29 46 -71 63 -93 18 -22 81 -110 140 -195 60 -85 118 -166 130 -180 12 -14 28 -38 36 -53 7 -15 35 -54 61 -86 26 -32 63 -83 83 -112 20 -30 62 -90 95 -134 32 -44 86 -120 121 -170 34 -49 79 -111 100 -136 21 -25 48 -64 60 -85 12 -21 46 -68 75 -104 29 -36 67 -87 86 -115 19 -27 68 -95 109 -149 41 -54 86 -116 100 -137 40 -60 153 -189 166 -189 16 0 145 139 164 176 7 16 26 43 41 59 14 17 73 98 129 180 57 83 121 172 142 198 21 27 45 63 54 82 8 18 30 50 48 71 18 22 68 91 111 154 43 63 102 149 132 190 30 41 73 103 96 137 23 33 65 93 92 131 73 103 198 281 210 300 37 57 99 148 105 152 4 3 28 37 54 75 25 39 66 97 89 130 24 33 83 119 132 190 49 72 95 136 102 143 18 19 73 99 73 107 0 4 24 39 53 79 29 39 93 130 142 201 49 72 95 136 102 143 7 7 25 34 40 60 15 26 52 81 83 122 31 41 85 118 120 170 35 52 87 127 117 166 29 40 53 76 53 80 0 5 16 29 35 54 19 25 66 90 103 145 38 55 95 138 128 184 32 45 65 93 73 105 48 73 96 142 101 146 16 13 90 125 90 135 0 7 7 18 15 25 16 13 117 155 196 275 25 39 69 101 97 138 29 37 52 73 52 79 0 7 11 23 24 37 13 15 72 98 132 186 59 88 122 177 139 197 18 21 42 58 55 82 12 25 32 55 42 66 11 12 17 24 14 27 -3 4 -7 4 -9 2 -2 -2 -37 -51 -79 -109 -71 -99 -169 -240 -598 -860 -101 -146 -259 -373 -350 -505 -294 -423 -400 -575 -570 -820 -92 -132 -287 -413 -435 -625 -148 -212 -334 -479 -415 -595 -210 -302 -517 -742 -715 -1025 -94 -135 -230 -330 -303 -435 -143 -206 -280 -386 -299 -392 -21 -7 -150 164 -715 946 -242 336 -296 412 -472 663 -83 117 -175 249 -206 293 -78 109 -490 726 -571 855 -36 58 -85 140 -109 183 l-42 78 53 82 c30 45 112 163 183 262 71 99 252 351 401 561 150 209 304 423 342 475 38 52 136 191 218 309 82 118 220 315 306 438 87 122 153 222 146 222 -7 -1 -24 -18 -40 -38z"/>
 <path d="M1006 14298 c28 -47 147 -218 212 -305 17 -24 32 -45 32 -48 0 -7 101 -149 110 -155 4 -3 32 -42 61 -86 75 -114 221 -324 291 -419 32 -44 78 -108 101 -143 97 -146 254 -368 289 -411 21 -25 38 -50 38 -56 1 -5 21 -37 45 -70 25 -33 66 -91 93 -130 104 -153 184 -265 192 -270 5 -3 16 -20 25 -38 8 -18 51 -80 95 -139 44 -59 80 -110 80 -113 0 -3 35 -54 77 -113 42 -59 99 -141 127 -182 27 -41 72 -104 99 -140 27 -35 52 -71 55 -80 3 -8 19 -33 37 -55 18 -22 76 -105 130 -185 54 -80 113 -163 131 -186 18 -22 42 -58 54 -80 12 -21 37 -57 54 -79 18 -22 72 -98 121 -170 49 -71 107 -154 129 -184 23 -30 51 -71 63 -92 12 -22 36 -58 55 -81 31 -38 167 -233 274 -393 26 -38 76 -109 111 -156 35 -47 78 -108 96 -137 46 -74 199 -292 279 -399 37 -50 68 -96 68 -101 0 -5 17 -31 38 -58 20 -26 84 -116 142 -200 58 -83 118 -169 133 -190 15 -21 47 -67 70 -102 99 -147 232 -337 278 -398 27 -36 49 -69 49 -74 0 -4 36 -57 81 -117 44 -59 87 -121 95 -136 8 -15 33 -51 54 -80 46 -60 50 -91 20 -166 -35 -89 -117 -246 -178 -343 -33 -52 -67 -110 -76 -129 -9 -19 -54 -92 -100 -164 -46 -71 -124 -192 -173 -267 -48 -76 -126 -195 -172 -265 -46 -71 -87 -137 -91 -148 -4 -12 -25 -43 -46 -70 -21 -28 -69 -99 -107 -160 -38 -60 -98 -151 -133 -202 -35 -50 -64 -94 -64 -96 0 -3 -79 -124 -176 -269 -97 -144 -180 -272 -184 -284 -4 -11 -19 -33 -32 -50 -21 -25 -276 -407 -334 -500 -49 -79 -258 -389 -290 -431 -20 -26 -43 -62 -50 -79 -7 -18 -24 -45 -37 -60 -22 -27 -289 -427 -333 -500 -10 -18 -48 -74 -84 -125 -36 -52 -77 -114 -91 -139 -15 -25 -52 -79 -83 -120 -31 -41 -65 -94 -77 -118 -12 -23 -26 -48 -33 -55 -7 -7 -43 -59 -82 -117 -39 -58 -91 -136 -117 -175 -25 -38 -61 -90 -78 -114 -18 -25 -42 -61 -53 -81 -12 -20 -55 -86 -96 -146 -41 -60 -77 -113 -79 -119 -6 -14 -83 -129 -91 -135 -11 -9 -90 -129 -90 -137 0 -5 -19 -33 -41 -63 -23 -30 -76 -107 -117 -170 -41 -63 -96 -144 -122 -180 -26 -36 -58 -83 -71 -106 -13 -23 -58 -90 -99 -150 -41 -60 -77 -113 -79 -119 -4 -11 -78 -118 -140 -205 -22 -30 -40 -60 -41 -65 0 -6 -13 -26 -28 -45 -39 -47 -211 -305 -219 -327 -13 -38 1 -18 236 327 111 163 748 1114 921 1375 85 128 275 413 421 632 147 219 311 466 365 548 55 83 163 245 240 360 77 116 179 269 226 340 47 72 138 211 203 310 149 228 374 567 723 1095 432 651 737 1119 897 1375 37 61 94 151 125 200 133 212 256 455 266 526 6 46 6 48 -101 205 -60 88 -131 191 -160 229 -28 39 -77 108 -109 155 -53 78 -97 142 -340 490 -48 69 -133 191 -189 273 -56 81 -133 192 -172 247 -38 55 -122 175 -185 266 -63 92 -141 203 -172 248 -31 44 -88 126 -126 181 -102 148 -192 276 -282 405 -45 63 -128 183 -186 265 -125 180 -239 342 -355 508 -47 67 -128 183 -179 257 -51 74 -135 194 -185 265 -50 72 -138 198 -195 280 -57 83 -138 198 -179 256 -42 59 -125 178 -185 265 -61 88 -139 200 -174 249 -35 50 -111 158 -168 240 -137 197 -222 318 -347 496 -56 80 -145 207 -197 283 -52 76 -122 176 -155 221 -33 45 -107 150 -165 233 -58 83 -109 151 -113 152 -5 0 -5 -6 -1 -12z"/>
 <path d="M10981 6138 c-28 -40 -67 -95 -86 -123 -19 -27 -54 -79 -76 -115 -23 -36 -45 -67 -49 -70 -3 -3 -28 -36 -53 -75 -26 -38 -85 -126 -132 -195 -47 -69 -100 -147 -118 -175 -18 -27 -56 -81 -84 -120 -28 -38 -59 -84 -70 -101 -10 -17 -47 -73 -83 -123 -36 -51 -77 -112 -93 -137 -15 -25 -59 -88 -97 -139 -39 -52 -74 -105 -79 -118 -6 -14 -23 -40 -39 -58 -16 -19 -76 -104 -132 -189 -57 -85 -106 -157 -109 -160 -15 -13 -60 -79 -79 -116 -12 -23 -28 -48 -36 -56 -8 -9 -60 -84 -117 -169 -56 -85 -119 -176 -140 -204 -20 -27 -48 -69 -61 -91 -13 -23 -96 -151 -185 -285 -90 -134 -163 -252 -163 -263 0 -21 75 -166 122 -234 16 -23 36 -58 44 -77 13 -32 112 -189 155 -245 10 -14 25 -39 33 -57 8 -18 50 -85 94 -150 44 -65 113 -167 153 -228 40 -60 77 -114 81 -120 5 -5 25 -38 46 -72 20 -33 51 -78 67 -98 17 -20 48 -65 70 -100 49 -77 166 -248 176 -255 3 -3 16 -23 27 -45 11 -22 50 -80 87 -130 37 -49 73 -102 80 -116 8 -14 50 -78 94 -143 45 -65 81 -119 81 -122 0 -2 19 -32 43 -67 81 -122 134 -202 161 -244 14 -24 31 -43 36 -43 6 0 3 12 -7 28 -36 58 -775 1164 -973 1456 -116 169 -210 310 -210 313 0 2 -22 37 -49 77 -91 134 -299 473 -335 544 l-36 71 16 48 c51 151 303 544 996 1553 217 317 417 610 962 1412 67 98 123 178 126 178 3 0 67 -96 143 -213 76 -116 160 -243 187 -282 56 -82 305 -458 1160 -1755 725 -1101 1466 -2206 1775 -2650 290 -417 561 -780 581 -780 12 0 9 9 -13 38 -44 60 -117 159 -186 251 -34 46 -79 111 -101 145 -21 33 -60 88 -86 121 -26 33 -75 103 -110 155 -35 52 -87 127 -117 166 -29 40 -53 76 -53 80 -1 5 -21 36 -45 69 -24 33 -95 134 -156 225 -62 91 -120 176 -131 190 -10 14 -41 59 -68 100 -27 41 -69 102 -92 136 -48 69 -198 288 -213 312 -22 35 -107 160 -144 212 -22 30 -40 58 -41 62 0 4 -35 57 -77 118 -43 61 -85 123 -93 138 -23 40 -91 143 -109 164 -9 10 -34 47 -56 83 -22 35 -74 115 -116 177 -226 337 -417 625 -437 660 -12 22 -36 59 -52 81 -52 72 -127 182 -131 192 -2 6 -38 59 -79 119 -41 60 -84 126 -96 146 -11 20 -35 56 -53 81 -17 24 -51 73 -75 109 -109 162 -185 277 -231 349 -93 146 -288 436 -312 465 -13 15 -30 42 -37 60 -7 17 -30 53 -50 79 -20 26 -87 125 -149 220 -62 95 -121 178 -129 185 -15 12 -23 4 -67 -60z"/>
 </g>

</svg>