<!DOCTYPE svg PUBLIC "-//W3C//DTD SVG 20010904//EN" "http://www.w3.org/TR/2001/REC-SVG-20010904/DTD/svg10.dtd">
<svg version="1.0" xmlns="http://www.w3.org/2000/svg" width="104px" height="118px" viewBox="0 0 1040 1180" preserveAspectRatio="xMidYMid meet">
<g id="layer101" fill="#ff780d" stroke="none">
 <path d="M493 1074 c-60 -77 -128 -223 -110 -240 3 -3 36 6 74 19 75 27 167 43 316 53 67 4 97 10 97 19 0 24 -110 116 -174 146 -36 17 -89 33 -119 36 -53 5 -54 5 -84 -33z"/>
 <path d="M338 1076 c-71 -29 -147 -85 -189 -138 -31 -38 -32 -42 -19 -77 27 -78 133 -231 160 -231 4 0 11 24 15 53 12 83 43 174 101 289 30 59 54 112 54 118 0 17 -63 10 -122 -14z"/>
 <path d="M733 888 c-72 -10 -113 -23 -113 -37 0 -6 20 -24 44 -40 59 -41 155 -147 219 -242 30 -46 58 -78 67 -76 45 7 52 224 10 330 -16 40 -29 59 -44 62 -46 9 -124 10 -183 3z"/>
 <path d="M67 769 c-33 -99 -16 -271 32 -330 17 -22 26 -23 132 -24 110 0 189 15 189 36 0 5 -4 9 -10 9 -25 0 -157 143 -227 246 -42 63 -82 114 -88 114 -7 0 -19 -23 -28 -51z"/>
 <path d="M740 633 c0 -21 -7 -77 -17 -125 l-16 -87 -30 16 c-17 8 -55 17 -86 20 -48 4 -68 0 -136 -28 -76 -32 -86 -34 -202 -33 -86 0 -123 -3 -123 -11 0 -6 25 -39 56 -73 38 -42 75 -71 117 -91 41 -20 70 -42 86 -67 21 -30 127 -114 146 -114 3 0 3 28 -1 63 l-7 62 31 -32 c16 -18 33 -33 37 -33 4 0 4 20 1 44 l-7 43 56 6 c35 3 75 17 109 36 62 36 173 149 182 186 8 32 -41 116 -115 197 -63 69 -81 73 -81 21z m14 -260 c-33 -11 -79 -50 -107 -89 -17 -25 -39 -54 -47 -63 -21 -24 -70 -55 -70 -44 0 5 14 17 31 27 17 10 46 43 66 73 19 30 49 62 66 72 16 9 37 23 46 31 9 9 18 11 20 6 2 -6 0 -11 -5 -13z m-230 -89 c23 -9 1 -34 -30 -34 -26 0 -30 10 -12 28 14 14 20 15 42 6z"/>
 </g>

</svg>