<!DOCTYPE svg PUBLIC "-//W3C//DTD SVG 20010904//EN" "http://www.w3.org/TR/2001/REC-SVG-20010904/DTD/svg10.dtd">
<svg version="1.0" xmlns="http://www.w3.org/2000/svg" width="395px" height="395px" viewBox="0 0 3950 3950" preserveAspectRatio="xMidYMid meet">
<g id="layer101" fill="#52af95" stroke="none">
 <path d="M0 1975 l0 -1975 1975 0 1975 0 0 1975 0 1975 -1975 0 -1975 0 0 -1975z"/>
 </g>
<g id="layer102" fill="#fcfefd" stroke="none">
 <path d="M0 1975 l0 -1975 1975 0 1975 0 0 1975 0 1975 -1975 0 -1975 0 0 -1975z m2198 1380 c69 -66 141 -136 161 -155 21 -19 113 -109 207 -200 93 -91 297 -289 454 -440 156 -151 347 -336 423 -410 76 -74 143 -137 147 -140 5 -3 -15 -55 -45 -115 -52 -107 -126 -263 -187 -395 -17 -36 -49 -105 -73 -155 -23 -49 -60 -128 -83 -175 -22 -47 -62 -132 -89 -190 -27 -58 -63 -133 -79 -167 l-29 -63 -1008 0 c-951 0 -1008 1 -1013 18 -6 16 -22 51 -137 292 -124 260 -148 312 -187 395 -59 125 -104 221 -165 350 -28 61 -58 125 -66 143 -8 17 -17 32 -21 32 -20 0 -4 27 40 68 26 25 108 104 182 176 74 72 274 266 445 431 284 275 455 440 795 772 l125 122 39 -37 c22 -20 96 -91 164 -157z"/>
 <path d="M1827 2964 c-4 -4 -7 -179 -7 -389 l0 -382 -37 -6 c-21 -3 -74 -9 -118 -12 -294 -23 -542 -86 -614 -157 -36 -36 -39 -56 -10 -92 66 -83 332 -147 744 -179 l30 -2 0 -115 0 -115 -275 -5 -275 -5 -3 -188 -2 -187 757 2 758 3 0 185 0 185 -275 5 -275 5 0 115 c0 108 1 115 20 117 321 27 440 46 580 90 44 14 96 34 117 44 38 19 78 63 78 85 0 24 -52 74 -99 96 -118 53 -339 99 -548 113 -50 4 -104 10 -120 14 l-28 7 -5 385 -5 384 -191 3 c-104 1 -193 -1 -197 -4z m643 -864 c41 -6 107 -15 145 -21 39 -6 113 -24 165 -40 138 -43 170 -82 109 -133 -65 -55 -344 -114 -564 -119 l-100 -2 -3 133 -3 132 -199 0 -199 0 -3 -132 -3 -133 -95 2 c-96 3 -204 14 -315 35 -218 39 -321 98 -274 155 20 23 124 68 194 82 33 7 78 17 100 21 41 9 217 28 315 34 115 8 658 -3 730 -14z"/>
 </g>

</svg>