<!DOCTYPE svg PUBLIC "-//W3C//DTD SVG 20010904//EN" "http://www.w3.org/TR/2001/REC-SVG-20010904/DTD/svg10.dtd">
<svg version="1.0" xmlns="http://www.w3.org/2000/svg" width="641px" height="900px" viewBox="0 0 6410 9000" preserveAspectRatio="xMidYMid meet">
<g id="layer101" fill="#49cc68" stroke="none">
 <path d="M2960 8994 c-254 -23 -507 -68 -702 -125 -172 -50 -232 -118 -233 -259 0 -84 17 -131 68 -181 72 -72 162 -91 277 -59 126 35 329 78 455 97 92 13 182 17 385 17 307 0 438 -16 713 -86 179 -45 243 -50 309 -20 195 86 196 377 3 463 -87 39 -379 104 -605 134 -110 15 -568 28 -670 19z"/>
 <path d="M3065 7593 c-426 -37 -868 -233 -1300 -579 -125 -100 -435 -405 -547 -539 -588 -702 -1008 -1613 -1157 -2505 -70 -418 -79 -880 -25 -1243 99 -671 418 -1308 893 -1785 520 -522 1184 -839 1936 -924 161 -18 540 -15 710 5 841 102 1595 516 2113 1161 242 300 412 612 540 989 124 363 172 662 172 1082 0 311 -24 541 -91 877 -241 1212 -972 2398 -1864 3025 -282 198 -595 341 -876 402 -157 34 -355 47 -504 34z m235 -513 c236 -29 434 -125 599 -291 695 -695 623 -2372 -160 -3714 -140 -239 -339 -517 -503 -700 l-36 -40 -36 40 c-98 109 -256 316 -349 455 -343 517 -586 1102 -709 1706 -137 674 -101 1331 99 1798 83 195 175 333 302 457 174 169 355 259 578 288 99 12 120 12 215 1z m-1719 -1066 c-69 -340 -83 -802 -36 -1209 98 -847 456 -1747 973 -2445 97 -131 205 -264 269 -330 l43 -46 -82 -61 c-274 -202 -538 -328 -802 -385 -143 -30 -355 -30 -479 0 -429 106 -737 464 -878 1020 -60 238 -73 365 -73 697 0 319 8 410 59 692 136 736 475 1482 949 2087 37 48 70 85 72 83 3 -3 -4 -49 -15 -103z m3338 -33 c524 -688 870 -1547 956 -2373 20 -193 19 -524 -1 -698 -53 -461 -202 -831 -433 -1073 -145 -152 -296 -243 -487 -293 -85 -23 -120 -27 -249 -27 -236 -1 -404 43 -670 172 -137 67 -340 195 -419 264 l-40 34 45 49 c135 148 276 333 414 544 359 547 613 1155 750 1795 71 333 98 594 98 940 0 273 -16 459 -59 675 -13 69 -24 127 -24 129 0 12 41 -36 119 -138z m-1648 -4412 c427 -342 892 -535 1361 -565 125 -8 128 -1 -37 -102 -310 -189 -673 -316 -1055 -368 -170 -24 -510 -24 -680 0 -399 54 -786 195 -1105 400 l-96 62 148 11 c182 14 317 41 493 99 249 82 567 258 810 447 47 37 88 67 91 67 4 0 35 -23 70 -51z"/>
 </g>

</svg>