<?xml version="1.0" encoding="utf-8"?>
<!-- Generator: Adobe Illustrator 19.0.0, SVG Export Plug-In . SVG Version: 6.00 Build 0)  -->
<svg version="1.1" id="Layer_1" xmlns="http://www.w3.org/2000/svg" xmlns:xlink="http://www.w3.org/1999/xlink" x="0px" y="0px"
	 viewBox="-194 239 38.6 24" style="enable-background:new -194 239 38.6 24;" xml:space="preserve">
<style type="text/css">
	.st0{fill:#053F33;}
</style>
<path class="st0" d="M-160.6,239.5l-3.3,11.4c-0.4,1.5-0.8,3-1,4.5c0,0,0,0,0,0h-0.1c-0.1-0.9-0.3-1.7-0.5-2.4l-3.6-13.5h-7.4
	l-3.6,13.5c-0.1,0.7-0.4,1.6-0.5,2.4h-0.1c0,0,0,0,0,0c-0.3-1.5-0.6-3-1-4.5l-3.3-11.4h-5.2l1.5,5.4h-5.6v3.8h6.6l1.1,3.8h-7.7v3.8
	h8.8l1.7,6.1h6.2l4.2-16.1c0.1-0.6,0.3-1.2,0.3-1.7h0.1c0,0.4,0.2,1.1,0.3,1.7l4.2,16.1h6.2l6.6-23H-160.6z"/>
</svg>
