<?xml version="1.0" encoding="utf-8"?>
<!-- Generator: Adobe Illustrator 19.0.0, SVG Export Plug-In . SVG Version: 6.00 Build 0)  -->
<svg version="1.1" id="Layer_1" xmlns="http://www.w3.org/2000/svg" xmlns:xlink="http://www.w3.org/1999/xlink" x="0px" y="0px"
	 viewBox="243 23 454 454" style="enable-background:new 243 23 454 454;" xml:space="preserve">
<style type="text/css">
	.st0{fill:none;}
	.st1{fill:#2C5976;}
	.st2{fill:#FFFFFF;}
	.st3{fill:#00A9D2;}
</style>
<g id="Layer_x0020_1">
	<rect x="202.4" y="-22.4" class="st0" width="540" height="540"/>
	<circle class="st1" cx="470" cy="250" r="223.2"/>
	<g id="logoyo.eps">
		<path class="st2" d="M319.2,204.4c7.3,0,14.5-0.1,21.7,0.2c5.7,14.8,15.7,27.9,18.2,43.8c2.7-15.8,12.1-29.4,18.3-44.1
			c6.3,0,12.7,0,19-0.1c-8.8,17.2-17.7,34.3-26.7,51.3c-1.2,2.5-2.7,5-2.6,8c-0.1,10.4,0.1,20.9,0,31.4c-5.9,0-11.9,0-17.8,0
			c-0.3-11.1,0.5-22.2-0.4-33.2C339.6,242.4,329.2,223.4,319.2,204.4z M422.6,229.6c10.9-2.2,23.7-0.4,31.1,8.6
			c7.4,8.8,8.4,21.1,7.1,32.1c-1,10.1-7,20.1-16.7,23.9c-12.2,4.8-28.1,3.1-36.7-7.5c-7.8-10.4-8.4-24.6-5.5-36.8
			C404.3,239.9,412.5,231.5,422.6,229.6z M426.5,243.7c-6.6,2-8.2,9.6-8.6,15.6c-0.4,6.8,0.1,14.8,5,19.9c5.4,5.8,16.2,3.5,18.9-3.8
			c3-8.1,2.9-17.4-0.1-25.5C439.6,244,432.2,241.3,426.5,243.7z"/>
		<path class="st3" d="M473.2,205.1c12.6-1.4,25.4-2.5,38.2-1c6.6,0.9,13.5,3,18,8.3c5.5,6,5.6,15.1,3,22.5
			c-2.2,6-8.1,9.2-13.1,12.5c5.1,2,10.9,4,14,9c7.4,11.5,3,28.9-9.5,34.8c-15.6,7.8-33.8,5-50.5,3.5
			C472.9,264.7,473.2,234.9,473.2,205.1z M490.7,218.7c-0.4,7.9-0.4,15.9-0.2,23.8c7.3-0.1,15.8,0.6,21.6-4.9
			c5.7-4.1,5.2-14.3-1.5-17.1C504.4,217.5,497.4,218.8,490.7,218.7z M490.4,256.6c-0.1,8-0.1,16,0,24c7.9,0.4,17,1.8,23.8-3.3
			c5.8-4.2,5.8-14.5-0.6-18C506.5,255.4,498.2,256.8,490.4,256.6z M553.6,204.4c6.1-3,15.8-0.3,16.6,7.3c0.2,10-15.3,12.9-20.3,5.1
			C547,212.8,549.1,206.4,553.6,204.4z M585.8,218.4c5.7-1.5,11.3-3.1,17-4.7c0,5.6,0.1,11.2,0.1,16.7c5.3,0,10.6,0.1,15.8,0.3
			c-0.1,4.6-0.1,9.2-0.2,13.8c-5.2,0.1-10.4,0.1-15.6,0.1c0.4,11.1-1,22.2,0.8,33.3c2,6.2,9.7,2.7,14.2,2.1c1,4.3,2,8.6,3,12.9
			c-8.4,3-17.8,5.8-26.4,2.3c-6-2.2-8.2-8.9-8.5-14.7c-0.8-11.9-0.1-23.8-0.3-35.8c-3,0-5.8,0-8.7,0.1c-0.2-4.8-0.2-9.4-0.2-14.2
			c3-0.1,5.9-0.1,8.9-0.1C585.6,226.4,585.6,222.4,585.8,218.4z M550.8,230.5c5.8-0.1,11.4-0.1,17.2,0c0,21.5,0,43,0,64.5
			c-5.8,0-11.4,0-17.2,0C550.8,273.5,550.8,251.9,550.8,230.5z"/>
	</g>
</g>
</svg>
