<!DOCTYPE svg PUBLIC "-//W3C//DTD SVG 20010904//EN" "http://www.w3.org/TR/2001/REC-SVG-20010904/DTD/svg10.dtd">
<svg version="1.0" xmlns="http://www.w3.org/2000/svg" width="249px" height="202px" viewBox="0 0 2490 2020" preserveAspectRatio="xMidYMid meet">
<g id="layer101" fill="#015dac" stroke="none">
 <path d="M0 1010 l0 -1010 1245 0 1245 0 0 1010 0 1010 -1245 0 -1245 0 0 -1010z"/>
 </g>
<g id="layer102" fill="#ffffff" stroke="none">
 <path d="M0 1010 l0 -1010 282 0 281 0 -39 28 c-119 87 -275 261 -357 398 -109 182 -177 463 -153 628 l8 48 39 -117 c123 -366 335 -633 591 -743 l63 -27 313 -3 c171 -2 312 0 312 3 0 4 -273 398 -607 877 -333 479 -608 881 -611 894 -3 15 2 24 15 27 10 3 -17 5 -59 6 l-78 1 0 -1010z"/>
 <path d="M483 1943 c144 -205 1339 -1920 1346 -1931 5 -9 36 -12 117 -10 l111 3 -684 980 c-376 539 -692 992 -701 1008 -16 27 -17 27 -130 27 l-113 0 54 -77z"/>
 <path d="M2003 1960 c224 -180 386 -427 447 -682 23 -98 36 -246 26 -312 l-7 -47 -43 123 c-84 244 -178 402 -325 549 -94 94 -160 140 -271 189 -54 25 -61 25 -367 28 -172 2 -313 0 -313 -5 0 -4 275 -401 610 -882 336 -481 610 -880 610 -887 0 -7 -8 -18 -17 -23 -13 -8 2 -10 60 -11 l77 0 0 1010 0 1010 -281 0 -280 0 74 -60z"/>
 </g>

</svg>