<?xml version="1.0" encoding="utf-8"?>
<!-- Generator: Adobe Illustrator 19.0.0, SVG Export Plug-In . SVG Version: 6.00 Build 0)  -->
<svg version="1.1" id="Layer_1" xmlns="http://www.w3.org/2000/svg" xmlns:xlink="http://www.w3.org/1999/xlink" x="0px" y="0px"
	 viewBox="886.5 -1113.5 2727 2727" style="enable-background:new 886.5 -1113.5 2727 2727;" xml:space="preserve">
<style type="text/css">
	.st0{fill:url(#SVGID_1_);}
	.st1{fill:url(#SVGID_2_);}
	.st2{fill:url(#SVGID_3_);}
</style>
<g>
	
		<linearGradient id="SVGID_1_" gradientUnits="userSpaceOnUse" x1="1964.3981" y1="535.602" x2="2063.9089" y2="436.091" gradientTransform="matrix(17.8827 0 0 -17.8827 -33765.3789 8941.3438)">
		<stop  offset="0" style="stop-color:#C38AE9"/>
		<stop  offset="1" style="stop-color:#7363FF"/>
	</linearGradient>
	<path class="st0" d="M2250-1000c-688.5,0-1250,561.5-1250,1250s561.5,1250,1250,1250S3500,938.5,3500,250S2938.5-1000,2250-1000z
		 M2250,1321.2c-590.1,0-1071.2-481-1071.2-1071.2S1659.9-821.2,2250-821.2S3321.2-340.1,3321.2,250S2840.1,1321.2,2250,1321.2z"/>
	
		<linearGradient id="SVGID_2_" gradientUnits="userSpaceOnUse" x1="1972.2021" y1="543.4061" x2="2071.7141" y2="443.8951" gradientTransform="matrix(17.8827 0 0 -17.8827 -33765.3789 8941.3438)">
		<stop  offset="0" style="stop-color:#C38AE9"/>
		<stop  offset="1" style="stop-color:#7363FF"/>
	</linearGradient>
	<path class="st1" d="M2588-370.5c-246.8-1.8-493.6-1.8-738.6,0c-121.6,1.8-220,103.7-234.3,221.7c-25,132.3,35.8,261.1,119.8,357.7
		c51.9-55.4,103.7-110.9,159.2-164.5c-28.6-44.7-75.1-98.4-44.7-153.8c30.4-55.4,100.1-71.5,159.2-73.3c143.1-1.8,286.1,0,429.2,0
		c59,0,132.3,8.9,169.9,62.6c30.4,48.3,0,105.5-32.2,143.1c-62.6,75.1-130.5,144.8-196.7,216.4c-41.1,41.1-80.5,91.2-137.7,112.7
		c-57.2,16.1-98.4-39.3-137.7-69.7c-50.1,51.9-103.7,100.1-150.2,155.6c68,60.8,139.5,132.3,234.3,141.3
		c109.1,16.1,207.4-50.1,282.5-121.6c121.6-116.2,246.8-236.1,330.8-384.5C2893.8-93.3,2793.6-358,2588-370.5L2588-370.5z"/>
	
		<linearGradient id="SVGID_3_" gradientUnits="userSpaceOnUse" x1="1955.0967" y1="526.3006" x2="2054.6077" y2="426.7886" gradientTransform="matrix(17.8827 0 0 -17.8827 -33765.3789 8941.3438)">
		<stop  offset="0" style="stop-color:#C38AE9"/>
		<stop  offset="1" style="stop-color:#7363FF"/>
	</linearGradient>
	<path class="st2" d="M2550.4,455.7c30.4,44.7,76.9,105.5,39.3,160.9c-37.6,53.6-110.9,68-171.7,68c-148.4-1.8-296.9,1.8-445.3-1.8
		c-60.8-1.8-139.5-28.6-148.4-100.1c1.8-80.5,69.7-132.3,118-187.8c76.9-78.7,144.8-166.3,232.5-232.5
		c59-46.5,123.4,10.7,164.5,53.6c55.4-48.3,107.3-98.4,152-157.4c-69.7-59-139.5-130.5-236.1-139.5
		c-107.3-16.1-202.1,50.1-277.2,118c-116.2,110.9-234.3,223.5-320.1,361.2c-85.8,128.8-57.2,320.1,62.6,418.5
		c50.1,41.1,116.2,55.4,178.8,53.6c227.1-1.8,452.4,1.8,679.5,0c101.9,3.6,200.3-64.4,234.3-160.9c57.2-146.6-1.8-311.2-105.5-420.2
		C2657.7,346.6,2604.1,402,2550.4,455.7L2550.4,455.7z"/>
</g>
</svg>
